<?xml version="1.0" encoding="utf-8"?>
<!-- Generator: Adobe Illustrator 19.2.1, SVG Export Plug-In . SVG Version: 6.00 Build 0)  -->
<svg version="1.0" id="Layer_1" xmlns="http://www.w3.org/2000/svg" xmlns:xlink="http://www.w3.org/1999/xlink" x="0px" y="0px"
	 width="24px" height="24px" viewBox="0 0 24 24" style="enable-background:new 0 0 24 24;" xml:space="preserve">
<g>
	<g>
		<g>
			<defs>
				<path id="SVGID_1_" d="M13.437285,11.374998H11.40652V8.875002h2.030766c0.701251,0,1.269235,0.559375,1.269235,1.249998
					S14.138536,11.374998,13.437285,11.374998z M13.310362,6.375H8.868058v11.25h2.538462v-3.75h1.903842
					c2.10375,0,3.807695-1.678128,3.807695-3.75S15.414112,6.375,13.310362,6.375z"/>
			</defs>
			<clipPath id="SVGID_2_">
				<use xlink:href="#SVGID_1_"  style="overflow:visible;"/>
			</clipPath>
			<rect x="5.868058" y="3.375" style="clip-path:url(#SVGID_2_);fill:#FFFFFF;" width="14.249999" height="17.25"/>
		</g>
	</g>
</g>
<g>
	<path style="fill:#4587F4;" d="M12,0C5.372571,0,0,5.372571,0,12s5.372571,12,12,12s12-5.37257,12-12S18.62743,0,12,0z
		 M13.247864,13.924988h-1.903857v3.75H8.805542v-11.25h4.442322c2.103735,0,3.807678,1.678125,3.807678,3.75
		S15.351599,13.924988,13.247864,13.924988z"/>
	<path style="fill:#4587F4;" d="M13.374792,8.925h-2.030787v2.500012h2.030787c0.701258,0,1.269215-0.559387,1.269215-1.250025
		C14.644007,9.484387,14.07605,8.925,13.374792,8.925z"/>
</g>
</svg>
