<?xml version="1.0" encoding="UTF-8" standalone="no"?>
<svg width="20px" height="19px" viewBox="0 0 20 19" version="1.1" xmlns="http://www.w3.org/2000/svg" xmlns:xlink="http://www.w3.org/1999/xlink" xmlns:sketch="http://www.bohemiancoding.com/sketch/ns">
    <!-- Generator: Sketch 3.5.2 (25235) - http://www.bohemiancoding.com/sketch -->
    <title>ic_store_24px</title>
    <desc>Created with Sketch.</desc>
    <defs></defs>
    <g id="Page-1" stroke="none" stroke-width="1" fill="none" fill-rule="evenodd" sketch:type="MSPage">
        <g id="Mobile" sketch:type="MSArtboardGroup" transform="translate(-514.000000, -1674.000000)">
            <g id="ICONOGRAPHY" sketch:type="MSLayerGroup" transform="translate(128.000000, 1450.000000)">
                <g id="system-icons" transform="translate(0.000000, 134.000000)" sketch:type="MSShapeGroup">
                    <g id="ic_store_24px" transform="translate(384.000000, 88.000000)">
                        <rect id="Rectangle-83" x="0" y="0" width="24" height="24"></rect>
                        <path d="M16,6 L16,4 L14,2 L10,2 L8,4 L8,6 L2,6 L2,8 L2,19 C2.04425,20.2797973 2.8705,21 4,21 L20,21 C21.4275,21 22,20.2854459 22,19 L22,6 L20,6 L16,6 Z M10,4 L14,4 L14,6 L10,6 L10,4 Z M9,16.3931112 L9,9.6069583 C9,9.14006229 9.50045074,8.84853636 9.9003115,9.08248939 L15.7006667,12.4755027 C16.0997778,12.7089507 16.0997778,13.2909925 15.7006667,13.5244405 L9.9003115,16.9175801 C9.50045074,17.1514069 9,16.859881 9,16.3931112" id="Imported-Layers" fill="#000000"></path>
                    </g>
                </g>
            </g>
        </g>
    </g>
</svg>