<?xml version="1.0" encoding="UTF-8" standalone="no"?>
<svg width="65px" height="64px" viewBox="0 0 65 64" version="1.1" xmlns="http://www.w3.org/2000/svg" xmlns:xlink="http://www.w3.org/1999/xlink">
    <!-- Generator: Sketch 3.6.1 (26313) - http://www.bohemiancoding.com/sketch -->
    <title>Artboard</title>
    <desc>Created with Sketch.</desc>
    <defs></defs>
    <g id="Page-1" stroke="none" stroke-width="1" fill="none" fill-rule="evenodd">
        <g id="Artboard" fill="#000000">
            <path d="M44.7070369,18.4747048 L41.5301341,20.1747432 L41.5301341,23.2521965 C41.5301341,27.1624415 39.172711,30.5186666 35.8035653,31.9880917 C39.172711,33.4571254 41.5301341,36.813742 41.5301341,40.723987 L41.5301341,42.2999093 L44.7070369,43.9255564 L44.7070369,47.077401 L19.293381,47.077401 L19.293381,43.9255564 L22.4702838,42.3907451 L22.4702838,40.723987 C22.4702838,36.813742 24.8277069,33.4571254 28.1968526,31.9880917 C24.8277069,30.5186666 22.4702838,27.1624415 22.4702838,23.2521965 L22.4702838,20.1747432 L19.293381,18.4747048 L19.293381,15.3228602 L44.7070369,15.3228602 L44.7070369,18.4747048 Z M32.000209,0 C14.3270234,0 0,14.3270234 0,32.000209 C0,49.6729766 14.3270234,64 32.000209,64 C49.6733945,64 64.0004179,49.6729766 64.0004179,32.000209 C64.0004179,14.3270234 49.6733945,0 32.000209,0 Z M25.5113244,40.3798291 L25.5113244,42.0003862 L38.1214436,42.0003862 L38.1214436,40.3798291 C38.1214436,36.8975302 35.2988786,34.0745737 31.8165797,34.0745737 C28.3338893,34.0745737 25.5113244,36.8975302 25.5113244,40.3798291 Z M31.8165797,29.4525209 C35.2988786,29.4525209 38.1218351,26.6295644 38.1218351,23.1472655 L38.1218351,23.111636 L25.5113244,23.111636 L25.5113244,23.1472655 C25.5113244,26.6295644 28.3342809,29.4525209 31.8165797,29.4525209 Z" id="Combined-Shape"></path>
        </g>
    </g>
</svg>