<?xml version="1.0" encoding="UTF-8" standalone="no"?>
<svg width="64px" height="64px" viewBox="0 0 64 64" version="1.1" xmlns="http://www.w3.org/2000/svg" xmlns:xlink="http://www.w3.org/1999/xlink">
    <!-- Generator: Sketch 3.6.1 (26313) - http://www.bohemiancoding.com/sketch -->
    <title>Artboard</title>
    <desc>Created with Sketch.</desc>
    <defs></defs>
    <g id="Page-1" stroke="none" stroke-width="1" fill="none" fill-rule="evenodd">
        <g id="Artboard" fill="#000000">
            <g id="Group-30-Copy">
                <path d="M32.0371117,0.355283117 C14.4620468,0.355283117 0.214566234,14.6027636 0.214566234,32.1778286 C0.214566234,49.7524779 14.4620468,63.9999584 32.0371117,63.9999584 C49.6121766,63.9999584 63.8592416,49.7524779 63.8592416,32.1778286 C63.8592416,14.6027636 49.6121766,0.355283117 32.0371117,0.355283117 Z M40.2094246,30.0601633 C43.4295535,30.0601633 46.0095363,27.4607822 46.0095363,24.2406533 C46.0095363,21.0205244 43.4295535,18.4211433 40.2094246,18.4211433 C36.9892957,18.4211433 34.3899146,21.0205244 34.3899146,24.2406533 C34.3899146,27.4607822 36.9892957,30.0601633 40.2094246,30.0601633 Z M24.6907312,30.0601633 C27.9108601,30.0601633 30.4908429,27.4607822 30.4908429,24.2406533 C30.4908429,21.0205244 27.9108601,18.4211433 24.6907312,18.4211433 C21.4706023,18.4211433 18.8712212,21.0205244 18.8712212,24.2406533 C18.8712212,27.4607822 21.4706023,30.0601633 24.6907312,30.0601633 Z M24.6907312,33.9398367 C20.1709117,33.9398367 11.1118745,36.2094456 11.1118745,40.7292651 L11.1118745,45.5788567 L38.269588,45.5788567 L38.269588,40.7292651 C38.269588,36.2094456 29.2105507,33.9398367 24.6907312,33.9398367 Z M40.2094246,33.9398367 C39.646872,33.9398367 39.0067259,33.9786334 38.3277831,34.0368285 C40.5779936,35.6662913 42.1492613,37.8583068 42.1492613,40.7292651 L42.1492613,45.5788567 L53.7882814,45.5788567 L53.7882814,40.7292651 C53.7882814,36.2094456 44.7292441,33.9398367 40.2094246,33.9398367 Z" id="Combined-Shape"></path>
            </g>
        </g>
    </g>
</svg>