<?xml version="1.0" encoding="UTF-8" standalone="no"?>
<svg width="18px" height="24px" viewBox="0 0 18 24" version="1.1" xmlns="http://www.w3.org/2000/svg" xmlns:xlink="http://www.w3.org/1999/xlink" xmlns:sketch="http://www.bohemiancoding.com/sketch/ns">
    <!-- Generator: Sketch 3.4.3 (16044) - http://www.bohemiancoding.com/sketch -->
    <title>Rectangle 1 Copy 2 + Page 1 Copy Copy Copy Copy Copy Copy Copy Copy Copy Copy Copy Copy Copy Copy Copy Copy Copy + Page 1 Copy 10</title>
    <desc>Created with Sketch.</desc>
    <defs>
        <path id="path-1" d="M0,0.142752475 L17.9852079,0.142752475 L17.9852079,22.8118812 L0,22.8118812 L0,0.142752475 Z"></path>
        <path id="path-3" d="M0,0.142752475 L17.9852079,0.142752475 L17.9852079,22.8118812 L0,22.8118812 L0,0.142752475 Z"></path>
    </defs>
    <g id="Page-1" stroke="none" stroke-width="1" fill="none" fill-rule="evenodd" sketch:type="MSPage">
        <g id="Rectangle-1-Copy-2-+-Page-1-Copy-Copy-Copy-Copy-Copy-Copy-Copy-Copy-Copy-Copy-Copy-Copy-Copy-Copy-Copy-Copy-Copy-+-Page-1-Copy-10" sketch:type="MSLayerGroup" transform="translate(-3.000000, 0.000000)">
            <g id="Rectangle-1-Copy-2-+-Page-1-Copy-Copy-Copy-Copy-Copy-Copy-Copy-Copy-Copy-Copy-Copy-Copy-Copy-Copy-Copy-Copy-Copy" transform="translate(0.000000, 0.500000)" sketch:type="MSShapeGroup">
                <rect id="Rectangle-1-Copy-2" x="0" y="0" width="24" height="24"></rect>
            </g>
            <g id="Page-1-Copy-10" transform="translate(3.000000, 0.500000)">
                <g id="Group-3">
                    <mask id="mask-2" sketch:name="Clip 2" fill="white">
                        <use xlink:href="#path-1"></use>
                    </mask>
                    <g id="Clip-2"></g>
                    <path d="M0,20.4401762 C0,21.7445525 1.06734653,22.811899 2.37172277,22.811899 L7.89790099,22.811899 L7.89790099,15.6965525 L0,15.6965525 L0,20.4401762 Z" id="Fill-1" fill="#212121" sketch:type="MSShapeGroup" mask="url(#mask-2)"></path>
                </g>
                <g id="Group-6">
                    <mask id="mask-4" sketch:name="Clip 5" fill="white">
                        <use xlink:href="#path-3"></use>
                    </mask>
                    <g id="Clip-5"></g>
                    <path d="M9.8688297,2.67068317 C9.86847327,2.3919505 9.97736436,2.13086139 10.1741168,1.93375248 C10.3715822,1.73735644 10.6337406,1.62882178 10.9131861,1.62917822 C11.487404,1.62953465 11.9530871,2.09789109 11.9527307,2.67246535 C11.9523743,2.95191089 11.844196,3.21317822 11.6472653,3.40975248 L9.86633465,5.18872277 L9.8688297,2.67068317 Z M12.6976812,4.4619505 C12.8940772,4.26555446 13.1562356,4.15737624 13.4347901,4.15773267 C14.0090079,4.15808911 14.4764733,4.62555446 14.4761168,5.1999505 C14.4757604,5.68951485 14.1350079,6.09852475 13.6796614,6.20991089 L10.9454436,6.20991089 L12.6976812,4.4619505 Z M8.25364158,5.18747525 L6.47556238,3.40547525 C6.27898812,3.20872277 6.17116634,2.94709901 6.17134455,2.66765347 C6.17187921,2.09325743 6.63827525,1.62561386 7.21249307,1.62614851 C7.49193861,1.62632673 7.75409703,1.73521782 7.95102772,1.9319703 C8.14760198,2.12925743 8.25595842,2.39070297 8.25524554,2.66943564 L8.25364158,5.18747525 Z M3.64385941,5.1910396 C3.64421584,4.61664356 4.11257228,4.15006931 4.6867901,4.15042574 C4.96534455,4.15078218 5.22732475,4.25931683 5.42354257,4.45589109 L7.1757802,6.20991089 L4.46419604,6.20991089 C3.9958396,6.10743564 3.64332475,5.6900495 3.64385941,5.1910396 L3.64385941,5.1910396 Z M15.613503,6.20991089 L15.6847901,6.20991089 C15.8202356,5.90070297 15.8963347,5.55977228 15.8966911,5.20119802 C15.8979386,3.80949505 14.7667901,2.67567327 13.373305,2.67460396 L13.373305,2.67353465 C13.3738396,1.9989802 13.1111465,1.36434653 12.6349485,0.886722772 C12.1587505,0.409990099 11.5253644,0.146227723 10.8508099,0.145693069 C10.1757208,0.145158416 9.54144356,0.407851485 9.06399802,0.883871287 C9.06346337,0.884227723 9.06346337,0.884227723 9.06346337,0.884940594 C9.06346337,0.884227723 9.06346337,0.884227723 9.06292871,0.883871287 C8.58637426,0.406960396 7.95245347,0.143376238 7.27736436,0.142841584 C6.6028099,0.142306931 5.96888911,0.404821782 5.49197822,0.880841584 C5.01506733,1.35775248 4.75130495,1.99185149 4.7507703,2.66640594 L4.7507703,2.66747525 C3.35728515,2.66622772 2.22435446,3.79826733 2.22310693,5.1899703 C2.22292871,5.55264356 2.29974059,5.89767327 2.43768119,6.20991089 L2.37174059,6.20991089 C1.06736436,6.20991089 1.78217822e-05,7.27725743 1.78217822e-05,8.58163366 L1.78217822e-05,13.324901 L7.89791881,13.324901 L7.89791881,6.21686139 L10.2696416,6.21882178 L10.2696416,13.324901 L17.9852257,13.324901 L17.9852257,9.76749505 L17.9852257,8.58163366 C17.9852257,7.27725743 16.9178792,6.20991089 15.613503,6.20991089 L15.613503,6.20991089 Z" id="Fill-4" fill="#212121" sketch:type="MSShapeGroup" mask="url(#mask-4)"></path>
                </g>
                <path d="M10.2696772,22.8118812 L15.6133604,22.8118812 C16.9179149,22.8118812 17.9850832,21.7445347 17.9850832,20.4401584 L17.9850832,15.6967129 L10.2696772,15.6967129 L10.2696772,22.8118812 Z" id="Fill-7" fill="#212121" sketch:type="MSShapeGroup"></path>
            </g>
        </g>
    </g>
</svg>