<?xml version="1.0" encoding="UTF-8" standalone="no"?>
<svg width="24px" height="23px" viewBox="0 0 24 23" version="1.1" xmlns="http://www.w3.org/2000/svg" xmlns:xlink="http://www.w3.org/1999/xlink" xmlns:sketch="http://www.bohemiancoding.com/sketch/ns">
    <!-- Generator: Sketch 3.4.3 (16044) - http://www.bohemiancoding.com/sketch -->
    <title>Page 1 Copy 9</title>
    <desc>Created with Sketch.</desc>
    <defs>
        <path id="path-1" d="M0,0.103619048 L23.9577143,0.103619048 L23.9577143,22.2857143 L0,22.2857143 L0,0.103619048 Z"></path>
        <path id="path-3" d="M0,0.103619048 L23.9577143,0.103619048 L23.9577143,22.2857143 L0,22.2857143"></path>
    </defs>
    <g id="Page-1" stroke="none" stroke-width="1" fill="none" fill-rule="evenodd" sketch:type="MSPage">
        <g id="Page-1-Copy-9" sketch:type="MSLayerGroup" transform="translate(0.000000, 0.500000)">
            <path d="M18.8225143,0.103542857 L15.3798476,3.5464 L12.8265143,6.09973333 L15.3878476,8.66106667 L16.1859429,9.45935238 L22.1821333,3.46297143 L22.1821333,0.103542857 L18.8225143,0.103542857 Z" id="Fill-1" fill="#212121" sketch:type="MSShapeGroup"></path>
            <g id="Group-8">
                <g id="Group-4">
                    <mask id="mask-2" sketch:name="Clip 3" fill="white">
                        <use xlink:href="#path-1"></use>
                    </mask>
                    <g id="Clip-3"></g>
                    <path d="M8.65344762,12.0358667 L7.77192381,11.1543429 L3.97630476,14.9497714 L3.49859048,14.4720571 L2.70201905,13.6754857 C2.53878095,13.5120571 2.32468571,13.4303429 2.11059048,13.4303429 C1.89649524,13.4303429 1.68220952,13.5120571 1.51897143,13.6754857 C1.3384,13.8560571 1.25801905,14.0985333 1.27706667,14.3345333 C1.28049524,14.3760571 1.2871619,14.4170095 1.29668571,14.457581 C1.33097143,14.6044381 1.40449524,14.7442476 1.51897143,14.8587238 L2.22620952,15.5659619 L3.64087619,16.9806286 L0.475733333,20.1457714 C0.431542857,20.1789143 0.388685714,20.2143429 0.348495238,20.2545333 C0.319542857,20.2834857 0.292114286,20.3137714 0.266780952,20.344819 C0.12392381,20.5198667 0.0397333333,20.7265333 0.0115428571,20.9389143 C0.00887619048,20.9592952 0.00620952381,20.9794857 0.00468571429,20.9998667 C0.00201904762,21.0318667 -7.61904762e-05,21.0638667 -7.61904762e-05,21.0958667 C-7.61904762e-05,21.4004381 0.116114286,21.704819 0.348495238,21.9372 C0.435542857,22.0242476 0.53287619,22.0951048 0.636495238,22.149581 C0.780685714,22.2252 0.938209524,22.2619619 1.09649524,22.2745333 C1.11497143,22.2760571 1.13306667,22.2804381 1.15173333,22.2810095 C1.16449524,22.281581 1.17687619,22.2857714 1.18982857,22.2857714 C1.34201905,22.2857714 1.4944,22.2566286 1.6376381,22.1985333 C1.67344762,22.1840571 1.70868571,22.1676762 1.7431619,22.149581 C1.84678095,22.0951048 1.94411429,22.0242476 2.0311619,21.9372 C2.07135238,21.8970095 2.10678095,21.8541524 2.13992381,21.8099619 L3.72259048,20.2274857 L5.30506667,18.644819 L7.42697143,20.7667238 C7.52906667,20.868819 7.65097143,20.9391048 7.78030476,20.9773905 C7.85801905,21.0002476 7.93820952,21.0118667 8.01859048,21.0118667 C8.09878095,21.0118667 8.1791619,21.0002476 8.25687619,20.9773905 C8.38620952,20.9391048 8.50811429,20.868819 8.61020952,20.7667238 C8.62944762,20.7474857 8.64754286,20.7272952 8.66449524,20.7065333 C8.79154286,20.5526286 8.8551619,20.3640571 8.8551619,20.1751048 C8.8551619,19.9964381 8.79744762,19.8179619 8.68354286,19.668819 C8.66106667,19.6392952 8.63706667,19.6105333 8.61020952,19.5836762 L7.33592381,18.3092 L11.1313524,14.5137714 L8.65344762,12.0358667 Z" id="Fill-2" fill="#212121" sketch:type="MSShapeGroup" mask="url(#mask-2)"></path>
                </g>
                <g id="Group-7">
                    <mask id="mask-4" sketch:name="Clip 6" fill="white">
                        <use xlink:href="#path-3"></use>
                    </mask>
                    <g id="Clip-6"></g>
                    <path d="M23.8706667,20.6480571 C23.8561905,20.6122476 23.8398095,20.5770095 23.8217143,20.5425333 C23.7672381,20.4389143 23.696381,20.341581 23.6093333,20.2545333 C23.5691429,20.2143429 23.5262857,20.1789143 23.4822857,20.1457714 L21.899619,18.5631048 L20.3169524,16.9806286 L22.4388571,14.8587238 C22.5409524,14.7566286 22.6112381,14.6345333 22.6495238,14.5052 C22.6954286,14.3499619 22.6954286,14.1840571 22.6495238,14.028819 C22.6112381,13.8994857 22.5409524,13.777581 22.4388571,13.6754857 C22.419619,13.6562476 22.3994286,13.6381524 22.3786667,13.6212 C22.2247619,13.4941524 22.036,13.4303429 21.8472381,13.4303429 C21.6685714,13.4303429 21.4900952,13.4882476 21.3409524,13.6021524 C21.3114286,13.6246286 21.2826667,13.6486286 21.2558095,13.6754857 L19.9813333,14.9497714 L16.1859048,11.1543429 L15.38,10.3484381 L15.3382857,10.3067238 L14.5401905,9.50862857 L11.9788571,6.94729524 L11.1314286,6.09967619 L5.1352381,0.10367619 L1.77580952,0.10367619 L1.77580952,3.46310476 L5.21847619,6.90577143 L7.77180952,9.45929524 L8.61942857,10.3067238 L9.50095238,11.1882476 L11.9788571,13.6661524 L12.0205714,13.7078667 L12.8264762,14.5137714 L16.6219048,18.3092 L16.1441905,18.7871048 L15.347619,19.5836762 C15.0209524,19.9103429 15.0209524,20.4400571 15.347619,20.7667238 C15.4339048,20.8532 15.535619,20.9132 15.6426667,20.9537714 C15.6779048,20.9672952 15.715619,20.9667238 15.7521905,20.9751048 C15.8142857,20.9893905 15.8754286,21.0112952 15.9388571,21.0112952 C15.9615238,21.0112952 15.9841905,21.0103429 16.0066667,21.0086286 C16.048,21.0052 16.0891429,20.9985333 16.1297143,20.9890095 C16.2767619,20.9547238 16.4161905,20.8812 16.5308571,20.7667238 L17.2380952,20.0594857 L18.6527619,18.644819 L21.8179048,21.8099619 C21.8510476,21.8541524 21.8864762,21.8970095 21.9266667,21.9372 C21.955619,21.9661524 21.9859048,21.9933905 22.0169524,22.0189143 C22.1921905,22.1617714 22.3986667,22.2459619 22.6110476,22.2741524 C22.6314286,22.2766286 22.651619,22.2794857 22.672,22.2810095 C22.704,22.2836762 22.736,22.2857714 22.768,22.2857714 C23.0725714,22.2857714 23.3769524,22.169581 23.6093333,21.9372 C23.696381,21.8499619 23.7672381,21.752819 23.8217143,21.6492 C23.9849524,21.3383429 24.0013333,20.9703429 23.8706667,20.6480571" id="Fill-5" fill="#212121" sketch:type="MSShapeGroup" mask="url(#mask-4)"></path>
                </g>
            </g>
        </g>
    </g>
</svg>