<?xml version="1.0" encoding="UTF-8" standalone="no"?>
<svg width="512px" height="512px" viewBox="0 0 512 512" version="1.1" xmlns="http://www.w3.org/2000/svg" xmlns:xlink="http://www.w3.org/1999/xlink">
    <!-- Generator: Sketch 3.7 (28169) - http://www.bohemiancoding.com/sketch -->
    <title>Artboard Copy 10</title>
    <desc>Created with Sketch.</desc>
    <defs></defs>
    <g id="Page-1" stroke="none" stroke-width="1" fill="none" fill-rule="evenodd">
        <g id="Artboard-Copy-10">
            <g id="games_recommended_empty" transform="translate(1.000000, 0.000000)">
                <g id="Layer_1">
                    <g id="Group">
                        <circle id="Oval" fill="#D8D9D8" cx="255.1" cy="255.1" r="255.1"></circle>
                        <g transform="translate(85.000000, 21.000000)">
                            <path d="M119.9,15.3 L127.7,15.3 C118.3,15.3 114.8,12 114.8,8 L126.6,8 C117.5,8.3 111.2,6.1 109.2,0.9 L127.1,0.9 C136.6,0.9 138.6,6.4 138.2,18.4 L138.2,22.7 L138.2,22.7 L138.2,23.9 C138.2,24.6 138.5,25.3 139,25.9 L139,25.9 C139.5,26.4 140.1,26.7 141,26.7 L146.9,26.7 L146.9,33 L141,33 C138.5,33 136.3,32 134.7,30.3 L134.7,30.3 L134.7,30.3 C133.1,28.7 132,26.4 132,24 L132,22.8 L129.7,22.8 C123.6,22.7 119.9,19.8 119.9,15.3 L119.9,15.3 Z" id="Shape" fill="#555555"></path>
                            <polygon id="Shape" fill="#575757" points="245.8 162.3 254.4 179.7 302.1 162.3 293.5 144.9"></polygon>
                            <polygon id="Shape" fill="#6C6C6C" points="250.1 170.9 254.4 179.7 302.1 162.3 297.8 153.5"></polygon>
                            <path d="M169.9,423.9 C188,423.9 205.4,424.4 221.7,425.5 L339.2,425.5 L339.2,457.4 C339.2,475.9 263.4,490.9 169.9,490.9 C76.4,490.9 0.6,476 0.6,457.5 L0.6,425.6 L118,425.6 C134.4,424.6 151.8,423.9 169.9,423.9 L169.9,423.9 Z" id="Shape" fill="#939393"></path>
                            <path d="M169.9,459.1 C263.1,459.1 339.2,444.1 339.2,425.6 C339.2,407.1 263.2,392.1 169.9,392.1 C76.7,392.1 0.6,407.1 0.6,425.6 C0.6,444 76.7,459.1 169.9,459.1 L169.9,459.1 Z" id="Shape" fill="#C2C2C2"></path>
                            <polygon id="Shape" fill="#2F2F2F" points="113 81.4 223 81.4 278 374.2 58 374.2 113 81.4"></polygon>
                            <rect id="Rectangle-path" fill="#6C6C6C" transform="translate(86.511110, 161.219560) rotate(41.468904) translate(-86.511110, -161.219560) " x="76.8113073" y="138.820016" width="19.3996055" height="44.799089"></rect>
                            <rect id="Rectangle-path" fill="#575757" transform="translate(90.168015, 164.442650) rotate(41.468904) translate(-90.168015, -164.442650) " x="85.3181136" y="142.043106" width="9.69980275" height="44.799089"></rect>
                            <rect id="Rectangle-path" fill="#939393" transform="translate(119.668770, 123.188600) rotate(41.468904) translate(-119.668770, -123.188600) " x="104.969069" y="89.1892914" width="29.3994021" height="67.9986172"></rect>
                            <rect id="Rectangle-path" fill="#6B6B6B" transform="translate(125.215505, 128.113280) rotate(41.468904) translate(-125.215505, -128.113280) " x="117.865654" y="94.1139714" width="14.6997011" height="67.9986172"></rect>
                            <polygon id="Shape" fill="#575757" points="239.3 133.2 224.7 146 254.4 179.7 260.3 156.9"></polygon>
                            <path d="M54.9,174.2 L68.1,173.2 C70.8,173 76.6,173.5 78.7,175.3 L87.8,183.2 C89.9,184.9 90.1,188.1 88.2,190.1 L88.2,190.1 C86.5,192.2 83.3,192.4 81.3,190.5 L72.2,182.6 C71.2,181.7 58.5,184.7 54,182.7 C49.7,181 53.5,174.3 54.9,174.2 L54.9,174.2 Z" id="Shape" fill="#959595"></path>
                            <rect id="Rectangle-path" fill="#6C6C6C" transform="translate(243.224885, 159.620250) rotate(138.531096) translate(-243.224885, -159.620250) " x="238.374984" y="137.220706" width="9.69980275" height="44.799089"></rect>
                            <rect id="Rectangle-path" fill="#6B6B6B" transform="translate(217.388640, 123.175720) rotate(138.531096) translate(-217.388640, -123.175720) " x="202.688939" y="89.1764114" width="29.3994021" height="67.9986172"></rect>
                            <rect id="Rectangle-path" fill="#939393" transform="translate(211.866695, 127.992770) rotate(138.531096) translate(-211.866695, -127.992770) " x="204.516844" y="93.9934614" width="14.6997011" height="67.9986172"></rect>
                            <rect id="Rectangle-path" fill="#989898" x="157.1" y="46.1" width="21.7" height="45.3"></rect>
                            <g transform="translate(54.000000, 424.000000)" id="Shape" fill="#B3B3B3">
                                <path d="M214.9,0.9 L61.5,0.9 C58.4,0.9 55.8,3.5 55.8,6.6 C55.8,9.7 58.4,12.3 61.5,12.3 L165.5,12.3 C163.1,12.3 161.3,14.2 161.3,16.5 C161.3,18.9 163.2,20.7 165.5,20.7 L195.7,20.7 C198.1,20.7 199.9,18.8 199.9,16.5 C199.9,14.1 198,12.3 195.7,12.3 L214.9,12.3 C218,12.3 220.6,9.7 220.6,6.6 C220.6,3.5 218,0.9 214.9,0.9 L214.9,0.9 Z"></path>
                                <path d="M36.2,4.5 L4.4,4.5 C2.2,4.5 0.6,6.2 0.6,8.3 C0.6,10.5 2.3,12.1 4.4,12.1 L36.2,12.1 C38.4,12.1 40,10.4 40,8.3 C40,6.2 38.3,4.5 36.2,4.5 L36.2,4.5 Z"></path>
                            </g>
                            <path d="M213.7,337.1 L213.7,337.1 C206.2,339.1 203.4,332.6 201.2,324.2 C195,301.1 180.9,295.7 177.5,283 L174.5,271.8 C168.5,249.4 163.4,224.9 182.3,219.9 C201.3,214.9 209,238.6 215.1,260.9 L218.1,272.1 C221.5,285 212,296.6 218.2,319.7 C220.4,328 221.2,335.1 213.7,337.1 L213.7,337.1 L213.7,337.1 Z M182.3,219.8 L213.8,337.2 L182.3,219.8 L182.3,219.8 Z" id="Shape" fill="#C3C3C3"></path>
                            <path d="M68.3,180.8 L67.6,180.8 C38.6,180.8 14.9,188.9 13.3,199.1 L13.2,199.1 L13.2,200.2 L13.2,231.5 L123.4,231.5 L123.4,200.2 L123.4,199.1 L123.3,199.1 C121.7,188.9 98,180.8 69,180.8 L68.3,180.8 L68.3,180.8 Z" id="Shape" fill="#818181"></path>
                            <path d="M213.7,337.1 L213.7,337.1 C221.2,335.1 220.4,327.9 218.1,319.6 C211.9,296.5 221.4,284.8 218,272 L215,260.8 C209,238.4 201.2,214.6 182.2,219.8 L213.7,337.1 L213.7,337.1 Z" id="Shape" fill="#7B7B7B"></path>
                            <path d="M68.6,180.8 L68.3,180.8 L67.6,180.8 C38.6,180.8 14.9,188.9 13.3,199.1 L13.2,199.1 L13.2,200.2 L13.2,231.5 L68.6,231.5 L68.6,180.8 L68.6,180.8 Z" id="Shape" fill="#B3B3B3"></path>
                            <path d="M221.6,411.7 L221.6,411.7 C214.5,412.7 213.1,406.4 211.9,398.4 C208.8,376.5 196.6,370 194.8,358 L191.8,336.8 C191.2,332.5 204.3,316.4 207.1,309.4 C211.6,315.3 228.8,327.2 229.4,331.4 L232.4,352.6 C234.1,364.7 224.1,374.3 227.2,396.2 C228.3,404.2 228.6,410.8 221.6,411.7 L221.6,411.7 L221.6,411.7 Z M207.2,309.5 L221.6,411.7 L207.2,309.5 L207.2,309.5 Z" id="Shape" fill="#C3C3C3"></path>
                            <path d="M232.6,354.9 L221.6,411.7 L221.6,411.7 L221.6,411.7 L221.6,411.7 L212.9,349.7 L207.2,309.5 C211.7,315.4 228.9,327.3 229.5,331.5 L229.5,331.5 L232.5,352.7 L232.5,352.7 C232.5,352.9 232.5,353.1 232.6,353.3 L232.6,353.3 C232.6,353.5 232.6,353.7 232.7,353.8 L232.7,353.8 L232.7,354.3 L232.7,354.3 C232.6,354.5 232.6,354.7 232.6,354.9 L232.6,354.9 L232.6,354.9 L232.6,354.9 Z M221.6,411.7 L221.9,411.7 L221.9,411.7 C222,411.7 222.1,411.7 222.2,411.6 L222.2,411.6 C222.3,411.6 222.4,411.6 222.5,411.5 L222.5,411.5 C222.6,411.5 222.7,411.5 222.8,411.4 L222.8,411.4 C222.9,411.4 223,411.3 223.1,411.3 L223.1,411.3 C223.2,411.3 223.3,411.2 223.4,411.2 L223.4,411.2 C223.5,411.2 223.6,411.1 223.7,411.1 L223.7,411.1 C223.8,411.1 223.9,411 223.9,411 C224,411 224.1,410.9 224.1,410.9 L224.1,410.9 C224.2,410.9 224.3,410.8 224.3,410.8 C224.4,410.8 224.4,410.7 224.5,410.7 C224.6,410.7 224.6,410.6 224.7,410.6 C224.8,410.6 224.8,410.5 224.9,410.5 L224.9,410.5 C225,410.5 225,410.4 225.1,410.4 L225.1,410.4 C225.2,410.3 225.2,410.3 225.3,410.2 L225.3,410.2 C225.4,410.1 225.4,410.1 225.5,410 C225.6,409.9 225.6,409.9 225.7,409.8 L225.9,409.6 L226.1,409.4 C226.2,409.3 226.2,409.3 226.2,409.2 C226.2,409.1 226.3,409.1 226.3,409 C226.3,408.9 226.4,408.9 226.4,408.8 L226.4,408.8 C226.4,408.7 226.5,408.7 226.5,408.6 L226.5,408.6 C226.5,408.5 226.6,408.5 226.6,408.4 L226.6,408.4 C226.6,408.3 226.7,408.3 226.7,408.2 C226.7,408.1 226.8,408.1 226.8,408 C226.8,407.9 226.9,407.9 226.9,407.8 C226.9,407.7 227,407.6 227,407.6 C227,407.5 227.1,407.4 227.1,407.4 C227.1,407.3 227.2,407.2 227.2,407.2 C227.2,407.1 227.2,407 227.3,407 C227.3,406.9 227.3,406.8 227.4,406.8 L227.5,406.5 L227.6,406.2 L227.6,405.9 L227.6,405.6 L227.6,405.3 L227.6,405.3 L227.6,405 L227.6,404.7 L227.6,404.4 L227.6,404.1 L227.6,403.8 L227.6,403.5 L227.6,403 L227.6,402.7 L227.6,402.4 L227.6,402 L227.6,401.7 L227.6,401.4 L227.6,401.1 L227.6,400.8 L227.6,400.5 L227.6,400.2 L227.6,399.9 L227.6,399.6 L227.6,399.3 L227.6,399 L227.6,398.7 L227.6,398.4 L227.6,398 L227.6,397.6 L227.6,397.2 L227.5,396.8 L227.4,396.4 C227.4,396.1 227.3,395.7 227.3,395.4 C227.3,395.1 227.2,394.7 227.2,394.4 C227.2,394.1 227.1,393.8 227.1,393.4 C227.1,393.1 227,392.8 227,392.5 C227,392.2 227,391.9 226.9,391.6 L226.9,390.7 L226.9,389.8 L226.9,388.9 L226.9,388 L226.9,387.2 L226.9,386.4 L226.9,385.6 C226.9,385.3 226.9,385.1 227,384.8 C227,384.5 227,384.3 227.1,384 C227.1,383.7 227.1,383.5 227.2,383.2 C227.2,382.9 227.3,382.7 227.3,382.4 C227.3,382.1 227.4,381.9 227.4,381.6 C227.4,381.4 227.5,381.1 227.5,380.9 C227.5,380.7 227.6,380.4 227.6,380.2 C227.6,380 227.7,379.7 227.7,379.5 C227.7,379.3 227.8,379 227.8,378.8 C227.8,378.6 227.9,378.3 227.9,378.1 C227.9,377.9 228,377.6 228,377.4 C228,377.2 228.1,376.9 228.1,376.7 L228.3,376 L228.3,376 L228.5,375.3 L228.7,374.6 L228.9,374 L229.1,373.4 L229.3,372.8 L229.5,372.2 L229.7,371.6 L229.9,371 L230.1,370.4 L230.3,369.8 L230.5,369.2 L230.7,368.6 L230.9,368 L230.9,368 L231.1,367.4 L231.3,366.8 L231.5,366.2 L231.7,365.6 L231.9,365 L232,364.5 L232.1,364 L232.2,363.5 L232.3,363 L232.3,363 L232.4,362.5 C232.4,362.3 232.5,362.1 232.5,362 C232.5,361.8 232.6,361.6 232.6,361.5 C232.6,361.3 232.7,361.1 232.7,361 C232.7,360.8 232.8,360.6 232.8,360.5 L232.8,360.5 C232.8,360.3 232.9,360.1 232.9,360 L232.9,360 C232.9,359.8 232.9,359.6 233,359.5 C233,359.3 233,359.1 233.1,359 L233.1,358.5 L233.1,358 L233.1,358 L233.1,357.5 L233.1,357.5 L233.1,357 L221.6,411.7 L221.6,411.7 Z M221.6,411.7 L212.9,349.7 L207.2,309.5 L221.6,411.7 L221.6,411.7 Z" id="Shape" fill="#5D5D5D"></path>
                            <path d="M226.5,392.8 C226.4,393.5 226.4,394.3 226.4,395.2 L226.4,395.2 C226.4,405.3 232,413.7 239.4,415.7 L239.4,427.4 L219.2,443.2 L199,427.4 L199,415.7 C206.4,413.7 212,405.2 212,395.2 L212,395.2 C212,394.4 212,393.7 211.9,392.8 L226.5,392.8 L226.5,392.8 Z" id="Shape" fill="#C3C3C3"></path>
                            <path d="M226.5,392.8 C226.4,393.5 226.4,394.3 226.4,395.2 L226.4,395.2 C226.4,405.3 232,413.7 239.4,415.7 L239.4,427.4 L219.2,443.2 L219.2,392.9 L226.5,392.9 L226.5,392.8 L226.5,392.8 Z" id="Shape" fill="#5D5D5D"></path>
                            <path d="M185,205.3 C204.1,202.3 219.9,225.7 233.1,263.2 L226.1,263.2 C209,263.2 201.1,248.1 195,232.1 L185,205.3 L185,205.3 Z" id="Shape" fill="#444444"></path>
                            <path d="M123.4,337.1 L123.4,337.1 C115.9,335.1 116.7,327.9 119,319.6 C125.2,296.5 115.7,284.8 119.1,272 L122.1,260.8 C128.1,238.4 135.9,214.6 154.9,219.8 C173.9,224.8 168.8,249.3 162.7,271.7 L159.7,282.9 C156.3,295.8 142.2,301 136,324.1 C133.8,332.5 130.9,339.1 123.4,337.1 L123.4,337.1 L123.4,337.1 Z M154.9,219.8 L123.4,337.2 L154.9,219.8 L154.9,219.8 Z" id="Shape" fill="#7B7B7B"></path>
                            <path d="M123.4,337.1 L123.4,337.1 C130.9,339.1 133.7,332.6 135.9,324.2 C142.1,301.1 156.2,295.7 159.6,283 L162.6,271.8 C168.6,249.4 173.7,224.9 154.8,219.9 L123.4,337.1 L123.4,337.1 Z" id="Shape" fill="#5D5D5D"></path>
                            <path d="M115.6,411.7 L115.6,411.7 C122.7,412.7 124.1,406.4 125.3,398.4 C128.4,376.5 140.6,370 142.4,358 L145.4,336.8 C146,332.5 132.9,316.4 130.1,309.4 C125.6,315.3 108.4,327.2 107.8,331.4 L104.8,352.6 C103.1,364.7 113.1,374.3 110,396.2 C108.8,404.2 108.5,410.8 115.6,411.7 L115.6,411.7 L115.6,411.7 Z M130,309.5 L115.6,411.7 L130,309.5 L130,309.5 Z" id="Shape" fill="#7B7B7B"></path>
                            <path d="M104.6,354.9 L115.6,411.7 L115.6,411.7 L115.6,411.7 L115.6,411.7 L124.3,349.7 L130,309.5 C125.5,315.4 108.3,327.3 107.7,331.5 L107.7,331.5 L104.7,352.7 L104.7,352.7 C104.7,352.9 104.7,353.1 104.6,353.3 L104.6,353.3 C104.6,353.5 104.6,353.7 104.5,353.8 L104.5,353.8 L104.5,354.3 L104.5,354.3 C104.6,354.5 104.6,354.7 104.6,354.9 L104.6,354.9 L104.6,354.9 L104.6,354.9 Z M115.6,411.7 L115.3,411.7 L115.3,411.7 C115.2,411.7 115.1,411.7 115,411.6 L115,411.6 C114.9,411.6 114.8,411.6 114.7,411.5 L114.7,411.5 C114.6,411.5 114.5,411.5 114.4,411.4 L114.4,411.4 C114.3,411.4 114.2,411.3 114.1,411.3 L114.1,411.3 C114,411.3 113.9,411.2 113.8,411.2 L113.8,411.2 C113.7,411.2 113.6,411.1 113.5,411.1 L113.5,411.1 C113.4,411.1 113.3,411 113.3,411 C113.2,411 113.1,410.9 113.1,410.9 L113.1,410.9 C113,410.9 112.9,410.8 112.9,410.8 C112.8,410.8 112.8,410.7 112.7,410.7 C112.6,410.7 112.6,410.6 112.5,410.6 C112.4,410.6 112.4,410.5 112.3,410.5 L112.3,410.5 C112.2,410.5 112.2,410.4 112.1,410.4 L112.1,410.4 C112,410.3 112,410.3 111.9,410.2 L111.9,410.2 C111.8,410.1 111.8,410.1 111.7,410 C111.6,409.9 111.6,409.9 111.5,409.8 C111.4,409.7 111.4,409.7 111.3,409.6 C111.2,409.5 111.2,409.5 111.1,409.4 C111.1,409.3 111,409.3 111,409.2 C111,409.1 110.9,409.1 110.9,409 C110.9,408.9 110.8,408.9 110.8,408.8 L110.8,408.8 C110.8,408.7 110.7,408.7 110.7,408.6 L110.7,408.6 C110.7,408.5 110.6,408.5 110.6,408.4 L110.6,408.4 C110.6,408.3 110.5,408.3 110.5,408.2 C110.5,408.1 110.4,408.1 110.4,408 C110.4,407.9 110.3,407.9 110.3,407.8 C110.3,407.7 110.2,407.6 110.2,407.6 C110.2,407.5 110.1,407.4 110.1,407.4 C110.1,407.3 110,407.2 110,407.2 C110,407.1 110,407 109.9,407 C109.9,406.9 109.9,406.8 109.8,406.8 L109.7,406.5 L109.6,406.2 L109.6,405.9 L109.6,405.6 L109.6,405.3 L109.6,405.3 L109.6,405 L109.6,404.7 L109.6,404.4 L109.6,404.1 L109.6,403.8 L109.6,403.5 L109.6,403 L109.6,402.7 L109.6,402.4 L109.6,402 L109.6,401.7 L109.6,401.4 L109.6,401.1 L109.6,400.8 L109.6,400.5 L109.6,400.2 L109.6,399.9 L109.6,399.6 L109.6,399.3 L109.6,399 L109.6,398.7 L109.6,398.4 L109.6,398 L109.6,397.6 L109.6,397.2 L109.6,396.8 L109.7,396.4 C109.7,396.1 109.8,395.7 109.8,395.4 C109.8,395.1 109.9,394.7 109.9,394.4 C109.9,394.1 110,393.8 110,393.4 C110,393.1 110.1,392.8 110.1,392.5 C110.1,392.2 110.1,391.9 110.2,391.6 L110.2,390.7 L110.2,389.8 L110.2,388.9 L110.2,388 L110.2,387.2 L110.2,386.4 L110.2,385.6 L110.2,384.8 C110.2,384.5 110.2,384.3 110.1,384 C110.1,383.7 110.1,383.5 110,383.2 C110,382.9 109.9,382.7 109.9,382.4 C109.9,382.1 109.8,381.9 109.8,381.6 C109.8,381.4 109.7,381.1 109.7,380.9 C109.7,380.7 109.6,380.4 109.6,380.2 C109.6,380 109.5,379.7 109.5,379.5 C109.5,379.3 109.4,379 109.4,378.8 C109.4,378.6 109.3,378.3 109.3,378.1 C109.3,377.9 109.2,377.6 109.2,377.4 C109.2,377.2 109.1,376.9 109.1,376.7 L108.9,376 L108.9,376 L108.7,375.3 L108.5,374.6 L108.3,374 L108.1,373.4 L107.9,372.8 L107.7,372.2 L107.5,371.6 L107.3,371 L107.1,370.4 L106.9,369.8 L106.7,369.2 L106.5,368.6 L106.3,368 L106.3,368 L106.1,367.4 L105.9,366.8 L105.7,366.2 L105.5,365.6 L105,364 L104.9,363.5 L104.8,363 L104.7,362.5 L104.6,362 L104.6,362 L104.5,361.5 C104.5,361.3 104.4,361.1 104.4,361 C104.4,360.8 104.3,360.6 104.3,360.5 C104.3,360.3 104.2,360.1 104.2,360 C104.2,359.8 104.1,359.6 104.1,359.5 L104.1,359.5 C104.1,359.3 104,359.1 104,359 L104,359 C104,358.8 104,358.6 103.9,358.5 C103.9,358.3 103.9,358.1 103.8,358 L103.8,357.5 L103.8,357 L103.8,357 L103.8,356.5 L103.8,356.5 L103.8,356 L115.6,411.7 L115.6,411.7 Z M115.6,411.7 L124.3,349.7 L130,309.5 L115.6,411.7 L115.6,411.7 Z" id="Shape" fill="#C3C3C3"></path>
                            <path d="M110.5,392.8 C110.6,393.5 110.6,394.3 110.6,395.2 L110.6,395.2 C110.6,405.3 105,413.7 97.6,415.7 L97.6,427.4 L117.8,443.2 L138,427.4 L138,415.7 C130.6,413.7 125,405.2 125,395.2 L125,395.2 C125,394.4 125,393.7 125.1,392.8 L110.5,392.8 L110.5,392.8 Z" id="Shape" fill="#7B7B7B"></path>
                            <path d="M110.5,392.8 C110.6,393.5 110.6,394.3 110.6,395.2 L110.6,395.2 C110.6,405.3 105,413.7 97.6,415.7 L97.6,427.4 L117.8,443.2 L117.8,392.9 L110.5,392.9 L110.5,392.8 L110.5,392.8 Z" id="Shape" fill="#C3C3C3"></path>
                            <path d="M152.2,205.3 C133.1,202.3 117.3,225.7 104.1,263.2 L111.1,263.2 C128.2,263.2 136.1,248.1 142.2,232.1 L152.2,205.3 L152.2,205.3 Z" id="Shape" fill="#444444"></path>
                            <path d="M168.5,240.7 C179.8,234.3 194,220.1 194,204.5 C194,161.2 216.1,165.8 216.1,141.8 L216.1,113 C216.1,97.4 204.6,84.6 190.6,84.6 L168.5,84.6 L168.5,240.7 L168.5,240.7 Z" id="Shape" fill="#939393"></path>
                            <path d="M168.5,240.7 C157.2,234.3 143,220.1 143,204.5 C143,161.2 120.9,165.8 120.9,141.8 L120.9,113 C120.9,97.4 132.4,84.6 146.4,84.6 L168.5,84.6 L168.5,240.7 L168.5,240.7 Z" id="Shape" fill="#B3B3B3"></path>
                            <polygon id="Shape" fill="#575757" points="197.3 195.1 168.5 205.2 168.5 181.4 199.2 181.4"></polygon>
                            <polygon id="Shape" fill="#6C6C6C" points="139.7 195.1 168.5 205.2 168.5 181.4 137.9 181.4"></polygon>
                            <path d="M13.1,211.2 L13.1,212.3 L13.1,272 L13.2,272 L13.2,278.3 C14.8,336.8 25.1,404.3 68.1,428.4 C111.1,404.4 121.4,336.9 123,278.3 L123,272 L123.1,272 L123.1,212.3 L123.1,211.2 L123,211.2 C121.4,201 97.7,192.9 68.7,192.9 L68,192.9 L67.3,192.9 C38.5,192.9 14.9,201.1 13.1,211.2 L13.1,211.2 L13.1,211.2 Z" id="Shape" fill="#525252"></path>
                            <path d="M68.3,428.4 C111.3,404.4 121.6,336.9 123.2,278.3 L123.2,272 L123.3,272 L123.3,212.3 L123.3,211.2 L123.2,211.2 C121.6,201 97.9,192.9 68.9,192.9 L68.2,192.9 L68.2,428.3 L68.3,428.3 L68.3,428.4 Z" id="Shape" fill="#494949"></path>
                            <path d="M14.1,320.4 C19.2,369.2 33.2,416.6 68.2,436.1 C103.2,416.6 117.2,369.1 122.3,320.4 L106.3,320.4 C102.6,358.7 92.8,395.9 68.3,411.2 C43.8,395.9 33.9,358.6 30.3,320.4 L14.1,320.4 L14.1,320.4 L14.1,320.4 Z" id="Shape" fill="#B3B3B3"></path>
                            <path d="M68.3,436.1 C103.3,416.6 117.3,369.1 122.4,320.4 L106.4,320.4 C102.7,358.7 92.9,395.9 68.4,411.2 L68.4,436.1 L68.3,436.1 L68.3,436.1 Z" id="Shape" fill="#818181"></path>
                            <path d="M75.9,170.2 L75.9,170.2 C78,170.2 79.7,171.8 79.7,174 L79.7,183.6 C79.7,185.7 78.1,187.4 75.9,187.4 L75.9,187.4 C73.8,187.4 72.1,185.8 72.1,183.6 L72.1,174 C72.2,172 73.8,170.2 75.9,170.2 L75.9,170.2 Z" id="Shape" fill="#C3C3C3"></path>
                            <path d="M67.3,168.2 L67.3,168.2 C69.4,168.2 71.1,169.8 71.1,172 L71.1,187.7 C71.1,189.8 69.5,191.5 67.3,191.5 L67.3,191.5 C65.2,191.5 63.5,189.9 63.5,187.7 L63.5,172 C63.6,170 65.3,168.2 67.3,168.2 L67.3,168.2 Z" id="Shape" fill="#C3C3C3"></path>
                            <path d="M61.8,166.7 L61.8,166.7 C63.9,166.9 65.4,168.8 65.2,170.8 L63.6,186.5 C63.4,188.6 61.5,190.1 59.5,189.9 L59.5,189.9 C57.4,189.7 55.9,187.8 56.1,185.8 L57.7,170.1 C57.9,167.9 59.7,166.5 61.8,166.7 L61.8,166.7 Z" id="Shape" fill="#C3C3C3"></path>
                            <path d="M54.4,170.9 L54.4,170.9 C56.5,171.4 57.6,173.5 57.2,175.4 L54.8,184.7 C54.3,186.7 52.2,187.9 50.3,187.5 L50.3,187.5 C48.2,187 47.1,184.9 47.5,183 L49.9,173.7 C50.3,171.6 52.3,170.4 54.4,170.9 L54.4,170.9 Z" id="Shape" fill="#C3C3C3"></path>
                            <path d="M89,97.7 L125.5,92.4 C125.5,106.8 124.2,121.5 126.2,135.8 L118.3,136.9 L89,97.7 L89,97.7 Z" id="Shape" fill="#989898"></path>
                            <path d="M248.1,97.7 L211.6,92.4 C211.6,106.8 212.9,121.5 210.9,135.8 L218.8,136.9 L248.1,97.7 L248.1,97.7 Z" id="Shape" fill="#989898"></path>
                            <path d="M112.4,210.9 L112.4,210.9 C114.8,210.9 116.7,212.9 116.7,215.2 L116.7,215.2 C116.7,217.6 114.7,219.5 112.4,219.5 L112.4,219.5 C110,219.5 108.1,217.5 108.1,215.2 L108.1,215.2 C108.2,212.9 110,210.9 112.4,210.9 L112.4,210.9 Z" id="Shape" fill="#C2C2C2"></path>
                            <path d="M112.4,210.9 L112.4,210.9 C114.8,210.9 116.7,212.9 116.7,215.2 L116.7,215.2 C116.7,217.6 114.7,219.5 112.4,219.5 L112.4,219.5 L112.4,210.9 L112.4,210.9 Z" id="Shape" fill="#939393"></path>
                            <path d="M92.8,201.8 L92.8,201.8 C95.2,201.8 97.1,203.8 97.1,206.1 L97.1,206.1 C97.1,208.5 95.1,210.4 92.8,210.4 L92.8,210.4 C90.4,210.4 88.5,208.4 88.5,206.1 L88.5,206.1 C88.5,203.6 90.5,201.8 92.8,201.8 L92.8,201.8 Z" id="Shape" fill="#C2C2C2"></path>
                            <path d="M92.8,201.8 L92.8,201.8 C95.2,201.8 97.1,203.8 97.1,206.1 L97.1,206.1 C97.1,208.5 95.1,210.4 92.8,210.4 L92.8,210.4 L92.8,201.8 L92.8,201.8 Z" id="Shape" fill="#939393"></path>
                            <path d="M68.3,197.8 L68.3,197.8 C70.7,197.8 72.6,199.8 72.6,202.1 L72.6,202.1 C72.6,204.5 70.6,206.4 68.3,206.4 L68.3,206.4 C65.9,206.4 64,204.4 64,202.1 L64,202.1 C63.9,199.7 65.9,197.8 68.3,197.8 L68.3,197.8 Z" id="Shape" fill="#C2C2C2"></path>
                            <path d="M68.3,197.8 L68.3,197.8 C70.7,197.8 72.6,199.8 72.6,202.1 L72.6,202.1 C72.6,204.5 70.6,206.4 68.3,206.4 L68.3,206.4 L68.3,197.8 L68.3,197.8 Z" id="Shape" fill="#939393"></path>
                            <path d="M44.6,201.8 L44.6,201.8 C47,201.8 48.9,203.8 48.9,206.1 L48.9,206.1 C48.9,208.5 46.9,210.4 44.6,210.4 L44.6,210.4 C42.2,210.4 40.3,208.4 40.3,206.1 L40.3,206.1 C40.4,203.6 42.2,201.8 44.6,201.8 L44.6,201.8 Z" id="Shape" fill="#C2C2C2"></path>
                            <path d="M44.6,201.8 L44.6,201.8 C47,201.8 48.9,203.8 48.9,206.1 L48.9,206.1 C48.9,208.5 46.9,210.4 44.6,210.4 L44.6,210.4 L44.6,201.8 L44.6,201.8 Z" id="Shape" fill="#939393"></path>
                            <path d="M26.1,210.9 L26.1,210.9 C28.5,210.9 30.4,212.9 30.4,215.2 L30.4,215.2 C30.4,217.6 28.4,219.5 26.1,219.5 L26.1,219.5 C23.7,219.5 21.8,217.5 21.8,215.2 L21.8,215.2 C21.8,212.9 23.7,210.9 26.1,210.9 L26.1,210.9 Z" id="Shape" fill="#C2C2C2"></path>
                            <path d="M26.1,210.9 L26.1,210.9 C28.5,210.9 30.4,212.9 30.4,215.2 L30.4,215.2 C30.4,217.6 28.4,219.5 26.1,219.5 L26.1,219.5 L26.1,210.9 L26.1,210.9 Z" id="Shape" fill="#939393"></path>
                            <path d="M261.1,264.9 L269.5,266.6 L277.9,268.3 L273.9,287.9 C273.1,291.7 274.4,295.2 276.9,296.6 L254.5,405.4 C252.9,413.2 242.3,435.5 233.1,443.5 C227.9,432.7 226.8,408 228.5,400.1 L250.9,291.3 C253.7,291 256.4,288.2 257.1,284.5 L261.1,264.9 L261.1,264.9 Z" id="Shape" fill="#FFFFFF"></path>
                            <path d="M278,268.4 L269.6,266.7 L233.2,443.7 C242.4,435.9 252.9,413.6 254.6,405.6 L277,296.8 C274.5,295.5 273.2,291.9 274,288.1 L278,268.4 L278,268.4 Z" id="Shape" fill="#F0F0F0"></path>
                            <path d="M274.4,200.3 L282.8,202 L291.2,203.7 L284.8,234.9 C284.2,238.1 285.5,241.2 288.1,242.4 L258.8,385.2 C257.5,391.9 247.5,410.7 238.6,417.1 C233,407.7 231.3,386.4 232.7,379.9 L262,237.2 C264.8,237 267.3,234.7 268,231.5 L274.4,200.3 L274.4,200.3 Z" id="Shape" fill="#DBDBDB"></path>
                            <path d="M291.2,203.8 L282.8,202.1 L238.6,417.2 C247.4,410.7 257.3,391.9 258.8,385.3 L288,242.5 C285.5,241.3 284.1,238.2 284.7,235 L291.2,203.8 L291.2,203.8 Z" id="Shape" fill="#C3C3C3"></path>
                            <path d="M297.9,128.7 L297.9,128.7 C306.4,130.4 295.1,185.8 286.5,184 L286.5,184 C278.1,182.1 289.4,126.8 297.9,128.7 L297.9,128.7 Z" id="Shape" fill="#2F2F2F"></path>
                            <path d="M299.1,118.3 L301,118.7 C305.1,119.5 307.7,123.5 306.9,127.6 L306.9,127.6 C306.1,131.7 302.1,134.3 298,133.5 L296.1,133.1 C292,132.3 289.4,128.3 290.2,124.2 L290.2,124.2 C291,120.1 295,117.4 299.1,118.3 L299.1,118.3 Z" id="Shape" fill="#5D5D5D"></path>
                            <path d="M296.4,120.1 L296.4,120.1 C297.6,120.3 298.5,121.5 298.1,122.8 L298.1,122.8 C297.9,124 296.7,124.9 295.4,124.5 L295.4,124.5 C294.2,124.3 293.3,123.1 293.7,121.8 L293.7,121.8 C293.9,120.6 295.1,119.9 296.4,120.1 L296.4,120.1 Z" id="Shape" fill="#FFFFFF"></path>
                            <path d="M267,306.7 C266.6,308.8 262.9,314.5 259.4,316.3 C256.9,313.2 255.8,306.5 256.2,304.5 C258.8,291.8 257,300.4 259.7,287.7 C260.1,285.6 263.8,279.9 267.3,278.1 C269.8,281.2 270.9,287.9 270.5,289.9 C267.8,302.6 269.5,294 267,306.7 L267,306.7 Z" id="Shape" fill="#FFFFFF"></path>
                            <path d="M264.6,290.8 L261.9,303.6 L259.3,316.4 C262.8,314.5 266.5,308.9 266.9,306.8 C269.5,294.1 267.7,302.7 270.4,290 C270.8,287.9 269.7,281.3 267.2,278.2 L264.6,290.8 L264.6,290.8 Z" id="Shape" fill="#989898"></path>
                            <path d="M277.6,183.4 L275.4,193.7 C266.1,190.3 248.1,187.4 236.3,192.3 L230.7,191.2 C240.2,180.1 264.5,180.1 277.6,183.4 L277.6,183.4 L277.6,183.4 Z M295,187 L292.9,197.3 C302.8,197.8 320.5,202.2 329.3,211.4 L334.9,212.5 C330.6,198.7 308.4,189.1 295,187 L295,187 Z" id="Shape" fill="#5D5D5D"></path>
                            <path d="M273,184.7 L273,184.7 C275,178.3 281.5,174.3 288.2,175.8 L288.2,175.8 C294.9,177.1 299.3,183.4 298.6,190 L298.7,190 L298.5,191.1 L295.7,204.6 L295.5,205.7 L295.4,205.7 C293.4,212.1 287,216.1 280.3,214.8 L280.3,214.8 C273.6,213.5 269.2,207.2 269.9,200.5 L269.8,200.5 L270,199.4 L272.8,185.9 L273,184.7 L273,184.7 Z" id="Shape" fill="#5D5D5D"></path>
                            <path d="M286,186.5 L286,186.5 C289.5,187.2 291.8,190.6 291,194.1 L290,198.9 C289.3,202.4 285.9,204.7 282.4,203.9 L282.4,203.9 C278.9,203.2 276.6,199.8 277.4,196.3 L278.4,191.5 C279.1,188 282.6,185.7 286,186.5 L286,186.5 Z" id="Shape" fill="#939393"></path>
                            <path d="M285.5,189.3 L285.5,189.3 C287.9,189.8 289.4,192.1 288.9,194.4 L288.2,197.7 C287.7,200.1 285.4,201.6 283.1,201.1 L283.1,201.1 C280.7,200.6 279.2,198.3 279.7,196 L280.4,192.7 C280.7,190.4 283.1,188.8 285.5,189.3 L285.5,189.3 Z" id="Shape" fill="#C1C1C1"></path>
                            <path d="M271.3,273.1 C271.1,274.2 269,277.5 267.2,278.6 C265.9,276.9 265.3,273.1 265.6,272 C267,264.9 266.1,269.6 267.6,262.5 C267.8,261.4 269.9,258.1 271.7,257 C273,258.7 273.6,262.5 273.3,263.6 C271.7,270.8 272.7,266 271.3,273.1 L271.3,273.1 Z" id="Shape" fill="#FFFFFF"></path>
                            <path d="M270,264.2 L268.6,271.4 L267.2,278.6 C269.1,277.6 271.1,274.3 271.3,273.1 C272.7,266 271.8,270.7 273.3,263.6 C273.5,262.5 273,258.7 271.7,257 L270,264.2 L270,264.2 Z" id="Shape" fill="#989898"></path>
                            <path d="M259.1,331.9 C258.9,333 256.8,336.3 255,337.4 C253.7,335.7 253.1,331.9 253.4,330.8 C254.8,323.7 253.9,328.4 255.4,321.3 C255.6,320.2 257.7,316.9 259.5,315.8 C260.8,317.5 261.4,321.3 261.1,322.4 C259.7,329.6 260.6,324.8 259.1,331.9 L259.1,331.9 Z" id="Shape" fill="#FFFFFF"></path>
                            <path d="M257.9,323 L256.5,330.2 L255.1,337.4 C257,336.4 259,333.1 259.2,331.9 C260.6,324.8 259.7,329.5 261.2,322.4 C261.4,321.3 260.9,317.5 259.6,315.8 L257.9,323 L257.9,323 Z" id="Shape" fill="#989898"></path>
                            <path d="M168.5,171 C181.5,165.7 197.6,153.7 197.6,140.6 L197.6,140.2 L168.5,140.2 L168.5,171 L168.5,171 Z" id="Shape" fill="#939393"></path>
                            <path d="M168.5,171 C155.5,165.7 139.4,153.7 139.4,140.6 L139.4,140.2 L168.5,140.2 L168.5,171 L168.5,171 Z" id="Shape" fill="#939393"></path>
                            <path d="M157.1,46.1 L178.8,46.1 L178.8,70.6 C176.5,73.2 173.9,74.7 170.9,74.7 L165,74.7 C162,74.7 159.3,73.2 157.1,70.6 L157.1,46.1 L157.1,46.1 Z" id="Shape" fill="#A9A9A9"></path>
                            <path d="M168.5,166.8 C182.2,161.1 199.2,148.5 199.2,134.7 C199.2,130.8 199.5,127.3 200,124.2 L168.5,124.2 L168.5,166.8 L168.5,166.8 L168.5,166.8 Z" id="Shape" fill="#B3B3B3"></path>
                            <path d="M165,7.7 L170.9,7.7 C178.2,7.7 184.2,17.2 184.2,28.6 L184.2,48.7 C184.2,60.2 178.2,69.6 170.9,69.6 L165,69.6 C157.7,69.6 151.7,60.1 151.7,48.7 L151.7,28.7 C151.8,17.2 157.7,7.7 165,7.7 L165,7.7 Z" id="Shape" fill="#DADADA"></path>
                            <path d="M178.1,41.9 C180.2,41.9 181.8,40.3 181.8,38.2 C181.8,36.1 180.2,34.5 178.1,34.5 C176,34.5 174.4,36.1 174.4,38.2 C174.3,40.2 176,41.9 178.1,41.9 L178.1,41.9 Z" id="Shape" fill="#7B7B7B"></path>
                            <path d="M168.5,166.8 C154.8,161.1 137.8,148.5 137.8,134.7 C137.8,130.8 137.5,127.3 137,124.2 L168.5,124.2 L168.5,166.8 L168.5,166.8 Z" id="Shape" fill="#C1C1C1"></path>
                            <path d="M173.5,31.8 L183.7,31.8 C183.7,32.9 182.5,34.3 180.9,34.3 L171.8,34.3 L171.8,33.5 C171.8,32.6 172.5,31.8 173.5,31.8 L173.5,31.8 Z" id="Shape" fill="#4A4A4A"></path>
                            <path d="M157.9,41.9 C160,41.9 161.6,40.3 161.6,38.2 C161.6,36.1 160,34.5 157.9,34.5 C155.8,34.5 154.2,36.1 154.2,38.2 C154.2,40.2 155.9,41.9 157.9,41.9 L157.9,41.9 Z" id="Shape" fill="#7B7B7B"></path>
                            <path d="M162.5,31.8 L152.3,31.8 C152.3,32.9 153.5,34.3 155.1,34.3 L164.2,34.3 L164.2,33.5 C164.2,32.6 163.4,31.8 162.5,31.8 L162.5,31.8 Z" id="Shape" fill="#4A4A4A"></path>
                            <rect id="Rectangle-path" fill="#A9A9A9" x="148.8" y="15.9" width="38.5" height="11.3"></rect>
                            <path d="M168.7,20.7 L152.4,20.7 L152.4,45 L156.3,48.7 L156.3,68.6 L151,66.3 L151,66.3 L151,66.3 L148.6,65.4 L148.6,65.3 C144.6,63.3 142.1,61.3 142.1,55.3 L142.1,21.5 C142.1,7 155.7,0 168.7,0.6 L168.7,20.7 L168.7,20.7 L168.7,20.7 Z" id="Shape" fill="#939393"></path>
                            <path d="M167.2,20.7 L183.5,20.7 L183.5,45 L179.6,48.7 L179.6,68.6 L184.9,66.3 L184.9,66.3 L184.9,66.3 L187.3,65.4 L187.3,65.3 C191.3,63.3 193.8,61.3 193.8,55.3 L193.8,21.5 C193.8,7 180.2,0 167.2,0.6 L167.2,20.7 L167.2,20.7 L167.2,20.7 Z" id="Shape" fill="#7C7C7C"></path>
                            <path d="M142.7,18.3 C153.7,16.9 161.9,14.5 168.7,6.1 C175.5,14.5 183.7,16.9 194.7,18.3 L194.7,24.4 L168.7,24.4 L142.7,24.4 L142.7,18.3 L142.7,18.3 L142.7,18.3 Z" id="Shape" fill="#C1C1C1"></path>
                            <path d="M194.9,18.3 C183.9,16.9 175.7,14.5 168.9,6.1 L168.9,24.4 L194.9,24.4 L194.9,18.3 L194.9,18.3 Z" id="Shape" fill="#B3B3B3"></path>
                            <path d="M217.6,15.3 L209.8,15.3 C219.2,15.3 222.7,12 222.7,8 L210.9,8 C220,8.3 226.2,6.1 228.3,0.9 L210.4,0.9 C200.9,0.9 198.9,6.4 199.3,18.4 L199.3,22.7 L199.3,22.7 L199.3,23.9 C199.3,24.6 199,25.3 198.5,25.9 L198.5,25.9 C198,26.4 197.4,26.7 196.5,26.7 L190.6,26.7 L190.6,33 L196.5,33 C199,33 201.2,32 202.9,30.3 L202.9,30.3 L202.9,30.3 C204.5,28.7 205.6,26.4 205.6,24 L205.6,22.8 L207.9,22.8 C213.9,22.7 217.6,19.8 217.6,15.3 L217.6,15.3 Z" id="Shape" fill="#2F2F2F"></path>
                            <path d="M308.5,147.3 L308.5,147.3 C309,145.3 307.9,143.2 305.8,142.7 L296.5,140.2 C294.5,139.7 292.4,140.8 291.9,142.9 L291.9,142.9 C291.4,144.9 292.5,147 294.6,147.5 L303.9,150 C305.8,150.5 308,149.2 308.5,147.3 L308.5,147.3 Z" id="Shape" fill="#C3C3C3"></path>
                            <path d="M308.2,156 L308.2,156 C308.7,154 307.6,151.9 305.5,151.4 L293.9,148.3 C291.9,147.8 289.8,148.9 289.3,151 L289.3,151 C288.8,153 289.9,155.1 292,155.6 L303.6,158.7 C305.5,159.2 307.7,158.1 308.2,156 L308.2,156 Z" id="Shape" fill="#C3C3C3"></path>
                            <path d="M308.3,161.8 L308.3,161.8 C308.6,159.7 307.3,157.8 305.2,157.5 L292.7,155.5 C290.6,155.2 288.7,156.5 288.4,158.6 L288.4,158.6 C288.1,160.7 289.4,162.6 291.5,162.9 L304,164.9 C306,165.3 307.9,163.8 308.3,161.8 L308.3,161.8 Z" id="Shape" fill="#C3C3C3"></path>
                            <path d="M302.2,167.9 L302.2,167.9 C302.2,165.8 300.6,164.1 298.5,164.1 L289,164 C286.9,164 285.2,165.6 285.2,167.7 L285.2,167.7 C285.2,169.8 286.8,171.5 288.9,171.5 L298.5,171.6 C300.5,171.6 302.1,170 302.2,167.9 L302.2,167.9 Z" id="Shape" fill="#C3C3C3"></path>
                            <path d="M284.2,158.2 L284.2,158.2 C286.3,157.9 287.7,156 287.4,154 L286.2,144.5 C285.9,142.4 284,141 282,141.3 L282,141.3 C279.9,141.6 278.5,143.5 278.8,145.5 L280,155 C280.3,157 282.2,158.5 284.2,158.2 L284.2,158.2 Z" id="Shape" fill="#C3C3C3"></path>
                            <path d="M168.5,149.5 C184.1,144.5 203.7,133.4 203.7,121.2 L203.7,120.8 L168.5,120.8 L168.5,149.5 L168.5,149.5 Z" id="Shape" fill="#939393"></path>
                            <path d="M168.5,145.6 C185,140.3 205.6,128.5 205.6,115.7 C205.6,101.2 210.8,93.2 217.2,87.4 L168.4,87.4 L168.4,145.6 L168.5,145.6 Z" id="Shape" fill="#B3B3B3"></path>
                            <path d="M168.5,149.5 C152.9,144.5 133.3,133.4 133.3,121.2 L133.3,120.8 L168.5,120.8 L168.5,149.5 L168.5,149.5 Z" id="Shape" fill="#939393"></path>
                            <path d="M168.5,145.6 C152,140.3 131.4,128.5 131.4,115.7 C131.4,101.2 126.2,93.2 119.8,87.4 L168.6,87.4 L168.6,145.6 L168.5,145.6 Z" id="Shape" fill="#C1C1C1"></path>
                            <path d="M208.6,80.9 C206.9,96.5 189.5,108.9 168.6,108.9 L168.6,108.9 C147.6,108.9 130.3,96.6 128.6,80.9 C128.6,80.9 208.6,80.9 208.6,80.9 L208.6,80.9 Z" id="Shape" fill="#555555"></path>
                            <path d="M208.6,80.9 C206.9,96.5 189.5,108.9 168.6,108.9 L168.6,108.9 L168.6,80.9 L208.6,80.9 L208.6,80.9 Z" id="Shape" fill="#2F2F2F"></path>
                            <path d="M97.7,76.6 L149,76.6 L168.5,93.4 L148.9,93.4 C137.7,94.8 128.9,104.4 128.9,116 L128.9,119.6 L120.9,119.6 L97.7,76.6 L97.7,76.6 Z" id="Shape" fill="#C3C3C3"></path>
                            <path d="M239.5,76.6 L188.2,76.6 L168.7,93.4 L188.3,93.4 C199.5,94.8 208.3,104.4 208.3,116 L208.3,119.6 L216.3,119.6 L239.5,76.6 L239.5,76.6 Z" id="Shape" fill="#C3C3C3"></path>
                            <path d="M168.5,80.2 L168.5,80.2 C174.2,80.2 178.8,84.8 178.8,90.5 L178.8,90.5 C178.8,96.2 174.2,100.8 168.5,100.8 L168.5,100.8 C162.8,100.8 158.2,96.2 158.2,90.5 L158.2,90.5 C158.2,84.8 162.9,80.2 168.5,80.2 L168.5,80.2 Z" id="Shape" fill="#5B5B5B"></path>
                            <path d="M168.5,80.2 L168.5,80.2 C174.2,80.2 178.8,84.8 178.8,90.5 L178.8,90.5 C178.8,96.2 174.2,100.8 168.5,100.8 L168.5,100.8 L168.5,80.2 L168.5,80.2 Z" id="Shape" fill="#525252"></path>
                            <path d="M168.5,83.6 L168.5,83.6 C172.3,83.6 175.4,86.7 175.4,90.5 L175.4,90.5 C175.4,94.3 172.3,97.4 168.5,97.4 L168.5,97.4 C164.7,97.4 161.6,94.3 161.6,90.5 L161.6,90.5 C161.6,86.7 164.7,83.6 168.5,83.6 L168.5,83.6 Z" id="Shape" fill="#C1C1C1"></path>
                            <path d="M168.5,83.6 L168.5,83.6 C172.3,83.6 175.4,86.7 175.4,90.5 L175.4,90.5 C175.4,94.3 172.3,97.4 168.5,97.4 L168.5,97.4 L168.5,83.6 L168.5,83.6 Z" id="Shape" fill="#B3B3B3"></path>
                            <path d="M174.4,52.8 C173.1,60.3 162.9,60.3 161.6,52.8 C165.3,54.4 170.8,54.4 174.4,52.8 L174.4,52.8 Z" id="Shape" fill="#FFFFFF"></path>
                            <path d="M194,180.6 L201.6,180.6 C203.1,180.6 204.5,181.9 204.5,183.5 L204.5,204.4 C204.5,205.9 203.2,207.3 201.6,207.3 L194,207.3 C192.5,207.3 191.1,206 191.1,204.4 L191.1,183.5 C191.2,181.8 192.4,180.6 194,180.6 L194,180.6 Z" id="Shape" fill="#7B7B7B"></path>
                            <path d="M202.9,180.9 C203.8,181.4 204.5,182.3 204.5,183.5 L204.5,204.4 C204.5,205.5 203.9,206.5 202.9,207 L198.7,207 C197.2,207 195.9,205.8 195.9,204.2 L195.9,183.7 C195.9,182.2 197.1,180.9 198.7,180.9 L202.9,180.9 L202.9,180.9 Z" id="Shape" fill="#5D5D5D"></path>
                            <path d="M201.9,189.8 L204.6,189.8 C205.1,189.8 205.5,190.2 205.5,190.7 L205.5,191.4 C205.5,191.9 205.1,192.3 204.6,192.3 L201.9,192.3 C201.4,192.3 201,191.9 201,191.4 L201,190.7 C200.8,190.3 201.3,189.8 201.9,189.8 L201.9,189.8 Z" id="Shape" fill="#C3C3C3"></path>
                            <path d="M142.9,180.6 L135.3,180.6 C133.8,180.6 132.4,181.9 132.4,183.5 L132.4,204.4 C132.4,205.9 133.7,207.3 135.3,207.3 L142.9,207.3 C144.4,207.3 145.8,206 145.8,204.4 L145.8,183.5 C145.8,181.8 144.5,180.6 142.9,180.6 L142.9,180.6 Z" id="Shape" fill="#5D5D5D"></path>
                            <path d="M134.1,180.9 C133.2,181.4 132.5,182.3 132.5,183.5 L132.5,204.4 C132.5,205.5 133.1,206.5 134.1,207 L138.3,207 C139.8,207 141.1,205.8 141.1,204.2 L141.1,183.7 C141.1,182.2 139.9,180.9 138.3,180.9 L134.1,180.9 L134.1,180.9 Z" id="Shape" fill="#7B7B7B"></path>
                            <path d="M135.1,189.8 L132.4,189.8 C131.9,189.8 131.5,190.2 131.5,190.7 L131.5,191.4 C131.5,191.9 131.9,192.3 132.4,192.3 L135.1,192.3 C135.6,192.3 136,191.9 136,191.4 L136,190.7 C136,190.3 135.6,189.8 135.1,189.8 L135.1,189.8 Z" id="Shape" fill="#DDDDDD"></path>
                            <polygon id="Shape" fill="#2F2F2F" points="182.7 200.1 168.5 205.2 168.5 181.4 183.5 181.4"></polygon>
                            <polygon id="Shape" fill="#434343" points="154.4 200.1 168.5 205.2 168.5 181.4 153.5 181.4"></polygon>
                            <polygon id="Shape" fill="#C1C1C1" points="178.9 198.3 168.5 202 168.5 184.6 179.5 184.6"></polygon>
                            <polygon id="Shape" fill="#DADADA" points="158.2 198.3 168.5 202 168.5 184.6 157.5 184.6"></polygon>
                            <polygon id="Shape" fill="#939393" points="259.1 154.7 248.4 169.6 261.7 173.2 261.9 155.5"></polygon>
                            <path d="M241.6,167 C242.5,166.2 257.6,163 257.6,163 L270.8,175.1 L253.8,180.7 L241.6,167 L241.6,167 Z" id="Shape" fill="#B3B3B3"></path>
                            <polygon id="Shape" fill="#939393" points="253.8 180.7 257.6 163 270.8 175.1"></polygon>
                            <path d="M68.3,251.5 L68.3,251.5 C81.8,251.5 92.8,265.1 92.8,281.7 L92.8,281.7 C92.8,298.4 81.8,311.9 68.3,311.9 L68.3,311.9 C54.8,311.9 43.8,298.3 43.8,281.7 L43.8,281.7 C43.7,265 54.8,251.5 68.3,251.5 L68.3,251.5 Z" id="Shape" fill="#8A8A8A"></path>
                            <path d="M68.3,251.5 L68.3,251.5 C81.8,251.5 92.8,265.1 92.8,281.7 L92.8,281.7 C92.8,298.4 81.8,311.9 68.3,311.9 L68.3,311.9 L68.3,251.5 L68.3,251.5 Z" id="Shape" fill="#555555"></path>
                            <path d="M68.3,261.5 L68.3,261.5 C77.4,261.5 84.7,270.6 84.7,281.7 L84.7,281.7 C84.7,292.8 77.3,301.9 68.3,301.9 L68.3,301.9 C59.2,301.9 51.9,292.8 51.9,281.7 L51.9,281.7 C51.8,270.6 59.2,261.5 68.3,261.5 L68.3,261.5 Z" id="Shape" fill="#C2C2C2"></path>
                            <path d="M68.3,261.5 L68.3,261.5 C77.4,261.5 84.7,270.6 84.7,281.7 L84.7,281.7 C84.7,292.8 77.3,301.9 68.3,301.9 L68.3,301.9 L68.3,261.5 L68.3,261.5 Z" id="Shape" fill="#939393"></path>
                        </g>
                    </g>
                </g>
            </g>
        </g>
    </g>
</svg>