<?xml version="1.0" encoding="UTF-8" standalone="no"?>
<svg width="512px" height="512px" viewBox="0 0 512 512" version="1.1" xmlns="http://www.w3.org/2000/svg" xmlns:xlink="http://www.w3.org/1999/xlink">
    <!-- Generator: Sketch 3.7 (28169) - http://www.bohemiancoding.com/sketch -->
    <title>Artboard Copy 6</title>
    <desc>Created with Sketch.</desc>
    <defs>
        <polygon id="path-1" points="0 493 492.2 493 492.2 0.8 0 0.8"></polygon>
    </defs>
    <g id="Page-1" stroke="none" stroke-width="1" fill="none" fill-rule="evenodd">
        <g id="Artboard-Copy-6">
            <circle id="Oval-17" fill="#D8D9D8" cx="257" cy="256" r="256"></circle>
            <g id="Group-59" transform="translate(10.000000, 9.200000)">
                <path d="M353.6,181.4 C346.6,181.4 341,187.1 341,194.1 C341.1,201.1 346.7,206.7 353.7,206.7 C365.8,206.6 376.1,203.4 384.3,198.2 C391.7,193.4 397.4,187 401.3,179.5 C405.1,172.2 407,163.9 407,155.4 C406.9,144.7 403.8,133.6 397.2,123.4 C393.4,117.5 385.6,115.8 379.7,119.6 C373.8,123.4 372.1,131.2 375.9,137.1 C379.8,143.2 381.6,149.5 381.7,155.5 C381.7,160 380.7,164.2 378.8,167.9 C377,171.4 374.2,174.5 370.6,176.8 C366.3,179.7 360.6,181.4 353.6,181.4" id="Fill-3" fill="#575757"></path>
                <path d="M288.6,401.1 L325.2,401.3 C332.4,401.3 338.2,407.3 338.2,414.4 C338.2,421.6 332.3,427.4 325.1,427.4 L268.3,427.1 C261.1,427.1 255.3,421.1 255.3,414 C255.3,411.5 256,409.2 257.3,407.2 C257.7,405.9 258.4,404.6 259.2,403.4 C263.5,397.6 265.8,391.4 266.2,385.4 C266.5,380.9 265.8,376.6 264.2,372.8 C262.6,369.2 260.1,365.9 256.6,363.3 C252.4,360.2 246.8,358.1 239.9,357.6 C233,357.1 227.7,351 228.2,344.1 C228.7,337.1 234.8,331.9 241.7,332.4 C253.7,333.3 263.8,337.2 271.6,343 C278.7,348.2 284,355.1 287.3,362.8 C290.6,370.4 292,378.7 291.3,387.3 C291.1,391.8 290.1,396.5 288.6,401.1" id="Fill-5" fill="#575757"></path>
                <path d="M164.1,354.8 L309.8,354.8 C340.3,354.8 365.2,329.8 365.2,299.4 L365.2,285 C365.2,278.9 360.2,273.9 354.1,273.9 L119.8,273.9 C113.7,273.9 108.7,278.9 108.7,285 L108.7,299.4 C108.7,329.8 133.7,354.8 164.1,354.8" id="Fill-7" fill="#B3B3B3"></path>
                <path d="M366.7,273.8 L366.7,289.3 L349.7,289.3 C341.4,289.3 331.9,289.7 331.9,297.9 L331.9,338 C331.9,342 328.6,345.3 324.6,345.3 C320.6,345.3 317.3,342 317.3,338 L317.3,337.2 L317.3,303.3 C317.3,299.3 314,296 310,296 C306.1,296 302.8,299.1 302.7,303.1 L302.7,305.9 C302.7,309.9 299.4,313.2 295.4,313.2 C291.4,313.2 288.1,309.9 288.1,305.9 L288.1,300.3 C288.1,296.3 284.8,293 280.8,293 C276.8,293 273.5,296.3 273.5,300.3 L273.5,301.5 C273.5,305.5 270.2,308.8 266.2,308.8 C262.2,308.8 258.9,305.5 258.9,301.5 L258.9,298.2 C258.9,294.2 255.6,290.9 251.6,290.9 L188,290.9 C187.9,288.3 187.8,285.6 187.8,283 C187.8,280 187.9,277 188,274 L366.7,274 L366.7,273.8 Z" id="Fill-9" fill="#D8D9D8"></path>
                <path d="M292.3,312.5 C289.7,311.4 287.9,308.8 287.9,305.8 L287.9,300.2 C287.9,296.2 284.6,292.9 280.6,292.9 C276.6,292.9 273.3,296.2 273.3,300.2 L273.3,301.4 C273.3,305.4 270,308.7 266,308.7 C262,308.7 258.7,305.4 258.7,301.4 L258.7,298.1 C258.7,294.1 255.4,290.8 251.4,290.8 L101.9,290.8 C101.8,288.2 101.7,285.5 101.7,282.9 C101.7,279.9 101.8,276.9 101.9,273.9 L292.2,273.9 L292.2,310.5 C292.3,311.1 292.3,311.8 292.3,312.5" id="Fill-11" fill="#D8D9D8"></path>
                <path d="M115,243.9 L359,243.9 C368,243.9 375.4,251.3 375.4,260.3 C375.4,269.3 368,276.7 359,276.7 L115,276.7 C106,276.7 98.6,269.3 98.6,260.3 C98.6,251.3 106,243.9 115,243.9" id="Fill-13" fill="#3A3A3A"></path>
                <path d="M272,245.5 C272,255.2 264.1,263.1 254.4,263.1 C244.7,263.1 236.8,255.2 236.8,245.5 L236.8,238.9 C236.8,200.9 339.3,209.1 353.3,217.9 L369.1,227.8 C378.3,233.6 377.3,247 370.4,252.1 C363.1,257.5 348.1,255.8 342.2,245.1 L342.2,245.4 C342.2,255.1 334.3,263 324.6,263 C314.9,263 307,255.1 307,245.4 L307,250.3 C307,260 299.1,267.9 289.4,267.9 C279.7,267.9 271.8,260 271.8,250.3 L272,245.5 Z" id="Fill-15" fill="#D8D9D8"></path>
                <path d="M140.5,244 C139.8,253.6 131.4,261 121.7,260.3 C112.1,259.6 104.7,251.1 105.4,241.5 L105.9,234.9 C106.6,225.3 115,217.9 124.7,218.6 L124.8,218.6 L125.6,207 L210.6,213.1 L209.8,225 C212.2,221.2 215.9,218.3 220.6,217.2 C230,214.9 239.5,220.8 241.8,230.2 L243.3,236.6 C245.6,246 239.7,255.5 230.3,257.8 C222.3,259.7 214.2,255.8 210.6,248.7 L210.6,249 C209.9,258.6 201.5,266 191.8,265.3 C182.2,264.6 174.8,256.1 175.5,246.5 L175.1,251.3 C174.4,260.9 165.9,268.3 156.3,267.6 C146.7,266.9 139.4,258.5 140.1,248.8 L140.5,244 Z" id="Fill-17" fill="#D8D9D8"></path>
                <path d="M164.1,148.1 C213.9,135.7 258,133.4 309.8,148.1 C339.1,156.4 365.2,173.1 365.2,203.5 L365.2,217.9 C365.2,224 360.2,229 354.1,229 L119.8,229 C113.7,229 108.7,224 108.7,217.9 L108.7,203.5 C108.7,173 134.6,155.4 164.1,148.1" id="Fill-19" fill="#B3B3B3"></path>
                <path d="M213.1,210.3 C228.6,210.3 241.2,197.7 241.2,182.2 C241.2,166.8 228.6,154.1 213.1,154.1 C197.7,154.1 185,166.7 185,182.2 C185,197.7 197.6,210.3 213.1,210.3" id="Fill-21" fill="#FFFFFF"></path>
                <path d="M319.4,210.3 C334.8,210.3 347.5,197.7 347.5,182.2 C347.5,166.8 334.9,154.1 319.4,154.1 C303.9,154.1 291.3,166.7 291.3,182.2 C291.3,197.7 303.9,210.3 319.4,210.3" id="Fill-23" fill="#FFFFFF"></path>
                <path d="M220.1,169.9 C213.3,169.9 207.8,175.4 207.8,182.2 C207.8,189 213.3,194.5 220.1,194.5 C226.9,194.5 232.4,189 232.4,182.2 C232.4,175.4 226.8,169.9 220.1,169.9" id="Fill-25" fill="#313131"></path>
                <path d="M326.3,169.9 C319.5,169.9 314,175.4 314,182.2 C314,189 319.5,194.5 326.3,194.5 C333.1,194.5 338.6,189 338.6,182.2 C338.7,175.4 333.1,169.9 326.3,169.9" id="Fill-27" fill="#313131"></path>
                <path d="M157.6,173.6 C154.9,172.2 151.1,174.3 148.9,178.4 C146.8,182.4 147.2,186.8 149.9,188.3 C152.6,189.7 156.4,187.6 158.6,183.5 C160.7,179.5 160.3,175.1 157.6,173.6" id="Fill-29" fill="#D1D1D1"></path>
                <path d="M251,200.5 C248.2,201.6 247.3,206 249,210.2 C250.7,214.4 254.4,216.9 257.1,215.8 C259.9,214.7 260.8,210.3 259.1,206.1 C257.5,201.9 253.8,199.3 251,200.5" id="Fill-31" fill="#D1D1D1"></path>
                <path d="M278.7,200.5 C275.9,199.4 272.3,201.9 270.6,206.1 C268.9,210.3 269.8,214.7 272.6,215.8 C275.4,216.9 279,214.4 280.7,210.2 C282.4,205.9 281.5,201.6 278.7,200.5" id="Fill-33" fill="#D1D1D1"></path>
                <path d="M172.1,202.7 C169.4,201.3 165.5,203.4 163.4,207.5 C161.3,211.5 161.7,215.9 164.4,217.4 C167.1,218.8 170.9,216.7 173.1,212.6 C175.2,208.5 174.7,204.1 172.1,202.7" id="Fill-35" fill="#D1D1D1"></path>
                <path d="M119.6,200.2 C116.6,200.1 114,203.6 113.8,208.2 C113.6,212.8 115.9,216.6 118.9,216.7 C121.9,216.8 124.5,213.3 124.7,208.7 C124.9,204.1 122.7,200.3 119.6,200.2" id="Fill-37" fill="#D1D1D1"></path>
                <path d="M171.7,153.3 C168.2,156.2 166.9,160.5 168.9,162.8 C170.8,165.1 175.2,164.6 178.7,161.7 C182.2,158.8 183.5,154.5 181.6,152.2 C179.6,149.9 175.2,150.4 171.7,153.3" id="Fill-39" fill="#D1D1D1"></path>
                <path d="M125.8,170 C122.3,172.9 121,177.2 122.9,179.5 C124.8,181.8 129.2,181.3 132.7,178.4 C136.2,175.5 137.5,171.2 135.6,168.9 C133.7,166.6 129.3,167.1 125.8,170" id="Fill-41" fill="#D1D1D1"></path>
                <path d="M266.9,170.9 C263.9,170.6 261.1,174.1 260.8,178.7 C260.4,183.3 262.5,187.1 265.5,187.4 C268.5,187.7 271.2,184.2 271.6,179.6 C272,175.1 269.9,171.2 266.9,170.9" id="Fill-43" fill="#D1D1D1"></path>
                <path d="M242.6,145 C239.1,142.1 234.7,141.6 232.8,143.9 C230.9,146.2 232.2,150.5 235.7,153.4 C239.2,156.3 243.6,156.8 245.5,154.5 C247.4,152.1 246.1,147.9 242.6,145" id="Fill-45" fill="#D1D1D1"></path>
                <path d="M286.5,143 C283.5,142.7 280.7,146.2 280.3,150.7 C279.9,155.2 282,159.1 285,159.4 C288,159.7 290.8,156.2 291.2,151.7 C291.6,147.2 289.5,143.3 286.5,143" id="Fill-47" fill="#D1D1D1"></path>
                <path d="M356.5,200.4 C353.6,199.5 350.2,202.3 348.9,206.7 C347.5,211.1 348.8,215.3 351.6,216.2 C354.5,217.1 357.9,214.3 359.3,209.9 C360.6,205.6 359.4,201.3 356.5,200.4" id="Fill-49" fill="#D1D1D1"></path>
                <path d="M144.8,200.5 C144.9,193.5 139.2,187.8 132.2,187.8 C125.3,187.7 119.5,186.1 115.1,183.2 C111.5,180.9 108.7,177.8 106.9,174.3 C105,170.6 104,166.3 104,161.9 C104.1,156.8 105.5,151.4 108.3,146.2 L119.7,146.2 C125.4,146.2 130,141.6 130,135.9 L130,116.7 C130,111 125.4,106.4 119.7,106.4 L98.9,106.4 C93.2,106.4 88.6,111 88.6,116.7 L88.6,129.8 C82.1,140 78.9,151.1 78.8,161.7 C78.7,170.3 80.7,178.5 84.5,185.8 C88.4,193.3 94.1,199.8 101.5,204.5 C109.7,209.8 120,212.9 132.1,213 C139,213.1 144.7,207.5 144.8,200.5" id="Fill-51" fill="#757575"></path>
                <path d="M205.8,339.4 C204.7,332.5 198.1,327.9 191.3,329 C184.4,330.2 179.7,336.7 180.9,343.6 C182,350.5 181.4,356.4 179.3,361.2 C177.6,365.2 175.1,368.4 171.9,370.8 C168.6,373.3 164.5,375 160.1,375.7 C154.2,376.7 147.6,375.9 141,373.1 C139.5,372.5 138,372.2 136.5,372.1 C132.7,370.8 128.4,371.3 124.9,373.7 C119,377.8 117.5,386 121.6,391.9 L153.9,438.5 C158,444.4 166.2,445.9 172.1,441.8 C178,437.7 179.5,429.5 175.4,423.6 L159.8,401.1 C161.3,401 162.8,400.8 164.3,400.6 C172.7,399.2 180.5,395.9 187.1,390.9 C193.8,385.8 199.2,379 202.6,371 C206.4,362 207.7,351.3 205.8,339.4" id="Fill-53" fill="#757575"></path>
                <path d="M455.5,142.2 C455.5,144 454.1,145.4 452.3,145.4 L323.8,145.4 C322,145.4 320.6,144 320.6,142.2 L320.6,55.9 C320.6,54.1 322,52.7 323.8,52.7 L452.4,52.7 C454.2,52.7 455.6,54.1 455.6,55.9 L455.6,142.2 L455.5,142.2 Z" id="Fill-55" fill="#B3B3B3"></path>
                <mask id="mask-2" fill="white">
                    <use xlink:href="#path-1"></use>
                </mask>
                <g id="Clip-58"></g>
            </g>
            <g id="Group-62" transform="translate(330.000000, 61.200000)" fill="#B3B3B3">
                <path d="M127.9,90.2 C127.9,92 126.6,93.4 124.9,93.4 L3.6,93.4 C1.9,93.4 0.6,92 0.6,90.2 L0.6,3.9 C0.6,2.1 1.9,0.7 3.6,0.7 L124.9,0.7 C126.6,0.7 127.9,2.1 127.9,3.9 L127.9,90.2 L127.9,90.2 Z" id="Fill-60"></path>
            </g>
            <g id="Group-65" transform="translate(332.000000, 15.200000)" fill="#707070">
                <polygon id="Fill-63" points="0.755139075 46.8025688 64.1886691 90.9182004 132.721262 47.3202385"></polygon>
                <polygon id="Fill-68" points="132.706452 47.5 66.2999066 0.8 0.578304664 46.9006927"></polygon>
            </g>
            <g id="Group-74" transform="translate(371.000000, 40.200000)">
                <path d="M8.6,103.2 L25,116.1 C27.2,117.8 27.8,121.3 25.8,123.3 C23.8,125.3 20.8,125.9 18.6,124.2 L2,111 C-1.9,107.9 2,98.1 8.6,103.2" id="Fill-66" fill="#575757"></path>
                <path d="M27.2,0.5 C38.135,0.5 47,9.365 47,20.3 C47,31.235 38.135,40.1 27.2,40.1 C16.265,40.1 7.4,31.235 7.4,20.3 C7.4,9.365 16.265,0.5 27.2,0.5" id="Fill-70" fill="#FFFFFF"></path>
                <polygon id="Fill-72" fill="#707070" points="23.7 32.2 13.4 21.9 16.3 19 23.7 26.4 39.4 10.7 42.3 13.6"></polygon>
            </g>
        </g>
    </g>
</svg>