<?xml version="1.0" encoding="UTF-8" standalone="no"?>
<svg width="18px" height="23px" viewBox="0 0 18 23" version="1.1" xmlns="http://www.w3.org/2000/svg" xmlns:xlink="http://www.w3.org/1999/xlink" xmlns:sketch="http://www.bohemiancoding.com/sketch/ns">
    <!-- Generator: Sketch 3.4.3 (16044) - http://www.bohemiancoding.com/sketch -->
    <title>Rectangle 1 Copy 2 + Page 1 Copy Copy Copy Copy Copy Copy Copy Copy Copy Copy Copy Copy Copy Copy Copy</title>
    <desc>Created with Sketch.</desc>
    <defs>
        <path id="path-1" d="M0,0 L17.6069194,0 L17.6069194,22 L0,22 L0,0 Z"></path>
    </defs>
    <g id="Page-1" stroke="none" stroke-width="1" fill="none" fill-rule="evenodd" sketch:type="MSPage">
        <g id="Rectangle-1-Copy-2-+-Page-1-Copy-Copy-Copy-Copy-Copy-Copy-Copy-Copy-Copy-Copy-Copy-Copy-Copy-Copy-Copy" sketch:type="MSLayerGroup" transform="translate(-3.000000, -0.500000)">
            <rect id="Rectangle-1-Copy-2" sketch:type="MSShapeGroup" x="0" y="0" width="24" height="24"></rect>
            <g id="Page-1" transform="translate(3.000000, 1.000000)">
                <mask id="mask-2" sketch:name="Clip 2" fill="white">
                    <use xlink:href="#path-1"></use>
                </mask>
                <g id="Clip-2"></g>
                <path d="M13.1717194,5.52700323 C13.1717194,7.93955161 11.2160258,9.89524516 8.80347742,9.89524516 C6.39092903,9.89524516 4.43523548,7.93955161 4.43523548,5.52700323 L4.43523548,5.50216452 L13.1717194,5.50216452 L13.1717194,5.52700323 Z M13.1717194,17.5844226 L13.1717194,18.7073097 L4.43523548,18.7073097 L4.43523548,17.5844226 C4.43523548,15.1718742 6.39092903,13.2161806 8.80347742,13.2161806 C11.2160258,13.2161806 13.1717194,15.1718742 13.1717194,17.5844226 L13.1717194,17.5844226 Z M15.4059613,5.49347097 L15.4059613,3.36142258 L17.6068484,2.1837129 L17.6068484,3.5483871e-05 L-7.0967742e-05,3.5483871e-05 L-7.0967742e-05,2.1837129 L2.20081613,3.36142258 L2.20081613,5.49347097 C2.20081613,8.20266452 3.83413871,10.5281 6.16844516,11.5459548 C3.83413871,12.5638097 2.20081613,14.8890677 2.20081613,17.5982613 L2.20081613,18.7530839 L-7.0967742e-05,19.8163581 L-7.0967742e-05,22.0000355 L17.6068484,22.0000355 L17.6068484,19.8163581 L15.4059613,18.6901 L15.4059613,17.5982613 C15.4059613,14.8890677 13.7728161,12.5638097 11.4385097,11.5459548 C13.7728161,10.5281 15.4059613,8.20266452 15.4059613,5.49347097 L15.4059613,5.49347097 Z" id="Fill-1" fill="#212121" sketch:type="MSShapeGroup" mask="url(#mask-2)"></path>
            </g>
        </g>
    </g>
</svg>