<?xml version="1.0" encoding="UTF-8" standalone="no"?>
<svg width="512px" height="512px" viewBox="0 0 512 512" version="1.1" xmlns="http://www.w3.org/2000/svg" xmlns:xlink="http://www.w3.org/1999/xlink">
    <!-- Generator: Sketch 3.7 (28169) - http://www.bohemiancoding.com/sketch -->
    <title>Artboard Copy 7</title>
    <desc>Created with Sketch.</desc>
    <defs></defs>
    <g id="Page-1" stroke="none" stroke-width="1" fill="none" fill-rule="evenodd">
        <g id="Artboard-Copy-7">
            <circle id="Oval-17" fill="#597682" cx="257" cy="256" r="256"></circle>
            <g id="Group-59" transform="translate(88.000000, 61.200000)">
                <path d="M275.6,129.4 C268.6,129.4 263,135.1 263,142.1 C263.1,149.1 268.7,154.7 275.7,154.7 C287.8,154.6 298.1,151.4 306.3,146.2 C313.7,141.4 319.4,135 323.3,127.5 C327.1,120.2 329,111.9 329,103.4 C328.9,92.7 325.8,81.6 319.2,71.4 C315.4,65.5 307.6,63.8 301.7,67.6 C295.8,71.4 294.1,79.2 297.9,85.1 C301.8,91.2 303.6,97.5 303.7,103.5 C303.7,108 302.7,112.2 300.8,115.9 C299,119.4 296.2,122.5 292.6,124.8 C288.3,127.7 282.6,129.4 275.6,129.4" id="Fill-3" fill="#151C1F"></path>
                <path d="M210.6,349.1 L247.2,349.3 C254.4,349.3 260.2,355.3 260.2,362.4 C260.2,369.6 254.3,375.4 247.1,375.4 L190.3,375.1 C183.1,375.1 177.3,369.1 177.3,362 C177.3,359.5 178,357.2 179.3,355.2 C179.7,353.9 180.4,352.6 181.2,351.4 C185.5,345.6 187.8,339.4 188.2,333.4 C188.5,328.9 187.8,324.6 186.2,320.8 C184.6,317.2 182.1,313.9 178.6,311.3 C174.4,308.2 168.8,306.1 161.9,305.6 C155,305.1 149.7,299 150.2,292.1 C150.7,285.1 156.8,279.9 163.7,280.4 C175.7,281.3 185.8,285.2 193.6,291 C200.7,296.2 206,303.1 209.3,310.8 C212.6,318.4 214,326.7 213.3,335.3 C213.1,339.8 212.1,344.5 210.6,349.1" id="Fill-5" fill="#151C1F"></path>
                <path d="M86.1,302.8 L231.8,302.8 C262.3,302.8 287.2,277.8 287.2,247.4 L287.2,233 C287.2,226.9 282.2,221.9 276.1,221.9 L41.8,221.9 C35.7,221.9 30.7,226.9 30.7,233 L30.7,247.4 C30.7,277.8 55.7,302.8 86.1,302.8" id="Fill-7" fill="#41565F"></path>
                <path d="M288.7,221.8 L288.7,237.3 L271.7,237.3 C263.4,237.3 253.9,237.7 253.9,245.9 L253.9,286 C253.9,290 250.6,293.3 246.6,293.3 C242.6,293.3 239.3,290 239.3,286 L239.3,285.2 L239.3,251.3 C239.3,247.3 236,244 232,244 C228.1,244 224.8,247.1 224.7,251.1 L224.7,253.9 C224.7,257.9 221.4,261.2 217.4,261.2 C213.4,261.2 210.1,257.9 210.1,253.9 L210.1,248.3 C210.1,244.3 206.8,241 202.8,241 C198.8,241 195.5,244.3 195.5,248.3 L195.5,249.5 C195.5,253.5 192.2,256.8 188.2,256.8 C184.2,256.8 180.9,253.5 180.9,249.5 L180.9,246.2 C180.9,242.2 177.6,238.9 173.6,238.9 L110,238.9 C109.9,236.3 109.8,233.6 109.8,231 C109.8,228 109.9,225 110,222 L288.7,222 L288.7,221.8 Z" id="Fill-9" fill="#597682"></path>
                <path d="M214.3,260.5 C211.7,259.4 209.9,256.8 209.9,253.8 L209.9,248.2 C209.9,244.2 206.6,240.9 202.6,240.9 C198.6,240.9 195.3,244.2 195.3,248.2 L195.3,249.4 C195.3,253.4 192,256.7 188,256.7 C184,256.7 180.7,253.4 180.7,249.4 L180.7,246.1 C180.7,242.1 177.4,238.8 173.4,238.8 L23.9,238.8 C23.8,236.2 23.7,233.5 23.7,230.9 C23.7,227.9 23.8,224.9 23.9,221.9 L214.2,221.9 L214.2,258.5 C214.3,259.1 214.3,259.8 214.3,260.5" id="Fill-11" fill="#597682"></path>
                <path d="M37,191.9 L281,191.9 C290,191.9 297.4,199.3 297.4,208.3 C297.4,217.3 290,224.7 281,224.7 L37,224.7 C28,224.7 20.6,217.3 20.6,208.3 C20.6,199.3 28,191.9 37,191.9" id="Fill-13" fill="#0B0F11"></path>
                <path d="M194,193.5 C194,203.2 186.1,211.1 176.4,211.1 C166.7,211.1 158.8,203.2 158.8,193.5 L158.8,186.9 C158.8,148.9 261.3,157.1 275.3,165.9 L291.1,175.8 C300.3,181.6 299.3,195 292.4,200.1 C285.1,205.5 270.1,203.8 264.2,193.1 L264.2,193.4 C264.2,203.1 256.3,211 246.6,211 C236.9,211 229,203.1 229,193.4 L229,198.3 C229,208 221.1,215.9 211.4,215.9 C201.7,215.9 193.8,208 193.8,198.3 L194,193.5 Z" id="Fill-15" fill="#597682"></path>
                <path d="M62.5,192 C61.8,201.6 53.4,209 43.7,208.3 C34.1,207.6 26.7,199.1 27.4,189.5 L27.9,182.9 C28.6,173.3 37,165.9 46.7,166.6 L46.8,166.6 L47.6,155 L132.6,161.1 L131.8,173 C134.2,169.2 137.9,166.3 142.6,165.2 C152,162.9 161.5,168.8 163.8,178.2 L165.3,184.6 C167.6,194 161.7,203.5 152.3,205.8 C144.3,207.7 136.2,203.8 132.6,196.7 L132.6,197 C131.9,206.6 123.5,214 113.8,213.3 C104.2,212.6 96.8,204.1 97.5,194.5 L97.1,199.3 C96.4,208.9 87.9,216.3 78.3,215.6 C68.7,214.9 61.4,206.5 62.1,196.8 L62.5,192 Z" id="Fill-17" fill="#597682"></path>
                <path d="M86.1,96.1 C135.9,83.7 180,81.4 231.8,96.1 C261.1,104.4 287.2,121.1 287.2,151.5 L287.2,165.9 C287.2,172 282.2,177 276.1,177 L41.8,177 C35.7,177 30.7,172 30.7,165.9 L30.7,151.5 C30.7,121 56.6,103.4 86.1,96.1" id="Fill-19" fill="#41565F"></path>
                <path d="M135.1,158.3 C150.6,158.3 163.2,145.7 163.2,130.2 C163.2,114.8 150.6,102.1 135.1,102.1 C119.7,102.1 107,114.7 107,130.2 C107,145.7 119.6,158.3 135.1,158.3" id="Fill-21" fill="#769CAE"></path>
                <path d="M241.4,158.3 C256.8,158.3 269.5,145.7 269.5,130.2 C269.5,114.8 256.9,102.1 241.4,102.1 C225.9,102.1 213.3,114.7 213.3,130.2 C213.3,145.7 225.9,158.3 241.4,158.3" id="Fill-23" fill="#769CAE"></path>
                <path d="M142.1,117.9 C135.3,117.9 129.8,123.4 129.8,130.2 C129.8,137 135.3,142.5 142.1,142.5 C148.9,142.5 154.4,137 154.4,130.2 C154.4,123.4 148.8,117.9 142.1,117.9" id="Fill-25" fill="#0B0F11"></path>
                <path d="M248.3,117.9 C241.5,117.9 236,123.4 236,130.2 C236,137 241.5,142.5 248.3,142.5 C255.1,142.5 260.6,137 260.6,130.2 C260.7,123.4 255.1,117.9 248.3,117.9" id="Fill-27" fill="#0B0F11"></path>
                <path d="M79.6,121.6 C76.9,120.2 73.1,122.3 70.9,126.4 C68.8,130.4 69.2,134.8 71.9,136.3 C74.6,137.7 78.4,135.6 80.6,131.5 C82.7,127.5 82.3,123.1 79.6,121.6" id="Fill-29" fill="#546D7B"></path>
                <path d="M171,158.2 C172.7,162.4 176.4,164.9 179.1,163.8 C181.9,162.7 182.8,158.3 181.1,154.1 C179.5,149.9 175.8,147.3 173,148.5 C170.2,149.6 169.3,154 171,158.2 Z" id="Fill-31" fill="#546D7B"></path>
                <path d="M200.7,148.5 C197.9,147.4 194.3,149.9 192.6,154.1 C190.9,158.3 191.8,162.7 194.6,163.8 C197.4,164.9 201,162.4 202.7,158.2 C204.4,153.9 203.5,149.6 200.7,148.5" id="Fill-33" fill="#546D7B"></path>
                <path d="M94.1,150.7 C91.4,149.3 87.5,151.4 85.4,155.5 C83.3,159.5 83.7,163.9 86.4,165.4 C89.1,166.8 92.9,164.7 95.1,160.6 C97.2,156.5 96.7,152.1 94.1,150.7" id="Fill-35" fill="#546D7B"></path>
                <path d="M41.6,148.2 C38.6,148.1 36,151.6 35.8,156.2 C35.6,160.8 37.9,164.6 40.9,164.7 C43.9,164.8 46.5,161.3 46.7,156.7 C46.9,152.1 44.7,148.3 41.6,148.2" id="Fill-37" fill="#546D7B"></path>
                <path d="M93.7,101.3 C90.2,104.2 88.9,108.5 90.9,110.8 C92.8,113.1 97.2,112.6 100.7,109.7 C104.2,106.8 105.5,102.5 103.6,100.2 C101.6,97.9 97.2,98.4 93.7,101.3" id="Fill-39" fill="#546D7B"></path>
                <path d="M47.8,118 C44.3,120.9 43,125.2 44.9,127.5 C46.8,129.8 51.2,129.3 54.7,126.4 C58.2,123.5 59.5,119.2 57.6,116.9 C55.7,114.6 51.3,115.1 47.8,118" id="Fill-41" fill="#546D7B"></path>
                <path d="M188.9,118.9 C185.9,118.6 183.1,122.1 182.8,126.7 C182.4,131.3 184.5,135.1 187.5,135.4 C190.5,135.7 193.2,132.2 193.6,127.6 C194,123.1 191.9,119.2 188.9,118.9" id="Fill-43" fill="#546D7B"></path>
                <path d="M164.6,93 C161.1,90.1 156.7,89.6 154.8,91.9 C152.9,94.2 154.2,98.5 157.7,101.4 C161.2,104.3 165.6,104.8 167.5,102.5 C169.4,100.1 168.1,95.9 164.6,93" id="Fill-45" fill="#546D7B"></path>
                <path d="M208.5,91 C205.5,90.7 202.7,94.2 202.3,98.7 C201.9,103.2 204,107.1 207,107.4 C210,107.7 212.8,104.2 213.2,99.7 C213.6,95.2 211.5,91.3 208.5,91" id="Fill-47" fill="#546D7B"></path>
                <path d="M278.5,148.4 C275.6,147.5 272.2,150.3 270.9,154.7 C269.5,159.1 270.8,163.3 273.6,164.2 C276.5,165.1 279.9,162.3 281.3,157.9 C282.6,153.6 281.4,149.3 278.5,148.4" id="Fill-49" fill="#546D7B"></path>
                <path d="M66.8,148.5 C66.9,141.5 61.2,135.8 54.2,135.8 C47.3,135.7 41.5,134.1 37.1,131.2 C33.5,128.9 30.7,125.8 28.9,122.3 C27,118.6 26,114.3 26,109.9 C26.1,104.8 27.5,99.4 30.3,94.2 L41.7,94.2 C47.4,94.2 52,89.6 52,83.9 L52,64.7 C52,59 47.4,54.4 41.7,54.4 L20.9,54.4 C15.2,54.4 10.6,59 10.6,64.7 L10.6,77.8 C4.1,88 0.9,99.1 0.8,109.7 C0.7,118.3 2.7,126.5 6.5,133.8 C10.4,141.3 16.1,147.8 23.5,152.5 C31.7,157.8 42,160.9 54.1,161 C61,161.1 66.7,155.5 66.8,148.5" id="Fill-51" fill="#202B30"></path>
                <path d="M127.8,287.4 C126.7,280.5 120.1,275.9 113.3,277 C106.4,278.2 101.7,284.7 102.9,291.6 C104,298.5 103.4,304.4 101.3,309.2 C99.6,313.2 97.1,316.4 93.9,318.8 C90.6,321.3 86.5,323 82.1,323.7 C76.2,324.7 69.6,323.9 63,321.1 C61.5,320.5 60,320.2 58.5,320.1 C54.7,318.8 50.4,319.3 46.9,321.7 C41,325.8 39.5,334 43.6,339.9 L75.9,386.5 C80,392.4 88.2,393.9 94.1,389.8 C100,385.7 101.5,377.5 97.4,371.6 L81.8,349.1 C83.3,349 84.8,348.8 86.3,348.6 C94.7,347.2 102.5,343.9 109.1,338.9 C115.8,333.8 121.2,327 124.6,319 C128.4,310 129.7,299.3 127.8,287.4" id="Fill-53" fill="#202B30"></path>
                <path d="M377.5,90.2 C377.5,92 376.1,93.4 374.3,93.4 L245.8,93.4 C244,93.4 242.6,92 242.6,90.2 L242.6,3.9 C242.6,2.1 244,0.7 245.8,0.7 L374.4,0.7 C376.2,0.7 377.6,2.1 377.6,3.9 L377.6,90.2 L377.5,90.2 Z" id="Fill-55" fill="#41565F"></path>
            </g>
            <g id="Group-62" transform="translate(330.000000, 61.200000)"></g>
            <g id="Group-65" transform="translate(330.000000, 15.200000)">
                <path d="M127.9,136.2 C127.9,138 126.6,139.4 124.9,139.4 L3.6,139.4 C1.9,139.4 0.6,138 0.6,136.2 L0.6,49.9 C0.6,48.1 1.9,46.7 3.6,46.7 L124.9,46.7 C126.6,46.7 127.9,48.1 127.9,49.9 L127.9,136.2 L127.9,136.2 Z" id="Fill-60" fill="#41565F"></path>
                <polygon id="Fill-63" fill="#0B0F11" points="2.75513907 46.8025688 66.1886691 90.9182004 134.721262 47.3202385"></polygon>
                <polygon id="Fill-68" fill="#0B0F11" points="134.706452 47.5 68.2999066 0.8 2.57830466 46.9006927"></polygon>
            </g>
            <g id="Group-74" transform="translate(371.000000, 141.200000)"></g>
            <path d="M379.6,143.4 L396,156.3 C398.2,158 398.8,161.5 396.8,163.5 C394.8,165.5 391.8,166.1 389.6,164.4 L373,151.2 C369.1,148.1 373,138.3 379.6,143.4" id="Fill-66" fill="#151C1F"></path>
            <path d="M398.2,40.7 C409.135,40.7 418,49.565 418,60.5 C418,71.435 409.135,80.3 398.2,80.3 C387.265,80.3 378.4,71.435 378.4,60.5 C378.4,49.565 387.265,40.7 398.2,40.7" id="Fill-70" fill="#769CAE"></path>
            <polygon id="Fill-72" fill="#0B0F11" points="394.7 72.4 384.4 62.1 387.3 59.2 394.7 66.6 410.4 50.9 413.3 53.8"></polygon>
        </g>
    </g>
</svg>