<?xml version="1.0" encoding="UTF-8" standalone="no"?>
<svg width="512px" height="512px" viewBox="0 0 512 512" version="1.1" xmlns="http://www.w3.org/2000/svg" xmlns:xlink="http://www.w3.org/1999/xlink">
    <!-- Generator: Sketch 3.7 (28169) - http://www.bohemiancoding.com/sketch -->
    <title>Artboard Copy 12</title>
    <desc>Created with Sketch.</desc>
    <defs></defs>
    <g id="Page-1" stroke="none" stroke-width="1" fill="none" fill-rule="evenodd">
        <g id="Artboard-Copy-12">
            <g id="Page-1">
                <path d="M0,256 C0,335.8 36.5,407.1 93.8,454 C95.8,444.3 100.2,437.2 104.6,431.2 L104.6,429.6 L104.5,429.6 L94,439.5 C89.2,413.1 97.1,399.5 105,388.8 C110.2,332.3 158,287.7 215.8,287.7 L248.8,287.7 L250.2,287.7 L281.8,287.7 L282.2,287.7 C340.1,287.7 388,332.3 393.2,388.8 C401.1,399.4 409,413.1 404.2,439.5 L403.6,439 C403.6,439.2 403.5,439.4 403.5,439.5 L393.6,430.2 L393.6,431.2 C399.3,439 405,448.6 405.5,463.7 C470.1,417.2 512,341.5 512,256 C512,114.6 397.4,0 256,0 C114.6,0 0,114.6 0,256 L0,256 Z" id="Clip-2" fill="#D7D8D7"></path>
                <path d="M248.8,287.7 L215.8,287.7 C158,287.7 110.2,332.3 105,388.8 C97.1,399.4 89.2,413.1 94,439.5 L104.5,429.6 L104.5,431.2 C100.1,437.2 95.8,444.3 93.7,454 C136.5,489.1 190.8,510.6 250.2,511.9 L250.2,287.7 L248.8,287.7 L248.8,287.7 Z" id="Clip-8" fill="#BCBCBC"></path>
                <path d="M281.8,287.7 C339.6,287.7 387.4,332.3 392.6,388.8 C400.4,399.3 408.2,412.9 403.7,438.9 L404.3,439.4 C409,413.1 401.1,399.5 393.2,388.8 C388,332.3 340.1,287.7 282.2,287.7 L281.8,287.7 L281.8,287.7 Z" id="Clip-14" fill="#8C8C8B"></path>
                <path d="M393.1,431.2 C398.9,439.1 404.6,448.8 405,464.2 C405.2,464 405.4,463.9 405.6,463.7 C405,448.6 399.4,439.1 393.7,431.2 L393.7,430.2 L393.1,429.6 L393.1,431.2 L393.1,431.2 Z" id="Clip-17" fill="#8C8C8B"></path>
                <path d="M250.2,287.5 L250.2,511.7 C252.1,511.7 254,511.8 256,511.8 C306.4,512 353.4,497.4 393.1,472.2 L393.1,471.3 L393.6,471.8 C393.6,471.8 393.7,471.8 393.7,471.7 L393.7,471.2 L394,471.5 C397.7,469.1 401.4,466.6 405,464 C404.5,448.7 398.9,439 393.1,431 L393.1,429.4 L393.7,430 L393.7,429.4 L403.7,438.7 C408.3,412.7 400.4,399.1 392.6,388.6 C387.4,332.1 339.6,287.5 281.8,287.5 L250.2,287.5 L250.2,287.5 Z" id="Clip-20" fill="#ADADAD"></path>
                <path d="M339.7,91.6 C339.6,124.8 327.9,148.8 316.4,177.4 C345.8,193 366,224.2 366,259.8 L366,264.287 C373.851,255.41 379.816,244.749 383.4,232.6 L400.5,173.7 C410,141 402.9,52.3 353.9,51.7 C353.837,51.699 353.773,51.699 353.711,51.699 C339.402,51.697 339.799,74.275 339.7,91.6 L339.7,91.6 Z M365.9,264.4 L366,264.4 L366,264.287 C365.967,264.324 365.933,264.362 365.9,264.4 L365.9,264.4 Z" id="Clip-23" fill="#8C8C8B"></path>
                <path d="M355.1,131.8 C349.4,152.4 340.1,177.4 332.6,195.8 C351.7,205.9 360.8,223.3 360.8,246.3 L360.8,249.2 C365.9,243.5 369.9,236.6 372.2,228.7 C378.3,207.8 398.5,148.2 386,117 C382.2,107.5 377.7,95.2 366.9,95.1 C366.864,95.1 366.826,95.099 366.79,95.099 C357.531,95.098 361.674,107.792 355.1,131.8 L355.1,131.8 Z" id="Clip-26" fill="#BBBCBB"></path>
                <path d="M146.789,51.699 C146.727,51.699 146.663,51.699 146.6,51.7 C97.6,52.3 90.5,141 100,173.7 L117.1,232.6 C120.685,244.749 126.649,255.41 134.5,264.287 L134.5,259.8 C134.5,224.2 154.7,193 184.1,177.4 C172.6,148.8 160.9,124.8 160.8,91.6 C160.7,74.276 161.098,51.7 146.79,51.699 L146.789,51.699 L146.789,51.699 Z M134.5,264.4 L134.6,264.4 C134.567,264.362 134.533,264.324 134.5,264.287 L134.5,264.4 L134.5,264.4 Z" id="Clip-29" fill="#A7A5A5"></path>
                <path d="M134.71,95.099 C134.674,95.099 134.636,95.1 134.6,95.1 C123.8,95.2 119.3,107.5 115.5,117 C103,148.2 123.2,207.8 129.3,228.7 C131.6,236.6 135.6,243.5 140.7,249.2 L140.7,246.3 C140.7,223.3 149.8,205.9 168.9,195.8 C161.4,177.4 152.1,152.4 146.4,131.8 C139.825,107.794 143.969,95.1 134.711,95.099 C134.71,95.099 134.711,95.099 134.71,95.099 L134.71,95.099 Z" id="Clip-32" fill="#D8D9D7"></path>
                <path d="M228.4,166.7 C177.2,166.7 135.3,208.7 135.3,260.1 L135.3,353.5 C135.3,397.7 166.4,435 207.8,444.5 L304.4,444.5 C345.8,435.1 376.9,397.7 376.9,353.5 L376.9,260.1 C376.9,208.7 335,166.7 283.8,166.7 L228.4,166.7 L228.4,166.7 Z" id="Clip-35" fill="#A7A5A5"></path>
                <path d="M256.8,166.7 L256.8,444.6 L304.2,444.6 L304.2,444.5 C345.7,435.1 377,397.7 377,353.5 L377,260.1 C377,208.7 334.9,166.7 283.4,166.7 L256.8,166.7 L256.8,166.7 Z M256.7,166.7 L256.8,166.7 L256.7,166.7 L256.7,166.7 Z" id="Clip-38" fill="#8C8C8B"></path>
                <path d="M249.9,370.8 C230.4,370.8 214.5,386.9 214.5,406.5 L214.5,428.4 C214.5,448 230.4,464.1 249.9,464.1 L262.5,464.1 C282,464.1 297.9,448 297.9,428.4 L297.9,406.5 C297.9,386.9 282,370.8 262.5,370.8 L249.9,370.8 L249.9,370.8 Z" id="Clip-41" fill="#767677"></path>
                <path d="M225.3,400.1 C228.3,415.1 238.9,426.2 251.4,426.2 L261,426.2 C273.6,426.2 284.2,415 287.1,400.1 L225.3,400.1 L225.3,400.1 Z" id="Clip-44" fill="#231F1F"></path>
                <path d="M221.3,366.4 C207.6,366.4 196.3,377.7 196.3,391.6 L196.3,395.4 C196.3,409.3 207.5,420.6 221.3,420.6 L230.2,420.6 C243.9,420.6 255.2,409.3 255.2,395.4 C255.2,409.2 266.4,420.6 280.2,420.6 L289.1,420.6 C302.8,420.6 314.1,409.3 314.1,395.4 L314.1,391.6 C314.1,377.7 302.9,366.4 289.1,366.4 L221.3,366.4 L221.3,366.4 Z" id="Clip-47" fill="#C8C8C8"></path>
                <path d="M241.4,322.9 L230.9,343.9 L221.1,363.6 C219.7,365.9 218.8,368.7 218.8,371.7 C218.8,380.2 225.7,387.1 234.2,387.1 L255.2,387.1 L276.2,387.1 L276.2,387 C278.5,387 280.8,386.5 283,385.4 C290.5,381.6 293.6,372.4 289.8,364.8 L279.3,343.8 L268.8,322.8 C267.4,320 265.1,317.5 261.9,316 C259.725,314.898 257.408,314.377 255.12,314.377 C249.518,314.377 244.098,317.504 241.4,322.9 L241.4,322.9 Z" id="Clip-50" fill="#959494"></path>
                <path d="M256.7,387.1 L276.8,387.1 C279.2,387.1 281.6,386.6 283.8,385.5 C291.5,381.7 294.6,372.5 290.8,364.9 L280.2,343.9 L269.6,322.9 C268.1,320 265.7,317.5 262.6,316 C260.7,315.1 258.7,314.5 256.7,314.4 L256.7,387.1 L256.7,387.1 Z" id="Clip-53" fill="#5C5C5C"></path>
                <path d="M225.5,370.4 C226.5,374.9 231,379.5 237.4,379.5 L252.4,379.5 C249,374.6 244.7,365.6 238.9,363.1 C237.43,362.47 235.691,362.143 233.956,362.143 C229.084,362.142 224.246,364.722 225.5,370.4 L225.5,370.4 Z" id="Clip-56" fill="#030404"></path>
                <path d="M141,326.9 C141,352.084 161.371,372.5 186.5,372.5 C211.629,372.5 232,352.084 232,326.9 C232,301.715 211.629,281.3 186.5,281.3 C161.371,281.3 141,301.715 141,326.9 L141,326.9 Z" id="Clip-59" fill="#D7D8D8"></path>
                <path d="M279.6,326.9 C279.6,352.084 299.971,372.5 325.1,372.5 C350.229,372.5 370.6,352.084 370.6,326.9 C370.6,301.715 350.229,281.3 325.1,281.3 C299.971,281.3 279.6,301.715 279.6,326.9 L279.6,326.9 Z" id="Clip-62" fill="#D7D8D7"></path>
                <path d="M132.3,329 C132.3,359 156.7,383.3 186.7,383.3 C216.7,383.3 241.1,359 241.1,329 C241.1,299 216.7,274.7 186.7,274.7 C156.7,274.7 132.3,299 132.3,329 L132.3,329 Z M146.4,329 C146.4,306.8 164.5,288.8 186.7,288.8 C209,288.8 227,306.8 227,329 C227,351.2 208.9,369.2 186.7,369.2 C164.5,369.2 146.4,351.2 146.4,329 L146.4,329 Z" id="Clip-65" fill="#030404"></path>
                <path d="M271.6,329 C271.6,359 296,383.3 326,383.3 C356,383.3 380.4,359 380.4,329 C380.4,299 356,274.7 326,274.7 C296,274.7 271.6,299 271.6,329 L271.6,329 Z M285.7,329 C285.7,306.8 303.7,288.8 326,288.8 C348.3,288.8 366.3,306.8 366.3,329 C366.3,351.2 348.2,369.2 326,369.2 C303.8,369.2 285.7,351.2 285.7,329 L285.7,329 Z" id="Clip-68" fill="#030404"></path>
                <path d="M232.7,307.3 L234.3,326.4 C234.3,326.4 244.5,320.3 254.5,320.3 C264.5,320.3 272.8,324.6 272.8,324.6 L276.5,305.8 C276.5,305.8 265.6,303.9 254.5,303.9 C243.3,303.9 232.7,307.3 232.7,307.3 L232.7,307.3 Z" id="Clip-71" fill="#030404"></path>
                <path d="M300.1,274.4 L342.3,278.1 C351.5,278.9 375.2,270.9 379.3,262.9 L294.7,230.1 C292.3,238.8 290.9,273.6 300.1,274.4 L300.1,274.4 Z" id="Clip-74" fill="#C8C8C8"></path>
                <path d="M301.4,287.8 C319.5,303.7 337.6,307.6 356.5,300.6 C365.2,297.4 374,291.9 376.3,287.4 L291.6,254.7 C289.2,263.4 290.6,278.4 301.4,287.8 L301.4,287.8 Z" id="Clip-77" fill="#C8C8C8"></path>
                <path d="M277.344,362.143 C275.609,362.143 273.869,362.47 272.4,363.1 C266.6,365.6 262.3,374.6 258.9,379.5 L273.9,379.5 C280.3,379.5 284.8,374.9 285.8,370.4 C287.054,364.723 282.218,362.143 277.346,362.143 L277.344,362.143 L277.344,362.143 Z" id="Clip-80" fill="#030404"></path>
                <path d="M256.3333,69.8089 C255.8553,69.8059 255.3833,69.7999 254.9003,69.7999 C193.4003,69.7999 175.0003,94.1999 175.0003,94.1999 L148.9503,185.9999 L256.3333,185.9999 L256.3333,69.8089 Z" id="Fill-82" fill="#E5E5E4"></path>
                <path d="M148.9503,186 L137.0323,228 L132.3813,244.389 C165.3743,235.928 207.9303,228.5 255.7003,228.5 C255.9123,228.5 256.1213,228.503 256.3333,228.504 L256.3333,228 L256.3333,186 L148.9503,186 Z" id="Fill-86" fill="#FEFEFE"></path>
                <path d="M193.6668,249 L256.3333,249 L256.3333,248.2 L193.8168,248.2 L256.3333,248.2 L256.3333,228.504 C256.1213,228.503 255.9123,228.5 255.7003,228.5 C207.9303,228.5 165.3743,235.928 132.3813,244.389 L131.3003,248.2 L193.8168,248.2 L131.3003,248.2 L132.3813,244.389 C131.9213,244.507 131.4563,244.624 131.0003,244.743 L131.0003,249 L193.6668,249 L256.3333,249 L256.3333,268.6 L61.8003,268.6 C61.8003,268.6 88.1393,255.861 131.0003,244.743 L131.0003,249 L193.6668,249 Z" id="Combined-Shape" fill="#E5E5E4"></path>
                <path d="M256.3333,186 L361.0303,186 L335.1003,94.2 C335.1003,94.2 316.6853,70.186 256.3333,69.809 L256.3333,186 Z" id="Fill-94" fill="#B6B5B4"></path>
                <path d="M372.8942,228 L361.0302,186 L256.3332,186 L256.3332,228 L256.3332,228.504 C303.6362,228.569 345.2912,235.902 377.4932,244.281 L372.8942,228 Z" id="Fill-96" fill="#C5C2C2"></path>
                <path d="M379,244.6735 C378.501,244.5425 377.996,244.4115 377.493,244.2805 C345.291,235.9015 303.636,228.5685 256.333,228.5035 L256.333,248.1995 L256.333,248.9995 L256.333,268.5995 L446.8,268.5995 C446.8,268.5995 421.242,255.8075 379,244.6735" id="Fill-98" fill="#B6B5B4"></path>
            </g>
        </g>
    </g>
</svg>