<?xml version="1.0" encoding="UTF-8" standalone="no"?>
<svg width="64px" height="64px" viewBox="0 0 64 64" version="1.1" xmlns="http://www.w3.org/2000/svg" xmlns:xlink="http://www.w3.org/1999/xlink">
    <!-- Generator: Sketch 3.6.1 (26313) - http://www.bohemiancoding.com/sketch -->
    <title>Artboard</title>
    <desc>Created with Sketch.</desc>
    <defs>
        <path id="path-1" d="M0.343480519,64 L63.9881558,64 L63.9881558,0.355449351 L0.343480519,0.355449351 L0.343480519,64 L0.343480519,64 Z"></path>
    </defs>
    <g id="Page-1" stroke="none" stroke-width="1" fill="none" fill-rule="evenodd">
        <g id="Artboard">
            <g id="Group-21">
                <mask id="mask-2" fill="white">
                    <use xlink:href="#path-1"></use>
                </mask>
                <g id="Clip-20"></g>
                <path d="M45.4931805,27.5374452 L45.4931805,33.5216131 L33.201647,33.5216131 L33.201647,22.2701753 L31.1374115,22.2672067 L31.1374115,33.5216131 L18.7968974,33.5216131 L18.7968974,25.7771121 C18.7968974,23.8408941 20.3813457,22.2568169 22.3175637,22.2568169 L22.4151538,22.2568169 C22.2106969,21.7933565 22.0967799,21.2812866 22.0967799,20.7428711 C22.0986353,18.6767802 23.7806736,16.9969682 25.8486198,16.9984525 L25.8486198,16.9969682 C25.849733,15.9958344 26.2408356,15.0544421 26.948828,14.3464498 C27.6571914,13.6399417 28.5978416,13.2503233 29.5993464,13.2510654 C30.6012224,13.2518076 31.5422436,13.6432813 32.2494938,14.3509026 C32.2502359,14.3516447 32.2502359,14.3516447 32.2502359,14.3527579 C32.2502359,14.3516447 32.2502359,14.3516447 32.2509781,14.3509026 C32.9597125,13.6443945 33.9011048,13.2547761 34.9033518,13.2555182 C35.9048567,13.2562604 36.8447648,13.6477341 37.5516439,14.3553554 C38.258523,15.0644609 38.6485125,16.0062243 38.6477704,17.0077291 L38.6477704,17.0088423 C40.7157165,17.0106977 42.3947864,18.6938492 42.3933021,20.759569 C42.3929311,21.2916764 42.2797562,21.7978093 42.0786389,22.2568169 L41.9728853,22.2568169 C43.9091033,22.2568169 45.4931805,23.8408941 45.4931805,25.7771121 L45.4931805,27.5374452 Z M45.4931805,43.3793302 C45.4931805,45.3155482 43.9091033,46.8996253 41.9728853,46.8996253 L33.201647,46.8996253 L33.201647,35.5624715 L45.4931805,35.5624715 L45.4931805,43.3793302 Z M31.1374115,46.8996253 L22.3175637,46.8996253 C20.3813457,46.8996253 18.7968974,45.3155482 18.7968974,43.3793302 L18.7968974,35.5624715 L31.1374115,35.5624715 L31.1374115,46.8996253 Z M0.343480519,32.1775792 C0.343480519,49.7526442 14.590961,64.0001247 32.1656104,64.0001247 C49.7406753,64.0001247 63.9881558,49.7526442 63.9881558,32.1775792 C63.9881558,14.6025143 49.7406753,0.355449351 32.1656104,0.355449351 C14.590961,0.355449351 0.343480519,14.6025143 0.343480519,32.1775792 Z M29.4793075,15.4669559 C28.6269708,15.4662137 27.9345632,16.1601056 27.9338211,17.0128133 C27.93345,17.4276642 28.0937502,17.8161694 28.3854074,18.1081977 L31.0247939,20.7531502 L31.0270203,17.0154108 C31.0281335,16.6016731 30.8670912,16.21391 30.575434,15.9211396 C30.2830346,15.6287403 29.8941583,15.4673269 29.4793075,15.4669559 Z M36.2256425,17.0154108 C36.2263847,16.1627031 35.5350903,15.467698 34.6827536,15.4669559 C34.2679027,15.4665848 33.8786554,15.6276271 33.585885,15.9192843 C33.2934856,16.2113126 33.1320723,16.5990757 33.1324434,17.0128134 L33.1287327,20.7505527 L35.7722009,18.1100531 C36.0646003,17.8183958 36.2252715,17.4302617 36.2256425,17.0154108 Z M25.7712535,19.1776075 C24.9189168,19.1768653 24.2239118,19.869644 24.2231696,20.7223517 C24.2224275,21.4626267 24.7456294,22.0823056 25.4410055,22.2344423 L29.4659493,22.2344423 L26.8647825,19.6310491 C26.5734964,19.3390208 26.1846201,19.1779785 25.7712535,19.1776075 Z M38.6791254,19.1776075 C38.2657588,19.1772365 37.8765114,19.3379077 37.5848542,19.6291938 L34.9840585,22.2236814 L39.0423982,22.2236814 C39.7184789,22.0585574 40.2242407,21.4511238 40.2249828,20.7245782 C40.2253539,19.8722415 39.5314621,19.1783497 38.6791254,19.1776075 Z" id="Combined-Shape" fill="#000000" mask="url(#mask-2)"></path>
            </g>
        </g>
    </g>
</svg>