<?xml version="1.0" encoding="UTF-8" standalone="no"?>
<svg width="512px" height="512px" viewBox="0 0 512 512" version="1.1" xmlns="http://www.w3.org/2000/svg" xmlns:xlink="http://www.w3.org/1999/xlink">
    <!-- Generator: Sketch 3.7 (28169) - http://www.bohemiancoding.com/sketch -->
    <title>Artboard Copy 9</title>
    <desc>Created with Sketch.</desc>
    <defs></defs>
    <g id="Page-1" stroke="none" stroke-width="1" fill="none" fill-rule="evenodd">
        <g id="Artboard-Copy-9">
            <g id="games_ic_friends_null_dk" transform="translate(4.000000, 0.000000)">
                <g id="Layer_1">
                    <g id="Group">
                        <circle id="Oval" fill="#60808D" cx="252.6" cy="259.1" r="251.7"></circle>
                        <path d="M252.8,444.7 C271,444.7 288.4,445.2 304.8,446.3 L422.7,446.3 L422.7,478.4 C422.7,497 346.6,512.1 252.8,512.1 C159,512.1 82.9,496.9 82.9,478.3 L82.9,446.2 L200.8,446.2 C217.3,445.2 234.7,444.7 252.8,444.7 L252.8,444.7 Z" id="Shape" fill="#2F3F47"></path>
                        <path d="M252.8,479.9 C346.4,479.9 422.7,464.8 422.7,446.2 C422.7,427.6 346.4,412.5 252.8,412.5 C159.2,412.5 82.9,427.7 82.9,446.2 C82.9,464.8 159.3,479.9 252.8,479.9 L252.8,479.9 Z" id="Shape" fill="#4E6875"></path>
                        <path d="M233.8,72.6 L234.7,72.6 L234.7,218 L202.2,218 L202.2,108.7 C202.4,88.9 216.5,72.6 233.8,72.6 L233.8,72.6 Z" id="Shape" fill="#0F1416"></path>
                        <path d="M278.4,72.6 L277.5,72.6 L277.5,218 L310,218 L310,108.7 C309.9,88.9 295.8,72.6 278.4,72.6 L278.4,72.6 Z" id="Shape" fill="#0F1416"></path>
                        <rect id="Rectangle-path" fill="#07090B" x="171.3" y="172.1" width="178.9" height="214.8"></rect>
                        <path d="M154,436.5 L385.8,436.5 C390.4,436.5 394.3,440.3 394.3,445 L394.3,445 C394.3,449.6 390.5,453.5 385.8,453.5 L352.4,453.5 C352.5,453.9 352.5,454.3 352.5,454.8 L352.5,454.8 C352.5,458 350,460.5 346.8,460.5 L192.8,460.5 C189.6,460.5 187.1,458 187.1,454.8 L187.1,454.8 C187.1,454.4 187.1,454 187.2,453.5 L153.8,453.5 C149.2,453.5 145.3,449.7 145.3,445 L145.3,445 C145.5,440.3 149.4,436.5 154,436.5 L154,436.5 Z" id="Shape" fill="#445A64"></path>
                        <rect id="Rectangle-path" fill="#536E7B" x="267.9" y="295.4" width="33.5" height="128"></rect>
                        <polygon id="Shape" fill="#475E69" points="284.7 295.4 301.4 295.4 301.4 344.5 301.4 423.4 284.7 423.4 284.7 344.5 267.9 344.5 267.9 295.4"></polygon>
                        <path d="M267.9,366.9 L272.4,366.9 C279.2,366.9 284.6,372.4 284.6,379.1 L284.6,379.1 C284.6,372.3 290.1,366.9 296.8,366.9 L301.3,366.9 L301.3,423.5 L284.6,423.5 L284.6,423.5 L267.7,423.5 L267.7,366.9 L267.9,366.9 Z" id="Shape" fill="#0C1113"></path>
                        <path d="M301.4,366.9 L296.9,366.9 C290.1,366.9 284.7,372.4 284.7,379.1 L284.7,423.4 L301.4,423.4 L301.4,366.8 L301.4,366.8 L301.4,366.9 Z" id="Shape" fill="#07090B"></path>
                        <rect id="Rectangle-path" fill="#536E7B" x="212.1" y="295.4" width="33.5" height="128"></rect>
                        <polygon id="Shape" fill="#475E69" points="245.5 295.4 241.6 295.4 228.9 295.4 208.2 295.4 208.2 344.5 228.9 344.5 228.9 423.4 245.5 423.4"></polygon>
                        <path d="M220.7,91.4 L224.8,91.4 C229.9,91.4 234,95.5 234,100.6 L234,109.5 C234,114.6 229.9,118.7 224.8,118.7 L220.7,118.7 C215.6,118.7 211.5,114.6 211.5,109.5 L211.5,100.6 C211.6,95.5 215.7,91.4 220.7,91.4 L220.7,91.4 Z" id="Shape" fill="#536E7B"></path>
                        <path d="M294.6,91.4 L290.5,91.4 C285.4,91.4 281.3,95.5 281.3,100.6 L281.3,109.5 C281.3,114.6 285.4,118.7 290.5,118.7 L294.6,118.7 C299.7,118.7 303.8,114.6 303.8,109.5 L303.8,100.6 C303.8,95.5 299.7,91.4 294.6,91.4 L294.6,91.4 Z" id="Shape" fill="#536E7B"></path>
                        <g transform="translate(216.000000, 97.000000)" id="Shape" fill="#314149">
                            <path d="M8.5,0.2 L6.2,0.2 C3.2,0.2 0.9,2.6 0.9,5.5 L0.9,10.6 C0.9,13.6 3.3,15.9 6.2,15.9 L8.5,15.9 C11.5,15.9 13.8,13.5 13.8,10.6 L13.8,5.5 C13.8,2.5 11.5,0.2 8.5,0.2 L8.5,0.2 Z"></path>
                            <path d="M77.1,0.2 L74.8,0.2 C71.8,0.2 69.5,2.6 69.5,5.5 L69.5,10.6 C69.5,13.6 71.9,15.9 74.8,15.9 L77.1,15.9 C80.1,15.9 82.4,13.5 82.4,10.6 L82.4,5.5 C82.4,2.5 80,0.2 77.1,0.2 L77.1,0.2 Z"></path>
                        </g>
                        <path d="M212.1,366.9 L216.6,366.9 C223.4,366.9 228.8,372.4 228.8,379.1 L228.8,379.1 C228.8,372.3 234.3,366.9 241,366.9 L245.5,366.9 L245.5,423.5 L228.7,423.5 L228.7,423.5 L212,423.5 L212,366.9 L212.1,366.9 L212.1,366.9 Z" id="Shape" fill="#0C1113"></path>
                        <path d="M245.5,366.9 L241,366.9 C234.2,366.9 228.8,372.4 228.8,379.1 L228.8,423.4 L245.5,423.4 L245.5,366.8 L245.5,366.8 L245.5,366.9 Z" id="Shape" fill="#07090B"></path>
                        <path d="M241.7,222.7 L273.6,222.7 C289.3,222.7 302.1,235.6 302.1,251.2 L302.1,308.7 C302.1,324.4 289.2,337.2 273.6,337.2 L241.7,337.2 C226,337.2 213.2,324.3 213.2,308.7 L213.2,251.2 C213.1,235.6 226,222.7 241.7,222.7 L241.7,222.7 Z" id="Shape" fill="#506976"></path>
                        <path d="M257.7,280.9 L212.5,280.9 L195.6,347.4 L206.9,347.4 C234.8,347.4 257.6,324.6 257.6,296.7 C257.6,324.6 280.4,347.4 308.3,347.4 L319.7,347.4 L302.8,280.9 L257.7,280.9 L257.7,280.9 Z" id="Shape" fill="#11171B"></path>
                        <path d="M257.7,280.9 L302.8,280.9 L319.7,347.4 L308.4,347.4 C280.5,347.4 257.7,324.6 257.7,296.7 L257.7,280.9 L257.7,280.9 Z" id="Shape" fill="#0A0D0F"></path>
                        <path d="M368,434.7 L368,446.6 L268.2,446.6 L268.1,411 L306.9,410.9 C334.2,386.9 368,405 368,434.7 L368,434.7 Z" id="Shape" fill="#0C1113"></path>
                        <polygon id="Shape" fill="#07090B" points="368 436.3 368 446.7 268.1 446.7 268 436.3"></polygon>
                        <path d="M145.5,434.7 L145.5,446.6 L245.3,446.6 L245.4,411 L206.6,410.9 C179.4,386.9 145.5,405 145.5,434.7 L145.5,434.7 Z" id="Shape" fill="#0C1113"></path>
                        <polygon id="Shape" fill="#07090B" points="145.5 436.3 145.5 446.7 245.4 446.7 245.4 436.3"></polygon>
                        <rect id="Rectangle-path" fill="#9C9C9C" x="238.3" y="115.6" width="38.8" height="54.5"></rect>
                        <path d="M251.9,66.1 L263.5,66.1 C278,66.1 289.9,77.9 289.9,92.5 L289.9,117.7 C289.9,132.2 278.1,144.1 263.5,144.1 L251.9,144.1 C237.4,144.1 225.5,132.3 225.5,117.7 L225.5,92.5 C225.5,77.9 237.4,66.1 251.9,66.1 L251.9,66.1 Z" id="Shape" fill="#536E7B"></path>
                        <path d="M159.8,195.9 L146.4,195.9 C142,195.9 138.3,199.6 138.3,204 L138.3,268.9 C138.3,273.3 142,277 146.4,277 L159.8,277 C164.2,277 167.9,273.3 167.9,268.9 L167.9,204 C168,199.5 164.4,195.9 159.8,195.9 L159.8,195.9 Z" id="Shape" fill="#536E7B"></path>
                        <path d="M344.7,260.1 L346.9,260.1 L346.9,248.2 L346.6,248.2 C337.9,248.2 330.9,241.1 330.9,232.5 L330.9,187.6 C330.9,178.9 338,171.9 346.6,171.9 L353.6,171.9 C362.3,171.9 369.3,179 369.3,187.6 L369.3,195.8 L376.7,195.8 L376.7,282.2 L376.7,314.1 L322.6,314.1 L322.6,282.2 C322.6,270.1 332.6,260.1 344.7,260.1 L344.7,260.1 Z" id="Shape" fill="#536E7B"></path>
                        <path d="M376.7,314.1 L376.7,327.2 L376.7,345.4 C376.7,357.5 366.7,367.6 354.5,367.6 L344.7,367.6 C332.5,367.6 322.5,357.6 322.5,345.4 L322.5,314.2 L376.7,314.2 L376.7,314.1 Z" id="Shape" fill="#475E69"></path>
                        <path d="M358.5,172.7 C364.8,174.8 369.4,180.7 369.4,187.7 L369.4,195.9 L376.8,195.9 L376.8,282.3 L376.8,327.2 L376.8,331.5 L358.5,331.5 L358.5,172.7 L358.5,172.7 Z" id="Shape" fill="#475E69"></path>
                        <path d="M175,237.3 L165.2,237.3 C153,237.3 143,247.3 143,259.5 L143,259.5 C143,271.6 153,281.7 165.2,281.7 L175,281.7 C187.1,281.7 197.2,271.8 197.2,259.5 L197.2,259.5 C197.2,247.2 187.3,237.3 175,237.3 L175,237.3 Z" id="Shape" fill="#D6D6D6"></path>
                        <path d="M168.4,171.8 L161.4,171.8 C152.7,171.8 145.7,178.9 145.7,187.5 L145.7,232.4 C145.7,241.1 152.8,248.1 161.4,248.1 L168.4,248.1 C177.1,248.1 184.1,241 184.1,232.4 L184.1,187.5 C184.1,178.9 177,171.8 168.4,171.8 L168.4,171.8 Z" id="Shape" fill="#475E69"></path>
                        <path d="M323.1,331.5 L345.4,331.5 C350.5,331.5 354.6,335.6 354.6,340.7 L354.6,358.2 C354.6,363.3 350.5,367.4 345.4,367.4 L323.1,367.4 C318,367.4 313.9,363.3 313.9,358.2 L313.9,340.7 C313.9,335.7 318,331.5 323.1,331.5 L323.1,331.5 Z" id="Shape" fill="#536E7B"></path>
                        <path d="M392.8,217.1 L392.8,211.3 C392.8,195.6 379.9,182.8 364.3,182.8 L310.5,182.8 L310.5,217.1 L392.8,217.1 L392.8,217.1 Z" id="Shape" fill="#07090B"></path>
                        <path d="M122.3,217.1 L122.3,211.3 C122.3,195.6 135.2,182.8 150.8,182.8 L204.6,182.8 L204.6,217.1 L122.3,217.1 L122.3,217.1 Z" id="Shape" fill="#07090B"></path>
                        <path d="M217,154.5 L298.4,154.5 C314.1,154.5 326.9,167.4 326.9,183 L326.9,225.1 C326.9,240.8 314,253.6 298.4,253.6 L217,253.6 C201.3,253.6 188.5,240.7 188.5,225.1 L188.5,183 C188.4,167.3 201.3,154.5 217,154.5 L217,154.5 Z" id="Shape" fill="#445A64"></path>
                        <path d="M257.7,154.5 L298.3,154.5 C314,154.5 326.8,167.4 326.8,183 L326.8,225.1 C326.8,240.8 313.9,253.6 298.3,253.6 L257.7,253.6 L257.7,154.5 L257.7,154.5 Z" id="Shape" fill="#2F3F47"></path>
                        <path d="M374.2,253.6 L379.3,253.6 L379.3,310.4 L364,310.4 L364,263.9 C364,258.3 368.6,253.6 374.2,253.6 L374.2,253.6 Z" id="Shape" fill="#090C0D"></path>
                        <rect id="Rectangle-path" fill="#090C0D" x="320.4" y="296.9" width="59.3" height="34.6"></rect>
                        <path d="M337.4,322.2 C342.8,322.2 347.2,317.8 347.2,312.4 C347.2,307 342.8,302.6 337.4,302.6 C332,302.6 327.6,307 327.6,312.4 C327.6,317.8 332,322.2 337.4,322.2 L337.4,322.2 Z" id="Shape" fill="#506976"></path>
                        <path d="M364.8,322.2 C370.2,322.2 374.6,317.8 374.6,312.4 C374.6,307 370.2,302.6 364.8,302.6 C359.4,302.6 355,307 355,312.4 C355,317.8 359.4,322.2 364.8,322.2 L364.8,322.2 Z" id="Shape" fill="#506976"></path>
                        <g transform="translate(331.000000, 302.000000)" id="Shape" fill="#33434B">
                            <path d="M6.4,0.7 C4.5,0.7 2.6,1.2 0.9,2.4 L6.4,10.5 L11.9,2.4 C10.3,1.2 8.4,0.7 6.4,0.7 L6.4,0.7 Z"></path>
                            <path d="M6.4,20.2 C8.3,20.2 10.2,19.7 11.9,18.5 L6.4,10.4 L0.9,18.5 C2.6,19.7 4.5,20.2 6.4,20.2 L6.4,20.2 Z"></path>
                            <path d="M33.8,0.7 C31.9,0.7 30,1.2 28.3,2.4 L33.8,10.5 L39.3,2.4 C37.7,1.2 35.8,0.7 33.8,0.7 L33.8,0.7 Z"></path>
                            <path d="M28.4,18.5 C30,19.6 31.9,20.2 33.9,20.2 C35.8,20.2 37.7,19.7 39.4,18.5 L33.9,10.4 L28.4,18.5 L28.4,18.5 Z"></path>
                        </g>
                        <polygon id="Shape" fill="#1C2529" points="209.7 253.4 302.1 253.4 317.9 267.1 302.1 280.9 209.7 280.9"></polygon>
                        <path d="M272.3,104.9 C276,104.9 279.1,101.8 279.1,98.1 C279.1,94.4 276,91.3 272.3,91.3 C268.6,91.3 265.5,94.4 265.5,98.1 C265.6,102 268.5,104.9 272.3,104.9 L272.3,104.9 Z" id="Shape" fill="#07090B"></path>
                        <path d="M272.3,122.7 C278.2,122.7 283,118 283,112 C283,106 278.3,101.3 272.3,101.3 C266.3,101.3 261.6,106 261.6,112 C261.6,117.9 266.4,122.7 272.3,122.7 L272.3,122.7 Z" id="Shape" fill="#536E7B"></path>
                        <path d="M243,104.9 C246.7,104.9 249.8,101.8 249.8,98.1 C249.8,94.4 246.7,91.3 243,91.3 C239.3,91.3 236.2,94.4 236.2,98.1 C236.2,102 239.3,104.9 243,104.9 L243,104.9 Z" id="Shape" fill="#07090B"></path>
                        <path d="M243,122.7 C248.9,122.7 253.7,118 253.7,112 C253.7,106 249,101.3 243,101.3 C237,101.3 232.3,106 232.3,112 C232.3,117.9 237.1,122.7 243,122.7 L243,122.7 Z" id="Shape" fill="#536E7B"></path>
                        <path d="M390.5,188.4 L390.5,182.2 C390.5,165.2 376.7,151.4 359.7,151.4 L301.5,151.4 C301.5,169.3 309.2,180.1 321.8,188.6 L390.5,188.6 L390.5,188.4 L390.5,188.4 Z" id="Shape" fill="#12191C"></path>
                        <path d="M124.6,188.4 L124.6,182.2 C124.6,165.2 138.4,151.4 155.4,151.4 L213.6,151.4 C213.6,169.3 205.9,180.1 193.3,188.6 L124.6,188.6 L124.6,188.4 L124.6,188.4 Z" id="Shape" fill="#12191C"></path>
                        <path d="M175.7,228.3 L164.6,228.3 C150.9,228.3 139.6,239.6 139.6,253.3 L139.6,265.4 C139.6,279.1 150.9,290.4 164.6,290.4 L175.7,290.4 C189.4,290.4 200.7,279.1 200.7,265.4 L200.7,253.3 C200.7,239.6 189.5,228.3 175.7,228.3 L175.7,228.3 Z" id="Shape" fill="#090C0D"></path>
                        <path d="M193.2,228.4 L200.4,228.4 C203.7,228.4 206.4,231.1 206.4,234.4 L206.4,255.4 C206.4,258.7 203.7,261.4 200.4,261.4 L193.2,261.4 C189.9,261.4 187.2,258.7 187.2,255.4 L187.2,234.4 C187.2,231.1 189.9,228.4 193.2,228.4 L193.2,228.4 Z" id="Shape" fill="#314149"></path>
                        <polygon id="Shape" fill="#2B393F" points="154.9 27.2 172.1 27.2 189.2 27.2 186.9 151.4 182.7 188.4 182.7 336.3 172.1 336.3 161.3 336.3 161.3 188.4 157.2 151.4"></polygon>
                        <polygon id="Shape" fill="#1A2226" points="155.8 77.5 155.7 68.9 179.8 68.9 179.8 77.5"></polygon>
                        <polygon id="Shape" fill="#1A2226" points="172.1 27.2 189.2 27.2 186.9 151.4 182.7 188.4 182.7 336.3 172.1 336.3"></polygon>
                        <path d="M165.3,232 L186.8,232 C194.4,232 200.5,238.2 200.5,245.7 L200.5,270.2 C200.5,277.8 194.3,283.9 186.8,283.9 L165.3,283.9 C157.7,283.9 151.6,277.7 151.6,270.2 L151.6,245.7 C151.6,238.2 157.8,232 165.3,232 L165.3,232 Z" id="Shape" fill="#536E7B"></path>
                        <path d="M172.1,232 L187,232 C194.6,232 200.7,238.2 200.7,245.7 L200.7,270.2 C200.7,277.8 194.5,283.9 187,283.9 L172.1,283.9 L172.1,232 L172.1,232 Z" id="Shape" fill="#475E69"></path>
                        <path d="M257.7,238.5 C220.1,220.7 230.9,156.6 230.9,118.3 L284.6,118.3 C284.5,156.6 295.1,220.8 257.7,238.5 L257.7,238.5 Z" id="Shape" fill="#0F1416"></path>
                        <path d="M248,119.9 L267.4,119.9 C271.2,119.9 274.4,123 274.4,126.9 L274.4,130.2 C274.4,141 241.2,141 241.2,130.2 L241.2,126.9 C241,123.1 244.2,119.9 248,119.9 L248,119.9 Z" id="Shape" fill="#0B0F11"></path>
                        <g transform="translate(229.000000, 84.000000)" id="Shape" fill="#0F1416">
                            <path d="M38,0.3 L57,0.3 C57,3.1 53.8,6.5 50,6.5 L33.9,6.5 L33.9,4.4 C33.7,2.2 35.6,0.3 38,0.3 L38,0.3 Z"></path>
                            <path d="M19.4,0.3 L0.4,0.3 C0.4,3.1 3.6,6.5 7.4,6.5 L23.5,6.5 L23.5,4.4 C23.6,2.2 21.7,0.3 19.4,0.3 L19.4,0.3 Z"></path>
                        </g>
                        <path d="M251.2,117 L264,117 C266.5,117 268.5,119 268.5,121.5 L268.5,123.6 C268.5,130.7 246.7,130.7 246.7,123.6 L246.7,121.5 C246.7,119.2 248.8,117 251.2,117 L251.2,117 Z" id="Shape" fill="#314149"></path>
                        <path d="M118.4,1.5 L225.7,1.5 C228.2,1.5 230.2,3.5 230.2,6 L230.2,52 C230.2,54.5 228.2,56.5 225.7,56.5 L118.4,56.5 C115.9,56.5 113.9,54.5 113.9,52 L113.9,6 C113.8,3.5 115.8,1.5 118.4,1.5 L118.4,1.5 Z" id="Shape" fill="#0C1113"></path>
                        <rect id="Rectangle-path" fill="#0C1113" x="151.1" y="51.9" width="42" height="17"></rect>
                        <rect id="Rectangle-path" fill="#07090B" x="221" y="84.3" width="4.4" height="43.8"></rect>
                        <rect id="Rectangle-path" fill="#0F1416" x="221" y="84.3" width="4.4" height="43.8"></rect>
                        <rect id="Rectangle-path" fill="#0F1416" x="289.8" y="84.3" width="4.4" height="43.8"></rect>
                        <path d="M258,248.9 L258,248.9 C268,248.9 276.3,257.1 276.3,267.2 L276.3,267.2 C276.3,277.2 268.1,285.5 258,285.5 L258,285.5 C248,285.5 239.7,277.3 239.7,267.2 L239.7,267.2 C239.7,257.1 248,248.9 258,248.9 L258,248.9 Z" id="Shape" fill="#12191C"></path>
                        <path d="M258,254.8 L258,254.8 C264.8,254.8 270.3,260.4 270.3,267.1 L270.3,267.1 C270.3,273.9 264.7,279.4 258,279.4 L258,279.4 C251.2,279.4 245.7,273.8 245.7,267.1 L245.7,267.1 C245.6,260.4 251.1,254.8 258,254.8 L258,254.8 Z" id="Shape" fill="#07090B"></path>
                        <rect id="Rectangle-path" fill="#506976" x="219" y="251.8" width="9.2" height="30.6"></rect>
                        <rect id="Rectangle-path" fill="#506976" x="287.8" y="251.8" width="9.2" height="30.6"></rect>
                        <path d="M227.1,194.2 C216.9,188.7 219.7,150.2 219.7,138.3 L234.4,138.3 C234.3,150.2 237.3,188.7 227.1,194.2 L227.1,194.2 Z" id="Shape" fill="#0D1113"></path>
                        <path d="M227.1,194.2 C216.9,188.7 219.7,150.2 219.7,138.3 L227.1,138.3 L234.4,138.3 L234.4,138.8 L234.4,139.4 L234.4,140 L234.4,140.6 L234.4,140.6 L234.4,141.3 L234.4,141.3 L234.4,142 L234.4,142 L234.4,142.7 L234.4,142.7 L234.4,143.5 L234.4,143.5 L234.4,144.3 L234.4,144.3 L234.4,145.1 L234.4,145.1 L234.4,145.9 L234.4,145.9 L234.4,146.8 L234.4,146.8 L234.4,147.7 L234.4,147.7 L234.4,148.6 L234.4,148.6 L234.4,149.5 L234.4,149.5 L234.4,150.4 L234.4,150.4 L234.4,151.5 L234.4,151.5 L234.4,152.6 L234.4,152.6 L234.4,153.7 L234.4,153.7 L234.4,154.8 L234.4,154.8 L234.4,155.9 L234.4,155.9 L234.4,157 L234.4,157 L234.4,158.1 L234.4,158.1 L234.4,159.2 L234.4,159.2 L234.4,160.3 L234.4,160.3 L234.4,161.4 L234.4,161.4 L234.4,162.5 L234.4,162.5 L234.4,163.7 L234.4,163.7 L234.4,164.9 L234.4,164.9 L234.4,166.1 L234.4,166.1 L234.4,167.2 L234.4,167.2 L234.4,168.3 L234.4,168.3 C234.4,168.6 234.4,169 234.3,169.4 L234.3,169.4 C234.3,169.7 234.3,170.1 234.2,170.5 L234.2,170.5 C234.2,170.8 234.2,171.2 234.1,171.6 L234.1,171.6 C234.1,171.9 234.1,172.3 234,172.7 L234,172.7 C234,173 233.9,173.4 233.9,173.8 L233.9,173.8 C233.9,174.1 233.8,174.5 233.8,174.9 L233.8,174.9 C233.8,175.2 233.7,175.6 233.7,176 L233.7,176 C233.7,176.3 233.6,176.7 233.6,177.1 L233.6,177.1 C233.6,177.4 233.5,177.7 233.5,178.2 L233.5,178.2 C233.5,178.5 233.4,178.8 233.4,179.1 L233.4,179.1 C233.4,179.4 233.3,179.7 233.3,180 L233.3,180 C233.3,180.3 233.2,180.6 233.1,180.9 L233.1,180.9 C233,181.2 233,181.5 232.9,181.8 C232.9,182.1 232.8,182.3 232.7,182.6 L232.7,182.7 L232.7,182.7 C232.6,183 232.6,183.3 232.5,183.5 L232.5,183.5 C232.4,183.8 232.4,184.1 232.3,184.3 L232.3,184.3 C232.2,184.6 232.2,184.8 232.1,185.1 L232.1,185.1 C232,185.4 232,185.6 231.9,185.9 L231.9,185.9 C231.8,186.2 231.7,186.4 231.7,186.6 L231.7,186.6 C231.6,186.8 231.5,187.1 231.4,187.3 L231.4,187.3 C231.3,187.5 231.2,187.8 231.1,188 L231.1,188 C231,188.2 230.9,188.4 230.8,188.7 L230.8,188.7 L230.7,188.8 C230.5,189.2 230.3,189.6 230.1,190 L230.1,190 C230,190.2 229.9,190.4 229.8,190.5 L229.8,190.5 C229.7,190.7 229.6,190.8 229.5,191 C229.4,191.1 229.3,191.2 229.2,191.4 L229.1,191.5 L229.1,191.5 C229,191.7 228.9,191.8 228.7,191.9 L228.7,191.9 L228.3,192.3 C228,193.7 227.5,194 227.1,194.2 L227.1,194.2 L227.1,194.2 L227.1,194.2 Z" id="Shape" fill="#0D1113"></path>
                        <path d="M289.7,194.2 C279.5,188.7 282.3,150.2 282.3,138.3 L297,138.3 C297,150.2 300,188.7 289.7,194.2 L289.7,194.2 Z" id="Shape" fill="#0D1113"></path>
                        <path d="M227.1,138.3 L234.4,138.3 C234.4,150.1 237.4,188.6 227.1,194.2 L227.1,138.3 L227.1,138.3 Z" id="Shape" fill="#07090B"></path>
                        <path d="M289.7,138.3 L297,138.3 C297,150.1 300,188.6 289.7,194.2 L289.7,138.3 L289.7,138.3 Z" id="Shape" fill="#07090B"></path>
                        <rect id="Rectangle-path" fill="#BDBDBD" x="223.4" y="190.3" width="7.4" height="9.9"></rect>
                        <rect id="Rectangle-path" fill="#506976" x="223.4" y="190.3" width="7.4" height="9.9"></rect>
                        <rect id="Rectangle-path" fill="#506976" x="286" y="190.3" width="7.4" height="9.9"></rect>
                        <path d="M227.1,228.8 C216.2,221.8 219.1,203.9 223.4,200.2 L227.1,200.2 L227.1,228.8 L227.1,228.8 L227.1,228.8 Z" id="Shape" fill="#0D1113"></path>
                        <path d="M289.7,228.8 C278.8,221.8 281.7,203.9 286,200.2 L289.7,200.2 L289.7,228.8 L289.7,228.8 L289.7,228.8 Z" id="Shape" fill="#0D1113"></path>
                        <path d="M227.1,228.8 C238,221.8 235.1,203.9 230.8,200.2 L227.1,200.2 L227.1,228.8 L227.1,228.8 L227.1,228.8 Z" id="Shape" fill="#07090B"></path>
                        <path d="M227.1,228.8 C238,221.8 235.1,203.9 230.8,200.2 L227.1,200.2 L227.1,228.8 L227.1,228.8 L227.1,228.8 Z" id="Shape" fill="#07090B"></path>
                        <path d="M289.7,228.8 C300.6,221.8 297.7,203.9 293.4,200.2 L289.7,200.2 L289.7,228.8 L289.7,228.8 L289.7,228.8 Z" id="Shape" fill="#07090B"></path>
                        <g transform="translate(204.000000, 107.000000)" id="Shape" fill="#1C2529">
                            <path d="M55.4,0.6 C11,0.6 6.3,34.9 0.7,71.7 C13.4,50.7 23.7,40.1 37.7,24 C45.1,15.7 55.3,18.3 55.3,1.4 L55.3,0.6 L55.4,0.6 Z"></path>
                            <path d="M52,0.6 C96.4,0.6 101.1,34.9 106.7,71.7 C94,50.7 83.7,40.1 69.7,24 C62.3,15.7 52.1,18.3 52.1,1.4 L52,0.6 L52,0.6 L52,0.6 Z"></path>
                        </g>
                        <path d="M223.2,278.5 C229,281 233.2,286.9 233.2,293.7 L233.2,293.7 C233.2,302.8 225.7,310.3 216.6,310.3 L216.6,310.3 C207.5,310.3 200,302.8 200,293.7 L200,293.7 C200,286.9 204.1,281 210,278.5 L210,275.1 L206.8,275.1 L206.8,270.1 L208.7,270.1 L208.7,268.7 L224.3,268.7 L224.3,270.1 L226.2,270.1 L226.2,275.1 L223,275.1 L223.2,278.5 L223.2,278.5 L223.2,278.5 Z" id="Shape" fill="#4E6875"></path>
                        <path d="M223.2,278.5 L223.2,275.1 L226.4,275.1 L226.4,270.1 L224.5,270.1 L224.5,268.7 L216.7,268.7 L216.7,275 L210.2,275 L210.2,277.4 L216.7,277.4 L216.7,310.1 C225.8,310.1 233.3,302.6 233.3,293.5 C233.1,286.9 229,281.1 223.2,278.5 L223.2,278.5 Z" id="Shape" fill="#445A64"></path>
                        <rect id="Rectangle-path" fill="#07090B" x="151.1" y="56.6" width="42" height="3.9"></rect>
                        <path d="M187.3,20.7 L187.3,20.7 C190.6,20.7 193.3,23 193.9,26.1 L195.5,26.1 C197.5,26.1 199.2,27.8 199.2,29.8 L199.2,29.8 C199.2,31.8 197.5,33.5 195.5,33.5 L193.9,33.5 C193.3,36.6 190.5,38.9 187.3,38.9 L187.3,38.9 C185.9,38.9 184.7,38.5 183.6,37.7 C181.9,42.4 177.4,45.9 172.1,45.9 L172.1,45.9 C166.8,45.9 162.3,42.4 160.6,37.7 C159.5,38.4 158.3,38.9 156.9,38.9 L156.9,38.9 C153.6,38.9 150.9,36.6 150.3,33.5 L148.7,33.5 C146.7,33.5 145,31.8 145,29.8 L145,29.8 C145,27.8 146.7,26.1 148.7,26.1 L150.3,26.1 C150.9,23 153.7,20.7 156.9,20.7 L156.9,20.7 C158.3,20.7 159.5,21.1 160.6,21.9 C162.3,17.2 166.8,13.7 172.1,13.7 L172.1,13.7 C177.4,13.7 181.9,17.2 183.6,21.9 C184.6,21.1 185.9,20.7 187.3,20.7 L187.3,20.7 Z" id="Shape" fill="#2F3F47"></path>
                        <path d="M187.3,18.3 L187.3,18.3 C190.6,18.3 193.3,20.6 193.9,23.7 L195.5,23.7 C197.5,23.7 199.2,25.4 199.2,27.4 L199.2,27.4 C199.2,29.4 197.5,31.1 195.5,31.1 L193.9,31.1 C193.3,34.2 190.5,36.5 187.3,36.5 L187.3,36.5 C185.9,36.5 184.7,36.1 183.6,35.3 C181.9,40 177.4,43.5 172.1,43.5 L172.1,43.5 C166.8,43.5 162.3,40 160.6,35.3 C159.5,36 158.3,36.5 156.9,36.5 L156.9,36.5 C153.6,36.5 150.9,34.2 150.3,31.1 L148.7,31.1 C146.7,31.1 145,29.4 145,27.4 L145,27.4 C145,25.4 146.7,23.7 148.7,23.7 L150.3,23.7 C150.9,20.6 153.7,18.3 156.9,18.3 L156.9,18.3 C158.3,18.3 159.5,18.7 160.6,19.5 C162.3,14.8 166.8,11.3 172.1,11.3 L172.1,11.3 C177.4,11.3 181.9,14.8 183.6,19.5 C184.6,18.7 185.9,18.3 187.3,18.3 L187.3,18.3 Z" id="Shape" fill="#4E6875"></path>
                        <path d="M172.1,36.8 C177.3,36.8 181.6,32.6 181.6,27.3 C181.6,22.1 177.4,17.8 172.1,17.8 C166.9,17.8 162.6,22 162.6,27.3 C162.6,32.6 166.8,36.8 172.1,36.8 L172.1,36.8 Z" id="Shape" fill="#2F3F47"></path>
                        <path d="M172.1,34 C175.8,34 178.7,31 178.7,27.4 C178.7,23.8 175.7,20.8 172.1,20.8 C168.4,20.8 165.5,23.8 165.5,27.4 C165.5,31 168.4,34 172.1,34 L172.1,34 Z" id="Shape" fill="#0F1416"></path>
                        <path d="M171.7,15.9 C170.4,21.5 170.3,21.3 174.2,25.5 C168.6,24.2 168.8,24.1 164.6,28 C165.9,22.4 166,22.6 162.1,18.4 C167.6,19.8 167.4,19.8 171.7,15.9 L171.7,15.9 Z" id="Shape" fill="#83ADC1"></path>
                        <g transform="translate(126.000000, 0.000000)" id="Rectangle-path" fill="#4E6875">
                            <rect x="0.5" y="0" width="10.6" height="57.9"></rect>
                            <rect x="81" y="0" width="10.6" height="57.9"></rect>
                        </g>
                    </g>
                </g>
            </g>
        </g>
    </g>
</svg>