<?xml version="1.0" encoding="UTF-8" standalone="no"?>
<svg width="64px" height="64px" viewBox="0 0 64 64" version="1.1" xmlns="http://www.w3.org/2000/svg" xmlns:xlink="http://www.w3.org/1999/xlink">
    <!-- Generator: Sketch 3.6.1 (26313) - http://www.bohemiancoding.com/sketch -->
    <title>Artboard Copy 3</title>
    <desc>Created with Sketch.</desc>
    <defs></defs>
    <g id="Page-1" stroke="none" stroke-width="1" fill="none" fill-rule="evenodd">
        <g id="Artboard-Copy-3" fill="#000000">
            <path d="M32.000209,0 C14.3270234,0 0,14.3270234 0,32.000209 C0,49.6729766 14.3270234,64 32.000209,64 C49.6733945,64 64,49.6729766 64,32.000209 C64,14.3270234 49.6733945,0 32.000209,0 L32.000209,0 Z M49.7810309,25.3205602 C48.9511899,20.5489747 44.8019851,17.0221506 39.8229393,17.0221506 L36.7110357,17.0221506 L27.7902453,17.0221506 L24.4708814,17.0221506 C19.4918356,17.0221506 15.3426308,20.5489747 14.5127898,25.3205602 C14.5127898,25.3205602 11.4008862,43.5770615 11.4008862,43.7845218 C11.4008862,46.2740447 13.2680284,48.1411868 15.7575513,48.1411868 C17.0023127,48.1411868 18.0396139,47.7262664 18.8694549,46.8964254 L25.9231031,39.8427772 L38.3707176,39.8427772 L45.6318261,46.8964254 C46.461667,47.7262664 47.4989683,48.1411868 48.7437297,48.1411868 C51.0257924,48.1411868 53.1003948,46.2740447 53.1003948,43.7845218 C52.8929345,43.5770615 49.7810309,25.3205602 49.7810309,25.3205602 L49.7810309,25.3205602 L49.7810309,25.3205602 Z M30.0723079,28.9977549 L25.9231031,28.9977549 L25.9231031,33.1469597 L23.8485007,33.1469597 L23.8485007,28.9977549 L19.6992959,28.9977549 L19.6992959,26.9231525 L23.8485007,26.9231525 L23.8485007,22.7739476 L25.9231031,22.7739476 L25.9231031,26.9231525 L30.0723079,26.9231525 L30.0723079,28.9977549 L30.0723079,28.9977549 L30.0723079,28.9977549 Z M39.4080188,26.0933115 C38.5781779,26.0933115 37.7483369,25.2634705 37.7483369,24.4336296 C37.7483369,23.6037886 38.5781779,22.7739476 39.4080188,22.7739476 C40.2378598,22.7739476 41.0677008,23.6037886 41.0677008,24.4336296 C41.0677008,25.2634705 40.2378598,26.0933115 39.4080188,26.0933115 L39.4080188,26.0933115 L39.4080188,26.0933115 Z M39.4080188,33.1469597 C38.5781779,33.1469597 37.7483369,32.3171188 37.7483369,31.4872778 C37.7483369,30.6574368 38.5781779,29.8275959 39.4080188,29.8275959 C40.2378598,29.8275959 41.0677008,30.6574368 41.0677008,31.4872778 C41.0677008,32.3171188 40.2378598,33.1469597 39.4080188,33.1469597 L39.4080188,33.1469597 L39.4080188,33.1469597 Z M41.275161,27.9604537 C41.275161,27.1306127 42.105002,26.3007718 42.9348429,26.3007718 C43.7646839,26.3007718 44.5945249,27.1306127 44.5945249,27.9604537 C44.5945249,28.7902947 43.7646839,29.6201356 42.9348429,29.6201356 C41.8975417,29.6201356 41.275161,28.7902947 41.275161,27.9604537 L41.275161,27.9604537 L41.275161,27.9604537 Z M34.2215128,27.9604537 C34.2215128,27.1306127 35.0513537,26.3007718 35.8811947,26.3007718 C36.7110357,26.3007718 37.5408767,27.1306127 37.5408767,27.9604537 C37.5408767,28.7902947 36.7110357,29.6201356 35.8811947,29.6201356 C35.0513537,29.6201356 34.2215128,28.7902947 34.2215128,27.9604537 L34.2215128,27.9604537 L34.2215128,27.9604537 Z" id="Combined-Shape-Copy-4"></path>
        </g>
    </g>
</svg>