<?xml version="1.0" encoding="UTF-8" standalone="no"?>
<svg width="64px" height="64px" viewBox="0 0 64 64" version="1.1" xmlns="http://www.w3.org/2000/svg" xmlns:xlink="http://www.w3.org/1999/xlink">
    <!-- Generator: Sketch 3.6.1 (26313) - http://www.bohemiancoding.com/sketch -->
    <title>Artboard</title>
    <desc>Created with Sketch.</desc>
    <defs>
        <path id="path-1" d="M0.214566234,0.355324675 L0.214566234,63.9999584 L63.8592416,63.9999584 L63.8592416,0.355324675 L0.214566234,0.355324675 Z"></path>
    </defs>
    <g id="Page-1" stroke="none" stroke-width="1" fill="none" fill-rule="evenodd">
        <g id="Artboard">
            <g id="Group-30" transform="translate(0.062000, 0.000000)">
                <mask id="mask-2" fill="white">
                    <use xlink:href="#path-1"></use>
                </mask>
                <g id="Clip-29"></g>
                <path d="M44.4502114,45.79677 L19.6239541,45.79677 L14.9688519,21.8555294 L23.4666581,28.1629728 L32.0370828,15.648965 L40.6075075,28.1629728 L49.1049558,21.8555294 L44.4502114,45.79677 Z M32.0371117,0.355283117 C14.4620468,0.355283117 0.214566234,14.6027636 0.214566234,32.1778286 C0.214566234,49.7524779 14.4620468,63.9999584 32.0371117,63.9999584 C49.6121766,63.9999584 63.8592416,49.7524779 63.8592416,32.1778286 C63.8592416,14.6027636 49.6121766,0.355283117 32.0371117,0.355283117 Z M28.2597403,32.8365714 L31.9667532,38.2441558 L35.4701299,32.8365714 L31.8649351,27.4285714 L28.2597403,32.8365714 Z" id="Combined-Shape" fill="#000000" mask="url(#mask-2)"></path>
            </g>
        </g>
    </g>
</svg>