<?xml version="1.0" encoding="UTF-8" standalone="no"?>
<svg width="24px" height="24px" viewBox="0 0 24 24" version="1.1" xmlns="http://www.w3.org/2000/svg" xmlns:xlink="http://www.w3.org/1999/xlink">
    <!-- Generator: Sketch 3.7.1 (28215) - http://www.bohemiancoding.com/sketch -->
    <title>Artboard Copy 14</title>
    <desc>Created with Sketch.</desc>
    <defs></defs>
    <g id="Page-1" stroke="none" stroke-width="1" fill="none" fill-rule="evenodd">
        <g id="Artboard-Copy-14" fill="#000000">
            <g id="Group-8-Copy">
                <path d="M13.4994146,23.896577 C13.007285,23.9582405 12.5089111,24 12,24 C11.4910889,24 10.992715,23.9582405 10.5005854,23.896577 L10.5001951,23.896577 C4.58254195,23.1570046 0,18.1185462 0,11.9998049 C0,5.37253435 5.37244699,0 12,0 C18.627553,0 24,5.37253435 24,11.9998049 C24,18.1185462 19.4178483,23.1570046 13.4998049,23.896577 L13.4994146,23.896577 Z M8.5,16.3625715 L8.5,7.63751781 C8.5,7.03722294 9.14343666,6.66240389 9.65754336,6.96320064 L17.1151429,11.3256464 C17.6282857,11.6257938 17.6282857,12.3741332 17.1151429,12.6742807 L9.65754336,17.0368887 C9.14343666,17.3375231 8.5,16.9627041 8.5,16.3625715 Z" id="Combined-Shape"></path>
            </g>
        </g>
    </g>
</svg>