<?xml version="1.0" encoding="UTF-8" standalone="no"?>
<svg width="64px" height="64px" viewBox="0 0 64 64" version="1.1" xmlns="http://www.w3.org/2000/svg" xmlns:xlink="http://www.w3.org/1999/xlink">
    <!-- Generator: Sketch 3.6.1 (26313) - http://www.bohemiancoding.com/sketch -->
    <title>Artboard</title>
    <desc>Created with Sketch.</desc>
    <defs></defs>
    <g id="Page-1" stroke="none" stroke-width="1" fill="none" fill-rule="evenodd">
        <g id="Artboard" fill="#000000">
            <path d="M32.000209,1.42108547e-14 C14.3270234,1.42108547e-14 3.55271368e-14,14.3270234 3.55271368e-14,32.000209 C3.55271368e-14,49.6729766 14.3270234,64 32.000209,64 C49.6733945,64 64,49.6729766 64,32.000209 C64,14.3270234 49.6733945,1.42108547e-14 32.000209,1.42108547e-14 Z M49.7199968,46.0679543 C49.6988736,46.0157022 49.674971,45.9642838 49.648567,45.9139772 C49.569077,45.7627794 49.4656844,45.6207535 49.3386671,45.4937363 C49.2800224,45.4350916 49.2174866,45.3833953 49.1532831,45.3350342 L46.8439038,43.0256549 L44.5345245,40.7165536 L47.6307437,37.6203344 C47.779718,37.4713601 47.8822768,37.2932024 47.9381421,37.1044831 C48.005125,36.8779644 48.005125,36.6358812 47.9381421,36.4093625 C47.8822768,36.2206432 47.779718,36.0427634 47.6307437,35.8937891 C47.6026721,35.8657175 47.5732107,35.8393135 47.5429156,35.8145771 C47.3183424,35.629193 47.0429068,35.5360841 46.7674711,35.5360841 C46.5067661,35.5360841 46.2463391,35.620577 46.0287143,35.7867834 C45.9856341,35.8195799 45.9436656,35.8546 45.9044764,35.8937891 L44.0447994,37.7531883 L38.5066249,32.2150138 L37.330673,31.039062 L37.2698048,30.9781937 L36.1052484,29.8136373 L32.3678283,26.0762173 L31.1312862,24.8393972 L22.3818266,16.0902155 L17.4798501,16.0902155 L17.4798501,20.992192 L22.5032851,26.015627 L26.2290318,29.7416516 L27.4658518,30.9781937 L28.7521447,32.2644866 L32.3678283,35.8801702 L32.4286965,35.9410385 L33.6046484,37.1169903 L39.1428229,42.6551648 L38.4457566,43.3525089 L37.2834237,44.5148419 C36.8067616,44.991504 36.8067616,45.764447 37.2834237,46.2411091 C37.4093292,46.3672926 37.5577476,46.4548428 37.7139483,46.5140434 C37.7653666,46.5337769 37.8203982,46.5329431 37.8737621,46.5451723 C37.9643696,46.5660176 38.0535874,46.5979804 38.1461405,46.5979804 C38.179215,46.5979804 38.2122895,46.5965907 38.2450861,46.5940892 C38.3053984,46.5890864 38.3654328,46.5793586 38.4246334,46.5654617 C38.6392009,46.515433 38.8426508,46.4081493 39.0099689,46.2411091 L40.0419494,45.2091287 L42.1061881,43.1448899 L46.7246688,47.7633706 C46.7730298,47.827852 46.8247261,47.8903878 46.8833709,47.9490326 C46.9256173,47.991279 46.9698093,48.031024 47.0151131,48.0682676 C47.2708152,48.2767204 47.572099,48.3995686 47.8819988,48.4407033 C47.9117381,48.4443165 47.9411994,48.4484855 47.9709387,48.450709 C48.0176321,48.4546001 48.0643256,48.4576574 48.111019,48.4576574 C48.5554404,48.4576574 48.9995839,48.2881158 49.3386671,47.9490326 C49.4656844,47.8217374 49.569077,47.6799895 49.648567,47.5287917 C49.8867591,47.0751983 49.9106617,46.5382239 49.7199968,46.0679543 Z M27.3274392,33.4968597 L26.0411463,32.2105668 L20.5026939,37.7487413 L19.8056277,37.0516751 L18.6432947,35.8893422 C18.4051026,35.6508721 18.0927014,35.5316371 17.7803001,35.5316371 C17.4678988,35.5316371 17.1552195,35.6508721 16.9170275,35.8893422 C16.6535431,36.1528265 16.5362536,36.5066404 16.5640474,36.8510045 C16.5690502,36.9115948 16.578778,36.9713513 16.5926749,37.0305519 C16.6427035,37.2448414 16.7499873,37.4488472 16.9170275,37.6158874 L17.9490079,38.6478678 L20.0132467,40.7121066 L15.394766,45.3305872 C15.3302846,45.3789483 15.2677488,45.4306446 15.209104,45.4892893 C15.1668576,45.5315357 15.1268347,45.5757277 15.089869,45.6210315 C14.8814162,45.8764557 14.758568,46.1780174 14.7174333,46.4879173 C14.7135422,46.5176565 14.7096511,46.5471179 14.7074276,46.5768571 C14.7035365,46.6235506 14.7004792,46.670244 14.7004792,46.7169374 C14.7004792,47.1613588 14.8700208,47.6055023 15.209104,47.9445856 C15.3361213,48.0716028 15.4781471,48.1749954 15.6293449,48.2544854 C15.8397433,48.3648265 16.0695973,48.4184683 16.300563,48.4368122 C16.3275229,48.4390357 16.3539269,48.4454282 16.3811647,48.446262 C16.3997865,48.4470958 16.4178524,48.4532104 16.4367522,48.4532104 C16.6588239,48.4532104 16.8811736,48.4106861 17.0901823,48.3259153 C17.1424344,48.304792 17.1938528,48.2808894 17.2441594,48.2544854 C17.3953572,48.1749954 17.537383,48.0716028 17.6644003,47.9445856 C17.723045,47.8859408 17.7747413,47.823405 17.8231024,47.7589236 L20.1324817,45.4498222 L22.441583,43.1404429 L25.5378022,46.2366621 C25.6867765,46.3856364 25.8646563,46.4881952 26.0533755,46.5440606 C26.1667739,46.577413 26.2837854,46.5943672 26.4010748,46.5943672 C26.5180864,46.5943672 26.6353758,46.577413 26.7487741,46.5440606 C26.9374934,46.4881952 27.1153732,46.3856364 27.2643474,46.2366621 C27.2924191,46.2085905 27.3188231,46.1791292 27.3435595,46.148834 C27.5289436,45.9242608 27.6217745,45.6491031 27.6217745,45.3733895 C27.6217745,45.1126845 27.5375596,44.8522575 27.3713532,44.6346327 C27.3385566,44.5915525 27.3035366,44.549584 27.2643474,44.5103949 L25.4049483,42.6507178 L30.9431228,37.1125433 L27.3274392,33.4968597 Z M42.3493831,16.0902155 L37.3259481,21.1139284 L33.6002014,24.8396751 L37.3376215,28.5770952 L38.5021779,29.7419296 L47.2516375,20.992192 L47.2516375,16.0902155 L42.3493831,16.0902155 Z" id="Combined-Shape"></path>
        </g>
    </g>
</svg>