<?xml version="1.0" encoding="UTF-8" standalone="no"?>
<svg width="24px" height="24px" viewBox="0 0 24 24" version="1.1" xmlns="http://www.w3.org/2000/svg" xmlns:xlink="http://www.w3.org/1999/xlink">
    <!-- Generator: Sketch 3.6.1 (26313) - http://www.bohemiancoding.com/sketch -->
    <title>Artboard</title>
    <desc>Created with Sketch.</desc>
    <defs></defs>
    <g id="Page-1" stroke="none" stroke-width="1" fill="none" fill-rule="evenodd">
        <g id="Artboard">
            <g id="games_ic_overflow_right_24">
                <path d="M0,0 L24,0 L24,24 L0,24 L0,0 Z" id="Shape"></path>
                <path d="M20,8 C21.1,8 22,7.1 22,6 C22,4.9 21.1,4 20,4 C18.9,4 18,4.9 18,6 C18,7.1 18.9,8 20,8 L20,8 Z M20,10 C18.9,10 18,10.9 18,12 C18,13.1 18.9,14 20,14 C21.1,14 22,13.1 22,12 C22,10.9 21.1,10 20,10 L20,10 Z M20,16 C18.9,16 18,16.9 18,18 C18,19.1 18.9,20 20,20 C21.1,20 22,19.1 22,18 C22,16.9 21.1,16 20,16 L20,16 Z" id="Shape" fill="#000000"></path>
            </g>
        </g>
    </g>
</svg>