<?xml version="1.0" encoding="UTF-8" standalone="no"?>
<svg width="17px" height="20px" viewBox="0 0 17 20" version="1.1" xmlns="http://www.w3.org/2000/svg" xmlns:xlink="http://www.w3.org/1999/xlink">
    <!-- Generator: Sketch 3.6.1 (26313) - http://www.bohemiancoding.com/sketch -->
    <title>Group 8 Copy</title>
    <desc>Created with Sketch.</desc>
    <defs>
        <path id="path-1" d="M0.101688312,0.133246753 L0.101688312,23.9999532 L23.9684416,23.9999532 L23.9684416,0.133246753 L0.101688312,0.133246753 Z"></path>
    </defs>
    <g id="Page-1" stroke="none" stroke-width="1" fill="none" fill-rule="evenodd">
        <g id="Group-8-Copy" transform="translate(-3.000000, -3.000000)">
            <mask id="mask-2" fill="white">
                <use xlink:href="#path-1"></use>
            </mask>
            <g id="Clip-7"></g>
            <path d="M12.7422752,16.0351408 C12.483944,16.067509 12.222335,16.0894293 11.9551948,16.0894293 C11.6880546,16.0894293 11.4264456,16.067509 11.1681144,16.0351408 L11.1679096,16.0351408 C8.06158484,15.646927 5.65609351,13.0021567 5.65609351,9.79032796 C5.65609351,6.31156385 8.47622583,3.49143153 11.9551948,3.49143153 C15.4341638,3.49143153 18.2542961,6.31156385 18.2542961,9.79032796 C18.2542961,13.0021567 15.8490096,15.646927 12.74248,16.0351408 L12.7422752,16.0351408 Z M12.7925688,8.6626233 L11.7866957,6.6244498 L10.7808225,8.6626233 L8.53143617,8.98958329 L10.1592708,10.5760358 L9.77494941,12.8162033 L11.7866957,11.7585001 L13.798442,12.8162033 L13.4141206,10.5760358 L15.0417503,8.98958329 L12.7925688,8.6626233 Z M17.4346426,19.9006846 L16.0200695,22.1236438 L13.1622426,16.6519807 C14.7361984,16.3829967 16.1335632,15.6010379 17.1795893,14.4814663 L20.0671212,20.0098762 L17.4346426,19.9006846 Z M7.89032009,22.1236438 L6.47574696,19.9006846 L3.84326837,20.0098762 L6.73080033,14.4814663 C7.77682646,15.6010379 9.17419116,16.3829967 10.748147,16.6519807 L7.89032009,22.1236438 Z" id="Combined-Shape" fill="#000000" mask="url(#mask-2)"></path>
        </g>
    </g>
</svg>