<svg xmlns="http://www.w3.org/2000/svg" width="400" height="399"><g fill="none"><rect width="400" height="399" fill="#1B69AF"/><path fill="#7DA65C" d="M400 46.28C341.2 37.6 56.4 147.73 0 95.46V399h398.8s.4-4.2 1.2-11.57V46.28z"/><path fill="#505360" d="M400 71.52V54.86h-1.2C330.9 55.66 164 111.42 0 192.42V399h398.8S300.3 71.52 400 71.52z"/><path fill="#7D98CA" d="M292.7 398.3H108.2c-1.5 0-2.8-1.2-2.8-2.8V65.94c0-1.5 1.2-2.8 2.8-2.8h184.5c1.5 0 2.8 1.2 2.8 2.8V395.6c-.1 1.5-1.3 2.7-2.8 2.7z"/><path fill="#4F4F4F" d="M205.2 45.8c2.4 0 4.2 1.98 4.2 4.47 0 2.9-1.7 4.5-4.6 4.5-2.9 0-4.5-1.6-4.4-4.6.1-2.6 2.1-4.38 4.8-4.38z"/><path fill="#000" d="M105.4 353.32v42.7c0 1.5 1.2 2.78 2.8 2.78h184.5c1.5 0 2.8-1.2 2.8-2.8v-42.68H105.4z"/><path fill="#2E6A89" d="M105.4 87.68V65.93c0-1.5 1.2-2.8 2.8-2.8h184.5c1.5 0 2.8 1.2 2.8 2.8v21.75H105.4z"/><rect width="180" height="49.88" x="110.4" y="145.74" fill="#F7F8F8"/><rect width="180" height="49.88" x="110.4" y="205.29" fill="#F7F8F8"/><rect width="180" height="49.88" x="110.4" y="264.74" fill="#0C1A35"/><rect width="180" height="28.93" x="110.4" y="324.29" fill="#F7F8F8"/><path fill="#F7F8F8" d="M131 112.52h-7.3c-1 0-1.6-.2-1.6-1.4 0-1.1.7-1.3 1.6-1.3h14.6c1 0 1.6.3 1.6 1.4 0 1.1-.7 1.3-1.6 1.3H131zm.2 2.18h7.1c.9 0 1.6 0 1.6 1.2 0 1-.5 1.5-1.5 1.5h-14.5c-1.2 0-1.8-.6-1.8-1.7 0-1.2 1.1-1 1.9-1h7.2zm0 7.3h-7.3c-.8 0-1.7 0-1.7-1.2s.8-1.2 1.7-1.2h14.6c.8 0 1.5.1 1.5 1.2 0 1-.5 1.3-1.4 1.3-2.5-.1-4.9-.1-7.4-.1zm142.5-7.3c0 3.9-2.6 6.6-6.5 6.5-3.7 0-6.7-2.9-6.6-6.3 0-3.68 3.1-6.67 6.7-6.77 3.4 0 6.8 3.5 6.4 6.58z"/><path fill="#1F8450" d="M144.4 179.25c-.2.9-.9.5-1.4.3-2.6-1-5.2-1.9-7.8-3-1.4-.6-2.7-.6-4.1.1-2.3 1-4.7 1.9-7 2.8-.4.2-.9.6-1.3.2-.5-.4-.1-.9.1-1.3 3.3-6.48 6.5-12.96 9.8-19.45.5-1 1-1.2 1.5-.1 3.4 6.7 6.7 13.37 10.1 20.05-.1 0 0 .1.1.4z"/><path fill="#F56150" d="M264.4 304.14c-8.2.1-15-6.68-15.1-14.96-.1-8.08 6.6-14.77 15-14.97 8.1-.2 14.8 6.5 15 14.9.2 8.3-6.3 15-14.9 15.1zm-4-15.16v5.08c0 1.3.3 1.9 1.6 1 2.6-1.7 5.1-3.3 7.7-4.9 1-.68 1.1-1.18 0-1.88-2.7-1.7-5.4-3.4-8-5.1-1.1-.7-1.3-.1-1.3.8v5z"/><path fill="#F7F8F8" d="M264.8 231.22c2 0 4.3.5 6.4 1.7 2.1 1.2 2.3 2.7.6 4.4-4 4.28-11.6 4.08-15.4-.4-1-1.2-.9-2.2.2-3.2 2.2-2 4.9-2.5 8.2-2.5zm3.5-6.58c0 2.4-1.6 4.1-3.9 4.1-2.2 0-4.1-1.8-4.1-4s2-4.1 4.2-4.1c2.2.1 3.8 1.8 3.8 4z"/><path fill="#232222" d="M260.4 288.98v-5.1c0-.9.3-1.5 1.3-.8 2.7 1.7 5.4 3.4 8 5.1 1.1.7 1 1.3 0 1.9-2.6 1.6-5.2 3.3-7.7 4.88-1.3.9-1.6.2-1.6-1 .1-1.6 0-3.3 0-4.98z"/><path fill="#1F8450" d="M261.4 166.38c0 1.1-.9 2-2 2h-100c-1.1 0-2-.9-2-2v-4c0-1.08.9-1.98 2-1.98h100c1.1 0 2 .9 2 2v3.98z"/><path fill="#A2A2A2" d="M198.5 177.96c0 1.1-.9 2-2 2h-37c-1.1 0-2-.9-2-2v-2c0-1.1.9-2 2-2h37c1.1 0 2 .9 2 2v2z"/><path fill="#FEB40C" d="M224.9 343.14c0 1.1-.9 2-2 2h-63.5c-1.1 0-2-.9-2-2v-4c0-1.1.9-1.98 2-1.98h63.5c1.1 0 2 .9 2 2v3.98zm-40.8 8.68c0 .5-.9 1-2 1h-22.6c-1.1 0-2-.5-2-1 0-.6.9-1 2-1h22.6c1.1 0 2 .4 2 1z"/><path fill="#F7F8F8" d="M221.8 285.5c0 1.08-.9 1.98-2 1.98h-90c-1.1 0-2-.9-2-2v-3.98c0-1.1.9-2 2-2h90c1.1 0 2 .9 2 2v4z"/><path fill="#A07E9D" d="M188.8 297.16c0 1.1-.9 2-2 2h-57c-1.1 0-2-.9-2-2v-2c0-1.1.9-2 2-2h57c1.1 0 2 .9 2 2v2z"/><path fill="#A2A2A2" d="M224.9 225.44c0 1.1-.9 2-2 2h-63.5c-1.1 0-2-.9-2-2v-4c0-1.1.9-2 2-2h63.5c1.1 0 2 .9 2 2v4zm-36.6 11.86c0 1.1-.9 2-2 2h-26.8c-1.1 0-2-.9-2-2v-2c0-1.1.9-1.98 2-1.98h26.8c1.1 0 2 .9 2 2v2z"/><path fill="#FEB40C" d="M281.1 230.42c.1 9.18-6.8 16.16-16.1 16.36-8.7.2-16.4-7.28-16.4-16.06-.1-8.97 7.2-16.46 16.2-16.56 8.8 0 16.2 7.2 16.3 16.26zm-15.8.8c-3.3 0-6 .5-8.2 2.5-1.1 1-1.2 2-.2 3.2 3.8 4.48 11.3 4.78 15.4.4 1.6-1.7 1.5-3.2-.6-4.4-2.1-1.2-4.4-1.7-6.4-1.7zm3.5-6.58c0-2.2-1.7-3.9-3.8-4-2.3 0-4.3 1.9-4.2 4.1 0 2.1 1.9 4 4.1 4 2.3 0 3.9-1.7 3.9-4.1z"/><path fill="#A07E9D" d="M127.1 220.25c2.9 0 2.7 0 3.3 2.8.4 2.1.5 3.78-1.4 5.18-.8.6-.4 1.5.1 2.2 1.3 2 3 3.58 5.1 4.88 1.1.7 1.6 0 2.3-.6 1.3-1.1 5.9-1.6 7-.4 1.3 1.4.7 3.2.5 4.9-.2 1.2-1.4 1.1-2.3 1.1-9.1 0-17.8-8.6-17.8-17.8-.1-2.1.1-2.2 3.2-2.2z"/><path fill="#A2A2A2" d="M140.4 353.22l-6.3-12.57c-.5-1.1-1-.8-1.5.1-2.1 4.2-4.2 8.28-6.3 12.47h14.1z"/><path fill="#A07E9D" d="M278.5 353.22c.5-1.6.8-3.3.8-5.1-.2-8.37-6.9-14.95-15-14.85-8.3.2-15.1 6.88-15 14.96 0 1.7.3 3.4.9 4.9h28.3v.1z"/><path fill="#4F4F4F" d="M226.6 394.4h-47.4c-5.2 0-9.7-1.88-13.3-5.57-5.3-5.3-6.8-13.47-3.7-20.25 3.3-7.18 9.1-10.97 17-11.07 31.6-.1 63.3 0 94.9 0 8.6 0 15.9 5.7 18.1 14 2 7.8-1.5 16.1-8.4 20.3-2.9 1.8-6.1 2.6-9.5 2.6-16 .1-31.9.1-47.7.1z"/><path fill="#B1B1B1" d="M263.5 378.35v-2.8c.1-4.38 3.6-7.87 8-7.87 4.5 0 8 3.4 8 7.78v6.2c0 1.58-.9 2.58-2.5 2.78-2.9.4-2.9.4-2.9-2.5v-3.8c0-.68.2-.88.9-.78h2.1c.4 0 .6-.1.6-.5.2-4-1.7-6.8-5.5-7.28-3.3-.5-6.5 2-6.8 5.28-.3 2.6-.3 2.6 2.3 2.6 1.2 0 1.2 0 1.2 1.3v4.98c0 .6-.2.9-.9.9-.8 0-1.6 0-2.4-.1-1.3-.2-2.2-1.2-2.2-2.5.1-1.3.1-2.5.1-3.7zm-29.3 3c0 2.4 0 2.5-2.4 2.2-7-.6-12.7-6.8-12.8-13.67 0-1 .3-1.3 1.3-1.4h2.2c.8 0 1.2.4 1.2 1.2 0 .8.1 1.6.4 2.4.2.5.1 1-.3 1.3-.2.1-.3.3-.4.4-1.3 1.28-1.3 1.28-.2 2.78 1.1 1.5 2.4 2.7 3.9 3.6.5.3.8.3 1.1-.2 1-1.4 2.2-1.9 3.8-1.2h.2c2 .5 2 .5 2 2.6zm-44.3-6l-7.2-7.17c-.5-.5-1-.5-1.5 0l-7.2 7.18c-.5.5-.5 1.1 0 1.6l7.2 7.18c.5.5 1 .5 1.5 0l7.2-7.18c.2-.2.4-.4.4-.8s-.2-.6-.4-.8zm-3.2-.2l-2.8 2.8v-.7c0-1.7.2-1.6-1.6-1.6-2 0-2.1 0-2.1 2 0 .8-.4.8-1 .8s-.9-.1-.9-.8v-2.6c0-.9.3-1.2 1.3-1.3h3.3c.8 0 1.1-.2 1-1 0-.4-.2-.9.2-1.1.3-.1.6.4.8.7.6.6 1.2 1.3 1.8 1.9.2.4.3.6 0 .9z"/><path fill="#FEFEFE" d="M132.9 369.28c-3.7 0-6.9 3.1-6.9 6.88-.1 3.7 3.1 6.88 6.9 6.98 3.7.1 7-3.1 7-6.88-.1-3.8-3.3-6.98-7-6.98zm-.1 11.87c-2.8 0-5-2.3-5-5.1 0-2.78 2.3-4.98 5.1-4.98s5 2.3 5 5.1c0 2.78-2.3 4.98-5.1 4.98z"/><path fill="#FFEC00" d="M345.8 73.22c-8.5 4-17.1 8.58-25.5 13.76l12.5 6c7.2-5.4 14.7-10.5 22.1-14.88l-9.1-4.88zm8.4-3.8l8 4.5c6.9-3.7 13.6-6.7 20-8.8l-4.1-3.67c-7.5 1.8-15.6 4.58-23.9 7.98zm44.6-10.87c-4.3 0-9 .5-14.1 1.5l4.6 3.1c3.3-.8 6.5-1.3 9.5-1.5.4 0 .8-.1 1.2-.1v-2.9c-.7-.1-1.2-.1-1.2-.1zm-89.1 35.22c-.9.6-1.8 1.3-2.7 1.9v19.54c4.9-4.8 10.2-9.7 15.8-14.4l-13.1-7z"/><polygon fill="#FFEC00" points="93 262.44 67.5 291.77 93 297.66"/><polygon fill="#FFEC00" points="0 399 35.6 399 85 325.19 49.9 315.61 0 372.87"/><path fill="#2B2C2D" d="M108.2 398.8c-1.5 0-2.8-1.2-2.8-2.8V66.44c0-1.5 1.2-2.8 2.8-2.8h184.5c1.5 0 2.8 1.2 2.8 2.8V396c0 1.5-1.2 2.8-2.8 2.8H307V49.88c0-9.58-7.8-17.36-17.4-17.36H110.4c-9.6 0-17.4 7.78-17.4 17.36V398.8h15.2z"/></g></svg>
