<svg xmlns="http://www.w3.org/2000/svg" width="358" height="370"><path fill="#A6A8AB" d="M0 344h357.9v26H0v-26z"/><path fill="#929497" d="M0 342h357.9v2H0v-2z"/><path fill="#D0D2D3" d="M335.7 355.4h9v2h-9v-2zm-18 0h9v2h-9v-2zm-18 0h9v2h-9v-2zm-18 0h9v2h-9v-2zm-18 0h9v2h-9v-2zm-18 0h9v2h-9v-2zm-18 0h9v2h-9v-2zm-18 0h9v2h-9v-2zm-18 0h9v2h-9v-2zm-18 0h9v2h-9v-2zm-107.6 0h9v2h-9v-2zm-18 0h9v2h-9v-2zm-18 0h9v2h-9v-2zm-18 0h9v2h-9v-2zm126 0h9v2h-9v-2zm-18 0h9v2h-9v-2zm36 0h9v2h-9v-2zm-54 0h9v2h-9v-2zm-18 0h9v2h-9v-2zm-84.1 0h3.1v2H0v-2zm353.7 0h4.2v2h-4.2v-2z"/><path fill="#95C8EC" d="M345.9 342V184h-57v38h-29v15h-52v-41h-12v-19h-130v49h-8v-17h-46v133h331"/><linearGradient id="a" gradientUnits="userSpaceOnUse" x1="317.409" y1="946" x2="317.409" y2="800" gradientTransform="translate(0 -616)"><stop offset="0" style="stop-color:#95c8ec;stop-opacity=0"/><stop offset=".229" style="stop-color:#90c4ea;stop-opacity=.229"/><stop offset=".522" style="stop-color:#80bae5;stop-opacity=.522"/><stop offset=".847" style="stop-color:#66a9dc;stop-opacity=.847"/><stop offset="1" style="stop-color:#57a0d7"/></linearGradient><path fill="url(#a)" d="M288.9 184h57v146h-57V184z"/><linearGradient id="b" gradientUnits="userSpaceOnUse" x1="233.909" y1="957" x2="233.909" y2="853" gradientTransform="translate(0 -616)"><stop offset="0" style="stop-color:#95c8ec;stop-opacity=0"/><stop offset=".185" style="stop-color:#8cc1e8;stop-opacity=.185"/><stop offset=".486" style="stop-color:#74aedd;stop-opacity=.486"/><stop offset=".863" style="stop-color:#4d8fcb;stop-opacity=.863"/><stop offset="1" style="stop-color:#3d82c4"/></linearGradient><path opacity=".6" fill="url(#b)" d="M208 341h51.9V237h-52"/><linearGradient id="c" gradientUnits="userSpaceOnUse" x1="130.909" y1="958" x2="130.909" y2="793" gradientTransform="translate(0 -616)"><stop offset="0" style="stop-color:#95c8ec;stop-opacity=0"/><stop offset=".285" style="stop-color:#92c6eb;stop-opacity=.285"/><stop offset=".522" style="stop-color:#88bfe8;stop-opacity=.522"/><stop offset=".741" style="stop-color:#76b4e2;stop-opacity=.741"/><stop offset=".949" style="stop-color:#5ea4da;stop-opacity=.949"/><stop offset="1" style="stop-color:#57a0d7"/></linearGradient><path fill="url(#c)" d="M65.9 177h130v165h-130V177z"/><linearGradient id="d" gradientUnits="userSpaceOnUse" x1="34.909" y1="958" x2="34.909" y2="825" gradientTransform="translate(0 -616)"><stop offset="0" style="stop-color:#95c8ec;stop-opacity=0"/><stop offset=".622" style="stop-color:#70b0e0;stop-opacity=.622"/><stop offset="1" style="stop-color:#57a0d7"/></linearGradient><path fill="url(#d)" d="M11.9 209h46v133h-46V209z"/><linearGradient id="e" gradientUnits="userSpaceOnUse" x1="167.659" y1="908.75" x2="236.159" y2="840.25" gradientTransform="translate(0 -616)"><stop offset="0" style="stop-color:#95c8ec;stop-opacity=0"/><stop offset=".236" style="stop-color:#83bce6;stop-opacity=.236"/><stop offset=".728" style="stop-color:#63a8db;stop-opacity=.728"/><stop offset="1" style="stop-color:#57a0d7"/></linearGradient><path fill="url(#e)" d="M195.9 196h12v125h-12V196z"/><linearGradient id="f" gradientUnits="userSpaceOnUse" x1="35.659" y1="916.75" x2="88.159" y2="864.25" gradientTransform="translate(0 -616)"><stop offset="0" style="stop-color:#95c8ec;stop-opacity=0"/><stop offset=".241" style="stop-color:#91c5eb;stop-opacity=.241"/><stop offset=".508" style="stop-color:#83bce6;stop-opacity=.508"/><stop offset=".785" style="stop-color:#6daedf;stop-opacity=.785"/><stop offset="1" style="stop-color:#57a0d7"/></linearGradient><path fill="url(#f)" d="M57.9 226h8v97h-8v-97z"/><linearGradient id="g" gradientUnits="userSpaceOnUse" x1="242.909" y1="918" x2="305.909" y2="855" gradientTransform="translate(0 -616)"><stop offset="0" style="stop-color:#95c8ec;stop-opacity=0"/><stop offset=".616" style="stop-color:#70b0e0;stop-opacity=.616"/><stop offset="1" style="stop-color:#57a0d7"/></linearGradient><path fill="url(#g)" d="M259.9 222h29v97h-29v-97z"/><path fill="#F37046" d="M181.9 342h-106V137H182"/><path fill="#F47E59" d="M76 304h106v2H76v-2z"/><g opacity=".3"><linearGradient id="h" gradientUnits="userSpaceOnUse" x1="217.509" y1="868" x2="217.509" y2="861" gradientTransform="translate(0 -616)"><stop offset="0" style="stop-color:#95c8ec"/><stop offset=".3" style="stop-color:#9bcbed"/><stop offset=".696" style="stop-color:#acd4f1"/><stop offset="1" style="stop-color:#bdddf4"/></linearGradient><path fill="url(#h)" d="M216 245h3v7h-3v-7z"/><linearGradient id="i" gradientUnits="userSpaceOnUse" x1="234.509" y1="868" x2="234.509" y2="861" gradientTransform="translate(0 -616)"><stop offset="0" style="stop-color:#95c8ec"/><stop offset=".3" style="stop-color:#9bcbed"/><stop offset=".696" style="stop-color:#acd4f1"/><stop offset="1" style="stop-color:#bdddf4"/></linearGradient><path fill="url(#i)" d="M233 245h3v7h-3v-7z"/><linearGradient id="j" gradientUnits="userSpaceOnUse" x1="250.509" y1="868" x2="250.509" y2="861" gradientTransform="translate(0 -616)"><stop offset="0" style="stop-color:#95c8ec"/><stop offset=".3" style="stop-color:#9bcbed"/><stop offset=".696" style="stop-color:#acd4f1"/><stop offset="1" style="stop-color:#bdddf4"/></linearGradient><path fill="url(#j)" d="M249 245h3v7h-3v-7z"/><linearGradient id="k" gradientUnits="userSpaceOnUse" x1="234.509" y1="881" x2="234.509" y2="874" gradientTransform="translate(0 -616)"><stop offset="0" style="stop-color:#95c8ec"/><stop offset=".3" style="stop-color:#9bcbed"/><stop offset=".696" style="stop-color:#acd4f1"/><stop offset="1" style="stop-color:#bdddf4"/></linearGradient><path fill="url(#k)" d="M233 258h3v7h-3v-7z"/><linearGradient id="l" gradientUnits="userSpaceOnUse" x1="250.509" y1="881" x2="250.509" y2="874" gradientTransform="translate(0 -616)"><stop offset="0" style="stop-color:#95c8ec"/><stop offset=".3" style="stop-color:#9bcbed"/><stop offset=".696" style="stop-color:#acd4f1"/><stop offset="1" style="stop-color:#bdddf4"/></linearGradient><path fill="url(#l)" d="M249 258h3v7h-3v-7z"/></g><g opacity=".75"><g opacity=".4"><linearGradient id="m" gradientUnits="userSpaceOnUse" x1="268.009" y1="849" x2="268.009" y2="845" gradientTransform="translate(0 -616)"><stop offset="0" style="stop-color:#95c8ec"/><stop offset=".3" style="stop-color:#9bcbed"/><stop offset=".696" style="stop-color:#acd4f1"/><stop offset="1" style="stop-color:#bdddf4"/></linearGradient><path fill="url(#m)" d="M266 229h4v4h-4v-4z"/><linearGradient id="n" gradientUnits="userSpaceOnUse" x1="281.009" y1="849" x2="281.009" y2="845" gradientTransform="translate(0 -616)"><stop offset="0" style="stop-color:#95c8ec"/><stop offset=".3" style="stop-color:#9bcbed"/><stop offset=".696" style="stop-color:#acd4f1"/><stop offset="1" style="stop-color:#bdddf4"/></linearGradient><path fill="url(#n)" d="M279 229h4v4h-4v-4z"/></g><g opacity=".4"><linearGradient id="o" gradientUnits="userSpaceOnUse" x1="281.009" y1="859" x2="281.009" y2="855" gradientTransform="translate(0 -616)"><stop offset="0" style="stop-color:#95c8ec"/><stop offset=".3" style="stop-color:#9bcbed"/><stop offset=".696" style="stop-color:#acd4f1"/><stop offset="1" style="stop-color:#bdddf4"/></linearGradient><path fill="url(#o)" d="M279 239h4v4h-4v-4z"/></g><g opacity=".4"><linearGradient id="p" gradientUnits="userSpaceOnUse" x1="268.009" y1="869" x2="268.009" y2="865" gradientTransform="translate(0 -616)"><stop offset="0" style="stop-color:#95c8ec"/><stop offset=".3" style="stop-color:#9bcbed"/><stop offset=".696" style="stop-color:#acd4f1"/><stop offset="1" style="stop-color:#bdddf4"/></linearGradient><path fill="url(#p)" d="M266 249h4v4h-4v-4z"/><linearGradient id="q" gradientUnits="userSpaceOnUse" x1="281.009" y1="869" x2="281.009" y2="865" gradientTransform="translate(0 -616)"><stop offset="0" style="stop-color:#95c8ec"/><stop offset=".3" style="stop-color:#9bcbed"/><stop offset=".696" style="stop-color:#acd4f1"/><stop offset="1" style="stop-color:#bdddf4"/></linearGradient><path fill="url(#q)" d="M279 249h4v4h-4v-4z"/></g><g opacity=".4"><linearGradient id="r" gradientUnits="userSpaceOnUse" x1="268.009" y1="879" x2="268.009" y2="875" gradientTransform="translate(0 -616)"><stop offset="0" style="stop-color:#95c8ec"/><stop offset=".3" style="stop-color:#9bcbed"/><stop offset=".696" style="stop-color:#acd4f1"/><stop offset="1" style="stop-color:#bdddf4"/></linearGradient><path fill="url(#r)" d="M266 259h4v4h-4v-4z"/><linearGradient id="s" gradientUnits="userSpaceOnUse" x1="281.009" y1="879" x2="281.009" y2="875" gradientTransform="translate(0 -616)"><stop offset="0" style="stop-color:#95c8ec"/><stop offset=".3" style="stop-color:#9bcbed"/><stop offset=".696" style="stop-color:#acd4f1"/><stop offset="1" style="stop-color:#bdddf4"/></linearGradient><path fill="url(#s)" d="M279 259h4v4h-4v-4z"/></g></g><g opacity=".25"><path fill="#BDDDF4" d="M61.9 231h3v5h-3v-5zm0 18h3v5h-3v-5zm0 9h3v5h-3v-5zM57.9 231h2v5h-2v-5zm0 9h2v5h-2v-5zm0 9h2v5h-2v-5z"/></g><path fill="#BDDDF4" d="M195.9 206h5v8h-5v-8zm0 19h5v8h-5v-8zm0 19h5v8h-5v-8zm0 18h5v8h-5v-8z" opacity=".15"/><g opacity=".4"><linearGradient id="t" gradientUnits="userSpaceOnUse" x1="74.409" y1="810" x2="74.409" y2="803" gradientTransform="translate(0 -616)"><stop offset="0" style="stop-color:#95c8ec"/><stop offset=".3" style="stop-color:#9bcbed"/><stop offset=".696" style="stop-color:#acd4f1"/><stop offset="1" style="stop-color:#bdddf4"/></linearGradient><path fill="url(#t)" d="M72.9 187h3v7h-3v-7z"/><linearGradient id="u" gradientUnits="userSpaceOnUse" x1="74.409" y1="827" x2="74.409" y2="820" gradientTransform="translate(0 -616)"><stop offset="0" style="stop-color:#95c8ec"/><stop offset=".3" style="stop-color:#9bcbed"/><stop offset=".696" style="stop-color:#acd4f1"/><stop offset="1" style="stop-color:#bdddf4"/></linearGradient><path fill="url(#u)" d="M72.9 204h3v7h-3v-7z"/><linearGradient id="v" gradientUnits="userSpaceOnUse" x1="74.409" y1="844" x2="74.409" y2="837" gradientTransform="translate(0 -616)"><stop offset="0" style="stop-color:#95c8ec"/><stop offset=".3" style="stop-color:#9bcbed"/><stop offset=".696" style="stop-color:#acd4f1"/><stop offset="1" style="stop-color:#bdddf4"/></linearGradient><path fill="url(#v)" d="M72.9 221h3v7h-3v-7z"/><linearGradient id="w" gradientUnits="userSpaceOnUse" x1="74.409" y1="878" x2="74.409" y2="871" gradientTransform="translate(0 -616)"><stop offset="0" style="stop-color:#95c8ec"/><stop offset=".3" style="stop-color:#9bcbed"/><stop offset=".696" style="stop-color:#acd4f1"/><stop offset="1" style="stop-color:#bdddf4"/></linearGradient><path fill="url(#w)" d="M72.9 255h3v7h-3v-7z"/><linearGradient id="x" gradientUnits="userSpaceOnUse" x1="184.959" y1="810" x2="184.959" y2="803" gradientTransform="translate(0 -616)"><stop offset="0" style="stop-color:#95c8ec"/><stop offset=".3" style="stop-color:#9bcbed"/><stop offset=".696" style="stop-color:#acd4f1"/><stop offset="1" style="stop-color:#bdddf4"/></linearGradient><path fill="url(#x)" d="M182 187h5.9v7H182v-7z"/><linearGradient id="y" gradientUnits="userSpaceOnUse" x1="184.959" y1="844" x2="184.959" y2="837" gradientTransform="translate(0 -616)"><stop offset="0" style="stop-color:#95c8ec"/><stop offset=".3" style="stop-color:#9bcbed"/><stop offset=".696" style="stop-color:#acd4f1"/><stop offset="1" style="stop-color:#bdddf4"/></linearGradient><path fill="url(#y)" d="M182 221h5.9v7H182v-7z"/><linearGradient id="z" gradientUnits="userSpaceOnUse" x1="184.959" y1="861" x2="184.959" y2="854" gradientTransform="translate(0 -616)"><stop offset="0" style="stop-color:#95c8ec"/><stop offset=".3" style="stop-color:#9bcbed"/><stop offset=".696" style="stop-color:#acd4f1"/><stop offset="1" style="stop-color:#bdddf4"/></linearGradient><path fill="url(#z)" d="M182 238h5.9v7H182v-7z"/><linearGradient id="A" gradientUnits="userSpaceOnUse" x1="184.909" y1="878" x2="184.909" y2="871" gradientTransform="translate(0 -616)"><stop offset="0" style="stop-color:#95c8ec"/><stop offset=".3" style="stop-color:#9bcbed"/><stop offset=".696" style="stop-color:#acd4f1"/><stop offset="1" style="stop-color:#bdddf4"/></linearGradient><path fill="url(#A)" d="M181.9 255h6v7h-6v-7z"/></g><linearGradient id="B" gradientUnits="userSpaceOnUse" x1="129.009" y1="922" x2="129.009" y2="938" gradientTransform="translate(0 -616)"><stop offset="0" style="stop-color:#f05323"/><stop offset=".326" style="stop-color:#f15829;stop-opacity=.674"/><stop offset=".756" style="stop-color:#f2653a;stop-opacity=.244"/><stop offset="1" style="stop-color:#f37046;stop-opacity=0"/></linearGradient><path fill="url(#B)" d="M76 306h106v16l-90.6-.4"/><linearGradient id="C" gradientUnits="userSpaceOnUse" x1="301.009" y1="845" x2="301.009" y2="835" gradientTransform="translate(0 -616)"><stop offset="0" style="stop-color:#95c8ec"/><stop offset=".3" style="stop-color:#9bcbed"/><stop offset=".696" style="stop-color:#acd4f1"/><stop offset="1" style="stop-color:#bdddf4"/></linearGradient><path opacity=".4" fill="url(#C)" d="M298 219h6v10h-6v-10z"/><linearGradient id="D" gradientUnits="userSpaceOnUse" x1="317.009" y1="845" x2="317.009" y2="835" gradientTransform="translate(0 -616)"><stop offset="0" style="stop-color:#95c8ec"/><stop offset=".3" style="stop-color:#9bcbed"/><stop offset=".696" style="stop-color:#acd4f1"/><stop offset="1" style="stop-color:#bdddf4"/></linearGradient><path opacity=".4" fill="url(#D)" d="M314 219h6v10h-6v-10z"/><linearGradient id="E" gradientUnits="userSpaceOnUse" x1="317.009" y1="869" x2="317.009" y2="859" gradientTransform="translate(0 -616)"><stop offset="0" style="stop-color:#95c8ec"/><stop offset=".3" style="stop-color:#9bcbed"/><stop offset=".696" style="stop-color:#acd4f1"/><stop offset="1" style="stop-color:#bdddf4"/></linearGradient><path opacity=".4" fill="url(#E)" d="M314 243h6v10h-6v-10z"/><linearGradient id="F" gradientUnits="userSpaceOnUse" x1="301.009" y1="821.5" x2="301.009" y2="811.5" gradientTransform="translate(0 -616)"><stop offset="0" style="stop-color:#95c8ec"/><stop offset=".3" style="stop-color:#9bcbed"/><stop offset=".696" style="stop-color:#acd4f1"/><stop offset="1" style="stop-color:#bdddf4"/></linearGradient><path opacity=".4" fill="url(#F)" d="M298 195.5h6v10h-6v-10z"/><linearGradient id="G" gradientUnits="userSpaceOnUse" x1="317.009" y1="821.5" x2="317.009" y2="811.5" gradientTransform="translate(0 -616)"><stop offset="0" style="stop-color:#95c8ec"/><stop offset=".3" style="stop-color:#9bcbed"/><stop offset=".696" style="stop-color:#acd4f1"/><stop offset="1" style="stop-color:#bdddf4"/></linearGradient><path opacity=".4" fill="url(#G)" d="M314 195.5h6v10h-6v-10z"/><linearGradient id="H" gradientUnits="userSpaceOnUse" x1="301.009" y1="893" x2="301.009" y2="883" gradientTransform="translate(0 -616)"><stop offset="0" style="stop-color:#95c8ec"/><stop offset=".3" style="stop-color:#9bcbed"/><stop offset=".696" style="stop-color:#acd4f1"/><stop offset="1" style="stop-color:#bdddf4"/></linearGradient><path opacity=".4" fill="url(#H)" d="M298 267h6v10h-6v-10z"/><linearGradient id="I" gradientUnits="userSpaceOnUse" x1="317.009" y1="893" x2="317.009" y2="883" gradientTransform="translate(0 -616)"><stop offset="0" style="stop-color:#95c8ec"/><stop offset=".3" style="stop-color:#9bcbed"/><stop offset=".696" style="stop-color:#acd4f1"/><stop offset="1" style="stop-color:#bdddf4"/></linearGradient><path opacity=".4" fill="url(#I)" d="M314 267h6v10h-6v-10z"/><linearGradient id="J" gradientUnits="userSpaceOnUse" x1="333.009" y1="845" x2="333.009" y2="835" gradientTransform="translate(0 -616)"><stop offset="0" style="stop-color:#95c8ec"/><stop offset=".3" style="stop-color:#9bcbed"/><stop offset=".696" style="stop-color:#acd4f1"/><stop offset="1" style="stop-color:#bdddf4"/></linearGradient><path opacity=".4" fill="url(#J)" d="M330 219h6v10h-6v-10z"/><linearGradient id="K" gradientUnits="userSpaceOnUse" x1="333.009" y1="869" x2="333.009" y2="859" gradientTransform="translate(0 -616)"><stop offset="0" style="stop-color:#95c8ec"/><stop offset=".3" style="stop-color:#9bcbed"/><stop offset=".696" style="stop-color:#acd4f1"/><stop offset="1" style="stop-color:#bdddf4"/></linearGradient><path opacity=".4" fill="url(#K)" d="M330 243h6v10h-6v-10z"/><linearGradient id="L" gradientUnits="userSpaceOnUse" x1="333.009" y1="821.5" x2="333.009" y2="811.5" gradientTransform="translate(0 -616)"><stop offset="0" style="stop-color:#95c8ec"/><stop offset=".3" style="stop-color:#9bcbed"/><stop offset=".696" style="stop-color:#acd4f1"/><stop offset="1" style="stop-color:#bdddf4"/></linearGradient><path opacity=".4" fill="url(#L)" d="M330 195.5h6v10h-6v-10z"/><path fill="#F47E59" d="M74.9 132h108v5h-108v-5z"/><linearGradient id="M" gradientUnits="userSpaceOnUse" x1="128.959" y1="753" x2="128.959" y2="777.5" gradientTransform="translate(0 -616)"><stop offset="0" style="stop-color:#f05323"/><stop offset=".326" style="stop-color:#f15829;stop-opacity=.674"/><stop offset=".756" style="stop-color:#f2653a;stop-opacity=.244"/><stop offset="1" style="stop-color:#f37046;stop-opacity=0"/></linearGradient><path fill="url(#M)" d="M75.9 137h106l.1 24.5H99.5L75.9 138"/><g opacity=".6"><linearGradient id="N" gradientUnits="userSpaceOnUse" x1="90.909" y1="775" x2="90.909" y2="762" gradientTransform="translate(0 -616)"><stop offset="0" style="stop-color:#f05323"/><stop offset="1" style="stop-color:#d74527"/></linearGradient><path fill="url(#N)" d="M86.9 146h8v13h-8v-13z"/><linearGradient id="O" gradientUnits="userSpaceOnUse" x1="115.909" y1="775" x2="115.909" y2="762" gradientTransform="translate(0 -616)"><stop offset="0" style="stop-color:#f05323"/><stop offset="1" style="stop-color:#d74527"/></linearGradient><path fill="url(#O)" d="M111.9 146h8v13h-8v-13z"/><linearGradient id="P" gradientUnits="userSpaceOnUse" x1="140.909" y1="775" x2="140.909" y2="762" gradientTransform="translate(0 -616)"><stop offset="0" style="stop-color:#f05323"/><stop offset="1" style="stop-color:#d74527"/></linearGradient><path fill="url(#P)" d="M136.9 146h8v13h-8v-13z"/><linearGradient id="Q" gradientUnits="userSpaceOnUse" x1="90.909" y1="798" x2="90.909" y2="785" gradientTransform="translate(0 -616)"><stop offset="0" style="stop-color:#f05323"/><stop offset="1" style="stop-color:#d74527"/></linearGradient><path fill="url(#Q)" d="M86.9 169h8v13h-8v-13z"/><linearGradient id="R" gradientUnits="userSpaceOnUse" x1="115.909" y1="798" x2="115.909" y2="785" gradientTransform="translate(0 -616)"><stop offset="0" style="stop-color:#f05323"/><stop offset="1" style="stop-color:#d74527"/></linearGradient><path fill="url(#R)" d="M111.9 169h8v13h-8v-13z"/><linearGradient id="S" gradientUnits="userSpaceOnUse" x1="140.909" y1="798" x2="140.909" y2="785" gradientTransform="translate(0 -616)"><stop offset="0" style="stop-color:#f05323"/><stop offset="1" style="stop-color:#d74527"/></linearGradient><path fill="url(#S)" d="M136.9 169h8v13h-8v-13z"/><linearGradient id="T" gradientUnits="userSpaceOnUse" x1="90.909" y1="822" x2="90.909" y2="809" gradientTransform="translate(0 -616)"><stop offset="0" style="stop-color:#f05323"/><stop offset="1" style="stop-color:#d74527"/></linearGradient><path fill="url(#T)" d="M86.9 193h8v13h-8v-13z"/><linearGradient id="U" gradientUnits="userSpaceOnUse" x1="115.909" y1="822" x2="115.909" y2="809" gradientTransform="translate(0 -616)"><stop offset="0" style="stop-color:#f05323"/><stop offset="1" style="stop-color:#d74527"/></linearGradient><path fill="url(#U)" d="M111.9 193h8v13h-8v-13z"/><linearGradient id="V" gradientUnits="userSpaceOnUse" x1="140.909" y1="822" x2="140.909" y2="809" gradientTransform="translate(0 -616)"><stop offset="0" style="stop-color:#f05323"/><stop offset="1" style="stop-color:#d74527"/></linearGradient><path fill="url(#V)" d="M136.9 193h8v13h-8v-13z"/><linearGradient id="W" gradientUnits="userSpaceOnUse" x1="167.909" y1="775" x2="167.909" y2="762" gradientTransform="translate(0 -616)"><stop offset="0" style="stop-color:#f05323"/><stop offset="1" style="stop-color:#d74527"/></linearGradient><path fill="url(#W)" d="M163.9 146h8v13h-8v-13z"/><linearGradient id="X" gradientUnits="userSpaceOnUse" x1="167.909" y1="798" x2="167.909" y2="785" gradientTransform="translate(0 -616)"><stop offset="0" style="stop-color:#f05323"/><stop offset="1" style="stop-color:#d74527"/></linearGradient><path fill="url(#X)" d="M163.9 169h8v13h-8v-13z"/><linearGradient id="Y" gradientUnits="userSpaceOnUse" x1="167.909" y1="822" x2="167.909" y2="809" gradientTransform="translate(0 -616)"><stop offset="0" style="stop-color:#f05323"/><stop offset="1" style="stop-color:#d74527"/></linearGradient><path fill="url(#Y)" d="M163.9 193h8v13h-8v-13z"/></g><g opacity=".6"><linearGradient id="Z" gradientUnits="userSpaceOnUse" x1="90.909" y1="845" x2="90.909" y2="832" gradientTransform="translate(0 -616)"><stop offset="0" style="stop-color:#f05323"/><stop offset="1" style="stop-color:#d74527"/></linearGradient><path fill="url(#Z)" d="M86.9 216h8v13h-8v-13z"/><linearGradient id="aa" gradientUnits="userSpaceOnUse" x1="115.909" y1="845" x2="115.909" y2="832" gradientTransform="translate(0 -616)"><stop offset="0" style="stop-color:#f05323"/><stop offset="1" style="stop-color:#d74527"/></linearGradient><path fill="url(#aa)" d="M111.9 216h8v13h-8v-13z"/><linearGradient id="ab" gradientUnits="userSpaceOnUse" x1="140.909" y1="845" x2="140.909" y2="832" gradientTransform="translate(0 -616)"><stop offset="0" style="stop-color:#f05323"/><stop offset="1" style="stop-color:#d74527"/></linearGradient><path fill="url(#ab)" d="M136.9 216h8v13h-8v-13z"/><linearGradient id="ac" gradientUnits="userSpaceOnUse" x1="90.909" y1="868" x2="90.909" y2="855" gradientTransform="translate(0 -616)"><stop offset="0" style="stop-color:#f05323"/><stop offset="1" style="stop-color:#d74527"/></linearGradient><path fill="url(#ac)" d="M86.9 239h8v13h-8v-13z"/><linearGradient id="ad" gradientUnits="userSpaceOnUse" x1="115.909" y1="868" x2="115.909" y2="855" gradientTransform="translate(0 -616)"><stop offset="0" style="stop-color:#f05323"/><stop offset="1" style="stop-color:#d74527"/></linearGradient><path fill="url(#ad)" d="M111.9 239h8v13h-8v-13z"/><linearGradient id="ae" gradientUnits="userSpaceOnUse" x1="140.909" y1="868" x2="140.909" y2="855" gradientTransform="translate(0 -616)"><stop offset="0" style="stop-color:#f05323"/><stop offset="1" style="stop-color:#d74527"/></linearGradient><path fill="url(#ae)" d="M136.9 239h8v13h-8v-13z"/><linearGradient id="af" gradientUnits="userSpaceOnUse" x1="90.909" y1="892" x2="90.909" y2="879" gradientTransform="translate(0 -616)"><stop offset="0" style="stop-color:#f05323"/><stop offset="1" style="stop-color:#d74527"/></linearGradient><path fill="url(#af)" d="M86.9 263h8v13h-8v-13z"/><linearGradient id="ag" gradientUnits="userSpaceOnUse" x1="115.909" y1="892" x2="115.909" y2="879" gradientTransform="translate(0 -616)"><stop offset="0" style="stop-color:#f05323"/><stop offset="1" style="stop-color:#d74527"/></linearGradient><path fill="url(#ag)" d="M111.9 263h8v13h-8v-13z"/><linearGradient id="ah" gradientUnits="userSpaceOnUse" x1="140.909" y1="892" x2="140.909" y2="879" gradientTransform="translate(0 -616)"><stop offset="0" style="stop-color:#f05323"/><stop offset="1" style="stop-color:#d74527"/></linearGradient><path fill="url(#ah)" d="M136.9 263h8v13h-8v-13z"/><linearGradient id="ai" gradientUnits="userSpaceOnUse" x1="167.909" y1="845" x2="167.909" y2="832" gradientTransform="translate(0 -616)"><stop offset="0" style="stop-color:#f05323"/><stop offset="1" style="stop-color:#d74527"/></linearGradient><path fill="url(#ai)" d="M163.9 216h8v13h-8v-13z"/><linearGradient id="aj" gradientUnits="userSpaceOnUse" x1="167.909" y1="868" x2="167.909" y2="855" gradientTransform="translate(0 -616)"><stop offset="0" style="stop-color:#f05323"/><stop offset="1" style="stop-color:#d74527"/></linearGradient><path fill="url(#aj)" d="M163.9 239h8v13h-8v-13z"/><linearGradient id="ak" gradientUnits="userSpaceOnUse" x1="167.909" y1="892" x2="167.909" y2="879" gradientTransform="translate(0 -616)"><stop offset="0" style="stop-color:#f05323"/><stop offset="1" style="stop-color:#d74527"/></linearGradient><path fill="url(#ak)" d="M163.9 263h8v13h-8v-13z"/></g><g opacity=".75"><linearGradient id="al" gradientUnits="userSpaceOnUse" x1="26.009" y1="844" x2="26.009" y2="835" gradientTransform="translate(0 -616)"><stop offset="0" style="stop-color:#95c8ec"/><stop offset=".3" style="stop-color:#9bcbed"/><stop offset=".696" style="stop-color:#acd4f1"/><stop offset="1" style="stop-color:#bdddf4"/></linearGradient><path opacity=".4" fill="url(#al)" d="M24 219h4v9h-4v-9z"/><linearGradient id="am" gradientUnits="userSpaceOnUse" x1="43.009" y1="844" x2="43.009" y2="835" gradientTransform="translate(0 -616)"><stop offset="0" style="stop-color:#95c8ec"/><stop offset=".3" style="stop-color:#9bcbed"/><stop offset=".696" style="stop-color:#acd4f1"/><stop offset="1" style="stop-color:#bdddf4"/></linearGradient><path opacity=".4" fill="url(#am)" d="M41 219h4v9h-4v-9z"/><linearGradient id="an" gradientUnits="userSpaceOnUse" x1="26.009" y1="860" x2="26.009" y2="851" gradientTransform="translate(0 -616)"><stop offset="0" style="stop-color:#95c8ec"/><stop offset=".3" style="stop-color:#9bcbed"/><stop offset=".696" style="stop-color:#acd4f1"/><stop offset="1" style="stop-color:#bdddf4"/></linearGradient><path opacity=".4" fill="url(#an)" d="M24 235h4v9h-4v-9z"/><linearGradient id="ao" gradientUnits="userSpaceOnUse" x1="43.009" y1="860" x2="43.009" y2="851" gradientTransform="translate(0 -616)"><stop offset="0" style="stop-color:#95c8ec"/><stop offset=".3" style="stop-color:#9bcbed"/><stop offset=".696" style="stop-color:#acd4f1"/><stop offset="1" style="stop-color:#bdddf4"/></linearGradient><path opacity=".4" fill="url(#ao)" d="M41 235h4v9h-4v-9z"/><g><linearGradient id="ap" gradientUnits="userSpaceOnUse" x1="26.009" y1="876" x2="26.009" y2="867" gradientTransform="translate(0 -616)"><stop offset="0" style="stop-color:#95c8ec"/><stop offset=".3" style="stop-color:#9bcbed"/><stop offset=".696" style="stop-color:#acd4f1"/><stop offset="1" style="stop-color:#bdddf4"/></linearGradient><path opacity=".4" fill="url(#ap)" d="M24 251h4v9h-4v-9z"/></g></g><g opacity=".5" fill="#FFF"><path opacity=".5" d="M229 41.1c0-3.6-2.6-6.6-5.9-6.6-.6 0-1.1.1-1.7.2-1.4-6.3-6.1-10.9-11.7-10.9-5.1 0-9.4 2.7-11.2 8.2-1.3-.6-3.8-.5-6.1 0-5.1 1-8.5 5.1-8.9 10.1H229v-1z"/><path d="M229 41.1c0-3.6-2.6-6.6-5.9-6.6-.6 0-1.1.1-1.7.2-1.4-6.3-6.1-10.9-11.7-10.9-5.1 0-9.4 2.7-11.2 8.2-1.3-.6-3.8-.5-6.1 0-5.1 1-8.5 5.1-8.9 10.1H229v-1z"/></g><path opacity=".6" fill="#FFF" d="M329.7 67.8c0-5.5-4.1-9.9-9.2-9.9-.9 0-1.8.1-2.6.4-2.2-9.5-9.6-16.4-18.2-16.4-7.9 0-14.7 4-17.5 12.3-2.1-.8-6-.9-9.5-.2-7.9 1.6-13.3 7.6-14 15.1h71v-1.3z"/><path opacity=".75" fill="#FFF" d="M13.8 80.8c0-4.2 3.1-7.7 6.9-7.7.7 0 1.3 0 2 .2 1.7-7.3 7.1-12.6 13.5-12.6 5.9 0 10.9 3.1 13 9.4 1.6-.6 4.5-.4 7.1.1 5.9 1.2 9.9 5.3 10.4 11.8H13.9c-.1-1-.1-.9-.1-1.2z"/><path fill="#ED3E36" d="M128.8 55.4c10.4 0 18.8 8.4 18.8 18.8 0 14.2-15.8 21.6-17.7 41.8-.1.6-.5 1-1.1 1s-1.1-.4-1.1-1C125.8 95.8 110 88.4 110 74.2c0-10.4 8.5-18.8 18.8-18.8z"/><path fill="#3E2723" fill-opacity=".2" d="M127.7 115.5c.1.6.5 1 1.1 1s1.1-.4 1.1-1c1.9-20.1 17.5-27.5 17.7-41.6v.3c0 14.2-15.8 21.6-17.7 41.8-.1.6-.5 1-1.1 1s-1.1-.4-1.1-1C125.8 95.8 110 88.4 110 74.2v-.3c.2 14.1 15.9 21.5 17.7 41.6z"/><path fill="none" d="M128.8 55.4c10.4 0 18.8 8.4 18.8 18.8 0 14.2-15.8 21.6-17.7 41.8-.1.6-.5 1-1.1 1s-1.1-.4-1.1-1C125.8 95.8 110 88.4 110 74.2c0-10.4 8.5-18.8 18.8-18.8z"/><circle fill="#7B231E" cx="128.8" cy="74.2" r="6.6"/><path fill="#FFF" fill-opacity=".2" d="M128.8 55.9c-10.3 0-18.6 8.3-18.8 18.5v-.2c0-10.4 8.4-18.8 18.8-18.8s18.8 8.4 18.8 18.8v.2c-.1-10.3-8.5-18.5-18.8-18.5z"/><circle fill="none" cx="128.8" cy="74.2" r="6.6"/><path fill="#F05323" d="M112 316h33.5v25.5H112V316z"/><path fill="#F37046" d="M128.5 316h.5v25.5h-.5V316z"/><path fill="#F36E44" d="M273.5 328.7c-2.9-.8-6-1.7-7.2-2l-.4-.1c-.1 0-.8-1-1.4-2l-6-9.9c-.7-1.1-2.2-2-3.5-2h-27.1c-1.3 0-2.9.9-3.6 2l-5.5 8.6c-.7 1.1-1.4 2.3-1.7 2.6-.2.4-.8.7-1.2.8s-1.8.2-3.1.4l-12.6 2.3c-1.3.2-2.5 1.3-2.7 2.6 0 0-1.9 11.8-1.9 13.1s1 2.2 2.3 2.2H278c1.3 0 2.3-.7 2.3-1.5s0-2.5-.1-3.8c0 0-.1-2.7-.1-5.6 0-3-2.7-6.7-6.6-7.7z"/><path fill="#EF4323" d="M195.5 343.8h84.8v3.5h-84.8v-3.5z"/><g fill="#EF4323"><path d="M222.7 347.3c0-5-4.1-9.1-9.1-9.1s-9.1 4.1-9.1 9.1"/><path d="M224.3 347.3h-3.1c0-4.2-3.4-7.5-7.6-7.5s-7.6 3.4-7.6 7.5h-3.1c0-5.9 4.8-10.6 10.6-10.6s10.8 4.7 10.8 10.6zM271.4 347.3c0-5-4.1-9.1-9.1-9.1s-9.1 4.1-9.1 9.1"/><path d="M273 347.3h-3.1c0-4.2-3.4-7.5-7.5-7.5-4-.1-7.2 3.2-7.5 7.5h-3.1c0-5.9 4.8-10.6 10.6-10.6s10.6 4.7 10.6 10.6z"/></g><circle fill="#333F44" cx="213.6" cy="347.3" r="6.7"/><circle fill="#4D5B5F" cx="213.6" cy="347.3" r="2.8"/><circle fill="#333F44" cx="262.3" cy="347.3" r="6.7"/><circle fill="#4D5B5F" cx="262.3" cy="347.3" r="2.8"/><path fill="#FFF" d="M251.9 325.7c0 .4-.4.8-.8.8h-23.9c-.4 0-.6-.3-.4-.7l4.8-10c.2-.4.7-.7 1.1-.7h18.4c.4 0 .8.3.8.8v9.8zm-35.2.7h5.5c.4 0 .9-.3 1.1-.7l5-10c.2-.4 0-.7-.4-.7H224m34.8 0h-2.9c-.4 0-.8.3-.8.8v9.9c0 .4.4.8.8.8h9.8"/><path fill="#E9F5F6" d="M251.9 325.7c0 .4-.4.8-.8.8h-23.9c-.4 0-.6-.3-.4-.7l4.8-10c.2-.4.7-.7 1.1-.7h18.4c.4 0 .8.3.8.8v9.8zm-35.2.7h5.5c.4 0 .9-.3 1.1-.7l5-10c.2-.4 0-.7-.4-.7H224m34.8 0h-2.9c-.4 0-.8.3-.8.8v9.9c0 .4.4.8.8.8h9.8"/><path fill="#FFF27B" d="M198.8 332.7h-1.5l-.8 4.3h2.3c1.2 0 2.2-1 2.2-2.2-.1-1.1-1.1-2.1-2.2-2.1z"/><path fill="#EF4323" stroke="#EF4323" stroke-width=".54" stroke-miterlimit="10" d="M227.3 343.8v-17.4m23.8.1v17.3"/><path fill="#EF4323" d="M234.2 329.7c0 .6-.5 1-1 1h-2.5c-.6 0-1-.5-1-1s.5-1 1-1h2.5c.6-.1 1 .4 1 1z"/><path fill="#FFF27B" d="M280.5 336.5h-.4l.1 6.2h.4c.9-.2 1.6-1.5 1.6-3.1 0-1.7-.8-3-1.7-3.1z"/></svg>
