<svg width="1032" height="92" viewBox="0 0 1032 92" xmlns="http://www.w3.org/2000/svg" xmlns:xlink="http://www.w3.org/1999/xlink"><defs><path id="a" d="M0 0h1032v92h-1032z"/></defs><g fill="none"><use fill="#4285F4" xlink:href="#a"/><path d="M456.989 81.379v-32.724h6.257v-8.81h6.257v8.81h50.057v70.345h-100.114v-89.224h11.263v-3.776h11.263v3.776h10.011v51.603h5.006zm82.594 37.621h-20.023v-56.5l5.006 5.874v-28.529l16.269-11.328v21.397h27.531v69.086h-28.783zm-279.069-93l-3.754 5.034v23.914h-8.76v64.052h155.177v-59.017h-11.263v-6.293h-11.263v6.293h-10.011v15.103l-10.011-7.552v-13.845h-7.509v-10.069h-15.017v7.552h-43.8v18.879h-7.509v-30.207h-12.514v-13.845h-13.766zm307.851 93h117.634v-71.603h-11.263v-6.293h-11.263v6.293h-10.011v20.138l-8.76-11.328-8.76 11.328v-36.5h-15.017v33.983h-43.8v18.879h-8.76v35.103zm-165.189-51.466h16.269v51.466h-16.269v-51.466zM815.989 81.379v-32.724h6.257v-8.81h6.257v8.81h50.057v70.345h-100.114v-89.224h11.263v-3.776h11.263v3.776h10.011v51.603h5.006zm82.594 37.621h-20.023v-56.5l5.006 5.874v-28.529l16.269-11.328v21.397h27.531v69.086h-28.783zm-279.069-93l-3.754 5.034v23.914h-8.76v64.052h155.177v-59.017h-11.263v-6.293h-11.263v6.293h-10.011v15.103l-10.011-7.552v-13.845h-7.509v-10.069h-15.017v7.552h-43.8v18.879h-7.509v-30.207h-12.514v-13.845h-13.766zm307.851 93h117.634v-71.603h-11.263v-6.293h-11.263v6.293h-10.011v20.138l-8.76-11.328-8.76 11.328v-36.5h-15.017v33.983h-43.8v18.879h-8.76v35.103zm-165.189-51.466h16.269v51.466h-16.269v-51.466zM54.989 81.379v-32.724h6.257v-8.81h6.257v8.81h50.057v70.345h-100.114v-89.224h11.263v-3.776h11.263v3.776h10.011v51.603h5.006zm82.594 37.621h-20.023v-56.5l5.006 5.874v-28.529l16.269-11.328v21.397h27.531v69.086h-28.783zm-279.069-93l-3.754 5.034v23.914h-8.76v64.052h155.177v-59.017h-11.263v-6.293h-11.263v6.293h-10.011v15.103l-10.011-7.552v-13.845h-7.509v-10.069h-15.017v7.552h-43.8v18.879h-7.509v-30.207h-12.514v-13.845h-13.766zm307.851 93h117.634v-71.603h-11.263v-6.293h-11.263v6.293h-10.011v20.138l-8.76-11.328-8.76 11.328v-36.5h-15.017v33.983h-43.8v18.879h-8.76v35.103zm-165.189-51.466h16.269v51.466h-16.269v-51.466z" fill="#3B78E7"/></g></svg>