<svg xmlns="http://www.w3.org/2000/svg" width="480" height="480"><path fill="#fff" fill-rule="evenodd" d="M-1625.3-601.8c-36.5 0-67.3-30.8-67.3-67.4 0-36.5 30.8-67.4 67.3-67.4s67.4 30.8 67.4 67.4c0 36.6-30 67.4-67 67.4zm0-163.6c-54 0-96.2 42.3-96.2 96.2s42.4 96.3 96.3 96.3 96.2-42 96.2-96-42.4-96-96.3-96zm-111.6-75l16 15.3c25 25 58 40 98 40v-39c-29 0-52-12-69-29l-37-37c-9-8-19-12-31-12s-21 4-27 11l-53 54c-7 8-11 17-11 27 0 12 4 21 12 27l62 54v96h38v-119l-42-44 46-47zM-1894-602c-36.5 0-67.3-30.8-67.3-67.4 0-36.5 30.8-67.4 67.3-67.4s67.4 30.8 67.4 67.4c0 36.6-31 67.4-67.3 67.4zm0-163.6c-54 0-96.2 42.3-96.2 96.2S-1948-573-1894-573s96-42.8 96-96.7-42.4-96.2-96.3-96.2zm202.2-125c21 0 38.4-17.5 38.4-38.6s-17.3-38.5-38.5-38.5-38 17.3-38 38.5 17 38.5 39 38.5zm299 285.6c36.2 0 65.7-29.4 65.7-65.8s-30-65.8-66-65.8c-37 0-66 29.4-66 65.8s29 65.8 66 65.8zm266-7.6c36 0 65.6-29.5 65.6-66 0-36.2-29.5-65.7-65.8-65.7s-66 29.4-66 65.7c0 36.4 29.6 66 66 66zm-78.5-286.3c21.3 0 38.5-17 38.5-38s-17.3-38-38.6-38-38.5 18-38.5 39 17 39 38 39zM-1338-780c-2.3-1-4.4-2.5-6.4-4.2-14.3-12.5-15.8-34.2-3.4-48.5l53.3-61.2c12.4-14 34-16 48.4-3 5 5 9 11 10 17 1 2 39 41 110 52-1 4-4 18-6 38-11-2-78-13-118-51l-40 47c4 3 49 34 54 41 2 4 9 29 15 53 10-42 48-72 92-72 52 0 95 43 95 96s-43 96-95 96c-42 0-77-26-90-63l-28 8-15-57c-6 29-14 60-14 60l-29-7c-12 39-48 68-92 68-53 0-96-43-96-95s42-95 95-95c46 0 85 33 94 77l9-41-48.8-49z" clip-rule="evenodd"/><circle cx="-712.7" cy="-941.2" r="38.5" fill="#fff" fill-rule="evenodd" clip-rule="evenodd"/><path fill="#fff" fill-rule="evenodd" d="M-627.4-781c-52.8 0-95.5 42.8-95.5 95.6 0 2 0 4 1 6-8-28.3-19-61.2-21-66.3v-.5c1-6.8 1-11.8-1-14-7-8.5-36-27.8-49-35.8l42-47.6c42 35.8 109 44.8 120 46.4 2-20 5-34 5-38-63-7-101-38-110-45.8-2-6.8-5-13.2-11-18.2-14-12.4-36-11-48 3.4l-53 61.3c-12 14.3-11 36 3 48.4 2 1 5 3 7 4l5 3 51 45-13 43c-8-44-47-77-93-77-53 0-95 43-95 95s43 96 95.6 96c49.7 0 90.6-38 95-87l29 8 7.7-24 14 51 37.8-12c16 29 47 48 82.5 48 52 0 95-43 95-96s-43-96-95.5-96zm-266 176.3c-36.3 0-65.8-29.5-65.8-66 0-36.3 29.5-65.7 66-65.7s65.7 29.4 65.7 65.8-29.5 65.8-65.8 65.8zm266-14.7c-36.4 0-66-29.5-66-66 0-36.2 29.6-65.7 66-65.7s65.8 29 65.8 65-29.5 66-65.8 66zm387-157c-5.3-8.4-41.3-22.7-50.8-26.4l35.7-44c42.3 34.4 108.6 42 119.3 43.5 1-20 3.7-34 4.3-38-62-5.7-101-35.3-110-43.5-2-7-5-13.2-11-18-14-12-36-9.7-48 5l-51 63c-12 14.8-9 36.4 5 48.4l2 1.5 60 64-9 42 25 7 15 56 37-11s-18-65-28-95c7-22 12-45 8-53zM-393-767c-53 0-95.7 42.5-95.7 95.3S-446-576-393-576s95.4-43 95.4-95.6S-340.4-767-393-767zm-.4 161.2c-36.4 0-66-29.5-66-66 0-36.3 29.6-65.7 66-65.7s65.8 29.4 65.8 65.8S-357-606-393.4-606z" clip-rule="evenodd"/><circle cx="-214.7" cy="-943.7" r="38.5" fill="#fff" fill-rule="evenodd" clip-rule="evenodd"/><path fill="#fff" fill-rule="evenodd" d="M-127.4-786c-52.8 0-95.5 42.8-95.5 95.6s43 95.4 96 95.4 95-42.6 95-95.3-42-95.7-95-95.7zm0 161.6c-36.4 0-66-29.5-66-66 0-36.2 29.6-65.7 66-65.7s65.8 29 65.8 65-29.5 66-65.8 66zM107-772c-53 0-95.6 43-95.6 95.6S54-581 107-581s95.4-42.6 95.4-95.4S159.6-772 107-772zm-.3 161.5c-36.4 0-66-29.4-66-65.8s29.6-66 66-66 65.8 29.6 65.8 66-29.5 65.8-65.8 65.8z" clip-rule="evenodd"/><circle cx="288.8" cy="-945.1" r="38.5" fill="#fff" fill-rule="evenodd" clip-rule="evenodd"/><path fill="#fff" fill-rule="evenodd" d="M372.6-788.6c-52.8 0-95.5 42.7-95.5 95.5s43 95 96 95 95-43 95-95c0-53-42-96-95-96zm0 161.5c-36.4 0-66-30-66-66s29.6-66 66-66 65.8 29 65.8 66-29.5 66-65.8 66z" clip-rule="evenodd"/><path fill="#fff" fill-rule="evenodd" d="M265-788.6c-6.2-12-51.5-21.2-52.6-21.5l33-40c42.3 35 108 43 119 44 1-20 3-35 3.6-39-64.6-6-100.3-36-109-44-1.8-7-5.6-14-11.4-18-14.5-13-36-11-48.3 4L147-839c-12 14.5-10.2 36 4.3 48.3l54.4 70.7 21.7 103.7L266-623s-6.6-30.6-13.2-59.4l2 .2s16.3-94.3 10-106.4zm-39 32l-8.8-12.4 10 3.4-1.2 9z" clip-rule="evenodd"/><circle cx="793.8" cy="-946.4" r="38.5" fill="#fff" fill-rule="evenodd" clip-rule="evenodd"/><path fill="#fff" fill-rule="evenodd" d="M607-777c-53 0-95.6 42.6-95.6 95.4S554-586 607-586s95.4-43 95.4-95.6c0-52.8-42.8-95.5-95.5-95.5zm-.3 161.3c-36.4 0-66-29.5-66-66 0-36.3 29.6-65.7 66-65.7s65.8 29.4 65.8 65.8-29.5 65.8-65.8 65.8zm266-175.2c-53 0-95.6 43-95.6 96s43 95 96 95 96-42 96-95-42-95-95-95zm0 162c-36.5 0-66-29-66-66 0-36 29.5-65 66-65s65.7 30 65.7 66-29.5 66-65.8 66z" clip-rule="evenodd"/><path fill="#fff" fill-rule="evenodd" d="M715.5-815l33-36.7c41.2 35.5 107 43 117.8 44.4 1-20 3.2-34.4 3.7-38.5-62.5-4.7-96.4-33-106.8-43.4-1.5-7-5-13.3-10.6-18.4-14-12.7-35.8-11.5-48.5 2.5l-54 60c-12 13-11 34 1 47l52 71 8 102 39-3-4-63 28 1s2-91-2-106c-5-11-47-21-54-22zm-2 38.6l20 6.3.2 21c-5.3-8-13-19-20.3-28z" clip-rule="evenodd"/><circle cx="1300.8" cy="-946.4" r="38.5" fill="#fff" fill-rule="evenodd" clip-rule="evenodd"/><path fill="#fff" fill-rule="evenodd" d="M1372.6-791c-44 0-81.2 30-92.2 70.5-3.2-28.7-8-64.3-11.2-69-5-7.6-46-23.8-53.2-26.5l36-37.4c39.6 35.5 87.4 41.2 117.5 45 1-19.8 2.7-33.7 3.2-37.8-62.3-4.7-95-33.7-105.2-44.4-1.3-6.6-4.6-13-9.8-18-13.7-13-35.4-12.8-48.6 1l-56 58.2c-13 13.7-13 35.4 1 48.5l3 3 47 64-2 33c-7-46-46-81-94-81-53 0-95 43-95 96s42 95 95 95c43 0 80-28 92-67l-1 21 39 3s5-53 6-86l6 43 32-4c6 47 46 83 95 83 53 0 96-43 96-95s-43-95-95-95zm-266 170.3c-36.3 0-65.8-29.5-65.8-66 0-36.3 29.5-65.7 66-65.7s65.7 29.4 65.7 65.8-29.5 65.8-65.8 65.8zm119.2-149l10 4.2 1.6 13c-3-4.6-7-10.7-11.6-17zm146.8 140.3c-36.4 0-66-29.5-66-66 0-36.3 29.6-65.7 66-65.7s65.8 29 65.8 65-29.5 66-65.8 66z" clip-rule="evenodd"/><circle cx="1806.8" cy="-946.4" r="38.5" fill="#fff" fill-rule="evenodd" clip-rule="evenodd"/><path fill="#fff" fill-rule="evenodd" d="M1872.6-790c-44 0-80.8 29.6-92 70-4.6-26.2-10-53.8-12.8-58-5-7-43.6-30.6-52.8-36.2l41.4-40c37.4 35.7 79.2 42 115.7 47.6 2-20 3-34.2 4-38.3-65-7-92-34-103-45-1-6-4-13-9-18-13-13-35-14-48-1l-58 56c-13 13-14 35-1 49 2 2 4 4 7 6l47 55-8 38c-7-45-47-79-94-79-53 0-95 43-95 96s43 95 96 95c41 0 75-25 89-60l31 8s10-44 16-73l11 57 27-6c11 41 48 70 92 70 53 0 95-43 95-95s-42-95-95-95zm-266 165.3c-36.3 0-65.8-29.5-65.8-66 0-36.3 29.5-65.7 66-65.7s65.7 29.4 65.7 65.8-29.5 65.8-65.8 65.8zm266-3.7c-36.4 0-66-29.5-66-66 0-36.2 29.6-65.7 66-65.7s65.8 29 65.8 65-29.5 66-65.8 66z" clip-rule="evenodd"/><circle cx="2312.8" cy="-944.4" r="38.5" fill="#fff" fill-rule="evenodd" clip-rule="evenodd"/><path fill="#fff" fill-rule="evenodd" d="M2372.6-787c-48.5 0-88.5 36.2-94.7 83-6-27-11-55.5-14-59.6-6-7.7-46-43-50-47.2l46-43c37 37 79 43.8 115 50.2 2-19.8 3-34 4-38-67-8.5-93-37.3-103-48.6-1-6.6-4-13-9-18-13-14-35-14.7-49-1.8l-60 55.3c-14 13-15 34.7-2 48.5 2 2.4 5 4.4 7 6l52 45.2-16 48.5c-6-46.5-46-82.5-94-82.5-53 0-96 43-96 96s42 96 95 96c45 0 83-32 93-74l27 9 12-40 13 56 32-7.3c14 34 48 58 88 58 52 0 95-42.7 95-95.4 0-53-43-96-96-96zm-266 159.3c-36.3 0-65.8-29.5-65.8-66 0-36.3 29.5-65.7 66-65.7 36.2 0 65.7 29.4 65.7 65.8s-29.5 65.8-65.8 65.8zm266 2.3c-36.4 0-66-29.5-66-66 0-36.2 29.6-65.7 66-65.7s65.8 29 65.8 65-29.5 66-65.8 66z" clip-rule="evenodd"/><circle cx="2817.8" cy="-941.4" r="38.5" fill="#fff" fill-rule="evenodd" clip-rule="evenodd"/><path fill="#fff" fill-rule="evenodd" d="M2768-776.6c-2-8-27.8-24.7-48-36.7l43-39c35 38 77.7 45.4 113.6 53.6 3-19.7 5.2-34 6.2-37.8-66.3-12-92.5-41.3-102-52.5-1-6.4-3.7-12.6-8.3-17.8-12.7-14-34.4-15.3-48.5-2.6l-60.3 54.3c-14 12-15.2 34-2.5 48 1.7 2 3.5 3 5.4 5l51.4 62-15.6 42c-1.2-52-43.5-93-95.5-93-53 0-96 42-96 95s43 96 96 96c50 0 91-39 95-89l32 12 9 44 37-8s-13-76-21-101c5-17 10-32 8-37zm-161.3 148c-36.4 0-66-29.6-66-66s29.6-65.8 66-65.8 65.8 29.4 65.8 65.8-29.5 65.8-65.8 65.8z" clip-rule="evenodd"/><path fill="#fff" fill-rule="evenodd" d="M2872.6-782c-52.8 0-95.5 42.8-95.5 95.6s43 95.5 96 95.5 96-42 96-95-42-95-95-95zm0 161.6c-36.4 0-66-29.5-66-66 0-36.2 29.6-65.7 66-65.7s65.8 29 65.8 65-29.5 66-65.8 66zM-1893-286c-53 0-95.6 42.6-95.6 95.4S-1946-95-1893-95s95.4-43 95.4-95.6c0-52.8-42.8-95.5-95.5-95.5zm-.3 161.3c-36.4 0-66-29.5-66-66 0-36.3 29.6-65.8 66-65.8s65.8 29.5 65.8 66c0 36.3-29.5 65.8-65.8 65.8z" clip-rule="evenodd"/><circle cx="-1679.2" cy="-435.4" r="38.5" fill="#fff" fill-rule="evenodd" clip-rule="evenodd"/><path fill="#fff" fill-rule="evenodd" d="M-1627.4-273c-52.8 0-95.5 42.8-95.5 95.6s43 95.4 96 95.4 96-42.7 96-95.4-42-95.5-95-95.5zm0 161.6c-36.4 0-66-29.5-66-66 0-36.2 29.6-65.7 66-65.7s65.8 29 65.8 65-29.5 66-65.8 66z" clip-rule="evenodd"/><path fill="#fff" fill-rule="evenodd" d="M-1724-280.6c-3-10.6-35.6-24.4-49.6-29.8l39.4-35.5c36.3 38 77.5 49 113.4 57 3-19 5.8-34 6.8-38-65.8-12-93-44-102.4-55-1-6-3.8-12-8.4-17-12.7-14-34.4-15-48.5-2l-60.3 55c-14 13-15.2 35-2.5 49 0 1 1 2 2 3l48 74 2 20-5 15 6 2 9 70 38-4s-6-44-11-77c9-27 23-72 20-81zm-41.2 18.7l-2.4-5 3.4 2-1 4z" clip-rule="evenodd"/><g fill="#fff" fill-rule="evenodd" clip-rule="evenodd"><path d="M-1219.3-281.8c-.5-7.3-34.2-21-51-27.4l38-34c35.3 37.6 75.3 49.3 112.6 59.3 3.3-19 7-33 8-37-56.8-11-91.4-44-102.8-58-1-6-3.7-12-8.4-18-12-14-34-15-48-2l-60 55c-14 13-15 35-2 49l2 2 43 77 2 103h38s0-33-1-64l18 4s20-100 15-105zm-41.4 38l-13.7-27 16.5 7.5-2 19.6z"/><path d="M-1392-284c-53 0-95.6 42.6-95.6 95.4S-1445-93-1392-93s95.4-43 95.4-95.6c0-52.8-42.8-95.5-95.5-95.5zm-.3 161.3c-36.4 0-66-29.5-66-66 0-36.3 29.6-65.8 66-65.8s65.8 29.5 65.8 66c0 36.3-29.5 65.8-65.8 65.8z"/><circle cx="-1177.8" cy="-432.9" r="38.5"/><path d="M-1126.4-267c-52.8 0-95.5 42.8-95.5 95.6s43 95.4 96 95.4 96-42.7 96-95.4-42-95.5-95-95.5zm0 161.6c-36.4 0-66-29.5-66-66 0-36.2 29.6-65.7 66-65.7s65.8 29 65.8 65-29.5 66-65.8 66z"/></g><g fill="#fff" fill-rule="evenodd" clip-rule="evenodd"><path d="M-892-280.3c-53 0-95.6 42.8-95.6 95.5S-945-89.3-892-89.3s95.4-42.8 95.4-95.5-42.8-95.5-95.5-95.5zm-.3 161.4c-36.4 0-66-29-66-65s29.6-66 66-66 65.8 30 65.8 66-29.5 66-65.8 66z"/><circle cx="-677.8" cy="-430.1" r="38.5"/><path d="M-626.4-262c-44.2 0-81.4 30-92.3 70.7 1.8-30 4-77.4 1-80.6-.7-7-38-25-53-32l39.5-35c34.7 38 75 51 112 61 3.8-19 7.7-33 8.8-37-58-12-93-46-103.2-60-1-6-3.7-12-8.4-18-12.6-14-34.3-15-48.4-2l-60.3 54c-14 13-15.2 35-2.5 49l2 2 40 74-12.2 98 38 6s5.6-40 8.7-73l-.7 20 35.5 2v1c0 53 43 96 96 96s95-43 95-96-42-96-95-96zM-755-232.3l-.4-.6c-2-3-7.7-15-14.2-27l15.2 8-.7 21zm128.6 131.6c-36.4 0-66-29.5-66-65.8 0-36.4 29.6-66 66-66s65.8 29.6 65.8 66c0 36.3-29.5 65.8-65.8 65.8z"/></g><g fill="#fff" fill-rule="evenodd" clip-rule="evenodd"><circle cx="-181.8" cy="-428.9" r="38.5"/><path d="M-126.4-261c-40.8 0-75.7 25.6-89.3 61.6-2.5-25.7-5.4-53.8-6.8-60-5.7-9.8-32.8-25.6-53-38.8l41-39.8c34 35.4 80.6 51 113.8 60.6 3.4-19.7 8.5-33 9.5-37-45.5-11-82.2-33.3-106.2-61.2-1-6.5-4-12.7-9-17.8-13.2-13.6-35-14-48.6-1l-58.3 56.5c-13.7 14-14 35-1 49l2.5 3 42.8 63-8 33c-5.7-47-46-85-95-85-53 0-96 43-96 96s43 95 96 95c35.3 0 66.4-19 83-48l35 9s13-47 19.5-81l4.6 55 29-2c6 47 46 83 95 83 53 0 96-42 96-95s-42-95-95-95zm-266 146.3c-36.3 0-65.8-29.5-65.8-66 0-36.3 29.5-65.8 66-65.8s65.7 29.5 65.7 66c0 36.3-29.5 65.8-65.8 65.8zm266 15.3c-36.4 0-66-29.5-66-66 0-36.2 29.6-65.7 66-65.7s65.8 29 65.8 65-29.5 66-65.8 66z"/></g><g fill="#fff" fill-rule="evenodd" clip-rule="evenodd"><path d="M372.6-262c-44.7 0-82.2 30.7-92.6 72-4.7-24.4-9.5-49.4-10.8-55-10.6-11.7-33.3-30.7-52.2-45.8l43.5-45c36 34.8 80.5 48 114.8 57 4-19 8-33.6 9-37.6-46.8-10.2-82.2-30-107.4-56.8-2-7-5-13.4-10-18.7-14-13-36-12-49 1l-56 59c-13 14-13 36 1 49 1 2 3 3 5 5l47 51-14 44c-6-47-46-83-95-83-52 0-95 42-95 95s43 95 96 95c42 0 79-28 91-67l27 10s9-26 16-51l10 57 29-6c13 38 49 65 91 65 53 0 96-43 96-95 0-53-43-95-96-95zm-266 154.3c-36.3 0-65.8-29.5-65.8-66 0-36.3 29.5-65.8 66-65.8s65.7 29.5 65.7 66c0 36.3-29.5 65.8-65.8 65.8zm266 7.3c-36.4 0-66-29.5-66-66 0-36.2 29.6-65.7 66-65.7s65.8 29 65.8 65-29.5 66-65.8 66z"/><circle cx="309.7" cy="-429" r="38.5"/></g><g fill="#fff" fill-rule="evenodd" clip-rule="evenodd"><circle cx="803.7" cy="-428.5" r="38.5"/><path d="M762.5-249.5c-2.4-9.3-29.8-28.5-47.8-40.2l41.8-44.8C793-300.7 837.7-289 872-280.7c3.5-19 7.4-33.7 8.2-37.7-47-9.4-82.7-27.4-108.4-53.7-1.4-7-4.8-14-10.2-19-14-13-35.6-12-48.5 1l-55 60c-13 14-12 35 2 48 3 2 5 4 8 5l50 53-15 43c-5-48-46-84-94-84-53 0-95 42-95 95s41 97 94 97c50 0 90-38 95-86l30 11 6-15 12 49 38-9-27-108c3-9 4-16 3-19zM606.7-102.7c-36.4 0-66-29.5-66-66 0-36.3 29.6-65.8 66-65.8s65.8 29.5 65.8 66c0 36.3-29.5 65.8-65.8 65.8z"/><path d="M873.6-264c-52.8 0-95.5 42.8-95.5 95.6S821-73 874-73s95.5-42.7 95.5-95.4-43-95.6-95.5-95.6zm0 161.6c-36.4 0-66-29.5-66-66 0-36.2 29.6-65.7 66-65.7s65.8 29 65.8 65-29.5 66-65.8 66z"/></g><g fill="#fff" fill-rule="evenodd" clip-rule="evenodd"><path d="M1372.6-264c-52.8 0-95.5 42.8-95.5 95.6s43 95.4 96 95.4 96-42.7 96-95.4-42-95.5-95-95.5zm0 161.6c-36.4 0-66-29.5-66-66 0-36.2 29.6-65.7 66-65.7s65.8 29 65.8 65-29.5 66-65.8 66zM1107-263c-53 0-95.6 42.6-95.6 95.4S1054-72 1107-72s95.4-43 95.4-95.6-42.8-95.5-95.5-95.5zm-.3 161.3c-36.4 0-66-29.5-66-66 0-36.3 29.6-65.8 66-65.8s65.8 29.5 65.8 66c0 36.3-29.5 65.8-65.8 65.8z"/><circle cx="1304.4" cy="-426.8" r="38.5"/><path d="M1267.7-266.3c-5.3-8.2-39.6-23-49.4-27l38-40.6c38.4 38 96.6 50 116.2 53 2.7-19 5.5-33 6.4-37-67-12-99-43-108-53-2-6-5-13-10-18-14-13-36-12-49 2l-55 60c-13 14-12 36 1 49l1 2 2 3h-1l1 1 53 69-11 36 19 6 11 62 37-8s-12-63-19-95c9-25 17-52 12-60z"/></g><g fill="#fff" fill-rule="evenodd" clip-rule="evenodd"><path d="M1607-264c-53 0-95.6 42.6-95.6 95.4S1554-73 1607-73s95.4-43 95.4-95.6-42.8-95.5-95.5-95.5zm-.3 161.3c-36.4 0-66-29.5-66-66 0-36.3 29.6-65.8 66-65.8s65.8 29.5 65.8 66c0 36.3-29.5 65.8-65.8 65.8z"/><path d="M1770.2-270.6c-7.4-10.6-36-19-50-24.6L1757-333c39.5 38.4 104.7 50.6 115.4 52.7 2.3-19.8 5.5-34 6.4-38-65.5-10.8-99-44-106.4-52-1.3-6.6-4.6-13-9.8-18-13.6-13-35.3-12.7-48.5 1l-56 58.3c-13 13.6-12 35.4 1 48.5v.2l48 74.3 14 105.8 38-5s-3-30.2-8-59.5c1 0 1 0 1 .2 1-9.6 28-93 19-106zm-39.6 31L1721-255l11.5 5-2 10.4z"/><path d="M1872.6-264c-52.8 0-95.5 42.8-95.5 95.6s43 95.4 96 95.4 96-42.7 96-95.4-42-95.5-95-95.5zm0 161.6c-36.4 0-66-29.5-66-66 0-36.2 29.6-65.7 66-65.7s65.8 29 65.8 65-29.5 66-65.8 66z"/><circle cx="1806" cy="-425.7" r="38.5"/></g><g fill="#fff" fill-rule="evenodd" clip-rule="evenodd"><circle cx="2308.2" cy="-423.9" r="38.5"/><path d="M2107-264c-53 0-95.6 42.6-95.6 95.4S2054-73 2107-73s95.4-43 95.4-95.6-42.8-95.5-95.5-95.5zm-.3 161.3c-36.4 0-66-29.5-66-66 0-36.3 29.6-65.8 66-65.8 36.3 0 65.8 29.5 65.8 66 0 36.3-29.5 65.8-65.8 65.8zm267-161.2c-53 0-95.6 43-95.6 96s43 95 96 95 96-42 96-95-42-95-95-95zm0 162c-36.5 0-66-29-66-66 0-36 29.5-65 66-65s65.7 30 65.7 66-29.5 66-65.8 66z"/><path d="M2221.6-296.6l36-34.6c38.2 34.3 78 43.6 115.8 50.3 1.6-19 4-34 4.8-38-55-6-90-34-103.8-48-1-7-4-13-9.3-19-13-13-34-14-48 0l-58 57c-13 13-14 35-1 49l49 75 5 104 38-1s-1-32-4-64l23 2s11-101 6-106c-1-7-36-19-53-24zm14.7 67c-3.7-5.7-10.6-17-17.6-28.2l18.8 6.7-1.2 21z"/></g><g fill="#fff" fill-rule="evenodd" clip-rule="evenodd"><circle cx="2809.3" cy="-421.9" r="38.5"/><path d="M2873.6-264c-45.6 0-83.7 32-93.2 74.7-1-29.8-3.2-73-6.2-76.8-2.5-8-42.7-25-53-29l37-36c39.2 36 76.4 43 115.4 50 1.6-20 4-35 4.8-39-59.5-7-93-37-103.8-49-1.2-7-4.2-13-9-18-13.2-14-35-14-48.6-1l-58.4 56c-13.6 13-14 35-.8 48l2.7 2 44.2 67-2.7 35c-4-49-45-88-95-88-52.8 0-95.6 42-95.6 95s42.8 96 95.6 96c45 0 82.6-31 92.7-73l-2.4 32 38.3 3s5-58 6-93l2.4 43 34.4-2c3.8 49 45 88 95.2 88 52.7 0 95.5-43 95.5-96s-42-96-95-96zm-267 161.3c-36.3 0-65.8-29.5-65.8-66 0-36.3 29.5-65.8 66-65.8s65.7 29.5 65.7 66c0 36.3-29.5 65.8-65.8 65.8zm119.4-148l13 6 1 16.4-14-22.3zm147.6 148c-36.4 0-66-29.3-66-65.7 0-36.3 29.6-65.8 66-65.8s65.8 29.4 65.8 65.7c0 36.4-29.5 66-65.8 66z"/></g><g fill="#fff" fill-rule="evenodd" clip-rule="evenodd"><path d="M-1627.4 239.5c-42.2 0-78 27.4-90.7 65.4l-11-56c-7-10-34-25-54-37l40-39c37 36 81 44 116 49 1-20 3-34 3-38-45-6-72-16-103-48-1-7-4-14-9-19-13-14-35-14-49-1l-59 56c-14 13-14 35-1 48l4 3 47 58-8 37c-7-47-47-82-95-82-53 0-96 42-96 95s43 96 96 96c38 0 72-23 87-56l33 7s10-44 15-77l9 55 27-4c9 42 47 74 93 74 53 0 95-43 95-96s-43-96-96-96zm-266 161.2c-36.3 0-65.8-29.5-65.8-66s29.5-65.7 66-65.7 65.7 29.5 65.7 65.8-29.5 66-65.8 66zm266 .3c-36.4 0-66-29.5-66-65.8 0-36.4 29.6-66 66-66s65.8 29.6 65.8 66c0 36.3-29.5 65.8-65.8 65.8z"/><circle cx="-1689.8" cy="82.5" r="38.5"/></g><g fill="#fff" fill-rule="evenodd" clip-rule="evenodd"><path d="M-1127.4 239.5c-47 0-86.3 34-94 79-5-26.3-11-53.5-13.7-57.6-5-7-40-36-52-45l45-43c36 36 78 43 114 49 2-20 3-34 4-38-64-8-92-36-102-48-1-7-4-13-9-18-13-14-35-15-49-2l-60 55c-14 13-15 34-2 48l7 6 50 48-14 45c-7-46-47-81-95-81-53 0-96 42-96 95s42 95 95 95c44 0 82-31 92-73l26 9s7-22 14-45l12 56 30.3-8c14 35 48.7 60 89 60 53 0 96-43 96-96s-43-96-95.6-96zm-266 161.2c-36.3 0-65.8-29.5-65.8-66s29.5-65.7 66-65.7 65.7 29.5 65.7 65.8-29.5 66-65.8 66zm266 .3c-36.4 0-66-29.5-66-65.8 0-36.4 29.6-66 66-66s65.8 29.6 65.8 66c0 36.3-29.5 65.8-65.8 65.8z"/><circle cx="-1189.2" cy="83" r="38.5"/></g><g fill="#fff" fill-rule="evenodd" clip-rule="evenodd"><circle cx="-690.2" cy="82" r="38.5"/><path d="M-736.5 250.6c-2.2-8-28.3-25-48.8-37l43.4-40.4c34 34.6 79 42.4 115 50 3-19.7 5-34 6-38-70-11.3-95-40.4-104-49.6-1-6-4-12-8-16.8-13-13.8-34-14.6-48-1.7l-59 56c-14 13-14 35-1 49 2 3 5 5 7 6l53 56-14 43c-5-49-46-87-95-87-53 0-95 43-95 96s42 96 95 96c50 0 92-39 95-88l32 12 3-7 11 46 37-8s-18-83-25-105c4-13 6-24 5-28zm-156.8 150c-36.4 0-66-29.4-66-65.8s29.6-65.8 66-65.8 65.8 29.5 65.8 65.8-29.5 66-65.8 66z"/><path d="M-626.4 239.5c-52.8 0-95.5 42.8-95.5 95.5s43 95.5 96 95.5 95-42.8 95-95.5-42-95.5-95-95.5zm0 161.5c-36.4 0-66-29.5-66-65.8 0-36.4 29.6-66 66-66s65.8 29.6 65.8 66c0 36.3-29.5 65.8-65.8 65.8z"/></g><g fill="#fff" fill-rule="evenodd" clip-rule="evenodd"><path d="M-393 240.3c-53 0-95.6 42.7-95.6 95.5s42.7 95.5 95.5 95.5 95-42.8 95-95.5-43-95.5-96-95.5zm-.3 161.4c-36.4 0-66-29.5-66-66s29.6-65.7 66-65.7 65.8 29.5 65.8 65.8-29.5 66-65.8 66zm161.7-166.4c-5.2-8-38.2-21.4-49.5-25.8l38-37.3c44 41.2 104 48.6 115 50.3 1-19.8 5-33.8 5-37.8-62-7.7-95-39.4-104-48.7-1-7-4-13.8-10-19-13-13.8-35-14-49-1l-59 56.4c-13 13.2-14 35-1 48.5l2 2 54 74 2 8-7 25 12 3 13 66 38-6s-10-55-17-88c9-27 19-62 13-72z"/><circle cx="-192.2" cy="80.3" r="38.5"/><path d="M-127.4 239.5c-52.8 0-95.5 42.8-95.5 95.5s43 95.5 96 95.5 95-42.8 95-95.5-42-95.5-95-95.5zm0 161.5c-36.4 0-66-29.5-66-65.8 0-36.4 29.6-66 66-66s65.8 29.6 65.8 66c0 36.3-29.5 65.8-65.8 65.8z"/></g><g fill="#fff" fill-rule="evenodd" clip-rule="evenodd"><path d="M107 239.3c-53 0-95.6 42.7-95.6 95.5S54 430.3 107 430.3s95.4-42.8 95.4-95.5-42.8-95.5-95.5-95.5zm-.3 161.4c-36.4 0-66-29.5-66-66s29.6-65.7 66-65.7 65.8 29.5 65.8 65.8-29.5 66-65.8 66z"/><circle cx="306" cy="77.7" r="38.5"/><path d="M221.5 207l35.3-36.6C296.3 208.8 361.4 221 372 223c2.3-19.7 5.5-34 6.4-38-65.5-10.7-99-44-106.4-52-1.3-6.5-4.6-12.8-9.8-17.8-13.6-13.2-35.3-12.8-48.5.8l-56.5 58.4c-13 13.6-12.8 35.4 1 48.5l47.6 73 11.4 106 38.4-4s-3.2-33-6.6-64l13 2c.7-10 19.6-95 9.8-107-8.3-10-37-18-50.5-23zm12 61c-4-6.7-9.2-14.6-14.4-22.4l17 6.6-2 15.8z"/><path d="M372.6 239.5c-52.8 0-95.5 42.8-95.5 95.5s43 95.5 96 95.5 95-42.8 95-95.5-42-95.5-95-95.5zm0 161.5c-36.4 0-66-29.5-66-65.8 0-36.4 29.6-66 66-66s65.8 29.6 65.8 66c0 36.3-29.5 65.8-65.8 65.8z"/></g><g fill="#fff" fill-rule="evenodd" clip-rule="evenodd"><path d="M607 239.5c-53 0-95.6 42.8-95.6 95.5s42.7 95.5 95.5 95.5 95-42.8 95-95.5-43-95.5-96-95.5zm-.3 161.2c-36.4 0-66-29.5-66-66s29.6-65.7 66-65.7 65.8 29.5 65.8 65.8-29.5 66-65.8 66z"/><circle cx="804.3" cy="76.2" r="38.5"/><path d="M873.6 239.5c-52.8 0-95.5 42.8-95.5 95.5s43 95.5 96 95.5 95-42.8 95-95.5-42-95.5-95-95.5zm0 161.5c-36.4 0-66-29.5-66-65.8 0-36.4 29.6-66 66-66s65.8 29.6 65.8 66c0 36.3-29.5 65.8-65.8 65.8z"/><path d="M774.3 233.7c-2.4-7.5-41.6-22.4-53.8-27l36-37.2c42.3 38.3 89.6 47.2 116.3 53.2 1.7-19.8 6-34 6.7-38-61-10.8-92-37.5-107.8-52-1.3-6.8-4.6-13-9.8-18.2-14-13-36-12.7-49 1l-57 58c-13 13.8-13 35.5 1 48.7l1 1.4 45 69.5-2 102 38 1v-56h36s2-96-3-105zm-35.8 42c-2-3.5-9.3-15-17.2-27.7l18 7.4v23c0-1.4-.4-2.3-.8-2.8z"/></g><g fill="#fff" fill-rule="evenodd" clip-rule="evenodd"><circle cx="1301.2" cy="74.5" r="38.5"/><path d="M1373.6 238.5c-43 0-79 28.2-91.2 67-4-26.2-8.7-56-10.7-62.4-6.4-9-34-22-55.4-33l39.4-41c35.6 33 82 46 115.3 54 2.3-20 6.7-33 7.5-37-45-8-82-28-107.3-53-1.4-6-4.6-13-9.7-18-13.7-13-35.4-12-48.5 1l-56.4 59c-13.2 14-12.8 36 .8 49l1.6 1 48 65-5.7 34c-7-46-46.7-81-94.4-81-53 0-96 43-96 96s42 96 95 96c36 0 68-20 84-51l38 7s9-51 13-86l7 53 29-4c7 46 46 81 94 81 53 0 95-43 95-95s-43-95-95-95zm-267 163.2c-36.3 0-65.8-29.5-65.8-66s29.5-65.7 66-65.7 65.7 29.5 65.7 65.8-29.5 66-65.8 66zm267-1.7c-36.4 0-66-29.5-66-65.8 0-36.4 29.6-66 66-66s65.8 29.6 65.8 66c0 36.3-29.5 65.8-65.8 65.8z"/></g></svg>
