<svg xmlns="http://www.w3.org/2000/svg" width="480" height="480"><path fill="#fff" fill-rule="evenodd" d="M374.8 405.6c-36.6 0-67.4-30.8-67.4-67.4s30.8-67.3 67.4-67.3 67.2 30 67.2 67-30.7 67-67.3 67zm0-163.6c-54 0-96.3 42.4-96.3 96.3s42.4 96.2 96.3 96.2S471 392 471 338.2 428.6 242 374.7 242zM263 167l15.5 15.3c25 25 57.8 40.4 98.2 40.4v-38.5c-29 0-52-11.5-69.3-28.8l-36.6-36.6c-9.6-7.7-19.3-11.6-30.8-11.6s-21.2 4-27 11.6l-53.8 54c-7.7 7.6-11.6 17.2-11.6 26.8 0 11.6 4 21.2 11.6 27l61.6 54v96H259v-119L217 213l46-46zM105.4 405.5C68.8 405.5 38 374.7 38 338s30.6-67 67.2-67 67.3 30.7 67.3 67.2-30.8 67.4-67.3 67.4zm0-163.6C51.4 242 9 284 9 338s42.4 96.2 96.3 96.2 96.2-42.4 96.2-96.3-42.3-96-96.3-96zm202-125c21.2 0 38.6-18 38.6-39s-17.6-38-38.7-38S269 57 269 78s17 38.7 38.3 38.7zm299.4 285c36.3 0 65.8-30 65.8-66s-29.6-65-66-65c-36.3 0-66 29-66 65s29.7 66 66 66zm266-8c36.2 0 65.7-30 65.7-66 0-37-29.5-66-65.8-66-36.4 0-66 29-66 66 0 36 29.6 66 66 66zm-78.4-286c21.3 0 38.6-17 38.6-39s-18-38-39-38-38 18-38 39 17.2 38 38.4 38zM661.8 227c-2.2-1-4.4-2.6-6.3-4.3-14.3-12.5-15.8-34-3.4-48.5l54-61.2c13-14.5 34-16 49-3.6 6 4.7 9 10.7 11 17 1 1.8 39 41.6 111 51.6 0 4-4 18-6 38-10-2-77-13.3-118-50.8L711 212c4.4 3 49.4 34 54.3 41 2 3.5 9 28.3 15 53 10-41.8 48-72.7 92.6-72.7 52 0 95 42.8 95 95.5s-43 95.5-95 95.5c-42 0-77-26.5-90-63.5l-27 7.7-15-57c-6 28.6-14 59.8-14 59.8l-29-7.3c-12 40-49 68-92 68-53 0-96-42-96-95s43-96 95-96c46 0 85 33 93 77l9-41-49-49zm445 175c36.3 0 65.8-29.4 65.8-66s-29.6-65.5-66-65.5-66 29.5-66 65.8 29.7 66 66 66zm266-14.6c36.2 0 65.7-29.6 65.7-66 0-36.3-29.5-66-65.8-66s-66 29.7-66 66c0 36.4 29.6 66 66 66zM1287.4 104c21.3 0 38.5-17 38.5-38.4s-18-38.4-39-38.4-38 17.8-38 38.8 17 38.6 38 38.6zm-82 106.8L1247 163c41.3 36 108 45 119 46.5 1.3-20 4.3-34 5-38-63.7-6.7-101.8-37.7-110.6-45.6-1.5-7-5.2-14-11-18-14.2-13-36-11-48.3 3l-53 62c-12 14-11 36 4 48 2 2 4 3 7 4l5 3 50 45-13 44c-8-44-47-77-93-77-53 0-96 43-96 95s43 96 96 96c50 0 91-38 95-87l29 8 8-24 14 51 38-12c16 29 47 48 82 48 53 0 96-43 96-96s-43-96-96-96-96 43-96 95v6c-9-28-19-61-22-66v-1c1-7 1-12-1-14-7-9-37-28-49-36zM1606.8 401c36.3 0 65.8-29.5 65.8-66s-29.6-65.6-66-65.6-66 29.5-66 65.8 29.7 66 66 66zm266-18.7c36.2 0 65.7-29.6 65.7-66 0-36.3-29.5-66-65.8-66s-66 29.7-66 66c0 36.4 29.6 66 66 66zm-87.4-281c21.3 0 38.5-17 38.5-38.4s-18-38-39-38-38 17-38 38 17 38 38 38zM1607 431c52.6 0 95.4-42.6 95.4-95.3s-42.8-95.5-95.5-95.5-96 42.7-96 95.5 42 95.5 95 95.5zm265.6-18.6c52.7 0 95.5-42.8 95.5-95.5s-42-96-95-96-95 43-95 95 43 95 96 95zm-163.8-208l35.7-44c42.3 34.5 108.6 42.3 119.3 43.6 1-19.8 3.7-34 4.3-38-62-5.6-101-35-110-43.4-2-6.8-5-13.2-11-18-14-12-36-9.6-48 5l-51 63c-12 15-9 36.5 5 48.4l2 1.5 59 63.5-9 42 25 6.3 15 56 37-11s-18-65.8-28-95c7-22.8 12-45.8 8-53-5-8.4-41-22.7-51-26.4zm398 192.5c36.2 0 65.7-30 65.7-66s-29.5-66-65.8-66-66 29-66 65 29.6 66 66 66zm265.8-17c36.3 0 65.8-30 65.8-66s-29.5-66-65.8-66-66 29-66 66 29.6 66 66 66zm-83.8-280c21.2 0 38.5-18 38.5-39s-17.3-38-38.5-38-38.5 17-38.5 38 17.2 38 38.5 38zm-182 325c52.8 0 95.6-43 95.6-96s-42.8-95-95.4-95-96 42-96 95 42.6 95 95.4 95zm265.8-17c52.7 0 95.5-43 95.5-96s-42-96-95-96-95 43-95 95 43 95 96 95zm-155.4-171l8.8 12 1.3-9-10-4zm-4.8-41l33-40c42.3 35 108 43 119 44 1-20 3-35 3.6-39-64.6-6-100.3-36-109-44-1.8-7-5.6-13-11.4-18-14.5-12-36-10-48.3 4l-52.2 62c-12 14-10 36 5 48l55 70 22 104 39-7-13-60h2s16-95 10-107-51-21-52-21zm394.3 195c36.3 0 65.8-30 65.8-66s-29.5-65-65.8-65-66 29-66 65 29.6 66 66 66zm266-14c36.2 0 65.7-30 65.7-66 0-37-29.5-66-65.8-66s-66 29-66 66c0 36 29.6 66 66 66zm-79-279c21.4 0 38.6-17 38.6-38s-17.3-39-38.5-39-38.5 17-38.5 39 17.2 38 38.5 38zM2607 421c52.6 0 95.4-43 95.4-95.5S2659.6 230 2607 230s-96 43-96 95.7 42.7 95.5 95.5 95.5zm265.6-14c52.7 0 95.5-42.6 95.5-95.3s-42-95.5-95-95.5-95 42.8-95 95.5 43 95.5 96 95.5zm-159.2-176c7.2 9.5 15 20 20.3 28.3l-.3-22-20-6.3zm2-38.7l33-36.6c41.3 35.5 107 43 118 44.4 1-19 3-34 3.6-38-62.5-5-96.4-33-106.8-43-1.5-7-5-13-10.6-18-14-12-35.8-11-48.5 3l-54 61c-12 14-11 34 1 47l52 72 8 102 39-2-4-62 28 1s2-90-2-105c-5-11-47-20-54-22zm391.3 194.4c36.3 0 65.8-29.5 65.8-66S3143 255 3106.7 255s-66 29.5-66 65.8 29.6 66 66 66zm266-8.7c36.2 0 65.7-29.5 65.7-65.8 0-36.4-29.5-66-65.8-66s-66 29.6-66 66c0 36.3 29.6 65.8 66 65.8zm-72-278.5c21.4 0 38.6-17.2 38.6-38.5s-17.3-38.5-38.5-38.5-38.5 17.3-38.5 38.5 17.2 38.5 38.5 38.5zm-75 138.4c4.7 6 8.8 12 11.7 17l-1.6-13-10-4zm-9.7-47l36-38c39.6 35 87.4 41 117.5 45 1-20 2.7-34 3.2-38-62.3-5-95-34-105.2-44-1.3-7-4.6-13-9.8-18-13.7-14-35.4-13-48.6 0l-56 58c-13 13-12 35 1 48 1 1 2 2 3 2l47 64-2 33c-7-46-46-81-94-81-53 0-95 43-95 95s43 95 96 95c43 0 79-29 91-68l-2 21 39 3s5-54 6-86l6 42 32-4c6 47 46 83 95 83 52 0 95-43 95-95s-42-96-95-96c-44 0-81 29-92 70-3-29-8-65-11-69-5-8-46-24-53-27zm390.7 191c36.3 0 65.8-30 65.8-66s-29.5-65-65.8-65-66 29-66 65 29.6 66 66 66zm266-4c36.2 0 65.7-30 65.7-66 0-37-29.5-66-65.8-66s-66 29-66 66c0 36 29.6 66 66 66zm-66-280c21.4 0 38.6-18 38.6-39s-17.3-38-38.5-38-38.5 17-38.5 38 17.2 38 38.5 38zm-91.7 94l41.4-40c37.4 35 79.2 41 115.7 47 2-20 3-34 4-38-65-7-92-35-103-46-1-7-4-13-9-18-13-14-35-14-48-1l-58 56c-13 13-14 35-1 48 2 2 4 3 7 5l47 55-8 37c-7-45-47-79-94-79-53 0-95 42-95 95s43 95 96 95c41 0 75-25 89-61l31 8s11-44 16-73l11 57 27-6c11 40 48 70 92 70 53 0 96-43 96-96s-43-95-95-95c-44 0-80 29-92 70-4-26-10-54-12-58-5-7-44-31-53-36zm391.7 187c36.3 0 65.8-30 65.8-66s-29.5-65-65.8-65c-36.4 0-66 29-66 65s29.6 66 66 66zm266 2c36.2 0 65.7-30 65.7-66 0-37-29.5-66-65.8-66-36.4 0-66 29-66 66 0 36 29.6 66 66 66zm-60-281c21.4 0 38.6-17 38.6-39s-17.3-38-38.5-38-38.5 17-38.5 38 17.2 38 38.5 38zm-98.7 96l46-43c37 37 79 44 115.2 50 2-20 3.4-34 4.2-38-66.3-9-93-37-103-49-1-7-4-13-8.8-18-13-14-34.7-15-48.6-2l-59.2 55c-14 13-14.6 34-1.7 48 3 2 5 4 8 6l51 45-16 48c-6-47-46-83-94-83-53 0-95 43-95 95s42 95 95 95c46 0 84-32 93-75l28 9 13-40 13 57 32-8c15 34 49 58 88 58 53 0 96-43 96-95s-42-96-95-96c-49 0-89 36-95 83-5-26.8-11-55-14-59-5-8-45-43-50-47zm392 182c36.3 0 65.8-30 65.8-66s-29-66-65.3-66-66 29-66 66 29.6 66 66 66zm266 8c36.2 0 65.7-30 65.7-66 0-37-29.5-66-65.8-66-37 0-66 29-66 66 0 36 29 66 66 66zm-55-283c21.4 0 38.6-17 38.6-39s-16.6-38-38-38-38.6 18-38.6 39 17.3 38 38.6 38zm55 312c52.6 0 95.4-43 95.4-96s-42.4-96-95-96-95.5 42-95.5 95 43 95 95 95zm-206-210c-2-2-4-3-5.5-5-12.7-14-11.6-36 2.5-49l60.5-54c14-13 35.8-12 48.5 2 4.6 5 7.4 11 8.4 18 9 11 35.2 40 101.5 52-1 3-3 18-6 37-36-8-79-15-114-53l-43 39c20 12 46 29 48 37 1 5-3 20-9 37 7 25 20 101 20 101l-37 8-9-45-32-12c-4 49-45 88-96 88-53 0-96-43-96-96s43-95 96-95c52 0 94 42 95 93l16-42-51-63zM106 882c36.3 0 65.8-29.4 65.8-66 0-36-29.4-65.6-65.7-65.6S40 780 40 816.2c0 36.4 29.7 66 66 66zm266 13.4c36.2 0 65.7-29.6 65.7-66 0-36.3-29.5-66-65.8-66-37 0-66 29.7-66 66 0 36.4 29 66 66 66zM320 610c21.3 0 38.6-17.4 38.6-38.7s-17-38.3-38.2-38.3-38.4 17-38.4 38.2 17.3 38.4 38.6 38.4zM107 912.2c52.6 0 95.4-43 95.4-95.6S159.6 721 107 721s-96 43-96 96c0 52.6 42.5 95.4 95.3 95.4zm265.6 13c52.7 0 95.5-42.7 95.5-95.4S426 734 373 734s-96 43-96 95.6 43 95.3 96 95.3zm-137.8-180l1-3.2-3.4-1.3 2.4 5zM166.5 710c-1-1-1.8-1.7-2.6-2.7-13-14-12-35.5 2-48.2l60-54c14-12 36-11 48 3 4 5 7 11 8 18 10 11 37 43 103 55-1 4-4 18-7 38-36-8-77-19-114-56l-39 36c14 6 46 20 49 30 2 9-12 55-21 82 5 34 10 78 10 78l-38 4-9-69-7-2 4-15-2-20-48-74zm441.2 175c36.3 0 65.8-29.6 65.8-66 0-36.3-29.5-65.8-65.8-65.8-36.4 0-66 29.5-66 65.8 0 36.4 29.6 66 66 66zm266 17.2c36.2 0 65.7-29.5 65.7-65.8 0-36.4-29.5-66-65.8-66-36.4 0-66 29.6-66 66 0 36.3 29.6 65.8 66 65.8zM822 613c21.2 0 38.5-17.2 38.5-38.5s-17-38.5-38.3-38.5-38.5 17.3-38.5 38.5S801 613 822.2 613zM608 914.3c52.6 0 95.4-42.8 95.4-95.5s-42.8-95.5-95.5-95.5-96 42.7-96 95.5c0 52.7 42 95.5 95 95.5zm265.6 17.2c52.7 0 95.5-42.8 95.5-95.5s-42-95.5-95-95.5-96 42.8-96 95.5 43 95.5 96 95.5zM739.3 763.7l2.8-19.5-16-7.5 14 27zM667 711l-1.2-1.3c-12.7-14-11.5-35.8 2.5-48.5l60.3-54.3c14-13 35.8-12 48.5 2 5 5 8 11 9 18 12 14 46 47 103 58-1 4-5 18-8 37-37-10-77-22-112-60l-39 36c17 6 51 20 51 27 5 4-15 105-15 105l-18-4c1 31 1 64 1 64l-38-1-1-104-42-77zm440.7 177.5c36.3 0 65.8-29.5 65.8-65.8 0-36.4-29.5-66-65.8-66s-66 29.6-66 66c0 36.3 29.6 65.8 66 65.8zm266 18.3c36.2 0 65.7-29.4 65.7-65.8s-29.5-66-65.8-66-66 29.6-66 66 29.6 65.8 66 65.8zm-51.5-291c21.2 0 38.5-17.2 38.5-38.4s-17.3-38.5-38.5-38.5-38.5 17-38.5 38 17.2 38 38.5 38zM1108 918.2c52.6 0 95.4-42.6 95.4-95.4S1160.6 727 1108 727s-95.6 43-95.6 95.6S1055 918 1108 918zm137-142.8l.6-20.6-15.2-7.7c6.5 13 12.3 25 14.2 28l.3 1zm-76-59.4c-1-.7-1.6-1.4-2.2-2.2-12.7-14-11.6-35.8 2.5-48.4l60.3-54.3c14-12 35.8-11 48.4 3 4.7 5 7.5 12 8.4 18 10.3 14 45 48 103.2 61-1 4-5 18-8.8 38-37-10-77.3-23-112-61l-39.6 36c15 7 52.4 25 53 32 3 4 .8 51-1 81 11-40 48.2-71 92.4-71 52.7 0 95.5 43 95.5 96s-42 96-95 96-95-42-95-95l-35-1 1-20c-3 33-8 74-8 74l-38-5 12-97-40-74zm438.7 177c36.3 0 65.8-29.6 65.8-66 0-36.3-29.5-65.8-65.8-65.8s-66 29.5-66 65.8c0 36.4 29.6 66 66 66zm266 15.2c36.2 0 65.7-29.5 65.7-65.8 0-36.4-29.5-66-65.8-66s-66 29.6-66 66c0 36.3 29.6 65.8 66 65.8zM1818 617c21.2 0 38.5-17.2 38.5-38.5S1839.2 540 1818 540s-38.5 17.3-38.5 38.5 17.2 38.5 38.5 38.5zm-150 103.3l-2.4-2.3c-13.2-13.6-12.8-35.3 1-48.5l58.2-56.3c13.6-13.2 35.4-12.8 48.5.8 5 5 8 11.3 9 17.8 24 28 60.8 50 106.3 61.2-1 4-6 17.3-9.5 37-33-9.5-79-25.2-113-60.6l-41 39.8c21 13.2 48 29 54 38.8 2 6.2 5 34.4 7 60 14-36 49-61.5 90-61.5 53 0 96 42.8 96 95.5s-42 95.5-95 95.5c-48 0-88-36-95-82.8l-29 2.3-4-55c-6 33-19 81-19 81l-35-9c-16 29-47 48.4-83 48.4-53 0-95-42.8-95-95.5s43-96 95-96c49 0 90 37 95 85l8-33-43-63zm438.5 179.4c36.3 0 65.8-29.5 65.8-66 0-36.2-29.5-65.7-65.8-65.7s-66 29.5-66 65.8c0 36.4 29.6 66 66 66zm266 7.3c36.2 0 65.7-29.5 65.7-65.8 0-36.4-29.5-66-65.8-66s-66 29.6-66 66c0 36.3 29.6 65.8 66 65.8zm-63-290c21.3 0 38.5-17.4 38.5-38.6s-17-38.4-38.3-38.4-38.5 17-38.5 38.4 17.3 38.5 38.5 38.5zm-141 110.7c-2-1.2-4-2.7-5.8-4.4-13.8-13.2-14-35-1-48.5l56.4-58.4c14-13.6 35-14 49-.8 6 5.2 9 11.7 10 18.6 26 27 61 46.6 108 56.8-1 4-5 18.7-9 37.5-34-9-79-22-114-57l-43 45c19 15.2 42 34.2 52 45.8 2 5.8 6 30.8 11 55.2 11-41.4 48-72 93-72 53 0 96 42.7 96 95.5s-43 95.5-95 95.5c-42 0-78-27.2-90-65l-29 5.5-11-56.2c-7 25-16 51-16 51l-27-9.4c-12 38.8-48 67-91 67-53 0-95-43-95-95.6s43-95.5 96-95.5c49 0 89 36.6 95 83.8l14-44-47-50zm438 177c36.3 0 65.8-29.5 65.8-66 0-36.2-29.5-65.7-65.8-65.7s-66 29.5-66 65.8c0 36.4 29.6 66 66 66zm267 .3c36.2 0 65.7-29.5 65.7-65.8 0-36.4-29.5-66-65.8-66s-66 29.6-66 66c0 36.3 29.6 65.8 66 65.8zm-70-287.6c21.3 0 38.5-17.2 38.5-38.5s-17.2-39-38.5-39-38.5 17-38.5 38 17.3 38 38.5 38zm70 317c52.6 0 95.4-42.7 95.4-95.4s-43-95.5-96-95.5-96 42.8-96 95.5 42 95.5 95 95.5zm-159-216.7l41.8-44.8c36.4 33 81.2 45 115.4 53 3.5-19 7.4-34 8.2-38-47-10-83-28-109-54-2-7-5-13-10-19-14-13-36-12-49 2l-55 59c-13 14-12 35 1 48 2 2 5 4 7 5l50 53-16 42c-6-47-46-84-95-84-53 0-96 43-96 95s42 96 95 96c49 0 90-38 95-86l29 11 5-15 12 49 37-9s-19-78-26-109c2-9 3-16 2-19-3-10-30-29-48-40zm392 188c36.3 0 65.8-29.5 65.8-66 0-36.2-29.5-65.7-65.8-65.7s-66 29.5-66 65.8c0 36.4 29.6 66 66 66zm266-.7c36.2 0 65.7-29.5 65.7-65.8 0-36.4-29.5-66-65.8-66s-66 29.6-66 66c0 36.3 29.6 65.8 66 65.8zm-68.3-285.8c21.2 0 38.5-17.3 38.5-38.5s-17.4-38.5-38.6-38.5-38 17.2-38 38.5 17 38.5 39 38.5zm-197.5 316c52.6 0 95.4-42.7 95.4-95.4s-42-95.5-95-95.5-95 42.7-95 95.5 43 95.5 96 95.5zm265.6-.7c52.7 0 95.5-42.8 95.5-95.5s-42.7-95.5-95.4-95.5-95.5 42.8-95.5 95.5 42 95.5 95 95.5zm-154-220.5l38-40.5c38.4 37.4 96.6 49.3 116.2 53 2.7-19.7 5.5-33.8 6.4-37.8-67-12-99-43.6-108-53-2-6.6-5-12.8-10-17.8-14-13-36-13-49 1l-56 59c-13 13-12 35 1 48l1 1 2 3h-1 1l53 68-11 37 19 5 11 62 38-8s-12-64-19-95c9-25 17-52 12-60-6-8-40-23-50-27zm388.4 190.7c36.3 0 65.8-29.5 65.8-66 0-36.2-29.5-65.7-65.8-65.7s-66 29.5-66 65.8c0 36.4 29.6 66 66 66zm266 .3c36.2 0 65.7-29.5 65.7-65.8 0-36.4-29.5-66-65.8-66s-66 29.6-66 66c0 36.3 29.6 65.8 66 65.8zM3806 620.2c21.2 0 38.5-17.2 38.5-38.5s-17.3-38.5-38.5-38.5-38.5 17.2-38.5 38.5 17.2 38.5 38.5 38.5zm-199 314c52.6 0 95.4-42.7 95.4-95.4s-42.8-95.5-95.5-95.5-96 42.7-96 95.5 42 95.5 95 95.5zm265.6.3c52.7 0 95.5-42.8 95.5-95.5s-42-95.5-95-95.5-95 42.8-95 95.5 43 95.5 96 95.5zm-151.5-182l10 15.4 2-11-11-5zm0-40.3l37-37.8c40 38.4 105 50.6 116 52.8 3-19.8 6-34 7-38-65-11-99-44-106-52-1-6.7-4-13-10-18-13-13.2-35-12.8-48 1l-56 58.2c-13 13.6-13 35.4 1 48.5l49 74 14 106 38-5s-3-31-8-60h1c1-10 28-93 19-106-7-11-36-20-50-25zm386 192.5c37 0 66-29.5 66-66 0-36.2-29-65.7-66-65.7s-66 29.5-66 65.8c0 36.4 29 66 66 66zm267 .3c36 0 66-29.5 66-65.8 0-36.4-29-66-66-66s-66 29.6-66 66c0 36.3 30 65.8 66 65.8zm-66-283c22 0 39-17.2 39-38.5s-18-38.5-39-38.5-38 17.3-38 38.5 17 38.5 39 38.5zm-201 312.3c53 0 96-42.8 96-95.5s-43-95.5-95-95.5-96 42.7-96 95.5 43 95.5 96 95.5zm267 .2c53 0 96-42.8 96-95.5s-42-95.5-95-95.5-95 42.8-95 95.5 43 95.5 96 95.5zM4237 778l1-21.7-18.6-6.7L4237 778zm-79-53c-13-13.6-12.6-35.2 1-48.3l58.3-56.4c13.6-13 35.3-12.8 48.5 1 6 5.2 9 11.8 10 18.7 14 14.3 49 42.4 104 48.3-.5 4-3 18.4-5 38.2-37.5-6.6-77.2-16-115.5-50.3l-36 34.7c17 5 51.4 16 52.6 23 5 4-6 105-6 105l-23-2 4 64-39 2-6-103-49-76zm449 179.7c36.2 0 65.7-29.5 65.7-66 0-36.2-29.5-65.7-65.8-65.7s-66 29.5-66 65.8c0 36.4 29 66 66 66zm267 .3c36 0 65.6-29.5 65.6-65.8 0-36.4-29.5-66-65.8-66-36.4 0-66 29.6-66 66 0 36.3 29.6 65.8 66 65.8zm-64.5-281c21.3 0 38.5-17.2 38.5-38.5s-17.3-38.5-38.6-38.5-38.5 17.3-38.5 38.5 17 38.5 38 38.5zM4740 779.2l-1-16.3-13-6 14 22zm-79.5-50.5c-1-.8-2-1.6-2.7-2.5-13.2-13.7-12.8-35.4.8-48.6l58.4-56.3c13.6-13.2 35.3-12.8 48.5.8 5 6 8 12 9 18 10.8 13 44.4 43 104 49-.8 4-3.3 19-5 39-39-7-76.2-13-115.3-50l-37.2 36c10.5 5 50.7 21 53.2 29 3 4 5 47 6.2 77 9.5-42 47.6-74 93.2-74 52.7 0 95.5 43 95.5 96s-42 96-95 96c-50 0-91-39-95-88l-34 2-2-44c0 35-6 93-6 93l-38-3 3-32c-10 42-48 73-92 73-53 0-95-43-95-96s43-95 96-95c50 0 91 39 95 88l3-35-44-67zM106.7 1408c36.3 0 65.8-29.4 65.8-65.7 0-36.4-29.5-66-65.8-66s-66 29.6-66 66c0 36.3 29.6 65.8 66 65.8zm266 .4c36.2 0 65.7-29.5 65.7-65.8 0-36.4-29.5-66-65.8-66-36.4 0-66 29.6-66 66 0 36.3 29.6 65.8 66 65.8zm-62.5-280c21.2 0 38.5-17.2 38.5-38.4s-17.3-38.5-38.5-38.5-38.5 17.2-38.5 38.5 17.2 38.5 38.5 38.5zm-148 104.8c-1.6-1-3-2.4-4.4-3.7-13.2-13.7-12.8-35.4 1-48.5l58.2-56.4c13.6-13.2 35.4-12.8 48.5.8 5.2 5.4 8.3 12 9.3 19 31.3 31.7 57.7 41.4 103 47.6-.7 4-2.4 18-3.7 38-34-5-79-13.3-116-49l-40 39c21 12 48 26.8 54 36.5 2 5.8 7 31.3 11 55.8 13-38 49-65.4 91-65.4 53 0 96 42 96 95s-43 95-95 95c-45 0-83-32-93-75l-27 4-9-55c-5 32-15 76-15 76l-33-7c-15 33-48 56-87 56-53 0-95-43-95-96s42-96 95-96c48 0 88 36 94 82l8-37-47-59zm444.5 175c36.3 0 65.8-29.6 65.8-66 0-36.3-29.5-65.8-65.8-65.8-36.4 0-66 29.5-66 66 0 36.2 29.6 65.7 66 65.7zm266 .2c36.2 0 65.7-29.5 65.7-65.8 0-36.4-29.5-66-65.8-66s-66 29.6-66 66c0 36.3 29.6 65.8 66 65.8zm-62-279.4c21.3 0 38.6-17.3 38.6-38.5S832 1052 810.8 1052s-38.5 17.2-38.5 38.5c0 21.2 17.2 38.5 38.5 38.5zm-97 94.4l45.5-42.4c36.7 36 78.2 43 114.5 49.3 2-20 3.4-34.2 4.2-38.2-64-8-92-35-102-47-1-6-4-13-9-18-13-14-35-14-49-1l-60 56c-14 13-15 35-2 49 2 3 4 5 7 6l51 48-15 45c-8-45-47-80-95-80-53 0-96 43-96 96s43 95 96 95c44 0 82-30 92-72l27 9s8-22 15-45l13 57 30-7c14 35 48 60 88 60 53 0 95-43 95-96s-43-95-95-95c-47 0-87 34-94 79-5-26-11-53-14-58-5-7-40-36-52-45zm393 184.7c36.3 0 65.8-29 65.8-65s-29.5-66-65.8-66-66 30-66 66c0 37 29.6 66 66 66zm267 1c36.2 0 65.7-29 65.7-66s-29.5-66-65.8-66-66 30-66 66c0 37 29.6 66 66 66zm-64-280c21.4 0 38.6-17 38.6-38s-17.2-38-38.5-38-38.5 18-38.5 39 17.2 39 38.5 39zm64 310c52.6 0 95.4-42 95.4-95s-42-95-95-95-95 43-95 96 43 96 96 96zm-210-203c-2.5-1-5-3-7-6-13-14-12.3-35 1.6-48l59.3-55c14-13 35.6-12 48.5 2 5 5 8 11 9 17 9 10 34 39 104 50-1 4-3 18-5 38-36-7-81-15-115-50l-43 41c21 12 47 29 49 37 1 4-1 15-5 29 8 22 25 105 25 105l-37 8-10-46-2 8-31-12c-3 49-44 88-95 88-53 0-95-42-95-95s43-95 96-95c50 0 91 38 95 87l14-43-52-56zm443 175c36.3 0 65.8-29 65.8-66 0-36-29.5-66-65.8-66s-66 30-66 66 29.6 66 66 66zm266-1c36.2 0 65.7-29 65.7-66s-29.5-66-65.8-66-66 30-66 66c0 37 29.6 66 66 66zm-65-282c21.3 0 38.6-17 38.6-38s-17.3-38-38.5-38-38.5 17-38.5 39 17.2 39 38.5 39zM1607 1439c52.6 0 95.4-42.8 95.4-95.5s-42.8-95.5-95.5-95.5-96 42.6-96 95.3 42 95.5 95 95.5zm265.6-.8c52.7 0 95.5-43 95.5-96s-42-95.2-95-95.2-95 42.7-95 95.4 43 95.7 96 95.7zM1719 1217l38.5-37.4c44.4 41.2 104.7 48.6 115.6 50.4 2-20 5-34 6-38-62-7.7-95-39.3-104-48.7-1-6.8-4-13.4-9-18.7-13-13.6-35-14-48-.8l-59 56.2c-13 13.8-14 35-1 49l3 2 55 74 2 8.8-6 25.6 12 3 13 66 38-6-16-87.8c9-27 19-62 14-71.2-5-8-38-21.4-49-25.8zm387.7 191c36.3 0 65.8-29.4 65.8-65.7 0-36.4-29.5-66-65.8-66s-66 29.6-66 66c0 36.3 29.6 65.8 66 65.8zm266 .4c36.2 0 65.7-29.5 65.7-65.8 0-36.4-29.5-66-65.8-66s-66 29.6-66 66c0 36.3 29.6 65.8 66 65.8zm-66.7-284.8c21.2 0 38.5-17.2 38.5-38.5s-17.3-38-38.5-38-38.5 17-38.5 39 17.2 39 38.5 39zm-199 314c52.6 0 95.4-42.6 95.4-95.4s-42.8-95.5-95.5-95.5-96 42.8-96 95.5 42 95.5 95 95.5zm265.6.3c52.7 0 95.5-43 95.5-96s-42-96-95-96-95 42-95 95 43 95 96 95zM2219 1253c5.3 8 10.4 15.7 14.5 22.4l1.8-15.8-16.2-6.5zm2.5-38.6l35.3-36.5c39.5 38 104.7 50 115.4 52 2.3-20 5.5-34 6.4-38-65.5-11-99-44-106.4-52-1.3-7-4.6-13-9.8-18-13.6-13-35.3-13-48.5 1l-57 58c-13 13-13 35 1 48l47 73 11 106 38-4s-3-34-7-65l13 2c0-10 19-95 9-108-9-11-37-18-51-23zm385.2 193.7c36.3 0 65.8-29 65.8-65s-29.5-66-65.8-66-66 30-66 66c0 37 29.6 66 66 66zm267 1c36.2 0 65.7-29 65.7-66s-29.5-66-65.8-66-66 30-66 66c0 37 29.6 66 66 66zm-69.4-286c21.2 0 38.5-17 38.5-38s-17.3-38-38.5-38-38.5 18-38.5 39 17.2 39 38.5 39zM2607 1438c52.6 0 95.4-42.8 95.4-95.6s-42.8-95.5-95.5-95.5-96 42-96 95 42 95 95 95zm266.6 0c52.7 0 95.5-42.8 95.5-95.6s-42-95.5-95-95.5-95 42-95 95 43 95 96 95zm-134.2-152.2l-.2-23-18-7.4 17.3 27.6c.4.5.7 1.5 1 2.8zm-80-54.7l-1.5-1c-14-13-14-35-1-48l56-58c13-13 35-14 48-1 5 5 8 12 10 18 15 15 47 42 107 52-1 4-5 19-7 39-27-6-74-15-117-53l-36 38c12 5 51 20 54 27 5 9 3 105 3 105h-36c0 29-1 57-1 57h-39l2-101-45-69zm447.3 178c36.3 0 65.8-29 65.8-65s-29.5-66-65.8-66-66 30-66 66c0 37 29.6 66 66 66zm267-1c36.2 0 65.7-29 65.7-66s-29.5-66-65.8-66-66 30-66 66c0 37 29.6 66 66 66zm-72.5-287c21.2 0 38.5-17 38.5-38s-17.3-38-38.5-38-38.5 17-38.5 39 17.2 39 38.5 39zM3159 1230l-1.5-1.4c-13.7-13.2-14-35-1-48.5l56.5-58c13-13 35-14 48.5-1 5 5 8.4 11 9.7 18 25.4 26 62.5 45 107.4 54-1 4-5.2 18-7.6 38-33.2-7-79.6-20-115.3-53l-39.4 41c21.4 12 49 25 55.4 34 2 7 6.7 37 10.7 63 12-38 48.3-67 91.2-67 52.7 0 95.5 43 95.5 96s-42 95-95 95c-47 0-87-35-94-80l-29 4-7-52c-4 35-13 86-13 86l-38-6c-16 30-48 51-84 51-53 0-95-43-95-95s43-95 96-95c48 0 88 35 95 81l6-34-48-65z" clip-rule="evenodd"/></svg>
