<svg xmlns="http://www.w3.org/2000/svg" width="720" height="400" viewBox="0 0 720 400"><linearGradient id="a" x1="42.5123" x2="266.6727" y1="242.0161" y2="242.0161" gradientUnits="userSpaceOnUse" gradientTransform="matrix(1.051 -.0006 -.0006 1.0489 -14.12 -16.13)"><stop offset="0" style="stop-color:#111111;stop-opacity:0.03"/><stop offset="1" style="stop-color:#111111;stop-opacity:0.1"/></linearGradient><path fill="url(#a)" d="M265.96 323.17L87.9 370.08l-57.44-218 178.06-46.92"/><path fill="#FFF" d="M33.32625 154.053l169.3894-44.63332 54.77435 207.876-169.3894 44.6333z"/><path fill="#B2EBF2" d="M48.69246 161.9244l142.80656-37.62887 48.49353 184.03944L97.186 345.96383z"/><path fill="#90CAF9" d="M48.7972 161.7973l142.8361-37.5255 48.3603 184.0775-142.8361 37.5255z"/><path fill="#1E88E5" d="M64.35404 181.29355l123.7809-31.86553 36.72437 142.655-123.78087 31.86553z"/><path fill="#1565C0" d="M96.57532 269.63006L203.845 242.0151l8.81773 34.2523-107.26967 27.61497z"/><path fill="#42A5F5" d="M206.31 248.41c-1.28 2.4-12.25-2.41-22.79 6.54-1.29 1.1 9.34-.64 10.3 3.09 1.54 5.97-9.4 10.39-12.04 11.61-5.62 2.6-21.61 8.33-35.87 11.53-14.25 3.19-22.03 5.38-31.52 6.62s-18-2.1-22.92-2.15c-4.93-.05-5.36 12.98-5.36 12.98L102.5 311l115.45-32.9-11.64-29.69z"/><path fill="#90CAF9" d="M235.01 306.57L96.16 342.32 50.34 164.35l138.85-35.75 45.82 177.97zM129.97 184.29l-48.29 12.43 25.87 100.48 48.29-12.43-25.87-100.48zm51.71-13.32L133.4 183.4l25.87 100.48 48.29-12.43-25.88-100.48z"/><path fill="#BBDEFB" d="M118.38 195.99c-11.03 9.17-5.56 28.71 10.11 25.52-7.43-2.7-14.14-12.57-10.11-25.52zM167.25 214.08l-1.27-1.11-1.63.42.66-1.55-.9-1.43 1.68.16 1.07-1.3.38 1.64 1.56.62-1.44.87M100.08 209.88l-1.91-.72-1.67 1.17.1-2.04-1.62-1.23 1.96-.54.67-1.92 1.12 1.7 2.03.04-1.27 1.59M194.16 216.94l-.91-.16-.65.67-.14-.92-.83-.41.83-.41.13-.92.65.66.92-.16-.43.82M180.75 197.04l-.75-.14-.54.54-.1-.76-.68-.34.69-.33.12-.75.52.55.76-.12-.37.67M113.9 241.88l-1.12-.21-.81.8-.15-1.13-1.01-.52 1.03-.49.18-1.13.79.83 1.12-.17-.54 1M176.82 237.16l-1.41-.1-.89 1.1-.33-1.37-1.33-.51 1.21-.74.07-1.41 1.07.91 1.37-.37-.54 1.31"/><g fill="#BBDEFB"><ellipse cx="135.69" cy="264.94" transform="rotate(-14.436 135.725 264.986)" rx="4.59" ry=".22"/><ellipse cx="129.16" cy="270.06" transform="rotate(-14.436 129.19 270.11)" rx="5.63" ry=".32"/><ellipse cx="132.28" cy="270.5" transform="rotate(-14.436 132.314 270.55)" rx="5.63" ry=".32"/><ellipse cx="131.22" cy="272.07" transform="rotate(-14.436 131.25 272.116)" rx="5.63" ry=".32"/><ellipse cx="135.18" cy="272.4" transform="rotate(-14.436 135.214 272.453)" rx="5.63" ry=".32"/><ellipse cx="135.33" cy="273.81" transform="rotate(-14.436 135.36 273.855)" rx="5.63" ry=".32"/><ellipse cx="131.72" cy="268.14" transform="rotate(-14.436 131.746 268.186)" rx="5.63" ry=".32"/><ellipse cx="133.36" cy="266.58" transform="rotate(-14.436 133.39 266.63)" rx="5.63" ry=".32"/><ellipse cx="137.88" cy="274.43" transform="rotate(-14.436 137.912 274.48)" rx="3.95" ry=".23"/><ellipse cx="140.66" cy="274.8" transform="rotate(-14.436 140.695 274.85)" rx="3.95" ry=".23"/><ellipse cx="137.23" cy="263.46" transform="rotate(-14.436 137.26 263.502)" rx="3.95" ry=".23"/></g><linearGradient id="b" x1="77.733" x2="77.733" y1="243.8924" y2="215.7397" gradientUnits="userSpaceOnUse" gradientTransform="rotate(-14.436 407.59 65.238)"><stop offset="0" style="stop-color:#90CAF9"/><stop offset="1" style="stop-color:#BBDEFB"/></linearGradient><path fill="url(#b)" d="M102.4 328.28l57.82-14.89-4.25-27.97-48.25 12.42"/><linearGradient id="c" x1="143.8988" x2="143.8988" y1="243.8924" y2="215.7397" gradientUnits="userSpaceOnUse" gradientTransform="rotate(-14.436 407.59 65.238)"><stop offset="0" style="stop-color:#90CAF9"/><stop offset="1" style="stop-color:#BBDEFB"/></linearGradient><path fill="url(#c)" d="M227.07 296.18l-57.82 14.89-9.79-26.55 48.25-12.43"/><path fill="#BBDEFB" d="M108.13 185.15s80.7 24.68 83.74 90.3c1.06 22.84 13.03-15.58 21.78-13.29 5.86 1.53 14.32.74 14.32.74l-20.76-79.14c-1.6-1.74-3.42-3.51-5.49-5.26-7.6-6.41-15.52-9.83-21.57-11.72-24.01 6.11-48.01 12.24-72.02 18.37z" opacity=".5"/><path fill="#BBDEFB" d="M108.13 185.15s80.7 24.68 83.74 90.3c.1 2.15.3 3.76.58 4.91 2.71 11.05 13.27-20.27 21.2-18.2 3.82 1-9.42-37.25-42.2-56.08-27.18-15.62-63.32-20.93-63.32-20.93z" opacity=".5"/><path fill="#42A5F5" d="M178.93 164.92L80.74 190.2c-.6.15-.95.76-.8 1.36.15.6.76.95 1.36.8l98.19-25.28c.6-.15.95-.76.8-1.36-.16-.6-.76-.96-1.36-.8z"/><linearGradient id="d" x1="424.2116" x2="703.9774" y1="269.5894" y2="269.5894" gradientUnits="userSpaceOnUse" gradientTransform="matrix(1.0446 -.0035 -.0035 1.0593 -28.447 -20.194)"><stop offset="0" style="stop-color:#111111;stop-opacity:0.03"/><stop offset="1" style="stop-color:#111111;stop-opacity:0.1"/></linearGradient><path fill="url(#d)" d="M667.22 379.18l-253.66-56.49 38.97-174.98 253.66 56.48"/><path fill="#FFF" d="M455.33468 151.2487l243.00986 54.1239-36.76452 165.06827-243.00985-54.1239z"/><path fill="#FDBD92" d="M463.54834 163.65865l221.76016 49.3911-32.11215 144.17974-221.76016-49.39112z"/><radialGradient id="e" cx="647.6939" cy="256.7928" r="19.4462" gradientUnits="userSpaceOnUse"><stop offset="0" style="stop-color:#E65100;stop-opacity:0"/><stop offset="1" style="stop-color:#E65100;stop-opacity:0.15"/></radialGradient><path fill="url(#e)" d="M654.02 249.46l-2.92-1.98c.28-.77.53-1.55.71-2.37 2.26-10.16-4.14-20.24-14.3-22.5-10.16-2.26-20.24 4.14-22.5 14.3-2.26 10.16 4.14 20.24 14.3 22.5 7.25 1.61 14.43-1.19 18.79-6.61l3.42 1.4c.61.25 1.32-.01 1.62-.59l1.3-2.49c.3-.58.12-1.3-.42-1.66z"/><radialGradient id="f" cx="551.3937" cy="247.7354" r="40.0507" gradientUnits="userSpaceOnUse"><stop offset="0" style="stop-color:#E65100;stop-opacity:0"/><stop offset="1" style="stop-color:#E65100;stop-opacity:0.15"/></radialGradient><path fill="url(#f)" d="M551 249.84l-80.81 8.19c-1.22.12-2.32-.77-2.44-1.99L462.17 201c-.12-1.22.77-2.32 1.99-2.44l80.81-8.19c1.22-.12 2.32.77 2.44 1.99l5.58 55.04c.12 1.22-.77 2.31-1.99 2.44z"/><path fill="#64B5F6" d="M547.73 247.22l-80.81 8.19c-1.22.12-2.32-.77-2.44-1.99l-5.58-55.04c-.12-1.22.77-2.32 1.99-2.44l80.81-8.19c1.22-.12 2.32.77 2.44 1.99l5.58 55.04c.12 1.22-.77 2.32-1.99 2.44z"/><path fill="#DFDFDF" d="M462.6698 199.65882l39.37814-3.98966 5.29503 52.2621-39.37814 3.98966z"/><path fill="#FFF" d="M467.77 249.93c3.68-2.08 10.4-5.24 19.41-6.13 8.86-.87 15.97.85 19.97 2.14-1.77-17.42-3.53-34.84-5.3-52.26-4.15-1.22-10.89-2.65-19.17-1.96-9.24.77-16.23 3.84-20.2 5.95 1.76 17.42 3.52 34.84 5.29 52.26z"/><path fill="#DFDFDF" d="M501.809 195.68826l39.37815-3.98967 5.29503 52.2621-39.37814 3.98965z"/><path fill="#FFF" d="M501.5991 193.69907l39.37813-3.98966 5.29503 52.2621-39.37814 3.98967z"/><path fill="#CFD8DC" d="M507.26658 199.1822l29.19037-2.95746.14918 1.47245-29.19036 2.95747zM507.69655 203.38175l29.19037-2.95747.14918 1.47245-29.19037 2.95747zM508.1259 207.68238l29.19036-2.95748.1492 1.47246-29.19038 2.95747z"/><path fill="#ECEFF1" d="M507.26658 199.1822l29.19037-2.95746.14918 1.47245-29.19036 2.95747zM497.41 201.54c-3.02-.95-8.35-2.2-14.98-1.51-6.54.68-11.45 2.94-14.2 4.47l-.15-1.47c2.7-1.53 7.63-3.88 14.27-4.56 6.65-.68 11.97.64 14.92 1.6.04.49.09.98.14 1.47zM501.34 240.28c-3.02-.95-8.35-2.2-14.98-1.51-6.54.68-11.45 2.94-14.2 4.47l-.15-1.47c2.7-1.53 7.63-3.88 14.27-4.56 6.65-.68 11.97.64 14.92 1.6.04.49.09.98.14 1.47z"/><path fill="#ECEFF1" d="M497.84 205.75c-3.02-.95-8.35-2.2-14.98-1.51-6.54.68-11.45 2.94-14.2 4.47l-.15-1.47c2.7-1.53 7.63-3.88 14.27-4.56 6.65-.68 11.97.64 14.92 1.6.04.49.09.98.14 1.47z"/><path fill="#ECEFF1" d="M498.29 210.17c-3.02-.95-8.35-2.2-14.98-1.51-6.54.68-11.45 2.94-14.2 4.47l-.15-1.47c2.7-1.53 7.63-3.88 14.27-4.56 6.65-.68 11.97.64 14.92 1.6.04.49.09.98.14 1.47z"/><path fill="#ECEFF1" d="M498.7 214.28c-3.02-.95-8.35-2.2-14.98-1.51-6.54.68-11.45 2.94-14.2 4.47l-.15-1.47c2.7-1.53 7.63-3.88 14.27-4.56 6.65-.68 11.97.64 14.92 1.6.04.49.09.98.14 1.47z"/><path fill="#ECEFF1" d="M499.13 218.49c-3.02-.95-8.35-2.2-14.98-1.51-6.54.68-11.45 2.94-14.2 4.47l-.15-1.47c2.7-1.53 7.63-3.88 14.27-4.56 6.65-.68 11.97.64 14.92 1.6.04.49.09.98.14 1.47z"/><path fill="#ECEFF1" d="M499.58 222.91c-3.02-.95-8.35-2.2-14.98-1.51-6.54.68-11.45 2.94-14.2 4.47l-.15-1.47c2.7-1.53 7.63-3.88 14.27-4.56 6.65-.68 11.97.64 14.92 1.6.04.49.09.98.14 1.47z"/><path fill="#ECEFF1" d="M500.01 227.23c-3.02-.95-8.35-2.2-14.98-1.51-6.54.68-11.45 2.94-14.2 4.47l-.15-1.47c2.7-1.53 7.63-3.88 14.27-4.56 6.65-.68 11.97.64 14.92 1.6.04.49.09.98.14 1.47z"/><path fill="#ECEFF1" d="M500.44 231.44c-3.02-.95-8.35-2.2-14.98-1.51-6.54.68-11.45 2.94-14.2 4.47l-.15-1.47c2.7-1.53 7.63-3.88 14.27-4.56 6.65-.68 11.97.64 14.92 1.6.04.49.09.98.14 1.47z"/><path fill="#ECEFF1" d="M500.89 235.86c-3.02-.95-8.35-2.2-14.98-1.51-6.54.68-11.45 2.94-14.2 4.47l-.15-1.47c2.7-1.53 7.63-3.88 14.27-4.56 6.65-.68 11.97.64 14.92 1.6.04.49.09.98.14 1.47zM507.69655 203.38175l29.19037-2.95747.14918 1.47245-29.19037 2.95747zM508.1259 207.68238l29.19036-2.95748.1492 1.47246-29.19038 2.95747zM508.56644 212.0425l29.19037-2.95748.1492 1.47245-29.19037 2.95747zM508.9964 216.24192l29.19037-2.95747.1492 1.47245-29.19038 2.95748zM509.42676 220.5526l29.19037-2.95747.14918 1.47245-29.19035 2.95747zM509.8765 224.98245l29.19038-2.95748.14918 1.47246-29.19036 2.95747zM510.30648 229.18198l29.19036-2.95747.1492 1.47246-29.19038 2.95747zM510.74577 233.4816l29.19037-2.95747.14918 1.47245-29.19036 2.95747zM511.1762 237.76193l29.19037-2.95747.1492 1.47245-29.19038 2.95748z"/><ellipse cx="630.41" cy="237.01" fill="#FFF" transform="rotate(-77.444 630.417 236.996)" rx="18.85" ry="18.85"/><ellipse cx="630.41" cy="237.01" fill="#8D6E63" transform="rotate(-77.444 630.417 236.996)" rx="14.72" ry="14.72"/><path fill="#816359" d="M618.52 235.97c1.77-7.94 9.63-12.94 17.57-11.17 1.9.42 3.63 1.2 5.14 2.24-1.96-2.14-4.58-3.72-7.62-4.39-7.94-1.77-15.8 3.23-17.57 11.17-1.34 6.04 1.23 12.03 6.03 15.34-3.15-3.44-4.64-8.3-3.55-13.19z"/><path fill="#FFF" d="M653.02 246.46l-4.84-3.28c-.08-.05-.17-.07-.26-.08-.71 2.1-1.75 4.02-3.04 5.72.05.06.11.12.19.15l5.44 2.22c.61.25 1.32-.01 1.62-.59l1.3-2.49c.31-.57.13-1.29-.41-1.65z"/><path fill="#F57C00" d="M542.62 280.19c.07-.45-.23-.87-.68-.94l-2.03-.33c-.45-.07-.87.23-.94.68l-.33 2.03c-.07.45.23.87.68.94l2.03.33c.45.07.87-.23.94-.68l.33-2.03z"/><radialGradient id="g" cx="597.2349" cy="320.3368" r="44.5548" gradientUnits="userSpaceOnUse"><stop offset="0" style="stop-color:#E65100;stop-opacity:0"/><stop offset="1" style="stop-color:#E65100;stop-opacity:0.15"/></radialGradient><circle cx="568.28" cy="291.38" r="44.55" fill="url(#g)"/><ellipse cx="563.7" cy="286.26" fill="#FFF" transform="rotate(-77.444 563.712 286.253)" rx="44.55" ry="44.55"/><path fill="#D84315" d="M542.41 285.4s-1.53-.54-3.11 3.59-3.23 4.75-3.7 9.2c-.42 4.05.65 6.88 3.99 8.4 2.27 1.03 4.34.11 6.45 1.5 1.95 1.29 1.66 3.2 2.48 6.02.88 3.02 3.5 5.08 6.31 6.02 2.33.78 7.67.79 9.96-.62 2.3-1.41 4.24-3.81 6.49-3.7 5.64.28 4.07-2.48 5.32-4.17 1.22-1.65 4.26-2.33 6.21-2.57 7.15-.9 7.47-8.68 7.48-11.39.01-2.7 1.46-4.49-.69-7.54s-14.7-5.04-17.71-6.63c-3-1.58-29.48 1.89-29.48 1.89z"/><radialGradient id="h" cx="582.0305" cy="305.1593" r="27.0763" gradientUnits="userSpaceOnUse"><stop offset="0" style="stop-color:#E65100;stop-opacity:0"/><stop offset="1" style="stop-color:#E65100;stop-opacity:0.15"/></radialGradient><circle cx="566.38" cy="288.96" r="27.07" fill="url(#h)"/><ellipse cx="563.38" cy="285.96" fill="#FFE082" transform="rotate(-80.874 563.402 285.97)" rx="27.07" ry="27.07"/><g fill="#FFA726"><path d="M551.97 279.51c.1-.62-.32-1.21-.94-1.31l-2.82-.45c-.62-.1-1.21.32-1.31.95l-.45 2.82c-.1.62.32 1.21.94 1.31l2.82.45c.62.1 1.21-.32 1.31-.95l.45-2.82zM550.94 285.91c.1-.62-.32-1.21-.94-1.31l-2.82-.45c-.62-.1-1.21.32-1.31.95l-.45 2.82c-.1.62.32 1.21.94 1.31l2.82.45c.62.1 1.21-.32 1.31-.95l.45-2.82zM552.99 273.18c.1-.62-.32-1.21-.94-1.31l-2.82-.45c-.62-.1-1.21.32-1.31.95l-.45 2.82c-.1.62.32 1.21.94 1.31l2.82.45c.62.1 1.21-.32 1.31-.94l.45-2.83zM554.57 263.35l.2-1.22c-1.34.49-2.62 1.09-3.85 1.78l2.35.38c.61.1 1.2-.32 1.3-.94zM553.99 266.93c.1-.62-.32-1.21-.94-1.31l-2.82-.45c-.62-.1-1.21.32-1.31.95l-.45 2.82c-.1.62.32 1.21.94 1.31l2.82.45c.62.1 1.21-.32 1.31-.95l.45-2.82zM560.1 267.91c.1-.62-.32-1.21-.95-1.31l-2.82-.45c-.62-.1-1.21.32-1.31.95l-.45 2.82c-.1.62.32 1.21.95 1.31l2.82.45c.62.1 1.21-.32 1.31-.95l.45-2.82zM549.95 292.08c.1-.62-.32-1.21-.94-1.31l-2.82-.45c-.62-.1-1.21.32-1.31.95l-.45 2.82c-.1.62.32 1.21.94 1.31l2.82.45c.62.1 1.21-.32 1.31-.95l.45-2.82zM548.01 296.98l-2.82-.45c-.62-.1-1.21.32-1.31.95l-.45 2.82c-.1.62.32 1.21.94 1.31l2.82.45c.62.1 1.21-.32 1.31-.95l.45-2.82c.1-.62-.32-1.21-.94-1.31zM538.74 283.95c.07-.45-.14-.88-.49-1.12-.19 1.49-.26 2.97-.18 4.43.11-.14.19-.3.22-.49l.45-2.82zM539.31 280.37l.45-2.82c.03-.21-.01-.41-.09-.6-.53 1.38-.91 2.84-1.19 4.34.42-.12.76-.46.83-.92zM546.13 269.71c.62.1 1.21-.32 1.31-.95l.45-2.82v-.01c-1.33 1.03-2.56 2.19-3.67 3.47l1.91.31zM542.09 294.87c.62.1 1.21-.32 1.31-.95l.45-2.82c.1-.62-.32-1.21-.95-1.31l-2.82-.45c-.62-.1-1.21.32-1.31.95l-.16.99c.23 1.08.52 2.14.89 3.17l2.59.42zM542.3 275.52l2.82.45c.62.1 1.21-.32 1.31-.94l.45-2.82c.1-.62-.32-1.21-.95-1.31l-2.63-.42c-.65.84-1.24 1.75-1.78 2.68l-.17 1.06c-.09.61.33 1.2.95 1.3zM541.9 296l-1.9-.31c.65 1.56 1.45 3.04 2.39 4.43l.45-2.82c.11-.61-.31-1.2-.94-1.3zM545.87 278.53c.1-.62-.32-1.21-.95-1.31l-2.82-.45c-.62-.1-1.21.32-1.31.95l-.45 2.82c-.1.62.32 1.21.94 1.31l2.82.45c.62.1 1.21-.32 1.31-.95l.46-2.82zM543.89 283.62l-2.82-.45c-.62-.1-1.21.32-1.31.95l-.45 2.82c-.1.62.32 1.21.94 1.31l2.82.45c.62.1 1.21-.32 1.31-.95l.45-2.82c.11-.62-.32-1.21-.94-1.31zM564.15 281.47c.1-.62-.32-1.21-.94-1.31l-2.82-.45c-.62-.1-1.21.32-1.31.95l-.45 2.82c-.1.62.32 1.21.95 1.31l2.82.45c.62.1 1.21-.32 1.31-.95l.44-2.82zM563.12 287.86c.1-.62-.32-1.21-.94-1.31l-2.82-.45c-.62-.1-1.21.32-1.31.95l-.45 2.82c-.1.62.32 1.21.95 1.31l2.82.45c.62.1 1.21-.32 1.31-.95l.44-2.82zM559.21 305.02l-2.82-.45c-.62-.1-1.21.32-1.31.95l-.45 2.82c-.1.62.32 1.21.95 1.31l2.82.45c.62.1 1.21-.32 1.31-.95l.45-2.82c.09-.62-.33-1.21-.95-1.31zM562.13 294.04c.1-.62-.32-1.21-.94-1.31l-2.82-.45c-.62-.1-1.21.32-1.31.95l-.45 2.82c-.1.62.32 1.21.95 1.31l2.82.45c.62.1 1.21-.32 1.31-.95l.44-2.82zM571.45 306.99l-2.82-.45c-.62-.1-1.21.32-1.31.95l-.45 2.82c-.04.27.03.53.16.75 1.77-.26 3.49-.72 5.14-1.33l.23-1.42c.09-.64-.33-1.22-.95-1.32zM561.13 300.25c.1-.62-.32-1.21-.94-1.31l-2.82-.45c-.62-.1-1.21.32-1.31.95l-.45 2.82c-.1.62.32 1.21.95 1.31l2.82.45c.62.1 1.21-.32 1.31-.95l.44-2.82zM556.54 264.82l2.82.45c.62.1 1.21-.32 1.31-.95l.45-2.82c.04-.27-.03-.53-.16-.76-1.75.17-3.45.51-5.09 1.02l-.28 1.74c-.09.63.33 1.22.95 1.32zM566.17 268.88c.1-.62-.32-1.21-.94-1.31l-2.82-.45c-.62-.1-1.21.32-1.31.95l-.45 2.82c-.1.62.32 1.21.95 1.31l2.82.45c.62.1 1.21-.32 1.31-.95l.44-2.82zM557.05 286.89c.1-.62-.32-1.21-.95-1.31l-2.82-.45c-.62-.1-1.21.32-1.31.95l-.45 2.82c-.1.62.32 1.21.95 1.31l2.82.45c.62.1 1.21-.32 1.31-.95l.45-2.82zM554.11 297.96l-2.82-.45c-.62-.1-1.21.32-1.31.95l-.45 2.82c-.1.62.32 1.21.95 1.31l2.82.45c.62.1 1.21-.32 1.31-.95l.45-2.82c.1-.62-.33-1.21-.95-1.31zM558.07 280.49c.1-.62-.32-1.21-.95-1.31l-2.82-.45c-.62-.1-1.21.32-1.31.95l-.45 2.82c-.1.62.32 1.21.95 1.31l2.82.45c.62.1 1.21-.32 1.31-.95l.45-2.82zM567.2 262.48c.1-.62-.32-1.21-.94-1.31l-2.82-.45c-.62-.1-1.21.32-1.31.95l-.45 2.82c-.1.62.32 1.21.95 1.31l2.82.45c.62.1 1.21-.32 1.31-.95l.44-2.82zM559.09 274.16c.1-.62-.32-1.21-.95-1.31l-2.82-.45c-.62-.1-1.21.32-1.31.95l-.45 2.82c-.1.62.32 1.21.95 1.31l2.82.45c.62.1 1.21-.32 1.31-.94l.45-2.83zM565.16 275.14c.1-.62-.32-1.21-.94-1.31l-2.82-.45c-.62-.1-1.21.32-1.31.95l-.45 2.82c-.1.62.32 1.21.95 1.31l2.82.45c.62.1 1.21-.32 1.31-.94l.44-2.83zM556.05 293.07c.1-.62-.32-1.21-.95-1.31l-2.82-.45c-.62-.1-1.21.32-1.31.95l-.45 2.82c-.1.62.32 1.21.95 1.31l2.82.45c.62.1 1.21-.32 1.31-.95l.45-2.82zM573.91 266.45c-.1.62.32 1.21.95 1.31l2.82.45c.62.1 1.21-.32 1.31-.95l.18-1.12c-1.42-1.14-2.97-2.14-4.63-2.95-.08.13-.14.27-.17.44l-.46 2.82zM582.81 296.21c-.62-.1-1.21.32-1.31.95l-.45 2.82c-.1.62.32 1.21.95 1.31l1.4.23c1.09-1.4 2.03-2.92 2.81-4.54-.16-.15-.35-.27-.58-.3l-2.82-.47zM574.94 298.99c-.1.62.32 1.21.94 1.31l2.82.45c.62.1 1.21-.32 1.31-.95l.45-2.82c.1-.62-.32-1.21-.95-1.31l-2.82-.45c-.62-.1-1.21.32-1.31.95l-.44 2.82zM580.5 303.36l-.24 1.49c.8-.72 1.55-1.5 2.26-2.32l-.71-.11c-.62-.11-1.21.32-1.31.94zM575.93 292.82c-.1.62.32 1.21.94 1.31l2.82.45c.62.1 1.21-.32 1.31-.95l.45-2.82c.1-.62-.32-1.21-.95-1.31l-2.82-.45c-.62-.1-1.21.32-1.31.95l-.44 2.82zM578.53 301.89l-2.82-.45c-.62-.1-1.21.32-1.31.95l-.45 2.82c-.1.62.32 1.21.94 1.31l2.66.43c.51-.35 1.01-.71 1.49-1.1l.43-2.65c.1-.63-.32-1.21-.94-1.31zM576.96 286.42c-.1.62.32 1.21.94 1.31l2.82.45c.62.1 1.21-.32 1.31-.95l.45-2.82c.1-.62-.32-1.21-.95-1.31l-2.82-.45c-.62-.1-1.21.32-1.31.95l-.44 2.82zM574.73 307.51c-.62-.1-1.21.32-1.31.95l-.13.8c1.03-.44 2.03-.93 2.99-1.49l-1.55-.26zM578.92 281.4l2.82.45c.62.1 1.21-.32 1.31-.94l.45-2.82c.1-.62-.32-1.21-.95-1.31l-2.82-.45c-.62-.1-1.21.32-1.31.95l-.45 2.82c-.09.61.33 1.2.95 1.3zM582.04 293.8c-.1.62.32 1.21.95 1.31l2.82.45c.62.1 1.21-.32 1.31-.95l.45-2.82c.1-.62-.32-1.21-.94-1.31l-2.82-.45c-.62-.1-1.21.32-1.31.95l-.46 2.82zM580.96 268.74l1.16.19c-.64-.7-1.32-1.36-2.03-1.99l-.08.49c-.1.63.33 1.21.95 1.31zM568.23 262.65l-.45 2.82c-.1.62.32 1.21.95 1.31l2.82.45c.62.1 1.21-.32 1.31-.95l.45-2.82c.06-.35-.06-.68-.28-.92-.41-.17-.82-.33-1.24-.48l-2.24-.36c-.64-.1-1.22.32-1.32.95zM583.43 270.5l-2.68-.43c-.62-.1-1.21.32-1.31.95l-.45 2.82c-.1.62.32 1.21.94 1.31l2.82.45c.62.1 1.21-.32 1.31-.95l.43-2.66c-.34-.51-.69-1.01-1.06-1.49zM584.01 288.71l2.82.45c.62.1 1.21-.32 1.31-.95l.45-2.82c.1-.62-.32-1.21-.94-1.31l-2.82-.45c-.62-.1-1.21.32-1.31.95l-.45 2.82c-.1.62.32 1.21.94 1.31zM585.84 277.3c-.62-.1-1.21.32-1.31.95l-.45 2.82c-.1.62.32 1.21.95 1.31l2.82.45c.24.04.46-.02.66-.11-.23-1.78-.64-3.52-1.23-5.18l-1.44-.24zM586.03 276.12l.72.12c-.42-1.01-.88-1.99-1.43-2.93l-.24 1.51c-.09.62.33 1.2.95 1.3zM547.03 303.07l-2.74-.44c1.04 1.19 2.19 2.28 3.44 3.27l.24-1.52c.11-.63-.32-1.21-.94-1.31zM564.72 284.45c-.1.62.32 1.21.95 1.31l2.82.45c.62.1 1.21-.32 1.31-.95l.45-2.82c.1-.62-.32-1.21-.95-1.31l-2.82-.45c-.62-.1-1.21.32-1.31.95l-.45 2.82zM563.7 290.85c-.1.62.32 1.21.95 1.31l2.82.45c.62.1 1.21-.32 1.31-.95l.45-2.82c.1-.62-.32-1.21-.95-1.31l-2.82-.45c-.62-.1-1.21.32-1.31.95l-.45 2.82zM562.7 297.03c-.1.62.32 1.21.95 1.31l2.82.45c.62.1 1.21-.32 1.31-.95l.45-2.82c.1-.62-.32-1.21-.95-1.31l-2.82-.45c-.62-.1-1.21.32-1.31.95l-.45 2.82zM561.71 303.23c-.1.62.32 1.21.95 1.31l2.82.45c.62.1 1.21-.32 1.31-.95l.45-2.82c.1-.62-.32-1.21-.95-1.31l-2.82-.45c-.62-.1-1.21.32-1.31.95l-.45 2.82zM567.69 273.18l2.82.45c.62.1 1.21-.32 1.31-.95l.45-2.82c.1-.62-.32-1.21-.95-1.31l-2.82-.45c-.62-.1-1.21.32-1.31.95l-.45 2.82c-.1.62.33 1.21.95 1.31zM553.63 308.18l.45-2.82c.1-.62-.32-1.21-.95-1.31l-2.82-.45c-.62-.1-1.21.32-1.31.95l-.33 2.04c1.32.95 2.74 1.77 4.25 2.45.36-.16.64-.46.71-.86zM565.74 278.13c-.1.62.32 1.21.95 1.31l2.82.45c.62.1 1.21-.32 1.31-.94l.45-2.82c.1-.62-.32-1.21-.95-1.31l-2.82-.45c-.62-.1-1.21.32-1.31.95l-.45 2.81zM568.84 298.01c-.1.62.32 1.21.95 1.31l2.82.45c.62.1 1.21-.32 1.31-.95l.45-2.82c.1-.62-.32-1.21-.95-1.31l-2.82-.45c-.62-.1-1.21.32-1.31.95l-.45 2.82zM569.83 291.84c-.1.62.32 1.21.95 1.31l2.82.45c.62.1 1.21-.32 1.31-.95l.45-2.82c.1-.62-.32-1.21-.95-1.31l-2.82-.45c-.62-.1-1.21.32-1.31.95l-.45 2.82zM570.86 285.44c-.1.62.32 1.21.95 1.31l2.82.45c.62.1 1.21-.32 1.31-.95l.45-2.82c.1-.62-.32-1.21-.95-1.31l-2.82-.45c-.62-.1-1.21.32-1.31.95l-.45 2.82zM567.84 304.22c-.1.62.32 1.21.95 1.31l2.82.45c.62.1 1.21-.32 1.31-.95l.45-2.82c.1-.62-.32-1.21-.95-1.31l-2.82-.45c-.62-.1-1.21.32-1.31.95l-.45 2.82zM571.87 279.11c-.1.62.32 1.21.95 1.31l2.82.45c.62.1 1.21-.32 1.31-.94l.45-2.82c.1-.62-.32-1.21-.95-1.31l-2.82-.45c-.62-.1-1.21.32-1.31.95l-.45 2.81zM573.82 274.16l2.82.45c.62.1 1.21-.32 1.31-.95l.45-2.82c.1-.62-.32-1.21-.95-1.31l-2.82-.45c-.62-.1-1.21.32-1.31.95l-.45 2.82c-.09.63.33 1.21.95 1.31zM560.73 309.32c-.1.62.32 1.21.95 1.31l2.82.45c.62.1 1.21-.32 1.31-.95l.45-2.82c.1-.62-.32-1.21-.95-1.31l-2.82-.45c-.62-.1-1.21.32-1.31.95l-.45 2.82z"/></g><path fill="#D84315" d="M572.6 302.49c.07-.45-.23-.87-.68-.94l-2.03-.33c-.45-.07-.87.23-.94.68l-.33 2.03c-.07.45.23.87.68.94l2.03.33c.45.07.87-.23.94-.68l.33-2.03zM573.65 296.28c.07-.45-.23-.87-.68-.94l-2.03-.33c-.45-.07-.87.23-.94.68l-.33 2.03c-.07.45.23.87.68.94l2.03.33c.45.07.87-.23.94-.68l.33-2.03zM579.79 297.32c.07-.45-.23-.87-.68-.94l-2.03-.33c-.45-.07-.87.23-.94.68l-.33 2.03c-.07.45.23.87.68.94l2.03.33c.45.07.87-.23.94-.68l.33-2.03z"/><path fill="#E64A19" d="M586.91 292.13c.07-.45-.23-.87-.68-.94l-2.03-.33c-.45-.07-.87.23-.94.68l-.33 2.03c-.07.45.23.87.68.94l2.03.33c.45.07.87-.23.94-.68l.33-2.03zM580.8 291.08c.07-.45-.23-.87-.68-.94l-2.03-.33c-.45-.07-.87.23-.94.68l-.33 2.03c-.07.45.23.87.68.94l2.03.33c.45.07.87-.23.94-.68l.33-2.03zM574.73 290.16c.07-.45-.23-.87-.68-.94l-2.03-.33c-.45-.07-.87.23-.94.68l-.33 2.03c-.07.45.23.87.68.94l2.03.33c.45.07.87-.23.94-.68l.33-2.03z"/><path fill="#F57C00" d="M575.74 283.68c.07-.45-.23-.87-.68-.94l-2.03-.33c-.45-.07-.87.23-.94.68l-.33 2.03c-.07.45.23.87.68.94l2.03.33c.45.07.87-.23.94-.68l.33-2.03z"/><path fill="#FB8C00" d="M576.74 277.5c.07-.45-.23-.87-.68-.94l-2.03-.33c-.45-.07-.87.23-.94.68l-.33 2.03c-.07.45.23.87.68.94l2.03.33c.45.07.87-.23.94-.68l.33-2.03zM570.67 276.58c.07-.45-.23-.87-.68-.94l-2.03-.33c-.45-.07-.87.23-.94.68l-.33 2.03c-.07.45.23.87.68.94l2.03.33c.45.07.87-.23.94-.68l.33-2.03zM564.46 275.45c.07-.45-.23-.87-.68-.94l-2.03-.33c-.45-.07-.87.23-.94.68l-.33 2.03c-.07.45.23.87.68.94l2.03.33c.45.07.87-.23.94-.68l.33-2.03zM558.33 274.52c.07-.45-.23-.87-.68-.94l-2.03-.33c-.45-.07-.87.23-.94.68l-.33 2.03c-.07.45.23.87.68.94l2.03.33c.45.07.87-.23.94-.68l.33-2.03zM582.74 278.46c.07-.45-.23-.87-.68-.94l-2.03-.33c-.45-.07-.87.23-.94.68l-.33 2.03c-.07.45.23.87.68.94l2.03.33c.45.07.87-.23.94-.68l.33-2.03z"/><path fill="#F57C00" d="M581.76 284.83c.07-.45-.23-.87-.68-.94l-2.03-.33c-.45-.07-.87.23-.94.68l-.33 2.03c-.07.45.23.87.68.94l2.03.33c.45.07.87-.23.94-.68l.33-2.03zM588.01 285.79c.07-.45-.23-.87-.68-.94l-2.03-.33c-.45-.07-.87.23-.94.68l-.33 2.03c-.07.45.23.87.68.94l2.03.33c.45.07.87-.23.94-.68l.33-2.03zM569.61 282.75c.07-.45-.23-.87-.68-.94l-2.03-.33c-.45-.07-.87.23-.94.68l-.33 2.03c-.07.45.23.87.68.94l2.03.33c.45.07.87-.23.94-.68l.33-2.03zM551.18 279.82c.07-.45-.23-.87-.68-.94l-2.03-.33c-.45-.07-.87.23-.94.68l-.33 2.03c-.07.45.23.87.68.94l2.03.33c.45.07.87-.23.94-.68l.33-2.03zM557.47 280.91c.07-.45-.23-.87-.68-.94l-2.03-.33c-.45-.07-.87.23-.94.68l-.33 2.03c-.07.45.23.87.68.94l2.03.33c.45.07.87-.23.94-.68l.33-2.03z"/><path fill="#E64A19" d="M568.52 289.03c.07-.45-.23-.87-.68-.94l-2.03-.33c-.45-.07-.87.23-.94.68l-.33 2.03c-.07.45.23.87.68.94l2.03.33c.45.07.87-.23.94-.68l.33-2.03zM556.39 287.14c.07-.45-.23-.87-.68-.94l-2.03-.33c-.45-.07-.87.23-.94.68l-.33 2.03c-.07.45.23.87.68.94l2.03.33c.45.07.87-.23.94-.68l.33-2.03z"/><path fill="#F4511E" d="M550.25 286.26c.07-.45-.23-.87-.68-.94l-2.03-.33c-.45-.07-.87.23-.94.68l-.33 2.03c-.07.45.23.87.68.94l2.03.33c.45.07.87-.23.94-.68l.33-2.03z"/><path fill="#D84315" d="M567.53 295.32c.07-.45-.23-.87-.68-.94l-2.03-.33c-.45-.07-.87.23-.94.68l-.33 2.03c-.07.45.23.87.68.94l2.03.33c.45.07.87-.23.94-.68l.33-2.03zM566.5 301.61c.07-.45-.23-.87-.68-.94l-2.03-.33c-.45-.07-.87.23-.94.68l-.33 2.03c-.07.45.23.87.68.94l2.03.33c.45.07.87-.23.94-.68l.33-2.03zM560.55 300.54c.07-.45-.23-.87-.68-.94l-2.03-.33c-.45-.07-.87.23-.94.68l-.33 2.03c-.07.45.23.87.68.94l2.03.33c.45.07.87-.23.94-.68l.33-2.03zM561.39 294.29c.07-.45-.23-.87-.68-.94l-2.03-.33c-.45-.07-.87.23-.94.68l-.33 2.03c-.07.45.23.87.68.94l2.03.33c.45.07.87-.23.94-.68l.33-2.03zM555.4 293.25c.07-.45-.23-.87-.68-.94l-2.03-.33c-.45-.07-.87.23-.94.68l-.33 2.03c-.07.45.23.87.68.94l2.03.33c.45.07.87-.23.94-.68l.33-2.03zM549.17 292.45c.07-.45-.23-.87-.68-.94l-2.03-.33c-.45-.07-.87.23-.94.68l-.33 2.03c-.07.45.23.87.68.94l2.03.33c.45.07.87-.23.94-.68l.33-2.03zM554.33 299.68c.07-.45-.23-.87-.68-.94l-2.03-.33c-.45-.07-.87.23-.94.68l-.33 2.03c-.07.45.23.87.68.94l2.03.33c.45.07.87-.23.94-.68l.33-2.03z"/><path fill="#FFF59D" d="M560.16 280.51c-2.64-1-3.78-1.05-4.97.32s-1 2.36-.68 3.05 1.48 1.01 1.64 1.79c.17.79.23 2.02-.13 2.42-.36.4-1.5 1.23-1.42 1.79.08.56-.14.92.57 1.42s1.38.85 1.99.85c.61 0 .31-.48 1.07.71s1.78 1.48 2.36 1.34c.58-.14.94.07 1.51-.68.58-.76.74-2.08 1.57-2.17.84-.09 1.8-.14 2.14-1.36s.55-1.24-.13-2.48-.71-1.11-.67-2.19c.04-1.08-.16-.91.55-1.85.7-.95 1.46-1.04.78-2.28-.68-1.24-.7-1.45-1.63-1.52s-1.82-.4-2.51.26c-.69.66-1.18 1.03-1.61.8s-.43-.22-.43-.22z"/><g fill="#D84315"><path d="M559.2 308.65l.33-2.03c.07-.45-.23-.87-.68-.94l-2.03-.33c-.45-.07-.87.23-.94.68l-.33 2.03c-.07.45.23.87.68.94l2.03.33c.45.07.87-.24.94-.68zM553.02 307.64l.33-2.03c.07-.45-.23-.87-.68-.94l-2.03-.33c-.45-.07-.87.23-.94.68l-.2 1.27c1.01.71 2.08 1.32 3.2 1.88.16-.12.28-.31.32-.53zM547.36 304.53c.07-.45-.23-.87-.68-.94l-.49-.08c.38.38.75.76 1.15 1.11l.02-.09zM544.84 300.94l2.03.33c.45.07.87-.23.94-.68l.33-2.03c.07-.45-.23-.87-.68-.94l-2.03-.33c-.45-.07-.87.23-.94.68l-.33 2.03c-.07.45.23.87.68.94zM571.79 308.67c.07-.45-.23-.87-.68-.94l-2.03-.33c-.45-.07-.87.23-.94.68l-.33 2.03c-.02.13 0 .26.04.38 1.3-.21 2.56-.53 3.8-.94l.14-.88zM585.3 297.32l-2.03-.33c-.45-.07-.87.23-.94.68l-.33 2.03c-.07.45.23.87.68.94l1.17.19c.74-.98 1.41-2.02 2.01-3.12-.12-.2-.31-.35-.56-.39zM542.38 290.52l-2.03-.33c-.45-.07-.87.23-.94.68l-.02.15c.21.98.48 1.95.81 2.89l1.6.26c.45.07.87-.23.94-.68l.33-2.03c.06-.45-.25-.87-.69-.94zM564.87 306.57l-2.03-.33c-.45-.07-.87.23-.94.68l-.33 2.03c-.07.45.23.87.68.94l2.03.33c.45.07.87-.23.94-.68l.33-2.03c.07-.44-.23-.87-.68-.94zM578.45 305.53l.33-2.03c.07-.45-.23-.87-.68-.94l-2.03-.33c-.45-.07-.87.23-.94.68l-.33 2.03c-.07.45.23.87.68.94l2.03.33c.45.08.87-.23.94-.68z"/></g><path fill="#81D4FA" d="M610.6305 287.6437l35.7857-3.73472 4.01603 38.48108-35.7857 3.73472z"/><path fill="#B3E5FC" d="M610.64482 286.54692l35.4295-6.2785 6.7514 38.09803-35.4295 6.2785z"/><radialGradient id="i" cx="636.1703" cy="333.817" r="22.6335" gradientUnits="userSpaceOnUse"><stop offset="0" style="stop-color:#E65100;stop-opacity:0"/><stop offset="1" style="stop-color:#E65100;stop-opacity:0.15"/></radialGradient><path fill="url(#i)" d="M631.19 336.73l-2.08.24c-.78.09-1.49-.47-1.58-1.25l-3.37-29.18-1.39-9.98s-2.08-13.14-1.35-17.46c.66-3.87 2.74-5.31 3.47-5.14.4.09.68.76.82 2l6.73 59.2c.1.78-.47 1.48-1.25 1.57z"/><path fill="#FFF" d="M629.24 334.35l-2.08.24c-.78.09-1.49-.47-1.58-1.25l-3.37-29.18-1.39-9.98s-2.08-13.14-1.35-17.46c.66-3.87 2.74-5.31 3.47-5.14.4.09.68.76.82 2l6.73 59.2c.1.78-.46 1.48-1.25 1.57z"/><radialGradient id="j" cx="651.8484" cy="327.8551" r="20.2266" gradientUnits="userSpaceOnUse"><stop offset="0" style="stop-color:#E65100;stop-opacity:0"/><stop offset="1" style="stop-color:#E65100;stop-opacity:0.15"/></radialGradient><path fill="url(#j)" d="M647.18 329.17l-6.48-36.2c1.74-.43 2.88-2.15 2.53-3.95l-2.16-11c-.13-.69-.47-1.28-.93-1.74l1.51 10.33c.06.39-.21.76-.61.81-.39.06-.76-.21-.81-.61l-1.87-11.47c-.13-.03-.26-.04-.4-.04l1.52 11.71c.06.39-.21.76-.61.81s-.76-.21-.81-.61l-1.9-11.68c-.13.04-.26.1-.38.17l1.5 11.53c.06.39-.21.76-.61.81-.39.06-.76-.21-.81-.61l-1.52-10.41c-.34.59-.52 1.29-.45 2.03l1.09 11.16c.17 1.78 1.69 3.08 3.42 3.06l4.17 36.55c.09.76 1.11 1.24 2.28 1.07l.45-.07c1.17-.15 2.01-.9 1.88-1.65z"/><g fill="#FFF"><path d="M643.35 329.33l-.45.07c-1.16.17-2.19-.31-2.28-1.07l-4.3-37.64c-.02-.22.22-.43.56-.48l.98-.14c.34-.05.64.08.67.3l6.68 37.29c.15.74-.69 1.5-1.86 1.67z"/><path d="M639.12 276.5c-.13-.69-.47-1.28-.93-1.74l1.51 10.33c.06.39-.21.76-.61.81-.39.06-.76-.21-.81-.61l-1.87-11.47c-.13-.03-.26-.04-.4-.04l1.52 11.71c.06.39-.21.76-.61.81-.39.06-.76-.21-.81-.61l-1.9-11.68c-.13.04-.26.1-.38.17l1.5 11.53c.06.39-.21.76-.61.81-.39.06-.76-.21-.81-.61l-1.52-10.41c-.34.6-.52 1.29-.45 2.03l1.09 11.16c.19 1.94 1.96 3.33 3.89 3.04l1.5-.22c1.93-.28 3.23-2.12 2.85-4.03l-2.15-10.98z"/></g><linearGradient id="k" x1="241.4456" x2="497.8802" y1="51.1791" y2="307.6137" gradientUnits="userSpaceOnUse"><stop offset="0" style="stop-color:#111111;stop-opacity:0.03"/><stop offset="1" style="stop-color:#111111;stop-opacity:0.1"/></linearGradient><path fill="url(#k)" d="M212.14 80.49h315.05v197.82H212.14z"/><path fill="#FFF" d="M213.4 81.52h308.19v192.13H213.4z"/><path fill="#FFECB3" d="M225.77 92.82H509.5v172.06H225.77z"/><defs><path id="l" d="M468.6599 272.5084h-203.72v-65.65h203.72z"/></defs><path fill="#F1CB83" d="M225.84 237.07h283.59v27.62H225.84z"/><path fill="#BCAAA4" d="M416.08 156.23h-95.89c-5.38 0-9.74 4.36-9.74 9.74v40.25c0 5.38 4.36 9.74 9.74 9.74h95.89c5.38 0 9.74-4.36 9.74-9.74v-40.25c0-5.38-4.36-9.74-9.74-9.74z"/><path fill="#A1887F" d="M420.19 186.82v-6.64c0-1.55.65-5.13-.23-6.1-.78-.86-3.02.81-4.16.81h-67.39c-.06-.56-.18-1.02-.42-1.29-.78-.86-3.02.81-4.16.81h-1.02c-.89-.22-1.74-.34-2.25 0H319.6c-1.28 0-3.96-1.36-4.77-.31-.72.94.38 4.22.38 5.6v6.64c0 1.46-1.24 4.08-.44 5.03.79.96 3.62.26 4.84.26h20.56c.04.07.06.16.11.22.79.96 3.62.26 4.84.26h70.7c1.15 0 4.55.37 5.33-.51.85-.97-.96-3.25-.96-4.78z"/><path fill="#FFFDE7" d="M357.51 192.71h-31.29c-1.57 0-5.22.89-6.24-.33-1.03-1.22.57-4.54.57-6.4v-8.45c0-1.76-1.42-5.92-.48-7.12 1.04-1.33 4.51.39 6.16.39h31.29c1.47 0 4.36-2.12 5.37-1.03 1.14 1.23.3 5.78.3 7.75v8.45c0 1.95 2.33 4.85 1.21 6.08-1.02 1.13-5.4.66-6.89.66zM378.45 170.35h31.29c1.57 0 5.64-1.19 6.67.03 1.03 1.22-1 4.84-1 6.7v8.45c0 1.76 1.42 5.92.48 7.12-1.04 1.33-4.51-.39-6.16-.39h-31.29c-1.47 0-4.36 2.12-5.37 1.03-1.14-1.23-.3-5.78-.3-7.75v-8.45c0-1.95-2.52-5.57-1.4-6.8 1.02-1.13 5.59.06 7.08.06z"/><path fill="#FFB300" d="M376.23 191.98h-18.27c-.91 0-3.05.52-3.65-.19-.6-.71.33-2.65.33-3.74v-4.93c0-1.03-.83-3.46-.28-4.16.6-.78 2.63.23 3.59.23h18.27c.86 0 2.55-1.24 3.14-.6.66.72.18 3.38.18 4.53v4.93c0 1.14 1.36 2.83.71 3.55-.59.65-3.15.38-4.02.38z"/><path fill="#A1887F" d="M307.78 212.37h121.7v24.67h-121.7z"/><path fill="#FFFDE7" d="M428.85 218.77c-2.42-.46-10.29-2.81-12.71-3.23-12.08-2.13-36.79-.79-49.06-.78-11.85.01-35.74-1.33-47.39.85-2.25.42-9.01 2.72-11.25 3.17-5.32 1.07-7.19-4.47-7.19-9.9v-7.44c0-5.43 4.4-9.83 9.83-9.83h114.37c5.43 0 9.83 4.4 9.83 9.83v7.44c.01 5.41-1.1 10.91-6.43 9.89z"/><path fill="#D7CCC8" d="M426.44 218.55H310.17c-2.18 0-3.94-1.77-3.94-3.94v-14.04c0-2.18 1.77-3.94 3.94-3.94h116.27c2.18 0 3.94 1.77 3.94 3.94v14.04c0 2.17-1.76 3.94-3.94 3.94z"/><linearGradient id="m" x1="270.4419" x2="270.4419" y1="168.1236" y2="201.9843" gradientUnits="userSpaceOnUse"><stop offset="0" style="stop-color:#FFF9C4;stop-opacity:0.5"/><stop offset=".2461" style="stop-color:#F9F7C9;stop-opacity:0.3565"/><stop offset=".5654" style="stop-color:#E9F0D8;stop-opacity:0.1702"/><stop offset=".8571" style="stop-color:#D4E8EC;stop-opacity:0"/></linearGradient><path fill="url(#m)" d="M222.91 200.9h95.06l-37.67-31.02-19.46-.12"/><path fill="#A1887F" d="M246.97 192.24h46.98v29.1h-46.98z"/><path fill="#A1887F" d="M246.97 220.44h3.15v16.69h-3.15zM290.74 220.44h3.15v16.69h-3.15z"/><path fill="#8D6E63" d="M246.97 198.08h46.98v1.31h-46.98zM246.97 213.55h46.98v1.31h-46.98z"/><linearGradient id="n" x1="226.6857" x2="226.6857" y1="981.9966" y2="1015.8574" gradientUnits="userSpaceOnUse" gradientTransform="rotate(180 248.564 567.176)"><stop offset="0" style="stop-color:#FFF9C4;stop-opacity:0.5"/><stop offset=".2461" style="stop-color:#F9F7C9;stop-opacity:0.3565"/><stop offset=".5657" style="stop-color:#E9F0D8;stop-opacity:0.17"/><stop offset=".8571" style="stop-color:#D4E8EC;stop-opacity:0"/></linearGradient><path fill="url(#n)" d="M317.97 119.58h-95.06l37.67 31.02 19.46.12"/><path fill="#A1887F" d="M268.48 156.92h3.73v31.6h-3.73zM260.83 188.54h18.93v3.69h-18.93z"/><circle cx="270.66" cy="206.78" r="1.49" fill="#8D6E63"/><path fill="#FFD54F" d="M284.78 169.95h-29.39l3.45-19.54h22.48"/><g><linearGradient id="o" x1="467.6373" x2="467.6373" y1="168.1236" y2="201.9843" gradientUnits="userSpaceOnUse"><stop offset="0" style="stop-color:#FFF9C4;stop-opacity:0.5"/><stop offset=".2461" style="stop-color:#F9F7C9;stop-opacity:0.3565"/><stop offset=".5654" style="stop-color:#E9F0D8;stop-opacity:0.1702"/><stop offset=".8571" style="stop-color:#D4E8EC;stop-opacity:0"/></linearGradient><path fill="url(#o)" d="M420.11 200.9h95.06l-37.67-31.02-19.46-.12"/><path fill="#A1887F" d="M444.17 192.24h46.98v29.1h-46.98z"/><path fill="#A1887F" d="M444.17 220.44h3.15v16.69h-3.15zM487.93 220.44h3.15v16.69h-3.15z"/><path fill="#8D6E63" d="M444.17 198.08h46.98v1.31h-46.98zM444.17 213.55h46.98v1.31h-46.98z"/><linearGradient id="p" x1="29.4903" x2="29.4903" y1="981.9966" y2="1015.8574" gradientUnits="userSpaceOnUse" gradientTransform="rotate(180 248.564 567.176)"><stop offset="0" style="stop-color:#FFF9C4;stop-opacity:0.5"/><stop offset=".2461" style="stop-color:#F9F7C9;stop-opacity:0.3565"/><stop offset=".5657" style="stop-color:#E9F0D8;stop-opacity:0.17"/><stop offset=".8571" style="stop-color:#D4E8EC;stop-opacity:0"/></linearGradient><path fill="url(#p)" d="M515.17 119.58h-95.06l37.67 31.02 19.46.12"/><path fill="#A1887F" d="M465.67 156.92h3.73v31.6h-3.73zM458.02 188.54h18.93v3.69h-18.93z"/><circle cx="467.85" cy="206.78" r="1.49" fill="#8D6E63"/><path fill="#FFD54F" d="M481.97 169.95h-29.39l3.46-19.54h22.48"/></g></svg>