<svg xmlns="http://www.w3.org/2000/svg" width="480" height="480" viewBox="0 0 480 480" style="enable-background:new 0 0 480 480;"><path d="M-621.6-383.8c-4-11.8-15.2-20.2-28.4-20.2h-220c-13.2 0-24.2 8.4-28.4 20.2L-940-264v160c0 11 9 20 20 20h20c11 0 20-9 20-20v-20h240v20c0 11 9 20 20 20h20c11 0 20-9 20-20v-160l-41.6-119.8zM-870-184c-16.6 0-30-13.4-30-30s13.4-30 30-30 30 13.4 30 30-13.4 30-30 30zm220 0c-16.6 0-30-13.4-30-30s13.4-30 30-30 30 13.4 30 30-13.4 30-30 30zm-250-100l30-90h220l30 90h-280zM-78.73-258.93l-40.65-120.82c-3.53-10.48-15.33-19.06-26.37-19.17l-223.09-2.26c-11.03-.11-23.04 8.22-26.8 18.61l-42.94 118.56h.02l-1.81 139.9-.04.02.02 1.51-.01.47h.01l.2 19.5c.11 11.05 9.16 20 20.2 20h20c11.05 0 20-8.96 20-20.01v-18.74l240 2.99v12.72c0 11.04 8.95 20.01 20 20.01h20c11.05 0 20-8.96 20-20.01v-11.97l1.28-141.32-.02.01zm-290.65 70.73c-16.57 0-30-13.43-30-30s13.43-30 30-30 30 13.43 30 30-13.43 30-30 30zm220.06 2.31c-16.57 0-30-13.43-30-30s13.43-30 30-30 30 13.43 30 30-13.43 30-30 30zM-398-288.95l30.83-89.03L-148-376l29.24 90.33-279.24-3.28zM383.19-381.21c-3.37-10.52-15.05-19.24-26.09-19.48l-222.8-4.8c-11.04-.24-23.11 7.97-26.96 18.32L62.3-265.92h.02L59.5-127.11h.01l.28 26.5c.12 11.05 9.16 20 20.21 20h20c11.05 0 20-8.96 20-20.01v-24.9l240 6.32v11.55c0 11.04 8.95 20.01 20 20.01h20c11.05 0 20-8.96 20-20.01v-9.97l2.37-141.26-39.18-122.33zM131.62-193.2c-16.57 0-30-13.43-30-30s13.43-30 30-30 30 13.43 30 30-13.43 30-30 30zm219.79 4.66c-16.57 0-30-13.43-30-30s13.43-30 30-30 30 13.43 30 30-13.43 30-30 30zM103.55-294.3l31.82-88.79 219.45 5.06 27.56 90.2-278.83-6.47zM885.28-383.29c-3.31-10.55-14.94-19.39-25.98-19.75l-222.08-7.34c-11.05-.36-23.23 7.69-27.22 18l-46.35 119.69-3.92 140.04.16 30.04c.06 11.03 9.06 19.99 20.1 19.99h20c11.05 0 20-8.95 20-20v-27.97l240 8.21v13.86c0 11.03 8.95 19.99 20 19.99h20c11.05 0 20-8.95 20-19.99v-18.25l3.42-134.91-38.13-121.61zM632.12-197.7c-16.57 0-30-13.43-30-30s13.43-30 30-30 30 13.43 30 30-13.43 30-30 30zm220.29 6.79c-16.57 0-30-13.43-30-30s13.43-30 30-30 30 13.43 30 30-13.43 30-30 30zM604.02-298.26l33.5-89.4 220.15 7 26.59 90.6-280.24-8.2zM1424.17-264l-37.54-122.11c-3.25-10.56-14.83-19.43-25.87-19.82l-223.17-7.81c-11.05-.39-23.21 7.66-27.19 17.97l-46.58 120.97h.05l-4.13 137.45h.03l.14 30.74c.05 11.03 9.05 20 20.09 20h20c11.05 0 20-8.95 20-20v-28.38l240 9.39v19.09c0 11.03 8.95 19.99 20 19.99h20c11.05 0 20-8.95 20-19.99v-25.41l4.17-132.08-1.06-.03 1.06.03zm-291.42 62.42c-16.57 0-30-13.43-30-30s13.43-30 30-30 30 13.43 30 30-13.44 30-30 30zm219.91 7.74c-16.57 0-30-13.43-30-30s13.43-30 30-30 30 13.43 30 30-13.43 30-30 30zm-247.47-108.71l33.18-88.76 220.02 7.42 26.93 91.12-280.13-9.78zM1886.11-389.77c-3.25-10.56-14.83-19.41-25.87-19.78l-222.76-7.4c-11.04-.37-23.2 7.7-27.16 18.01L1564.3-279h.02l-3.91 138.6-.04.02-.23 31.08c-.08 11.05 8.81 20.01 19.85 20.01h20c11.05 0 20-8.95 20-20v-28.06l240 8.01v25.81c0 11.04 8.95 20.01 20 20.01h20c11.05 0 20-8.96 20-20.01v-25.89l4.09-136.77h.05l-38.02-123.58zm-253.36 185.51c-16.57 0-30-13.43-30-30s13.43-30 30-30 30 13.43 30 30-13.44 30-30 30zm219.91 7.17c-16.57 0-30-13.43-30-30s13.43-30 30-30 30 13.43 30 30-13.43 30-30 30zm-247.42-108.35l32.78-88.65 220.3 7.13 26.55 90.71-279.63-9.19zM2386.11-389.77c-3.25-10.56-14.83-19.41-25.87-19.78l-222.76-7.4c-11.04-.37-23.2 7.7-27.16 18.01L2064.3-279h.02l-3.91 138.6-.04.02-.23 31.08c-.08 11.05 8.81 20.01 19.85 20.01h20c11.05 0 20-8.95 20-20v-28.06l240 8.01v25.81c0 11.04 8.95 20.01 20 20.01h20c11.05 0 20-8.96 20-20.01v-25.89l4.09-136.77h.05l-38.02-123.58zm-253.9 183.38c-16.57 0-30-13.43-30-30s13.43-30 30-30 30 13.43 30 30c0 16.56-13.43 30-30 30zm219.92 5.57c-16.57 0-30-13.43-30-30s13.43-30 30-30 30 13.43 30 30-13.43 30-30 30zm-247.76-106.4l31.92-88.73 220.17 5.33 27.53 91.04-279.62-7.64zM2881.83-396.9c-3.47-10.49-15.23-19.14-26.27-19.33l-222.62-3.84c-11.05-.19-23.08 8.06-26.88 18.43l-44.44 121.1h.04l-1.29 140.2h.06l-.26 32.04c-.09 11.04 8.79 20 19.84 20h20c11.05 0 20-8.95 20-20v-31.18l240 3.48v34.46c0 11.04 8.95 20.01 20 20.01h20c11.05 0 20-8.96 20-20.01v-58.54l2.4-114.08h.01l-40.59-122.74zm-250.36 190.01c-16.57 0-30-13.43-30-30s13.43-30 30-30 30 13.43 30 30c0 16.56-13.43 30-30 30zm219.92 3.32c-16.57 0-30-13.43-30-30s13.43-30 30-30 30 13.43 30 30-13.44 30-30 30zm-248.87-104l31.6-89.08 219.79 3.07 28.23 90.38-279.62-4.37zM3420.46-277.99h.05l-41.83-121.34c-3.6-10.46-15.47-18.95-26.51-19l-223.13-.98c-11.03-.05-22.95 8.37-26.59 18.8l-41.8 119.64h-.03l-.44 140.58h-.01l-.13 37.64c-.04 11.04 8.88 19.99 19.93 19.99h20c11.05 0 20-8.95 20-20v-36.41l240.03.97v33.56c0 11.04 8.95 20.01 20 20.01h20c11.05 0 20.08-8.95 20.17-19.99l.28-33.33h.01v-1.63l.01-1.08h-.01v-137.43zm-290.04 71.31c-16.57 0-30-13.43-30-30s13.43-30 30-30 30 13.43 30 30-13.43 30-30 30zm219.69.65c-16.57 0-30-13.43-30-30s13.43-30 30-30 30 13.43 30 30-13.43 30-30 30zm-249.65-100.71l30.3-89.73 219.78.34 29.93 90.3-280.01-.91zM3918.5-280.38h.01l-43.22-120.23c-3.74-10.4-15.73-18.74-26.77-18.62l-222.57 2.26c-11.04.11-22.87 8.68-26.4 19.14l-40.72 120.6h-.05l1.44 135.02-.04.01-.13 38.25c-.04 11.05 8.88 20.01 19.93 20.01h20c11.05 0 20-8.95 20-19.99v-32.79l239.99-2.46v30.77c0 11.04 8.95 20.01 20 20.01h20c11.05 0 20.07-8.95 20.15-19.99l.24-31.4h.02l-1.88-140.59zm-291.13-113.89l220.21-2.03 31.07 89.57-280.28 2.68 29-90.22zm1.79 190.17c-16.57 0-30-13.43-30-30s13.43-30 30-30 30 13.43 30 30-13.43 30-30 30zm219.87-2.36c-16.57 0-30-13.43-30-30s13.43-30 30-30 30 13.43 30 30-13.43 30-30 30zM-580 361.73v-4.18l-.08-.04-2.55-132.7h-.06L-627.3 104.5c-3.84-10.36-15.9-18.55-26.95-18.32l-222.65 4.76c-11.05.24-22.76 8.95-26.16 19.46l-39.21 120.99h-.07v.2l-.02.07h.02l2.54 127.04-.02.01-.13 37.64c-.04 11.04 8.88 19.99 19.93 19.99h20c11.05 0 20-8.95 20-20v-25.72l240.03-4.91v27.75c0 11.04 8.95 20.01 20 20.01h20c11.05 0 20-8.95 20-19.99v-28.99h.05l-.06-2.76zm-295.66-248.28l220.38-4.84 31.56 89.25-279.09 6.32 27.15-90.73zm4.08 189.87c-16.57 0-30-13.43-30-30s13.43-30 30-30 30 13.43 30 30-13.43 30-30 30zm219.85-4.78c-16.57 0-30-13.43-30-30s13.43-30 30-30 30 13.43 30 30-13.43 30-30 30zM-79.84 365.09l-4.04-138.85h.01l-.01-.04v-.04h-.01l-45.55-119.81c-3.92-10.32-16.06-18.44-27.1-18.13l-222.81 6.27c-11.04.31-22.68 9.1-25.99 19.63l-38.03 120.94h-.04l3.55 137.83-.09 26.45c-.04 11.04 8.88 19.99 19.93 19.99h20c11.05 0 20-8.95 20-20V374.3l240.03-6.94v30.1c0 11.04 8.95 20.01 20 20.01h20c11.05 0 20.03-8.95 20.08-20l.13-32.36-.06-.02zm-297.09-247.82l219.81-6.97 32.38 89.34-279.64 8.37 27.45-90.74zm4.35 190.05c-16.57 0-30-13.43-30-30s13.43-30 30-30 30 13.43 30 30-13.43 30-30 30zm219.85-6.78c-16.57 0-30-13.43-30-30s13.43-30 30-30 30 13.43 30 30-13.43 30-30 30zM420.08 367.27l-3.96-137.03h.01l-.02-.04v-.04h-.01l-46.5-121.65c-3.94-10.32-16.09-18.39-27.13-18.02l-222.53 7.36c-11.05.37-22.62 9.22-25.88 19.77L56.63 239.07h-.04l3.55 137.83-.09 26.45c-.04 11.04 8.88 19.99 19.93 19.99h20c11.05 0 20-8.95 20-20v-25.28L360 370.12v31.34c0 11.04 8.95 20.01 20 20.01h20c11.05 0 20.02-8.96 20.04-20.01l.07-33.33V367.28l-.03-.01zm-298.2-246.28l220.01-7.79 32.89 88.97-279.5 9.25 26.6-90.43zm5.54 189.33c-16.57 0-30-13.43-30-30s13.43-30 30-30 30 13.43 30 30-13.43 30-30 30zm219.85-7.78c-16.57 0-30-13.43-30-30s13.43-30 30-30 30 13.43 30 30-13.43 30-30 30zM916.36 232.77h-.03L870.3 112.3c-3.94-10.32-16.09-18.41-27.13-18.07l-223.41 6.93c-11.03.34-22.6 9.19-25.83 19.75l-37.31 122.16h-.04l3.57 131.52-.12 32.76c-.04 11.04 8.88 19.99 19.93 19.99h20c11.05 0 20-8.95 20-20v-26.17l240.03-7.9v26.2c0 11.04 8.95 20.01 20 20.01h20c11.05 0 20.06-8.95 20.14-19.99l.19-28.2h.02l-3.98-138.52zM621.88 123.99l220.01-7.79 32.89 88.97-279.5 9.25 26.6-90.43zm5.54 189.33c-16.57 0-30-13.43-30-30s13.43-30 30-30 30 13.43 30 30-13.43 30-30 30zm220.14-7.19c-16.57 0-30-13.43-30-30s13.43-30 30-30 30 13.43 30 30c0 16.56-13.43 30-30 30zM1417 235.82h.03L1372 115.62c-3.88-10.36-15.97-18.5-27.01-18.21l-222.98 5.89c-11.04.29-22.7 9.07-26.03 19.6l-39.04 123.46h.01l3.21 124.46-.13 36.53c-.04 11.04 8.88 19.99 19.93 19.99h20c11.05 0 20-8.95 20-20v-24.01l240.03-6.62v18.75c0 11.04 8.95 20.01 20 20.01h20c11.05 0 20.07-8.96 20.15-20l.15-20.42h.02L1417 235.82zm-293.14-110.08l220.16-5.36 31.98 88.73-279.16 7.17 27.02-90.54zm4.46 189.85c-16.57 0-30-13.43-30-30s13.43-30 30-30 30 13.43 30 30-13.44 30-30 30zm219.59-5.55c-16.57 0-30-13.43-30-30s13.43-30 30-30 30 13.43 30 30c0 16.56-13.43 30-30 30zM1918.27 240l-2.09.03 2.07-.03-43.56-119.52c-3.78-10.38-15.8-18.67-26.84-18.5l-223.14 3.28c-11.05.16-22.81 8.8-26.28 19.28l-39.88 120.47h.03l1.56 131.45-.1 27.88c-.04 11.04 8.88 19.99 19.93 19.99h20c11.05 0 20-8.95 20-20v-18.79l240.03-3.29v14.2c0 11.04 8.95 20.01 20 20.01h20c11.05 0 20.09-8.96 20.2-20.01l.15-15.02h.07L1918.27 240zm-292.01-112.35l220.42-3.49 31.34 89.37-279.84 4.37 28.08-90.25zm2.64 189.96c-16.57 0-30-13.43-30-30s13.43-30 30-30 30 13.43 30 30-13.43 30-30 30zm220.01-3.57c-16.57 0-30-13.43-30-30s13.43-30 30-30 30 13.43 30 30c0 16.56-13.43 30-30 30zM2419.31 244.87h.02l-41.84-119.82c-3.64-10.43-15.55-18.87-26.6-18.84l-223.08.48c-11.04.02-22.92 8.51-26.51 18.95l-41.78 121.4.01 139.48h.02l.17 13.83c.14 11.06 9.21 20 20.25 20h20c11.05 0 20-8.95 20-20v-14.01l240.03-.71v13.85c0 11.04 8.95 20.01 20 20.01h20c11.05 0 20.09-8.96 20.2-20.01l.14-14.02h.08l-1.11-140.59zm-289.71 74.22c-16.57 0-30-13.43-30-30s13.43-30 30-30 30 13.43 30 30-13.43 30-30 30zm220.31-.23c-16.57 0-30-13.43-30-30s13.43-30 30-30 30 13.43 30 30-13.43 30-30 30zm-250.03-99.88l29.23-89.64 220.33-.73 30.63 90.37h-280.19z" style="opacity:1;fill-rule:evenodd;clip-rule:evenodd;fill:#fff;"/></svg>