<?xml version="1.0" encoding="utf-8"?>
<!-- Generator: Adobe Illustrator 21.1.0, SVG Export Plug-In . SVG Version: 6.00 Build 0)  -->
<svg version="1.1" id="Layer_1" xmlns="http://www.w3.org/2000/svg" xmlns:xlink="http://www.w3.org/1999/xlink" x="0px" y="0px"
	 width="152px" height="114px" viewBox="0 0 152 114" enable-background="new 0 0 152 114" xml:space="preserve">
<g>
	<path fill="none" d="M31.25,63.72L14.8,80.16L31.25,63.72z M31.42,57.06l-0.06,0.06l0.04-0.04C31.4,57.08,31.42,57.06,31.42,57.06z
		 M35.52,55.65c-0.19-0.03-0.39-0.05-0.58-0.05C35.13,55.59,35.32,55.62,35.52,55.65z M36.55,55.89c-0.27-0.1-0.54-0.18-0.83-0.23
		C36,55.72,36.28,55.79,36.55,55.89z M37.32,56.28c-0.18-0.11-0.38-0.2-0.57-0.29C36.94,56.08,37.14,56.17,37.32,56.28z
		 M58.22,77.01L38.11,56.9L58.22,77.01z M38.09,56.88l-0.12-0.11L38.09,56.88z M37.92,56.73l-0.34-0.25
		C37.7,56.56,37.82,56.63,37.92,56.73z M38.11,56.9l-0.02-0.02L38.11,56.9z"/>
	<path fill="#DADCE0" d="M0,114h152V0H0V114z M6.41,88.56l24.84-24.84L14.8,80.16l-3.24-3.24l19.81-19.81l0.06-0.06
		c0.24-0.24,0.5-0.45,0.77-0.63l0.29-0.16c0.18-0.11,0.36-0.22,0.55-0.3l0.36-0.11c0.18-0.06,0.35-0.12,0.53-0.16l0.39-0.05
		c0.17-0.02,0.35-0.05,0.52-0.05h0.1c0.2,0,0.39,0.03,0.58,0.05l0.2,0.02c0.28,0.05,0.56,0.13,0.83,0.23l0.2,0.1
		c0.2,0.09,0.39,0.18,0.57,0.29l0.26,0.19l0.34,0.25l0.05,0.04l0.12,0.11l0.02,0.02L58.22,77c0.22,0.22,0.41,0.46,0.58,0.72
		l0.14,0.27c0.1,0.17,0.2,0.35,0.27,0.53l0.1,0.34c0.05,0.17,0.11,0.34,0.14,0.51l0.04,0.38l0.04,0.45l-0.01,0.06
		c0,0.18-0.03,0.35-0.05,0.53l-0.05,0.39c-0.04,0.18-0.1,0.36-0.16,0.54l-0.11,0.36c-0.08,0.19-0.19,0.38-0.3,0.56l-0.16,0.29
		c-0.18,0.27-0.39,0.53-0.63,0.77s-0.5,0.45-0.77,0.63l-0.28,0.15c-0.19,0.11-0.37,0.22-0.56,0.3l-0.36,0.11
		c-0.18,0.06-0.35,0.12-0.54,0.16l-0.39,0.05c-0.17,0.02-0.35,0.05-0.52,0.05l-0.05,0.01l-0.45-0.04c-0.13-0.01-0.25-0.01-0.38-0.04
		c-0.17-0.03-0.34-0.09-0.51-0.14l-0.34-0.1c-0.18-0.07-0.35-0.17-0.53-0.27l-0.27-0.14c-0.25-0.17-0.49-0.36-0.72-0.58l-0.03-0.03
		L26.5,108.66L6.41,88.56z M53.17,107.81c-0.87,0.89-2.29,0.9-3.17,0.02c-0.88-0.88-0.87-2.31,0.02-3.18l20.33-19.56
		c1.32-1.46,1.47-2.15,1.54-4.12c0.2-6.39,2.33-7.16,14.04-14.94c0.14-0.09,0.32-0.12,0.47-0.07c0.39,0.13,0.51,0.62,0.22,0.91
		l-9.67,9.67c-0.46,0.46-0.4,1.23,0.18,1.6c0.41,0.27,0.96,0.18,1.31-0.17l10.37-9.92c0.28-0.26,0.71-0.27,0.99,0
		c0.29,0.27,0.3,0.73,0.02,1.01l-9.95,10.39c-0.46,0.46-0.4,1.23,0.18,1.6c0.41,0.27,0.96,0.18,1.31-0.17l9.71-9.71
		c0.26-0.26,0.71-0.19,0.88,0.14l0.04,0.08c0.09,0.18,0.07,0.39-0.04,0.56c-7.92,11.57-8.77,13.67-14.99,13.97
		c-1.92,0.09-2.59,0.26-4.04,1.56L53.17,107.81z M114.38,100.66l-1.65,1.65v0.01l-6.42,6.42c-1.1,1.1-2.55,1.65-3.99,1.65
		s-2.89-0.55-3.99-1.65c-0.37-0.37-0.69-0.8-0.98-1.28l-0.82,0.82c-1.1,1.1-2.55,1.65-3.99,1.65s-2.89-0.55-3.99-1.65
		c-0.53-0.53-0.98-1.18-1.32-1.93l-1.06,1.06c-1.1,1.1-2.55,1.65-3.99,1.65s-2.89-0.55-3.99-1.65c-2.21-2.21-3.21-6.68,0.87-10.76
		L80.67,95v-0.01l0.65-0.65l0.65-0.65l0.01-0.01l1.65-1.65c4.25-4.25,8.39-2.9,10.59-0.7c0.24,0.24,0.45,0.51,0.64,0.78
		c3.94-3.28,7.67-1.97,9.73,0.09l0.21,0.25c3.89-3.12,7.55-1.83,9.58,0.2C116.58,94.88,116.58,98.46,114.38,100.66L114.38,100.66z
		 M119.16,4.29l9.23,6.39l-1.13,1.14l0.06,0.04l1.18-1.18l4.34,2.97l0.3,0.23c4.79,4.79,4.95,12.45,0.48,17.42l0.03,0.02l6.75,6.75
		l5.19-5.19c0.22-0.23,0.59-0.23,0.82,0c0.23,0.23,0.23,0.59,0,0.82L135.2,44.91c-0.11,0.11-0.26,0.17-0.41,0.17
		s-0.3-0.06-0.41-0.17c-0.23-0.23-0.23-0.59,0-0.82l5.19-5.19l-6.75-6.75l-0.01-0.02c-4.96,4.62-12.73,4.51-17.58-0.33l-0.26-0.27
		l-2.95-4.33l-0.06,0.06l-6.33-9.42L119.16,4.29z M63.56,4.5l6.36,6.36l0.7-0.7l12.01,12.01c5.65-3.26,12.98-2.5,17.81,2.33
		c0.2,0.2,0.4,0.43,0.59,0.65l5.96,5.96l0.02-0.02l19.49,19.49l-0.02,0.02l19.1,19.1l-20.86,20.86L79.65,45.49l-0.11-0.1l-0.09-0.1
		l-0.18-0.18l0.01-0.01c-4.45-4.69-5.23-11.59-2.33-17.06l-12.1-12.1l0.58-0.58L59.07,9L63.56,4.5z M30.54,3.32l14.67,14.67
		l-9.29,9.29l0.21,0.18c1.14,1.14,1.68,2.72,1.48,4.33c-0.05,0.37-0.38,0.62-0.75,0.58c-0.37-0.05-0.62-0.38-0.58-0.75
		c0.15-1.19-0.25-2.37-1.1-3.22l-0.22-0.17l-5.41,5.41c1.17,1.33,3.08,1.74,4.68,0.91c1.01-0.53,2.26-0.33,3.09,0.51l26.23,26.23
		L76.11,59l-16.2,16.2l2.7-12.96L36.38,36c-0.41-0.41-1.04-0.52-1.53-0.27c-2.12,1.1-4.67,0.59-6.24-1.14l-8.75,8.75l-8.68-8.68
		l-5.99-5.99C5.19,28.67,30.54,3.32,30.54,3.32z M126.43,12.67l-11.46,11.55l11.52-11.52L126.43,12.67z"/>
	<path fill="#FFFFFF" d="M91.94,71.99c0.11-0.17,0.13-0.38,0.04-0.56l-0.04-0.08c-0.17-0.33-0.61-0.41-0.88-0.14l-9.71,9.71
		c-0.35,0.35-0.9,0.43-1.31,0.17c-0.57-0.37-0.63-1.15-0.18-1.6l9.95-10.39c0.27-0.29,0.26-0.74-0.02-1.01
		c-0.28-0.26-0.71-0.26-0.99,0l-10.37,9.92c-0.35,0.35-0.9,0.43-1.31,0.17c-0.57-0.37-0.63-1.15-0.18-1.6l9.67-9.67
		c0.29-0.29,0.17-0.78-0.22-0.91c-0.16-0.05-0.33-0.03-0.47,0.07c-11.71,7.77-13.84,8.55-14.04,14.94
		c-0.06,1.98-0.22,2.67-1.54,4.12l-20.33,19.56c-0.89,0.87-0.91,2.3-0.02,3.18c0.88,0.88,2.3,0.87,3.17-0.02L72.9,87.52
		c1.45-1.31,2.13-1.47,4.04-1.56C83.16,85.66,84.02,83.56,91.94,71.99z"/>
	<path fill="#BABFC5" d="M80.68,95h-0.01l0.66-0.65L80.68,95z M92.56,93.01c0.23,0.23,0.42,0.48,0.6,0.74L94,92.91
		c0.29-0.29,0.57-0.55,0.86-0.78c-0.19-0.27-0.39-0.54-0.64-0.78c-2.21-2.21-6.34-3.56-10.59,0.7l-1.65,1.65
		c2.02-2.02,4.01-2.77,5.78-2.77C89.72,90.93,91.41,91.85,92.56,93.01z"/>
	<path fill="#FFFFFF" d="M87.76,92.26c-1.63,0-3.26,0.8-4.84,2.38l-2.95,2.95c-1.59,1.59-2.42,3.36-2.4,5.13
		c0.01,1.42,0.57,2.79,1.53,3.75c0.82,0.81,1.9,1.26,3.05,1.26s2.24-0.45,3.05-1.26l1.54-1.54c-0.45-2.2,0.12-4.88,2.65-7.41
		l1.65-1.65v-0.01l0.65-0.65l0.52-0.52c-0.17-0.27-0.36-0.52-0.59-0.75C90.55,92.88,89.14,92.26,87.76,92.26L87.76,92.26z
		 M86.21,98.67c-0.31,0.31-0.82,0.31-1.13,0s-0.31-0.82,0-1.13s0.82-0.31,1.13,0S86.52,98.36,86.21,98.67z M88.04,95.36
		c-0.38,0.38-0.99,0.38-1.36,0c-0.38-0.38-0.38-0.99,0-1.36c0.38-0.38,0.99-0.38,1.36,0S88.41,94.99,88.04,95.36z"/>
	<path fill="#CDD0D5" d="M86.74,104.93l-1.54,1.54c-0.81,0.81-1.9,1.26-3.05,1.26s-2.23-0.45-3.05-1.26
		c-0.96-0.96-1.52-2.33-1.53-3.75c-0.02-1.77,0.81-3.54,2.4-5.13l2.95-2.95c1.58-1.58,3.21-2.38,4.84-2.38
		c1.38,0,2.79,0.62,3.86,1.69c0.23,0.23,0.42,0.48,0.59,0.75l0.13-0.13l0.01-0.01l0.82-0.82c-0.18-0.26-0.37-0.51-0.6-0.74
		c-1.16-1.16-2.85-2.08-4.81-2.08c-1.77,0-3.76,0.75-5.78,2.77l-0.01,0.01l-0.65,0.65L80.67,95l-1.65,1.65
		c-4.08,4.08-3.07,8.56-0.87,10.76c1.1,1.1,2.55,1.65,3.99,1.65s2.89-0.55,3.99-1.65l1.06-1.06C87,105.91,86.84,105.44,86.74,104.93
		L86.74,104.93z"/>
	<path fill="#BABFC5" d="M93.17,93.74l-0.82,0.82c2.02-2.02,4.01-2.77,5.78-2.77c1.96,0,3.65,0.92,4.81,2.08l0.16,0.19l0.7-0.7
		c0.34-0.34,0.67-0.63,1.01-0.9l-0.21-0.25c-2.06-2.06-5.79-3.37-9.73-0.09c-0.29,0.24-0.57,0.5-0.86,0.78
		C94.01,92.9,93.17,93.74,93.17,93.74z M91.04,95.87l0.65-0.65l-0.64,0.64L91.04,95.87z"/>
	<path fill="#FFFFFF" d="M98.13,93.13c-1.63,0-3.26,0.8-4.84,2.38l-2.95,2.95c-3.85,3.85-2.25,7.49-0.87,8.88
		c0.82,0.81,1.9,1.26,3.05,1.26s2.24-0.45,3.05-1.26l1.18-1.18c-0.78-2.32-0.4-5.35,2.44-8.19l1.65-1.65l0.01-0.01l1.31-1.31
		L102,94.81C100.91,93.75,99.51,93.13,98.13,93.13L98.13,93.13z M93.21,96.87c0.31-0.31,0.82-0.31,1.13,0s0.31,0.82,0,1.13
		s-0.82,0.31-1.13,0C92.89,97.69,92.89,97.18,93.21,96.87z M97,99.29c-0.31,0.31-0.82,0.31-1.13,0s-0.31-0.82,0-1.13
		s0.82-0.31,1.13,0S97.31,98.98,97,99.29z M98.1,96.23c-0.31,0.31-0.82,0.31-1.13,0s-0.31-0.82,0-1.13s0.82-0.31,1.13,0
		S98.41,95.92,98.1,96.23z"/>
	<path fill="#CDD0D5" d="M96.74,106.17l-1.18,1.18c-0.81,0.81-1.9,1.26-3.05,1.26s-2.23-0.45-3.05-1.26
		c-1.38-1.38-2.99-5.02,0.87-8.88l2.95-2.95c1.58-1.58,3.21-2.38,4.84-2.38c1.38,0,2.79,0.62,3.86,1.69l0.16,0.19l0.94-0.94
		l-0.16-0.19c-1.16-1.16-2.85-2.08-4.81-2.08c-1.77,0-3.76,0.75-5.78,2.77l-0.01,0.01l-0.13,0.13l-0.52,0.52l-0.65,0.65l-1.65,1.65
		c-2.53,2.53-3.1,5.21-2.65,7.41c0.1,0.5,0.26,0.98,0.46,1.42c0.34,0.75,0.79,1.41,1.32,1.93c1.1,1.1,2.55,1.65,3.99,1.65
		s2.89-0.55,3.99-1.65l0.82-0.82C97.1,107.06,96.89,106.63,96.74,106.17z"/>
	
		<ellipse transform="matrix(0.7071 -0.7071 0.7071 0.7071 -41.366 89.4894)" fill="#BABFC5" cx="87.34" cy="94.68" rx="0.96" ry="0.96"/>
	
		<ellipse transform="matrix(0.7071 -0.7071 0.7071 0.7071 -41.4006 94.8142)" fill="#BABFC5" cx="93.75" cy="97.38" rx="0.8" ry="0.8"/>
	
		<ellipse transform="matrix(0.7071 -0.7071 0.7071 0.7071 -41.6119 97.1129)" fill="#BABFC5" cx="96.42" cy="98.79" rx="0.8" ry="0.8"/>
	
		<ellipse transform="matrix(0.7071 -0.7071 0.7071 0.7071 -44.2897 89.2739)" fill="#BABFC5" cx="85.62" cy="98.1" rx="0.8" ry="0.8"/>
	
		<ellipse transform="matrix(0.7071 -0.7071 0.7071 0.7071 -39.0861 96.9787)" fill="#BABFC5" cx="97.52" cy="95.67" rx="0.8" ry="0.8"/>
	<path fill="#BABFC5" d="M104.8,92.47c-0.34,0.27-0.67,0.56-1.01,0.9l-0.7,0.7l-0.94,0.94l-1.31,1.31l-0.01,0.01l1.3-1.3
		c2.02-2.02,4.01-2.78,5.79-2.78c1.96,0,3.65,0.92,4.81,2.08c2.2,2.2,2.2,5.78,0,7.98l1.65-1.65c2.21-2.21,2.21-5.78,0-7.99
		C112.35,90.64,108.68,89.35,104.8,92.47z"/>
	<path fill="#FFFFFF" d="M102.3,109.06c1.15,0,2.24-0.45,3.05-1.26l6.42-6.42c1.68-1.68,1.68-4.42,0-6.1
		c-1.07-1.07-2.48-1.69-3.86-1.69c-1.63,0-3.26,0.8-4.84,2.38l-2.95,2.95c-3.85,3.85-2.25,7.49-0.87,8.88
		C100.07,108.61,101.15,109.06,102.3,109.06z M108.38,96.59c0.38-0.38,1.01-0.38,1.39,0s0.38,1.01,0,1.39s-1.01,0.38-1.39,0
		C108,97.59,108,96.97,108.38,96.59z M105.56,98.02c0.31-0.31,0.82-0.31,1.13,0s0.31,0.82,0,1.13s-0.82,0.31-1.13,0
		S105.25,98.33,105.56,98.02z"/>
	<path fill="#CDD0D5" d="M112.72,94.33c-1.16-1.16-2.85-2.08-4.81-2.08c-1.77,0-3.77,0.76-5.79,2.78l-1.3,1.3l-1.65,1.65
		c-2.84,2.84-3.21,5.87-2.44,8.19c0.15,0.46,0.36,0.9,0.59,1.3c0.28,0.48,0.61,0.91,0.98,1.28c1.1,1.1,2.55,1.65,3.99,1.65
		s2.89-0.55,3.99-1.65l6.42-6.42v-0.01C114.93,100.11,114.92,96.53,112.72,94.33L112.72,94.33z M100.12,98.92l2.95-2.95
		c1.58-1.58,3.21-2.38,4.84-2.38c1.38,0,2.79,0.62,3.86,1.69c1.68,1.68,1.68,4.42,0,6.1l-6.42,6.42c-0.81,0.81-1.9,1.26-3.05,1.26
		s-2.24-0.45-3.05-1.26C97.87,106.41,96.27,102.78,100.12,98.92z"/>
	
		<ellipse transform="matrix(0.7071 -0.7071 0.7071 0.7071 -36.8885 105.6213)" fill="#BABFC5" cx="109.05" cy="97.34" rx="0.98" ry="0.98"/>
	
		<ellipse transform="matrix(0.7071 -0.7071 0.7071 0.7071 -38.6378 103.8897)" fill="#BABFC5" cx="106.09" cy="98.58" rx="0.8" ry="0.8"/>
	<path fill="#FFFFFF" d="M112.02,27.19l-0.01-0.01l2.96-2.96l11.47-11.55l-7.17-4.69c-0.27-0.17-0.34-0.53-0.17-0.8
		s0.53-0.34,0.8-0.17l7.37,4.82l1.13-1.14l-9.23-6.39l-13.53,13.53l6.33,9.42L112.02,27.19L112.02,27.19z M120.66,14.03
		c0.18-0.18,0.42-0.28,0.66-0.28c0.24,0,0.48,0.09,0.67,0.28c0.37,0.37,0.37,0.96,0,1.33c-0.18,0.18-0.42,0.27-0.66,0.27
		c-0.24,0-0.48-0.09-0.67-0.28C120.29,14.99,120.29,14.39,120.66,14.03z M140.59,39.09c-0.11,0.11-0.26,0.17-0.41,0.17
		s-0.3-0.06-0.41-0.17l-0.19-0.19l-5.19,5.19c-0.23,0.23-0.23,0.59,0,0.82c0.11,0.11,0.26,0.17,0.41,0.17s0.3-0.06,0.41-0.17
		l11.21-11.21c0.23-0.23,0.23-0.59,0-0.82c-0.22-0.23-0.59-0.23-0.82,0l-5.19,5.19l0.19,0.19C140.82,38.5,140.82,38.87,140.59,39.09
		z M132.81,32.13l0.01,0.02l6.75,6.75l0.19,0.19c0.11,0.11,0.26,0.17,0.41,0.17s0.3-0.06,0.41-0.17c0.23-0.23,0.23-0.59,0-0.82
		l-0.19-0.19l-6.75-6.75l-0.03-0.02l-0.46,0.51L132.81,32.13z"/>
	<path fill="#959CA5" d="M129.16,13.76c-0.11,0.17-0.3,0.26-0.49,0.26c-0.11,0-0.22-0.03-0.32-0.09l-1.87-1.22l-11.52,11.52
		L112,27.19l0.01,0.01l2.95,4.33l0.26,0.27c4.85,4.85,12.62,4.95,17.58,0.33l0.34-0.31c0.16-0.16,0.31-0.34,0.46-0.51
		c4.46-4.97,4.31-12.63-0.48-17.42l-0.3-0.23l-4.34-2.97l-1.18,1.18l1.67,1.09C129.26,13.13,129.33,13.49,129.16,13.76z
		 M121.18,24.45c-0.53,0.53-1.39,0.53-1.92,0s-0.53-1.39,0-1.92s1.39-0.53,1.93,0C121.71,23.06,121.71,23.92,121.18,24.45z"/>
	
		<ellipse transform="matrix(0.7071 -0.7071 0.7071 0.7071 18.5885 91.8755)" fill="#FFFFFF" cx="120.2" cy="23.5" rx="1.36" ry="1.36"/>
	<path fill="#959CA5" d="M121.33,15.64c0.24,0,0.48-0.09,0.66-0.27c0.37-0.37,0.37-0.96,0-1.33c-0.18-0.18-0.43-0.28-0.67-0.28
		s-0.48,0.09-0.66,0.28c-0.37,0.37-0.37,0.96,0,1.33C120.85,15.54,121.09,15.64,121.33,15.64z"/>
	<path fill="#FFFFFF" d="M119.1,7.17c-0.18,0.27-0.1,0.63,0.17,0.8l7.17,4.69l0.05,0.03l1.87,1.22c0.1,0.06,0.21,0.09,0.32,0.09
		c0.19,0,0.38-0.09,0.49-0.26c0.18-0.27,0.1-0.63-0.17-0.8l-1.67-1.09l-0.06-0.04l-7.37-4.82C119.63,6.83,119.27,6.91,119.1,7.17
		L119.1,7.17z M59.07,8.99l4.49-4.49l6.36,6.36l-4.49,4.49L59.07,8.99z"/>
	<path fill="#BABFC5" d="M79.54,45.4l0.11,0.1l-0.2-0.2C79.45,45.3,79.54,45.4,79.54,45.4z M126.48,50.61l-10.82,10.82L104.4,50.16
		l-8.23-8.23l3.11-3.11l7.71-7.71l-5.96-5.96c-0.2-0.22-0.39-0.45-0.59-0.65c-4.83-4.83-12.16-5.59-17.81-2.33L70.62,10.16l-0.7,0.7
		l-4.49,4.49l-0.58,0.58l12.1,12.1c-2.91,5.47-2.12,12.37,2.33,17.06l-0.01,0.01l0.18,0.18l0.2,0.2l45.07,45.07l20.86-20.86
		L126.48,50.61z"/>
	<path fill="#FFFFFF" d="M99.28,38.82l-3.11,3.11l8.23,8.23l11.26,11.26l10.82-10.82l0.02-0.02l-19.49-19.49l-0.02,0.02L99.28,38.82
		z M110.99,35.07l-7.75,7.74c-0.13,0.13-0.3,0.2-0.47,0.2s-0.34-0.06-0.47-0.2c-0.26-0.26-0.26-0.68,0-0.94l7.75-7.74
		C110.05,34.13,110.99,35.07,110.99,35.07z"/>
	<path fill="#959CA5" d="M102.3,41.87c-0.26,0.26-0.26,0.68,0,0.94c0.13,0.13,0.3,0.2,0.47,0.2s0.34-0.06,0.47-0.2l7.75-7.74
		l-0.94-0.94L102.3,41.87z"/>
	
		<linearGradient id="SVGID_1_" gradientUnits="userSpaceOnUse" x1="-3251.4004" y1="-1531.6185" x2="-3250.4004" y2="-1531.6185" gradientTransform="matrix(-8.17 -8.17 -8.17 8.17 -39053.1758 -14003.0449)">
		<stop  offset="0" style="stop-color:#ADB1B8"/>
		<stop  offset="1" style="stop-color:#DADCE0"/>
	</linearGradient>
	<path fill="url(#SVGID_1_)" d="M11.18,34.66l8.68,8.69L11.18,34.66z"/>
	<path fill="#FFFFFF" d="M29.21,29.07l-0.02,0.03l1.2-1.2C29.93,28.2,29.52,28.59,29.21,29.07z M30.48,8.3L10.16,28.62l9.76,9.76
		l7.36-7.36c0.02-0.94,0.29-1.88,0.81-2.68c0.88-1.34,2.27-2.19,3.83-2.36l0.41-0.02l7.91-7.91L30.48,8.3z M28.63,31.55
		c0.06,0.58,0.25,1.15,0.58,1.66c0.1,0.16,0.23,0.3,0.35,0.44l5.41-5.41c-0.6-0.52-1.32-0.84-2.1-0.93
		C32.87,27.31,28.63,31.55,28.63,31.55z M19.86,43.35l8.75-8.75c-0.19-0.2-0.37-0.42-0.52-0.66c-0.26-0.39-0.45-0.82-0.59-1.26
		l-7.59,7.59L8.27,28.62L30.48,6.41l11.64,11.65l-8.14,8.14c0.71,0.22,1.37,0.59,1.93,1.1l9.29-9.29L30.54,3.32L5.19,28.67
		l5.99,5.99L19.86,43.35z"/>
	<path fill="#BABFC5" d="M32.06,27.31c-0.6,0.06-1.17,0.27-1.67,0.6l-1.2,1.2c-0.47,0.73-0.65,1.6-0.56,2.45l4.23-4.24
		C32.6,27.29,32.33,27.28,32.06,27.31z M27.28,31.01l-7.36,7.36l-9.76-9.76L30.48,8.3l9.76,9.76l-7.91,7.91
		c0.57-0.01,1.13,0.06,1.66,0.23l8.14-8.14L30.48,6.41L8.27,28.62l11.64,11.65l7.59-7.59C27.34,32.14,27.26,31.58,27.28,31.01z"/>
	<path fill="#959CA5" d="M32.33,25.96l-0.41,0.02c-1.56,0.16-2.96,1.02-3.83,2.36c-0.53,0.8-0.79,1.74-0.81,2.68
		c-0.01,0.56,0.06,1.12,0.23,1.66c0.14,0.44,0.33,0.87,0.59,1.26c0.16,0.24,0.34,0.45,0.52,0.66c1.57,1.74,4.12,2.25,6.24,1.14
		c0.49-0.25,1.12-0.15,1.53,0.27l26.23,26.23l0.17-0.81l0.77-0.14L37.32,35.06c-0.83-0.83-2.08-1.04-3.09-0.51
		c-1.59,0.83-3.51,0.43-4.68-0.91c-0.12-0.14-0.25-0.28-0.35-0.44c-0.33-0.5-0.52-1.07-0.58-1.66c-0.09-0.85,0.09-1.72,0.56-2.45
		l0.02-0.03c0.31-0.48,0.72-0.87,1.18-1.16c0.5-0.32,1.07-0.53,1.67-0.6c0.27-0.03,0.54-0.02,0.8,0.01c0.78,0.08,1.5,0.41,2.1,0.93
		l0.22,0.17c0.85,0.85,1.25,2.02,1.1,3.22c-0.05,0.37,0.21,0.7,0.58,0.75c0.37,0.05,0.7-0.21,0.75-0.58
		c0.21-1.61-0.33-3.19-1.48-4.33l-0.21-0.18c-0.56-0.51-1.22-0.88-1.93-1.1C33.45,26.03,32.9,25.95,32.33,25.96z M62.61,62.24
		l-2.69,12.95l16.2-16.2l-12.57,2.3l-0.77,0.14L62.61,62.24z"/>
	<path fill="#FFFFFF" d="M33.63,64.97c-0.17-0.03-0.34-0.09-0.51-0.14C33.29,64.88,33.46,64.94,33.63,64.97z M37.11,64.26
		c-0.15,0.09-0.3,0.17-0.45,0.24L37.11,64.26z M32.78,64.73l-0.03-0.01L32.78,64.73z M31.27,63.74l-0.02-0.02l20.1,20.1L31.27,63.74
		z M34.44,65.05l-0.43-0.04L34.44,65.05z M31.27,63.74l-0.02-0.02L31.27,63.74z M37.78,63.75l-0.32,0.24L37.78,63.75z M38.11,56.9
		l-0.02-0.02L38.11,56.9z M34.54,65.05H34.5H34.54z M35.43,64.95c-0.17,0.03-0.34,0.05-0.52,0.06L35.43,64.95z M36.29,64.68
		c-0.16,0.06-0.32,0.11-0.49,0.15C35.97,64.79,36.13,64.75,36.29,64.68z M38.11,56.9l20.11,20.11L38.11,56.9z M58.8,77.73L58.94,78
		L58.8,77.73z M52.37,84.57l-0.27-0.14L52.37,84.57z M55.16,85.1c-0.17,0.02-0.35,0.05-0.52,0.05
		C54.81,85.15,54.98,85.12,55.16,85.1z M59.21,78.53l0.1,0.34L59.21,78.53z M54.13,85.12c-0.13-0.01-0.25-0.01-0.38-0.04
		L54.13,85.12z M59.43,81.18c-0.04,0.18-0.1,0.36-0.16,0.54L59.43,81.18z M57.01,84.48c-0.19,0.11-0.37,0.22-0.56,0.3
		C56.64,84.7,56.83,84.59,57.01,84.48z M59.45,79.38l0.04,0.38L59.45,79.38z M58.7,82.93c-0.18,0.27-0.39,0.53-0.63,0.77
		C58.31,83.46,58.52,83.2,58.7,82.93z M56.09,84.89c-0.18,0.06-0.36,0.12-0.54,0.16C55.74,85.02,55.91,84.95,56.09,84.89z
		 M58.07,83.7c-0.24,0.24-0.5,0.45-0.77,0.63C57.57,84.15,57.83,83.94,58.07,83.7z M53.24,84.94l-0.34-0.1L53.24,84.94z
		 M59.52,80.26c0,0.18-0.03,0.35-0.05,0.53C59.49,80.62,59.52,80.44,59.52,80.26z M59.15,82.08c-0.08,0.19-0.19,0.38-0.3,0.56
		C58.96,82.46,59.07,82.27,59.15,82.08z"/>
	
		<linearGradient id="SVGID_2_" gradientUnits="userSpaceOnUse" x1="-3166.0645" y1="-1458.2524" x2="-3165.0645" y2="-1458.2524" gradientTransform="matrix(-6.84 6.84 6.53 6.53 -12073.5605 31255.6777)">
		<stop  offset="0" style="stop-color:#FFFFFF"/>
		<stop  offset="0.995" style="stop-color:#E1E2E3"/>
		<stop  offset="1" style="stop-color:#E1E2E3"/>
	</linearGradient>
	<path fill="url(#SVGID_2_)" d="M52.9,84.84c-0.18-0.07-0.35-0.17-0.53-0.27C52.54,84.67,52.71,84.77,52.9,84.84z"/>
	
		<linearGradient id="SVGID_3_" gradientUnits="userSpaceOnUse" x1="-3166.0645" y1="-1458.1632" x2="-3165.0645" y2="-1458.1632" gradientTransform="matrix(-6.84 6.84 6.53 6.53 -12073.5605 31255.6777)">
		<stop  offset="0" style="stop-color:#FFFFFF"/>
		<stop  offset="0.995" style="stop-color:#E1E2E3"/>
		<stop  offset="1" style="stop-color:#E1E2E3"/>
	</linearGradient>
	<path fill="url(#SVGID_3_)" d="M53.75,85.08c-0.17-0.03-0.34-0.09-0.51-0.14C53.41,84.99,53.58,85.05,53.75,85.08z"/>
	
		<linearGradient id="SVGID_4_" gradientUnits="userSpaceOnUse" x1="-3166.0645" y1="-1457.9297" x2="-3165.0645" y2="-1457.9297" gradientTransform="matrix(-6.84 6.84 6.53 6.53 -12073.5605 31255.6777)">
		<stop  offset="0" style="stop-color:#FFFFFF"/>
		<stop  offset="0.995" style="stop-color:#E1E2E3"/>
		<stop  offset="1" style="stop-color:#E1E2E3"/>
	</linearGradient>
	<path fill="url(#SVGID_4_)" d="M58.85,82.64l-0.16,0.29L58.85,82.64z"/>
	
		<linearGradient id="SVGID_5_" gradientUnits="userSpaceOnUse" x1="-3166.0645" y1="-1457.9288" x2="-3165.0645" y2="-1457.9288" gradientTransform="matrix(-6.84 6.84 6.53 6.53 -12073.5605 31255.6777)">
		<stop  offset="0" style="stop-color:#FFFFFF"/>
		<stop  offset="0.995" style="stop-color:#E1E2E3"/>
		<stop  offset="1" style="stop-color:#E1E2E3"/>
	</linearGradient>
	<path fill="url(#SVGID_5_)" d="M57.3,84.33l-0.28,0.15L57.3,84.33z"/>
	
		<linearGradient id="SVGID_6_" gradientUnits="userSpaceOnUse" x1="-3166.0645" y1="-1458.3641" x2="-3165.0645" y2="-1458.3641" gradientTransform="matrix(-6.84 6.84 6.53 6.53 -12073.5605 31255.6777)">
		<stop  offset="0" style="stop-color:#FFFFFF"/>
		<stop  offset="0.995" style="stop-color:#E1E2E3"/>
		<stop  offset="1" style="stop-color:#E1E2E3"/>
	</linearGradient>
	<path fill="url(#SVGID_6_)" d="M52.1,84.43c-0.25-0.17-0.49-0.36-0.72-0.58C51.6,84.07,51.84,84.27,52.1,84.43z"/>
	
		<linearGradient id="SVGID_7_" gradientUnits="userSpaceOnUse" x1="-3166.0645" y1="-1457.9641" x2="-3165.0645" y2="-1457.9641" gradientTransform="matrix(-6.84 6.84 6.53 6.53 -12073.5605 31255.6777)">
		<stop  offset="0" style="stop-color:#FFFFFF"/>
		<stop  offset="0.995" style="stop-color:#E1E2E3"/>
		<stop  offset="1" style="stop-color:#E1E2E3"/>
	</linearGradient>
	<path fill="url(#SVGID_7_)" d="M56.45,84.78l-0.36,0.11L56.45,84.78z"/>
	
		<linearGradient id="SVGID_8_" gradientUnits="userSpaceOnUse" x1="-3166.0645" y1="-1458.0862" x2="-3165.0645" y2="-1458.0862" gradientTransform="matrix(-6.84 6.84 6.53 6.53 -12073.5605 31255.6777)">
		<stop  offset="0" style="stop-color:#FFFFFF"/>
		<stop  offset="0.995" style="stop-color:#E1E2E3"/>
		<stop  offset="1" style="stop-color:#E1E2E3"/>
	</linearGradient>
	<path fill="url(#SVGID_8_)" d="M54.58,85.16l0.05-0.01c-0.17,0-0.34-0.02-0.5-0.04C54.28,85.13,54.43,85.16,54.58,85.16z"/>
	
		<linearGradient id="SVGID_9_" gradientUnits="userSpaceOnUse" x1="-3166.0645" y1="-1458.2524" x2="-3165.0645" y2="-1458.2524" gradientTransform="matrix(-6.84 6.84 6.53 6.53 -12073.5605 31255.6777)">
		<stop  offset="0" style="stop-color:#FFFFFF"/>
		<stop  offset="0.995" style="stop-color:#E1E2E3"/>
		<stop  offset="1" style="stop-color:#E1E2E3"/>
	</linearGradient>
	<path fill="url(#SVGID_9_)" d="M58.94,78c0.1,0.17,0.2,0.35,0.27,0.53C59.14,78.34,59.04,78.17,58.94,78z"/>
	
		<linearGradient id="SVGID_10_" gradientUnits="userSpaceOnUse" x1="-3166.0645" y1="-1458.015" x2="-3165.0645" y2="-1458.015" gradientTransform="matrix(-6.84 6.84 6.53 6.53 -12073.5605 31255.6777)">
		<stop  offset="0" style="stop-color:#FFFFFF"/>
		<stop  offset="0.995" style="stop-color:#E1E2E3"/>
		<stop  offset="1" style="stop-color:#E1E2E3"/>
	</linearGradient>
	<path fill="url(#SVGID_10_)" d="M55.55,85.06l-0.39,0.05L55.55,85.06z"/>
	
		<linearGradient id="SVGID_11_" gradientUnits="userSpaceOnUse" x1="-3166.0645" y1="-1458.1632" x2="-3165.0645" y2="-1458.1632" gradientTransform="matrix(-6.84 6.84 6.53 6.53 -12073.5605 31255.6777)">
		<stop  offset="0" style="stop-color:#FFFFFF"/>
		<stop  offset="0.995" style="stop-color:#E1E2E3"/>
		<stop  offset="1" style="stop-color:#E1E2E3"/>
	</linearGradient>
	<path fill="url(#SVGID_11_)" d="M59.31,78.87c0.05,0.17,0.11,0.34,0.14,0.51C59.42,79.21,59.36,79.04,59.31,78.87z"/>
	
		<linearGradient id="SVGID_12_" gradientUnits="userSpaceOnUse" x1="-3166.0645" y1="-1458.3641" x2="-3165.0645" y2="-1458.3641" gradientTransform="matrix(-6.84 6.84 6.53 6.53 -12073.5605 31255.6777)">
		<stop  offset="0" style="stop-color:#FFFFFF"/>
		<stop  offset="0.995" style="stop-color:#E1E2E3"/>
		<stop  offset="1" style="stop-color:#E1E2E3"/>
	</linearGradient>
	<path fill="url(#SVGID_12_)" d="M58.22,77.01c0.22,0.22,0.41,0.46,0.58,0.72C58.64,77.47,58.44,77.23,58.22,77.01z"/>
	
		<linearGradient id="SVGID_13_" gradientUnits="userSpaceOnUse" x1="-3166.0645" y1="-1458.0854" x2="-3165.0645" y2="-1458.0854" gradientTransform="matrix(-6.84 6.84 6.53 6.53 -12073.5605 31255.6777)">
		<stop  offset="0" style="stop-color:#FFFFFF"/>
		<stop  offset="0.995" style="stop-color:#E1E2E3"/>
		<stop  offset="1" style="stop-color:#E1E2E3"/>
	</linearGradient>
	<path fill="url(#SVGID_13_)" d="M59.53,80.21l-0.04-0.45c0.02,0.17,0.04,0.33,0.04,0.5V80.21z"/>
	
		<linearGradient id="SVGID_14_" gradientUnits="userSpaceOnUse" x1="-3166.0645" y1="-1458.0157" x2="-3165.0645" y2="-1458.0157" gradientTransform="matrix(-6.84 6.84 6.53 6.53 -12073.5605 31255.6777)">
		<stop  offset="0" style="stop-color:#FFFFFF"/>
		<stop  offset="0.995" style="stop-color:#E1E2E3"/>
		<stop  offset="1" style="stop-color:#E1E2E3"/>
	</linearGradient>
	<path fill="url(#SVGID_14_)" d="M59.47,80.79l-0.05,0.39C59.45,81.05,59.46,80.92,59.47,80.79z"/>
	
		<linearGradient id="SVGID_15_" gradientUnits="userSpaceOnUse" x1="-3166.0645" y1="-1457.9641" x2="-3165.0645" y2="-1457.9641" gradientTransform="matrix(-6.84 6.84 6.53 6.53 -12073.5605 31255.6777)">
		<stop  offset="0" style="stop-color:#FFFFFF"/>
		<stop  offset="0.995" style="stop-color:#E1E2E3"/>
		<stop  offset="1" style="stop-color:#E1E2E3"/>
	</linearGradient>
	<path fill="url(#SVGID_15_)" d="M59.26,81.72l-0.11,0.36L59.26,81.72z"/>
	<path fill="none" d="M38.11,56.9l-0.02-0.02"/>
	<path fill="#FFFFFF" d="M31.25,63.72l0.02,0.02L31.25,63.72z"/>
	
		<linearGradient id="SVGID_16_" gradientUnits="userSpaceOnUse" x1="-3164.9683" y1="-1461.4935" x2="-3164.9683" y2="-1461.4966" gradientTransform="matrix(-6.84 6.84 6.53 6.53 -12073.5605 31255.6777)">
		<stop  offset="0" style="stop-color:#FFFFFF"/>
		<stop  offset="0.995" style="stop-color:#E1E2E3"/>
		<stop  offset="1" style="stop-color:#E1E2E3"/>
	</linearGradient>
	<path fill="url(#SVGID_16_)" d="M31.25,63.72l0.02,0.02L31.25,63.72z"/>
	<path fill="#FFFFFF" d="M38.69,57.62l0.14,0.27c0.1,0.17,0.2,0.35,0.27,0.53l0.1,0.34c0.05,0.17,0.11,0.34,0.14,0.51l0.04,0.38
		l0.04,0.45l-0.01,0.06c0,0.18-0.03,0.35-0.05,0.53l-0.05,0.39c-0.04,0.18-0.1,0.36-0.16,0.54l-0.11,0.36
		c-0.08,0.19-0.19,0.37-0.3,0.56l-0.16,0.29c-0.18,0.27-0.39,0.53-0.63,0.77l-0.05,0.05l-0.13,0.12l-0.32,0.24l-0.34,0.26
		l-0.45,0.25l-0.37,0.18c-0.16,0.07-0.32,0.11-0.49,0.16l-0.38,0.11c-0.17,0.03-0.34,0.05-0.52,0.06l-0.37,0.04h-0.1L34,65.03
		c-0.13-0.01-0.26-0.01-0.38-0.04c-0.17-0.03-0.34-0.09-0.51-0.14l-0.34-0.1l-0.03-0.01c-0.17-0.07-0.33-0.17-0.49-0.26l-0.27-0.14
		c-0.25-0.17-0.49-0.36-0.71-0.58l20.08,20.08l0.03,0.03c0.22,0.22,0.46,0.41,0.72,0.58l0.27,0.14c0.17,0.1,0.34,0.2,0.53,0.27
		l0.34,0.1c0.17,0.05,0.34,0.11,0.51,0.14l0.38,0.04c0.17,0.02,0.33,0.04,0.5,0.04s0.35-0.03,0.52-0.05l0.39-0.05
		c0.18-0.04,0.36-0.1,0.54-0.16l0.36-0.11c0.19-0.08,0.38-0.19,0.56-0.3l0.28-0.15c0.27-0.18,0.53-0.39,0.77-0.63
		s0.45-0.5,0.63-0.77l0.16-0.29c0.11-0.18,0.22-0.37,0.3-0.56l0.11-0.36c0.06-0.18,0.12-0.35,0.16-0.54l0.05-0.39
		c0.02-0.18,0.05-0.35,0.05-0.53c0-0.17-0.02-0.33-0.04-0.5c-0.01-0.13-0.01-0.26-0.04-0.38c-0.03-0.17-0.09-0.34-0.14-0.51
		l-0.1-0.34c-0.07-0.18-0.17-0.36-0.27-0.53l-0.14-0.27c-0.17-0.25-0.36-0.49-0.58-0.72L38.11,56.9
		C38.33,57.12,38.52,57.36,38.69,57.62z"/>
	
		<linearGradient id="SVGID_17_" gradientUnits="userSpaceOnUse" x1="-3166.0645" y1="-1459.703" x2="-3165.0645" y2="-1459.703" gradientTransform="matrix(-6.84 6.84 6.53 6.53 -12073.5605 31255.6777)">
		<stop  offset="0" style="stop-color:#FFFFFF"/>
		<stop  offset="0.995" style="stop-color:#E1E2E3"/>
		<stop  offset="1" style="stop-color:#E1E2E3"/>
	</linearGradient>
	<path fill="url(#SVGID_17_)" d="M38.69,57.62l0.14,0.27c0.1,0.17,0.2,0.35,0.27,0.53l0.1,0.34c0.05,0.17,0.11,0.34,0.14,0.51
		l0.04,0.38l0.04,0.45l-0.01,0.06c0,0.18-0.03,0.35-0.05,0.53l-0.05,0.39c-0.04,0.18-0.1,0.36-0.16,0.54l-0.11,0.36
		c-0.08,0.19-0.19,0.37-0.3,0.56l-0.16,0.29c-0.18,0.27-0.39,0.53-0.63,0.77l-0.05,0.05l-0.13,0.12l-0.32,0.24l-0.34,0.26
		l-0.45,0.25l-0.37,0.18c-0.16,0.07-0.32,0.11-0.49,0.16l-0.38,0.11c-0.17,0.03-0.34,0.05-0.52,0.06l-0.37,0.04h-0.1L34,65.03
		c-0.13-0.01-0.26-0.01-0.38-0.04c-0.17-0.03-0.34-0.09-0.51-0.14l-0.34-0.1l-0.03-0.01c-0.17-0.07-0.33-0.17-0.49-0.26l-0.27-0.14
		c-0.25-0.17-0.49-0.36-0.71-0.58l20.08,20.08l0.03,0.03c0.22,0.22,0.46,0.41,0.72,0.58l0.27,0.14c0.17,0.1,0.34,0.2,0.53,0.27
		l0.34,0.1c0.17,0.05,0.34,0.11,0.51,0.14l0.38,0.04c0.17,0.02,0.33,0.04,0.5,0.04s0.35-0.03,0.52-0.05l0.39-0.05
		c0.18-0.04,0.36-0.1,0.54-0.16l0.36-0.11c0.19-0.08,0.38-0.19,0.56-0.3l0.28-0.15c0.27-0.18,0.53-0.39,0.77-0.63
		s0.45-0.5,0.63-0.77l0.16-0.29c0.11-0.18,0.22-0.37,0.3-0.56l0.11-0.36c0.06-0.18,0.12-0.35,0.16-0.54l0.05-0.39
		c0.02-0.18,0.05-0.35,0.05-0.53c0-0.17-0.02-0.33-0.04-0.5c-0.01-0.13-0.01-0.26-0.04-0.38c-0.03-0.17-0.09-0.34-0.14-0.51
		l-0.1-0.34c-0.07-0.18-0.17-0.36-0.27-0.53l-0.14-0.27c-0.17-0.25-0.36-0.49-0.58-0.72L38.11,56.9
		C38.33,57.12,38.52,57.36,38.69,57.62z"/>
	<path fill="#BABFC5" d="M31.25,63.72L14.8,80.16L31.25,63.72z M37.58,56.47l-0.26-0.19L37.58,56.47z M36.75,55.99l-0.2-0.1
		L36.75,55.99z M35.72,55.67l-0.2-0.02L35.72,55.67z M33.4,55.86c0.18-0.06,0.35-0.12,0.53-0.16C33.75,55.74,33.57,55.8,33.4,55.86z
		 M31.42,57.06c0.24-0.24,0.5-0.45,0.77-0.63C31.92,56.61,31.66,56.82,31.42,57.06z M32.48,56.27c0.18-0.11,0.36-0.22,0.55-0.3
		C32.84,56.06,32.66,56.17,32.48,56.27z M34.32,55.65c0.17-0.02,0.35-0.05,0.52-0.05C34.67,55.6,34.49,55.63,34.32,55.65z
		 M38.83,57.88l-0.14-0.27L38.83,57.88z M39.2,58.76l-0.1-0.34L39.2,58.76z M34.91,65.01l-0.37,0.04L34.91,65.01z M39.15,61.61
		c0.06-0.18,0.12-0.35,0.16-0.54C39.28,61.25,39.21,61.43,39.15,61.61z M34.01,65.01C33.88,65,33.75,65,33.63,64.97L34.01,65.01z
		 M35.8,64.84l-0.38,0.11L35.8,64.84z M36.66,64.5l-0.37,0.18L36.66,64.5z M39.38,59.65l-0.04-0.38L39.38,59.65z M37.46,64
		l-0.34,0.26L37.46,64z M39.41,60.15c0,0.18-0.03,0.35-0.05,0.53C39.38,60.5,39.41,60.33,39.41,60.15z M33.12,64.83l-0.34-0.1
		L33.12,64.83z M31.98,64.32l0.27,0.14L31.98,64.32z M37.95,63.59c0.24-0.24,0.45-0.5,0.63-0.77C38.4,63.09,38.19,63.35,37.95,63.59
		z M38.74,62.53c0.11-0.18,0.22-0.37,0.3-0.56C38.96,62.16,38.85,62.34,38.74,62.53z"/>
	
		<linearGradient id="SVGID_18_" gradientUnits="userSpaceOnUse" x1="-3124.2256" y1="-1556.201" x2="-3123.2256" y2="-1556.201" gradientTransform="matrix(9.814 9.814 10.279 -10.279 46686.0625 14716.3867)">
		<stop  offset="0" style="stop-color:#DADCE0"/>
		<stop  offset="0.995" style="stop-color:#C7C9CD"/>
		<stop  offset="1" style="stop-color:#C7C9CD"/>
	</linearGradient>
	<path fill="url(#SVGID_18_)" d="M33.39,55.86l-0.36,0.11L33.39,55.86z"/>
	
		<linearGradient id="SVGID_19_" gradientUnits="userSpaceOnUse" x1="-3124.2256" y1="-1556.2653" x2="-3123.2256" y2="-1556.2653" gradientTransform="matrix(9.814 9.814 10.279 -10.279 46686.0625 14716.3867)">
		<stop  offset="0" style="stop-color:#DADCE0"/>
		<stop  offset="0.995" style="stop-color:#C7C9CD"/>
		<stop  offset="1" style="stop-color:#C7C9CD"/>
	</linearGradient>
	<path fill="url(#SVGID_19_)" d="M32.47,56.28l-0.28,0.15L32.47,56.28z"/>
	
		<linearGradient id="SVGID_20_" gradientUnits="userSpaceOnUse" x1="-3124.2256" y1="-1556.1449" x2="-3123.2256" y2="-1556.1449" gradientTransform="matrix(9.814 9.814 10.279 -10.279 46686.0625 14716.3867)">
		<stop  offset="0" style="stop-color:#DADCE0"/>
		<stop  offset="0.995" style="stop-color:#C7C9CD"/>
		<stop  offset="1" style="stop-color:#C7C9CD"/>
	</linearGradient>
	<path fill="url(#SVGID_20_)" d="M34.32,55.65l-0.39,0.05L34.32,55.65z"/>
	<path fill="#BABFC5" d="M34.84,55.6c-0.17,0-0.35,0.03-0.52,0.05C34.49,55.63,34.67,55.6,34.84,55.6z"/>
	
		<linearGradient id="SVGID_21_" gradientUnits="userSpaceOnUse" x1="-3124.2256" y1="-1556.1204" x2="-3123.2256" y2="-1556.1204" gradientTransform="matrix(9.814 9.814 10.279 -10.279 46686.0625 14716.3867)">
		<stop  offset="0" style="stop-color:#DADCE0"/>
		<stop  offset="0.995" style="stop-color:#C7C9CD"/>
		<stop  offset="1" style="stop-color:#C7C9CD"/>
	</linearGradient>
	<path fill="url(#SVGID_21_)" d="M34.84,55.6c-0.17,0-0.35,0.03-0.52,0.05C34.49,55.63,34.67,55.6,34.84,55.6z"/>
	<path fill="#BABFC5" d="M32.19,56.43c-0.27,0.18-0.53,0.39-0.77,0.63C31.66,56.82,31.92,56.61,32.19,56.43z"/>
	
		<linearGradient id="SVGID_22_" gradientUnits="userSpaceOnUse" x1="-3124.2256" y1="-1556.3098" x2="-3123.2256" y2="-1556.3098" gradientTransform="matrix(9.814 9.814 10.279 -10.279 46686.0625 14716.3867)">
		<stop  offset="0" style="stop-color:#DADCE0"/>
		<stop  offset="0.995" style="stop-color:#C7C9CD"/>
		<stop  offset="1" style="stop-color:#C7C9CD"/>
	</linearGradient>
	<path fill="url(#SVGID_22_)" d="M32.19,56.43c-0.27,0.18-0.53,0.39-0.77,0.63C31.66,56.82,31.92,56.61,32.19,56.43z"/>
	<path fill="#BABFC5" d="M33.93,55.7c-0.18,0.04-0.35,0.1-0.53,0.16h-0.01C33.57,55.8,33.74,55.74,33.93,55.7z"/>
	
		<linearGradient id="SVGID_23_" gradientUnits="userSpaceOnUse" x1="-3124.2256" y1="-1556.1726" x2="-3123.2256" y2="-1556.1726" gradientTransform="matrix(9.814 9.814 10.279 -10.279 46686.0625 14716.3867)">
		<stop  offset="0" style="stop-color:#DADCE0"/>
		<stop  offset="0.995" style="stop-color:#C7C9CD"/>
		<stop  offset="1" style="stop-color:#C7C9CD"/>
	</linearGradient>
	<path fill="url(#SVGID_23_)" d="M33.93,55.7c-0.18,0.04-0.35,0.1-0.53,0.16h-0.01C33.57,55.8,33.74,55.74,33.93,55.7z"/>
	<path fill="#BABFC5" d="M33.03,55.98c-0.19,0.08-0.37,0.19-0.55,0.3h-0.01C32.66,56.17,32.84,56.06,33.03,55.98z"/>
	
		<linearGradient id="SVGID_24_" gradientUnits="userSpaceOnUse" x1="-3124.2256" y1="-1556.2339" x2="-3123.2256" y2="-1556.2339" gradientTransform="matrix(9.814 9.814 10.279 -10.279 46686.0625 14716.3867)">
		<stop  offset="0" style="stop-color:#DADCE0"/>
		<stop  offset="0.995" style="stop-color:#C7C9CD"/>
		<stop  offset="1" style="stop-color:#C7C9CD"/>
	</linearGradient>
	<path fill="url(#SVGID_24_)" d="M33.03,55.98c-0.19,0.08-0.37,0.19-0.55,0.3h-0.01C32.66,56.17,32.84,56.06,33.03,55.98z"/>
	
		<linearGradient id="SVGID_25_" gradientUnits="userSpaceOnUse" x1="-3123.8018" y1="-1557.3123" x2="-3123.801" y2="-1557.3123" gradientTransform="matrix(9.814 9.814 10.279 -10.279 46686.0625 14716.3867)">
		<stop  offset="0" style="stop-color:#BABFC5"/>
		<stop  offset="0.995" style="stop-color:#AAAFB5"/>
		<stop  offset="1" style="stop-color:#AAAFB5"/>
	</linearGradient>
	<path fill="url(#SVGID_25_)" d="M31.37,57.11L11.56,76.92L31.37,57.11z"/>
	<path fill="#BABFC5" d="M31.25,63.72c-1.1-1.12-1.49-2.68-1.18-4.16c0.18-0.89,0.62-1.74,1.31-2.45L11.56,76.92l3.24,3.24
		C14.8,80.16,31.25,63.72,31.25,63.72z"/>
	
		<linearGradient id="SVGID_26_" gradientUnits="userSpaceOnUse" x1="-3124.2256" y1="-1557.312" x2="-3123.2256" y2="-1557.312" gradientTransform="matrix(9.814 9.814 10.279 -10.279 46686.0625 14716.3867)">
		<stop  offset="0" style="stop-color:#BABFC5"/>
		<stop  offset="0.995" style="stop-color:#AAAFB5"/>
		<stop  offset="1" style="stop-color:#AAAFB5"/>
	</linearGradient>
	<path fill="url(#SVGID_26_)" d="M31.25,63.72c-1.1-1.12-1.49-2.68-1.18-4.16c0.18-0.89,0.62-1.74,1.31-2.45L11.56,76.92l3.24,3.24
		C14.8,80.16,31.25,63.72,31.25,63.72z"/>
	
		<linearGradient id="SVGID_27_" gradientUnits="userSpaceOnUse" x1="-3124.2256" y1="-1556.2653" x2="-3123.2256" y2="-1556.2653" gradientTransform="matrix(9.814 9.814 10.279 -10.279 46686.0625 14716.3867)">
		<stop  offset="0" style="stop-color:#BABFC5"/>
		<stop  offset="0.995" style="stop-color:#AAAFB5"/>
		<stop  offset="1" style="stop-color:#AAAFB5"/>
	</linearGradient>
	<path fill="url(#SVGID_27_)" d="M32.47,56.28l-0.28,0.15L32.47,56.28z"/>
	
		<linearGradient id="SVGID_28_" gradientUnits="userSpaceOnUse" x1="-3124.2256" y1="-1556.201" x2="-3123.2256" y2="-1556.201" gradientTransform="matrix(9.814 9.814 10.279 -10.279 46686.0625 14716.3867)">
		<stop  offset="0" style="stop-color:#BABFC5"/>
		<stop  offset="0.995" style="stop-color:#AAAFB5"/>
		<stop  offset="1" style="stop-color:#AAAFB5"/>
	</linearGradient>
	<path fill="url(#SVGID_28_)" d="M33.39,55.86l-0.36,0.11L33.39,55.86z"/>
	
		<linearGradient id="SVGID_29_" gradientUnits="userSpaceOnUse" x1="-3124.2256" y1="-1556.052" x2="-3123.2256" y2="-1556.052" gradientTransform="matrix(9.814 9.814 10.279 -10.279 46686.0625 14716.3867)">
		<stop  offset="0" style="stop-color:#BABFC5"/>
		<stop  offset="0.995" style="stop-color:#AAAFB5"/>
		<stop  offset="1" style="stop-color:#AAAFB5"/>
	</linearGradient>
	<path fill="url(#SVGID_29_)" d="M36.55,55.89c-0.27-0.1-0.54-0.18-0.83-0.23C36,55.72,36.28,55.79,36.55,55.89z"/>
	
		<linearGradient id="SVGID_30_" gradientUnits="userSpaceOnUse" x1="-3124.2256" y1="-1556.0256" x2="-3123.2256" y2="-1556.0256" gradientTransform="matrix(9.814 9.814 10.279 -10.279 46686.0625 14716.3867)">
		<stop  offset="0" style="stop-color:#BABFC5"/>
		<stop  offset="0.995" style="stop-color:#AAAFB5"/>
		<stop  offset="1" style="stop-color:#AAAFB5"/>
	</linearGradient>
	<path fill="url(#SVGID_30_)" d="M37.32,56.28c-0.18-0.11-0.37-0.2-0.57-0.29C36.94,56.08,37.14,56.17,37.32,56.28z"/>
	
		<linearGradient id="SVGID_31_" gradientUnits="userSpaceOnUse" x1="-3124.2256" y1="-1556.1449" x2="-3123.2256" y2="-1556.1449" gradientTransform="matrix(9.814 9.814 10.279 -10.279 46686.0625 14716.3867)">
		<stop  offset="0" style="stop-color:#BABFC5"/>
		<stop  offset="0.995" style="stop-color:#AAAFB5"/>
		<stop  offset="1" style="stop-color:#AAAFB5"/>
	</linearGradient>
	<path fill="url(#SVGID_31_)" d="M34.32,55.65l-0.39,0.05L34.32,55.65z"/>
	
		<linearGradient id="SVGID_32_" gradientUnits="userSpaceOnUse" x1="-3124.2256" y1="-1556.0911" x2="-3123.2256" y2="-1556.0911" gradientTransform="matrix(9.814 9.814 10.279 -10.279 46686.0625 14716.3867)">
		<stop  offset="0" style="stop-color:#BABFC5"/>
		<stop  offset="0.995" style="stop-color:#AAAFB5"/>
		<stop  offset="1" style="stop-color:#AAAFB5"/>
	</linearGradient>
	<path fill="url(#SVGID_32_)" d="M35.52,55.65c-0.19-0.03-0.38-0.05-0.58-0.05h-0.1C35.07,55.59,35.29,55.62,35.52,55.65z"/>
	
		<linearGradient id="SVGID_33_" gradientUnits="userSpaceOnUse" x1="-3124.2256" y1="-1556.0131" x2="-3123.2256" y2="-1556.0131" gradientTransform="matrix(9.814 9.814 10.279 -10.279 46686.0625 14716.3867)">
		<stop  offset="0" style="stop-color:#BABFC5"/>
		<stop  offset="0.995" style="stop-color:#AAAFB5"/>
		<stop  offset="1" style="stop-color:#AAAFB5"/>
	</linearGradient>
	<path fill="url(#SVGID_33_)" d="M38.09,56.88l-0.12-0.12l-0.05-0.04l-0.34-0.25C37.76,56.6,37.93,56.73,38.09,56.88z"/>
	
		<linearGradient id="SVGID_34_" gradientUnits="userSpaceOnUse" x1="-3123.8008" y1="-1556.3434" x2="-3123.8008" y2="-1556.3452" gradientTransform="matrix(9.814 9.814 10.279 -10.279 46686.0625 14716.3867)">
		<stop  offset="0" style="stop-color:#BABFC5"/>
		<stop  offset="0.995" style="stop-color:#AAAFB5"/>
		<stop  offset="1" style="stop-color:#AAAFB5"/>
	</linearGradient>
	<path fill="url(#SVGID_34_)" d="M31.41,57.08l0.02-0.02L31.41,57.08z"/>
	
		<linearGradient id="SVGID_35_" gradientUnits="userSpaceOnUse" x1="-3123.801" y1="-1556.3488" x2="-3123.801" y2="-1556.3455" gradientTransform="matrix(9.814 9.814 10.279 -10.279 46686.0625 14716.3867)">
		<stop  offset="0" style="stop-color:#BABFC5"/>
		<stop  offset="0.995" style="stop-color:#AAAFB5"/>
		<stop  offset="1" style="stop-color:#AAAFB5"/>
	</linearGradient>
	<path fill="url(#SVGID_35_)" d="M31.41,57.08l-0.04,0.03L31.41,57.08z"/>
	<path fill="#FFFFFF" d="M39.38,59.65c0.02,0.17,0.04,0.34,0.04,0.51l0.01-0.06L39.38,59.65z"/>
	
		<linearGradient id="SVGID_36_" gradientUnits="userSpaceOnUse" x1="-3124.2256" y1="-1556.094" x2="-3123.2256" y2="-1556.094" gradientTransform="matrix(9.814 9.814 10.279 -10.279 46686.0625 14716.3867)">
		<stop  offset="0" style="stop-color:#BABFC5"/>
		<stop  offset="0.995" style="stop-color:#AAAFB5"/>
		<stop  offset="1" style="stop-color:#AAAFB5"/>
	</linearGradient>
	<path fill="url(#SVGID_36_)" d="M39.38,59.65c0.02,0.17,0.04,0.34,0.04,0.51l0.01-0.06L39.38,59.65z"/>
	<path fill="#FFFFFF" d="M34.91,65.01l0.51-0.06L34.91,65.01z"/>
	
		<linearGradient id="SVGID_37_" gradientUnits="userSpaceOnUse" x1="-3124.2256" y1="-1556.5469" x2="-3123.2256" y2="-1556.5469" gradientTransform="matrix(9.814 9.814 10.279 -10.279 46686.0625 14716.3867)">
		<stop  offset="0" style="stop-color:#BABFC5"/>
		<stop  offset="0.995" style="stop-color:#AAAFB5"/>
		<stop  offset="1" style="stop-color:#AAAFB5"/>
	</linearGradient>
	<path fill="url(#SVGID_37_)" d="M34.91,65.01l0.51-0.06L34.91,65.01z"/>
	<path fill="#FFFFFF" d="M38.11,56.9c0.22,0.22,0.41,0.46,0.58,0.72C38.52,57.36,38.33,57.12,38.11,56.9z"/>
	
		<linearGradient id="SVGID_38_" gradientUnits="userSpaceOnUse" x1="-3124.2256" y1="-1556.014" x2="-3123.2256" y2="-1556.014" gradientTransform="matrix(9.814 9.814 10.279 -10.279 46686.0625 14716.3867)">
		<stop  offset="0" style="stop-color:#BABFC5"/>
		<stop  offset="0.995" style="stop-color:#AAAFB5"/>
		<stop  offset="1" style="stop-color:#AAAFB5"/>
	</linearGradient>
	<path fill="url(#SVGID_38_)" d="M38.11,56.9c0.22,0.22,0.41,0.46,0.58,0.72C38.52,57.36,38.33,57.12,38.11,56.9z"/>
	<path fill="#FFFFFF" d="M36.66,64.5l0.45-0.24C36.97,64.35,36.82,64.42,36.66,64.5z"/>
	
		<linearGradient id="SVGID_39_" gradientUnits="userSpaceOnUse" x1="-3124.2256" y1="-1556.4341" x2="-3123.2256" y2="-1556.4341" gradientTransform="matrix(9.814 9.814 10.279 -10.279 46686.0625 14716.3867)">
		<stop  offset="0" style="stop-color:#BABFC5"/>
		<stop  offset="0.995" style="stop-color:#AAAFB5"/>
		<stop  offset="1" style="stop-color:#AAAFB5"/>
	</linearGradient>
	<path fill="url(#SVGID_39_)" d="M36.66,64.5l0.45-0.24C36.97,64.35,36.82,64.42,36.66,64.5z"/>
	<path fill="#FFFFFF" d="M35.81,64.84l0.48-0.15L35.81,64.84z"/>
	
		<linearGradient id="SVGID_40_" gradientUnits="userSpaceOnUse" x1="-3124.2256" y1="-1556.4934" x2="-3123.2256" y2="-1556.4934" gradientTransform="matrix(9.814 9.814 10.279 -10.279 46686.0625 14716.3867)">
		<stop  offset="0" style="stop-color:#BABFC5"/>
		<stop  offset="0.995" style="stop-color:#AAAFB5"/>
		<stop  offset="1" style="stop-color:#AAAFB5"/>
	</linearGradient>
	<path fill="url(#SVGID_40_)" d="M35.81,64.84l0.48-0.15L35.81,64.84z"/>
	<path fill="#FFFFFF" d="M31.25,63.72l0.02,0.02L31.25,63.72z"/>
	
		<linearGradient id="SVGID_41_" gradientUnits="userSpaceOnUse" x1="-3124.2256" y1="-1556.676" x2="-3123.2256" y2="-1556.676" gradientTransform="matrix(9.814 9.814 10.279 -10.279 46686.0625 14716.3867)">
		<stop  offset="0" style="stop-color:#BABFC5"/>
		<stop  offset="0.995" style="stop-color:#AAAFB5"/>
		<stop  offset="1" style="stop-color:#AAAFB5"/>
	</linearGradient>
	<path fill="url(#SVGID_41_)" d="M31.25,63.72l0.02,0.02L31.25,63.72z"/>
	<path fill="#FFFFFF" d="M39.1,58.42c-0.07-0.18-0.17-0.36-0.27-0.53C38.93,58.06,39.03,58.23,39.1,58.42z"/>
	
		<linearGradient id="SVGID_42_" gradientUnits="userSpaceOnUse" x1="-3124.2256" y1="-1556.03" x2="-3123.2256" y2="-1556.03" gradientTransform="matrix(9.814 9.814 10.279 -10.279 46686.0625 14716.3867)">
		<stop  offset="0" style="stop-color:#BABFC5"/>
		<stop  offset="0.995" style="stop-color:#AAAFB5"/>
		<stop  offset="1" style="stop-color:#AAAFB5"/>
	</linearGradient>
	<path fill="url(#SVGID_42_)" d="M39.1,58.42c-0.07-0.18-0.17-0.36-0.27-0.53C38.93,58.06,39.03,58.23,39.1,58.42z"/>
	<path fill="#FFFFFF" d="M34.47,65.05h0.07c-0.18,0-0.35-0.02-0.53-0.04l0.43,0.04H34.47z"/>
	
		<linearGradient id="SVGID_43_" gradientUnits="userSpaceOnUse" x1="-3124.2256" y1="-1556.5927" x2="-3123.2256" y2="-1556.5927" gradientTransform="matrix(9.814 9.814 10.279 -10.279 46686.0625 14716.3867)">
		<stop  offset="0" style="stop-color:#BABFC5"/>
		<stop  offset="0.995" style="stop-color:#AAAFB5"/>
		<stop  offset="1" style="stop-color:#AAAFB5"/>
	</linearGradient>
	<path fill="url(#SVGID_43_)" d="M34.47,65.05h0.07c-0.18,0-0.35-0.02-0.53-0.04l0.43,0.04H34.47z"/>
	<path fill="#FFFFFF" d="M32.78,64.73c-0.18-0.07-0.35-0.17-0.52-0.27c0.16,0.09,0.32,0.19,0.49,0.26
		C32.75,64.72,32.78,64.73,32.78,64.73z"/>
	
		<linearGradient id="SVGID_44_" gradientUnits="userSpaceOnUse" x1="-3124.2256" y1="-1556.6569" x2="-3123.2256" y2="-1556.6569" gradientTransform="matrix(9.814 9.814 10.279 -10.279 46686.0625 14716.3867)">
		<stop  offset="0" style="stop-color:#BABFC5"/>
		<stop  offset="0.995" style="stop-color:#AAAFB5"/>
		<stop  offset="1" style="stop-color:#AAAFB5"/>
	</linearGradient>
	<path fill="url(#SVGID_44_)" d="M32.78,64.73c-0.18-0.07-0.35-0.17-0.52-0.27c0.16,0.09,0.32,0.19,0.49,0.26
		C32.75,64.72,32.78,64.73,32.78,64.73z"/>
	<path fill="#FFFFFF" d="M37.91,63.63l0.05-0.05c-0.16,0.16-0.33,0.28-0.5,0.41l0.32-0.24L37.91,63.63z"/>
	
		<linearGradient id="SVGID_45_" gradientUnits="userSpaceOnUse" x1="-3124.2256" y1="-1556.365" x2="-3123.2256" y2="-1556.365" gradientTransform="matrix(9.814 9.814 10.279 -10.279 46686.0625 14716.3867)">
		<stop  offset="0" style="stop-color:#BABFC5"/>
		<stop  offset="0.995" style="stop-color:#AAAFB5"/>
		<stop  offset="1" style="stop-color:#AAAFB5"/>
	</linearGradient>
	<path fill="url(#SVGID_45_)" d="M37.91,63.63l0.05-0.05c-0.16,0.16-0.33,0.28-0.5,0.41l0.32-0.24L37.91,63.63z"/>
	<path fill="#FFFFFF" d="M33.13,64.83c0.17,0.05,0.33,0.11,0.51,0.14C33.46,64.94,33.29,64.88,33.13,64.83z"/>
	
		<linearGradient id="SVGID_46_" gradientUnits="userSpaceOnUse" x1="-3124.2256" y1="-1556.6296" x2="-3123.2256" y2="-1556.6296" gradientTransform="matrix(9.814 9.814 10.279 -10.279 46686.0625 14716.3867)">
		<stop  offset="0" style="stop-color:#BABFC5"/>
		<stop  offset="0.995" style="stop-color:#AAAFB5"/>
		<stop  offset="1" style="stop-color:#AAAFB5"/>
	</linearGradient>
	<path fill="url(#SVGID_46_)" d="M33.13,64.83c0.17,0.05,0.33,0.11,0.51,0.14C33.46,64.94,33.29,64.88,33.13,64.83z"/>
	<path fill="#FFFFFF" d="M39.34,59.27c-0.03-0.18-0.09-0.34-0.14-0.51C39.25,58.93,39.31,59.1,39.34,59.27z"/>
	
		<linearGradient id="SVGID_47_" gradientUnits="userSpaceOnUse" x1="-3124.2256" y1="-1556.057" x2="-3123.2256" y2="-1556.057" gradientTransform="matrix(9.814 9.814 10.279 -10.279 46686.0625 14716.3867)">
		<stop  offset="0" style="stop-color:#BABFC5"/>
		<stop  offset="0.995" style="stop-color:#AAAFB5"/>
		<stop  offset="1" style="stop-color:#AAAFB5"/>
	</linearGradient>
	<path fill="url(#SVGID_47_)" d="M39.34,59.27c-0.03-0.18-0.09-0.34-0.14-0.51C39.25,58.93,39.31,59.1,39.34,59.27z"/>
	<path fill="#FFFFFF" d="M31.27,63.74c0.22,0.22,0.46,0.41,0.71,0.58C31.73,64.15,31.49,63.96,31.27,63.74z"/>
	
		<linearGradient id="SVGID_48_" gradientUnits="userSpaceOnUse" x1="-3124.2256" y1="-1556.6729" x2="-3123.2256" y2="-1556.6729" gradientTransform="matrix(9.814 9.814 10.279 -10.279 46686.0625 14716.3867)">
		<stop  offset="0" style="stop-color:#BABFC5"/>
		<stop  offset="0.995" style="stop-color:#AAAFB5"/>
		<stop  offset="1" style="stop-color:#AAAFB5"/>
	</linearGradient>
	<path fill="url(#SVGID_48_)" d="M31.27,63.74c0.22,0.22,0.46,0.41,0.71,0.58C31.73,64.15,31.49,63.96,31.27,63.74z"/>
	<path fill="#FFFFFF" d="M39.31,61.07l0.05-0.39C39.35,60.81,39.34,60.94,39.31,61.07z"/>
	
		<linearGradient id="SVGID_49_" gradientUnits="userSpaceOnUse" x1="-3124.2256" y1="-1556.1444" x2="-3123.2256" y2="-1556.1444" gradientTransform="matrix(9.814 9.814 10.279 -10.279 46686.0625 14716.3867)">
		<stop  offset="0" style="stop-color:#BABFC5"/>
		<stop  offset="0.995" style="stop-color:#AAAFB5"/>
		<stop  offset="1" style="stop-color:#AAAFB5"/>
	</linearGradient>
	<path fill="url(#SVGID_49_)" d="M39.31,61.07l0.05-0.39C39.35,60.81,39.34,60.94,39.31,61.07z"/>
	<path fill="#FFFFFF" d="M39.04,61.97l0.11-0.36L39.04,61.97z"/>
	
		<linearGradient id="SVGID_50_" gradientUnits="userSpaceOnUse" x1="-3124.2256" y1="-1556.2006" x2="-3123.2256" y2="-1556.2006" gradientTransform="matrix(9.814 9.814 10.279 -10.279 46686.0625 14716.3867)">
		<stop  offset="0" style="stop-color:#BABFC5"/>
		<stop  offset="0.995" style="stop-color:#AAAFB5"/>
		<stop  offset="1" style="stop-color:#AAAFB5"/>
	</linearGradient>
	<path fill="url(#SVGID_50_)" d="M39.04,61.97l0.11-0.36L39.04,61.97z"/>
	<path fill="#FFFFFF" d="M38.09,56.88l0.02,0.02L38.09,56.88z"/>
	
		<linearGradient id="SVGID_51_" gradientUnits="userSpaceOnUse" x1="-3124.2256" y1="-1556.0106" x2="-3123.2256" y2="-1556.0106" gradientTransform="matrix(9.814 9.814 10.279 -10.279 46686.0625 14716.3867)">
		<stop  offset="0" style="stop-color:#BABFC5"/>
		<stop  offset="0.995" style="stop-color:#AAAFB5"/>
		<stop  offset="1" style="stop-color:#AAAFB5"/>
	</linearGradient>
	<path fill="url(#SVGID_51_)" d="M38.09,56.88l0.02,0.02L38.09,56.88z"/>
	<path fill="#FFFFFF" d="M38.59,62.82l0.16-0.29L38.59,62.82z"/>
	
		<linearGradient id="SVGID_52_" gradientUnits="userSpaceOnUse" x1="-3124.2256" y1="-1556.2643" x2="-3123.2256" y2="-1556.2643" gradientTransform="matrix(9.814 9.814 10.279 -10.279 46686.0625 14716.3867)">
		<stop  offset="0" style="stop-color:#BABFC5"/>
		<stop  offset="0.995" style="stop-color:#AAAFB5"/>
		<stop  offset="1" style="stop-color:#AAAFB5"/>
	</linearGradient>
	<path fill="url(#SVGID_52_)" d="M38.59,62.82l0.16-0.29L38.59,62.82z"/>
	<path fill="#FFFFFF" d="M32.26,64.46c0.16,0.09,0.32,0.19,0.49,0.26C32.58,64.65,32.42,64.55,32.26,64.46z"/>
	
		<linearGradient id="SVGID_53_" gradientUnits="userSpaceOnUse" x1="-3166.0645" y1="-1461.334" x2="-3165.0645" y2="-1461.334" gradientTransform="matrix(-6.84 6.84 6.53 6.53 -12073.5605 31255.6777)">
		<stop  offset="0" style="stop-color:#FFFFFF"/>
		<stop  offset="0.995" style="stop-color:#E1E2E3"/>
		<stop  offset="1" style="stop-color:#E1E2E3"/>
	</linearGradient>
	<path fill="url(#SVGID_53_)" d="M32.26,64.46c0.16,0.09,0.32,0.19,0.49,0.26C32.58,64.65,32.42,64.55,32.26,64.46z"/>
	
		<linearGradient id="SVGID_54_" gradientUnits="userSpaceOnUse" x1="-3124.2256" y1="-1556.6573" x2="-3123.2256" y2="-1556.6573" gradientTransform="matrix(9.814 9.814 10.279 -10.279 46686.0625 14716.3867)">
		<stop  offset="0" style="stop-color:#BABFC5"/>
		<stop  offset="0.995" style="stop-color:#AAAFB5"/>
		<stop  offset="1" style="stop-color:#AAAFB5"/>
	</linearGradient>
	<path fill="url(#SVGID_54_)" d="M32.26,64.46c0.16,0.09,0.32,0.19,0.49,0.26C32.58,64.65,32.42,64.55,32.26,64.46z"/>
	<path fill="#FFFFFF" d="M31.98,64.32c-0.25-0.17-0.49-0.36-0.71-0.58C31.49,63.96,31.73,64.15,31.98,64.32z"/>
	
		<linearGradient id="SVGID_55_" gradientUnits="userSpaceOnUse" x1="-3166.0645" y1="-1461.4442" x2="-3165.0645" y2="-1461.4442" gradientTransform="matrix(-6.84 6.84 6.53 6.53 -12073.5605 31255.6777)">
		<stop  offset="0" style="stop-color:#FFFFFF"/>
		<stop  offset="0.995" style="stop-color:#E1E2E3"/>
		<stop  offset="1" style="stop-color:#E1E2E3"/>
	</linearGradient>
	<path fill="url(#SVGID_55_)" d="M31.98,64.32c-0.25-0.17-0.49-0.36-0.71-0.58C31.49,63.96,31.73,64.15,31.98,64.32z"/>
	
		<linearGradient id="SVGID_56_" gradientUnits="userSpaceOnUse" x1="-3124.2256" y1="-1556.6729" x2="-3123.2256" y2="-1556.6729" gradientTransform="matrix(9.814 9.814 10.279 -10.279 46686.0625 14716.3867)">
		<stop  offset="0" style="stop-color:#BABFC5"/>
		<stop  offset="0.995" style="stop-color:#AAAFB5"/>
		<stop  offset="1" style="stop-color:#AAAFB5"/>
	</linearGradient>
	<path fill="url(#SVGID_56_)" d="M31.98,64.32c-0.25-0.17-0.49-0.36-0.71-0.58C31.49,63.96,31.73,64.15,31.98,64.32z"/>
	<path fill="#BABFC5" d="M31.41,57.08l-0.04,0.04c-0.68,0.71-1.12,1.56-1.31,2.45c-0.31,1.48,0.08,3.04,1.18,4.16l0.02,0.02
		c0.22,0.22,0.46,0.41,0.71,0.58l0.27,0.14c0.17,0.1,0.34,0.2,0.52,0.27l0.35,0.1c0.17,0.05,0.33,0.11,0.51,0.14L34,65.02
		c0.18,0.02,0.35,0.04,0.53,0.04l0.37-0.04l0.51-0.06l0.38-0.11l0.48-0.15l0.37-0.18l0.45-0.24l0.34-0.26
		c0.17-0.13,0.34-0.25,0.5-0.41c0.24-0.24,0.45-0.5,0.63-0.77l0.16-0.29c0.11-0.18,0.22-0.37,0.3-0.56l0.11-0.36
		c0.06-0.18,0.12-0.35,0.16-0.54l0.05-0.39c0.02-0.18,0.05-0.35,0.05-0.53c0-0.17-0.02-0.34-0.04-0.51l-0.04-0.38
		c-0.03-0.17-0.09-0.34-0.14-0.51l-0.1-0.34C39,58.25,38.9,58.07,38.8,57.9l-0.14-0.27c-0.17-0.25-0.36-0.49-0.58-0.72l-0.02-0.02
		c-0.16-0.15-0.33-0.28-0.5-0.41l-0.26-0.19c-0.18-0.11-0.37-0.2-0.57-0.29l-0.2-0.1c-0.27-0.1-0.54-0.18-0.83-0.23l-0.2-0.02
		c-0.22-0.03-0.45-0.05-0.68-0.05c-0.18,0-0.35,0.03-0.52,0.05l-0.39,0.05c-0.18,0.04-0.36,0.1-0.54,0.16l-0.36,0.11
		c-0.19,0.08-0.38,0.19-0.56,0.3l-0.28,0.15c-0.27,0.18-0.53,0.39-0.77,0.63L31.41,57.08L31.41,57.08z"/>
	
		<linearGradient id="SVGID_57_" gradientUnits="userSpaceOnUse" x1="-3124.2256" y1="-1556.3448" x2="-3123.2256" y2="-1556.3448" gradientTransform="matrix(9.814 9.814 10.279 -10.279 46686.0625 14716.3867)">
		<stop  offset="0" style="stop-color:#BABFC5"/>
		<stop  offset="0.995" style="stop-color:#AAAFB5"/>
		<stop  offset="1" style="stop-color:#AAAFB5"/>
	</linearGradient>
	<path fill="url(#SVGID_57_)" d="M31.41,57.08l-0.04,0.04c-0.68,0.71-1.12,1.56-1.31,2.45c-0.31,1.48,0.08,3.04,1.18,4.16l0.02,0.02
		c0.22,0.22,0.46,0.41,0.71,0.58l0.27,0.14c0.17,0.1,0.34,0.2,0.52,0.27l0.35,0.1c0.17,0.05,0.33,0.11,0.51,0.14L34,65.02
		c0.18,0.02,0.35,0.04,0.53,0.04l0.37-0.04l0.51-0.06l0.38-0.11l0.48-0.15l0.37-0.18l0.45-0.24l0.34-0.26
		c0.17-0.13,0.34-0.25,0.5-0.41c0.24-0.24,0.45-0.5,0.63-0.77l0.16-0.29c0.11-0.18,0.22-0.37,0.3-0.56l0.11-0.36
		c0.06-0.18,0.12-0.35,0.16-0.54l0.05-0.39c0.02-0.18,0.05-0.35,0.05-0.53c0-0.17-0.02-0.34-0.04-0.51l-0.04-0.38
		c-0.03-0.17-0.09-0.34-0.14-0.51l-0.1-0.34C39,58.25,38.9,58.07,38.8,57.9l-0.14-0.27c-0.17-0.25-0.36-0.49-0.58-0.72l-0.02-0.02
		c-0.16-0.15-0.33-0.28-0.5-0.41l-0.26-0.19c-0.18-0.11-0.37-0.2-0.57-0.29l-0.2-0.1c-0.27-0.1-0.54-0.18-0.83-0.23l-0.2-0.02
		c-0.22-0.03-0.45-0.05-0.68-0.05c-0.18,0-0.35,0.03-0.52,0.05l-0.39,0.05c-0.18,0.04-0.36,0.1-0.54,0.16l-0.36,0.11
		c-0.19,0.08-0.38,0.19-0.56,0.3l-0.28,0.15c-0.27,0.18-0.53,0.39-0.77,0.63L31.41,57.08L31.41,57.08z"/>
	<path fill="#BABFC5" d="M30.06,59.56c-0.31,1.48,0.08,3.04,1.18,4.16C30.15,62.6,29.76,61.04,30.06,59.56z"/>
	
		<linearGradient id="SVGID_58_" gradientUnits="userSpaceOnUse" x1="-3124.2256" y1="-1556.604" x2="-3123.2256" y2="-1556.604" gradientTransform="matrix(9.814 9.814 10.279 -10.279 46686.0625 14716.3867)">
		<stop  offset="0" style="stop-color:#BABFC5"/>
		<stop  offset="0.995" style="stop-color:#AAAFB5"/>
		<stop  offset="1" style="stop-color:#AAAFB5"/>
	</linearGradient>
	<path fill="url(#SVGID_58_)" d="M30.06,59.56c-0.31,1.48,0.08,3.04,1.18,4.16C30.15,62.6,29.76,61.04,30.06,59.56z"/>
	
		<linearGradient id="SVGID_59_" gradientUnits="userSpaceOnUse" x1="-3124.2256" y1="-1556.604" x2="-3123.2256" y2="-1556.604" gradientTransform="matrix(9.814 9.814 10.279 -10.279 46686.0625 14716.3867)">
		<stop  offset="0" style="stop-color:#BABFC5"/>
		<stop  offset="0.995" style="stop-color:#AAAFB5"/>
		<stop  offset="1" style="stop-color:#AAAFB5"/>
	</linearGradient>
	<path fill="url(#SVGID_59_)" d="M30.06,59.56c-0.31,1.48,0.08,3.04,1.18,4.16C30.15,62.6,29.76,61.04,30.06,59.56z"/>
	<path fill="#FFFFFF" d="M31.25,63.72L6.41,88.56l20.1,20.1l24.84-24.84C51.35,83.82,31.25,63.72,31.25,63.72z M26.97,104.12
		c-0.11,0.11-0.25,0.16-0.39,0.16s-0.28-0.05-0.39-0.16L11.14,89.06c-0.1-0.1-0.16-0.24-0.16-0.39s0.06-0.29,0.16-0.39L31.1,68.32
		c0.21-0.21,0.57-0.21,0.78,0l15.05,15.06c0.21,0.21,0.21,0.56,0,0.78C46.93,84.16,26.97,104.12,26.97,104.12z"/>
	
		<linearGradient id="SVGID_60_" gradientUnits="userSpaceOnUse" x1="-3189.436" y1="-1587.042" x2="-3188.436" y2="-1587.042" gradientTransform="matrix(14.658 -14.658 -13.994 -13.994 24574.2656 -68877.3281)">
		<stop  offset="0" style="stop-color:#FFFFFF"/>
		<stop  offset="0.995" style="stop-color:#C3C4C6"/>
		<stop  offset="1" style="stop-color:#C3C4C6"/>
	</linearGradient>
	<path fill="url(#SVGID_60_)" d="M31.25,63.72L6.41,88.56l20.1,20.1l24.84-24.84C51.35,83.82,31.25,63.72,31.25,63.72z
		 M26.97,104.12c-0.11,0.11-0.25,0.16-0.39,0.16s-0.28-0.05-0.39-0.16L11.14,89.06c-0.1-0.1-0.16-0.24-0.16-0.39
		s0.06-0.29,0.16-0.39L31.1,68.32c0.21-0.21,0.57-0.21,0.78,0l15.05,15.06c0.21,0.21,0.21,0.56,0,0.78
		C46.93,84.16,26.97,104.12,26.97,104.12z"/>
	<path fill="#DFE1E5" d="M31.88,68.32c-0.21-0.21-0.57-0.21-0.78,0c0.1-0.1,0.25-0.15,0.39-0.15S31.78,68.22,31.88,68.32z"/>
	
		<linearGradient id="SVGID_61_" gradientUnits="userSpaceOnUse" x1="-3189.436" y1="-1586.4967" x2="-3188.436" y2="-1586.4967" gradientTransform="matrix(14.658 -14.658 -13.994 -13.994 24574.2656 -68877.3281)">
		<stop  offset="0" style="stop-color:#FFFFFF"/>
		<stop  offset="0.995" style="stop-color:#C3C4C6"/>
		<stop  offset="1" style="stop-color:#C3C4C6"/>
	</linearGradient>
	<path fill="url(#SVGID_61_)" d="M31.88,68.32c-0.21-0.21-0.57-0.21-0.78,0c0.1-0.1,0.25-0.15,0.39-0.15S31.78,68.22,31.88,68.32z"
		/>
	<path fill="#FFFFFF" d="M28.64,96.83l2.03,2.03l3.21-3.2l-2.03-2.03l-0.38-0.38l-3.21,3.2L28.64,96.83z"/>
	
		<linearGradient id="SVGID_62_" gradientUnits="userSpaceOnUse" x1="-3189.436" y1="-1587.4728" x2="-3188.436" y2="-1587.4728" gradientTransform="matrix(14.658 -14.658 -13.994 -13.994 24574.2656 -68877.3281)">
		<stop  offset="0" style="stop-color:#FFFFFF"/>
		<stop  offset="0.995" style="stop-color:#C3C4C6"/>
		<stop  offset="1" style="stop-color:#C3C4C6"/>
	</linearGradient>
	<path fill="url(#SVGID_62_)" d="M28.64,96.83l2.03,2.03l3.21-3.2l-2.03-2.03l-0.38-0.38l-3.21,3.2L28.64,96.83z"/>
	<path fill="#FFFFFF" d="M31.46,83.72l3.99,3.99l3.2-3.2l-11.09-11.1l-3.2,3.21L31.46,83.72z"/>
	
		<linearGradient id="SVGID_63_" gradientUnits="userSpaceOnUse" x1="-3189.436" y1="-1586.9347" x2="-3188.436" y2="-1586.9347" gradientTransform="matrix(14.658 -14.658 -13.994 -13.994 24574.2656 -68877.3281)">
		<stop  offset="0" style="stop-color:#FFFFFF"/>
		<stop  offset="0.995" style="stop-color:#C3C4C6"/>
		<stop  offset="1" style="stop-color:#C3C4C6"/>
	</linearGradient>
	<path fill="url(#SVGID_63_)" d="M31.46,83.72l3.99,3.99l3.2-3.2l-11.09-11.1l-3.2,3.21L31.46,83.72z"/>
	<path fill="#FFFFFF" d="M35.45,89.26l-3.21,3.21l2.41,2.41l1.62-1.62l1.59-1.59L35.45,89.26z"/>
	
		<linearGradient id="SVGID_64_" gradientUnits="userSpaceOnUse" x1="-3189.436" y1="-1587.4725" x2="-3188.436" y2="-1587.4725" gradientTransform="matrix(14.658 -14.658 -13.994 -13.994 24574.2656 -68877.3281)">
		<stop  offset="0" style="stop-color:#FFFFFF"/>
		<stop  offset="0.995" style="stop-color:#C3C4C6"/>
		<stop  offset="1" style="stop-color:#C3C4C6"/>
	</linearGradient>
	<path fill="url(#SVGID_64_)" d="M35.45,89.26l-3.21,3.21l2.41,2.41l1.62-1.62l1.59-1.59L35.45,89.26z"/>
	<path fill="#FFFFFF" d="M39.43,85.28l-3.2,3.21l0.6,0.61l1.81,1.8l1.09-1.1l2.11-2.11L39.43,85.28z"/>
	
		<linearGradient id="SVGID_65_" gradientUnits="userSpaceOnUse" x1="-3189.436" y1="-1587.4728" x2="-3188.436" y2="-1587.4728" gradientTransform="matrix(14.658 -14.658 -13.994 -13.994 24574.2656 -68877.3281)">
		<stop  offset="0" style="stop-color:#FFFFFF"/>
		<stop  offset="0.995" style="stop-color:#C3C4C6"/>
		<stop  offset="1" style="stop-color:#C3C4C6"/>
	</linearGradient>
	<path fill="url(#SVGID_65_)" d="M39.43,85.28l-3.2,3.21l0.6,0.61l1.81,1.8l1.09-1.1l2.11-2.11L39.43,85.28z"/>
	<path fill="#FFFFFF" d="M12.3,88.68l3.32-3.32L26.7,96.45l-3.32,3.32L12.3,88.68z"/>
	
		<linearGradient id="SVGID_66_" gradientUnits="userSpaceOnUse" x1="-3189.436" y1="-1586.9346" x2="-3188.436" y2="-1586.9346" gradientTransform="matrix(14.658 -14.658 -13.994 -13.994 24574.2656 -68877.3281)">
		<stop  offset="0" style="stop-color:#FFFFFF"/>
		<stop  offset="0.995" style="stop-color:#C3C4C6"/>
		<stop  offset="1" style="stop-color:#C3C4C6"/>
	</linearGradient>
	<path fill="url(#SVGID_66_)" d="M26.71,96.45L15.62,85.36l-3.32,3.31l11.09,11.09L26.71,96.45z"/>
	<path fill="#FFFFFF" d="M40.21,84.5l3.15-3.15l2.41,2.41l-3.15,3.15L40.21,84.5z"/>
	
		<linearGradient id="SVGID_67_" gradientUnits="userSpaceOnUse" x1="-3189.436" y1="-1587.4729" x2="-3188.436" y2="-1587.4729" gradientTransform="matrix(14.658 -14.658 -13.994 -13.994 24574.2656 -68877.3281)">
		<stop  offset="0" style="stop-color:#FFFFFF"/>
		<stop  offset="0.995" style="stop-color:#C3C4C6"/>
		<stop  offset="1" style="stop-color:#C3C4C6"/>
	</linearGradient>
	<path fill="url(#SVGID_67_)" d="M40.21,84.51l2.41,2.41l3.15-3.15l-2.41-2.41L40.21,84.51z"/>
	<path fill="#FFFFFF" d="M27.87,97.61l-0.38-0.38l-3.32,3.31l2.41,2.41l3.31-3.31L27.87,97.61z"/>
	
		<linearGradient id="SVGID_68_" gradientUnits="userSpaceOnUse" x1="-3189.436" y1="-1587.4725" x2="-3188.436" y2="-1587.4725" gradientTransform="matrix(14.658 -14.658 -13.994 -13.994 24574.2656 -68877.3281)">
		<stop  offset="0" style="stop-color:#FFFFFF"/>
		<stop  offset="0.995" style="stop-color:#C3C4C6"/>
		<stop  offset="1" style="stop-color:#C3C4C6"/>
	</linearGradient>
	<path fill="url(#SVGID_68_)" d="M27.87,97.61l-0.38-0.38l-3.32,3.31l2.41,2.41l3.31-3.31L27.87,97.61z"/>
	<path fill="#FFFFFF" d="M32.91,77.21l6.52,6.52l2.47-2.47l0.68-0.68L31.49,69.49l-3.15,3.15L32.91,77.21z"/>
	
		<linearGradient id="SVGID_69_" gradientUnits="userSpaceOnUse" x1="-3189.436" y1="-1586.9348" x2="-3188.436" y2="-1586.9348" gradientTransform="matrix(14.658 -14.658 -13.994 -13.994 24574.2656 -68877.3281)">
		<stop  offset="0" style="stop-color:#FFFFFF"/>
		<stop  offset="0.995" style="stop-color:#C3C4C6"/>
		<stop  offset="1" style="stop-color:#C3C4C6"/>
	</linearGradient>
	<path fill="url(#SVGID_69_)" d="M32.91,77.21l6.52,6.52l2.47-2.47l0.68-0.68L31.49,69.49l-3.15,3.15L32.91,77.21z"/>
	<path fill="#FFFFFF" d="M22.62,90.81l4.87,4.86l3.14-3.14l0.06-0.06l-4.87-4.87l-6.22-6.22l-3.21,3.2L22.62,90.81z"/>
	
		<linearGradient id="SVGID_70_" gradientUnits="userSpaceOnUse" x1="-3189.436" y1="-1586.9346" x2="-3188.436" y2="-1586.9346" gradientTransform="matrix(14.658 -14.658 -13.994 -13.994 24574.2656 -68877.3281)">
		<stop  offset="0" style="stop-color:#FFFFFF"/>
		<stop  offset="0.995" style="stop-color:#C3C4C6"/>
		<stop  offset="1" style="stop-color:#C3C4C6"/>
	</linearGradient>
	<path fill="url(#SVGID_70_)" d="M22.62,90.81l4.87,4.86l3.14-3.14l0.06-0.06l-4.87-4.87l-6.22-6.22l-3.21,3.2L22.62,90.81z"/>
	<path fill="#FFFFFF" d="M34.67,88.49L23.58,77.4l-3.2,3.2l6.22,6.22l4.87,4.87L34.67,88.49z"/>
	
		<linearGradient id="SVGID_71_" gradientUnits="userSpaceOnUse" x1="-3189.436" y1="-1586.9348" x2="-3188.436" y2="-1586.9348" gradientTransform="matrix(14.658 -14.658 -13.994 -13.994 24574.2656 -68877.3281)">
		<stop  offset="0" style="stop-color:#FFFFFF"/>
		<stop  offset="0.995" style="stop-color:#C3C4C6"/>
		<stop  offset="1" style="stop-color:#C3C4C6"/>
	</linearGradient>
	<path fill="url(#SVGID_71_)" d="M34.67,88.49L23.58,77.4l-3.2,3.2l6.22,6.22l4.87,4.87L34.67,88.49z"/>
	<path fill="#DFE1E5" d="M45.77,83.77l-3.15,3.15l-2.41-2.41l2.41,2.41L45.77,83.77z"/>
	
		<linearGradient id="SVGID_72_" gradientUnits="userSpaceOnUse" x1="-3189.436" y1="-1587.4729" x2="-3188.436" y2="-1587.4729" gradientTransform="matrix(14.658 -14.658 -13.994 -13.994 24574.2656 -68877.3281)">
		<stop  offset="0" style="stop-color:#FFFFFF"/>
		<stop  offset="0.995" style="stop-color:#C3C4C6"/>
		<stop  offset="1" style="stop-color:#C3C4C6"/>
	</linearGradient>
	<path fill="url(#SVGID_72_)" d="M45.77,83.77l-3.15,3.15l-2.41-2.41l2.41,2.41L45.77,83.77z"/>
	<path fill="#DFE1E5" d="M24.17,100.54l2.41,2.41L24.17,100.54z"/>
	
		<linearGradient id="SVGID_73_" gradientUnits="userSpaceOnUse" x1="-3190.3384" y1="-1587.5586" x2="-3190.3384" y2="-1587.3865" gradientTransform="matrix(14.658 -14.658 -13.994 -13.994 24574.2656 -68877.3281)">
		<stop  offset="0" style="stop-color:#FFFFFF"/>
		<stop  offset="0.995" style="stop-color:#C3C4C6"/>
		<stop  offset="1" style="stop-color:#C3C4C6"/>
	</linearGradient>
	<path fill="url(#SVGID_73_)" d="M24.17,100.54l2.41,2.41L24.17,100.54z"/>
	<path fill="#DFE1E5" d="M36.27,93.26l1.59-1.59L36.27,93.26z"/>
	
		<linearGradient id="SVGID_74_" gradientUnits="userSpaceOnUse" x1="-3189.436" y1="-1587.5586" x2="-3188.436" y2="-1587.5586" gradientTransform="matrix(14.658 -14.658 -13.994 -13.994 24574.2656 -68877.3281)">
		<stop  offset="0" style="stop-color:#FFFFFF"/>
		<stop  offset="0.995" style="stop-color:#C3C4C6"/>
		<stop  offset="1" style="stop-color:#C3C4C6"/>
	</linearGradient>
	<path fill="url(#SVGID_74_)" d="M36.27,93.26l1.59-1.59L36.27,93.26z"/>
	<path fill="#DFE1E5" d="M27.49,95.67l3.14-3.14L27.49,95.67z"/>
	
		<linearGradient id="SVGID_75_" gradientUnits="userSpaceOnUse" x1="-3189.436" y1="-1587.3311" x2="-3188.436" y2="-1587.3311" gradientTransform="matrix(14.658 -14.658 -13.994 -13.994 24574.2656 -68877.3281)">
		<stop  offset="0" style="stop-color:#FFFFFF"/>
		<stop  offset="0.995" style="stop-color:#C3C4C6"/>
		<stop  offset="1" style="stop-color:#C3C4C6"/>
	</linearGradient>
	<path fill="url(#SVGID_75_)" d="M27.49,95.67l3.14-3.14L27.49,95.67z"/>
	<path fill="#DFE1E5" d="M35.45,87.71l3.2-3.2L35.45,87.71z"/>
	
		<linearGradient id="SVGID_76_" gradientUnits="userSpaceOnUse" x1="-3189.436" y1="-1587.3311" x2="-3188.436" y2="-1587.3311" gradientTransform="matrix(14.658 -14.658 -13.994 -13.994 24574.2656 -68877.3281)">
		<stop  offset="0" style="stop-color:#FFFFFF"/>
		<stop  offset="0.995" style="stop-color:#C3C4C6"/>
		<stop  offset="1" style="stop-color:#C3C4C6"/>
	</linearGradient>
	<path fill="url(#SVGID_76_)" d="M35.45,87.71l3.2-3.2L35.45,87.71z"/>
	<path fill="#DFE1E5" d="M42.58,80.58l-0.68,0.68L42.58,80.58z"/>
	
		<linearGradient id="SVGID_77_" gradientUnits="userSpaceOnUse" x1="-3189.436" y1="-1587.3311" x2="-3188.436" y2="-1587.3311" gradientTransform="matrix(14.658 -14.658 -13.994 -13.994 24574.2656 -68877.3281)">
		<stop  offset="0" style="stop-color:#FFFFFF"/>
		<stop  offset="0.995" style="stop-color:#C3C4C6"/>
		<stop  offset="1" style="stop-color:#C3C4C6"/>
	</linearGradient>
	<path fill="url(#SVGID_77_)" d="M42.58,80.58l-0.68,0.68L42.58,80.58z"/>
	<path fill="#DFE1E5" d="M32.91,77.21l6.52,6.52L32.91,77.21z"/>
	
		<linearGradient id="SVGID_78_" gradientUnits="userSpaceOnUse" x1="-3189.2449" y1="-1587.0981" x2="-3189.2439" y2="-1587.0981" gradientTransform="matrix(14.658 -14.658 -13.994 -13.994 24574.2656 -68877.3281)">
		<stop  offset="0" style="stop-color:#FFFFFF"/>
		<stop  offset="0.995" style="stop-color:#C3C4C6"/>
		<stop  offset="1" style="stop-color:#C3C4C6"/>
	</linearGradient>
	<path fill="url(#SVGID_78_)" d="M32.91,77.21l6.52,6.52L32.91,77.21z"/>
	<path fill="#DFE1E5" d="M39.43,85.28l2.41,2.41l-2.11,2.11l2.11-2.11L39.43,85.28z"/>
	
		<linearGradient id="SVGID_79_" gradientUnits="userSpaceOnUse" x1="-3189.436" y1="-1587.4725" x2="-3188.436" y2="-1587.4725" gradientTransform="matrix(14.658 -14.658 -13.994 -13.994 24574.2656 -68877.3281)">
		<stop  offset="0" style="stop-color:#FFFFFF"/>
		<stop  offset="0.995" style="stop-color:#C3C4C6"/>
		<stop  offset="1" style="stop-color:#C3C4C6"/>
	</linearGradient>
	<path fill="url(#SVGID_79_)" d="M39.43,85.28l2.41,2.41l-2.11,2.11l2.11-2.11L39.43,85.28z"/>
	<path fill="#DFE1E5" d="M31.46,83.72l-7.1-7.1l3.2-3.21l-3.2,3.21L31.46,83.72z"/>
	
		<linearGradient id="SVGID_80_" gradientUnits="userSpaceOnUse" x1="-3189.436" y1="-1586.7921" x2="-3188.436" y2="-1586.7921" gradientTransform="matrix(14.658 -14.658 -13.994 -13.994 24574.2656 -68877.3281)">
		<stop  offset="0" style="stop-color:#FFFFFF"/>
		<stop  offset="0.995" style="stop-color:#C3C4C6"/>
		<stop  offset="1" style="stop-color:#C3C4C6"/>
	</linearGradient>
	<path fill="url(#SVGID_80_)" d="M31.46,83.72l-7.1-7.1l3.2-3.21l-3.2,3.21L31.46,83.72z"/>
	<path fill="#DFE1E5" d="M38.64,90.9l-1.81-1.8L38.64,90.9z"/>
	
		<linearGradient id="SVGID_81_" gradientUnits="userSpaceOnUse" x1="-3189.5161" y1="-1587.559" x2="-3189.5161" y2="-1587.4301" gradientTransform="matrix(14.658 -14.658 -13.994 -13.994 24574.2656 -68877.3281)">
		<stop  offset="0" style="stop-color:#FFFFFF"/>
		<stop  offset="0.995" style="stop-color:#C3C4C6"/>
		<stop  offset="1" style="stop-color:#C3C4C6"/>
	</linearGradient>
	<path fill="url(#SVGID_81_)" d="M38.64,90.9l-1.81-1.8L38.64,90.9z"/>
	<path fill="#DFE1E5" d="M26.6,86.82l4.87,4.87L26.6,86.82z"/>
	
		<linearGradient id="SVGID_82_" gradientUnits="userSpaceOnUse" x1="-3189.7876" y1="-1587.3311" x2="-3189.7876" y2="-1586.983" gradientTransform="matrix(14.658 -14.658 -13.994 -13.994 24574.2656 -68877.3281)">
		<stop  offset="0" style="stop-color:#FFFFFF"/>
		<stop  offset="0.995" style="stop-color:#C3C4C6"/>
		<stop  offset="1" style="stop-color:#C3C4C6"/>
	</linearGradient>
	<path fill="url(#SVGID_82_)" d="M26.6,86.82l4.87,4.87L26.6,86.82z"/>
	<path fill="#DFE1E5" d="M30.69,92.47l-4.87-4.87L30.69,92.47z"/>
	
		<linearGradient id="SVGID_83_" gradientUnits="userSpaceOnUse" x1="-3189.8408" y1="-1587.3311" x2="-3189.8408" y2="-1586.983" gradientTransform="matrix(14.658 -14.658 -13.994 -13.994 24574.2656 -68877.3281)">
		<stop  offset="0" style="stop-color:#FFFFFF"/>
		<stop  offset="0.995" style="stop-color:#C3C4C6"/>
		<stop  offset="1" style="stop-color:#C3C4C6"/>
	</linearGradient>
	<path fill="url(#SVGID_83_)" d="M30.69,92.47l-4.87-4.87L30.69,92.47z"/>
	<path fill="#DFE1E5" d="M31.85,93.63l2.03,2.03l-3.21,3.2l3.21-3.2L31.85,93.63z"/>
	
		<linearGradient id="SVGID_84_" gradientUnits="userSpaceOnUse" x1="-3189.436" y1="-1587.4865" x2="-3188.436" y2="-1587.4865" gradientTransform="matrix(14.658 -14.658 -13.994 -13.994 24574.2656 -68877.3281)">
		<stop  offset="0" style="stop-color:#FFFFFF"/>
		<stop  offset="0.995" style="stop-color:#C3C4C6"/>
		<stop  offset="1" style="stop-color:#C3C4C6"/>
	</linearGradient>
	<path fill="url(#SVGID_84_)" d="M31.85,93.63l2.03,2.03l-3.21,3.2l3.21-3.2L31.85,93.63z"/>
	<path fill="#DFE1E5" d="M22.62,90.81l-6.23-6.23l3.21-3.2l-3.21,3.2L22.62,90.81z"/>
	
		<linearGradient id="SVGID_85_" gradientUnits="userSpaceOnUse" x1="-3189.436" y1="-1586.7609" x2="-3188.436" y2="-1586.7609" gradientTransform="matrix(14.658 -14.658 -13.994 -13.994 24574.2656 -68877.3281)">
		<stop  offset="0" style="stop-color:#FFFFFF"/>
		<stop  offset="0.995" style="stop-color:#C3C4C6"/>
		<stop  offset="1" style="stop-color:#C3C4C6"/>
	</linearGradient>
	<path fill="url(#SVGID_85_)" d="M22.62,90.81l-6.23-6.23l3.21-3.2l-3.21,3.2L22.62,90.81z"/>
	<path fill="#DFE1E5" d="M28.26,96.45l0.38,0.38L28.26,96.45z"/>
	
		<linearGradient id="SVGID_86_" gradientUnits="userSpaceOnUse" x1="-3190.0593" y1="-1587.4136" x2="-3190.0593" y2="-1587.3865" gradientTransform="matrix(14.658 -14.658 -13.994 -13.994 24574.2656 -68877.3281)">
		<stop  offset="0" style="stop-color:#FFFFFF"/>
		<stop  offset="0.995" style="stop-color:#C3C4C6"/>
		<stop  offset="1" style="stop-color:#C3C4C6"/>
	</linearGradient>
	<path fill="url(#SVGID_86_)" d="M28.26,96.45l0.38,0.38L28.26,96.45z"/>
	<path fill="#DFE1E5" d="M27.87,97.61l-0.38-0.38L27.87,97.61z"/>
	
		<linearGradient id="SVGID_87_" gradientUnits="userSpaceOnUse" x1="-3190.1123" y1="-1587.4139" x2="-3190.1123" y2="-1587.3868" gradientTransform="matrix(14.658 -14.658 -13.994 -13.994 24574.2656 -68877.3281)">
		<stop  offset="0" style="stop-color:#FFFFFF"/>
		<stop  offset="0.995" style="stop-color:#C3C4C6"/>
		<stop  offset="1" style="stop-color:#C3C4C6"/>
	</linearGradient>
	<path fill="url(#SVGID_87_)" d="M27.87,97.61l-0.38-0.38L27.87,97.61z"/>
	<path fill="#DFE1E5" d="M26.71,96.45L15.62,85.36l-3.32,3.31l3.32-3.31L26.71,96.45z"/>
	
		<linearGradient id="SVGID_88_" gradientUnits="userSpaceOnUse" x1="-3189.436" y1="-1586.9346" x2="-3188.436" y2="-1586.9346" gradientTransform="matrix(14.658 -14.658 -13.994 -13.994 24574.2656 -68877.3281)">
		<stop  offset="0" style="stop-color:#FFFFFF"/>
		<stop  offset="0.995" style="stop-color:#C3C4C6"/>
		<stop  offset="1" style="stop-color:#C3C4C6"/>
	</linearGradient>
	<path fill="url(#SVGID_88_)" d="M26.71,96.45L15.62,85.36l-3.32,3.31l3.32-3.31L26.71,96.45z"/>
	<path fill="#FFFFFF" d="M42.58,80.58L31.49,69.49L42.58,80.58z"/>
	
		<linearGradient id="SVGID_89_" gradientUnits="userSpaceOnUse" x1="-3189.03" y1="-1586.9348" x2="-3189.0295" y2="-1586.9348" gradientTransform="matrix(14.658 -14.658 -13.994 -13.994 24574.2656 -68877.3281)">
		<stop  offset="0" style="stop-color:#DFE1E5"/>
		<stop  offset="0.995" style="stop-color:#AAADB2"/>
		<stop  offset="1" style="stop-color:#AAADB2"/>
	</linearGradient>
	<path fill="url(#SVGID_89_)" d="M42.58,80.58L31.49,69.49L42.58,80.58z"/>
	<path fill="#FFFFFF" d="M45.77,83.77l-2.41-2.41L45.77,83.77z"/>
	
		<linearGradient id="SVGID_90_" gradientUnits="userSpaceOnUse" x1="-3189.03" y1="-1587.4729" x2="-3189.0291" y2="-1587.4729" gradientTransform="matrix(14.658 -14.658 -13.994 -13.994 24574.2656 -68877.3281)">
		<stop  offset="0" style="stop-color:#DFE1E5"/>
		<stop  offset="0.995" style="stop-color:#AAADB2"/>
		<stop  offset="1" style="stop-color:#AAADB2"/>
	</linearGradient>
	<path fill="url(#SVGID_90_)" d="M45.77,83.77l-2.41-2.41L45.77,83.77z"/>
	<path fill="#FFFFFF" d="M26.58,102.95l3.31-3.31L26.58,102.95z"/>
	
		<linearGradient id="SVGID_91_" gradientUnits="userSpaceOnUse" x1="-3189.436" y1="-1587.5586" x2="-3188.436" y2="-1587.5586" gradientTransform="matrix(14.658 -14.658 -13.994 -13.994 24574.2656 -68877.3281)">
		<stop  offset="0" style="stop-color:#DFE1E5"/>
		<stop  offset="0.995" style="stop-color:#AAADB2"/>
		<stop  offset="1" style="stop-color:#AAADB2"/>
	</linearGradient>
	<path fill="url(#SVGID_91_)" d="M26.58,102.95l3.31-3.31L26.58,102.95z"/>
	<path fill="#FFFFFF" d="M23.58,77.4l-3.2,3.2L23.58,77.4z"/>
	
		<linearGradient id="SVGID_92_" gradientUnits="userSpaceOnUse" x1="-3189.436" y1="-1586.5386" x2="-3188.436" y2="-1586.5386" gradientTransform="matrix(14.658 -14.658 -13.994 -13.994 24574.2656 -68877.3281)">
		<stop  offset="0" style="stop-color:#DFE1E5"/>
		<stop  offset="0.995" style="stop-color:#AAADB2"/>
		<stop  offset="1" style="stop-color:#AAADB2"/>
	</linearGradient>
	<path fill="url(#SVGID_92_)" d="M23.58,77.4l-3.2,3.2L23.58,77.4z"/>
	<path fill="#FFFFFF" d="M31.49,69.49l-3.15,3.15L31.49,69.49z"/>
	
		<linearGradient id="SVGID_93_" gradientUnits="userSpaceOnUse" x1="-3189.436" y1="-1586.5386" x2="-3188.436" y2="-1586.5386" gradientTransform="matrix(14.658 -14.658 -13.994 -13.994 24574.2656 -68877.3281)">
		<stop  offset="0" style="stop-color:#DFE1E5"/>
		<stop  offset="0.995" style="stop-color:#AAADB2"/>
		<stop  offset="1" style="stop-color:#AAADB2"/>
	</linearGradient>
	<path fill="url(#SVGID_93_)" d="M31.49,69.49l-3.15,3.15L31.49,69.49z"/>
	<path fill="#FFFFFF" d="M12.3,88.67l11.09,11.09L12.3,88.67z"/>
	
		<linearGradient id="SVGID_94_" gradientUnits="userSpaceOnUse" x1="-3190.3384" y1="-1587.3307" x2="-3190.3384" y2="-1586.5382" gradientTransform="matrix(14.658 -14.658 -13.994 -13.994 24574.2656 -68877.3281)">
		<stop  offset="0" style="stop-color:#DFE1E5"/>
		<stop  offset="0.995" style="stop-color:#AAADB2"/>
		<stop  offset="1" style="stop-color:#AAADB2"/>
	</linearGradient>
	<path fill="url(#SVGID_94_)" d="M12.3,88.67l11.09,11.09L12.3,88.67z"/>
	<path fill="#FFFFFF" d="M34.65,94.88l1.62-1.62L34.65,94.88z"/>
	
		<linearGradient id="SVGID_95_" gradientUnits="userSpaceOnUse" x1="-3189.436" y1="-1587.5586" x2="-3188.436" y2="-1587.5586" gradientTransform="matrix(14.658 -14.658 -13.994 -13.994 24574.2656 -68877.3281)">
		<stop  offset="0" style="stop-color:#DFE1E5"/>
		<stop  offset="0.995" style="stop-color:#AAADB2"/>
		<stop  offset="1" style="stop-color:#AAADB2"/>
	</linearGradient>
	<path fill="url(#SVGID_95_)" d="M34.65,94.88l1.62-1.62L34.65,94.88z"/>
	<path fill="#FFFFFF" d="M38.64,90.9l1.09-1.1L38.64,90.9z"/>
	
		<linearGradient id="SVGID_96_" gradientUnits="userSpaceOnUse" x1="-3189.436" y1="-1587.5588" x2="-3188.436" y2="-1587.5588" gradientTransform="matrix(14.658 -14.658 -13.994 -13.994 24574.2656 -68877.3281)">
		<stop  offset="0" style="stop-color:#DFE1E5"/>
		<stop  offset="0.995" style="stop-color:#AAADB2"/>
		<stop  offset="1" style="stop-color:#AAADB2"/>
	</linearGradient>
	<path fill="url(#SVGID_96_)" d="M38.64,90.9l1.09-1.1L38.64,90.9z"/>
	<path fill="#DFE1E5" d="M46.93,83.38L31.88,68.32c-0.1-0.1-0.25-0.15-0.39-0.15s-0.29,0.05-0.39,0.15L11.14,88.29
		c-0.1,0.1-0.16,0.24-0.16,0.39s0.06,0.28,0.16,0.39l15.06,15.05c0.11,0.11,0.25,0.16,0.39,0.16s0.28-0.05,0.39-0.16l19.96-19.96
		C47.15,83.94,47.15,83.59,46.93,83.38z M42.95,87.25c0.21,0.21,0.21,0.56,0,0.78c-0.11,0.11-0.25,0.16-0.39,0.16
		s-0.28-0.05-0.39-0.16l-0.33-0.33l-2.11,2.11l-1.1,1.1l0.33,0.33c0.21,0.21,0.21,0.56,0,0.78c-0.11,0.11-0.25,0.16-0.39,0.16
		s-0.28-0.05-0.39-0.16l-0.33-0.33l-1.59,1.59l-1.62,1.62l0.33,0.33c0.21,0.21,0.21,0.56,0,0.78c-0.11,0.11-0.25,0.16-0.39,0.16
		s-0.28-0.05-0.39-0.16l-0.33-0.33l-3.2,3.2l0.33,0.33c0.21,0.21,0.21,0.56,0,0.78c-0.11,0.11-0.25,0.16-0.39,0.16
		s-0.28-0.05-0.39-0.16l-0.33-0.33l-3.31,3.31l-2.41-2.41L24,100.71c-0.11,0.11-0.25,0.16-0.39,0.16s-0.28-0.05-0.39-0.16
		c-0.21-0.21-0.21-0.56,0-0.78l0.17-0.17L12.3,88.67l3.31-3.31l-0.33-0.33c-0.21-0.21-0.21-0.56,0-0.78
		c0.11-0.11,0.25-0.16,0.39-0.16s0.28,0.05,0.39,0.16l0.33,0.33l3.2-3.2l-0.33-0.33c-0.21-0.21-0.21-0.56,0-0.78
		c0.11-0.11,0.25-0.16,0.39-0.16s0.28,0.05,0.39,0.16l0.33,0.33l3.2-3.2l-0.33-0.33c-0.21-0.21-0.21-0.56,0-0.78
		c0.11-0.11,0.25-0.16,0.39-0.16s0.28,0.05,0.39,0.16l0.33,0.33l3.2-3.2l-0.33-0.33c-0.21-0.21-0.21-0.56,0-0.78
		c0.11-0.11,0.25-0.16,0.39-0.16s0.28,0.05,0.39,0.16l0.33,0.33l3.15-3.15l11.09,11.09l0.39-0.39c0.11-0.11,0.25-0.16,0.39-0.16
		s0.28,0.05,0.39,0.16c0.21,0.21,0.21,0.56,0,0.78l-0.39,0.39l2.41,2.41l-3.15,3.15C42.61,86.92,42.95,87.25,42.95,87.25z"/>
	
		<linearGradient id="SVGID_97_" gradientUnits="userSpaceOnUse" x1="-3189.436" y1="-1587.0488" x2="-3188.436" y2="-1587.0488" gradientTransform="matrix(14.658 -14.658 -13.994 -13.994 24574.2656 -68877.3281)">
		<stop  offset="0" style="stop-color:#DFE1E5"/>
		<stop  offset="0.995" style="stop-color:#AAADB2"/>
		<stop  offset="1" style="stop-color:#AAADB2"/>
	</linearGradient>
	<path fill="url(#SVGID_97_)" d="M46.93,83.38L31.88,68.32c-0.1-0.1-0.25-0.15-0.39-0.15s-0.29,0.05-0.39,0.15L11.14,88.29
		c-0.1,0.1-0.16,0.24-0.16,0.39s0.06,0.28,0.16,0.39l15.06,15.05c0.11,0.11,0.25,0.16,0.39,0.16s0.28-0.05,0.39-0.16l19.96-19.96
		C47.15,83.94,47.15,83.59,46.93,83.38z M42.95,87.25c0.21,0.21,0.21,0.56,0,0.78c-0.11,0.11-0.25,0.16-0.39,0.16
		s-0.28-0.05-0.39-0.16l-0.33-0.33l-2.11,2.11l-1.1,1.1l0.33,0.33c0.21,0.21,0.21,0.56,0,0.78c-0.11,0.11-0.25,0.16-0.39,0.16
		s-0.28-0.05-0.39-0.16l-0.33-0.33l-1.59,1.59l-1.62,1.62l0.33,0.33c0.21,0.21,0.21,0.56,0,0.78c-0.11,0.11-0.25,0.16-0.39,0.16
		s-0.28-0.05-0.39-0.16l-0.33-0.33l-3.2,3.2l0.33,0.33c0.21,0.21,0.21,0.56,0,0.78c-0.11,0.11-0.25,0.16-0.39,0.16
		s-0.28-0.05-0.39-0.16l-0.33-0.33l-3.31,3.31l-2.41-2.41L24,100.71c-0.11,0.11-0.25,0.16-0.39,0.16s-0.28-0.05-0.39-0.16
		c-0.21-0.21-0.21-0.56,0-0.78l0.17-0.17L12.3,88.67l3.31-3.31l-0.33-0.33c-0.21-0.21-0.21-0.56,0-0.78
		c0.11-0.11,0.25-0.16,0.39-0.16s0.28,0.05,0.39,0.16l0.33,0.33l3.2-3.2l-0.33-0.33c-0.21-0.21-0.21-0.56,0-0.78
		c0.11-0.11,0.25-0.16,0.39-0.16s0.28,0.05,0.39,0.16l0.33,0.33l3.2-3.2l-0.33-0.33c-0.21-0.21-0.21-0.56,0-0.78
		c0.11-0.11,0.25-0.16,0.39-0.16s0.28,0.05,0.39,0.16l0.33,0.33l3.2-3.2l-0.33-0.33c-0.21-0.21-0.21-0.56,0-0.78
		c0.11-0.11,0.25-0.16,0.39-0.16s0.28,0.05,0.39,0.16l0.33,0.33l3.15-3.15l11.09,11.09l0.39-0.39c0.11-0.11,0.25-0.16,0.39-0.16
		s0.28,0.05,0.39,0.16c0.21,0.21,0.21,0.56,0,0.78l-0.39,0.39l2.41,2.41l-3.15,3.15C42.61,86.92,42.95,87.25,42.95,87.25z"/>
	<path fill="#FFFFFF" d="M41.9,81.26l-2.47,2.47L41.9,81.26z"/>
	
		<linearGradient id="SVGID_98_" gradientUnits="userSpaceOnUse" x1="-3189.436" y1="-1587.3311" x2="-3188.436" y2="-1587.3311" gradientTransform="matrix(14.658 -14.658 -13.994 -13.994 24574.2656 -68877.3281)">
		<stop  offset="0" style="stop-color:#DFE1E5"/>
		<stop  offset="0.995" style="stop-color:#AAADB2"/>
		<stop  offset="1" style="stop-color:#AAADB2"/>
	</linearGradient>
	<path fill="url(#SVGID_98_)" d="M41.9,81.26l-2.47,2.47L41.9,81.26z"/>
	<path fill="#FFFFFF" d="M40.21,84.51l3.15-3.15L40.21,84.51z"/>
	
		<linearGradient id="SVGID_99_" gradientUnits="userSpaceOnUse" x1="-3189.436" y1="-1587.3868" x2="-3188.436" y2="-1587.3868" gradientTransform="matrix(14.658 -14.658 -13.994 -13.994 24574.2656 -68877.3281)">
		<stop  offset="0" style="stop-color:#DFE1E5"/>
		<stop  offset="0.995" style="stop-color:#AAADB2"/>
		<stop  offset="1" style="stop-color:#AAADB2"/>
	</linearGradient>
	<path fill="url(#SVGID_99_)" d="M40.21,84.51l3.15-3.15L40.21,84.51z"/>
	<path fill="#FFFFFF" d="M26.71,96.45l-3.32,3.31L26.71,96.45z"/>
	
		<linearGradient id="SVGID_100_" gradientUnits="userSpaceOnUse" x1="-3189.436" y1="-1587.3309" x2="-3188.436" y2="-1587.3309" gradientTransform="matrix(14.658 -14.658 -13.994 -13.994 24574.2656 -68877.3281)">
		<stop  offset="0" style="stop-color:#DFE1E5"/>
		<stop  offset="0.995" style="stop-color:#AAADB2"/>
		<stop  offset="1" style="stop-color:#AAADB2"/>
	</linearGradient>
	<path fill="url(#SVGID_100_)" d="M26.71,96.45l-3.32,3.31L26.71,96.45z"/>
	<path fill="#FFFFFF" d="M32.24,92.47l3.21-3.21L32.24,92.47z"/>
	
		<linearGradient id="SVGID_101_" gradientUnits="userSpaceOnUse" x1="-3189.436" y1="-1587.3865" x2="-3188.436" y2="-1587.3865" gradientTransform="matrix(14.658 -14.658 -13.994 -13.994 24574.2656 -68877.3281)">
		<stop  offset="0" style="stop-color:#DFE1E5"/>
		<stop  offset="0.995" style="stop-color:#AAADB2"/>
		<stop  offset="1" style="stop-color:#AAADB2"/>
	</linearGradient>
	<path fill="url(#SVGID_101_)" d="M32.24,92.47l3.21-3.21L32.24,92.47z"/>
	<path fill="#FFFFFF" d="M36.23,88.49l3.2-3.21L36.23,88.49z"/>
	
		<linearGradient id="SVGID_102_" gradientUnits="userSpaceOnUse" x1="-3189.436" y1="-1587.3866" x2="-3188.436" y2="-1587.3866" gradientTransform="matrix(14.658 -14.658 -13.994 -13.994 24574.2656 -68877.3281)">
		<stop  offset="0" style="stop-color:#DFE1E5"/>
		<stop  offset="0.995" style="stop-color:#AAADB2"/>
		<stop  offset="1" style="stop-color:#AAADB2"/>
	</linearGradient>
	<path fill="url(#SVGID_102_)" d="M36.23,88.49l3.2-3.21L36.23,88.49z"/>
	<path fill="#FFFFFF" d="M30.69,92.47l-0.06,0.06L30.69,92.47z"/>
	
		<linearGradient id="SVGID_103_" gradientUnits="userSpaceOnUse" x1="-3189.436" y1="-1587.3311" x2="-3188.436" y2="-1587.3311" gradientTransform="matrix(14.658 -14.658 -13.994 -13.994 24574.2656 -68877.3281)">
		<stop  offset="0" style="stop-color:#DFE1E5"/>
		<stop  offset="0.995" style="stop-color:#AAADB2"/>
		<stop  offset="1" style="stop-color:#AAADB2"/>
	</linearGradient>
	<path fill="url(#SVGID_103_)" d="M30.69,92.47l-0.06,0.06L30.69,92.47z"/>
	<path fill="#FFFFFF" d="M31.47,91.69l3.2-3.2L31.47,91.69z"/>
	
		<linearGradient id="SVGID_104_" gradientUnits="userSpaceOnUse" x1="-3189.436" y1="-1587.3311" x2="-3188.436" y2="-1587.3311" gradientTransform="matrix(14.658 -14.658 -13.994 -13.994 24574.2656 -68877.3281)">
		<stop  offset="0" style="stop-color:#DFE1E5"/>
		<stop  offset="0.995" style="stop-color:#AAADB2"/>
		<stop  offset="1" style="stop-color:#AAADB2"/>
	</linearGradient>
	<path fill="url(#SVGID_104_)" d="M31.47,91.69l3.2-3.2L31.47,91.69z"/>
	<path fill="#DFE1E5" d="M36.23,88.49l3.2-3.21l-0.78-0.77l-3.2,3.2L36.23,88.49z"/>
	
		<linearGradient id="SVGID_105_" gradientUnits="userSpaceOnUse" x1="-3189.436" y1="-1587.3589" x2="-3188.436" y2="-1587.3589" gradientTransform="matrix(14.658 -14.658 -13.994 -13.994 24574.2656 -68877.3281)">
		<stop  offset="0" style="stop-color:#DFE1E5"/>
		<stop  offset="0.995" style="stop-color:#AAADB2"/>
		<stop  offset="1" style="stop-color:#AAADB2"/>
	</linearGradient>
	<path fill="url(#SVGID_105_)" d="M36.23,88.49l3.2-3.21l-0.78-0.77l-3.2,3.2L36.23,88.49z"/>
	<path fill="#DFE1E5" d="M27.49,97.23l-0.78-0.78l-3.31,3.31l-0.17,0.17c-0.21,0.21-0.21,0.56,0,0.78c0.11,0.11,0.25,0.16,0.39,0.16
		s0.28-0.05,0.39-0.16l0.17-0.17C24.18,100.54,27.49,97.23,27.49,97.23z"/>
	
		<linearGradient id="SVGID_106_" gradientUnits="userSpaceOnUse" x1="-3189.436" y1="-1587.3589" x2="-3188.436" y2="-1587.3589" gradientTransform="matrix(14.658 -14.658 -13.994 -13.994 24574.2656 -68877.3281)">
		<stop  offset="0" style="stop-color:#DFE1E5"/>
		<stop  offset="0.995" style="stop-color:#AAADB2"/>
		<stop  offset="1" style="stop-color:#AAADB2"/>
	</linearGradient>
	<path fill="url(#SVGID_106_)" d="M27.49,97.23l-0.78-0.78l-3.31,3.31l-0.17,0.17c-0.21,0.21-0.21,0.56,0,0.78
		c0.11,0.11,0.25,0.16,0.39,0.16s0.28-0.05,0.39-0.16l0.17-0.17C24.18,100.54,27.49,97.23,27.49,97.23z"/>
	<path fill="#DFE1E5" d="M39.43,83.73l0.78,0.78l3.15-3.15l0.39-0.39c0.21-0.21,0.21-0.56,0-0.78c-0.11-0.11-0.25-0.16-0.39-0.16
		s-0.28,0.05-0.39,0.16l-0.39,0.39l-0.69,0.69C41.89,81.27,39.43,83.73,39.43,83.73z"/>
	
		<linearGradient id="SVGID_107_" gradientUnits="userSpaceOnUse" x1="-3189.436" y1="-1587.3589" x2="-3188.436" y2="-1587.3589" gradientTransform="matrix(14.658 -14.658 -13.994 -13.994 24574.2656 -68877.3281)">
		<stop  offset="0" style="stop-color:#DFE1E5"/>
		<stop  offset="0.995" style="stop-color:#AAADB2"/>
		<stop  offset="1" style="stop-color:#AAADB2"/>
	</linearGradient>
	<path fill="url(#SVGID_107_)" d="M39.43,83.73l0.78,0.78l3.15-3.15l0.39-0.39c0.21-0.21,0.21-0.56,0-0.78
		c-0.11-0.11-0.25-0.16-0.39-0.16s-0.28,0.05-0.39,0.16l-0.39,0.39l-0.69,0.69C41.89,81.27,39.43,83.73,39.43,83.73z"/>
	<path fill="#DFE1E5" d="M31.47,91.69l0.77,0.78l3.21-3.21l-0.78-0.77C34.67,88.49,31.47,91.69,31.47,91.69z"/>
	
		<linearGradient id="SVGID_108_" gradientUnits="userSpaceOnUse" x1="-3189.436" y1="-1587.3588" x2="-3188.436" y2="-1587.3588" gradientTransform="matrix(14.658 -14.658 -13.994 -13.994 24574.2656 -68877.3281)">
		<stop  offset="0" style="stop-color:#DFE1E5"/>
		<stop  offset="0.995" style="stop-color:#AAADB2"/>
		<stop  offset="1" style="stop-color:#AAADB2"/>
	</linearGradient>
	<path fill="url(#SVGID_108_)" d="M31.47,91.69l0.77,0.78l3.21-3.21l-0.78-0.77C34.67,88.49,31.47,91.69,31.47,91.69z"/>
	<path fill="#DFE1E5" d="M30.69,92.47l-0.06,0.06l-3.14,3.14l0.77,0.78l3.21-3.2L30.69,92.47z"/>
	
		<linearGradient id="SVGID_109_" gradientUnits="userSpaceOnUse" x1="-3189.436" y1="-1587.3589" x2="-3188.436" y2="-1587.3589" gradientTransform="matrix(14.658 -14.658 -13.994 -13.994 24574.2656 -68877.3281)">
		<stop  offset="0" style="stop-color:#DFE1E5"/>
		<stop  offset="0.995" style="stop-color:#AAADB2"/>
		<stop  offset="1" style="stop-color:#AAADB2"/>
	</linearGradient>
	<path fill="url(#SVGID_109_)" d="M30.69,92.47l-0.06,0.06l-3.14,3.14l0.77,0.78l3.21-3.2L30.69,92.47z"/>
	<path fill="#FFFFFF" d="M38.65,84.51l-11.09-11.1L38.65,84.51z"/>
	
		<linearGradient id="SVGID_110_" gradientUnits="userSpaceOnUse" x1="-3189.436" y1="-1586.9347" x2="-3189.1689" y2="-1586.9347" gradientTransform="matrix(14.658 -14.658 -13.994 -13.994 24574.2656 -68877.3281)">
		<stop  offset="0" style="stop-color:#DFE1E5"/>
		<stop  offset="0.995" style="stop-color:#AAADB2"/>
		<stop  offset="1" style="stop-color:#AAADB2"/>
	</linearGradient>
	<path fill="url(#SVGID_110_)" d="M38.65,84.51l-11.09-11.1L38.65,84.51z"/>
	<path fill="#FFFFFF" d="M32.91,77.21l-4.57-4.57L32.91,77.21z"/>
	
		<linearGradient id="SVGID_111_" gradientUnits="userSpaceOnUse" x1="-3189.2446" y1="-1586.5386" x2="-3189.2446" y2="-1586.8651" gradientTransform="matrix(14.658 -14.658 -13.994 -13.994 24574.2656 -68877.3281)">
		<stop  offset="0" style="stop-color:#DFE1E5"/>
		<stop  offset="0.995" style="stop-color:#AAADB2"/>
		<stop  offset="1" style="stop-color:#AAADB2"/>
	</linearGradient>
	<path fill="url(#SVGID_111_)" d="M32.91,77.21l-4.57-4.57L32.91,77.21z"/>
	<path fill="#DFE1E5" d="M40.21,84.51l-0.78-0.78l-6.52-6.52l-4.57-4.57l-0.33-0.33c-0.11-0.11-0.25-0.16-0.39-0.16
		s-0.28,0.05-0.39,0.16c-0.21,0.21-0.21,0.56,0,0.78l0.33,0.33l11.09,11.09l0.78,0.78l2.41,2.41l0.33,0.33
		c0.11,0.11,0.25,0.16,0.39,0.16s0.28-0.05,0.39-0.16c0.21-0.21,0.21-0.56,0-0.78l-0.33-0.33C42.62,86.92,40.21,84.51,40.21,84.51z"
		/>
	
		<linearGradient id="SVGID_112_" gradientUnits="userSpaceOnUse" x1="-3189.436" y1="-1587.0488" x2="-3188.436" y2="-1587.0488" gradientTransform="matrix(14.658 -14.658 -13.994 -13.994 24574.2656 -68877.3281)">
		<stop  offset="0" style="stop-color:#DFE1E5"/>
		<stop  offset="0.995" style="stop-color:#AAADB2"/>
		<stop  offset="1" style="stop-color:#AAADB2"/>
	</linearGradient>
	<path fill="url(#SVGID_112_)" d="M40.21,84.51l-0.78-0.78l-6.52-6.52l-4.57-4.57l-0.33-0.33c-0.11-0.11-0.25-0.16-0.39-0.16
		s-0.28,0.05-0.39,0.16c-0.21,0.21-0.21,0.56,0,0.78l0.33,0.33l11.09,11.09l0.78,0.78l2.41,2.41l0.33,0.33
		c0.11,0.11,0.25,0.16,0.39,0.16s0.28-0.05,0.39-0.16c0.21-0.21,0.21-0.56,0-0.78l-0.33-0.33C42.62,86.92,40.21,84.51,40.21,84.51z"
		/>
	<path fill="#FFFFFF" d="M34.67,88.49L23.58,77.4L34.67,88.49z"/>
	
		<linearGradient id="SVGID_113_" gradientUnits="userSpaceOnUse" x1="-3189.5693" y1="-1587.3311" x2="-3189.5693" y2="-1586.5386" gradientTransform="matrix(14.658 -14.658 -13.994 -13.994 24574.2656 -68877.3281)">
		<stop  offset="0" style="stop-color:#DFE1E5"/>
		<stop  offset="0.995" style="stop-color:#AAADB2"/>
		<stop  offset="1" style="stop-color:#AAADB2"/>
	</linearGradient>
	<path fill="url(#SVGID_113_)" d="M34.67,88.49L23.58,77.4L34.67,88.49z"/>
	<path fill="#FFFFFF" d="M37.86,91.67l-2.41-2.41L37.86,91.67z"/>
	
		<linearGradient id="SVGID_114_" gradientUnits="userSpaceOnUse" x1="-3189.5688" y1="-1587.5586" x2="-3189.5688" y2="-1587.3865" gradientTransform="matrix(14.658 -14.658 -13.994 -13.994 24574.2656 -68877.3281)">
		<stop  offset="0" style="stop-color:#DFE1E5"/>
		<stop  offset="0.995" style="stop-color:#AAADB2"/>
		<stop  offset="1" style="stop-color:#AAADB2"/>
	</linearGradient>
	<path fill="url(#SVGID_114_)" d="M37.86,91.67l-2.41-2.41L37.86,91.67z"/>
	<path fill="#FFFFFF" d="M36.23,88.49l0.6,0.61L36.23,88.49z"/>
	
		<linearGradient id="SVGID_115_" gradientUnits="userSpaceOnUse" x1="-3189.5161" y1="-1587.4301" x2="-3189.5161" y2="-1587.3868" gradientTransform="matrix(14.658 -14.658 -13.994 -13.994 24574.2656 -68877.3281)">
		<stop  offset="0" style="stop-color:#DFE1E5"/>
		<stop  offset="0.995" style="stop-color:#AAADB2"/>
		<stop  offset="1" style="stop-color:#AAADB2"/>
	</linearGradient>
	<path fill="url(#SVGID_115_)" d="M36.23,88.49l0.6,0.61L36.23,88.49z"/>
	<path fill="#FFFFFF" d="M35.45,87.71l-3.99-3.99L35.45,87.71z"/>
	
		<linearGradient id="SVGID_116_" gradientUnits="userSpaceOnUse" x1="-3189.5161" y1="-1587.3311" x2="-3189.5161" y2="-1587.0459" gradientTransform="matrix(14.658 -14.658 -13.994 -13.994 24574.2656 -68877.3281)">
		<stop  offset="0" style="stop-color:#DFE1E5"/>
		<stop  offset="0.995" style="stop-color:#AAADB2"/>
		<stop  offset="1" style="stop-color:#AAADB2"/>
	</linearGradient>
	<path fill="url(#SVGID_116_)" d="M35.45,87.71l-3.99-3.99L35.45,87.71z"/>
	<path fill="#DFE1E5" d="M36.23,88.49l-0.78-0.78l-3.99-3.99l-7.1-7.1l-0.33-0.33c-0.11-0.11-0.25-0.16-0.39-0.16
		s-0.28,0.05-0.39,0.16c-0.21,0.21-0.21,0.56,0,0.78l0.33,0.33l11.09,11.09l0.78,0.78l2.41,2.41l0.33,0.33
		c0.11,0.11,0.25,0.16,0.39,0.16s0.28-0.05,0.39-0.16c0.21-0.21,0.21-0.56,0-0.78l-0.33-0.33l-1.8-1.8
		C36.84,89.1,36.23,88.49,36.23,88.49z"/>
	
		<linearGradient id="SVGID_117_" gradientUnits="userSpaceOnUse" x1="-3189.436" y1="-1587.0488" x2="-3188.436" y2="-1587.0488" gradientTransform="matrix(14.658 -14.658 -13.994 -13.994 24574.2656 -68877.3281)">
		<stop  offset="0" style="stop-color:#DFE1E5"/>
		<stop  offset="0.995" style="stop-color:#AAADB2"/>
		<stop  offset="1" style="stop-color:#AAADB2"/>
	</linearGradient>
	<path fill="url(#SVGID_117_)" d="M36.23,88.49l-0.78-0.78l-3.99-3.99l-7.1-7.1l-0.33-0.33c-0.11-0.11-0.25-0.16-0.39-0.16
		s-0.28,0.05-0.39,0.16c-0.21,0.21-0.21,0.56,0,0.78l0.33,0.33l11.09,11.09l0.78,0.78l2.41,2.41l0.33,0.33
		c0.11,0.11,0.25,0.16,0.39,0.16s0.28-0.05,0.39-0.16c0.21-0.21,0.21-0.56,0-0.78l-0.33-0.33l-1.8-1.8
		C36.84,89.1,36.23,88.49,36.23,88.49z"/>
	<path fill="#FFFFFF" d="M31.47,93.25l0.38,0.38L31.47,93.25z"/>
	
		<linearGradient id="SVGID_118_" gradientUnits="userSpaceOnUse" x1="-3189.8408" y1="-1587.4139" x2="-3189.8408" y2="-1587.3868" gradientTransform="matrix(14.658 -14.658 -13.994 -13.994 24574.2656 -68877.3281)">
		<stop  offset="0" style="stop-color:#DFE1E5"/>
		<stop  offset="0.995" style="stop-color:#AAADB2"/>
		<stop  offset="1" style="stop-color:#AAADB2"/>
	</linearGradient>
	<path fill="url(#SVGID_118_)" d="M31.47,93.25l0.38,0.38L31.47,93.25z"/>
	<path fill="#FFFFFF" d="M19.6,81.38l6.22,6.22L19.6,81.38z"/>
	
		<linearGradient id="SVGID_119_" gradientUnits="userSpaceOnUse" x1="-3189.8408" y1="-1586.983" x2="-3189.8408" y2="-1586.5386" gradientTransform="matrix(14.658 -14.658 -13.994 -13.994 24574.2656 -68877.3281)">
		<stop  offset="0" style="stop-color:#DFE1E5"/>
		<stop  offset="0.995" style="stop-color:#AAADB2"/>
		<stop  offset="1" style="stop-color:#AAADB2"/>
	</linearGradient>
	<path fill="url(#SVGID_119_)" d="M19.6,81.38l6.22,6.22L19.6,81.38z"/>
	<path fill="#FFFFFF" d="M26.6,86.82l-6.22-6.22L26.6,86.82z"/>
	
		<linearGradient id="SVGID_120_" gradientUnits="userSpaceOnUse" x1="-3189.7876" y1="-1586.983" x2="-3189.7876" y2="-1586.5386" gradientTransform="matrix(14.658 -14.658 -13.994 -13.994 24574.2656 -68877.3281)">
		<stop  offset="0" style="stop-color:#DFE1E5"/>
		<stop  offset="0.995" style="stop-color:#AAADB2"/>
		<stop  offset="1" style="stop-color:#AAADB2"/>
	</linearGradient>
	<path fill="url(#SVGID_120_)" d="M26.6,86.82l-6.22-6.22L26.6,86.82z"/>
	<path fill="#FFFFFF" d="M32.24,92.47l2.41,2.41L32.24,92.47z"/>
	
		<linearGradient id="SVGID_121_" gradientUnits="userSpaceOnUse" x1="-3189.7878" y1="-1587.5586" x2="-3189.7878" y2="-1587.3865" gradientTransform="matrix(14.658 -14.658 -13.994 -13.994 24574.2656 -68877.3281)">
		<stop  offset="0" style="stop-color:#DFE1E5"/>
		<stop  offset="0.995" style="stop-color:#AAADB2"/>
		<stop  offset="1" style="stop-color:#AAADB2"/>
	</linearGradient>
	<path fill="url(#SVGID_121_)" d="M32.24,92.47l2.41,2.41L32.24,92.47z"/>
	<path fill="#DFE1E5" d="M32.24,92.47l-0.78-0.78l-4.87-4.87l-6.22-6.22l-0.33-0.33c-0.11-0.11-0.25-0.16-0.39-0.16
		s-0.28,0.05-0.39,0.16c-0.21,0.21-0.21,0.56,0,0.78l0.33,0.33l6.22,6.22l4.87,4.87l0.78,0.78l0.38,0.38l2.03,2.03l0.33,0.33
		c0.11,0.11,0.25,0.16,0.39,0.16s0.28-0.05,0.39-0.16c0.21-0.21,0.21-0.56,0-0.78l-0.33-0.33C34.65,94.88,32.24,92.47,32.24,92.47z"
		/>
	
		<linearGradient id="SVGID_122_" gradientUnits="userSpaceOnUse" x1="-3189.436" y1="-1587.0485" x2="-3188.436" y2="-1587.0485" gradientTransform="matrix(14.658 -14.658 -13.994 -13.994 24574.2656 -68877.3281)">
		<stop  offset="0" style="stop-color:#DFE1E5"/>
		<stop  offset="0.995" style="stop-color:#AAADB2"/>
		<stop  offset="1" style="stop-color:#AAADB2"/>
	</linearGradient>
	<path fill="url(#SVGID_122_)" d="M32.24,92.47l-0.78-0.78l-4.87-4.87l-6.22-6.22l-0.33-0.33c-0.11-0.11-0.25-0.16-0.39-0.16
		s-0.28,0.05-0.39,0.16c-0.21,0.21-0.21,0.56,0,0.78l0.33,0.33l6.22,6.22l4.87,4.87l0.78,0.78l0.38,0.38l2.03,2.03l0.33,0.33
		c0.11,0.11,0.25,0.16,0.39,0.16s0.28-0.05,0.39-0.16c0.21-0.21,0.21-0.56,0-0.78l-0.33-0.33C34.65,94.88,32.24,92.47,32.24,92.47z"
		/>
	<path fill="#FFFFFF" d="M27.87,97.61l2.02,2.03L27.87,97.61z"/>
	
		<linearGradient id="SVGID_123_" gradientUnits="userSpaceOnUse" x1="-3190.1125" y1="-1587.5586" x2="-3190.1125" y2="-1587.4139" gradientTransform="matrix(14.658 -14.658 -13.994 -13.994 24574.2656 -68877.3281)">
		<stop  offset="0" style="stop-color:#DFE1E5"/>
		<stop  offset="0.995" style="stop-color:#AAADB2"/>
		<stop  offset="1" style="stop-color:#AAADB2"/>
	</linearGradient>
	<path fill="url(#SVGID_123_)" d="M27.87,97.61l2.02,2.03L27.87,97.61z"/>
	<path fill="#FFFFFF" d="M30.67,98.86l-2.03-2.03L30.67,98.86z"/>
	
		<linearGradient id="SVGID_124_" gradientUnits="userSpaceOnUse" x1="-3190.0593" y1="-1587.5586" x2="-3190.0593" y2="-1587.4136" gradientTransform="matrix(14.658 -14.658 -13.994 -13.994 24574.2656 -68877.3281)">
		<stop  offset="0" style="stop-color:#DFE1E5"/>
		<stop  offset="0.995" style="stop-color:#AAADB2"/>
		<stop  offset="1" style="stop-color:#AAADB2"/>
	</linearGradient>
	<path fill="url(#SVGID_124_)" d="M30.67,98.86l-2.03-2.03L30.67,98.86z"/>
	<path fill="#FFFFFF" d="M27.48,95.67h0.01l-4.87-4.86L27.48,95.67z"/>
	
		<linearGradient id="SVGID_125_" gradientUnits="userSpaceOnUse" x1="-3190.0593" y1="-1587.3311" x2="-3190.0593" y2="-1586.9834" gradientTransform="matrix(14.658 -14.658 -13.994 -13.994 24574.2656 -68877.3281)">
		<stop  offset="0" style="stop-color:#DFE1E5"/>
		<stop  offset="0.995" style="stop-color:#AAADB2"/>
		<stop  offset="1" style="stop-color:#AAADB2"/>
	</linearGradient>
	<path fill="url(#SVGID_125_)" d="M27.48,95.67h0.01l-4.87-4.86L27.48,95.67z"/>
	<path fill="#DFE1E5" d="M30.67,98.86l-2.03-2.03l-0.38-0.38l-0.78-0.78l-4.87-4.87l-6.22-6.22l-0.33-0.33
		c-0.11-0.11-0.25-0.16-0.39-0.16s-0.28,0.05-0.39,0.16c-0.21,0.21-0.21,0.56,0,0.78l0.33,0.33L26.7,96.45l0.78,0.78l0.38,0.38
		l2.03,2.03l0.33,0.33c0.11,0.11,0.25,0.16,0.39,0.16s0.28-0.05,0.39-0.16c0.21-0.21,0.21-0.56,0-0.78
		C31,99.19,30.67,98.86,30.67,98.86z"/>
	
		<linearGradient id="SVGID_126_" gradientUnits="userSpaceOnUse" x1="-3189.436" y1="-1587.0485" x2="-3188.436" y2="-1587.0485" gradientTransform="matrix(14.658 -14.658 -13.994 -13.994 24574.2656 -68877.3281)">
		<stop  offset="0" style="stop-color:#DFE1E5"/>
		<stop  offset="0.995" style="stop-color:#AAADB2"/>
		<stop  offset="1" style="stop-color:#AAADB2"/>
	</linearGradient>
	<path fill="url(#SVGID_126_)" d="M30.67,98.86l-2.03-2.03l-0.38-0.38l-0.78-0.78l-4.87-4.87l-6.22-6.22l-0.33-0.33
		c-0.11-0.11-0.25-0.16-0.39-0.16s-0.28,0.05-0.39,0.16c-0.21,0.21-0.21,0.56,0,0.78l0.33,0.33L26.7,96.45l0.78,0.78l0.38,0.38
		l2.03,2.03l0.33,0.33c0.11,0.11,0.25,0.16,0.39,0.16s0.28-0.05,0.39-0.16c0.21-0.21,0.21-0.56,0-0.78
		C31,99.19,30.67,98.86,30.67,98.86z"/>
</g>
</svg>
