<svg version="1.0" id="l1" xmlns="http://www.w3.org/2000/svg" xmlns:xlink="http://www.w3.org/1999/xlink" x="0px" y="0px"
	 width="57px" height="62px" enable-background="new 0 0 57 62" xml:space="preserve">
<polygon fill="#E8EAED" points="42.7,59.49 56.92,62 57,20.71 42.77,18.2 "/>
<polygon fill="#F1F3F4" points="42.7,56.38 54.34,58.85 54.4,23.78 42.77,21.31 "/>
<polygon fill="#F0F0F1" points="14.31,17.77 0.08,19.85 0,61.14 14.23,59.06 "/>
<polygon fill="#DADCE0" points="14.31,17.77 0.08,19.85 0,61.14 14.23,59.06 "/>
<polygon fill="#F1F3F4" points="14.31,20.89 2.75,23.01 2.69,58.07 14.24,55.95 "/>
<polygon fill="#F0F0F1" points="28.46,61.57 42.7,59.49 42.77,18.2 28.54,20.28 "/>
<polygon fill="#DADCE0" points="28.46,61.57 42.7,59.49 42.77,18.2 28.54,20.28 "/>
<polygon fill="#F1F3F4" points="28.47,58.46 42.7,56.38 42.77,21.31 28.53,23.39 "/>
<polygon fill="#E8EAED" points="14.23,59.06 28.46,61.57 28.54,20.28 14.31,17.77 "/>
<polygon fill="#F1F3F4" points="14.24,55.95 28.47,58.46 28.53,23.39 14.31,20.88 "/>
<path fill="#DADCE0" d="M28.53,52.15c-0.12,0-0.23-0.04-0.32-0.12L23,47.74c-1.13-0.93-2.5-1.45-3.96-1.5l-4.83-0.17l-8.06,1.08
	c-0.14,0.02-0.29-0.02-0.4-0.12c-0.11-0.09-0.17-0.23-0.18-0.38l-0.13-6.7c-0.34-3.42,0.83-6.83,3.23-9.32l5.23-5.44
	c0.17-0.17,0.43-0.21,0.63-0.08l14.15,8.62l13.85,2.89l6.89-8.83c0.17-0.22,0.49-0.26,0.71-0.09c0.22,0.17,0.26,0.49,0.09,0.71
	l-7.08,9.08c-0.12,0.15-0.31,0.22-0.5,0.19l-14.25-2.97c-0.06-0.01-0.11-0.03-0.16-0.06l-13.87-8.46l-4.95,5.15
	c-2.19,2.28-3.27,5.4-2.95,8.56l0.12,6.17l7.58-1l4.92,0.17c1.68,0.06,3.25,0.66,4.56,1.73l4.95,4.08l13.98-7.43
	c0.2-0.11,0.45-0.07,0.6,0.09l6.39,6.56c0.2,0.2,0.19,0.52-0.01,0.72c-0.2,0.2-0.52,0.19-0.72-0.01l-6.12-6.29l-13.94,7.41
	C28.69,52.13,28.61,52.15,28.53,52.15z"/>
<path fill="#DADCE0" d="M19.29,46.29c-0.04,0-0.08,0-0.12-0.02c-0.27-0.07-0.44-0.34-0.37-0.62l3.7-14.81
	c0.07-0.27,0.35-0.44,0.62-0.37c0.27,0.07,0.44,0.34,0.37,0.62l-3.7,14.81C19.73,46.13,19.52,46.29,19.29,46.29z"/>
<path fill="#DADCE0" d="M32.08,49.44c-0.1,0-0.2-0.03-0.28-0.09c-0.23-0.16-0.29-0.47-0.14-0.71l0.57-0.84
	c0.16-0.24,0.48-0.29,0.71-0.14c0.23,0.16,0.29,0.47,0.14,0.71l-0.57,0.84C32.41,49.36,32.25,49.44,32.08,49.44z M34.08,46.48
	c-0.1,0-0.2-0.03-0.29-0.09c-0.23-0.16-0.29-0.47-0.14-0.71l0.41-0.6c0.02-0.03,0.03-0.08,0.05-0.14c0.09-0.27,0.37-0.41,0.64-0.33
	s0.41,0.38,0.33,0.64c-0.06,0.19-0.12,0.31-0.19,0.41l-0.4,0.59C34.4,46.4,34.24,46.48,34.08,46.48z M34.98,43.1
	c-0.01,0-0.02,0-0.03,0c-0.28-0.01-0.5-0.25-0.48-0.54c0.01-0.24,0.02-0.48,0.02-0.72l0-0.26c-0.01-0.28,0.22-0.51,0.5-0.52
	c0.29,0,0.51,0.22,0.52,0.5l0,0.28c0,0.26-0.01,0.52-0.02,0.78C35.48,42.88,35.25,43.1,34.98,43.1z M34.56,39.59
	c-0.2,0-0.38-0.11-0.47-0.3c-0.09-0.19-0.18-0.36-0.29-0.49l-0.2-0.24c-0.18-0.22-0.14-0.54,0.08-0.72
	c0.22-0.17,0.54-0.14,0.72,0.08l0.2,0.24c0.16,0.2,0.31,0.44,0.43,0.72c0.11,0.26,0,0.56-0.26,0.67
	C34.7,39.57,34.63,39.59,34.56,39.59z M32.42,36.75c-0.15,0-0.3-0.07-0.4-0.19l-0.64-0.8c-0.18-0.22-0.14-0.54,0.08-0.71
	c0.22-0.18,0.54-0.14,0.71,0.08l0.64,0.8c0.18,0.22,0.14,0.54-0.08,0.71C32.64,36.71,32.53,36.75,32.42,36.75z"/>
<path fill="#DADCE0" d="M39.38,36.96c-0.18,0-0.35-0.09-0.44-0.26l-1.87-3.25c-1.55-2.68-0.85-6.08,1.62-7.89l0.99-0.72
	c0.23-0.16,0.55-0.12,0.71,0.11c0.17,0.23,0.12,0.55-0.11,0.71l-0.99,0.72c-2.05,1.51-2.63,4.33-1.34,6.56l1.87,3.25
	c0.14,0.24,0.06,0.55-0.19,0.7C39.55,36.94,39.47,36.96,39.38,36.96z"/>
<path fill="#DADCE0" d="M21.12,38.09c-0.08,0-0.16-0.02-0.23-0.06L8.73,31.84c-0.25-0.13-0.35-0.43-0.22-0.69
	c0.13-0.25,0.44-0.35,0.69-0.22l12.16,6.19c0.25,0.13,0.35,0.43,0.22,0.69C21.48,37.99,21.31,38.09,21.12,38.09z"/>
<polygon opacity="0.09" fill="#9AA0A6" enable-background="new    " points="14.31,20.91 2.75,23.02 2.69,58.08 14.24,55.97 "/>
<polygon opacity="0.09" fill="#9AA0A6" enable-background="new    " points="28.47,58.46 42.7,56.38 42.77,21.31 28.53,23.39 "/>
<path fill="#DF382B" d="M38.71,10.1c0-5.43-4.41-9.84-9.84-9.84s-9.84,4.4-9.84,9.84c0,1.85,0.52,3.57,1.41,5.05h-0.02l8.45,13.62
	l8.05-13.03C38.05,14.14,38.71,12.2,38.71,10.1z"/>
<path fill="#FFFFFF" d="M28.8,15c0,0-2.87-2.34-3.76-3.09c-2.13-1.79-1.41-3.99-0.04-4.69c2.1-1.08,3.76,1.57,3.76,1.57
	s1.53-2.53,3.53-1.59c1.61,0.75,2.06,2.79,0.07,4.74c-0.45,0.45-1.37,1.24-2.16,1.9"/>
<polygon fill="#CBCED0" points="28.52,28.21 28.52,29.34 28.87,28.77 "/>
<polygon fill="#DEE0E2" points="28.52,29.34 28.18,29.89 23.6,22.52 25.17,22.79 28.52,28.21 "/>
<polygon fill="#D9DBDE" points="21.44,19.03 23.6,22.52 25.17,22.79 23,19.3 "/>
</svg>
