<?xml version="1.0" encoding="utf-8"?>
<!-- Generator: Adobe Illustrator 21.1.0, SVG Export Plug-In . SVG Version: 6.00 Build 0)  -->
<svg version="1.0" id="Layer_1" xmlns="http://www.w3.org/2000/svg" xmlns:xlink="http://www.w3.org/1999/xlink" x="0px" y="0px"
	 width="305px" height="148px" viewBox="0 0 305 148" enable-background="new 0 0 305 148" xml:space="preserve">
<linearGradient id="SVGID_1_" gradientUnits="userSpaceOnUse" x1="165.6848" y1="324.6654" x2="191.445" y2="324.6654" gradientTransform="matrix(1 0 0.0206 0.8144 13.0451 -117.3069)">
	<stop  offset="0" style="stop-color:#292D33;stop-opacity:0"/>
	<stop  offset="0.1889" style="stop-color:#2C3036;stop-opacity:0.0378"/>
	<stop  offset="0.3452" style="stop-color:#373A40;stop-opacity:0.0691"/>
	<stop  offset="0.49" style="stop-color:#484C51;stop-opacity:0.0981"/>
	<stop  offset="0.6279" style="stop-color:#606469;stop-opacity:0.1257"/>
	<stop  offset="0.7608" style="stop-color:#808388;stop-opacity:0.1523"/>
	<stop  offset="0.8881" style="stop-color:#A5A9AE;stop-opacity:0.1778"/>
	<stop  offset="0.999" style="stop-color:#CDD0D5;stop-opacity:0.2"/>
</linearGradient>
<polygon fill="url(#SVGID_1_)" points="185.42,146.24 211.17,146.24 211.17,147.99 185.45,147.99 "/>
<rect x="91" y="85.91" transform="matrix(0.7071 -0.7071 0.7071 0.7071 -33.3926 93.2101)" fill="#9AA0A6" width="9.63" height="2"/>
<rect x="149.15" y="9.84" fill="#676C71" width="1" height="7.79"/>
<path fill="#9AA0A6" d="M98.36,10.6v102.81H93.6V10.6H98.36 M100.26,8.69H91.7v106.62h8.56V8.69L100.26,8.69z"/>
<rect x="91" y="15.47" transform="matrix(0.7071 -0.7071 0.7071 0.7071 16.421 72.5766)" fill="#9AA0A6" width="9.64" height="2"/>
<rect x="91" y="62.52" transform="matrix(0.7071 -0.7071 0.7071 0.7071 -16.8522 86.3588)" fill="#9AA0A6" width="9.63" height="2"/>
<rect x="91" y="50.76" transform="matrix(0.7071 -0.7071 0.7071 0.7071 -8.5339 82.9133)" fill="#9AA0A6" width="9.64" height="2"/>
<rect x="91" y="38.99" transform="matrix(0.7071 -0.7071 0.7071 0.7071 -0.2156 79.4677)" fill="#9AA0A6" width="9.63" height="2"/>
<rect x="91" y="27.23" transform="matrix(0.7071 -0.7071 0.7071 0.7071 8.1028 76.0221)" fill="#9AA0A6" width="9.64" height="2"/>
<rect x="91" y="74.15" transform="matrix(0.7071 -0.7071 0.7071 0.7071 -25.0744 89.7646)" fill="#9AA0A6" width="9.63" height="2"/>
<path fill="#9AA0A6" d="M100.16,2.05l44.75,4.45c1.4,0.14,2.58,0.96,3.21,2.11h-82.6c0.63-1.3,1.85-2.28,3.36-2.54l22.99-4.02
	H100.16 M100.26,0.05H91.7L68.54,4.1c-3.16,0.55-5.47,3.3-5.47,6.51h87.56c0-3.15-2.39-5.79-5.53-6.1L100.26,0.05L100.26,0.05z"/>
<rect x="137.39" y="3.58" transform="matrix(0.7071 -0.7071 0.7071 0.7071 35.6165 99.8984)" fill="#9AA0A6" width="2" height="6.76"/>
<polygon fill="#9AA0A6" points="91.2,10.51 83.82,3.14 85.24,1.72 92.77,9.26 "/>
<polygon fill="#9AA0A6" points="76.15,10.32 70.96,5.14 72.38,3.72 77.92,9.26 "/>
<polygon fill="#9AA0A6" points="105.26,10.54 96.64,1.92 98.06,0.51 106.81,9.26 "/>
<polygon fill="#9AA0A6" points="117.02,10.54 109.39,2.9 110.8,1.49 118.58,9.26 "/>
<polygon fill="#9AA0A6" points="128.79,10.54 122.11,3.86 123.53,2.45 130.34,9.26 "/>
<linearGradient id="SVGID_2_" gradientUnits="userSpaceOnUse" x1="-8.7613" y1="324.6654" x2="36.2512" y2="324.6654" gradientTransform="matrix(1 0 0.0206 0.8144 13.0451 -117.3069)">
	<stop  offset="0" style="stop-color:#292D33;stop-opacity:0"/>
	<stop  offset="0.1889" style="stop-color:#2C3036;stop-opacity:0.0378"/>
	<stop  offset="0.3452" style="stop-color:#373A40;stop-opacity:0.0691"/>
	<stop  offset="0.49" style="stop-color:#484C51;stop-opacity:0.0981"/>
	<stop  offset="0.6279" style="stop-color:#606469;stop-opacity:0.1257"/>
	<stop  offset="0.7608" style="stop-color:#808388;stop-opacity:0.1523"/>
	<stop  offset="0.8881" style="stop-color:#A5A9AE;stop-opacity:0.1778"/>
	<stop  offset="0.999" style="stop-color:#CDD0D5;stop-opacity:0.2"/>
</linearGradient>
<polygon fill="url(#SVGID_2_)" points="10.96,146.24 55.97,146.24 55.97,147.99 11.01,147.99 "/>
<rect x="54.8" y="91.92" fill="#9AA0A6" width="57.7" height="5.73"/>
<rect x="55.98" y="97.64" fill="#DADCE0" width="56.53" height="50.34"/>
<rect x="88.37" y="128.69" fill="#F1F3F4" width="17.6" height="14.71"/>
<rect x="64.66" y="128.83" fill="#F1F3F4" width="13.74" height="19.16"/>
<rect x="62.46" y="104.13" fill="#F1F3F4" width="43.56" height="16.18"/>
<rect x="112.51" y="59.48" fill="#4688F1" width="80.1" height="88.51"/>
<rect x="111.32" y="53.75" fill="#1E5DB9" width="82.47" height="5.73"/>
<linearGradient id="SVGID_3_" gradientUnits="userSpaceOnUse" x1="-3794.4199" y1="134.8751" x2="-3794.4199" y2="130.8969" gradientTransform="matrix(1 0 0 1 3865.9451 0)">
	<stop  offset="0" style="stop-color:#FFFFFF;stop-opacity:0"/>
	<stop  offset="0.2974" style="stop-color:#FDFDFD;stop-opacity:0.119"/>
	<stop  offset="0.4668" style="stop-color:#F4F4F5;stop-opacity:0.1867"/>
	<stop  offset="0.6041" style="stop-color:#E6E7E7;stop-opacity:0.2416"/>
	<stop  offset="0.7241" style="stop-color:#D3D3D4;stop-opacity:0.2896"/>
	<stop  offset="0.8329" style="stop-color:#B9BABB;stop-opacity:0.3332"/>
	<stop  offset="0.9321" style="stop-color:#9A9B9D;stop-opacity:0.3729"/>
	<stop  offset="1" style="stop-color:#808184;stop-opacity:0.4"/>
</linearGradient>
<rect x="64.66" y="130.9" fill="url(#SVGID_3_)" width="13.74" height="3.98"/>
<rect x="64.66" y="128.83" fill="#9AA0A6" width="13.74" height="2.41"/>
<linearGradient id="SVGID_4_" gradientUnits="userSpaceOnUse" x1="95.6909" y1="122.8171" x2="112.5056" y2="122.8171">
	<stop  offset="0" style="stop-color:#DADCE0;stop-opacity:0"/>
	<stop  offset="0.5546" style="stop-color:#D6D8DC;stop-opacity:0.3882"/>
	<stop  offset="1" style="stop-color:#CDCFD4;stop-opacity:0.7"/>
</linearGradient>
<polygon fill="url(#SVGID_4_)" points="95.69,147.96 112.51,147.99 112.51,97.64 95.69,109.01 "/>
<rect x="165.53" y="122.32" fill="#A0C2F7" width="19.89" height="25.67"/>
<rect x="174.94" y="122.39" fill="#4688F1" width="1.08" height="25.59"/>
<path fill="#E8F0FD" d="M153.07,142.2h-33.2c-0.91,0-1.65-0.74-1.65-1.65v-32.67h36.5v32.67
	C154.72,141.46,153.98,142.2,153.07,142.2z"/>
<path fill="#4688F1" d="M178.62,137.6c-0.3,0-0.54-0.24-0.54-0.54v-3.75c0-0.3,0.24-0.54,0.54-0.54s0.54,0.24,0.54,0.54v3.75
	C179.16,137.36,178.92,137.6,178.62,137.6z"/>
<path fill="#4688F1" d="M172.34,137.6c-0.3,0-0.54-0.24-0.54-0.54v-3.75c0-0.3,0.24-0.54,0.54-0.54s0.54,0.24,0.54,0.54v3.75
	C172.88,137.36,172.64,137.6,172.34,137.6z"/>
<path fill="#3068BC" d="M186.69,122.39c-0.2-5.97-5.1-10.75-11.11-10.75h-0.19c-6.02,0-10.91,4.78-11.11,10.75H186.69z"/>
<linearGradient id="SVGID_5_" gradientUnits="userSpaceOnUse" x1="152.5568" y1="88.0495" x2="152.5568" y2="59.4775">
	<stop  offset="0" style="stop-color:#4688F1;stop-opacity:0"/>
	<stop  offset="0.3399" style="stop-color:#4285EE;stop-opacity:0.204"/>
	<stop  offset="0.6435" style="stop-color:#387DE4;stop-opacity:0.3861"/>
	<stop  offset="0.9322" style="stop-color:#256ED4;stop-opacity:0.5593"/>
	<stop  offset="1" style="stop-color:#206ACF;stop-opacity:0.6"/>
</linearGradient>
<rect x="112.51" y="59.48" fill="url(#SVGID_5_)" width="80.1" height="28.57"/>
<path fill="#3068BC" d="M123.06,114.51h-5.36v-7.36c0-0.51,0.41-0.91,0.91-0.91h4.45V114.51z"/>
<rect x="123.06" y="106.24" fill="#A0C2F7" width="5.36" height="8.27"/>
<rect x="128.43" y="106.24" fill="#3068BC" width="5.36" height="8.27"/>
<rect x="133.79" y="106.24" fill="#A0C2F7" width="5.36" height="8.27"/>
<rect x="139.15" y="106.24" fill="#3068BC" width="5.36" height="8.27"/>
<rect x="144.52" y="106.24" fill="#A0C2F7" width="5.36" height="8.27"/>
<path fill="#3068BC" d="M155.24,114.51h-5.36v-8.27h4.45c0.51,0,0.91,0.41,0.91,0.91V114.51z"/>
<linearGradient id="SVGID_6_" gradientUnits="userSpaceOnUse" x1="136.4839" y1="125.8735" x2="136.4839" y2="114.5087">
	<stop  offset="0" style="stop-color:#FFFFFF;stop-opacity:0"/>
	<stop  offset="0.2974" style="stop-color:#FDFDFD;stop-opacity:0.1784"/>
	<stop  offset="0.4668" style="stop-color:#F4F4F5;stop-opacity:0.2801"/>
	<stop  offset="0.6041" style="stop-color:#E6E7E7;stop-opacity:0.3625"/>
	<stop  offset="0.7241" style="stop-color:#D3D3D4;stop-opacity:0.4345"/>
	<stop  offset="0.8329" style="stop-color:#B9BABB;stop-opacity:0.4997"/>
	<stop  offset="0.9321" style="stop-color:#9A9B9D;stop-opacity:0.5593"/>
	<stop  offset="1" style="stop-color:#808184;stop-opacity:0.6"/>
</linearGradient>
<rect x="118.25" y="114.51" fill="url(#SVGID_6_)" width="36.48" height="11.36"/>
<linearGradient id="SVGID_7_" gradientUnits="userSpaceOnUse" x1="120.3826" y1="117.1902" x2="120.3826" y2="114.5087">
	<stop  offset="0" style="stop-color:#336AB9"/>
	<stop  offset="0.501" style="stop-color:#3269B7"/>
	<stop  offset="0.7388" style="stop-color:#3164AF"/>
	<stop  offset="0.9206" style="stop-color:#2D5DA2"/>
	<stop  offset="1" style="stop-color:#2B589A"/>
</linearGradient>
<path fill="url(#SVGID_7_)" d="M117.7,114.51c0,1.48,1.2,2.68,2.68,2.68c1.48,0,2.68-1.2,2.68-2.68H117.7z"/>
<linearGradient id="SVGID_8_" gradientUnits="userSpaceOnUse" x1="125.7456" y1="117.1902" x2="125.7456" y2="114.5087">
	<stop  offset="0" style="stop-color:#A1C3F5"/>
	<stop  offset="0.4602" style="stop-color:#A0C1F3"/>
	<stop  offset="0.6787" style="stop-color:#9BBCEB"/>
	<stop  offset="0.8456" style="stop-color:#92B2DE"/>
	<stop  offset="0.9863" style="stop-color:#86A4CC"/>
	<stop  offset="1" style="stop-color:#85A2CA"/>
</linearGradient>
<path fill="url(#SVGID_8_)" d="M123.06,114.51c0,1.48,1.2,2.68,2.68,2.68c1.48,0,2.68-1.2,2.68-2.68H123.06z"/>
<linearGradient id="SVGID_9_" gradientUnits="userSpaceOnUse" x1="131.1086" y1="117.1902" x2="131.1086" y2="114.5087">
	<stop  offset="0" style="stop-color:#336AB9"/>
	<stop  offset="0.501" style="stop-color:#3269B7"/>
	<stop  offset="0.7388" style="stop-color:#3164AF"/>
	<stop  offset="0.9206" style="stop-color:#2D5DA2"/>
	<stop  offset="1" style="stop-color:#2B589A"/>
</linearGradient>
<path fill="url(#SVGID_9_)" d="M128.43,114.51c0,1.48,1.2,2.68,2.68,2.68c1.48,0,2.68-1.2,2.68-2.68H128.43z"/>
<linearGradient id="SVGID_10_" gradientUnits="userSpaceOnUse" x1="136.4715" y1="117.1902" x2="136.4715" y2="114.5087">
	<stop  offset="0" style="stop-color:#A1C3F5"/>
	<stop  offset="0.4602" style="stop-color:#A0C1F3"/>
	<stop  offset="0.6787" style="stop-color:#9BBCEB"/>
	<stop  offset="0.8456" style="stop-color:#92B2DE"/>
	<stop  offset="0.9863" style="stop-color:#86A4CC"/>
	<stop  offset="1" style="stop-color:#85A2CA"/>
</linearGradient>
<path fill="url(#SVGID_10_)" d="M133.79,114.51c0,1.48,1.2,2.68,2.68,2.68c1.48,0,2.68-1.2,2.68-2.68H133.79z"/>
<linearGradient id="SVGID_11_" gradientUnits="userSpaceOnUse" x1="141.8345" y1="117.1902" x2="141.8345" y2="114.5087">
	<stop  offset="0" style="stop-color:#336AB9"/>
	<stop  offset="0.501" style="stop-color:#3269B7"/>
	<stop  offset="0.7388" style="stop-color:#3164AF"/>
	<stop  offset="0.9206" style="stop-color:#2D5DA2"/>
	<stop  offset="1" style="stop-color:#2B589A"/>
</linearGradient>
<path fill="url(#SVGID_11_)" d="M139.15,114.51c0,1.48,1.2,2.68,2.68,2.68s2.68-1.2,2.68-2.68H139.15z"/>
<linearGradient id="SVGID_12_" gradientUnits="userSpaceOnUse" x1="147.1975" y1="117.1902" x2="147.1975" y2="114.5087">
	<stop  offset="0" style="stop-color:#A1C3F5"/>
	<stop  offset="0.4602" style="stop-color:#A0C1F3"/>
	<stop  offset="0.6787" style="stop-color:#9BBCEB"/>
	<stop  offset="0.8456" style="stop-color:#92B2DE"/>
	<stop  offset="0.9863" style="stop-color:#86A4CC"/>
	<stop  offset="1" style="stop-color:#85A2CA"/>
</linearGradient>
<path fill="url(#SVGID_12_)" d="M144.52,114.51c0,1.48,1.2,2.68,2.68,2.68s2.68-1.2,2.68-2.68H144.52z"/>
<linearGradient id="SVGID_13_" gradientUnits="userSpaceOnUse" x1="152.5605" y1="117.1902" x2="152.5605" y2="114.5087">
	<stop  offset="0" style="stop-color:#336AB9"/>
	<stop  offset="0.501" style="stop-color:#3269B7"/>
	<stop  offset="0.7388" style="stop-color:#3164AF"/>
	<stop  offset="0.9206" style="stop-color:#2D5DA2"/>
	<stop  offset="1" style="stop-color:#2B589A"/>
</linearGradient>
<path fill="url(#SVGID_13_)" d="M149.88,114.51c0,1.48,1.2,2.68,2.68,2.68s2.68-1.2,2.68-2.68H149.88z"/>
<linearGradient id="SVGID_14_" gradientUnits="userSpaceOnUse" x1="175.4783" y1="129.742" x2="175.4783" y2="122.3906">
	<stop  offset="0" style="stop-color:#FFFFFF;stop-opacity:0"/>
	<stop  offset="0.2402" style="stop-color:#FDFDFD;stop-opacity:0.036"/>
	<stop  offset="0.377" style="stop-color:#F4F4F4;stop-opacity:0.0566"/>
	<stop  offset="0.488" style="stop-color:#E6E6E6;stop-opacity:0.0732"/>
	<stop  offset="0.5849" style="stop-color:#D3D3D3;stop-opacity:0.0877"/>
	<stop  offset="0.6729" style="stop-color:#B9B9B9;stop-opacity:0.1009"/>
	<stop  offset="0.7543" style="stop-color:#999999;stop-opacity:0.1131"/>
	<stop  offset="0.8307" style="stop-color:#747474;stop-opacity:0.1246"/>
	<stop  offset="0.9031" style="stop-color:#484848;stop-opacity:0.1355"/>
	<stop  offset="0.9699" style="stop-color:#181818;stop-opacity:0.1455"/>
	<stop  offset="1" style="stop-color:#000000;stop-opacity:0.15"/>
</linearGradient>
<rect x="165.53" y="122.39" fill="url(#SVGID_14_)" width="19.89" height="7.35"/>
<linearGradient id="SVGID_15_" gradientUnits="userSpaceOnUse" x1="157.376" y1="105.6405" x2="157.376" y2="91.0993">
	<stop  offset="0" style="stop-color:#4688F1;stop-opacity:0"/>
	<stop  offset="0.3115" style="stop-color:#4083EC;stop-opacity:0.1246"/>
	<stop  offset="0.7332" style="stop-color:#2F76DC;stop-opacity:0.2933"/>
	<stop  offset="1" style="stop-color:#206ACF;stop-opacity:0.4"/>
</linearGradient>
<polygon fill="url(#SVGID_15_)" points="192.61,105.64 122.14,105.64 144.6,91.1 192.48,91.1 "/>
<path fill="#A0C2F7" d="M207.16,98.37H152.5c-4.37,0-7.91-3.54-7.91-7.91v0c0-4.37,3.54-7.91,7.91-7.91h54.65
	c4.37,0,7.91,3.54,7.91,7.91v0C215.06,94.83,211.52,98.37,207.16,98.37z"/>
<path fill="#F8F9FA" d="M207.16,86.2c2.35,0,4.26,1.91,4.26,4.26s-1.91,4.26-4.26,4.26l-54.65,0c-2.35,0-4.26-1.91-4.26-4.26
	c0-2.35,1.91-4.26,4.26-4.26H207.16 M207.16,84.9H152.5c-3.07,0-5.56,2.49-5.56,5.56v0c0,3.07,2.49,5.56,5.56,5.56l54.65,0
	c3.07,0,5.56-2.49,5.56-5.56v0C212.72,87.39,210.23,84.9,207.16,84.9L207.16,84.9z"/>
<path fill="#DF382B" d="M165.61,37.86h-4.34c0-4.83-3.93-8.77-8.77-8.77v-4.33C159.73,24.76,165.61,30.64,165.61,37.86z"/>
<path fill="#FABB05" d="M152.51,50.96v-4.33c4.83,0,8.77-3.93,8.77-8.77h4.34C165.61,45.09,159.73,50.96,152.51,50.96z"/>
<path fill="#34A853" d="M152.51,50.96c-7.22,0-13.1-5.88-13.1-13.1h4.33c0,4.83,3.93,8.77,8.77,8.77V50.96z"/>
<path fill="#4688F1" d="M143.74,29.84h-4.33c0-7.22,5.88-13.1,13.1-13.1v4.33C147.68,21.08,143.74,25.01,143.74,29.84z"/>
<linearGradient id="SVGID_16_" gradientUnits="userSpaceOnUse" x1="92.6525" y1="22.3636" x2="92.6525" y2="10.6061">
	<stop  offset="0" style="stop-color:#9AA0A6;stop-opacity:0"/>
	<stop  offset="1" style="stop-color:#74787C"/>
</linearGradient>
<rect x="91.7" y="10.61" fill="url(#SVGID_16_)" width="1.9" height="11.76"/>
<linearGradient id="SVGID_17_" gradientUnits="userSpaceOnUse" x1="99.3083" y1="22.3636" x2="99.3083" y2="10.6061">
	<stop  offset="0" style="stop-color:#9AA0A6;stop-opacity:0"/>
	<stop  offset="1" style="stop-color:#74787C"/>
</linearGradient>
<rect x="98.36" y="10.61" fill="url(#SVGID_17_)" width="1.9" height="11.76"/>
<linearGradient id="SVGID_18_" gradientUnits="userSpaceOnUse" x1="91.5643" y1="62.7346" x2="91.5643" y2="50.9771" gradientTransform="matrix(-1 0 0 -1 190.8726 142.894)">
	<stop  offset="0" style="stop-color:#9AA0A6;stop-opacity:0"/>
	<stop  offset="1" style="stop-color:#74787C"/>
</linearGradient>
<polygon fill="url(#SVGID_18_)" points="98.36,80.16 100.26,80.16 100.26,91.92 98.36,91.92 "/>
<linearGradient id="SVGID_19_" gradientUnits="userSpaceOnUse" x1="98.2202" y1="62.7346" x2="98.2202" y2="50.9771" gradientTransform="matrix(-1 0 0 -1 190.8726 142.894)">
	<stop  offset="0" style="stop-color:#9AA0A6;stop-opacity:0"/>
	<stop  offset="1" style="stop-color:#74787C"/>
</linearGradient>
<polygon fill="url(#SVGID_19_)" points="91.7,80.16 93.6,80.16 93.6,91.92 91.7,91.92 "/>
<path fill="#EFF0F2" d="M261.65,135.98h-51.06c-3.32,0-6.01,2.69-6.01,6.01v0c0,3.32,2.69,6.01,6.01,6.01h51.06
	c3.32,0,6.01-2.69,6.01-6.01v0C267.66,138.67,264.97,135.98,261.65,135.98z"/>
<path fill="#80868B" d="M261.65,137.38c2.54,0,4.6,2.07,4.6,4.6s-2.07,4.6-4.6,4.6h-51.06c-2.54,0-4.6-2.07-4.6-4.6
	c0-2.54,2.07-4.6,4.6-4.6H261.65 M261.65,135.98h-51.06c-3.32,0-6.01,2.69-6.01,6.01v0c0,3.32,2.69,6.01,6.01,6.01h51.06
	c3.32,0,6.01-2.69,6.01-6.01v0C267.66,138.67,264.97,135.98,261.65,135.98L261.65,135.98z"/>
<path fill="#80868B" d="M210.61,144.17c-1.2,0-2.18-0.98-2.18-2.19c0-1.2,0.98-2.18,2.18-2.18c1.21,0,2.19,0.98,2.19,2.18
	C212.8,143.19,211.82,144.17,210.61,144.17z M210.61,141.21c-0.43,0-0.78,0.35-0.78,0.78c0,0.43,0.35,0.78,0.78,0.78
	c0.43,0,0.78-0.35,0.78-0.78C211.39,141.56,211.04,141.21,210.61,141.21z"/>
<path fill="#80868B" d="M261.6,144.17c-1.2,0-2.18-0.98-2.18-2.19c0-1.2,0.98-2.18,2.18-2.18c1.21,0,2.19,0.98,2.19,2.18
	C263.79,143.19,262.81,144.17,261.6,144.17z M261.6,141.21c-0.43,0-0.78,0.35-0.78,0.78c0,0.43,0.35,0.78,0.78,0.78
	c0.43,0,0.78-0.35,0.78-0.78C262.38,141.56,262.03,141.21,261.6,141.21z"/>
<rect x="236.61" y="111.94" fill="#676C71" width="1.41" height="7.4"/>
<rect x="224.26" y="119.34" fill="#FAC642" width="18.68" height="16.64"/>
<rect x="217.82" y="125.85" fill="#FAC642" width="2.31" height="4.17"/>
<path fill="#F8BA2D" d="M211.17,135.98h13.09v-9.32l-11.6,4.72c-0.9,0.37-1.49,1.25-1.49,2.22V135.98z"/>
<linearGradient id="SVGID_20_" gradientUnits="userSpaceOnUse" x1="211.1677" y1="131.3183" x2="224.2596" y2="131.3183">
	<stop  offset="0" style="stop-color:#FABB05"/>
	<stop  offset="0.2585" style="stop-color:#F9B70C;stop-opacity:0.8441"/>
	<stop  offset="0.6278" style="stop-color:#F6AC1F;stop-opacity:0.6213"/>
	<stop  offset="0.9945" style="stop-color:#F39E38;stop-opacity:0.4"/>
</linearGradient>
<path fill="url(#SVGID_20_)" d="M211.17,135.98h13.09v-9.32l-11.6,4.72c-0.9,0.37-1.49,1.25-1.49,2.22V135.98z"/>
<path fill="#FFFFFF" d="M240.81,133.93h-13.92c-0.32,0-0.58-0.28-0.58-0.62v-11.3c0-0.34,0.26-0.62,0.58-0.62h13.92
	c0.32,0,0.58,0.28,0.58,0.62v11.3C241.39,133.65,241.13,133.93,240.81,133.93z"/>
<path fill="#F8F9FA" d="M241.09,133.93h-7.19c-0.16,0-0.3-0.28-0.3-0.62v-11.3c0-0.34,0.13-0.62,0.3-0.62h7.19
	c0.16,0,0.3,0.28,0.3,0.62v11.3C241.39,133.65,241.25,133.93,241.09,133.93z"/>
<circle fill="#FFFFFF" cx="214.11" cy="133.68" r="0.92"/>
<path fill="#676C71" d="M243.09,117.9h-18.94c-0.4,0-0.72,0.32-0.72,0.72l0,0c0,0.4,0.32,0.72,0.72,0.72h18.94
	c0.4,0,0.72-0.32,0.72-0.72l0,0C243.81,118.22,243.48,117.9,243.09,117.9z"/>
<path fill="#F8BA2D" d="M261.04,135.98h-18.1v-7.02h13.11c2.76,0,4.99,2.23,4.99,4.99V135.98z"/>
<linearGradient id="SVGID_21_" gradientUnits="userSpaceOnUse" x1="261.0361" y1="132.4687" x2="242.9367" y2="132.4687">
	<stop  offset="0" style="stop-color:#FABB05"/>
	<stop  offset="0.37" style="stop-color:#FABA08;stop-opacity:0.7768"/>
	<stop  offset="0.6001" style="stop-color:#F8B510;stop-opacity:0.638"/>
	<stop  offset="0.7919" style="stop-color:#F6AC1F;stop-opacity:0.5223"/>
	<stop  offset="0.9618" style="stop-color:#F4A133;stop-opacity:0.4197"/>
	<stop  offset="0.9945" style="stop-color:#F39E38;stop-opacity:0.4"/>
</linearGradient>
<path fill="url(#SVGID_21_)" d="M261.04,135.98h-18.1v-7.02h13.11c2.76,0,4.99,2.23,4.99,4.99V135.98z"/>
<rect x="242.94" y="127.52" fill="#676C71" width="10.9" height="1.44"/>
<path fill="#676C71" d="M220.08,125.86h-2.21c-0.4,0-0.72-0.32-0.72-0.72l0,0c0-0.4,0.32-0.72,0.72-0.72h2.21
	c0.4,0,0.72,0.32,0.72,0.72l0,0C220.8,125.53,220.48,125.86,220.08,125.86z"/>
<circle fill="#676C71" cx="253.83" cy="128.24" r="0.72"/>
<rect x="182.33" y="73.1" fill="#FFFFFF" width="1" height="9.46"/>
<path fill="#F8BA2D" d="M253.47,119.9c-0.37,0-0.74-0.1-1.07-0.31l-70.64-44.8c-0.93-0.59-1.21-1.83-0.62-2.76
	c0.59-0.93,1.83-1.21,2.76-0.62l70.64,44.8c0.93,0.59,1.21,1.83,0.62,2.76C254.78,119.57,254.13,119.9,253.47,119.9z"/>
<linearGradient id="SVGID_22_" gradientUnits="userSpaceOnUse" x1="210.879" y1="95.1686" x2="224.4006" y2="95.1686">
	<stop  offset="0" style="stop-color:#FABB05"/>
	<stop  offset="0.37" style="stop-color:#FABA08;stop-opacity:0.7768"/>
	<stop  offset="0.6001" style="stop-color:#F8B510;stop-opacity:0.638"/>
	<stop  offset="0.7919" style="stop-color:#F6AC1F;stop-opacity:0.5223"/>
	<stop  offset="0.9618" style="stop-color:#F4A133;stop-opacity:0.4197"/>
	<stop  offset="0.9945" style="stop-color:#F39E38;stop-opacity:0.4"/>
</linearGradient>
<path fill="url(#SVGID_22_)" d="M222.4,100.21c-0.37,0-0.74-0.1-1.07-0.31l-9.52-6.08c-0.93-0.59-1.21-1.83-0.62-2.76
	c0.59-0.93,1.83-1.21,2.76-0.62l9.52,6.08c0.93,0.59,1.21,1.83,0.62,2.76C223.71,99.88,223.06,100.21,222.4,100.21z"/>
<path fill="#F8BA2D" d="M251.57,121.43l-32.18-20.41l4.28-6.76l32.18,20.41c1.87,1.18,2.42,3.65,1.24,5.52l0,0
	C255.91,122.06,253.44,122.61,251.57,121.43z"/>
<circle fill="#676C71" cx="182.83" cy="73.1" r="1.05"/>
<circle fill="#676C71" cx="253.83" cy="118.13" r="1.05"/>
</svg>
