<?xml version="1.0" encoding="UTF-8"?>
<svg width="48px" height="48px" viewBox="0 0 48 48" version="1.1" xmlns="http://www.w3.org/2000/svg" xmlns:xlink="http://www.w3.org/1999/xlink">
    <!-- Generator: Sketch 49 (51002) - http://www.bohemiancoding.com/sketch -->
    <title>Exemplars_Idle_Star</title>
    <desc>Created with Sketch.</desc>
    <defs>
        <polygon id="path-1" points="0.0002 0.000304547348 31.735854 0.000304547348 31.735854 30.8871 0.0002 30.8871"></polygon>
    </defs>
    <g id="Exemplars_Idle_Star" stroke="none" stroke-width="1" fill="none" fill-rule="evenodd">
        <g id="Page-1" transform="translate(8.000000, 9.000000)">
            <mask id="mask-2" fill="white">
                <use xlink:href="#path-1"></use>
            </mask>
            <g id="Clip-2"></g>
            <path d="M30.7372,13.319 L30.7362,13.319 L30.7372,13.319 L30.7382,13.319 L30.7372,13.319 Z M22.1712,17.186 C21.1062,17.945 20.6572,19.293 21.0542,20.541 L23.1832,27.206 L17.6712,23.07 C16.6122,22.273 15.1302,22.273 14.0672,23.069 L8.5552,27.207 L10.6812,20.541 C11.0802,19.293 10.6302,17.944 9.5632,17.185 L4.1322,13.32 L10.7822,13.323 L10.7852,13.323 C12.0952,13.323 13.2422,12.486 13.6422,11.237 L15.8672,4.283 L18.0902,11.234 C18.4872,12.484 19.6352,13.323 20.9452,13.323 L20.9492,13.323 L27.6032,13.32 L22.1712,17.186 Z M24.1372,30.194 C24.1372,30.194 24.1362,30.193 24.1362,30.192 C24.1362,30.193 24.1372,30.194 24.1372,30.194 Z M16.8212,1.302 L16.8202,1.305 L16.8212,1.302 Z M0.9992,13.319 L1.0002,13.319 L0.9992,13.319 Z M20.9482,11.323 C20.5132,11.323 20.1282,11.042 19.9962,10.628 L16.8202,0.695 C16.6522,0.17 16.0892,-0.12 15.5632,0.048 C15.2552,0.146 15.0132,0.387 14.9152,0.695 L11.7372,10.628 C11.6052,11.042 11.2192,11.323 10.7842,11.323 L1.0002,11.319 C0.4482,11.319 0.0002,11.766 0.0002,12.319 C0.0002,12.642 0.1562,12.946 0.4202,13.133 L8.4032,18.815 C8.7582,19.067 8.9082,19.519 8.7762,19.933 L5.6982,29.583 C5.5312,30.11 5.8212,30.672 6.3472,30.84 C6.6562,30.938 6.9932,30.881 7.2522,30.687 L15.2682,24.668 C15.6232,24.402 16.1122,24.401 16.4682,24.668 L24.4892,30.687 C24.9302,31.019 25.5572,30.929 25.8892,30.487 C26.0842,30.229 26.1402,29.891 26.0422,29.583 L22.9602,19.933 C22.8282,19.519 22.9782,19.067 23.3332,18.814 L31.3152,13.133 C31.7652,12.813 31.8712,12.189 31.5502,11.739 C31.3632,11.475 31.0592,11.319 30.7352,11.319 L20.9482,11.323 Z" id="Fill-1" fill="#80868B" mask="url(#mask-2)"></path>
        </g>
    </g>
</svg>