<?xml version="1.0" encoding="utf-8"?>
<!-- Generator: Adobe Illustrator 21.1.0, SVG Export Plug-In . SVG Version: 6.00 Build 0)  -->
<svg version="1.0" id="Layer_1" xmlns="http://www.w3.org/2000/svg" xmlns:xlink="http://www.w3.org/1999/xlink" x="0px" y="0px"
	 width="48px" height="48px" viewBox="0 0 48 48" enable-background="new 0 0 48 48" xml:space="preserve">
<path fill-rule="evenodd" clip-rule="evenodd" fill="#FABB05" d="M34.17,38.14l-3.08-9.65c-0.13-0.41,0.02-0.87,0.37-1.12l7.98-5.68
	c0.45-0.32,0.56-0.94,0.23-1.39c-0.19-0.26-0.49-0.42-0.82-0.42l-9.79,0c-0.44,0-0.82-0.28-0.95-0.7l-3.18-9.93
	c-0.17-0.53-0.73-0.82-1.26-0.65c-0.31,0.1-0.55,0.34-0.65,0.65l-3.18,9.93c-0.13,0.41-0.52,0.7-0.95,0.7l-9.78,0
	c-0.55,0-1,0.45-1,1c0,0.32,0.16,0.63,0.42,0.82l7.98,5.68c0.35,0.25,0.51,0.7,0.37,1.12l-3.08,9.65c-0.17,0.53,0.12,1.09,0.65,1.26
	c0.31,0.1,0.65,0.04,0.9-0.15l8.02-6.02c0.36-0.27,0.84-0.27,1.2,0l8.02,6.02c0.44,0.33,1.07,0.24,1.4-0.2
	C34.22,38.78,34.27,38.45,34.17,38.14z"/>
</svg>
