<?xml version="1.0" encoding="utf-8"?>
<svg version="1.0" id="Layer_1" xmlns="http://www.w3.org/2000/svg" xmlns:xlink="http://www.w3.org/1999/xlink" x="0px" y="0px"
	 width="305px" height="148px" enable-background="new 0 0 305 148" xml:space="preserve">
<rect y="134.2" fill="#E8EAED" width="305" height="4.55"/>
<g>
	<circle fill="#292D33" cx="195.95" cy="127.3" r="11.21"/>
	<rect x="192.89" y="116.09" fill="#BDC1C6" width="3.37" height="1.43"/>
	<rect x="192.89" y="137.6" fill="#292D33" width="3.37" height="0.91"/>
	<circle fill="#676C72" cx="192.89" cy="127.3" r="11.21"/>
	<circle fill="#DFE1E5" cx="192.89" cy="127.3" r="4.42"/>
</g>
<g>
	<circle fill="#292D33" cx="138.27" cy="127.3" r="11.21"/>
	<rect x="135.21" y="116.09" fill="#BDC1C6" width="3.37" height="1.43"/>
	<rect x="135.21" y="137.6" fill="#292D33" width="3.37" height="0.91"/>
	<circle fill="#676C72" cx="135.21" cy="127.3" r="11.21"/>
	<circle fill="#DFE1E5" cx="135.21" cy="127.3" r="4.42"/>
</g>
<rect y="136.51" fill="#BDC1C6" width="305" height="6.46"/>
<ellipse transform="matrix(0.5676 -0.8233 0.8233 0.5676 -18.576 137.6395)" fill="#FABB05" cx="121.75" cy="86.5" rx="16.67" ry="16.67"/>
<path fill="#FFFFFF" d="M121.76,97.22c-2.14,0-4.27-0.63-6.09-1.88c-3.38-2.33-5.15-6.46-4.5-10.52c0.1-0.63,0.69-1.06,1.32-0.96
	s1.06,0.69,0.96,1.32c-0.51,3.19,0.88,6.43,3.53,8.26s6.18,1.97,8.97,0.37c0.55-0.32,1.26-0.13,1.57,0.42
	c0.32,0.55,0.13,1.26-0.43,1.57C125.45,96.75,123.6,97.22,121.76,97.22z"/>
<ellipse transform="matrix(0.5676 -0.8233 0.8233 0.5676 -16.2636 142.5093)" fill="#FFFFFF" cx="127.54" cy="86.74" rx="3.08" ry="3.08"/>
<ellipse transform="matrix(0.5676 -0.8233 0.8233 0.5676 -15.1732 133.4634)" fill="#FFFFFF" cx="119.47" cy="81.18" rx="3.08" ry="3.08"/>
<g>
	<path fill="#4688F1" d="M135.17,75.9c-3.04-8.49,1.38-17.88,9.87-20.93l0,0c0.01,0,0.01,0,0.02-0.01
		c8.5-3.05,17.89,1.39,20.94,9.89l0,0l0,0c0.11,0.29,0.2,0.59,0.29,0.88c0.03,0.1,0.05,0.19,0.08,0.29c0.06,0.2,0.11,0.4,0.16,0.61
		c0.03,0.11,0.05,0.22,0.07,0.33c0.04,0.19,0.08,0.38,0.11,0.57c0.02,0.11,0.04,0.22,0.06,0.33c0.03,0.2,0.06,0.4,0.08,0.6
		c0.01,0.1,0.03,0.2,0.04,0.3c0.02,0.25,0.04,0.51,0.06,0.76c0,0.04,0.01,0.09,0.01,0.13c0.01,0.3,0.02,0.6,0.01,0.89
		c0,0.08-0.01,0.16-0.01,0.23c-0.01,0.22-0.01,0.44-0.03,0.65c-0.01,0.1-0.02,0.2-0.02,0.3c-0.02,0.2-0.04,0.39-0.06,0.59
		c-0.01,0.1-0.03,0.21-0.04,0.31c-0.03,0.2-0.06,0.4-0.1,0.59c-0.02,0.09-0.03,0.19-0.05,0.28c-0.05,0.23-0.1,0.46-0.15,0.69
		c-0.01,0.05-0.02,0.11-0.04,0.16c-0.02,0.06-0.03,0.12-0.05,0.19l0.06,0.02l-6.85,22.21l-17.41-12.33l0,0
		C139.05,82.55,136.51,79.61,135.17,75.9z"/>
	
		<path fill="none" stroke="#FFFFFF" stroke-width="1.2379" stroke-linecap="round" stroke-linejoin="round" stroke-miterlimit="10" d="
		M142.11,69.9c-0.06,1.1,0.09,2.23,0.49,3.34c1.58,4.41,6.44,6.71,10.86,5.13c4.41-1.58,6.71-6.44,5.13-10.86
		c-1.58-4.41-6.44-6.71-10.86-5.13c-2.21,0.79-3.88,2.4-4.81,4.37"/>
	<g>
		
			<linearGradient id="SVGID_1_" gradientUnits="userSpaceOnUse" x1="-428.7403" y1="-1963.33" x2="-428.7354" y2="-1963.33" gradientTransform="matrix(0.9414 -0.3374 -0.3374 -0.9414 -99.2386 -1896.1421)">
			<stop  offset="0" style="stop-color:#FFFFFF"/>
			<stop  offset="1" style="stop-color:#969CA4"/>
		</linearGradient>
		<polygon opacity="0.8" fill="url(#SVGID_1_)" enable-background="new    " points="159.62,96.78 159.63,96.77 159.63,96.77 		"/>
	</g>
</g>
<g>
	<path fill="#FABB05" d="M187.37,71.59l2.87-11.34c0.63-1.72,2.5-2.69,4.32-2.11c1.52,0.49,2.45,2.04,2.37,3.64l-0.69,13.09
		c-0.06,1.09,0.5,2.13,1.45,2.68l6.28,3.62l-9.56,16.57c-1.68,2.92-5.41,3.91-8.32,2.23l-19.95-11.51l12.61-21.85L187.37,71.59z"/>
	
		<linearGradient id="SVGID_2_" gradientUnits="userSpaceOnUse" x1="-14073.0391" y1="2916.2759" x2="-14043.9102" y2="2916.2759" gradientTransform="matrix(-0.8662 -0.4997 0.4997 -0.8662 -13449.7334 -4414.1694)">
		<stop  offset="0" style="stop-color:#FABB05"/>
		<stop  offset="0.2585" style="stop-color:#F9B70C"/>
		<stop  offset="0.6278" style="stop-color:#F6AC1F"/>
		<stop  offset="0.9945" style="stop-color:#F39E38"/>
	</linearGradient>
	<path fill="url(#SVGID_2_)" d="M187.33,71.57l-0.73,2.71c-2.09,8.51,1.84,17.09,9.08,21.25l-1.28,2.21
		c-1.68,2.92-5.41,3.91-8.32,2.23l-19.95-11.51l12.61-21.85L187.33,71.57z"/>
	<path fill="#FABB05" d="M176,65.03l8.07,4.66c1.51,0.87,2.02,2.8,1.15,4.3l0,0c-0.87,1.51-2.8,2.02-4.3,1.15l-8.07-4.66
		c-1.5-0.86-2.01-2.78-1.15-4.27l0.02-0.04C172.59,64.68,174.51,64.17,176,65.03z"/>
	<path fill="#FABB05" d="M173.37,70.79l8.07,4.66c1.51,0.87,2.02,2.8,1.15,4.3l0,0c-0.87,1.51-2.8,2.02-4.3,1.15l-8.07-4.66
		c-1.5-0.86-2.01-2.78-1.15-4.27l0.02-0.04C169.96,70.44,171.88,69.93,173.37,70.79z"/>
	<path fill="#FABB05" d="M170.48,76.41l8.07,4.66c1.51,0.87,2.02,2.8,1.15,4.3l0,0c-0.87,1.51-2.8,2.02-4.3,1.15l-8.07-4.66
		c-1.5-0.86-2.01-2.78-1.15-4.27l0.02-0.04C167.07,76.06,168.98,75.54,170.48,76.41z"/>
	<path fill="#FABB05" d="M168.11,82.32l8.07,4.66c1.51,0.87,2.02,2.8,1.15,4.3l0,0c-0.87,1.51-2.8,2.02-4.3,1.15l-8.07-4.66
		c-1.5-0.86-2.01-2.78-1.15-4.27l0.02-0.04C164.7,81.97,166.61,81.45,168.11,82.32z"/>
</g>
<rect x="97.36" y="94.6" fill="#4688F1" width="83.77" height="35.18"/>
<rect x="95.96" y="125.26" fill="#2376E5" width="85.16" height="4.52"/>
<rect x="181.12" y="94.6" fill="#2376E5" width="26.65" height="32.92"/>
<rect x="181.12" y="92.36" fill="#206ACF" width="27.91" height="4.52"/>
<path fill="#34A853" d="M192.37,37.8c-0.05-0.57-0.56-0.99-1.13-0.94l-28.81,2.69c-0.57,0.05-0.99,0.56-0.94,1.13l1.78,19.05
	c0.05,0.57,0.56,0.99,1.13,0.94l9.83-0.92c0.37-0.03,0.73,0.13,0.94,0.43l3.5,4.88c0.29,0.4,0.91,0.32,1.09-0.14l2.02-5.29
	c0.14-0.37,0.48-0.63,0.87-0.66l10.57-0.99c0.57-0.05,0.99-0.56,0.94-1.13L192.37,37.8z M181.12,50.3l1.18,4.38l-4.19-1.73
	l-3.8,2.47l0.35-4.52l-3.53-2.85l4.41-1.07l1.62-4.23l2.38,3.86l4.53,0.23L181.12,50.3z"/>
<g>
	<path fill="#E94335" d="M122.53,69.84l-12.96-18.86c-1.63-2.39-2.36-5.41-1.8-8.48c1.13-6.19,7.08-10.29,13.27-9.16
		c3.08,0.56,5.63,2.31,7.29,4.69l0.04-0.03l0.03,0.04c2.39-1.63,5.41-2.36,8.48-1.8c6.19,1.13,10.29,7.08,9.16,13.27
		c-0.56,3.08-2.31,5.63-4.69,7.29L122.53,69.84z"/>
	<g>
		
			<linearGradient id="SVGID_3_" gradientUnits="userSpaceOnUse" x1="-11734.2402" y1="957.495" x2="-11734.2402" y2="921.8597" gradientTransform="matrix(-0.9836 -0.1803 0.1803 -0.9836 -11577.3828 -1137.0441)">
			<stop  offset="0" style="stop-color:#E94335"/>
			<stop  offset="0.9987" style="stop-color:#D43636"/>
		</linearGradient>
		<path opacity="0.3" fill="url(#SVGID_3_)" enable-background="new    " d="M135.88,55.8c2.38-1.66,4.13-4.22,4.69-7.29
			c0.96-5.25-1.84-10.32-6.49-12.43c0.91-0.06,1.85-0.01,2.79,0.16c6.19,1.13,10.29,7.08,9.16,13.27c-0.56,3.08-2.31,5.63-4.69,7.29
			l-18.81,13.04l-2.23-3.24L135.88,55.8z"/>
	</g>
</g>
<linearGradient id="SVGID_4_" gradientUnits="userSpaceOnUse" x1="139.235" y1="48.62" x2="139.235" y2="53.18" gradientTransform="matrix(1 0 0 -1 0 150)">
	<stop  offset="0" style="stop-color:#4688F1;stop-opacity:0"/>
	<stop  offset="0.4122" style="stop-color:#357AE2;stop-opacity:0.1649"/>
	<stop  offset="1" style="stop-color:#206ACF;stop-opacity:0.4"/>
</linearGradient>
<rect x="97.35" y="96.82" fill="url(#SVGID_4_)" width="83.77" height="4.56"/>
<linearGradient id="SVGID_5_" gradientUnits="userSpaceOnUse" x1="194.45" y1="48.62" x2="194.45" y2="53.18" gradientTransform="matrix(1 0 0 -1 0 150)">
	<stop  offset="0" style="stop-color:#2376E5;stop-opacity:0"/>
	<stop  offset="0.0502" style="stop-color:#2375E4;stop-opacity:0.0301"/>
	<stop  offset="1" style="stop-color:#206ACF;stop-opacity:0.6"/>
</linearGradient>
<rect x="181.13" y="96.82" fill="url(#SVGID_5_)" width="26.64" height="4.56"/>
<linearGradient id="SVGID_6_" gradientUnits="userSpaceOnUse" x1="140.4428" y1="522.2268" x2="140.4428" y2="526.7868" gradientTransform="matrix(-1 0 0 1 334.8928 -401.4268)">
	<stop  offset="0" style="stop-color:#2376E5;stop-opacity:0"/>
	<stop  offset="0.0502" style="stop-color:#2375E4;stop-opacity:0.0301"/>
	<stop  offset="1" style="stop-color:#206ACF;stop-opacity:0.6"/>
</linearGradient>
<polygon fill="url(#SVGID_6_)" points="181.13,120.8 207.77,120.8 207.77,125.36 181.13,125.36 "/>
<linearGradient id="SVGID_7_" gradientUnits="userSpaceOnUse" x1="85.2398" y1="525.6458" x2="85.2398" y2="530.2086" gradientTransform="matrix(-1 0 0 1 224.4748 -404.9558)">
	<stop  offset="0" style="stop-color:#4688F1;stop-opacity:0"/>
	<stop  offset="0.4122" style="stop-color:#357AE2;stop-opacity:0.1649"/>
	<stop  offset="1" style="stop-color:#206ACF;stop-opacity:0.4"/>
</linearGradient>
<polygon fill="url(#SVGID_7_)" points="97.35,120.69 181.12,120.69 181.12,125.26 97.35,125.26 "/>
<rect x="95.96" y="92.36" fill="#2376E5" width="85.16" height="4.52"/>
<rect x="181.12" y="125.26" fill="#206ACF" width="27.91" height="4.52"/>
<rect x="164.04" y="96.26" fill="#2376E5" width="4.42" height="29.1"/>
<rect x="106.35" y="95.63" fill="#2376E5" width="4.42" height="29.73"/>
<g>
	<circle fill="#292D33" cx="169.31" cy="129.78" r="11.21"/>
	<rect x="166.25" y="118.57" fill="#292D33" width="3.37" height="1.43"/>
	<rect x="166.25" y="140.08" fill="#292D33" width="3.37" height="0.91"/>
	<circle fill="#676C72" cx="166.25" cy="129.78" r="11.21"/>
	<circle fill="#DFE1E5" cx="166.25" cy="129.78" r="4.42"/>
</g>
<g>
	<circle fill="#292D33" cx="111.63" cy="129.78" r="11.21"/>
	<rect x="108.56" y="118.57" fill="#292D33" width="3.37" height="1.43"/>
	<rect x="108.56" y="140.08" fill="#292D33" width="3.37" height="0.91"/>
	<circle fill="#676C72" cx="108.56" cy="129.78" r="11.21"/>
	<circle fill="#DFE1E5" cx="108.56" cy="129.78" r="4.42"/>
</g>
<rect y="138.97" fill="#E8EAED" width="305" height="4"/>
<linearGradient id="SVGID_8_" gradientUnits="userSpaceOnUse" x1="-866.2183" y1="23.535" x2="-829.2982" y2="23.535" gradientTransform="matrix(1 0 0 -1 1134.2982 150)">
	<stop  offset="0" style="stop-color:#FFFFFF;stop-opacity:0"/>
	<stop  offset="0.1447" style="stop-color:#FFFFFF;stop-opacity:0.1447"/>
	<stop  offset="1" style="stop-color:#FFFFFF"/>
</linearGradient>
<rect x="268.08" y="104.93" fill="url(#SVGID_8_)" width="36.92" height="43.07"/>
<linearGradient id="SVGID_9_" gradientUnits="userSpaceOnUse" x1="-16634.6836" y1="23.535" x2="-16597.7637" y2="23.535" gradientTransform="matrix(-1 0 0 -1 -16597.7637 150)">
	<stop  offset="0" style="stop-color:#FFFFFF;stop-opacity:0"/>
	<stop  offset="0.1447" style="stop-color:#FFFFFF;stop-opacity:0.1447"/>
	<stop  offset="1" style="stop-color:#FFFFFF"/>
</linearGradient>
<polygon fill="url(#SVGID_9_)" points="36.92,148 0,148 0,104.93 36.92,104.93 "/>
<linearGradient id="SVGID_10_" gradientUnits="userSpaceOnUse" x1="101.29" y1="44.16" x2="75.15" y2="44.16" gradientTransform="matrix(1 0 0 -1 0 150)">
	<stop  offset="0" style="stop-color:#F8BA2D;stop-opacity:0.4"/>
	<stop  offset="1" style="stop-color:#FFFFFF"/>
</linearGradient>
<path fill="url(#SVGID_10_)" d="M100.32,106.81h-24.2c-0.54,0-0.97-0.43-0.97-0.97s0.43-0.97,0.97-0.97h24.2
	c0.54,0,0.97,0.43,0.97,0.97S100.86,106.81,100.32,106.81z"/>
<linearGradient id="SVGID_11_" gradientUnits="userSpaceOnUse" x1="99.12" y1="33.79" x2="78.86" y2="33.79" gradientTransform="matrix(1 0 0 -1 0 150)">
	<stop  offset="0" style="stop-color:#F8BA2D;stop-opacity:0.4"/>
	<stop  offset="1" style="stop-color:#FFFFFF"/>
</linearGradient>
<path fill="url(#SVGID_11_)" d="M98.14,117.18H79.83c-0.54,0-0.97-0.43-0.97-0.97s0.43-0.97,0.97-0.97h18.32
	c0.54,0,0.97,0.43,0.97,0.97S98.68,117.18,98.14,117.18z"/>
<linearGradient id="SVGID_12_" gradientUnits="userSpaceOnUse" x1="103.54" y1="38.88" x2="63.6" y2="38.88" gradientTransform="matrix(1 0 0 -1 0 150)">
	<stop  offset="0" style="stop-color:#F8BA2D;stop-opacity:0.4"/>
	<stop  offset="1" style="stop-color:#FFFFFF"/>
</linearGradient>
<path fill="url(#SVGID_12_)" d="M102.57,112.09h-38c-0.54,0-0.97-0.43-0.97-0.97s0.43-0.97,0.97-0.97h38c0.54,0,0.97,0.43,0.97,0.97
	S103.1,112.09,102.57,112.09z"/>
</svg>
