<svg xmlns="http://www.w3.org/2000/svg" width="720" height="400" viewBox="0 0 720 400"><linearGradient id="a" x1="471.6396" x2="678.9938" y1="244.5024" y2="244.5024" gradientUnits="userSpaceOnUse"><stop offset="0" style="stop-color:#111111;stop-opacity:0.03"/><stop offset="1" style="stop-color:#111111;stop-opacity:0.1"/></linearGradient><path fill="url(#a)" d="M635.57 362.33l-163.93-35.57 43.43-200.09 163.92 35.58"/><path fill="#FFF" d="M517.73437 130.46336l153.54744 33.32727-40.90136 188.44325L476.833 318.9066z"/><path fill="#7BBC61" d="M526.8081 143.0164l129.4497 28.09688-36.20972 166.8276-129.44968-28.0969z"/><path fill="#FFFBE3" d="M577.7223 154.06674l49.19225 10.6771-7.3132 33.69387-49.19226-10.6771z"/><path fill="#44990E" d="M510.55963 218.10183l129.40082 28.08628-13.33473 61.43658-129.40082-28.0863z"/><path fill="#FFFBE3" d="M630.75198 165.57928l25.39743 5.51248-7.3132 33.69386-25.39743-5.51248zM526.80732 143.0185l46.8763 10.17444-7.31322 33.69386-46.87628-10.17444z"/><path fill="#5D6B0B" d="M571.72 281.11s17.41 2.46 22.32 2.56c4.91.11 10.57-1.82 11.22-4.59.64-2.78-.96-5.13-4.17-5.55s-7.9.43-8.76-1.39 11.96-9.72 11.96-9.72 3.42-.11 6.62.32 8.44 2.35 11.54 1.71 5.98-2.67 4.17-4.06-9.61-2.78-12.92-3.31c-3.31-.53-16.98-2.99-16.98-2.99l-27.98 23.82 2.98 3.2zM529.53 266.9s16.77 2.96 21.68 3.06c4.91.11 10.57-1.82 11.22-4.59.64-2.78-.96-5.13-4.17-5.55-3.2-.43-7.9.43-8.76-1.39s11.96-9.72 11.96-9.72 3.42-.11 6.62.32 8.44 2.35 11.54 1.71c3.1-.64 5.98-2.67 4.17-4.06-1.82-1.39-9.61-2.78-12.92-3.31-3.31-.53-16.98-2.99-16.98-2.99L525.9 264.2l3.63 2.7z"/><path fill="#B0BEC5" d="M583.64 240.77l-6.22 6.41c-1.5 1.54-5.21 2.92-7.07 3.56l-9.07-28.36c2.63-1.23 6.32-2.94 8.4-2.41l8.66 2.18c2.09.53 3.73 2.12 4.32 4.19l2.44 8.59c.6 2.07.04 4.29-1.46 5.84z"/><path fill="#ECEFF1" d="M565.76 236.37c-.25 3.66-4.47-13.99-4.47-13.99 2.63-1.23 6.32-2.94 8.4-2.41l8.66 2.18c1.04.26 1.97.79 2.71 1.51.75.71-14.99 8.1-15.3 12.71z"/><path fill="#90A4AE" d="M583.64 240.77l-6.22 6.41c-1.5 1.54-5.21 2.92-7.07 3.56 0 0 15.02-14.48 14.98-13.82-.08 1.42-.67 2.79-1.69 3.85z"/><path fill="#CFD1D1" d="M579.69 242.66l-6.22 6.41c-1.5 1.54-3.71 2.17-5.79 1.65l-8.66-2.18c-2.09-.53-3.73-2.12-4.32-4.19l-2.44-8.59c-.59-2.07-.03-4.3 1.47-5.84l6.22-6.41c1.5-1.54 3.71-2.17 5.79-1.65l8.66 2.18c2.09.53 3.73 2.12 4.32 4.19l2.44 8.59c.59 2.07.03 4.29-1.47 5.84z"/><path fill="#7D8A8E" d="M530.92 253.7c-1.38-2.84-.74-7.46 2.1-8.84l30.19-13.17c2.84-1.38 6.26-.19 7.64 2.65s.19 6.26-2.65 7.64l-29.68 15.66c-2.85 1.39-6.23-1.09-7.6-3.94z"/><path fill="#B0BEC5" d="M554.91 255.5l-6.96 7.18c-1.68 1.73-3.83 3.13-8.99 5.7l-5.83-16.89c-1.83-6.05-4.87-16.51-4.87-16.51 1.68-1.73 8.7-3.35 11.04-2.77l9.7 2.44c2.33.59 4.18 2.38 4.84 4.69l2.73 9.62c.65 2.32.02 4.81-1.66 6.54z"/><path fill="#ECEFF1" d="M531.43 246.98c-.31-1.02 1.04 2.33.68 1.13-1.76-5.91-3.86-13.14-3.86-13.14 1.68-1.73 8.7-3.35 11.04-2.77l9.7 2.44c1.35.34 2.54 1.08 3.42 2.09.65.76-20.98 10.25-20.98 10.25z"/><path fill="#90A4AE" d="M554.91 255.5l-6.96 7.18c-1.68 1.73-3.83 3.13-8.99 5.7l.72-5.97c9.48-3.75 17.18-11.87 17.12-11.09-.12 1.54-.77 3.03-1.89 4.18z"/><path fill="#CFD1D1" d="M549.14 258.95l-7.28 7.5c-1.75 1.81-4.33 2.54-6.77 1.92l-10.13-2.55c-2.44-.61-4.37-2.48-5.05-4.9l-2.85-10.05c-.69-2.42-.03-5.02 1.72-6.83l7.28-7.5c1.75-1.81 4.33-2.54 6.77-1.92l10.13 2.55c2.44.61 4.37 2.48 5.05 4.9l2.85 10.05c.68 2.42.03 5.03-1.72 6.83z"/><path fill="#B0BEC5" d="M623.55 251.73l-6.23 6.76c-1.5 1.63-5.28 3.15-7.18 3.85l-10.09-28.93c2.67-1.34 6.42-3.19 8.58-2.71l8.97 2.01c2.16.48 3.9 2.08 4.56 4.2l2.74 8.77c.66 2.12.15 4.43-1.35 6.05z"/><path fill="#ECEFF1" d="M605.04 247.69c-.16 3.78-4.98-14.27-4.98-14.27 2.67-1.34 6.42-3.19 8.58-2.71l8.97 2.01c1.07.24 2.04.76 2.83 1.48s-15.21 8.74-15.4 13.49z"/><path fill="#90A4AE" d="M623.55 251.73l-6.23 6.76c-1.5 1.63-5.28 3.15-7.18 3.85 0 0 15.06-15.29 15.04-14.61-.04 1.47-.61 2.89-1.63 4z"/><path fill="#CFD1D1" d="M619.54 253.78l-6.23 6.76c-1.5 1.63-3.75 2.33-5.91 1.85l-8.97-2.01c-2.16-.48-3.9-2.08-4.56-4.2l-2.74-8.77c-.66-2.11-.14-4.42 1.36-6.05l6.23-6.76c1.5-1.63 3.75-2.33 5.91-1.85l8.97 2.01c2.16.48 3.9 2.08 4.56 4.2l2.74 8.77c.66 2.12.14 4.42-1.36 6.05z"/><path fill="#7D8A8E" d="M569.67 266.46c-1.49-2.89-.97-7.65 1.92-9.14l30.7-14.36c2.89-1.49 6.44-.36 7.93 2.52 1.49 2.89.36 6.44-2.52 7.93l-30.11 16.9c-2.89 1.49-6.43-.97-7.92-3.85z"/><path fill="#B0BEC5" d="M594.4 267.66l-6.97 7.57c-1.68 1.82-3.86 3.33-9.09 6.1l-6.45-17.21c-2.04-6.17-5.45-16.85-5.45-16.85 1.68-1.82 8.86-3.68 11.28-3.14l10.04 2.25c2.42.54 4.36 2.33 5.1 4.7l3.07 9.82c.72 2.36.14 4.94-1.53 6.76z"/><path fill="#ECEFF1" d="M570.02 259.53c-.34-1.04 1.13 2.37.73 1.14-1.97-6.03-4.32-13.41-4.32-13.41 1.68-1.82 8.86-3.68 11.28-3.14l10.04 2.25c1.4.31 2.64 1.04 3.58 2.06.68.75-21.31 11.1-21.31 11.1z"/><path fill="#90A4AE" d="M594.4 267.66l-6.97 7.57c-1.68 1.82-3.86 3.33-9.09 6.1l.58-6.16c9.65-4.11 17.35-12.67 17.31-11.87-.09 1.6-.72 3.15-1.83 4.36z"/><path fill="#CFD1D1" d="M588.55 271.37l-7.28 7.91c-1.75 1.9-4.39 2.73-6.91 2.16l-10.49-2.35c-2.53-.57-4.56-2.44-5.33-4.91l-3.21-10.26c-.77-2.47-.17-5.17 1.59-7.07l7.28-7.91c1.75-1.9 4.39-2.73 6.91-2.16l10.49 2.35c2.53.57 4.56 2.44 5.33 4.91l3.21 10.26c.77 2.47.16 5.16-1.59 7.07z"/><linearGradient id="b" x1="61.4312" x2="304.8957" y1="264.6699" y2="264.6699" gradientUnits="userSpaceOnUse" gradientTransform="rotate(-11.894 143.006 261.827)"><stop offset="0" style="stop-color:#111111;stop-opacity:0.03"/><stop offset="1" style="stop-color:#111111;stop-opacity:0.1"/></linearGradient><path fill="url(#b)" d="M318.09 307.6L79.86 357.78 47.69 205.06l238.23-50.19"/><path fill="#FFF" d="M50.94545 206.10983l229.83008-48.40877L311.25978 302.431 81.4297 350.83977z"/><path fill="#66B5D1" d="M61.18773 212.5281l212.93138-44.84943 26.82393 127.35177-212.9314 44.84942z"/><ellipse cx="136.55" cy="304.64" fill="#B0BEC5" transform="rotate(-11.894 136.56 304.656)" rx="2.05" ry=".83"/><ellipse cx="151.1" cy="301.57" fill="#B0BEC5" transform="rotate(-11.894 151.113 301.59)" rx="2.05" ry=".83"/><path fill="#B3F8FF" d="M103.33 303.52l190.93-40.21-14.79-70.21-122.88 25.88"/><path fill="#4194AA" d="M103.33 303.52l68.07-14.33-14.79-70.21h-.02"/><path fill="#80DEEA" d="M110.23 302.07l184.03-38.76-13.28-63.08-122.89 25.88"/><path fill="#79D1D8" d="M110.23 302.07l32.62-6.87 22.06-36.81-6.82-32.28"/><g fill="#E0F7FA"><path d="M171.18 259.25s20.27-5.82 28.75-7.46 31.47-4.42 31.47-4.42-26.76 5.41-31.35 6.3-28.87 5.58-28.87 5.58zM203.82 241.64s13.93-4 19.76-5.13c5.83-1.13 21.64-3.04 21.64-3.04s-18.4 3.72-21.55 4.33c-3.16.61-19.85 3.84-19.85 3.84zM157.62 249.6s7.84-2.25 11.12-2.88c3.28-.63 12.17-1.71 12.17-1.71s-10.35 2.09-12.12 2.44-11.17 2.15-11.17 2.15zM210.7 231.36s7.84-2.25 11.12-2.88 12.17-1.71 12.17-1.71-10.35 2.09-12.12 2.44-11.17 2.15-11.17 2.15zM236.28 238.25s7.84-2.25 11.12-2.88 12.17-1.71 12.17-1.71-10.35 2.09-12.12 2.44c-1.78.33-11.17 2.15-11.17 2.15zM183.46 241.15s4.9-1.41 6.95-1.8 7.61-1.07 7.61-1.07-6.47 1.31-7.58 1.52c-1.11.22-6.98 1.35-6.98 1.35z"/></g><path fill="#B0BEC5" d="M136.38 305.07h.02c.43-.1.69-.53.59-.96l-2.82-11.75c-.06-.24-.03-.51.07-.74l5.36-11.88c.13-.3.37-.51.68-.62.31-.11.63-.08.92.08.3.16.51.44.58.78l3.11 14.77 1.56-.33-3.11-14.77c-.17-.79-.67-1.46-1.38-1.85-.67-.36-1.47-.42-2.18-.19-.72.24-1.31.78-1.62 1.47l-5.36 11.88c-.25.55-.31 1.17-.17 1.75l2.82 11.75c.09.44.51.7.93.61z"/><path fill="#F9F9F9" d="M136.81 305.18h.02c.43-.1.69-.53.59-.96l-2.82-11.75c-.06-.24-.03-.51.07-.74l5.36-11.88c.13-.3.37-.51.68-.62.31-.11.63-.08.92.08.3.16.51.44.58.78l3.07 14.58 1.56-.33-3.07-14.58c-.17-.79-.67-1.46-1.38-1.85-.67-.36-1.47-.42-2.18-.19-.72.24-1.31.78-1.62 1.47l-5.36 11.88c-.25.55-.31 1.17-.17 1.75l2.82 11.75c.09.44.51.7.93.61z"/><path fill="#B0BEC5" d="M150.85 302.02h.02c.43-.1.69-.53.59-.96l-2.82-11.75c-.06-.24-.03-.51.07-.74l5.36-11.88c.13-.3.37-.51.68-.62.31-.11.63-.08.92.08.3.16.51.44.58.78l3.11 14.77 1.56-.33-3.11-14.77c-.17-.79-.67-1.46-1.38-1.85-.67-.36-1.47-.42-2.18-.19-.72.24-1.31.78-1.62 1.47l-5.36 11.88c-.25.55-.31 1.17-.17 1.75l2.82 11.75c.09.44.51.7.93.61z"/><path fill="#F9F9F9" d="M151.29 302.14h.02c.43-.1.69-.53.59-.96l-2.82-11.75c-.06-.24-.03-.51.07-.74l5.36-11.88c.13-.3.37-.51.68-.62.31-.11.63-.08.92.08.3.16.51.44.58.78l3.07 14.58 1.56-.33-3.07-14.58c-.17-.79-.67-1.46-1.38-1.85-.67-.36-1.47-.42-2.18-.19-.72.24-1.31.78-1.62 1.47l-5.36 11.88c-.25.55-.31 1.17-.17 1.75l2.82 11.75c.09.43.51.69.93.61z"/><path fill="#FFF" d="M194.31 218.51l6.88-1.44-1.44-7.18-6.81 1.43M253.44 206.09l6.89-1.45-1.45-7.17-6.8 1.43"/><g><linearGradient id="c" x1="263.8445" x2="511.765" y1="187.5301" y2="187.5301" gradientUnits="userSpaceOnUse"><stop offset="0" style="stop-color:#111111;stop-opacity:0.03"/><stop offset="1" style="stop-color:#111111;stop-opacity:0.1"/></linearGradient><path fill="url(#c)" d="M263.84 54.28h247.92v266.5H263.84z"/><path fill="#FFF" d="M265.79 55.91h239.44v258.34H265.79z"/><path fill="#E0B75A" d="M275.98 67.26h220.16v237.29H275.98z"/><path fill="#D18028" d="M379.16 67.26h116.97v170.83H379.16z"/><path fill="#FFF9C4" d="M375.23 118.84h120.93v26.61H375.23z"/><path fill="#AA6A1D" d="M370.58 67.26h125.58v74.97H370.58z"/><path fill="#EF671B" d="M275.98 265.55h220.16v39H275.98z"/><radialGradient id="d" cx="322.9394" cy="267.0926" r="34.4678" gradientTransform="matrix(1 0 0 .0845 0 244.528)" gradientUnits="userSpaceOnUse"><stop offset=".8811" style="stop-color:#111111;stop-opacity:0.15"/><stop offset="1" style="stop-color:#111111;stop-opacity:0.05"/></radialGradient><ellipse cx="322.94" cy="267.09" fill="url(#d)" rx="33.57" ry="2.52"/><path fill="#B2EBF2" d="M391.21 152.35h104.92v70.89H391.21z"/><path fill="#FFFDE7" d="M361.08 265.44l-85.1-.58V67.26l85.1.01"/><path fill="#D87C30" d="M425.94 67.34h11.86v27.15h-11.86z"/><ellipse cx="431.45" cy="94.92" fill="#D87C30" rx="60.5" ry="10.83"/><ellipse cx="431.45" cy="98.47" fill="#FFF9C4" rx="47.13" ry="8.44"/><ellipse cx="431.45" cy="107.02" fill="#D87C30" rx="47.13" ry="8.44"/><ellipse cx="431.45" cy="110.97" fill="#FFF9C4" rx="28.8" ry="5.15"/><ellipse cx="431.45" cy="118.03" fill="#D87C30" rx="28.8" ry="5.15"/><ellipse cx="431.45" cy="121.71" fill="#FFF9C4" rx="10.76" ry="1.93"/><ellipse cx="431.45" cy="124.26" fill="#D87C30" rx="10.76" ry="1.93"/><g fill="#4DD0E1"><ellipse cx="461.95" cy="176.34" rx="18.43" ry="6.6"/><path d="M486.62 176.65l1.73 10.21-10.64-10.64 10.21-10.21"/></g><g fill="#4DD0E1"><ellipse cx="408.64" cy="193.08" rx="9.24" ry="3.31"/><path d="M421.01 193.24l.87 5.12-5.33-5.34 5.12-5.12"/></g><path fill="#E0F7FA" d="M429.68 159.69c-.79 0-1.43-.64-1.43-1.43 0-.79.64-1.43 1.43-1.43.79 0 1.43.64 1.43 1.43 0 .78-.64 1.43-1.43 1.43zM465.36 161.6c-1.69 0-3.07-1.38-3.07-3.07s1.38-3.07 3.07-3.07 3.07 1.38 3.07 3.07c0 1.68-1.38 3.07-3.07 3.07z"/><path fill="#80DEEA" d="M460.19 207.71c-.01.52-1.43 1.51-1.75 1.94-1.1 1.5-1.34 2.54-3.1 3.56-.52.31-.94.5-1.28.69-.01-.9.23-1.83.99-2.82.68-.89-.83-1.75-1.5-.88-.02.02-.03.04-.05.06.19-1.19-.51-2.31.27-3.42.4-.57 1.46-.68 1.94-1.42.5-.78.5-1.49.42-2.37-.09-1.11-1.83-1.12-1.74 0 .1 1.13-2.21 1.99-2.69 3.04-.35.75-.31.9-.34 1.86-.02.88.51 1.82.14 2.77-.32.84-1.37 1.59-1.86 2.33-.32.49-.59.96-.8 1.46-1.26-1.59-2.61-3.03-2.11-5.45.46-2.2 2.78-3.61 3.3-5.76.77-3.21-3.45-4.78-2.4-7.63.35-.95 1.28-1.51 1.51-2.66.27-1.38-.11-2.47-.74-3.68-.52-.99-2.02-.11-1.5.88.83 1.58-1.25 3.98-1.45 5.42-.17 1.19-.29 1.64.26 2.77.8 1.64 1.76 1.68 1.99 3.72.27 2.37-1.2 3.13-2.13 5.2-.8 1.78-.88 3.23-.36 4.71-.94-.49-1.7-1.05-1.74-2.11-.04-.89.83-1.73.62-2.94-.27-1.55-1.57-2.91-2.32-4.24-1.1-1.95-4.11-.2-3 1.76 1.43 2.54 1.1 2.54.68 5.19-.13.82-.36.87-.2 1.89.29 1.74 1.45 2.32 2.78 3.19 1.37.9 2.5.69 2.89 2.52.18.84-.58 2.14-.36 3.19.08.38.2.72.34 1.06-.24-.08-.48-.17-.73-.27-2.99-1.23-2.18-4.02-4.38-5.88-1.24-1.05-2.56-1.66-3.61-3.06-.68-.91-.9-1.49-1.89-2.13-.94-.61-1.82.9-.88 1.5 1.29.84 1.83 2.86 2.94 3.99 1.78 1.79 1.33-1.91 3.5 3.17.29.69.17 1.52.62 2.19 1.24 1.87 3.6 2.2 5.7 2.73-.03.18 0 .37.15.57 1.36 1.77 1.78 3.88 1.11 6.03-.28.9.85 1.35 1.42.85.73.37 1.68.3 2.18-.41.39.06.78-.1.86-.61.03-.17.04-.34.06-.51.28.22.64.21.93.07.03.05.05.1.08.15-.12.83-.09 1.68.07 2.54.2 1.1 1.88.63 1.68-.46-.12-.64-.11-1.2-.02-1.71.08-.13.12-.27.12-.43.37-1.26 1.25-2.26 1.95-3.6.74-1.42.9-3.01 1.06-4.57.11-1.11-1.63-1.11-1.74 0-.14 1.38-.32 2.73-.98 3.96-.37.68-.86 1.29-1.27 1.94-.38-1.1-.53-2.2-.4-3.38.93-.92 2.22-1.73 2.66-3.25.62-2.14-1.89-4.12-.28-6.07.18-.22 1.76-.76 2.1-1.08.5-.47.74-1.13 1.11-1.68.98-1.44 2.87-2.58 2.91-4.41.02-1.13-1.71-1.13-1.74-.01zm-10.72 13.8c-.52-.93-.63-2.34-.68-3.57.31.61.59 1.24.78 1.96.18.68.3 1.37.39 2.07-.2-.13-.39-.27-.49-.46zm3.13-1.15c-.06-.12-.12-.23-.16-.35-.89-2.43-.8 1.97-.8-3.75 0-3.11-.1-2.77.17-2.93-.08.34-.14.68-.13 1.05.04 2.13 1.07 3.85.92 5.98z"/><radialGradient id="e" cx="432.6136" cy="266.993" r="70.7634" gradientTransform="matrix(1 0 0 .0845 0 244.437)" gradientUnits="userSpaceOnUse"><stop offset=".8811" style="stop-color:#111111;stop-opacity:0.15"/><stop offset="1" style="stop-color:#111111;stop-opacity:0.05"/></radialGradient><path fill="url(#e)" d="M496.16 265.14c-13.5-.44-31.8-.71-51.98-.71-41.48 0-75.12 1.15-75.12 2.57s33.63 2.57 75.12 2.57c20.18 0 38.49-.27 51.98-.71v-3.72z"/><path fill="#E0F7FA" d="M466.28 224.58c-1.05 0-1.91-.86-1.91-1.91 0-1.05.86-1.91 1.91-1.91 1.05 0 1.91.86 1.91 1.91-.01 1.05-.86 1.91-1.91 1.91zM472 240.46c-1.05 0-1.91-.86-1.91-1.91 0-1.05.86-1.91 1.91-1.91 1.05 0 1.91.86 1.91 1.91-.01 1.05-.86 1.91-1.91 1.91zM430.57 224.33c-.79 0-1.43-.64-1.43-1.43 0-.79.64-1.43 1.43-1.43.79 0 1.43.64 1.43 1.43 0 .79-.65 1.43-1.43 1.43zM470 234.44c-.51 0-.93-.42-.93-.93s.42-.93.93-.93.93.42.93.93-.42.93-.93.93zM468.81 231.67c-.41 0-.75-.34-.75-.75s.34-.75.75-.75.75.34.75.75-.34.75-.75.75zM467.33 235.39c-.27 0-.49-.22-.49-.49s.22-.49.49-.49.49.22.49.49c.01.27-.21.49-.49.49zM425.66 223.71c-.26 0-.47-.21-.47-.47s.21-.47.47-.47.47.21.47.47c-.01.26-.22.47-.47.47zM428.01 220.77c-.26 0-.47-.21-.47-.47s.21-.47.47-.47.47.21.47.47c-.01.26-.22.47-.47.47z"/><g fill="#E0F7FA"><path d="M428.21 189.76c-1.83 0-3.32-1.5-3.32-3.32 0-1.83 1.5-3.32 3.32-3.32 1.83 0 3.32 1.5 3.32 3.32 0 1.82-1.49 3.32-3.32 3.32zM434.32 174.5c-1.83 0-3.32-1.5-3.32-3.32 0-1.83 1.5-3.32 3.32-3.32 1.83 0 3.32 1.5 3.32 3.32 0 1.82-1.5 3.32-3.32 3.32zM433.15 196.43c-.9 0-1.64-.74-1.64-1.64 0-.9.74-1.64 1.64-1.64.9 0 1.64.74 1.64 1.64 0 .9-.73 1.64-1.64 1.64zM428.38 203.59c-.9 0-1.64-.74-1.64-1.64 0-.9.74-1.64 1.64-1.64.9 0 1.64.74 1.64 1.64 0 .9-.74 1.64-1.64 1.64zM433.84 180.4c-.9 0-1.64-.74-1.64-1.64 0-.9.74-1.64 1.64-1.64.9 0 1.64.74 1.64 1.64-.01.91-.74 1.64-1.64 1.64zM428.04 168.94c-.6 0-1.08-.49-1.08-1.08 0-.6.49-1.08 1.08-1.08.6 0 1.08.49 1.08 1.08 0 .59-.48 1.08-1.08 1.08zM433.84 205.76c-.6 0-1.08-.49-1.08-1.08 0-.6.49-1.08 1.08-1.08.6 0 1.08.49 1.08 1.08 0 .59-.49 1.08-1.08 1.08z"/></g><path fill="#E0F7FA" d="M469.15 236.57c-.27 0-.49-.22-.49-.49s.22-.49.49-.49.49.22.49.49c0 .26-.22.49-.49.49z"/><g fill="#E0F7FA"><path d="M466.24 197.27c-1.72 0-3.13-1.41-3.13-3.13s1.41-3.13 3.13-3.13 3.13 1.41 3.13 3.13c.01 1.72-1.4 3.13-3.13 3.13zM466.41 217.35c-.68 0-1.23-.55-1.23-1.23 0-.68.55-1.23 1.23-1.23.68 0 1.23.55 1.23 1.23 0 .68-.56 1.23-1.23 1.23z"/></g><path fill="#AA6A1D" d="M370.58 220.07h125.58v46.27H370.58z"/><g fill="#E0B75A"><path d="M276 116.77h87.79v6.71H276zM276 67.29h87.79V74H276z"/><path d="M275.98 67.26h5.68v198.13h-5.68zM319.36 67.26h5.68v198.13h-5.68z"/><path d="M276 258.79h87.79v6.71H276zM276 142.76h87.79v6.71H276z"/></g><path fill="#936C4D" d="M303.08 256.79h38.48v8.87h-38.48z"/><path fill="#DDAC8A" d="M337.17 223.07h-29.42c-2.21 0-4.01 1.8-4.01 4.01v19.3c0 .85.69 1.54 1.54 1.54h34.36c.85 0 1.54-.69 1.54-1.54v-19.3c0-2.22-1.8-4.01-4.01-4.01z"/><path fill="#CE9961" d="M349.87 234.7h-6.79c-1.43 0-2.59 1.16-2.59 2.59v30.07h11.96v-30.07c.01-1.44-1.15-2.59-2.58-2.59zM302 234.7h-6.79c-1.43 0-2.59 1.16-2.59 2.59v30.07h11.96v-30.07c.01-1.44-1.15-2.59-2.58-2.59z"/><ellipse cx="314.4" cy="229.92" fill="#936C4D" rx="1.78" ry=".91"/><ellipse cx="314.4" cy="239.7" fill="#936C4D" rx="1.78" ry=".91"/><ellipse cx="330.38" cy="229.92" fill="#936C4D" rx="1.78" ry=".91"/><ellipse cx="330.38" cy="239.7" fill="#936C4D" rx="1.78" ry=".91"/><path fill="#C69C7F" d="M340.21 247.92h-35.37c-.6 0-1.09.49-1.09 1.09v6.69c0 .6.49 1.09 1.09 1.09h35.37c.6 0 1.09-.49 1.09-1.09v-6.69c0-.6-.49-1.09-1.09-1.09z"/></g></svg>