<svg xmlns="http://www.w3.org/2000/svg" width="720" height="400" viewBox="0 0 720 400"><linearGradient id="a" x1="257.3989" x2="95.9848" y1="130.6668" y2="364.4437" gradientUnits="userSpaceOnUse" gradientTransform="matrix(1.0082 -.0025 -.0025 1 -9.01 1.898)"><stop offset="0" style="stop-color:#111111;stop-opacity:0.03"/><stop offset="1" style="stop-color:#111111;stop-opacity:0.1"/></linearGradient><path fill="url(#a)" d="M302.95 298.11L79.67 361.24 34.08 199.99l223.28-63.13"/><path fill="#FFF" d="M45.21305 199.21146l209.79102-59.32053L297.0925 288.7395 87.30147 348.06002z"/><path fill="#EEE" d="M61.99837 206.56652l185.82975-52.54523 34.89682 123.41497L96.8952 329.9815z"/><path fill="#FFF" d="M197.54 224.06c1.38-10.42-7.13-21.08-14.3-31.68-2.18-3.22-11.21-4.18-22.7-.96-11.49 3.22-18.73 8.72-18.91 12.61-.62 14.05-1.71 26.7 4.21 34.5 2.88 3.8 7.73 8.8 13.45 10.23 3.13.79 5.21.1 10.9 2.31 2.43.95 4.18 1.04 4.58 2.18 1.48 4.22 5.98 17.79 6.05 18.3.11.78.22 1.84.31 2.9.2 2.25-1.1 4.38-3.21 5.2-9.38 3.64-15.58 8.52-14.62 11.98 1.18 4.22 12.63 4.7 25.56 1.08s22.47-9.98 21.29-14.19c-.96-3.43-8.69-4.39-18.49-2.69-2.25.39-4.49-.74-5.5-2.79-.47-.94-.92-1.89-1.23-2.59-.21-.48-3.36-14.43-4.56-18.72-.29-1.03 1.22-2.08 2.92-4.25 3.35-4.27 5.94-5.93 7.48-7.36 4.95-4.55 6.22-11.95 6.77-16.06z"/><ellipse cx="162.43" cy="198.2" fill="#E3F2FD" transform="rotate(-15.635 162.423 198.198)" rx="19.48" ry="6.35"/><path fill="#64B5F6" d="M148.74 237.97c2.43 8.67 14.7 12.82 27.41 9.27 12.71-3.56 21.04-13.47 18.62-22.15l-46.03 12.88z"/><ellipse cx="171.69" cy="231.29" fill="#2196F3" transform="rotate(-15.635 171.68 231.284)" rx="23.92" ry="7.8"/><linearGradient id="b" x1="629.4009" x2="481.3593" y1="129.0444" y2="342.0113" gradientUnits="userSpaceOnUse" gradientTransform="matrix(1.0138 .002 .002 1.005 -17.125 -.338)"><stop offset="0" style="stop-color:#111111;stop-opacity:0.03"/><stop offset="1" style="stop-color:#111111;stop-opacity:0.1"/></linearGradient><path fill="url(#b)" d="M609.18 358.81L439 321.87l44.65-205.7 170.17 36.93"/><path fill="#FFF" d="M494.06836 119.89833l157.10444 34.0993-41.84733 192.80157-157.10444-34.0993z"/><path fill="#EEE" d="M503.35256 132.736l132.4497 28.74802-37.04752 170.68752-132.4497-28.74803z"/><circle cx="552.96" cy="241.93" r="52.43" fill="#111" opacity=".1"/><circle cx="551.15" cy="239.09" r="52.43" fill="#FFF"/><path fill="#81C784" d="M584.49 243.11s-1.25 10.03-12.44 15.32c-11.18 5.29-19.73-.11-19.73-.11s1.25-10.03 12.44-15.32c11.18-5.28 19.73.11 19.73.11z"/><path fill="#7CB342" d="M559.83 245.22s-.61 10.09-11.43 16.08c-10.82 5.99-19.7 1.16-19.7 1.16s.61-10.09 11.43-16.08 19.7-1.16 19.7-1.16z"/><path fill="#689F38" d="M543.59 276.13s-9.81 2.43-18.76-6.11c-8.95-8.54-6.98-18.46-6.98-18.46s9.81-2.43 18.76 6.11 6.98 18.46 6.98 18.46zM549.02 219.92s-2.13 9.88-13.74 14.16c-11.6 4.28-19.64-1.84-19.64-1.84s2.13-9.88 13.74-14.16c11.6-4.29 19.64 1.84 19.64 1.84z"/><path fill="#4CAF50" d="M569.56 233.27s10.05-1.04 17.73 8.66c7.67 9.7 4.35 19.25 4.35 19.25s-10.05 1.04-17.73-8.66c-7.68-9.71-4.35-19.25-4.35-19.25z"/><path fill="#A5D6A7" d="M533.16 250.86s-9.89 2.08-18.53-6.77-6.32-18.69-6.32-18.69 9.89-2.08 18.53 6.77 6.32 18.69 6.32 18.69zM593.51 225.98s1.43 10.01-7.97 18.05c-9.4 8.04-19.07 5.08-19.07 5.08s-1.43-10.01 7.97-18.05 19.07-5.08 19.07-5.08z"/><path fill="#81C784" d="M540.59 249.38s-4.42 9.09-16.71 10.49-18.64-6.46-18.64-6.46 4.42-9.09 16.71-10.49c12.29-1.4 18.64 6.46 18.64 6.46z"/><path fill="#7CB342" d="M555.68 220.47s-7.35 6.93-19.34 3.89c-11.99-3.05-15.14-12.65-15.14-12.65s7.35-6.93 19.34-3.89 15.14 12.65 15.14 12.65zM549.31 227.92s2.08 9.89-6.77 18.53-18.69 6.32-18.69 6.32-2.08-9.89 6.77-18.53 18.69-6.32 18.69-6.32z"/><path fill="#4CAF50" d="M552.9 247.18s-6.4 7.83-18.68 6.36c-12.28-1.47-16.65-10.58-16.65-10.58s6.4-7.83 18.68-6.36c12.28 1.46 16.65 10.58 16.65 10.58zM587.33 219.6s-3.49 9.49-15.58 12.11c-12.09 2.62-19.19-4.57-19.19-4.57s3.49-9.49 15.58-12.11c12.08-2.62 19.19 4.57 19.19 4.57z"/><path fill="#81C784" d="M557.23 262.38s-.61 10.09-11.43 16.08-19.7 1.16-19.7 1.16.61-10.09 11.43-16.08c10.82-6 19.7-1.16 19.7-1.16zM574.47 200.24s1.74 9.96-7.41 18.29c-9.14 8.33-18.9 5.68-18.9 5.68s-1.74-9.96 7.41-18.29c9.15-8.33 18.9-5.68 18.9-5.68zM576.32 231.83s-1.62 9.98-12.99 14.85-19.71-.83-19.71-.83 1.62-9.98 12.99-14.85c11.37-4.87 19.71.83 19.71.83z"/><path fill="#A5D6A7" d="M569.67 230.88s-5.48 8.49-17.85 8.4c-12.37-.09-17.73-8.66-17.73-8.66s5.48-8.49 17.85-8.4c12.37.09 17.73 8.66 17.73 8.66zM565.93 284.79s-10.07-.93-15.71-11.93c-5.65-11-.54-19.72-.54-19.72s10.07.93 15.71 11.93c5.65 11 .54 19.72.54 19.72zM562.52 220.58s-9.88 2.11-18.56-6.71c-8.67-8.82-6.39-18.67-6.39-18.67s9.88-2.11 18.56 6.71c8.67 8.83 6.39 18.67 6.39 18.67z"/><path fill="#4CAF50" d="M586.34 257.26s-1.25 10.03-12.44 15.32c-11.18 5.29-19.73-.11-19.73-.11s1.25-10.03 12.44-15.32c11.18-5.28 19.73.11 19.73.11z"/><circle cx="578.24" cy="257.35" r="5.3" fill="#9CCC65"/><circle cx="532.67" cy="256.95" r="5.3" fill="#9CCC65"/><circle cx="565" cy="234.98" r="5.3" fill="#9CCC65"/><circle cx="523.5" cy="220.65" r="5.3" fill="#F57C00"/><circle cx="557.04" cy="201.32" r="5.3" fill="#9CCC65"/><path fill="#FFF176" d="M539.55 209.81l-2.23-3.46c-.35-.55-.19-1.28.35-1.63l2.04-1.31c.55-.35 1.28-.19 1.63.35l2.23 3.46c.35.55.19 1.28-.35 1.63l-2.04 1.31c-.55.35-1.28.2-1.63-.35z"/><path fill="#DCEDC8" d="M522.12 243.97l-2.91 2.91c-.46.46-1.21.46-1.67 0l-1.72-1.72c-.46-.46-.46-1.21 0-1.67l2.91-2.91c.46-.46 1.21-.46 1.67 0l1.72 1.72c.46.46.46 1.21 0 1.67zM547.21 272.28h-4.11c-.65 0-1.18-.53-1.18-1.18v-2.43c0-.65.53-1.18 1.18-1.18h4.11c.65 0 1.18.53 1.18 1.18v2.43c0 .65-.53 1.18-1.18 1.18zM571.83 245.89l-3.56-2.06c-.56-.33-.76-1.05-.43-1.61l1.21-2.1c.33-.56 1.05-.76 1.61-.43l3.56 2.06c.56.33.76 1.05.43 1.61l-1.21 2.1c-.32.56-1.05.75-1.61.43zM574.93 268.84l-3.56-2.06c-.56-.33-.76-1.05-.43-1.61l1.21-2.1c.33-.56 1.05-.76 1.61-.43l3.56 2.06c.56.33.76 1.05.43 1.61l-1.21 2.1c-.32.57-1.04.76-1.61.43zM545.88 234.74l1.66 3.76c.26.6-.01 1.29-.6 1.55l-2.22.98c-.6.26-1.29-.01-1.55-.6l-1.66-3.76c-.26-.6.01-1.29.6-1.55l2.22-.98c.59-.27 1.28 0 1.55.6zM569.11 210.09l4.02.87c.64.14 1.04.77.9 1.4l-.52 2.37c-.14.64-.77 1.04-1.4.9l-4.02-.87c-.64-.14-1.04-.77-.9-1.4l.52-2.37c.14-.63.76-1.04 1.4-.9z"/><linearGradient id="c" x1="454.2511" x2="250.2677" y1="17.8382" y2="309.1566" gradientUnits="userSpaceOnUse"><stop offset="0" style="stop-color:#111111;stop-opacity:0.03"/><stop offset="1" style="stop-color:#111111;stop-opacity:0.1"/></linearGradient><path fill="url(#c)" d="M190.67 59.57h323.17v207.86H190.67z"/><path fill="#FFF" d="M202.92 62.22h308.19v192.13H202.92z"/><linearGradient id="d" x1="357.1476" x2="357.1476" y1="245.586" y2="73.5239" gradientUnits="userSpaceOnUse"><stop offset="0" style="stop-color:#EEEEEE"/><stop offset=".395" style="stop-color:#EAEDEE;stop-opacity:0.605"/><stop offset=".7773" style="stop-color:#DFEAED;stop-opacity:0.2227"/><stop offset="1" style="stop-color:#D4E8EC;stop-opacity:0"/></linearGradient><path fill="url(#d)" d="M215.28 73.52h283.73v172.06H215.28z"/><g><defs><path id="e" d="M458.1712 253.2149h-203.72v-65.65h203.72z"/></defs></g><ellipse cx="357.52" cy="184.04" fill="#111" opacity=".1" rx="95.81" ry="32.21"/><ellipse cx="357.52" cy="177.89" fill="#FFF" rx="95.81" ry="32.21"/><ellipse cx="357.52" cy="182.68" fill="#FFF" rx="53.25" ry="17.9"/><path fill="#B71C1C" d="M400.5 172.72c-2.1-2.49-11.16-2.6-14.42-2.52-6.12.16-17.13.35-22.73-.62-7.72-1.34-22.58-6.91-30.37-7.68-7.4-.73-23.28-2.24-29.71 1.49-3.47 2.02-9.17 6.24-10.8 12.63-.52 2.03-1.57 6.78-1.01 8.47 2.76 8.34 24.08 12.39 32.86 12.4 10.79.02 37.42-2.03 47.81-4.93 8.17-2.28 26.91-5.01 27.7-12.18.35-3.06 2.76-4.6.67-7.06z"/><path fill="#FFEBEE" d="M362.51 170.43c-7.37-1.28-21.55-6.6-28.99-7.33-7.07-.7-22.22-2.14-28.37 1.42-3.32 1.92-11.24 8.55-10 12.32 2.63 7.96 22.99 11.83 31.38 11.84 10.3.02 35.73-1.94 45.65-4.7 7.8-2.17 30.25-5.29 25.8-10.55-2.01-2.37-10.66-2.48-13.77-2.4-5.84.15-16.36.33-21.7-.6z"/><path fill="#EF9A9A" d="M358.95 172.13c-5.75-1-18.97-6.11-24.78-6.69-5.52-.55-15.42-2.67-20.21.12-2.59 1.5-8.56 8.64-7.59 11.58 2.06 6.21 17.43 7.44 23.51 7.41 12.79-.06 30.95-4.66 38.22-4.69 6.44-.02 19.14-3.1 17.82-5.19-1.3-2.05-7.89-1.29-10.61-1.34-4.55-.09-12.18-.47-16.36-1.2z"/><path fill="#B71C1C" d="M426.83 161.5c-1.96-2.6-11-3.22-14.26-3.32-6.12-.18-17.12-.61-22.66-1.89-7.63-1.77-22.16-8.16-29.89-9.36-7.35-1.15-23.12-3.54-29.75-.17-3.58 1.82-9.5 5.72-11.49 12-.63 2-1.94 6.69-1.48 8.4 2.29 8.48 23.35 13.71 32.12 14.22 10.77.62 37.48.06 48.01-2.25 8.28-1.82 27.14-3.5 28.34-10.62.52-3.03 3-4.44 1.06-7.01z"/><path fill="#FFEBEE" d="M389.02 157.1c-7.28-1.69-21.15-7.79-28.54-8.94-7.02-1.09-22.07-3.38-28.4-.16-3.42 1.74-11.7 7.91-10.67 11.74 2.18 8.09 22.3 13.09 30.67 13.57 10.28.59 35.78.06 45.84-2.15 7.91-1.74 30.5-3.59 26.35-9.09-1.87-2.48-10.5-3.08-13.61-3.17-5.84-.17-16.35-.58-21.64-1.8z"/><path fill="#EF9A9A" d="M385.38 158.6c-5.69-1.32-18.6-7.16-24.37-8.06-5.48-.85-15.24-3.52-20.19-1.01-2.67 1.36-9.03 8.15-8.22 11.14 1.71 6.32 16.99 8.4 23.06 8.71 12.77.65 31.16-2.93 38.43-2.55 6.43.34 19.28-2.03 18.08-4.19-1.18-2.12-7.8-1.73-10.52-1.93-4.54-.35-12.14-1.16-16.27-2.11z"/><linearGradient id="f" x1="357.0232" x2="357.0232" y1="10.7255" y2="137.6252" gradientUnits="userSpaceOnUse"><stop offset="0" style="stop-color:#FFFFFF"/><stop offset=".4892" style="stop-color:#FDFEFE;stop-opacity:0.5108"/><stop offset=".697" style="stop-color:#F6FAFB;stop-opacity:0.303"/><stop offset=".8509" style="stop-color:#E9F3F5;stop-opacity:0.1491"/><stop offset=".9783" style="stop-color:#D8EAEE;stop-opacity:0.0217"/><stop offset="1" style="stop-color:#D4E8EC;stop-opacity:0"/></linearGradient><path fill="url(#f)" d="M221.28 190.33h271.48l-24.85-116.7H246.88"/></svg>
