<?xml version="1.0" encoding="UTF-8" standalone="no"?>
<svg width="89px" height="118px" viewBox="0 0 89 118" version="1.1" xmlns="http://www.w3.org/2000/svg" xmlns:xlink="http://www.w3.org/1999/xlink">
    <!-- Generator: Sketch 3.8.3 (29802) - http://www.bohemiancoding.com/sketch -->
    <title>Traffic_LeftHandB_NoGradient</title>
    <desc>Created with Sketch.</desc>
    <defs></defs>
    <g id="Page-1" stroke="none" stroke-width="1" fill="none" fill-rule="evenodd">
        <g id="Traffic_LeftHandB_NoGradient">
            <g id="hand">
                <g id="Group-7-Copy" transform="translate(5.221544, 0.000000)">
                    <path d="M66.4874296,93.988707 C62.7812154,85.5057773 61.3541146,74.5440643 58.6850633,63.4873143 C56.9509815,56.3028321 53.2375538,54.2878918 48.7394409,48.4714727 C46.1485376,45.1213216 45.2837008,43.4051807 45.0300207,42.819706 L45.0300207,10.9322597 C45.0300207,7.47846748 42.1605903,4.67859223 38.6214924,4.67859223 L6.40852834,4.67859223 C2.86943049,4.67859223 -6.96331881e-13,7.47846748 -6.96331881e-13,10.9322597 L-6.96331881e-13,81.7086005 C-6.96331881e-13,85.1627838 2.86943049,87.962659 6.40852834,87.962659 L36.3095169,87.962659 C37.8464256,89.3835204 40.7290811,92.601089 43.003786,94.361424 C45.376276,96.1972411 43.6942928,93.1001309 52.3402556,117.368584 L79.7168667,117.3635 C75.1678576,109.806692 68.1301385,96.5273284 66.4874296,93.988707" id="Fill-1" fill="#000000" opacity="0.1" transform="translate(39.858433, 61.023588) scale(-1, 1) translate(-39.858433, -61.023588) "></path>
                    <path d="M71.8836579,0.149634344 L35.5472901,0.149634344 C33.2918216,0.149634344 31.4571494,1.94008397 31.4571494,4.14118718 L31.4571494,79.4120337 C31.4571494,81.6127458 33.2918216,83.4031954 35.5472901,83.4031954 L71.8836579,83.4031954 C74.1391264,83.4031954 75.9737986,81.6127458 75.9737986,79.4120337 L75.9737986,4.14118718 C75.9737986,1.94008397 74.1391264,0.149634344 71.8836579,0.149634344 M71.8836579,0.428878781 C73.9844336,0.428878781 75.687657,2.09104805 75.687657,4.14118718 L75.687657,79.4120337 C75.687657,81.4621728 73.9844336,83.123951 71.8836579,83.123951 L35.5472901,83.123951 C33.4465143,83.123951 31.7432909,81.4621728 31.7432909,79.4120337 L31.7432909,4.14118718 C31.7432909,2.09104805 33.4465143,0.428878781 35.5472901,0.428878781 L71.8836579,0.428878781" id="Fill-3" fill="#757575"></path>
                    <path d="M71.8836579,83.1239901 L35.5472901,83.1239901 C33.4465143,83.1239901 31.7432909,81.4618208 31.7432909,79.4116817 L31.7432909,4.14122629 C31.7432909,2.09108716 33.4465143,0.428917891 35.5472901,0.428917891 L71.8836579,0.428917891 C73.9844336,0.428917891 75.687657,2.09108716 75.687657,4.14122629 L75.687657,79.4116817 C75.687657,81.4618208 73.9844336,83.1239901 71.8836579,83.1239901" id="Fill-5" fill="#424242"></path>
                </g>
                <rect id="Screen" fill="#51CAFF" x="39.6199989" y="9.84000015" width="38.8699989" height="65.3099976"></rect>
                <g id="lock-screen" transform="translate(44.000000, 5.000000)">
                    <polygon id="4rth-text-box" fill="#FFFFFF" opacity="0.5" points="0.0264389541 52.7802641 29.2669776 52.7802641 29.2669776 46.6799073 0.0264389541 46.6799073"></polygon>
                    <polygon id="3rd-text-box" fill="#FFFFFF" opacity="0.5" points="0.0264389541 43.6140192 29.2669776 43.6140192 29.2669776 37.5136625 0.0264389541 37.5136625"></polygon>
                    <polygon id="2nd-text-box" fill="#FFFFFF" opacity="0.7" points="0.316588071 34.4477744 29.5571267 34.4477744 29.5571267 28.3474176 0.316588071 28.3474176"></polygon>
                    <path d="M23.6582429,23.2675546 L5.62812031,23.2675546 C5.07146683,23.2675546 4.62061358,22.8271775 4.62061358,22.2843326 C4.62061358,21.7410965 5.07146683,21.3011106 5.62812031,21.3011106 L23.6582429,21.3011106 C24.2148964,21.3011106 24.6657496,21.7410965 24.6657496,22.2843326 C24.6657496,22.8271775 24.2148964,23.2675546 23.6582429,23.2675546" id="Top-text-box" fill="#FFFFFF" opacity="0.3"></path>
                    <text id="8:47-copy" opacity="0.8" font-family="Roboto-Regular, Roboto" font-size="10.0323564" font-weight="normal" fill="#FFFFFF">
                        <tspan x="4.83554033" y="16.9062555">8:47</tspan>
                    </text>
                    <path d="M18.7895487,1.18248749 L11.9822657,1.18248749 C11.7979169,1.18248749 11.6484339,1.03660769 11.6484339,0.856702309 L11.6484339,0.410067649 C11.6484339,0.230162269 11.7979169,0.0842824717 11.9822657,0.0842824717 L18.7895487,0.0842824717 C18.9738976,0.0842824717 19.1233805,0.230162269 19.1233805,0.410067649 L19.1233805,0.856702309 C19.1233805,1.03660769 18.9738976,1.18248749 18.7895487,1.18248749" id="mic" fill="#757575"></path>
                </g>
                <g transform="translate(0.021679, 37.545471)">
                    <path d="M49.491291,51.4103089 C45.7850769,42.9273791 44.3579761,31.9656661 41.6889248,20.9089161 C39.954843,13.724825 36.2414152,11.7094936 31.7433024,5.89307448 C28.4418543,1.6242327 27.9381009,0 27.9381009,0 L27.9381009,14.882477 C27.9381009,14.882477 28.0314777,16.4331831 26.8913199,22.7064055 C26.3282543,25.8039068 25.5948663,28.5662366 22.9582765,29.1661819 C17.2711133,30.3668548 10.1432236,18.6683119 6.66744555,16.6357722 C4.71855722,15.3881675 2.32843383,15.2755311 0.969461935,16.6263859 C-0.389910721,17.9768495 -0.167890541,19.3519524 0.704560601,21.6727318 C1.57701174,23.9935112 6.54040512,29.3394387 10.3019239,35.7421147 C13.8129687,42.1647367 16.0451932,45.6459058 24.9628702,52.5468415 C27.3353602,54.3830497 27.8062514,53.7846688 36.4526149,78.0531223 L64.6467733,78.0582066 C60.0977641,70.5013984 51.1339999,53.9489302 49.491291,51.4103089" id="Fill-18" fill="#D38855" transform="translate(32.323387, 39.029103) scale(-1, 1) translate(-32.323387, -39.029103) "></path>
                    <path d="M57.6795182,18.2197598 C55.72542,19.5494952 57.2971947,21.4737006 58.8753814,23.5042848 L62.9450835,20.4771812 C60.9473026,17.9084453 59.9357883,16.6843065 57.6795182,18.2197598" id="Fill-20" fill="#FED0BF" transform="translate(59.857717, 20.524503) scale(-1, 1) translate(-59.857717, -20.524503) "></path>
                </g>
                <polygon id="Gradient" fill-opacity="0.5" fill="#FFFFFF" points="68.1397193 24.7999992 62.8174989 47.6081364 49.2162689 34.7420077"></polygon>
                <g id="Traffic-Icon" transform="translate(58.912584, 23.950076)">
                    <ellipse id="Shadow" fill-opacity="0.12" fill="#000000" cx="15" cy="14.9846864" rx="14" ry="13.9846864"></ellipse>
                    <ellipse id="WhiteCircle" fill="#FFFFFF" cx="14" cy="13.9846864" rx="14" ry="13.9846864"></ellipse>
                    <ellipse id="Red-Circle" fill="#E84349" cx="14.1086481" cy="14.097985" rx="12.1112326" ry="12.097985"></ellipse>
                    <path d="M20.8001198,7.58026186 C20.6991929,7.26192429 20.4165974,7.03531111 20.0835385,7.03531111 L14.5325569,7.03531111 C14.199498,7.03531111 13.921949,7.26192429 13.8159757,7.58026186 L12.7663355,10.8121975 L12.7663355,15.128639 C12.7663355,15.4253944 12.9934211,15.6681942 13.2709702,15.6681942 L13.7756049,15.6681942 C14.053154,15.6681942 14.2802396,15.4253944 14.2802396,15.128639 L14.2802396,14.5890838 L20.3358559,14.5890838 L20.3358559,15.128639 C20.3358559,15.4253944 20.5629415,15.6681942 20.8404906,15.6681942 L21.3451253,15.6681942 C21.6226743,15.6681942 21.8497599,15.4253944 21.8497599,15.128639 L21.8497599,10.8121975 L20.8001198,7.58026186 L20.8001198,7.58026186 Z M14.5325569,12.9704182 C14.1137101,12.9704182 13.7756049,12.6089163 13.7756049,12.1610854 C13.7756049,11.7132546 14.1137101,11.3517527 14.5325569,11.3517527 C14.9514037,11.3517527 15.289509,11.7132546 15.289509,12.1610854 C15.289509,12.6089163 14.9514037,12.9704182 14.5325569,12.9704182 L14.5325569,12.9704182 Z M20.0835385,12.9704182 C19.6646917,12.9704182 19.3265865,12.6089163 19.3265865,12.1610854 C19.3265865,11.7132546 19.6646917,11.3517527 20.0835385,11.3517527 C20.5023853,11.3517527 20.8404906,11.7132546 20.8404906,12.1610854 C20.8404906,12.6089163 20.5023853,12.9704182 20.0835385,12.9704182 L20.0835385,12.9704182 Z M13.7756049,10.2726423 L14.5325569,7.8446439 L20.0835385,7.8446439 L20.8404906,10.2726423 L13.7756049,10.2726423 L13.7756049,10.2726423 Z" id="The-Car-behind" fill="#FFFFFF"></path>
                    <path d="M16.0251542,10.7233295 C15.9017991,10.3488148 15.5564046,10.082211 15.1493327,10.082211 L8.3647996,10.082211 C7.95772761,10.082211 7.61850096,10.3488148 7.48897806,10.7233295 L6.20608453,14.5256067 L6.20608453,19.6037733 C6.20608453,19.9528972 6.48363361,20.2385441 6.82286027,20.2385441 L7.439636,20.2385441 C7.77886265,20.2385441 8.05641173,19.9528972 8.05641173,19.6037733 L8.05641173,18.9690024 L15.4577205,18.9690024 L15.4577205,19.6037733 C15.4577205,19.9528972 15.7352696,20.2385441 16.0744963,20.2385441 L16.691272,20.2385441 C17.0304987,20.2385441 17.3080477,19.9528972 17.3080477,19.6037733 L17.3080477,14.5256067 L16.0251542,10.7233295 L16.0251542,10.7233295 Z" id="Car-body" fill="#FFFFFF"></path>
                    <polygon id="Windshield" fill="#E84349" points="7.439636 13.8908359 8.3647996 11.0343672 15.1493327 11.0343672 16.0744963 13.8908359"></polygon>
                    <path d="M15.1493327,17.06469 C14.6374088,17.06469 14.2241691,16.6393936 14.2241691,16.1125338 C14.2241691,15.585674 14.6374088,15.1603776 15.1493327,15.1603776 C15.6612565,15.1603776 16.0744963,15.585674 16.0744963,16.1125338 C16.0744963,16.6393936 15.6612565,17.06469 15.1493327,17.06469 L15.1493327,17.06469 Z" id="Left-headlamp" fill="#E84349"></path>
                    <path d="M8.3647996,17.06469 C7.85287574,17.06469 7.439636,16.6393936 7.439636,16.1125338 C7.439636,15.585674 7.85287574,15.1603776 8.3647996,15.1603776 C8.87672346,15.1603776 9.2899632,15.585674 9.2899632,16.1125338 C9.2899632,16.6393936 8.87672346,17.06469 8.3647996,17.06469 L8.3647996,17.06469 Z" id="Right-headlamp" fill="#E84349"></path>
                </g>
            </g>
        </g>
    </g>
</svg>