<svg version="1" xmlns="http://www.w3.org/2000/svg" width="500" height="500" viewBox="0 0 500 500"><g fill="#fff"><path d="M237.13 88.17c22.87-1.6 40.27-21.63 38.67-44.5s-21.63-40.27-44.5-38.67-40.27 21.63-38.67 44.5 21.63 40.27 44.5 38.67"/><path d="M115.02 135.77l54.85-1.92 4.27 121.88-54.85 1.92-4.27-121.88zM322.61 132.04l19.86-9.26 106.26 308.34-19.86 9.27-106.26-308.35zM228.18 96.67c23.73-.83 43.64 17.74 44.47 41.47l3.91 111.88c.83 23.73-17.74 43.64-41.47 44.47-23.73.83-43.64-17.74-44.47-41.47l-3.91-111.88c-.83-23.73 17.74-43.64 41.47-44.47zM237.66 106.72c9.65-4.3 20.96.04 25.26 9.7l31.14 69.95c4.3 9.65-.04 20.96-9.7 25.26-9.65 4.3-20.96-.04-25.26-9.7l-31.14-69.95c-4.29-9.65.05-20.96 9.7-25.26zM215.95 247.25c13.46-.71 24.95 9.64 25.65 23.1l5.36 102.27c.71 13.46-9.64 24.95-23.1 25.65-13.46.71-24.95-9.64-25.65-23.1l-5.36-102.27c-.7-13.46 9.64-24.94 23.1-25.65zM237.34 242.72c11.18-7.54 26.35-4.59 33.88 6.59l54 80.06c7.54 11.18 4.59 26.35-6.59 33.88-11.18 7.54-26.35 4.59-33.88-6.59l-54-80.06c-7.53-11.17-4.59-26.34 6.59-33.88zM185.14 476.78l12.28-108.02c1.52-13.4 13.62-23.03 27.02-21.5 13.4 1.52 23.03 13.61 21.5 27.02l-12.28 108.02-48.52-5.52zM247.92 424.93l31.73-82.77c4.83-12.59 18.94-18.88 31.53-14.05 12.59 4.83 18.89 18.94 14.06 31.53l-31.73 82.77-45.59-17.48zM254.93 196.47c0-10.57 8.56-19.13 19.13-19.13h72.36c10.57 0 19.13 8.56 19.13 19.13 0 10.57-8.56 19.13-19.13 19.13h-72.36c-10.57 0-19.13-8.56-19.13-19.13z"/></g></svg>