<svg version="1" xmlns="http://www.w3.org/2000/svg" width="500" height="500" viewBox="0 0 500 500"><g fill="#fff"><path d="M244.14 87.45c22.89-1.01 40.8-20.57 39.79-43.46-1.01-22.89-20.57-40.8-43.46-39.79-22.89 1.01-40.8 20.57-39.79 43.46 1.01 22.89 20.56 40.79 43.46 39.79"/><path d="M122.38 130.59l54.91-.49 1.1 122-54.91.49-1.1-122zM301.77 134.17l19.86-9.26 106.26 308.34-19.86 9.27-106.26-308.35zM235.73 94.35c23.75-.21 43.16 18.87 43.37 42.62l1.06 120.94c.21 23.75-18.87 43.16-42.62 43.37-23.75.21-43.16-18.87-43.37-42.62l-1.06-120.94c-.2-23.74 18.88-43.16 42.62-43.37zM237.6 114.54c10.27-2.47 20.6 3.86 23.07 14.14l17.87 74.45c2.47 10.27-3.86 20.6-14.14 23.07-10.27 2.47-20.6-3.86-23.07-14.14l-17.87-74.45c-2.46-10.28 3.86-20.61 14.14-23.07zM247.78 244.26c13.45-.82 25.03 9.42 25.85 22.87l6.25 102.22c.82 13.46-9.42 25.03-22.87 25.85-13.45.82-25.03-9.42-25.85-22.87l-6.25-102.22c-.82-13.45 9.42-25.02 22.87-25.85zM208.85 243.25c11.24-7.44 26.38-4.36 33.82 6.88l53.3 80.52c7.44 11.24 4.36 26.38-6.88 33.82-11.24 7.44-26.38 4.36-33.82-6.88l-53.3-80.52c-7.44-11.23-4.36-26.38 6.88-33.82zM214.44 476.67l16.95-107.37c2.1-13.32 14.6-22.41 27.92-20.31 13.32 2.1 22.41 14.6 20.31 27.92l-16.95 107.37-48.23-7.61zM210.88 419.66l42.27-77.89c6.43-11.85 21.24-16.24 33.09-9.81 11.85 6.43 16.24 21.25 9.82 33.09l-42.27 77.89-42.91-23.28zM234.07 199.94c-.09-10.56 8.4-19.2 18.96-19.3l72.35-.63c10.56-.09 19.2 8.4 19.3 18.96.09 10.56-8.4 19.2-18.96 19.3l-72.35.63c-10.57.1-19.21-8.39-19.3-18.96z"/></g></svg>