<svg version="1" xmlns="http://www.w3.org/2000/svg" width="500" height="500" viewBox="0 0 500 500"><g fill="#fff"><path d="M231.13 98.17c22.87-1.6 40.27-21.63 38.67-44.5s-21.63-40.27-44.5-38.67-40.27 21.63-38.67 44.5 21.63 40.27 44.5 38.67"/><path d="M109.02 142.77l54.85-1.92 4.27 121.88-54.85 1.92-4.27-121.88zM355.07 140.75l20.95-6.41 62.26 320.08-20.95 6.41-62.26-320.08zM222.06 103.67c23.73-.83 43.64 17.74 44.47 41.47l3.85 110.31c.83 23.73-17.74 43.64-41.47 44.47-23.73.83-43.64-17.74-44.47-41.47l-3.85-110.31c-.83-23.73 17.74-43.64 41.47-44.47zM225.35 113.84c7.97-6.93 20.06-6.09 26.99 1.89l50.23 57.78c6.93 7.97 6.09 20.06-1.89 26.99-7.97 6.93-20.06 6.09-26.99-1.89l-50.23-57.78c-6.93-7.98-6.08-20.06 1.89-26.99zM211.12 248.71c13.38 1.64 22.89 13.82 21.25 27.2l-12.48 101.65c-1.64 13.38-13.82 22.89-27.2 21.25-13.38-1.64-22.89-13.82-21.25-27.2l12.48-101.65c1.64-13.37 13.82-22.89 27.2-21.25zM231.26 248.3c10.33-8.66 25.72-7.32 34.39 3.01l62.07 73.97c8.66 10.33 7.32 25.72-3.01 34.39-10.33 8.66-25.72 7.32-34.39-3.01l-62.07-73.97c-8.66-10.33-7.31-25.72 3.01-34.39zM141.63 475.02l29.01-104.76c3.6-12.99 17.05-20.61 30.05-17.01 12.99 3.6 20.61 17.04 17.01 30.05l-29.01 104.76-47.06-13.04zM304.25 445l-17.88-91.93c-2.57-13.23 6.07-26.05 19.31-28.62 13.24-2.58 26.05 6.06 28.63 19.3l17.88 91.93-47.94 9.32zM276.77 191.87c1.83-10.4 11.76-17.35 22.16-15.52l71.26 12.56c10.4 1.83 17.35 11.76 15.52 22.16-1.83 10.4-11.76 17.35-22.16 15.52l-71.26-12.56c-10.41-1.84-17.35-11.76-15.52-22.16z"/></g></svg>