<svg version="1" xmlns="http://www.w3.org/2000/svg" width="500" height="500" viewBox="0 0 500 500"><g fill="#fff"><path d="M253.13 94.06c22.92.21 41.83-18.38 42.04-41.29.21-22.92-18.38-41.83-41.29-42.04-22.92-.21-41.83 18.38-42.04 41.29-.21 22.91 18.37 41.83 41.29 42.04"/><path d="M128.37 129.73l54.85 2.42-5.37 121.88-54.85-2.42 5.37-121.88zM287.88 139.58l20.38-8.02 87.03 314.21-20.38 8.02-87.03-314.21zM243.42 99.49c23.72 1.04 42.12 21.11 41.08 44.83l-4.93 112.92c-1.04 23.72-21.11 42.12-44.83 41.08-23.72-1.04-42.12-21.11-41.08-44.83l4.93-112.92c1.04-23.72 21.11-42.11 44.83-41.08zM244.23 119.75c10.39-1.93 20.37 4.94 22.3 15.32l13.95 75.28c1.93 10.39-4.94 20.37-15.32 22.3-10.39 1.93-20.37-4.94-22.3-15.32l-13.95-75.28c-1.93-10.39 4.93-20.38 15.32-22.3zM249.01 249.89c13.21-2.69 26.1 5.84 28.78 19.05l17.62 86.59c2.69 13.21-5.84 26.1-19.05 28.78-13.21 2.69-26.1-5.84-28.78-19.05l-17.62-86.59c-2.69-13.21 5.84-26.1 19.05-28.78zM209.83 249.44c12.78-4.28 26.61 2.62 30.89 15.4l27.57 82.38c4.28 12.78-2.62 26.61-15.4 30.89-12.78 4.28-26.61-2.62-30.89-15.4l-27.57-82.38c-4.28-12.78 2.61-26.61 15.4-30.89zM243.67 478.27l6.63-108.45c.82-13.45 12.39-23.69 25.85-22.87 13.45.82 23.69 12.39 22.87 25.85l-6.63 108.45-48.72-2.98zM174.57 426.7l50.43-82.4c7.04-11.5 22.07-15.12 33.57-8.09 11.5 7.04 15.12 22.06 8.07 33.57l-50.43 82.4-41.64-25.48zM216.25 205.12c.09-10.56 8.73-19.05 19.3-18.96l72.35.63c10.56.09 19.05 8.73 18.96 19.3-.09 10.56-8.73 19.05-19.3 18.96l-72.35-.63c-10.56-.09-19.05-8.73-18.96-19.3z"/></g></svg>