<svg version="1" xmlns="http://www.w3.org/2000/svg" width="500" height="500" viewBox="0 0 500 500"><g fill="#fff"><path d="M249 90.19c22.92-.21 41.5-19.12 41.29-42.04s-19.12-41.5-42.04-41.29c-22.92.21-41.5 19.12-41.29 42.04.21 22.92 19.13 41.5 42.04 41.29"/><path d="M125.82 129.03l54.91 1.43-3.17 122-54.91-1.43 3.17-122zM294.79 136.13l20.09-8.74 98.11 310.95-20.09 8.74-98.11-310.95zM240.37 96.8c23.74.62 42.48 20.37 41.86 44.11l-3.17 120.9c-.62 23.74-20.37 42.48-44.11 41.86-23.74-.62-42.48-20.37-41.86-44.11l3.17-120.9c.62-23.75 20.37-42.49 44.11-41.86zM241.53 117.03c10.35-2.11 20.45 4.58 22.56 14.93l15.26 75.03c2.11 10.35-4.58 20.45-14.93 22.56-10.35 2.11-20.45-4.58-22.56-14.93l-15.26-75.03c-2.11-10.35 4.57-20.45 14.93-22.56zM251.66 245.88c13.39-1.53 25.49 8.09 27.01 21.49l11.59 101.75c1.53 13.39-8.09 25.49-21.49 27.01-13.39 1.53-25.49-8.09-27.01-21.49l-11.59-101.74c-1.52-13.4 8.1-25.49 21.49-27.02zM208.72 248.08c11.96-6.22 26.7-1.58 32.92 10.38l40.11 77.06c6.22 11.96 1.58 26.7-10.38 32.92-11.96 6.22-26.7 1.58-32.92-10.38l-40.11-77.06c-6.23-11.95-1.58-26.69 10.38-32.92zM228.6 476.85l14.24-107.69c1.77-13.36 14.02-22.76 27.39-20.99 13.36 1.77 22.76 14.02 20.99 27.39l-14.24 107.69-48.38-6.4zM192.18 422.14l49.07-83.27c6.85-11.62 21.82-15.5 33.44-8.65 11.62 6.85 15.49 21.82 8.64 33.45l-49.07 83.27-42.08-24.8zM226.04 202.88c-.09-10.56 8.4-19.2 18.96-19.3l72.35-.63c10.56-.09 19.2 8.4 19.3 18.96.09 10.56-8.4 19.2-18.96 19.3l-72.35.63c-10.56.1-19.2-8.39-19.3-18.96z"/></g></svg>