<svg xmlns="http://www.w3.org/2000/svg" width="500" height="500" viewBox="0 0 500 500"><g fill="#fff"><path d="M234.13 91.17c22.87-1.6 40.27-21.63 38.67-44.5s-21.63-40.27-44.5-38.67-40.27 21.63-38.67 44.5 21.63 40.27 44.5 38.67"/><path d="M113.02 137.77l54.85-1.92 4.27 121.88-54.85 1.92-4.27-121.88zM334 132.05l20.15-8.55 95.18 311.6-20.15 8.55-95.18-311.6zM225.99 98.67c23.73-.83 43.64 17.74 44.47 41.47l3.89 111.36c.83 23.73-17.74 43.64-41.47 44.47-23.73.83-43.64-17.74-44.47-41.47l-3.89-111.36c-.83-23.73 17.74-43.64 41.47-44.47zM233.45 108.96c9.06-5.44 20.81-2.51 26.25 6.54l39.43 65.63c5.44 9.06 2.51 20.81-6.54 26.25-9.06 5.44-20.81 2.51-26.25-6.54l-39.43-65.63c-5.45-9.06-2.52-20.81 6.54-26.25zM213.91 249.15c13.48 0 24.41 10.93 24.41 24.41v102.41c0 13.48-10.93 24.41-24.41 24.41s-24.41-10.93-24.41-24.41v-102.41c0-13.48 10.93-24.41 24.41-24.41zM236.26 242.18c10.91-7.92 26.17-5.51 34.09 5.4l56.76 78.12c7.92 10.91 5.51 26.17-5.4 34.09-10.91 7.92-26.17 5.51-34.09-5.4l-56.76-78.12c-7.92-10.91-5.5-26.17 5.4-34.09zM170.88 476.98l17.93-107.15c2.22-13.29 14.8-22.27 28.09-20.04 13.29 2.22 22.26 14.79 20.04 28.09l-17.93 107.15-48.13-8.05zM266.18 429.72l16.93-87.02c2.57-13.23 15.39-21.88 28.63-19.3 13.24 2.58 21.88 15.39 19.31 28.62l-16.93 87.02-47.94-9.32zM263.96 193.54c.37-10.56 9.23-18.82 19.79-18.45l72.31 2.53c10.56.37 18.82 9.23 18.45 19.79-.37 10.56-9.23 18.82-19.79 18.45l-72.31-2.53c-10.55-.37-18.82-9.23-18.45-19.79z"/></g></svg>