<svg version="1" xmlns="http://www.w3.org/2000/svg" width="500" height="500" viewBox="0 0 500 500"><g fill="#fff"><path d="M241.13 87.17c22.87-1.6 40.27-21.63 38.67-44.5s-21.63-40.27-44.5-38.67-40.27 21.63-38.67 44.5 21.63 40.27 44.5 38.67"/><path d="M118.02 133.77l54.85-1.92 4.27 121.88-54.85 1.92-4.27-121.88zM311.35 131.62l19.77-9.43 108.87 307.37-19.77 9.43-108.87-307.37zM231.02 94.67c23.73-.83 43.64 17.74 44.47 41.47l4.22 120.87c.83 23.73-17.74 43.64-41.47 44.47-23.73.83-43.64-17.74-44.47-41.47l-4.22-120.87c-.82-23.73 17.74-43.64 41.47-44.47zM243.16 105.71c10.21-2.73 20.69 3.32 23.43 13.53l19.82 73.96c2.73 10.21-3.32 20.69-13.53 23.43-10.21 2.73-20.69-3.32-23.43-13.53l-19.82-73.96c-2.74-10.2 3.32-20.69 13.53-23.43zM226.63 245.33c13.45-.94 25.11 9.2 26.05 22.65l7.14 102.16c.94 13.45-9.2 25.11-22.65 26.05-13.45.94-25.11-9.2-26.05-22.65l-7.14-102.16c-.93-13.44 9.2-25.11 22.65-26.05zM230.47 242.34c11.43-7.14 26.49-3.67 33.63 7.77l51.17 81.89c7.14 11.43 3.67 26.49-7.76 33.63-11.43 7.14-26.49 3.67-33.63-7.77l-51.17-81.89c-7.15-11.43-3.67-26.49 7.76-33.63zM200.14 477.78l12.28-108.02c1.52-13.4 13.62-23.03 27.02-21.5 13.4 1.52 23.03 13.61 21.5 27.02l-12.28 108.02-48.52-5.52zM229.54 420.16l40.23-78.96c6.12-12.01 20.81-16.78 32.83-10.66 12.01 6.12 16.79 20.82 10.67 32.82l-40.23 78.96-43.5-22.16zM243.93 198.47c0-10.57 8.56-19.13 19.13-19.13h72.36c10.57 0 19.13 8.56 19.13 19.13 0 10.57-8.56 19.13-19.13 19.13h-72.36c-10.57 0-19.13-8.56-19.13-19.13z"/></g></svg>