<svg xmlns="http://www.w3.org/2000/svg" width="112" height="94" viewBox="0 0 112 94"><linearGradient id="a" x1="-9.7822" x2="18.6215" y1="73.877" y2="73.877" gradientUnits="userSpaceOnUse"><stop offset="0" style="stop-color:#FFFFFF;stop-opacity:0"/><stop offset=".1404" style="stop-color:#FBFBFB;stop-opacity:0.0702"/><stop offset=".2776" style="stop-color:#EFF0F0;stop-opacity:0.1388"/><stop offset=".4137" style="stop-color:#DCDCDD;stop-opacity:0.2068"/><stop offset=".549" style="stop-color:#C0C1C3;stop-opacity:0.2745"/><stop offset=".6838" style="stop-color:#9C9EA1;stop-opacity:0.3419"/><stop offset=".8184" style="stop-color:#717377;stop-opacity:0.4092"/><stop offset=".9502" style="stop-color:#3E4247;stop-opacity:0.4751"/><stop offset="1" style="stop-color:#292D33;stop-opacity:0.5"/></linearGradient><path fill="url(#a)" d="M-9.78 73.17h28.4v1.42h-28.4z"/><linearGradient id="b" x1="31.5546" x2="57.9767" y1="77.895" y2="51.4729" gradientUnits="userSpaceOnUse"><stop offset="0" style="stop-color:#DFE1E5"/><stop offset=".0358" style="stop-color:#DFE1E5;stop-opacity:0.9821"/><stop offset="1" style="stop-color:#DFE1E5;stop-opacity:0.5"/></linearGradient><path fill="url(#b)" d="M28.25 54.78h33.04v19.81H28.25z"/><linearGradient id="c" x1="34.2737" x2="47.4534" y1="58.2604" y2="35.4325" gradientUnits="userSpaceOnUse"><stop offset="0" style="stop-color:#DFE1E5"/><stop offset=".3014" style="stop-color:#F0F1F3"/><stop offset=".6384" style="stop-color:#FBFCFC"/><stop offset="1" style="stop-color:#FFFFFF"/></linearGradient><path fill="url(#c)" d="M53.48 38.91H20.44l7.81 15.87h33.03"/><linearGradient id="d" x1="10.1689" x2="31.4424" y1="71.1856" y2="49.912" gradientUnits="userSpaceOnUse"><stop offset="0" style="stop-color:#959CA5"/><stop offset=".0926" style="stop-color:#A3A9B1"/><stop offset=".3082" style="stop-color:#BDC1C8"/><stop offset=".5292" style="stop-color:#D0D3D8"/><stop offset=".7565" style="stop-color:#DBDEE2"/><stop offset="1" style="stop-color:#DFE1E5"/></linearGradient><path fill="url(#d)" d="M13.57 74.59h14.68V54.78L20.7 39.17l-7.13 15.61"/><linearGradient id="e" x1="41.6032" x2="47.9282" y1="72.852" y2="66.527" gradientUnits="userSpaceOnUse"><stop offset="0" style="stop-color:#2C66BF"/><stop offset="1" style="stop-color:#6199F6"/></linearGradient><path fill="url(#e)" d="M43.34 64.79h2.85v9.8h-2.85z"/><linearGradient id="f" x1="48.5618" x2="48.5618" y1="54" y2="33.9035" gradientUnits="userSpaceOnUse"><stop offset="0" style="stop-color:#FFFFFF;stop-opacity:0"/><stop offset="1" style="stop-color:#E09108"/></linearGradient><path fill="url(#f)" d="M46.89 33.9l3.34.13-1.2 19.7c-.03.36-.55.36-.59.01L46.89 33.9z"/><ellipse cx="48.56" cy="24.17" fill="#FFF" rx="10.01" ry="9.77"/><path fill="#FABB05" d="M48.56 35.34c-6.29 0-11.41-5.01-11.41-11.17S42.27 13 48.56 13s11.41 5.01 11.41 11.17-5.12 11.17-11.41 11.17zm0-19.55c-4.75 0-8.62 3.76-8.62 8.38s3.87 8.38 8.62 8.38c4.75 0 8.62-3.76 8.62-8.38s-3.87-8.38-8.62-8.38z"/><path fill="#DF382B" d="M51.31 28.68l-3.87-3.5v-7.04h1.86v6.22l3.25 2.94"/><path fill="#4285F4" d="M41.49 80.93v-2.08l70.51-.32v2.08"/><path fill="#4285F4" d="M41.58 79.67c0-1.89 1.53-3.41 3.41-3.41s3.41 1.53 3.41 3.41"/></svg>