<?xml version="1.0" encoding="utf-8"?>
<!-- Generator: Adobe Illustrator 19.2.1, SVG Export Plug-In . SVG Version: 6.00 Build 0)  -->
<svg version="1.1" id="Layer_1" xmlns="http://www.w3.org/2000/svg" xmlns:xlink="http://www.w3.org/1999/xlink" x="0px" y="0px"
	 width="40px" height="40px" viewBox="0 0 40 40" enable-background="new 0 0 40 40" xml:space="preserve">
<g id="Layer_1_1_">
</g>
<g id="Layer_2">
</g>
<g id="Layer_3">
	<g>
		<g>
			<path id="SVGID_1_" fill="#DFDFDF" d="M19.84,0h0.31C31.12,0,40,8.95,40,20s-8.88,20-19.84,20h-0.31C8.88,40,0,31.05,0,20
				S8.88,0,19.84,0z"/>
		</g>
		<g>
			<defs>
				<path id="SVGID_2_" d="M19.84,0h0.31C31.12,0,40,8.95,40,20s-8.88,20-19.84,20h-0.31C8.88,40,0,31.05,0,20S8.88,0,19.84,0z"/>
			</defs>
			<clipPath id="SVGID_3_">
				<use xlink:href="#SVGID_2_"  overflow="visible"/>
			</clipPath>
		</g>
		<g>
			<defs>
				<path id="SVGID_4_" d="M19.84,0h0.31C31.12,0,40,8.95,40,20s-8.88,20-19.84,20h-0.31C8.88,40,0,31.05,0,20S8.88,0,19.84,0z"/>
			</defs>
			<clipPath id="SVGID_5_">
				<use xlink:href="#SVGID_4_"  overflow="visible"/>
			</clipPath>
		</g>
	</g>
	<path fill="#84CA50" d="M19.84,40h0.31c0.87,0,1.73-0.08,2.57-0.19l2.78-7.36L9.44,27l-4.2,3.6l-0.69,2.14
		C8.19,37.17,13.69,40,19.84,40z"/>
	<path fill="#EAEAEA" d="M9.32,26.42l-4.53,3.89l-2.52-1.02c0.26,0.5,0.55,0.99,0.85,1.46l1.26,0.52L4.1,32.16
		c0.15,0.19,0.28,0.4,0.44,0.59l0.69-2.14l4.2-3.6l16.07,5.46l-2.78,7.36c0.2-0.03,0.39-0.06,0.58-0.09l2.48-6.57l6.94,2.31
		c0.32-0.26,0.61-0.55,0.91-0.83L9.46,26.47L9.32,26.42z"/>
	<path fill="#84CA50" d="M28.97,24l9.16,4.41c0.57-1.25,1.03-2.56,1.34-3.92l-13.1-6.31l11.64-6.84c-0.75-1.57-1.68-3.02-2.79-4.33
		l-14.81,8.71l1.85,3.2l-2.5,5.07L28.97,24z"/>
	<polygon fill="#EAEAEA" points="24.72,20.9 24.91,20.9 24.76,20.83 	"/>
	<path fill="#EAEAEA" d="M20.65,14.39l-7.97-2.3l-0.03-0.01L3.68,8.43c-1.18,1.68-2.13,3.54-2.75,5.54l9.47,3.84l5.76,3.84
		l-0.02,0.09l-5.77,15.83c1.78,0.98,3.74,1.68,5.8,2.08l5.33-14.62l7.26,0.01l8.96,4.31c0.95-1.82,1.63-3.8,1.99-5.89L28.59,18.1
		l9.9-5.82c-0.94-2.26-2.29-4.29-3.94-6.04L20.8,14.32L20.65,14.39z"/>
	<path fill="#CAE6A3" d="M20.16,0h-0.31c-1.55,0-3.06,0.2-4.51,0.54l4.4,13.58l0.92,0.26l0.12-0.07l13.75-8.08
		C30.91,2.4,25.82,0,20.16,0z"/>
	<path fill="#84CA50" d="M27.91,18.92c-0.01-0.08-0.02-0.17-0.04-0.25c-0.08-0.4-0.19-0.79-0.33-1.18l10.47-6.16
		C37.26,9.76,36.33,8.31,35.22,7l-10.91,6.41c-1.72-1.1-3.77-1.5-5.78-1.11c-1.28,0.25-2.42,0.8-3.38,1.56l-2.76-0.8L3.1,9.3l0,0
		l0,0c-0.73,1.16-1.34,2.4-1.82,3.7l0,0l9.6,3.89l1.55,1.03c-0.35,1.2-0.44,2.49-0.19,3.8c0.39,2.01,1.5,3.75,3.13,4.95l-4.09,11.34
		c0.4,0.19,0.81,0.35,1.22,0.52c0.22,0.09,0.43,0.2,0.66,0.28c0.23,0.08,0.47,0.14,0.71,0.21c0.42,0.13,0.84,0.28,1.27,0.38l0,0l0,0
		l4.1-11.24c0.27,0.03,0.53,0.06,0.8,0.06c0.51,0,1.02-0.05,1.53-0.15c2.36-0.46,4.27-1.94,5.38-3.89l1.93-0.23l9.25,4.45
		c0.57-1.25,1.03-2.56,1.34-3.92L27.91,18.92z"/>
	<path fill="#FFFFFF" d="M19.38,13.03L15.33,0.54c-0.34,0.08-0.67,0.16-1,0.26l4.03,12.42c-1.23,0.3-2.31,0.91-3.18,1.74l-3.07-0.88
		v0.01L2.56,10.2c-0.33,0.6-0.64,1.21-0.92,1.85l9.71,3.94l2.13,1.42c-0.54,1.27-0.72,2.72-0.44,4.17c0.37,1.9,1.44,3.54,3.04,4.61
		c0.16,0.11,0.33,0.21,0.5,0.3l-4.37,11.98c0.63,0.26,1.27,0.49,1.93,0.69l4.35-11.93c0.95,0.22,5.26,1.03,8.04-4.02l2.53-0.3l0,0
		l9.49,4.57c0.26-0.64,0.48-1.3,0.67-1.97l-12.05-5.8c-0.02-0.29-0.05-0.58-0.11-0.88c-0.13-0.66-0.34-1.28-0.63-1.87l11.14-6.55
		c-0.5-0.91-1.07-1.77-1.7-2.59l-11.42,6.71C24.32,14.43,19.61,13.01,19.38,13.03z"/>
	<path fill="#CAE6A3" d="M15.32,21.13c-0.51-2.63,1.2-5.18,3.82-5.69c2.61-0.51,5.14,1.21,5.65,3.84s-1.2,5.18-3.82,5.69
		S15.83,23.76,15.32,21.13z"/>
	<g>
		<path fill="#1E4702" d="M27.34,15.63c-1.86-3.02-5.38-4.6-8.92-3.91c-2.5,0.49-4.62,2.05-5.85,4.26l-7.79-3.52L0.35,23.71
			c0.21,1.13,0.53,2.23,0.92,3.29L5.9,15.21l7.71,3.49l0.4-0.99c0.84-2.06,2.63-3.55,4.8-3.97c2.98-0.58,5.92,0.95,7.18,3.73
			l0.46,1.03l11.79-6.68c-0.28-0.63-0.6-1.24-0.94-1.83L27.34,15.63z"/>
		<path fill="#1E4702" d="M26.13,22.66l-0.25,0.51c-0.92,1.84-2.59,3.11-4.58,3.5c-0.73,0.14-1.49,0.16-2.25,0.03l-0.83-0.13
			l-4.59,12.42c0.65,0.22,1.31,0.4,1.99,0.55l3.96-10.71c0.71,0.04,1.43,0,2.12-0.14c2.43-0.48,4.5-1.95,5.75-4.09l1.38-0.14
			l9.12,4.39c0.3-0.61,0.57-1.24,0.81-1.89l-9.56-4.6L26.13,22.66z"/>
	</g>
</g>
<g id="Layer_4">
</g>
<g id="Layer_5">
</g>
<g id="Layer_6">
</g>
<g id="Layer_7">
</g>
</svg>
