<svg id="Layer_1" data-name="Layer 1" xmlns="http://www.w3.org/2000/svg" width="24" height="24" viewBox="0 0 24 24"><title>ic_mod_tab_transit</title><path d="M6,14.5C6,13.67,6.67,13,7.5,13C8.33,13,9,13.67,9,14.5C9,15.33,8.33,16,7.5,16C6.67,16,6,15.33,6,14.5z M15,14.5 c0-0.83,0.67-1.5,1.5-1.5c0.83,0,1.5,0.67,1.5,1.5c0,0.83-0.67,1.5-1.5,1.5C15.67,16,15,15.33,15,14.5z M5,12v5h14v-5H5z M13,5v5h6 V7c0-1.1-0.9-2-2-2H13z M11,5H7C5.9,5,5,5.9,5,7v3h6V5z M17.5,19l0.94,0.63c0.34,0.23,0.44,0.7,0.21,1.04 C18.51,20.87,18.27,21,18.02,21H5.48c-0.41,0-0.75-0.34-0.75-0.75c0-0.25,0.13-0.48,0.33-0.62L6,19H5c-1.1,0-2-0.9-2-2V7 c0-2.21,1.79-4,4-4h10c2.21,0,4,1.79,4,4v10c0,1.1-0.9,2-2,2H17.5z"/></svg>
