<svg id="Layer_1" data-name="Layer 1" xmlns="http://www.w3.org/2000/svg" width="24" height="24" viewBox="0 0 24 24"><title>ic_mod_tab_commute</title><path d="M20.5,16.5c-0.55,0-1-0.45-1-1c0-0.55,0.45-1,1-1s1,0.45,1,1C21.5,16.05,21.05,16.5,20.5,16.5z M12.5,16.5 c-0.55,0-1-0.45-1-1c0-0.55,0.45-1,1-1s1,0.45,1,1C13.5,16.05,13.05,16.5,12.5,16.5z M10.5,17.5h12v-4h-12V17.5z M3.5,14.5 c0-0.55,0.45-1,1-1c0.55,0,1,0.45,1,1c0,0.55-0.45,1-1,1C3.95,15.5,3.5,15.05,3.5,14.5z M7,5H4C2.9,5,2,5.9,2,7v3h5V5z M16,7h-2 c0-1.1-0.9-2-2-2H9v5h0.57l-1.11,2H2v5h6v4H2.48c-0.41,0-0.75-0.34-0.75-0.75c0-0.25,0.13-0.48,0.33-0.62L3,19H2c-1.1,0-2-0.9-2-2V7 c0-2.21,1.79-4,4-4h8C14.21,3,16,4.79,16,7z M21.72,12l-1.39-2.5h-7.62L11.32,12H21.72z M20.5,19h-8v1c0,0.55-0.45,1-1,1 s-1-0.45-1-1v-1H9v-5.91l0.01-0.01l2.54-4.57C11.72,8.2,12.05,8,12.42,8h8.2c0.37,0,0.7,0.2,0.88,0.52L24,13.09V19h-1.5v1 c0,0.55-0.45,1-1,1s-1-0.45-1-1V19z"/></svg>