<svg width="40" height="40" viewBox="0 0 40 40" xmlns="http://www.w3.org/2000/svg" xmlns:sketch="http://www.bohemiancoding.com/sketch/ns"><title>ic_qu_alternate_route</title><desc>Created with Sketch.</desc><g transform="translate(0 0)" sketch:type="MSShapeGroup" fill="none"><circle fill="#0F9D58" cx="20" cy="20" r="20"/><g fill="#85CFAA"><path d="M17.658 19.769c-.248-.243-.665-.994-1.022-2.32l-3.299.847c.478 1.768 1.119 3.057 1.909 3.827l.415.406 2.413-2.354-.416-.406z"/><path d="M21.562 26.921l-3.141.203.011.308v1.52h3.147v-1.522l-.017-.51"/><path d="M16.31 16.706c-.103-.56-.167-1.112-.183-1.552h2.821l-4.473-4.996-4.474 4.996h2.829c.015.623.095 1.348.236 2.115l3.245-.563z"/><path d="M18.993 21.248l-.398-.422-2.28 2.419.398.422c.587.622 1.012 1.397 1.229 2.239l3.11-.902c-.365-1.414-1.077-2.712-2.059-3.754"/></g><path d="M30 15.23l-4.311-5.071-4.311 5.071h2.405v1.58c0 1.201-.457 2.33-1.285 3.18l-1.677 1.72c-1.549 1.588-2.401 3.698-2.401 5.943v2.394c0 1.079.852 1.954 1.905 1.954s1.906-.875 1.906-1.954v-2.394c0-1.202.457-2.331 1.284-3.18l1.678-1.72c1.548-1.587 2.401-3.698 2.401-5.943v-1.58h2.405z" fill="#fff"/></g></svg>