<svg width="40" height="40" viewBox="0 0 40 40" xmlns="http://www.w3.org/2000/svg" xmlns:sketch="http://www.bohemiancoding.com/sketch/ns"><title>ic_qu_thumb_up_nightmode</title><desc>Created with Sketch.</desc><g transform="translate(0 0)" sketch:type="MSShapeGroup" fill="none"><circle fill="#097138" cx="20" cy="20" r="20"/><path d="M9 29h4v-13h-4v13zm20.983-14.004h-6.369l.963-4.444.035-.331c0-.436-.171-.83-.444-1.113l-1.074-1.108-6.504 6.899c-.363.383-.59.908-.59 1.486v10.5c0 1.16.903 2.1 2.017 2.1l8.94.015c.837 0 1.553-.53 1.856-1.281l3.041-7.402c.091-.242.146-.499.146-.767v-2.454c0-1.16-.903-2.1-2.017-2.1z" fill="#FAFAFA"/></g></svg>