<svg xmlns="http://www.w3.org/2000/svg" width="160" height="160" viewBox="0 0 160 160"><g><circle fill="#7A7A7A" cx="80" cy="80" r="80"/><path fill="#746E74" d="M.405 71.93l124.837 74.043c6.288-4.32 11.928-9.512 16.743-15.407l-136.44-79.823c-2.625 6.674-4.397 13.776-5.14 21.187zM5.973 49.657l134.591 82.579c6.489-7.516 11.601-16.246 14.948-25.812l-133.256-81.76c-6.885 7.183-12.445 15.64-16.283 24.993z"/><path fill="#A59F9F" d="M16.386 31.508l91.104 58.372 16.086-25.107-83.983-53.809c-9.012 5.286-16.896 12.278-23.207 20.544zM10.357 40.647c-5.156 9.106-8.579 19.317-9.82 30.196l125.947 74.245c8.678-6.208 16.068-14.096 21.678-23.206l-137.805-81.235z"/><path fill="#8A8481" d="M8.658 43.814c-3.645 7.172-6.245 14.96-7.589 23.175l128.52 75.762c6.404-5.068 12.025-11.08 16.625-17.85l-137.556-81.088z"/><g fill="#BAB7B6"><path d="M3.956 55.495l1.015-1.724 3.447 2.03-1.015 1.724zM124.877 126.69l-6.526-3.843 1.016-1.723 6.526 3.843-1.016 1.723zm-13.053-7.686l-6.526-3.843 1.016-1.723 6.526 3.843-1.016 1.723zm-13.053-7.685l-6.526-3.843 1.016-1.723 6.526 3.843-1.016 1.723zm-13.053-7.685l-6.526-3.843 1.016-1.724 6.526 3.843-1.016 1.724zm-13.053-7.685l-6.526-3.843 1.016-1.724 6.526 3.843-1.016 1.724zm-13.052-7.686l-6.526-3.842 1.016-1.724 6.526 3.842-1.016 1.724zm-13.053-7.685l-6.526-3.843 1.016-1.724 6.526 3.843-1.016 1.724zm-13.053-7.685l-6.526-3.843 1.016-1.724 6.526 3.843-1.016 1.724zm-13.053-7.685l-6.526-3.843 1.016-1.724 6.526 3.843-1.016 1.724zM131.404 130.533l1.015-1.723 3.446 2.029-1.015 1.723z"/></g><path fill="#A59F9F" d="M26.696 111.155c-7.01-4.273-13.839-7.192-23.739-9.618 8.986 32.211 37.607 56.219 72.161 58.301.729-1.538.73-3.332-.462-5.43-3.183-5.602-11.034-20.744-47.96-43.252z"/><path fill="#546359" d="M24.696 113.155c-6.33-3.859-12.512-6.613-20.941-8.897 9.656 30.374 36.954 52.864 69.858 55.466.012-1.012-.274-2.114-.957-3.316-3.183-5.602-11.034-20.744-47.96-43.252zM18.404 28.956l87.59 57.087c-5.16-10.689-19.846-27.402-30.407-37.963-10.3-10.3-26.779-23.037-41.716-33.421-5.761 4.075-10.97 8.877-15.466 14.297z"/><g fill="#444C45"><path d="M49 128v-1h-1v-1h-2v1h-1v1h2v1h1v2h-1v1h-1v1h-2v2h1v-1h3v-2h1v-2h1v-1h-1zM35 134v-3h-1v-1h1v-3h-2v3h-1v1h1v1h-2v1h-2v1h3v-1h2v1zM28 118v1h2v1h1v1h2v1h-1v1h-2v2h1v1h3v-2h1v-1h1v-3h1v-1h1v-2h-1v-1h-1v2h-3v-1h-4v-1h-4v2h2zM11 111v-1h-1v-2h-2v-1h2v1h1v-3h-1v-1h-1v-1h1v-2h-4v5h1v2h-1v2l.106.16.038.281.307.383.549.175v1l.128.895.872.105v1l.164.927.836.073v1h1v1h1v-3h1v-2h-1zM20 110h-1v-2h-3v-1h-1v2h1v1h1v1h1v1h3v-1h-1zM16 120h-1v1h-1v1h3v-3h-1zM35 141h1v1h-1zM25 132v2h-1v-1h-1v1h-1v1h1v1h1v-1h2v-2h1v-1h-1zM42 139h-2v-1h-3v1h-1v2h1v-1h1v1h3v-1h1v1h1v-1h1v-1h-1zM64 152v-2h-1v1h-1v-1h-1v2h1v1h-1v2h-1v1h-1v1h3l-.007.855 1.007.145v-3h1v-1h1v-1h-1zM66 151h-1v2h2v-2z"/></g><g fill="#444C47"><path d="M72 52v2h1v-1h1v-1h-1zM60 43v2h1v-1h1v-1h-1zM49 32h-1v2h1v-1h2v-1h-1zM42 28v2h2v-2h-1zM91 68h-1v2h2v-1h-1zM99 77h-1v1h1v1h1v-2zM84 63v-1h-2v3h-1v1h1v1h2v-1h2v-1h-1v-1h1v-1h-1zM28 26h-1v2h2v-1h-1z"/></g><g fill="#667066"><path d="M28 29h1v-1h-2v-3h-1v4h1zM15 118h1v-2h-2v1h-1v1h1zM7 108v-2h-2v1h1v1zM29 116h1v1h-1zM13 121h1v1h-1zM14 120h1v1h-1zM15 119h1v1h-1zM17 115h1v-2h-1v1h-1v2h1zM21 113h1v-1h-2v2h1zM15 112v-1h1v-2h-1v1h-2v2h1zM22 123v-1h1v-3h1v-2h-1v1h-1v3h-1v1h-1v1h1zM18 123v2h1v-1h1v-1h-1zM16 125v1h2v-1h-1zM18 112h1v1h-1zM30 127v1h1v1h1v-2h-1zM30 128h-1v1h-1v1h-1v1h2v-1h2v-1h-1zM22 129v2h2v-2h-1zM21 131h1v1h-1zM37 125v1h-1v2h1v-1h1v1h1v-2h1v-1h1v-1h-2v1h-1zM36 137h2v-1h1v-2h1v-2h-1v1h-1v2h-1v1h-3v1h1zM30 136h-1v1h-1v1h2v-1h1v-2h-1zM52 148v-2h1v-1h1v-4h1v1h1v-1h1v-2h-1v-1h-2v1h-1v2h-1v2h1v1h-1v1h-2v1h-1v-1h-1v1h-2v1h4v1h1zM58 153v-1h1v-2h1v-2h1v-2h-1v-1h-2v1h1v2h-1v2h-1v1h-1v1h-1v2h2v-1zM57 154h1v1h-1zM59 155h1v1h-1zM64 152h1v1h-1zM60 154v1h1v-2h-1zM61 152h1v1h-1zM62 150h1v1h-1zM63 149h1v1h-1zM43 140h1v1h-1zM40 145h2v-3h1v-1h-1v-1h-1v2h-1v2h-1v1h-1v1h2zM45 139v-1h-1v2h1zM26 138v1h2v-1h-1zM40 131h1v1h-1zM41 130h1v1h-1zM52 137h-1v2h1v-1h1v-2h-1zM40 30h1v2h1v-4h2v-1h-2v-1h-1v1h-1v1h-1v1h1zM50 32v-1h-2v1h1zM48 34v-2h-1v3h1zM41 38v1h1v-2h-1zM44 36v-1h-1v1h-1v1h2zM42 39h1v1h-1zM32 32h1v1h-1zM34 31h2v-2h-2v1h-1v2h1zM36 21h2v-1h-1v-1h-1v1h-1v2h1zM33 22v2h1v1h1v-3h-1zM32 19v-1h-1v2h1zM34 18v-1h-2v1h1zM31 21v-1h-1v2h1zM28 24h1v1h-1zM29 23h1v1h-1zM25 31h1v1h-1zM26 30h1v1h-1zM54 38h1v-1h2v-2h-3v2h-1v2h1zM51 41h1v1h-1zM47 41h1v1h-1zM45 41v1h-1v2h1v-1h2v-1h-1v-1zM50 47h-1v1h2v-2h-1zM68 44h1v-2h-2v1h1zM61 38v-1h1v-1h-2v1h-1v1h1zM54 32h1v-2h-2v1h1zM45 23v-1h-1v2h1zM42 22h1v1h-1zM36 17v-1h-1v2h1zM31 35h-1v2h2v-1h-1zM36 38v3h2v-2h-1v-1zM37 37h1v1h-1zM61 54h1v1h-1zM63 57v-2h-1v1h-1v1h1zM82 56v-2h-1v-1h-1v3h1zM79 56h1v1h-1zM74 62h1v1h-1zM74 49h1v-2h-1v1zM73 47h1v-1h-2v2h1zM70 44h1v1h-1zM89 65h1v-2h-1v1zM88 62h1v1h-1zM85 59v1h1v-2h-1zM96 72v1h1v-2h-2v1zM94 70h1v1h-1zM87 73h1v1h-1zM88 74h1v1h-1zM88 72h1v1h-1zM101 82h1v1h-1zM100 81h1v1h-1zM82 69h-1v1h2v-1zM83 71v1h1v-2h-1zM76 66v1h1v1h1v-2h-1zM68 60v1h1v1h1v-2h-1v-1h-1zM69 58h1v1h-1zM54 47v2h1v-3h-1zM55 45h1v1h-1zM56 44h1v1h-1zM53 40v-1h-1v2h1zM59 46h1v-3h2v-1h-3v2h-1v1h1zM72 52h2v-1h-3v3h1v-1zM81 63v1h-1v2h1v-1h1v-3h-1zM83 61h-1v1h2v-1zM84 62h1v1h-1zM81 66h1v1h-1zM89 69v1h1v-2h-1zM90 67h1v1h-1zM88 70h1v1h-1zM97 76v2h-1v1h2v-2h1v-1h-1zM67 50h1v1h-1zM66 49h1v1h-1zM67 48h1v1h-1zM68 47h1v1h-1zM59 50h1v1h-1zM60 49h1v1h-1zM60 51h1v1h-1zM77 60v-1h-3v1h-1v2h1v-1h1v-1h1zM72 54h1v1h-1z"/></g><path fill="#606060" d="M139.998 132.889l-39.307-59.592c7.772 11.79 15.834 25.861 23.116 42.243 3.732 8.396 6.845 16.476 9.462 24.128 2.377-2.123 4.62-4.39 6.729-6.78z"/><circle cx="80" cy="80" r="80" fill="none"/><path fill="#ADA49B" d="M65.629 1.312c-11.781 2.138-22.658 6.851-32.035 13.543 44.876 31.967 70.749 64.137 84.56 85.538 11.124 17.235 16.42 30.422 18.433 36.156 8.595-8.601 15.219-19.159 19.199-30.935-12.703-24.988-38.903-64.434-90.157-104.301z"/><path fill="#6D6A73" d="M152.255 114.364c-11.303-24.141-37.813-67.354-95.463-110.933-5.93 1.795-11.561 4.267-16.821 7.314 44.72 32.318 70.626 64.765 84.546 86.488 9.342 14.58 14.657 26.359 17.406 33.41 4.065-4.964 7.543-10.425 10.332-16.28z"/><path fill="#635D63" d="M63.661 1.675l95.749 68.752c-.342-2.865-.836-5.681-1.472-8.444l-85.782-61.595c-2.879.28-5.713.71-8.495 1.288z"/><path fill="#8A8481" d="M80 0c-4.105 0-8.137.312-12.076.908l87.01 51.049c-4.344-11.601-11.307-21.915-20.165-30.242l-30.751-18.042c-7.582-2.384-15.649-3.674-24.018-3.674z"/></g></svg>