<svg xmlns="http://www.w3.org/2000/svg" width="40" height="40" viewBox="0 0 40 40"><circle cx="20.12" cy="20.07" r="20" fill="#DBDBDB"/><g fill="#F6F3EE"><path d="M.54 24.17c.1.49.24.97.37 1.45l11.06-5.29-.63-1.33-10.8 5.17zM2.04 28.57l8.39-3.91-.63-1.33-8.34 3.89c.17.46.37.91.58 1.35zM26.49 1.12L13.31 7.29 8.73 3.64c-.72.5-1.39 1.05-2.04 1.64l1.1-.44 4.15 3.09L1.5 12.81c-.24.63-.46 1.27-.64 1.92L28.38 1.87c-.62-.28-1.24-.53-1.89-.75z"/></g><path fill="#CBE6A3" d="M30.16 2.79L.5 16.2c-.25 1.25-.38 2.54-.38 3.87 0 1.26.13 2.5.35 3.69l35.39-16c-1.56-1.99-3.49-3.68-5.7-4.97z"/><path fill="#FFF" d="M34.34 6.01L9.77 17.27c-1.33.61-2.31 1.8-2.65 3.22L4.26 32.22c2.14 2.79 4.99 5.01 8.3 6.36l3.3-13.57 23.4-10.72c-.95-3.16-2.66-5.99-4.92-8.28z"/><path fill="#FFF39F" d="M36.26 8.29l-26.1 11.96-3.54 14.54c.95.87 1.97 1.64 3.07 2.32l3.49-14.36 24.91-11.42c-.52-1.07-1.13-2.08-1.83-3.04z"/><path fill="#E60000" d="M34.79 6.5l-26.18 12-.49.59-3.35 13.79c.45.54.94 1.05 1.44 1.54l3.53-14.49L35.97 7.91c-.37-.49-.77-.96-1.18-1.41z"/><path fill="#84CA50" d="M38.32 11.81L13.78 23.05l-3.51 14.41c.52.3 1.07.57 1.62.82l3.4-13.98 23.68-10.85c-.19-.56-.41-1.11-.65-1.64z"/><path fill="#BABABA" d="M40.11 20.13l-3.21 1.9-.29-.36-.46.37.28.35L23 33.65l-.28-.35-.46.37.29.36-6.7 5.57c.25.05.5.09.75.14l6.31-5.25.29.36.46-.37-.3-.37L36.8 22.84l.3.38.46-.37-.29-.36 2.81-1.66c.01-.23.03-.46.03-.7z"/><path fill="#FFB000" d="M26.5 12.25l9.47-4.34c-.37-.49-.77-.95-1.18-1.4l-9 4.12.71 1.62z"/><path fill="#9E1313" d="M7.15 23.09l-2.38 9.79c.45.54.94 1.05 1.44 1.54l2.67-10.95-1.73-.38z"/><path fill="#FF2E2E" d="M25.79 10.63L8.61 18.5l-.49.59-.97 4 1.73.38.86-3.54 16.76-7.68"/><path fill="#FFDC34" d="M23.1 23.21l-3.63 1.39c-.55.21-1.17.22-1.72.01l-3.79-1.41c-.69-.26-1.15-.91-1.15-1.65v-6.97c0-.73.59-1.32 1.32-1.32h8.79c.73 0 1.32.59 1.32 1.32v6.99c-.01.73-.46 1.38-1.14 1.64z"/><path fill="#E4B834" d="M22.91 14c.32 0 .58.26.58.58v6.99c0 .42-.26.8-.66.96l-3.63 1.39c-.2.08-.4.11-.61.11-.2 0-.4-.04-.59-.11l-3.79-1.41c-.4-.15-.67-.53-.67-.96v-6.97c0-.32.26-.58.58-.58h8.79m0-.74h-8.79c-.73 0-1.32.59-1.32 1.32v6.97c0 .74.46 1.39 1.15 1.65l3.79 1.41c.27.1.56.15.85.15.3 0 .59-.05.87-.16l3.63-1.39c.68-.26 1.13-.91 1.13-1.64v-6.99c.01-.73-.58-1.32-1.31-1.32z"/><path d="M17.78 19.89h.65v.48h-.65v1.08h-.6v-1.08h-2.12v-.35l2.09-3.23h.63v3.1zm-2.04 0h1.45V17.6l-.07.13-1.38 2.16zM21.79 18.01c0 .23-.06.44-.18.62s-.29.32-.5.43c.24.1.44.26.58.46s.21.43.21.68c0 .4-.14.72-.41.96s-.63.36-1.07.36c-.45 0-.81-.12-1.08-.36s-.4-.56-.4-.96c0-.25.07-.48.21-.68s.33-.36.57-.46c-.21-.1-.37-.24-.49-.43s-.18-.39-.18-.62c0-.39.13-.7.38-.93.25-.23.58-.35 1-.35.41 0 .74.12.99.35.24.23.37.54.37.93zm-.48 2.18c0-.26-.08-.47-.25-.64-.17-.16-.38-.25-.65-.25s-.48.08-.64.24-.24.38-.24.64.08.47.24.62c.16.15.38.23.65.23.28 0 .5-.08.65-.23.16-.14.24-.35.24-.61zm-.89-2.97c-.23 0-.42.07-.56.22s-.22.34-.22.59c0 .24.07.43.21.57.14.15.33.22.57.22s.43-.07.57-.22c.14-.15.21-.34.21-.57 0-.24-.07-.43-.22-.58-.15-.15-.34-.23-.56-.23z"/></svg>
