<?xml version="1.0" encoding="utf-8"?>
<!-- Generator: Adobe Illustrator 21.1.0, SVG Export Plug-In . SVG Version: 6.00 Build 0)  -->
<svg version="1.0" id="Layer_1" xmlns="http://www.w3.org/2000/svg" xmlns:xlink="http://www.w3.org/1999/xlink" x="0px" y="0px" width="88" height="102"
   viewBox="0 0 88 102" style="enable-background:new 0 0 88 102;" xml:space="preserve">
<g>
  <linearGradient id="SVGID_1_" gradientUnits="userSpaceOnUse" x1="20.1349" y1="8.911" x2="45.3532" y2="8.911">
    <stop  offset="0" style="stop-color:#9FC1F9"/>
    <stop  offset="1" style="stop-color:#9FC1F9;stop-opacity:0"/>
  </linearGradient>
  <path style="fill:url(#SVGID_1_);" d="M44.813,9.306C43.019,2.61,36.136-1.363,29.441,0.431s-10.669,8.676-8.875,15.372
    l0.552,2.019l24.236-6.73L44.813,9.306z"/>
  <path style="fill:#9FC1F9;" d="M33.689,14.92L33.689,14.92c-1.442,0.439-2.967-0.374-3.407-1.816l-0.877-2.878
    c-0.439-1.442,0.374-2.967,1.816-3.407l0.001,0c1.442-0.439,2.967,0.374,3.406,1.816l0.877,2.878
    C35.944,12.956,35.131,14.481,33.689,14.92z"/>
  <path style="fill:#2C66BF;" d="M47.536,13.888l-3.97,0.618c-6.227,0.969-12.312,2.696-18.121,5.142l-4.521,1.904l-0.744-2.585
    c-0.164-0.57,0.124-1.172,0.67-1.403l3.398-1.437c5.8-2.453,11.879-4.188,18.1-5.167l3.133-0.493
    c0.584-0.092,1.145,0.266,1.308,0.834L47.536,13.888z"/>
  <path style="fill:#6199F6;" d="M0.054,33.608c-0.156-0.58,0.016-1.249,0.606-1.66l5.682-3.957
    c8.384-5.839,17.718-10.177,27.587-12.822l0,0c9.869-2.644,20.122-3.554,30.302-2.69l6.899,0.586
    c0.717,0.061,1.199,0.553,1.355,1.134l-36.243,8.686L0.054,33.608z"/>
  <path style="fill:#80ADF7;" d="M0.054,33.608c0.156,0.58,0.638,1.073,1.355,1.134l6.899,0.586
    c10.18,0.865,20.433-0.045,30.302-2.69l0,0c9.869-2.644,19.203-6.983,27.587-12.822l5.682-3.957c0.591-0.411,0.762-1.08,0.606-1.66
    l-30.109,6.449c-4.525,0.969-8.998,2.169-13.4,3.595L0.054,33.608z"/>

    <linearGradient id="SVGID_2_" gradientUnits="userSpaceOnUse" x1="-600.4128" y1="273.0934" x2="-587.5856" y2="200.3471" gradientTransform="matrix(0.9659 -0.2588 0.2588 0.9659 565.8255 -318.7955)">
    <stop  offset="0" style="stop-color:#FFFFFF;stop-opacity:0"/>
    <stop  offset="0.0594" style="stop-color:#F3F4F6;stop-opacity:0.0518"/>
    <stop  offset="0.1589" style="stop-color:#E8E9EC;stop-opacity:0.1385"/>
    <stop  offset="0.2991" style="stop-color:#E1E3E7;stop-opacity:0.2607"/>
    <stop  offset="0.6883" style="stop-color:#DFE1E5;stop-opacity:0.6"/>
    <stop  offset="0.8424" style="stop-color:#E1E3E7;stop-opacity:0.3034"/>
    <stop  offset="0.9163" style="stop-color:#E9EAED;stop-opacity:0.1611"/>
    <stop  offset="0.973" style="stop-color:#F6F6F7;stop-opacity:0.052"/>
    <stop  offset="1" style="stop-color:#FFFFFF;stop-opacity:0"/>
  </linearGradient>
  <path style="fill:url(#SVGID_2_);" d="M85.704,90.453l-4.184,2.112c-14.358,7.249-30.593,9.923-46.518,7.662l-5.706-0.81
    c-3.585-0.509-6.204-3.646-6.066-7.264l2.236-58.586l25.531-6.841l36.36,57.771C88.669,86.581,87.902,89.343,85.704,90.453z"/>

    <linearGradient id="SVGID_3_" gradientUnits="userSpaceOnUse" x1="-599.9298" y1="213.2163" x2="-599.9298" y2="202.0233" gradientTransform="matrix(0.9659 -0.2588 0.2588 0.9659 565.8255 -318.7955)">
    <stop  offset="0.0498" style="stop-color:#FFFFFF;stop-opacity:0.4"/>
    <stop  offset="0.5648" style="stop-color:#F9F9FA;stop-opacity:0.1832"/>
    <stop  offset="1" style="stop-color:#EFF0F2;stop-opacity:0"/>
  </linearGradient>
  <path style="fill:url(#SVGID_3_);" d="M51.391,28.197c1.6,5.971-2.818,12.343-9.869,14.232c-7.05,1.889-14.063-1.42-15.663-7.391"
    />
  <g>
    <path id="XMLID_4_" style="fill:#DF382B;" d="M51.72,47.001c-3.155-2.783-7.906-2.579-10.972,0.451
      c-3.695,3.652-2.925,9.813,1.552,12.324c0.906,0.508,1.841,0.967,2.781,1.409c1.171,0.55,2.369,1.045,3.543,1.589
      c2.52,1.168,4.859,2.617,6.88,4.542c0.221,0.211,0.444,0.42,0.672,0.634c-0.357-1.232-0.75-2.417-1.041-3.627
      c-0.598-2.489-0.647-5.031-0.672-7.577c-0.015-1.558-0.08-3.117-0.198-4.671C54.111,50.052,53.244,48.345,51.72,47.001z"/>

      <ellipse id="XMLID_3_" transform="matrix(0.8365 -0.548 0.548 0.8365 -21.2942 33.8921)" style="fill:#90130E;" cx="46.148" cy="52.63" rx="2.87" ry="2.87"/>
  </g>

    <linearGradient id="SVGID_4_" gradientUnits="userSpaceOnUse" x1="354.078" y1="-60.4237" x2="375.6755" y2="-60.4237" gradientTransform="matrix(0.9909 0.1349 -0.1349 0.9909 -317.9741 100.0809)">
    <stop  offset="0" style="stop-color:#CDD0D5;stop-opacity:0"/>
    <stop  offset="1" style="stop-color:#BABFC5;stop-opacity:0.6"/>
  </linearGradient>
  <ellipse style="fill:url(#SVGID_4_);" cx="51.718" cy="89.424" rx="10.898" ry="0.982"/>
  <circle style="opacity:0.5;fill:#FFFFFF;" cx="36.243" cy="3.4" r="1.66"/>

    <linearGradient id="SVGID_5_" gradientUnits="userSpaceOnUse" x1="255.1935" y1="808.1209" x2="253.6968" y2="804.0087" gradientTransform="matrix(0.9829 -0.0617 -0.0617 0.7777 -161.3659 -581.0917)">
    <stop  offset="0.0018" style="stop-color:#6199F6;stop-opacity:0"/>
    <stop  offset="1" style="stop-color:#6199F6"/>
  </linearGradient>
  <path style="fill:url(#SVGID_5_);" d="M53.82,25.957c0.206,0.741-6.281,3.19-14.488,5.469s-15.028,3.526-15.233,2.784
    c-0.206-0.741,6.281-3.19,14.488-5.469S53.614,25.216,53.82,25.957z"/>
</g>
</svg>
