<?xml version="1.0" encoding="utf-8"?>
<!-- Generator: Adobe Illustrator 21.0.2, SVG Export Plug-In . SVG Version: 6.00 Build 0)  -->
<svg version="1.1" id="Layer_1" xmlns="http://www.w3.org/2000/svg" xmlns:xlink="http://www.w3.org/1999/xlink" x="0px" y="0px"
	 width="64px" height="32px" viewBox="0 0 64 32" enable-background="new 0 0 64 32" xml:space="preserve">
<linearGradient id="SVGID_1_" gradientUnits="userSpaceOnUse" x1="0" y1="15.2" x2="58.2" y2="15.2" gradientTransform="matrix(1 0 0 1 0 16)">
	<stop  offset="0" style="stop-color:#FFFFFF"/>
	<stop  offset="1" style="stop-color:#676C72"/>
</linearGradient>
<path fill="url(#SVGID_1_)" d="M0,30.4h58.2V32H0V30.4z"/>
<path fill="#292D33" d="M48.2,26.2c0,2.6-1.3,4.8-2.9,5h-1.6c-1.7,0-3.1-2.3-3.1-5c0-2.8,1.4-5,3.1-5H45
	C46.8,21.2,48.2,23.4,48.2,26.2z"/>
<path fill="#DC534B" d="M18,0h43.4v1.3H18V0z"/>
<linearGradient id="SVGID_2_" gradientUnits="userSpaceOnUse" x1="43.7" y1="10.9" x2="43.7" y2="1.466" gradientTransform="matrix(1 0 0 1 0 16)">
	<stop  offset="0" style="stop-color:#D63830"/>
	<stop  offset="1" style="stop-color:#E4746C"/>
</linearGradient>
<path fill="url(#SVGID_2_)" d="M36.1,17.5l-2.4,9.4h17.6l2.4-9.4"/>
<path fill="#DE5A53" d="M13.2,17.5l-2.4,9.4h22.9l2.4-9.4"/>
<linearGradient id="SVGID_3_" gradientUnits="userSpaceOnUse" x1="51.254" y1="6.2" x2="64" y2="6.2" gradientTransform="matrix(1 0 0 1 0 16)">
	<stop  offset="0" style="stop-color:#D63830"/>
	<stop  offset="1" style="stop-color:#E4746C"/>
</linearGradient>
<path fill="url(#SVGID_3_)" d="M53.7,17.5l-2.4,9.4h10c1.5,0,2.7-1.2,2.7-2.7v-6.7H53.7z"/>
<path fill="#292D33" d="M14.9,26.2c0-2.8-1.4-5-3.1-5h-1.3c-1.7,0-3.1,2.3-3.1,5c0,2.8,1.4,5,3.1,5h1.7C13.6,31,14.9,28.9,14.9,26.2
	"/>
<path fill="#B52724" d="M1.6,26.9h26.5v-6.8c0-1.4-1.2-2.6-2.6-2.6H4.2c-1.4,0-2.6,1.2-2.6,2.6C1.6,20.1,1.6,26.9,1.6,26.9z"/>
<path fill="none" d="M31.6,15.9c-1,0-1.8,0.6-2.1,1.5h4.3C33.5,16.6,32.6,15.9,31.6,15.9z"/>
<path fill="#9FC1F9" d="M61.1,1.3h-7.4v16.2H64"/>
<path fill="#80ADF7" d="M39.5,1.3l-3.4,16.2h17.6V1.3"/>
<path fill="#6199F6" d="M39.5,1.3H18.9l-4.2,16.2h21.4"/>
<path fill="#2C66BF" d="M31.6,15c-1.5,0-2.8,1.1-3.1,2.5h1c0.3-0.9,1.1-1.5,2.1-1.5c1,0,1.8,0.6,2.1,1.5h1
	C34.4,16.1,33.1,15,31.6,15z"/>
<path fill="#F8BA2D" d="M9.9,23.8h8.9c1.3,0,2.4-1.1,2.4-2.4S20.1,19,18.8,19H9.9c-1.3,0-2.4,1.1-2.4,2.4
	C7.5,22.8,8.6,23.8,9.9,23.8"/>
<path fill="#FFFFFF" d="M6,21.3c0,1.2-0.6,2.2-1.4,2.2s-1.4-1-1.4-2.2C3.2,20,3.8,19,4.6,19C5.3,19,6,20,6,21.3 M25.6,21.3
	c0,1.2-0.6,2.2-1.4,2.2s-1.4-1-1.4-2.2s0.6-2.2,1.4-2.2C25,19,25.6,20,25.6,21.3"/>
<path fill="#B52724" d="M18,0h22.7v1.3H18V0z"/>
<path fill="#959CA5" d="M28.9,25.1H1.4c-0.8,0-1.4,0.6-1.4,1.4s0.6,1.4,1.4,1.4h27.5c0.8,0,1.4-0.6,1.4-1.4S29.7,25.1,28.9,25.1z"/>
<g>
	<path fill="#292D33" d="M36.5,22c-1.7,0-3.1,2.2-3.1,4.9s1.4,5.1,3.1,5.1h1.3L38,22H36.5z"/>
	<path fill="#676C72" d="M41,27c0,2.8-1.4,5-3.1,5c-1.7,0-3.1-2.3-3.1-5c0-2.8,1.4-5,3.1-5C39.6,21.9,41,24.2,41,27"/>
	<path fill="#F7BA2E" d="M39.5,27c0,1.2-0.6,2.2-1.4,2.2c-0.8,0-1.4-1-1.4-2.2s0.6-2.2,1.4-2.2C38.8,24.7,39.5,25.7,39.5,27"/>
</g>
<g>
	<path fill="#292D33" d="M56.9,22c-1.7,0-3.1,2.2-3.1,4.9s1.4,5.1,3.1,5.1h1.3l0.2-10H56.9z"/>
</g>
<g>
	<path fill="#676C72" d="M61.4,27c0,2.8-1.4,5-3.1,5c-1.7,0-3.1-2.3-3.1-5c0-2.8,1.4-5,3.1-5C60,21.9,61.4,24.2,61.4,27"/>
</g>
<g>
	<path fill="#F7BA2E" d="M59.9,27c0,1.2-0.6,2.2-1.4,2.2c-0.8,0-1.4-1-1.4-2.2s0.6-2.2,1.4-2.2C59.2,24.7,59.9,25.7,59.9,27"/>
</g>
</svg>
