<svg width="84" height="44"><g fill="none" fill-rule="nonzero"><path fill="#CDD0D5" d="M4.667.433h74.666C81.911.433 84 2.507 84 5.065v33.87c0 2.558-2.09 4.632-4.667 4.632H4.667C2.089 43.567 0 41.493 0 38.935V5.065C0 2.507 2.09.433 4.667.433z"/><path fill="#EFF0F2" d="M5.25 2.316h73.39c1.61 0 2.916 1.296 2.916 2.895v28.61c0 1.599-1.306 2.895-2.917 2.895H5.25c-1.61 0-2.917-1.296-2.917-2.895V5.21c0-1.6 1.306-2.895 2.917-2.895v.001z"/><path fill="#CDD0D5" d="M33.235 6.225h17.5v2.316h-17.5z"/><path fill="#676C72" d="M56.428 30.34V20.193h5.114v-4.761h-5.114v-2.934h7.366v10.34h-4.91v4.853h4.91v2.649h-7.366zm18.518 0h-7.367v-2.603h4.91v-4.833h-4.91v-2.722h4.91v-4.737h-4.91v-2.947h7.367V30.34zM52.809 12.498V30.34h-2.456V12.498h2.456zm-32.769 0h7.367v2.928h-4.913v12.29h2.643v-4.887h-1.28v-2.663h3.55V30.34H20.04V12.498zm13.332 15.291H38.5v2.606h-7.583V12.447h2.455V27.79v-.001zM9.164 12.498h7.366v2.928h-4.912v12.29h2.643v-4.887h-1.28v-2.663h3.55V30.34H9.163V12.498h.001z"/><ellipse cx="29.053" cy="7.383" fill="#CDD0D5" rx="1.75" ry="1.737"/><ellipse cx="54.967" cy="7.383" fill="#CDD0D5" rx="1.75" ry="1.737"/><path fill="#F1B500" d="M42 22.749l-2.914 1.52.556-3.221-2.358-2.281 3.259-.47L42 15.367l1.457 2.93 3.259.47-2.358 2.281.556 3.221z"/></g></svg>