<?xml version="1.0" encoding="utf-8"?>
<!-- Generator: Adobe Illustrator 19.0.1, SVG Export Plug-In . SVG Version: 6.00 Build 0)  -->
<svg version="1.1" id="Layer_1" xmlns="http://www.w3.org/2000/svg" xmlns:xlink="http://www.w3.org/1999/xlink" x="0px" y="0px"
	 width="96px" height="92px" viewBox="0 0 96 92" enable-background="new 0 0 96 92" xml:space="preserve">
<path id="background_1_" fill="#E9E5DC" d="M90.857124,46.938675C90.857124,71.825356,70.68248,92,45.795795,92
	S0.734469,71.825356,0.734469,46.938675S20.909113,1.877346,45.795795,1.877346
	c21.892811,0,40.139103,15.612583,44.212337,36.311203C90.565155,41.019115,90.857124,43.944798,90.857124,46.938675z"/>
<path id="green_1_" fill="#CADFAA" d="M90.00811,38.188534c-0.643372-3.269348-1.642212-6.410767-2.951294-9.384888H71.206169
	v14.487061h19.493042C90.560539,41.561703,90.336479,39.85693,90.00811,38.188534z"/>
<path id="white_road_1_" fill="#FFFFFF" d="M86.105705,26.791561H5.491022c-0.462097,0.922546-0.898803,1.859619-1.298095,2.816956
	h66.147827l-1.192871,12.474915H0.998652c-0.127808,1.192383-0.199951,2.400574-0.23291,3.618958l43.706238,0.00116
	l-8.393066,45.23431c3.130737,0.688416,6.379333,1.062134,9.716858,1.062134c2.537292,0,5.021973-0.220215,7.444885-0.62323
	l-2.0224-45.673031l39.608829,0.001038c-0.032837-1.219482-0.108826-2.427856-0.236755-3.621338H75.327568l-1.678772-12.474915
	h13.744446C86.99456,28.652767,86.566948,27.712582,86.105705,26.791561z"/>
<g id="oval_shadow">
	
		<linearGradient id="SVGID_1_" gradientUnits="userSpaceOnUse" x1="46.329971" y1="472.760498" x2="46.329971" y2="500.760498" gradientTransform="matrix(1 0 0 -1 0 560.873474)">
		<stop  offset="0" style="stop-color:#FFFFFF;stop-opacity:0"/>
		<stop  offset="0.018569" style="stop-color:#DCD8D5;stop-opacity:0.009216"/>
		<stop  offset="0.042815" style="stop-color:#B4ACA4;stop-opacity:0.021248"/>
		<stop  offset="0.067775" style="stop-color:#92867B;stop-opacity:0.033636"/>
		<stop  offset="0.093046" style="stop-color:#766859;stop-opacity:0.046177"/>
		<stop  offset="0.118713" style="stop-color:#61503F;stop-opacity:0.058915"/>
		<stop  offset="0.14493" style="stop-color:#513F2C;stop-opacity:0.071926"/>
		<stop  offset="0.172049" style="stop-color:#483421;stop-opacity:0.085386"/>
		<stop  offset="0.201497" style="stop-color:#45311D;stop-opacity:0.1"/>
	</linearGradient>
	<ellipse fill="url(#SVGID_1_)" cx="46.329971" cy="74.113007" rx="24" ry="14"/>
</g>
<g id="oval_2_">
	<ellipse fill="#FFFFFF" cx="46.329971" cy="71.057526" rx="23.403336" ry="13.7192"/>
</g>
<polygon id="blue_arrow_1_" fill="#397FFB" points="46.329971,60.566376 34.224796,77.661858 35.362682,78.320633 
	46.329971,75.517326 57.29726,78.320633 58.435146,77.661858 "/>
<g id="bubble_large_shadow">
	
		<linearGradient id="SVGID_2_" gradientUnits="userSpaceOnUse" x1="31.066288" y1="516.916687" x2="34.281086" y2="553.661987" gradientTransform="matrix(1 0 0 -1 0 560.873474)">
		<stop  offset="0" style="stop-color:#FFFFFF;stop-opacity:0"/>
		<stop  offset="0.024605" style="stop-color:#F5F4F3;stop-opacity:0.014367"/>
		<stop  offset="0.068674" style="stop-color:#DCD8D4;stop-opacity:0.040098"/>
		<stop  offset="0.127106" style="stop-color:#B3AAA2;stop-opacity:0.074215"/>
		<stop  offset="0.196808" style="stop-color:#7A6C5E;stop-opacity:0.114913"/>
		<stop  offset="0.2569" style="stop-color:#45311D;stop-opacity:0.15"/>
	</linearGradient>
	<path fill="url(#SVGID_2_)" d="M24.585752,37.10006h19.393347l10.030323,8.864021c0,0,0-19.501541,0-23.559622V22.40443
		c0-8.116156-6.579441-14.6956-14.695599-14.6956H24.585752c-8.116156,0-14.6956,6.579444-14.6956,14.6956v0.000029
		C9.890153,30.520615,16.469597,37.10006,24.585752,37.10006z"/>
</g>
<g id="bubble_large_2_">
	<path fill="#F4F4F4" d="M24.786522,34.849182h19.393345l10.030327,8.864021c0,0,0-19.501543,0-23.55962v-0.000031
		c0-8.116156-6.579445-14.6956-14.695599-14.6956H24.786522c-8.116156,0-14.6956,6.579444-14.6956,14.6956v0.000031
		C10.090922,28.269737,16.670366,34.849182,24.786522,34.849182z"/>
</g>
<circle id="red_icon_1_" fill="#DB4437" cx="24.13335" cy="20.173773" r="9.127459"/>
<path id="traffic_icon_1_" fill="#FFFFFF" d="M20.551392,17.947205l-0.645067,1.9638h6.329489l-0.685156-1.9638H20.551392z
	 M20.865725,22.308605c0.410912,0,0.742556-0.3204,0.742556-0.7164c0-0.3978-0.331644-0.7173-0.742556-0.7173
	c-0.411823,0-0.743467,0.3195-0.743467,0.7173C20.122257,21.988205,20.453901,22.308605,20.865725,22.308605z M25.222658,22.298704
	c0.41091,0,0.742556-0.3195,0.742556-0.717299c0-0.396-0.331646-0.7164-0.742556-0.7164
	c-0.411823,0-0.743467,0.3204-0.743467,0.7164C24.479191,21.979204,24.810835,22.298704,25.222658,22.298704z M26.451746,17.502605
	l1.001312,2.8125v3.9303c0,0.27-0.216845,0.4914-0.481068,0.4914h-0.499289c-0.265133,0-0.481066-0.221399-0.481066-0.4914v-0.4779
	h-5.891245v0.4779c0,0.27-0.216845,0.4914-0.481068,0.4914h-0.491089c-0.265133,0-0.481977-0.221399-0.481977-0.4914v-3.9303
	l1.001312-2.8125c0.102045-0.289801,0.366266-0.495901,0.684244-0.495901h5.4366
	C26.08548,17.006704,26.355169,17.212805,26.451746,17.502605z M28.437057,17.219105c-0.278799,0-0.503843,0.2169-0.503843,0.4851
	c0,0.2691,0.225044,0.486,0.503843,0.486c0.277891,0,0.50202-0.2169,0.50202-0.486
	C28.939077,17.436005,28.714949,17.219105,28.437057,17.219105z M29.085768,19.901106h-0.337111
	c-0.180399,0-0.327087-0.149401-0.327087-0.333v-0.625502h-0.624111l-0.856445-2.405699
	c-0.000912-0.003599-0.003645-0.0054-0.004555-0.009001h1.5744l-0.463757-1.3293h-3.185244l-0.276068,0.841501h-0.799955
	l0.341667-1.1115c0.069244-0.196201,0.247822-0.336601,0.462845-0.336601h3.680889c0.215021,0,0.397242,0.1404,0.461931,0.336601
	l0.67878,1.9035v2.736C29.411947,19.751705,29.265259,19.901106,29.085768,19.901106z"/>
<g id="shadow_bubble_small">
	
		<linearGradient id="SVGID_3_" gradientUnits="userSpaceOnUse" x1="86.375648" y1="535.221985" x2="82.420296" y2="557.653931" gradientTransform="matrix(1 0 0 -1 0 560.873474)">
		<stop  offset="0" style="stop-color:#FFFFFF;stop-opacity:0"/>
		<stop  offset="0.079512" style="stop-color:#CCC6C1;stop-opacity:0.058081"/>
		<stop  offset="0.262689" style="stop-color:#4D3A27;stop-opacity:0.191887"/>
		<stop  offset="0.273796" style="stop-color:#45311D;stop-opacity:0.2"/>
	</linearGradient>
	<path fill="url(#SVGID_3_)" d="M86.530243,22.006168h-5.411308l-6.463486,5.711922c0,0,0-12.566675,0-15.181675v-0.000019
		c0-5.230001,4.239754-9.469755,9.469757-9.469755h2.405037C91.760246,3.066641,96,7.306395,96,12.536396v0.000019
		C96,17.766417,91.760246,22.006168,86.530243,22.006168z"/>
</g>
<g id="bubble_small_2_">
	<path fill="#F4F4F4" d="M86.530243,19.677794h-5.411308l-6.463486,5.71192c0,0,0-12.566673,0-15.181675v-0.000019
		c0-5.23,4.239754-9.469753,9.469757-9.469753h2.405037C91.760246,0.738266,96,4.978019,96,10.208019v0.000019
		C96,15.43804,91.760246,19.677794,86.530243,19.677794z"/>
</g>
<path id="work_1_" fill="#5F7D8C" d="M86.255745,6.603775h-2.256874v-1.12844h2.256874V6.603775z M89.641068,6.603775h-2.256882
	v-1.12844c0-0.623463-0.504974-1.128439-1.128441-1.128439h-2.256874c-0.623466,0-1.128441,0.504976-1.128441,1.128439v1.12844
	h-2.256882c-0.623459,0-1.122795,0.504977-1.122795,1.12844l-0.005646,6.206418c0,0.623463,0.504982,1.128439,1.128441,1.128439
	h9.027519c0.623459,0,1.128441-0.504976,1.128441-1.128439V7.732215C90.769508,7.108752,90.264526,6.603775,89.641068,6.603775z"/>
<path id="wave_2_1_" fill="#5F7D8C" d="M37.454403,14.15209L35.7015,15.904993
	c1.115482,1.115484,1.814194,2.672258,1.814194,4.376129s-0.698711,3.260645-1.814194,4.376129l1.752903,1.752905
	c1.569031-1.569033,2.537418-3.738712,2.537418-6.129034S39.023434,15.721121,37.454403,14.15209z"/>
<path id="wave_1_1_" fill="#5F7D8C" d="M44.895046,20.281122c0-3.701937-1.50774-7.060646-3.934837-9.5l-1.728386,1.728386
	c1.985806,1.985807,3.211613,4.743872,3.211613,7.771614s-1.225807,5.785807-3.211613,7.771612l1.728386,1.72839
	C43.387306,27.341766,44.895046,23.983059,44.895046,20.281122z"/>
</svg>
