<?xml version="1.0" encoding="utf-8"?>
<svg version="1.0" id="Layer_1" xmlns="http://www.w3.org/2000/svg" xmlns:xlink="http://www.w3.org/1999/xlink" x="0px" y="0px"
	 width="124" height="124" viewBox="0 0 124 124" enable-background="new 0 0 124 124" xml:space="preserve">
<g id="XMLID_192_">
	<circle id="XMLID_502_" fill="#C6DAFC" cx="62" cy="62" r="62"/>
	<g id="XMLID_354_">
		<path id="XMLID_499_" fill="#1C3AA9" fill-opacity="0.2" d="M81.85,26.08c-0.22-1.01-1.21-1.66-2.23-1.44L3.71,40.84
			C1.31,47.44,0,54.57,0,62c0,22.26,11.74,41.78,29.36,52.72l66.45-14.18c1.01-0.22,1.66-1.21,1.44-2.23L81.85,26.08z"/>
		<g id="XMLID_355_">
			<path id="XMLID_498_" fill="#448AFF" d="M80.77,24.58c-0.22-1.01-1.21-1.66-2.23-1.44L4.43,38.95C1.57,46.07,0,53.85,0,62
				c0,21.4,10.84,40.27,27.34,51.41l67.4-14.38c1.01-0.22,1.66-1.21,1.44-2.23L80.77,24.58z"/>
			<path id="XMLID_285_" fill="#FFFFFF" d="M67.88,52.31c0.29,0,0.58-0.03,0.87-0.09c2.24-0.48,3.67-2.69,3.19-4.93
				c-0.41-1.9-2.11-3.29-4.06-3.29h0c-0.29,0-0.58,0.03-0.87,0.09c-2.24,0.48-3.67,2.69-3.19,4.93
				C64.23,50.92,65.94,52.31,67.88,52.31z M67.29,45.36c0.2-0.04,0.4-0.06,0.6-0.06c1.32,0,2.51,0.92,2.8,2.26
				c0.33,1.55-0.66,3.07-2.2,3.39c-0.2,0.04-0.4,0.06-0.6,0.06c-1.32,0-2.51-0.92-2.8-2.26C64.76,47.21,65.74,45.69,67.29,45.36z"/>
			<path id="XMLID_356_" fill="#FFFFFF" d="M78.48,26.27c-0.05-0.24-0.2-0.45-0.4-0.59c-0.15-0.1-0.33-0.15-0.5-0.15
				c-0.06,0-0.13,0.01-0.19,0.02L3.52,41.37c-0.12,0.34-0.24,0.68-0.35,1.03l74.4-15.93l14.97,69.91l-68.48,14.66
				c0.32,0.25,0.65,0.5,0.97,0.74l67.7-14.5c0.5-0.11,0.82-0.6,0.71-1.1L78.48,26.27z"/>
			<path id="XMLID_221_" fill="#FFFFFF" d="M81.58,63.03L78.5,48.6c-0.08-0.36-0.43-0.59-0.79-0.51c-0.36,0.08-0.59,0.43-0.51,0.79
				l3.02,14.16l-5.87,9.02c-0.52-0.2-1.09-0.24-1.65-0.13c-0.56,0.12-1.04,0.4-1.42,0.76l-13.15-8.52c0.1-0.34,0.14-0.69,0.11-1.04
				l9.56-2.04c0.17-0.04,0.33-0.14,0.42-0.29l2.69-4.2c0.2-0.31,0.11-0.72-0.2-0.92c-0.31-0.2-0.72-0.11-0.92,0.2l-2.54,3.97
				l-9.41,2.01c-0.23-0.39-0.54-0.73-0.93-0.98c-0.66-0.43-1.46-0.58-2.23-0.41c-0.48,0.1-0.92,0.33-1.29,0.64l-10.87-7.04
				c0.19-0.52,0.23-1.07,0.12-1.62c-0.12-0.56-0.39-1.05-0.79-1.45l6.38-9.84l8.26-1.76c0.36-0.08,0.59-0.43,0.51-0.79
				c-0.08-0.36-0.43-0.59-0.79-0.51l-8.53,1.82c-0.17,0.04-0.32,0.14-0.42,0.29l-6.53,10.08c-0.51-0.18-1.06-0.23-1.6-0.11
				c-0.55,0.12-1.04,0.39-1.44,0.77L27.44,44.3c-0.29-0.19-0.68-0.11-0.87,0.19c-0.19,0.29-0.11,0.68,0.19,0.87l10.23,6.62
				c-0.21,0.53-0.26,1.12-0.14,1.69c0.12,0.54,0.38,1.03,0.76,1.42L27.58,70.56c-0.43-0.25-0.9-0.39-1.39-0.41l-1.96-9.2
				c-0.04-0.17-0.14-0.32-0.29-0.42L9.4,51c-0.15-0.1-0.33-0.13-0.51-0.09l-8.2,1.75c-0.07,0.47-0.14,0.94-0.2,1.41l8.4-1.79
				l14.08,9.23l1.9,8.9c-0.52,0.23-0.97,0.6-1.28,1.09c-0.36,0.56-0.51,1.21-0.45,1.86L6.03,77c-0.36,0.08-0.59,0.43-0.51,0.79
				c0.07,0.31,0.34,0.53,0.65,0.53c0.05,0,0.09,0,0.14-0.01l17.24-3.71c0.53,0.88,1.49,1.4,2.53,1.4c0,0,0.01,0,0.01,0L30,94.38
				c0.04,0.17,0.14,0.34,0.29,0.44c0.11,0.07,0.24,0.12,0.36,0.12c0.05,0,0.09,0,0.14-0.01l2.74-0.58c0.11,0.2,0.24,0.39,0.39,0.55
				l-5.01,7.71l-11.51,2.46c0.37,0.38,0.74,0.76,1.12,1.13l10.94-2.33c0.17-0.04,0.32-0.14,0.42-0.29l5.13-7.89
				c0.36,0.15,0.73,0.23,1.12,0.23c0.21,0,0.42-0.02,0.62-0.07c0.77-0.17,1.44-0.62,1.87-1.29c0.27-0.42,0.42-0.9,0.46-1.39
				l26.6-5.68c0.17-0.04,0.32-0.14,0.42-0.29l6.24-9.58c0.29,0.1,0.59,0.16,0.9,0.17l3.79,18.21c0.06,0.3,0.33,0.5,0.62,0.5
				c0.04,0,0.09,0,0.13-0.01c0.34-0.07,0.56-0.41,0.49-0.75l-3.79-18.18c0.54-0.23,1-0.61,1.33-1.11c0.43-0.66,0.58-1.46,0.41-2.23
				c-0.12-0.54-0.38-1.02-0.75-1.41l6.03-9.27C81.59,63.38,81.62,63.2,81.58,63.03z M53.64,63.21c0.01-0.13,0.04-0.27,0.08-0.39v0
				l0,0c0.14-0.41,0.44-0.76,0.84-0.96l0,0h0c0.12-0.06,0.25-0.11,0.39-0.14c0.12-0.03,0.23-0.04,0.35-0.04
				c0.32,0,0.63,0.09,0.9,0.27c0.37,0.24,0.63,0.62,0.72,1.05c0.03,0.13,0.04,0.27,0.03,0.4l0,0c0,0,0,0.01,0,0.01l0,0
				c-0.01,0.3-0.1,0.59-0.26,0.85c-0.15,0.24-0.36,0.42-0.6,0.55c-0.02,0.01-0.04,0.02-0.06,0.03c-0.12,0.06-0.25,0.11-0.39,0.14
				c-0.12,0.03-0.24,0.04-0.35,0.04c0,0-0.01,0-0.01,0c-0.32,0-0.62-0.09-0.9-0.27c-0.22-0.14-0.4-0.34-0.53-0.56l0,0c0,0,0,0,0,0
				c-0.09-0.15-0.16-0.31-0.2-0.49c-0.03-0.14-0.04-0.28-0.03-0.42C53.63,63.26,53.63,63.24,53.64,63.21z M38.07,53.05
				c0-0.11,0.01-0.23,0.04-0.34v0l0,0c0.04-0.2,0.12-0.39,0.23-0.56c0.13-0.2,0.29-0.36,0.48-0.48l0,0c0,0,0,0,0,0
				c0.09-0.06,0.18-0.11,0.27-0.15c0.1-0.04,0.2-0.07,0.3-0.1c0.12-0.03,0.23-0.04,0.35-0.04c0.08,0,0.16,0.03,0.23,0.04l0,0
				c0.46,0.07,0.88,0.31,1.14,0.7v0c0,0,0,0,0,0c0.03,0.04,0.05,0.09,0.08,0.14c0.08,0.14,0.15,0.28,0.18,0.44
				c0.02,0.1,0.03,0.21,0.04,0.31c0,0.1-0.01,0.21-0.02,0.31c0,0,0,0,0,0l0,0c-0.04,0.22-0.12,0.44-0.24,0.64
				c-0.18,0.27-0.42,0.48-0.71,0.61c0,0,0,0,0,0c-0.11,0.05-0.22,0.09-0.33,0.11c-0.11,0.02-0.22,0.04-0.32,0.04
				c-0.33,0.01-0.65-0.09-0.93-0.27c-0.29-0.19-0.5-0.45-0.63-0.76c-0.04-0.09-0.07-0.19-0.09-0.29
				C38.08,53.29,38.07,53.17,38.07,53.05C38.07,53.06,38.07,53.05,38.07,53.05z M26.43,74.74c-0.21,0.04-0.42,0.04-0.62,0.01l0,0
				l0,0c-0.15-0.03-0.3-0.08-0.44-0.14c-0.02-0.01-0.03-0.02-0.05-0.02c-0.13-0.07-0.26-0.15-0.37-0.25c0,0,0,0,0,0l0,0
				c-0.25-0.23-0.43-0.53-0.5-0.88c-0.03-0.13-0.04-0.25-0.03-0.37l0,0c0,0,0,0,0,0c0-0.13,0.02-0.25,0.05-0.38
				c0.01-0.02,0.01-0.04,0.02-0.07c0.03-0.1,0.07-0.2,0.12-0.3c0.01-0.02,0.02-0.04,0.03-0.06c0.06-0.11,0.13-0.21,0.22-0.3
				c0,0,0,0,0,0c0.09-0.1,0.19-0.19,0.31-0.26l0,0l0,0c0.17-0.11,0.36-0.2,0.57-0.24c0.12-0.03,0.24-0.04,0.35-0.04
				c0.13,0,0.26,0.03,0.39,0.06l0,0h0c0.14,0.03,0.27,0.09,0.4,0.16c0,0,0,0,0,0l0,0c0.04,0.02,0.08,0.03,0.12,0.05
				c0.37,0.24,0.63,0.62,0.72,1.05c0.05,0.23,0.05,0.45,0,0.67c0,0.01-0.01,0.02-0.01,0.04c-0.02,0.09-0.04,0.18-0.08,0.26
				c-0.04,0.1-0.09,0.19-0.15,0.28C27.24,74.39,26.86,74.64,26.43,74.74z M33.64,91.33c-0.34,0.52-0.49,1.12-0.47,1.72l-2.01,0.43
				l-3.78-17.73c0.47-0.23,0.88-0.58,1.18-1.04c0.43-0.66,0.58-1.46,0.41-2.23c-0.08-0.36-0.22-0.69-0.41-0.99l10.15-15.67
				c0.33,0.12,0.67,0.19,1.02,0.19c0.21,0,0.42-0.02,0.62-0.07c0.58-0.12,1.09-0.41,1.49-0.82l10.77,6.97
				c-0.27,0.58-0.36,1.23-0.22,1.86c0.11,0.52,0.37,0.99,0.72,1.37l-16.1,24.78c-0.48-0.15-1-0.19-1.5-0.08
				C34.74,90.21,34.07,90.66,33.64,91.33z M37.71,93.45C37.71,93.45,37.71,93.45,37.71,93.45c-0.09,0.27-0.24,0.51-0.44,0.7
				c-0.01,0.01-0.03,0.03-0.05,0.04c-0.08,0.07-0.17,0.14-0.27,0.19c-0.03,0.02-0.06,0.03-0.09,0.05c-0.12,0.06-0.25,0.11-0.39,0.14
				c-0.12,0.03-0.25,0.04-0.37,0.03c-0.01,0-0.01,0-0.02,0c-0.12,0-0.24-0.02-0.36-0.05h0l0,0c-0.18-0.04-0.35-0.11-0.51-0.21
				c-0.37-0.24-0.63-0.62-0.72-1.05c-0.06-0.3-0.04-0.6,0.06-0.88c0-0.01,0-0.02,0.01-0.03c0.04-0.12,0.1-0.24,0.17-0.35
				c0.24-0.37,0.62-0.63,1.05-0.72c0.12-0.03,0.23-0.04,0.35-0.04c0.32,0,0.63,0.09,0.9,0.27c0.16,0.1,0.29,0.23,0.41,0.38l0,0
				c0,0,0,0,0,0c0.15,0.2,0.27,0.42,0.32,0.67C37.83,92.89,37.8,93.18,37.71,93.45L37.71,93.45z M65.12,86.23l-26.25,5.6
				c-0.16-0.39-0.39-0.75-0.7-1.04L54.21,66.1c0.34,0.14,0.71,0.21,1.08,0.21c0.21,0,0.42-0.02,0.62-0.07
				c0.64-0.14,1.19-0.48,1.61-0.96l13.04,8.45c-0.21,0.52-0.27,1.11-0.14,1.7c0.12,0.56,0.39,1.05,0.78,1.45L65.12,86.23z
				 M74.71,75.73c-0.07,0.1-0.15,0.2-0.23,0.28c0,0-0.01,0.01-0.01,0.01c-0.22,0.22-0.5,0.37-0.81,0.44
				c-0.44,0.1-0.88,0.01-1.26-0.23c-0.38-0.24-0.63-0.62-0.72-1.05c-0.03-0.12-0.04-0.24-0.04-0.36c0,0,0-0.01,0-0.01
				c0.01-0.56,0.3-1.07,0.76-1.37l0,0h0c0.08-0.05,0.17-0.1,0.26-0.14c0.09-0.04,0.19-0.07,0.3-0.09c0.12-0.02,0.23-0.04,0.35-0.04
				c0.32,0,0.63,0.09,0.9,0.27c0.38,0.24,0.63,0.62,0.72,1.05v0C75.04,74.91,74.96,75.36,74.71,75.73z"/>
		</g>
	</g>
	<g id="XMLID_291_">
		<path id="XMLID_218_" fill="#1C3AA9" fill-opacity="0.2" d="M100.93,72.99l-2.6-1.18l14.28-5.06l0.73,1.85L100.93,72.99z
			 M118.3,63.52l4.38,11.22c0.05-0.23,0.09-0.45,0.14-0.68l-3.45-8.82l-1.93-5.01l-0.36,0.13L118.3,63.52z M122.6,75.16
			c0.01-0.03,0.01-0.06,0.02-0.09C122.61,75.09,122.6,75.12,122.6,75.16z M122.37,76.18c0.01-0.04,0.02-0.07,0.02-0.11
			C122.38,76.11,122.37,76.15,122.37,76.18z M92.05,76.96l-9.36-4.27l-1.51,0.54l11.94,5.45l24.31,11.1
			c0.17-0.33,0.33-0.67,0.49-1.01L92.05,76.96z M122.12,77.18c0.01-0.02,0.01-0.04,0.02-0.07
			C122.14,77.13,122.13,77.15,122.12,77.18z"/>
		<path id="XMLID_293_" fill="#FFFFFF" fill-opacity="0.75" d="M122.69,74.75l-4.39-11.23l-1.93-5.01l-5.03,1.78L92.33,67.1
			L80.11,71.5l11.94,5.45l25.89,11.81C120.05,84.36,121.66,79.66,122.69,74.75z M112.61,66.75l5.53,14.1L98.33,71.8L112.61,66.75z"
			/>
	</g>
	<g id="XMLID_194_">
		<path id="XMLID_288_" fill="#1C3AA9" fill-opacity="0.2" d="M68.33,99.69l-17.06,23.38c0.5,0.09,1,0.17,1.51,0.25l16.65-22.82
			L68.33,99.69z"/>
		<path id="XMLID_213_" fill="#FFFFFF" d="M41.11,120.39c3.27,1.17,6.66,2.07,10.16,2.68L69,98.77l-7.91-5.77L41.11,120.39z"/>
		<path id="XMLID_217_" fill="#3B78E7" fill-opacity="0.5" d="M51.58,119.59l1.46,1.06l-0.51,0.7l-1.46-1.06L51.58,119.59z
			 M61.9,105.44l1.46,1.06l0.51-0.7l-1.46-1.06L61.9,105.44z M54.39,118.8l-1.46-1.06l-0.51,0.7l1.46,1.06L54.39,118.8z
			 M66.57,102.1l-1.46-1.06l-0.51,0.7l1.46,1.06L66.57,102.1z M51.68,122.51l-2.91-2.13l-0.51,0.7l2.65,1.93
			c0.12,0.02,0.24,0.04,0.36,0.06L51.68,122.51z M63.26,103.58l1.46,1.06l0.51-0.7l-1.46-1.06L63.26,103.58z M59.8,111.37
			l-1.46-1.06l-0.51,0.7l1.46,1.06L59.8,111.37z M62.51,107.66l-2.91-2.13l-0.51,0.7l2.91,2.13L62.51,107.66z M64.51,98.81
			l2.91,2.13l0.51-0.7l-2.91-2.13L64.51,98.81z M59.19,109.15l1.46,1.06l0.51-0.7l-1.46-1.06L59.19,109.15z M57.1,115.08l-2.91-2.13
			l-0.51,0.7l2.91,2.13L57.1,115.08z M55.74,116.94l-1.46-1.06l-0.51,0.7l1.46,1.06L55.74,116.94z M58.45,113.23l-1.46-1.06
			l-0.51,0.7l1.46,1.06L58.45,113.23z"/>
	</g>
	<g id="XMLID_188_">
		<path id="XMLID_190_" fill="#EE4637" d="M67.35,15.1c-5.65,0.08-10.16,4.73-10.08,10.38c0.12,7.71,8.79,11.6,9.96,22.58
			c0.03,0.31,0.3,0.54,0.61,0.54c0.31,0,0.57-0.25,0.6-0.55c0.85-11.02,9.4-15.16,9.28-22.87C77.65,19.53,73,15.02,67.35,15.1z"/>
		<circle id="XMLID_189_" fill="#8F1F1D" cx="67.51" cy="25.33" r="3.58"/>
		<path id="XMLID_187_" fill="#FF8A80" d="M67.37,15.94c5.49-0.08,10.03,4.17,10.36,9.59c0-0.12,0.01-0.23,0.01-0.35
			C77.65,19.53,73,15.02,67.35,15.1c-5.65,0.08-10.16,4.73-10.08,10.38c0,0.12,0.01,0.23,0.02,0.35
			C57.47,20.41,61.88,16.02,67.37,15.94z"/>
	</g>
</g>
</svg>
