<?xml version="1.0" encoding="utf-8"?>
<!-- Generator: Adobe Illustrator 21.0.2, SVG Export Plug-In . SVG Version: 6.00 Build 0)  -->
<svg version="1.1" id="Layer_1" xmlns="http://www.w3.org/2000/svg" xmlns:xlink="http://www.w3.org/1999/xlink" x="0px" y="0px"
	 width="192px" height="192px" viewBox="0 0 192 192" enable-background="new 0 0 192 192" xml:space="preserve">
<path fill="#92DDA6" d="M81.19,87.5l44.45,1.69l-26.25,26.18L81,134.75L81.19,87.5z"/>
<path fill="#F2F3F4" d="M138.12,81.13H88.81c-1.39-0.05-2.48-1.21-2.43-2.6c0,0,0,0,0,0V7.13h-14v71.32c0,1.44-0.78,2.68-2.23,2.68
	H10.39v13h59.77c1.44,0,2.23,1.53,2.23,3v74h14v-74c0-1.44,1-3,2.43-3h76.58v-13L138.12,81.13L138.12,81.13z"/>
<linearGradient id="SVGID_1_" gradientUnits="userSpaceOnUse" x1="-1111.23" y1="-1586.4301" x2="-1063.97" y2="-1586.4301" gradientTransform="matrix(0 1 -1 0 -1507.01 1254.8301)">
	<stop  offset="0.622" style="stop-color:#F2F3F4"/>
	<stop  offset="1" style="stop-color:#FFFFFF"/>
</linearGradient>
<path fill="url(#SVGID_1_)" d="M72.45,143.6h13.94v47.26H72.45V143.6z"/>
<linearGradient id="SVGID_2_" gradientUnits="userSpaceOnUse" x1="-3278.24" y1="3081.02" x2="-3230.98" y2="3081.02" gradientTransform="matrix(0 -1 1 0 -3001.6001 -3223.8501)">
	<stop  offset="0.623" style="stop-color:#F2F3F4"/>
	<stop  offset="1" style="stop-color:#FFFFFF"/>
</linearGradient>
<path fill="url(#SVGID_2_)" d="M72.45,7.13h13.94v47.26H72.45V7.13z"/>
<linearGradient id="SVGID_3_" gradientUnits="userSpaceOnUse" x1="156.53" y1="1839.35" x2="203.79" y2="1839.35" gradientTransform="matrix(1 0 0 1 -34.57 -1751.4099)">
	<stop  offset="0.625" style="stop-color:#F2F3F4"/>
	<stop  offset="1" style="stop-color:#FFFFFF"/>
</linearGradient>
<path fill="url(#SVGID_3_)" d="M121.96,81.13h47.26v13.62h-47.26C121.96,94.75,121.96,81.13,121.96,81.13z"/>
<path fill="#DF382B" d="M170.23,162.86h-17.4c-0.65,0-1.25,0.35-1.58,0.91l-5.34,9.14c-0.3,0.53-0.98,0.7-1.5,0.4
	c-0.19-0.11-0.34-0.27-0.44-0.47l-4.41-9c-0.31-0.62-0.95-1-1.64-1h-18.71c-1.01,0-1.83-0.82-1.83-1.83l0,0V127.3
	c0-1.01,0.82-1.83,1.83-1.83h51c1.01,0,1.83,0.82,1.83,1.83V161c0.02,1-0.77,1.84-1.78,1.86H170.23z"/>
<path fill="#FFFFFF" d="M126.69,137.6h36.06v4.92h-36.06V137.6z M126.69,147.44h26.23v4.92h-26.23V147.44z"/>
<path fill="#4285F4" d="M158.16,48.28H137.1c-0.79,0-1.52,0.42-1.92,1.1l-6.47,11.06c-0.37,0.63-1.18,0.85-1.82,0.48
	c-0.22-0.13-0.41-0.32-0.52-0.56L121,49.52c-0.38-0.76-1.15-1.24-2-1.24H96.39c-1.22,0.01-2.21-0.98-2.22-2.2c0,0,0,0,0,0V5.22
	C94.16,4,95.15,3.01,96.37,3c0,0,0,0,0,0h61.8c1.22-0.01,2.21,0.98,2.22,2.2c0,0,0,0,0,0v40.86
	C160.38,47.29,159.39,48.27,158.16,48.28z"/>
<path fill="#FFFFFF" d="M134.57,13.73l3.88,3.88l-8.79,8.8l-7.08-6.77l-15.15,14.72l4.73,4.77l10.5-10.16l7,7l13.57-13.58l3.89,3.89
	V13.73H134.57z"/>
<path fill="#FABB05" d="M59.09,104.27H40.86c-0.69,0.01-1.33,0.39-1.66,1l-5.6,9.57c-0.34,0.54-1.06,0.7-1.6,0.36
	c-0.17-0.11-0.3-0.25-0.4-0.43l-4.6-9.43c-0.32-0.66-0.99-1.07-1.72-1.07H5.63c-1.06,0-1.92-0.86-1.92-1.92V67
	c0-1.06,0.86-1.92,1.92-1.92h53.46C60.15,65.09,61,65.94,61,67v35.34C61.01,103.4,60.15,104.26,59.09,104.27
	C59.09,104.27,59.09,104.27,59.09,104.27z"/>
<path fill="#FFFFFF" d="M32.47,72.54l3.61,7.35c0.04,0.08,0.12,0.14,0.21,0.16l7.84,1.06c0.16,0.03,0.27,0.17,0.24,0.33
	c-0.01,0.06-0.04,0.11-0.08,0.16l-5.57,5.86c-0.06,0.07-0.09,0.17-0.08,0.26l1.46,8.12c0.03,0.15-0.06,0.3-0.21,0.33
	c-0.06,0.01-0.13,0.01-0.19-0.02l-7.06-3.73c-0.08-0.04-0.18-0.04-0.26,0l-6.94,4c-0.14,0.07-0.31,0.03-0.38-0.11
	c-0.03-0.06-0.04-0.13-0.03-0.19l1.21-8.16c0.01-0.09-0.02-0.19-0.08-0.26L20.41,82c-0.12-0.11-0.13-0.29-0.02-0.41c0,0,0,0,0,0
	c0.04-0.05,0.1-0.08,0.17-0.09l7.81-1.32c0.09-0.02,0.17-0.08,0.21-0.16L32,72.54c0.08-0.13,0.26-0.17,0.39-0.08
	C32.42,72.48,32.45,72.51,32.47,72.54z"/>
<path fill="#F2F3F4" d="M37.69,172.82L178.37,32.04l9.66,9.66L47.36,182.48L37.69,172.82L37.69,172.82z"/>
<linearGradient id="SVGID_4_" gradientUnits="userSpaceOnUse" x1="-1659.0731" y1="2717.4351" x2="-1611.7889" y2="2717.4351" gradientTransform="matrix(0.7071 -0.7071 0.7071 0.7071 -596.1691 -3026.8594)">
	<stop  offset="0.621" style="stop-color:#F2F3F4"/>
	<stop  offset="1" style="stop-color:#FFFFFF"/>
</linearGradient>
<path fill="url(#SVGID_4_)" d="M157.44,72.15l33.42-33.42l-9.57-9.6l-33.42,33.42L157.44,72.15z"/>
<linearGradient id="SVGID_5_" gradientUnits="userSpaceOnUse" x1="-1955.7579" y1="-2610.3955" x2="-1908.4808" y2="-2610.3955" gradientTransform="matrix(-0.7071 0.7071 -0.7071 -0.7071 -3161.6812 -309.9355)">
	<stop  offset="0.622" style="stop-color:#F2F3F4"/>
	<stop  offset="1" style="stop-color:#FFFFFF"/>
</linearGradient>
<path fill="url(#SVGID_5_)" d="M62.34,148.15l-33.42,33.42l9.54,9.56l33.42-33.42C71.88,157.71,62.34,148.15,62.34,148.15z"/>
<path fill="#FFFFFF" d="M41.05,180.09c-0.55,0-1-0.44-1-0.99c0-0.27,0.1-0.52,0.29-0.71l2.91-2.92c0.41-0.36,1.05-0.33,1.41,0.09
	c0.33,0.38,0.33,0.94,0,1.32l-2.91,2.92C41.57,179.99,41.31,180.1,41.05,180.09z M49,172.15c-0.55,0-1-0.44-1-0.99
	c0-0.27,0.1-0.52,0.29-0.71l2.91-2.92c0.41-0.36,1.05-0.33,1.41,0.09c0.33,0.38,0.33,0.94,0,1.32l-2.91,2.92
	C49.51,172.04,49.26,172.15,49,172.15z M56.93,164.15c-0.55,0-1-0.44-1-0.99c0-0.27,0.1-0.52,0.29-0.71l2.91-2.92
	c0.41-0.38,1.05-0.37,1.43,0.04c0.38,0.41,0.37,1.05-0.04,1.43l-2.91,2.92c-0.18,0.19-0.44,0.29-0.7,0.28L56.93,164.15z
	 M64.86,156.21c-0.55,0-1-0.44-1-0.99c0-0.27,0.1-0.52,0.29-0.71l2.85-2.87c0.41-0.36,1.05-0.33,1.41,0.09
	c0.33,0.38,0.33,0.94,0,1.32L65.54,156c-0.19,0.17-0.44,0.27-0.7,0.26L64.86,156.21z M72.79,148.26c-0.55,0-1-0.44-1-0.99
	c0-0.27,0.1-0.52,0.29-0.71l2.92-2.87c0.36-0.42,0.99-0.47,1.41-0.11c0.42,0.36,0.47,0.99,0.11,1.41l0,0
	c-0.03,0.04-0.07,0.08-0.11,0.11l-2.94,2.9c-0.18,0.2-0.43,0.31-0.7,0.31C72.77,148.31,72.79,148.26,72.79,148.26z M80.72,140.32
	c-0.55,0-1-0.44-1-0.99c0-0.27,0.1-0.52,0.29-0.71l2.91-2.92c0.36-0.42,0.99-0.47,1.41-0.11c0.42,0.36,0.47,0.99,0.11,1.41
	c-0.03,0.04-0.07,0.08-0.11,0.11l-2.91,2.92c-0.18,0.21-0.44,0.33-0.72,0.34C80.7,140.37,80.72,140.32,80.72,140.32z M88.65,132.32
	c-0.55,0-1-0.44-1-0.99c0-0.27,0.1-0.52,0.29-0.71l2.91-2.92c0.36-0.42,0.99-0.47,1.41-0.11c0.42,0.36,0.47,0.99,0.11,1.41
	c-0.03,0.04-0.07,0.08-0.11,0.11l-2.91,2.92c-0.17,0.23-0.44,0.37-0.72,0.39C88.63,132.42,88.65,132.32,88.65,132.32z M96.58,124.38
	c-0.55,0-1-0.44-1-0.99c0-0.27,0.1-0.52,0.29-0.71l2.91-2.92c0.41-0.36,1.05-0.33,1.41,0.09c0.33,0.38,0.33,0.94,0,1.32l-2.91,2.92
	c-0.17,0.23-0.44,0.37-0.72,0.39C96.56,124.48,96.58,124.38,96.58,124.38z M104.51,116.38c-0.55,0-1-0.44-1-0.99
	c0-0.27,0.1-0.52,0.29-0.71l2.91-2.92c0.41-0.36,1.05-0.33,1.41,0.09c0.33,0.38,0.33,0.94,0,1.32l-2.91,2.92
	c-0.16,0.25-0.43,0.41-0.72,0.44C104.49,116.53,104.51,116.38,104.51,116.38z M112.44,108.44c-0.55,0-1-0.44-1-0.99
	c0-0.27,0.1-0.52,0.29-0.71l2.91-2.92c0.41-0.36,1.05-0.33,1.41,0.09c0.33,0.38,0.33,0.94,0,1.32l-2.91,2.92
	c-0.16,0.25-0.43,0.41-0.72,0.44C112.42,108.59,112.44,108.44,112.44,108.44z M120.37,100.44c-0.55,0-1-0.44-1-0.99
	c0-0.27,0.1-0.52,0.29-0.71l2.89-2.74c0.39-0.4,1.04-0.4,1.44-0.01s0.4,1.04,0.01,1.44l-2.91,2.92c-0.2,0.19-0.46,0.3-0.74,0.29
	C120.35,100.64,120.37,100.44,120.37,100.44z M128.3,92.5c-0.55,0-1-0.44-1-0.99c0-0.27,0.1-0.52,0.29-0.71l2.91-2.92
	c0.36-0.42,0.99-0.47,1.41-0.11s0.47,0.99,0.11,1.41l0,0c-0.03,0.04-0.07,0.08-0.11,0.11L129,92.41c-0.19,0.19-0.45,0.29-0.72,0.29
	L128.3,92.5L128.3,92.5z M136.23,84.5c-0.55,0-1-0.44-1-0.99c0-0.27,0.1-0.52,0.29-0.71l2.91-2.92c0.36-0.42,0.99-0.47,1.41-0.11
	s0.47,0.99,0.11,1.41l0,0c-0.03,0.04-0.07,0.08-0.11,0.11l-2.91,2.92c-0.14,0.28-0.41,0.48-0.72,0.54
	C136.21,84.75,136.23,84.5,136.23,84.5z M144.16,76.5c-0.55,0-1-0.44-1-0.99c0-0.27,0.1-0.52,0.29-0.71l2.91-2.92
	c0.36-0.42,0.99-0.47,1.41-0.11s0.47,0.99,0.11,1.41l0,0c-0.03,0.04-0.07,0.08-0.11,0.11l-2.91,2.92c-0.13,0.3-0.4,0.52-0.72,0.59
	L144.16,76.5z M152.09,68.56c-0.55,0-1-0.44-1-0.99c0-0.27,0.1-0.52,0.29-0.71l2.91-2.92c0.36-0.42,0.99-0.47,1.41-0.11
	s0.47,0.99,0.11,1.41l0,0c-0.03,0.04-0.07,0.08-0.11,0.11l-2.91,2.92c-0.13,0.3-0.4,0.52-0.72,0.59L152.09,68.56z M160.01,60.56
	c-0.55,0-1-0.44-1-0.99c0-0.27,0.1-0.52,0.29-0.71l2.91-2.92c0.41-0.36,1.05-0.33,1.41,0.09c0.33,0.38,0.33,0.94,0,1.32l-2.91,2.92
	c-0.1,0.33-0.37,0.57-0.71,0.64L160.01,60.56L160.01,60.56z M167.92,53c-0.55,0-1-0.44-1-0.99c0-0.27,0.1-0.52,0.29-0.71l2.91-2.92
	c0.41-0.36,1.05-0.33,1.41,0.09c0.33,0.38,0.33,0.94,0,1.32l-2.91,2.92C168.43,52.89,168.18,53,167.92,53z M175.85,45
	c-0.55,0-1-0.44-1-0.99c0-0.27,0.1-0.52,0.29-0.71l2.91-2.92c0.41-0.36,1.05-0.33,1.41,0.09c0.33,0.38,0.33,0.94,0,1.32l-2.91,2.92
	C176.36,44.89,176.11,45,175.85,45z"/>
</svg>
