<?xml version="1.0" encoding="utf-8"?>
<!-- Generator: Adobe Illustrator 22.0.1, SVG Export Plug-In . SVG Version: 6.00 Build 0)  -->
<svg version="1.1" id="Layer_1" xmlns="http://www.w3.org/2000/svg" xmlns:xlink="http://www.w3.org/1999/xlink" x="0px" y="0px"
	 width="112px" height="112px" viewBox="0 0 112 112" enable-background="new 0 0 112 112" xml:space="preserve">
<rect x="70.86" y="89.25" fill="#DFE1E5" width="4.66" height="1.25"/>
<g>
	<rect x="86.54" y="78.29" fill="#EFF0F2" width="25.46" height="12.21"/>
	<polygon fill="#DFE1E5" points="105.99,63 80.76,62.88 86.54,78.29 112,78.29 	"/>
	<polygon fill="#CDD0D5" points="75.23,90.5 86.54,90.5 86.54,78.29 80.77,62.88 75.23,78.29 	"/>
	<rect x="97.72" y="81.62" fill="#34A853" width="3.04" height="8.88"/>
</g>
<polyline fill="#FFFFFF" points="39.65,90.02 71.86,90.02 71.86,51.05 39.65,51.05 39.45,90.27 "/>
<polygon fill="#FFFFFF" points="25.34,90.64 39.65,90.64 39.65,51.05 32.6,35.49 25.34,51.05 "/>
<polyline fill="#FABB05" points="53.79,90.02 53.79,79.4 57.64,79.4 57.64,90.02 "/>
<linearGradient id="SVGID_1_" gradientUnits="userSpaceOnUse" x1="0" y1="89.8515" x2="26.1017" y2="89.8515">
	<stop  offset="0" style="stop-color:#FFFFFF"/>
	<stop  offset="1" style="stop-color:#DFE1E5"/>
</linearGradient>
<rect y="89.06" fill="url(#SVGID_1_)" width="26.1" height="1.58"/>
<polygon fill="#FFFFFF" points="71.82,51.05 39.45,51.05 32.6,35.49 62.48,35.49 "/>
<path fill="#CDD0D5" d="M32.58,38.47l5.82,12.85l0,38.08l-11.82,0l0-38.07L32.58,38.47 M32.6,35.49l-7.26,15.56l0,39.59l14.31,0
	l0-39.59L32.6,35.49L32.6,35.49z"/>
<path fill="#EFF0F2" d="M30.01,41.9c-0.23,0-0.46,0.13-0.56,0.36l-1.05,2.26c-0.14,0.31-0.01,0.68,0.3,0.83
	c0.09,0.04,0.17,0.06,0.26,0.06c0.23,0,0.46-0.13,0.56-0.36l1.05-2.26c0.15-0.31,0.01-0.68-0.3-0.83
	C30.19,41.92,30.1,41.9,30.01,41.9L30.01,41.9z"/>
<path fill="#EFF0F2" d="M26.85,48.67c-0.23,0-0.46,0.13-0.56,0.36l-0.94,2.02l0,0l0,0v0.26c0,0.34,0.28,0.62,0.62,0.62
	c0.34,0,0.61-0.27,0.62-0.61l0.83-1.77c0.15-0.31,0.01-0.68-0.3-0.83C27.03,48.69,26.94,48.67,26.85,48.67L26.85,48.67z"/>
<path fill="#EFF0F2" d="M25.97,55.67c-0.34,0-0.62,0.28-0.62,0.62c0,0,0,0.53,0,1.1v0c0,0.01,0,0.02,0,0.03v0.02c0,0,0,0,0,0l0,1.34
	c0,0.34,0.28,0.62,0.62,0.62c0.34,0,0.62-0.28,0.62-0.62l0-2.49C26.59,55.95,26.31,55.67,25.97,55.67L25.97,55.67z"/>
<path fill="#EFF0F2" d="M25.97,63.14c-0.34,0-0.62,0.28-0.62,0.62v0.49c0,0.72,0,2,0,2c0,0.34,0.28,0.62,0.62,0.62
	s0.62-0.28,0.62-0.62v-2.49C26.59,63.42,26.31,63.14,25.97,63.14L25.97,63.14z"/>
<path fill="#EFF0F2" d="M25.97,70.61c-0.34,0-0.62,0.28-0.62,0.62v1.82c0,0.38,0,0.68,0,0.68c0,0.34,0.28,0.62,0.62,0.62
	c0.34,0,0.62-0.28,0.62-0.62v-2.49C26.59,70.89,26.31,70.61,25.97,70.61L25.97,70.61z"/>
<path fill="#EFF0F2" d="M25.97,78.08c-0.34,0-0.62,0.28-0.62,0.62c0,0,0,0.95,0,1.67v0.02c0,0,0,0,0,0v0.05c0,0,0,0,0,0.01v0.74
	c0,0.34,0.28,0.62,0.62,0.62c0.34,0,0.62-0.28,0.62-0.62l0-2.49C26.59,78.36,26.31,78.08,25.97,78.08L25.97,78.08z"/>
<path fill="#EFF0F2" d="M25.97,85.55c-0.34,0-0.62,0.28-0.62,0.62l0,2.49c0,0.34,0.28,0.62,0.62,0.62c0.34,0,0.62-0.28,0.62-0.62
	l0-2.49C26.59,85.83,26.31,85.55,25.97,85.55L25.97,85.55z"/>
<path fill="#EFF0F2" d="M28.35,89.4c-0.34,0-0.62,0.28-0.62,0.62c0,0.34,0.28,0.62,0.62,0.62c0,0,0.89,0,1.6,0h0.89
	c0.34,0,0.62-0.28,0.62-0.62c0-0.34-0.28-0.62-0.62-0.62H28.35L28.35,89.4z"/>
<path fill="#EFF0F2" d="M35.82,89.4c-0.34,0-0.62,0.28-0.62,0.62c0,0.34,0.28,0.62,0.62,0.62c0,0,1.04,0,1.77,0h0.72
	c0.34,0,0.62-0.28,0.62-0.62c0-0.34-0.28-0.62-0.62-0.62L35.82,89.4L35.82,89.4z"/>
<path fill="#EFF0F2" d="M39.03,83.89c-0.34,0-0.62,0.28-0.62,0.62l0,2.49c0,0.34,0.28,0.62,0.62,0.62c0.34,0,0.62-0.28,0.62-0.62
	v-2.49C39.65,84.17,39.37,83.89,39.03,83.89L39.03,83.89z"/>
<path fill="#EFF0F2" d="M39.03,76.42c-0.34,0-0.62,0.28-0.62,0.62l0,2.49c0,0.34,0.28,0.62,0.62,0.62c0.34,0,0.62-0.28,0.62-0.62
	l0-2.49C39.65,76.7,39.37,76.42,39.03,76.42L39.03,76.42z"/>
<path fill="#EFF0F2" d="M39.03,68.95c-0.34,0-0.62,0.28-0.62,0.62v2.49c0,0.34,0.28,0.62,0.62,0.62c0.34,0,0.62-0.28,0.62-0.62
	v-1.22c0-0.63,0-1.27,0-1.27C39.65,69.23,39.37,68.95,39.03,68.95L39.03,68.95z"/>
<path fill="#EFF0F2" d="M39.03,61.48c-0.34,0-0.62,0.28-0.62,0.62l0,2.49c0,0.34,0.28,0.62,0.62,0.62c0.34,0,0.62-0.28,0.62-0.62
	l0-2.49C39.65,61.76,39.37,61.48,39.03,61.48L39.03,61.48z"/>
<path fill="#EFF0F2" d="M39.03,54.01c-0.34,0-0.62,0.28-0.62,0.62l0,2.49c0,0.34,0.28,0.62,0.62,0.62c0.34,0,0.62-0.28,0.62-0.62
	v-2.49C39.65,54.29,39.37,54.01,39.03,54.01L39.03,54.01z"/>
<path fill="#EFF0F2" d="M37.48,47.14c-0.09,0-0.17,0.02-0.26,0.06c-0.31,0.14-0.45,0.51-0.31,0.82l1.03,2.27
	c0.1,0.23,0.33,0.37,0.57,0.37c0.09,0,0.17-0.02,0.26-0.06c0.31-0.14,0.45-0.51,0.31-0.82l-1.03-2.27
	C37.94,47.28,37.72,47.14,37.48,47.14L37.48,47.14z"/>
<path fill="#EFF0F2" d="M34.4,40.34c-0.09,0-0.17,0.02-0.26,0.06c-0.31,0.14-0.45,0.51-0.31,0.82l1.03,2.27
	c0.1,0.23,0.33,0.37,0.57,0.37c0.09,0,0.17-0.02,0.26-0.06c0.31-0.14,0.45-0.51,0.31-0.82l-1.03-2.27
	C34.86,40.47,34.63,40.34,34.4,40.34L34.4,40.34z"/>
<path fill="#EFF0F2" d="M32.6,35.49l-1.05,2.26c-0.14,0.31-0.01,0.68,0.3,0.83c0.09,0.04,0.17,0.06,0.26,0.06
	c0.23,0,0.46-0.13,0.56-0.36l0.6-1.29L32.6,35.49L32.6,35.49z"/>
<g>
	<polygon fill="#DFE1E5" points="71.3,51 62.14,36.73 34.47,36.73 34.47,35.49 62.82,35.49 72.34,50.32 	"/>
</g>
<g>
	<polygon fill="#DFE1E5" points="39.65,90.64 39.65,89.4 71.2,89.23 71.2,51.64 40.07,51.64 40.07,50.4 72.44,50.4 72.44,90.47 	"/>
</g>
<path fill="#CDD0D5" d="M43.42,90.61c-0.34,0-0.62-0.28-0.62-0.62c0-0.34,0.28-0.62,0.62-0.63l2.49-0.01c0,0,0,0,0,0
	c0.34,0,0.62,0.28,0.62,0.62c0,0.34-0.28,0.62-0.62,0.63L43.42,90.61C43.42,90.61,43.42,90.61,43.42,90.61z"/>
<path fill="#CDD0D5" d="M50.89,90.58c-0.34,0-0.62-0.28-0.62-0.62c0-0.34,0.28-0.62,0.62-0.63l2.49-0.01c0,0,0,0,0,0
	c0.34,0,0.62,0.28,0.62,0.62c0,0.34-0.28,0.62-0.62,0.63L50.89,90.58C50.89,90.58,50.89,90.58,50.89,90.58z"/>
<path fill="#CDD0D5" d="M58.36,90.54c-0.34,0-0.62-0.28-0.62-0.62c0-0.34,0.28-0.62,0.62-0.63l2.49-0.01c0,0,0,0,0,0
	c0.34,0,0.62,0.28,0.62,0.62c0,0.34-0.28,0.62-0.62,0.63L58.36,90.54C58.36,90.54,58.36,90.54,58.36,90.54z"/>
<path fill="#CDD0D5" d="M65.83,90.5c-0.34,0-0.62-0.28-0.62-0.62c0-0.34,0.28-0.62,0.62-0.63l2.49-0.01c0,0,0,0,0,0
	c0.34,0,0.62,0.28,0.62,0.62c0,0.34-0.28,0.62-0.62,0.63L65.83,90.5C65.83,90.5,65.83,90.5,65.83,90.5z"/>
<path fill="#CDD0D5" d="M71.82,89c-0.34,0-0.62-0.28-0.62-0.62v-2.49c0-0.34,0.28-0.62,0.62-0.62c0.34,0,0.62,0.28,0.62,0.62v2.49
	C72.44,88.72,72.16,89,71.82,89z"/>
<path fill="#CDD0D5" d="M71.82,81.53c-0.34,0-0.62-0.28-0.62-0.62v-2.49c0-0.34,0.28-0.62,0.62-0.62c0.34,0,0.62,0.28,0.62,0.62
	v2.49C72.44,81.25,72.16,81.53,71.82,81.53z"/>
<path fill="#CDD0D5" d="M71.82,74.05c-0.34,0-0.62-0.28-0.62-0.62v-2.49c0-0.34,0.28-0.62,0.62-0.62c0.34,0,0.62,0.28,0.62,0.62
	v2.49C72.44,73.78,72.16,74.05,71.82,74.05z"/>
<path fill="#CDD0D5" d="M71.82,66.58c-0.34,0-0.62-0.28-0.62-0.62v-2.49c0-0.34,0.28-0.62,0.62-0.62c0.34,0,0.62,0.28,0.62,0.62
	v2.49C72.44,66.31,72.16,66.58,71.82,66.58z"/>
<path fill="#CDD0D5" d="M71.82,59.11c-0.34,0-0.62-0.28-0.62-0.62V56c0-0.34,0.28-0.62,0.62-0.62c0.34,0,0.62,0.28,0.62,0.62v2.49
	C72.44,58.83,72.16,59.11,71.82,59.11z"/>
<path fill="#CDD0D5" d="M71.82,51.64h-2.49c-0.34,0-0.62-0.28-0.62-0.62c0-0.34,0.28-0.62,0.62-0.62h2.49
	c0.34,0,0.62,0.28,0.62,0.62C72.44,51.36,72.16,51.64,71.82,51.64z"/>
<path fill="#CDD0D5" d="M64.35,51.64h-2.49c-0.34,0-0.62-0.28-0.62-0.62c0-0.34,0.28-0.62,0.62-0.62h2.49
	c0.34,0,0.62,0.28,0.62,0.62C64.97,51.36,64.69,51.64,64.35,51.64z"/>
<path fill="#CDD0D5" d="M56.88,51.64h-2.49c-0.34,0-0.62-0.28-0.62-0.62c0-0.34,0.28-0.62,0.62-0.62h2.49
	c0.34,0,0.62,0.28,0.62,0.62C57.5,51.36,57.22,51.64,56.88,51.64z"/>
<path fill="#CDD0D5" d="M49.41,51.64h-2.49c-0.34,0-0.62-0.28-0.62-0.62c0-0.34,0.28-0.62,0.62-0.62h2.49
	c0.34,0,0.62,0.28,0.62,0.62C50.03,51.36,49.75,51.64,49.41,51.64z"/>
<path fill="#CDD0D5" d="M41.94,51.64h-2.49c-0.34,0-0.62-0.28-0.62-0.62c0-0.34,0.28-0.62,0.62-0.62h2.49
	c0.34,0,0.62,0.28,0.62,0.62C42.56,51.36,42.28,51.64,41.94,51.64z"/>
<linearGradient id="SVGID_2_" gradientUnits="userSpaceOnUse" x1="14.5619" y1="88.8523" x2="14.5619" y2="60.7996">
	<stop  offset="0" style="stop-color:#FDFDFE"/>
	<stop  offset="4.769862e-03" style="stop-color:#FDFDFE"/>
	<stop  offset="0.6095" style="stop-color:#E7E8EC"/>
	<stop  offset="1" style="stop-color:#DFE1E5"/>
</linearGradient>
<path fill="url(#SVGID_2_)" d="M19.74,71.28L19.74,71.28c1.55,0,2.79-1.33,2.64-2.91c-0.13-1.38-1.37-2.39-2.76-2.39h0
	c-1.33,0-2.41-1.08-2.41-2.41c0-1.39-1.01-2.62-2.39-2.76c-1.58-0.15-2.91,1.09-2.91,2.64v0.11c0,1.33-1.08,2.41-2.41,2.41h0
	c-1.39,0-2.62,1.01-2.76,2.39c-0.15,1.58,1.09,2.91,2.64,2.91l0,0c-1.47,0-2.65,1.19-2.65,2.65v0c0,1.47,1.19,2.65,2.65,2.65l3.58,0
	l0.71,3.64v8.62h1.77v-7.94l3.76-2.28l-0.92-1.51l-3.04,1.84l-0.48-2.37l4.97,0c1.47,0,2.65-1.19,2.65-2.65v0
	C22.39,72.47,21.2,71.28,19.74,71.28z"/>
<path fill="#CDD0D5" d="M71.82,51.28c-0.2,0-0.41-0.1-0.52-0.29l-0.93-1.45c-0.19-0.29-0.1-0.67,0.19-0.86
	c0.29-0.19,0.67-0.1,0.86,0.19l0.93,1.45c0.19,0.29,0.1,0.67-0.19,0.86C72.05,51.25,71.94,51.28,71.82,51.28z"/>
<path fill="#CDD0D5" d="M68.2,45.64c-0.2,0-0.41-0.1-0.52-0.29l-1.34-2.1c-0.19-0.29-0.1-0.67,0.19-0.86
	c0.29-0.19,0.67-0.1,0.86,0.19l1.34,2.1c0.19,0.29,0.1,0.67-0.19,0.86C68.43,45.61,68.31,45.64,68.2,45.64z"/>
<path fill="#CDD0D5" d="M64.16,39.35c-0.2,0-0.41-0.1-0.52-0.29l-1.35-2.1c-0.19-0.29-0.1-0.67,0.19-0.86
	c0.29-0.19,0.67-0.1,0.86,0.19l1.35,2.1c0.19,0.29,0.1,0.67-0.19,0.86C64.4,39.32,64.28,39.35,64.16,39.35z"/>
<path fill="#CDD0D5" d="M58.12,36.73h-2.49c-0.34,0-0.62-0.28-0.62-0.62s0.28-0.62,0.62-0.62h2.49c0.34,0,0.62,0.28,0.62,0.62
	S58.47,36.73,58.12,36.73z"/>
<path fill="#CDD0D5" d="M50.65,36.73h-2.49c-0.34,0-0.62-0.28-0.62-0.62s0.28-0.62,0.62-0.62h2.49c0.34,0,0.62,0.28,0.62,0.62
	S51,36.73,50.65,36.73z"/>
<path fill="#CDD0D5" d="M43.18,36.73h-2.49c-0.34,0-0.62-0.28-0.62-0.62s0.28-0.62,0.62-0.62h2.49c0.34,0,0.62,0.28,0.62,0.62
	S43.53,36.73,43.18,36.73z"/>
<path fill="#CDD0D5" d="M35.71,36.73h-2.49c-0.34,0-0.62-0.28-0.62-0.62s0.28-0.62,0.62-0.62h2.49c0.34,0,0.62,0.28,0.62,0.62
	S36.06,36.73,35.71,36.73z"/>
</svg>
