<svg version="1" xmlns="http://www.w3.org/2000/svg" width="240" height="260" viewBox="0 9.42 240 260" enable-background="new 0 9.42 240 260"><g><path d="M240 82.65l-158.65-1c-1.43 0-2.78.8-3.22 1.95l-5.43 14.22-60.02 171.76 178.15-.18-53.33-158.11 102.5.34v-28.98z" fill="#C5F0FF"/><ellipse cx="103.32" cy="119.66" rx="23.92" ry="2.5" fill="#9CDDEF"/><path d="M125.97 19.82c1.73-3.15 5.69-4.3 8.84-2.57l.6.33c3.15 1.73 4.3 5.69 2.57 8.84l-31.1 56.56c-.05.1-.18.14-.28.08l-.12-.07c-6.44-3.54-8.81-11.71-5.27-18.14l24.76-45.03z" fill="#FFB74D"/><ellipse transform="matrix(.801 -.599 .599 .801 7.873 82.639)" cx="128.13" cy="29.49" rx="1.71" ry="4.8" fill="#FADA80"/><ellipse transform="matrix(.801 -.599 .599 .801 1.067 81.393)" cx="122.86" cy="39.09" rx="1.71" ry="4.8" fill="#FADA80"/><ellipse cx="84.76" cy="44.96" rx="6.97" ry="6.74" fill="#FF3F0B"/><ellipse transform="matrix(-.593 -.805 .805 -.593 116.843 163.545)" cx="99.78" cy="52.22" rx="7.73" ry="6.97" fill="#FF7043"/><ellipse cx="112.7" cy="46.64" rx="6.97" ry="7.73" fill="#FF7043"/><path d="M127.04 54.94c-.76-3.15-2.49-5.15-4.93-5.99-3.26-1.12-2.87-5.26-6.64-6.04-3.73-.78-5.2 3.45-7.04 4.15-1.84.7-5.12 2.19-5.03 8.34l23.64-.46z" fill="#4CAF50"/><path d="M112.24 55.92c.52-2.51 1.84-4.15 3.75-4.88 2.55-.98 2.13-4.24 5.1-4.98 2.92-.73 4.19 2.57 5.67 3.06 1.47.49 4.1 1.58 4.18 6.44l-18.7.36zM102.99 56.08c-.85-3.56-2.81-5.82-5.56-6.76-3.68-1.26-3.17-3.66-6.77-4.41s-4.71 3.85-8.77 4.32c-7.06.82-5.57 7.35-5.57 7.35l26.67-.5z" fill="#00E676"/><path fill="#FADA80" d="M122 111.66h-46v-59.89l5.23 3.26 5.76-3.26 5.49 3.26 6-3.26 5.99 3.26 6.75-3.26 5.5 3.26 5.28-3.26z"/><path fill="#FFB74D" d="M132 111.66h-10v-59.89l5.3 3.52 4.7-3zM107 59.66h5v22h-5zM86 59.66h5v22h-5zM91.17 87.66h15.75l5.25-6h-26.25z"/><path fill="#D8953D" d="M107 78.66h5v3h-5zM86 78.66h5v3h-5z"/><path d="M107.37 37.82c-3.01 1.44-6.72 1.35-9.84-.55s-4.88-5.16-4.96-8.48l-1.25-.76c-.28.34-.54.69-.77 1.07-2.87 4.66-1.28 10.83 3.54 13.78 4.82 2.94 11.06 1.55 13.93-3.12.23-.38.43-.77.6-1.17l-1.25-.77z" fill="#FFC107"/><path d="M148.94 141.41c-.17-.77-5.58 4.62-9.62 9.19-25.17 19.06-29.38 23.75-38.01 26.52 32.29-29.65.07-52.88.47-51.76 3.3 9.39-4.14 43.74-15.19 47.58-7.83-9.35-17.67-18.37-26.96-24.09-2.41-1.49 15.83 36.79 28.35 52.98 3.35.95 25.41 2.95 32.44-2.52 12.33-13.13 29.39-53.97 28.52-57.9z" fill="#00E676"/><path d="M151.2 153.42c-3.65-3.09-8.34-4.16-12.7-3.33 2.02-3.79 2.44-8.41.76-12.72l-1.14-2.91-2.91 1.14c-5.1 1.99-8.5 6.44-9.42 11.45-3.08-3.42-7.65-5.43-12.59-5.02l-3.12.26.26 3.12c.46 5.46 3.75 9.99 8.29 12.3-4.46 1.86-7.96 5.8-9.05 10.88l-.65 3.06 3.06.65c5.68 1.21 11.3-.92 14.81-5.06 1.52 5.21 5.77 9.45 11.45 10.66l3.06.65.65-3.06c.95-4.48-.18-8.91-2.72-12.3 4.56.2 9.15-1.61 12.33-5.37l2.02-2.39-2.39-2.01z" fill="#FF7043"/><circle cx="128.33" cy="156.97" r="5.15" fill="#FFC107"/><path d="M86.5 161.88l-3.8-1.9c-10.2-5.1-14.34-17.51-9.24-27.72l1.9-3.8 3.8 1.9c10.2 5.1 14.34 17.51 9.24 27.72l-1.9 3.8zM116.51 166.3c-3.11-5.38-8.27-8.81-13.92-9.92 4.77-3.93 7.75-9.94 7.54-16.6l-.14-4.24-4.24.14c-11.4.37-20.35 9.91-19.98 21.31l.01.34c-8.34-7.28-21-6.72-28.64 1.42l-2.9 3.1 3.1 2.9c5.42 5.08 12.84 6.65 19.52 4.85-2.8 5.92-2.75 13.07.78 19.17l2.12 3.67 3.67-2.12c6.82-3.94 10.54-11.19 10.31-18.54 6.26 3.87 14.39 4.27 21.21.32l3.67-2.12-2.11-3.68z" fill="#FF7043"/><circle cx="85.95" cy="160.02" r="6.98" fill="#FFC107"/><path d="M122.95 169.85c-1.39 0-3.39.4-5.41 1.08.55-1.2.94-2.33 1.12-3.23.75-3.91-1.82-7.68-5.72-8.42s-7.68 1.82-8.42 5.72c-.15.77-.2 1.77-.18 2.86-1.76-1.56-3.69-2.84-5.11-3.4-3.7-1.46-7.88.36-9.34 4.06s.36 7.88 4.06 9.34c1.3.51 3.32.87 5.46.97-2.12.91-4.05 2.08-5.15 3.1-2.91 2.71-3.07 7.27-.36 10.18s7.27 3.07 10.18.36c1.12-1.04 2.45-2.94 3.52-5.04.25 2.14.76 4.15 1.36 5.42 1.72 3.59 6.01 5.11 9.6 3.39s5.11-6.01 3.39-9.6c-.38-.8-1.03-1.76-1.83-2.75 1.06.23 2.03.36 2.81.36 3.98 0 7.2-3.22 7.21-7.19 0-3.98-3.22-7.21-7.19-7.21z" fill="#FFEA80"/><circle cx="108.88" cy="176.08" r="5.03" fill="#FFC107"/><path d="M110.99 254.92h-15.09c-5.96 0-10.8-4.83-10.8-10.8v-45.9h36.68v45.9c.01 5.96-4.83 10.8-10.79 10.8z" fill="#fff"/><path fill="#FFEA80" d="M85 208.66h37v3h-37z"/><path fill="#FFC107" d="M119.77 224.04l-8.35 7.17-9.77-11.38.43-5.64 2.27-1.96 5.64.43z"/><circle cx="105.24" cy="215.75" r="1.67" fill="#fff"/><ellipse cx="103.45" cy="264.66" rx="15.05" ry="1.82" fill="#9CDDEF"/></g><path d="M189.81 63.98s-9.48-16.77-19.27-13.25c-6.8 2.44-5.06 13.25 2.44 13.34 4.97.05 16.83-.09 16.83-.09z" fill="#FFEA80"/><path d="M189.77 63.98c-2.54-1.79-11.14-9.03-19.02-9.03-2.27 0-4.76 1.89-4.21 3.97.72 2.75 2.96 5.1 6.44 5.14 4.81.06 16.06-.07 16.79-.08z" fill="#FFC107"/><path d="M190 63.98s9.48-16.77 19.27-13.25c6.8 2.44 5.06 13.25-2.44 13.34-4.97.05-16.83-.09-16.83-.09z" fill="#FFEA80"/><path d="M190.04 63.98c2.54-1.79 11.14-9.03 19.02-9.03 2.27 0 4.76 1.89 4.21 3.97-.72 2.75-2.96 5.1-6.44 5.14-4.81.06-16.06-.07-16.79-.08z" fill="#FFC107"/><path d="M190.2 64.52s-8.37-17.35.1-23.39c5.88-4.2 13.77 3.4 9.57 9.61-2.79 4.12-9.67 13.78-9.67 13.78z" fill="#FFEA80"/><path d="M190.05 64.73s-2.65-12.91 4.34-19.47c4.86-4.56 8.96.32 4.9 6.25-2.69 3.93-9.24 13.22-9.24 13.22z" fill="#FFC107"/><path fill="#FF7043" d="M173 64h30v25h-30z"/><path fill="#FF3F0B" d="M203 64h10v25h-10zM199.18 76.23l.57 3.43 2.49-4.66zM198.81 65.47l-3.09 3.25 5.28-.13z"/><path fill="#FF7043" d="M207.55 66.18l-2.42 2.54 4.14-.1zM209.71 76.37l.57 3.47 2.41-3.36zM205.47 83.8l3.48.45-2.52-3.28z"/><path fill="#FF3F0B" d="M192.76 70.85l-3.09 3.25 5.28-.13zM177.99 66.93l-2.77 2.08 4.39 2.93zM184.71 76.34l-2.77 2.08 3.94.78zM190.08 82l1.59 3.09 1.61-2.87zM196.7 84.74l3.7 3.03 1.62-2.86zM176.89 81.96l-1.13 3.28 3.19-.82z"/><path fill="#FFC107" d="M208 64h3v25h-3z"/><path fill="#FFEA80" d="M184 64h7v25h-7z"/><ellipse cx="192.54" cy="96.01" rx="19.8" ry="2.5" fill="#9CDDEF"/></svg>