<svg width="34" height="24" viewBox="0 0 34 24" xmlns="http://www.w3.org/2000/svg"><g fill="none" fill-rule="evenodd"><path d="M0 0h34v24H0z"/><path d="M8 9v7H7v6H3v-6H2V9s.024-2 3-2 3 2 3 2M5 2c1.1 0 2 .9 2 2s-.9 2-2 2-2-.9-2-2 .9-2 2-2m11 7v7h-1v6h-4v-6h-1V9s.024-2 3-2 3 2 3 2m-3-7c1.1 0 2 .9 2 2s-.9 2-2 2-2-.9-2-2 .9-2 2-2" fill="#000" opacity=".54"/><path d="M24 9v7h-1v6h-4v-6h-1V9s.024-2 3-2 3 2 3 2m-3-7c1.1 0 2 .9 2 2s-.9 2-2 2-2-.9-2-2 .9-2 2-2m11 7v7h-1v6h-4v-6h-1V9s.024-2 3-2 3 2 3 2m-3-7c1.1 0 2 .9 2 2s-.9 2-2 2-2-.9-2-2 .9-2 2-2" fill="#E0E0E0"/></g></svg>