<?xml version="1.0" encoding="utf-8"?>
<!-- Generator: Adobe Illustrator 21.1.0, SVG Export Plug-In . SVG Version: 6.00 Build 0)  -->
<svg version="1.0" id="Layer_1" xmlns="http://www.w3.org/2000/svg" xmlns:xlink="http://www.w3.org/1999/xlink" x="0px" y="0px" width="88" height="74"
	 viewBox="0 0 88 74" style="enable-background:new 0 0 88 74;" xml:space="preserve">
<g>
	<g>
		
			<linearGradient id="SVGID_1_" gradientUnits="userSpaceOnUse" x1="-557.2162" y1="-2526.0845" x2="-535.9524" y2="-2526.0845" gradientTransform="matrix(-1 0 0 -1 -469.5374 -2481.0444)">
			<stop  offset="0" style="stop-color:#FFFFFF;stop-opacity:0"/>
			<stop  offset="0.2932" style="stop-color:#B8B9BB;stop-opacity:0.0352"/>
			<stop  offset="0.6347" style="stop-color:#6C6E72;stop-opacity:0.0762"/>
			<stop  offset="0.879" style="stop-color:#3B3F45;stop-opacity:0.1055"/>
			<stop  offset="1" style="stop-color:#292D33;stop-opacity:0.12"/>
		</linearGradient>
		<polygon style="fill:url(#SVGID_1_);" points="87.682,74 66.418,74 66.418,16.08 87.682,16.08 		"/>
		
			<linearGradient id="SVGID_2_" gradientUnits="userSpaceOnUse" x1="-514.9934" y1="-2526.0845" x2="-494.0322" y2="-2526.0845" gradientTransform="matrix(-1 0 0 -1 -469.5374 -2481.0444)">
			<stop  offset="0" style="stop-color:#FFFFFF;stop-opacity:0"/>
			<stop  offset="0.1205" style="stop-color:#EDEDEE;stop-opacity:0.0145"/>
			<stop  offset="0.3633" style="stop-color:#BDBEC0;stop-opacity:0.0436"/>
			<stop  offset="0.7025" style="stop-color:#717478;stop-opacity:0.0843"/>
			<stop  offset="1" style="stop-color:#292D33;stop-opacity:0.12"/>
		</linearGradient>
		<polygon style="fill:url(#SVGID_2_);" points="45.459,74 24.497,74 24.497,16.08 45.459,16.08 		"/>
		<linearGradient id="SVGID_3_" gradientUnits="userSpaceOnUse" x1="9.094947e-13" y1="45.04" x2="23.932" y2="45.04">
			<stop  offset="0" style="stop-color:#FFFFFF;stop-opacity:0"/>
			<stop  offset="0.099" style="stop-color:#CFD0D2;stop-opacity:0.0119"/>
			<stop  offset="0.2065" style="stop-color:#A4A5A8;stop-opacity:0.0248"/>
			<stop  offset="0.3191" style="stop-color:#7E8084;stop-opacity:0.0383"/>
			<stop  offset="0.4354" style="stop-color:#5F6266;stop-opacity:0.0522"/>
			<stop  offset="0.5567" style="stop-color:#474B50;stop-opacity:0.0668"/>
			<stop  offset="0.6851" style="stop-color:#363A40;stop-opacity:0.0822"/>
			<stop  offset="0.8254" style="stop-color:#2C3036;stop-opacity:0.099"/>
			<stop  offset="1" style="stop-color:#292D33;stop-opacity:0.12"/>
		</linearGradient>
		<rect x="0" y="16.08" style="fill:url(#SVGID_3_);" width="23.932" height="57.92"/>
		<linearGradient id="SVGID_4_" gradientUnits="userSpaceOnUse" x1="45.155" y1="45.04" x2="66.4189" y2="45.04">
			<stop  offset="0" style="stop-color:#FFFFFF;stop-opacity:0"/>
			<stop  offset="0.099" style="stop-color:#CFD0D2;stop-opacity:0.0119"/>
			<stop  offset="0.2065" style="stop-color:#A4A5A8;stop-opacity:0.0248"/>
			<stop  offset="0.3191" style="stop-color:#7E8084;stop-opacity:0.0383"/>
			<stop  offset="0.4354" style="stop-color:#5F6266;stop-opacity:0.0522"/>
			<stop  offset="0.5567" style="stop-color:#474B50;stop-opacity:0.0668"/>
			<stop  offset="0.6851" style="stop-color:#363A40;stop-opacity:0.0822"/>
			<stop  offset="0.8254" style="stop-color:#2C3036;stop-opacity:0.099"/>
			<stop  offset="1" style="stop-color:#292D33;stop-opacity:0.12"/>
		</linearGradient>
		<rect x="45.155" y="16.08" style="fill:url(#SVGID_4_);" width="21.264" height="57.92"/>
		<polygon style="fill:#EFF0F2;" points="24.261,74 2.972,68.818 2.972,10.78 24.261,15.962 		"/>
		<polygon style="fill:#DFE1E5;" points="45.508,68.818 24.218,74 24.218,15.962 45.508,10.78 		"/>
		<polygon style="fill:#EFF0F2;" points="66.754,74 45.464,68.818 45.464,10.78 66.754,15.962 		"/>
		<polygon style="fill:#DFE1E5;" points="88,68.818 66.71,74 66.71,15.962 88,10.78 		"/>
	</g>
	<g>
		<path id="XMLID_6_" style="fill:#DF382B;" d="M53.999,23.416c-1.277-4.647-5.957-7.434-10.797-6.454
			c-5.833,1.181-8.962,7.567-6.248,12.783c0.549,1.055,1.157,2.082,1.78,3.095c0.777,1.262,1.614,2.488,2.397,3.746
			c1.681,2.701,3.013,5.557,3.741,8.671c0.08,0.341,0.162,0.681,0.246,1.03c0.431-1.404,0.799-2.787,1.279-4.128
			c0.989-2.76,2.538-5.227,4.112-7.682c0.963-1.502,1.88-3.038,2.742-4.6C54.375,27.84,54.616,25.66,53.999,23.416z"/>
		<circle id="XMLID_5_" style="fill:#90130E;" cx="45.127" cy="25.312" r="3.287"/>
	</g>
	<g>
		<path style="fill:none;stroke:#90130E;stroke-width:3.0609;stroke-miterlimit:10;" d="M29.426,9.639
			c3.975-4.354,9.696-7.086,16.056-7.086s12.081,2.732,16.056,7.086"/>
		<path style="fill:none;stroke:#4285F4;stroke-width:3.0609;stroke-miterlimit:10;" d="M61.538,9.639
			c-3.975-4.354-9.696-7.086-16.056-7.086S33.401,5.285,29.426,9.639"/>
		<path style="fill:none;stroke:#4285F4;stroke-width:3.0609;stroke-miterlimit:10;" d="M34.921,15.134
			c2.565-2.956,6.34-4.833,10.56-4.833s7.995,1.877,10.56,4.833"/>
	</g>
</g>
</svg>
