<svg version="1.0" id="Layer_1" xmlns="http://www.w3.org/2000/svg" xmlns:xlink="http://www.w3.org/1999/xlink" x="0px" y="0px"
	 width="320px" height="185px" enable-background="new 0 0 320 185" xml:space="preserve">
<linearGradient id="svg1" gradientUnits="userSpaceOnUse" x1="244.3832" y1="339.3442" x2="259.2178" y2="339.3442" gradientTransform="matrix(1 0 0.0206 0.8144 12.6737 -113.967)">
	<stop  offset="0" style="stop-color:#292D33;stop-opacity:0"/>
	<stop  offset="0.1889" style="stop-color:#2C3036;stop-opacity:0.0378"/>
	<stop  offset="0.3452" style="stop-color:#373A40;stop-opacity:0.0691"/>
	<stop  offset="0.49" style="stop-color:#484C51;stop-opacity:0.0981"/>
	<stop  offset="0.6279" style="stop-color:#606469;stop-opacity:0.1257"/>
	<stop  offset="0.7608" style="stop-color:#808388;stop-opacity:0.1523"/>
	<stop  offset="0.8881" style="stop-color:#A5A9AE;stop-opacity:0.1778"/>
	<stop  offset="0.999" style="stop-color:#CDD0D5;stop-opacity:0.2"/>
</linearGradient>
<polygon fill="url(#svg1)" points="264.07,161.54 278.87,161.54 278.87,163.28 264.08,163.28 "/>
<linearGradient id="svg2" gradientUnits="userSpaceOnUse" x1="-7.5401" y1="339.3063" x2="37.0493" y2="339.3063" gradientTransform="matrix(1 0 0.0206 0.8144 12.6737 -113.967)">
	<stop  offset="0" style="stop-color:#292D33;stop-opacity:0"/>
	<stop  offset="0.1889" style="stop-color:#2C3036;stop-opacity:0.0378"/>
	<stop  offset="0.3452" style="stop-color:#373A40;stop-opacity:0.0691"/>
	<stop  offset="0.49" style="stop-color:#484C51;stop-opacity:0.0981"/>
	<stop  offset="0.6279" style="stop-color:#606469;stop-opacity:0.1257"/>
	<stop  offset="0.7608" style="stop-color:#808388;stop-opacity:0.1523"/>
	<stop  offset="0.8881" style="stop-color:#A5A9AE;stop-opacity:0.1778"/>
	<stop  offset="0.999" style="stop-color:#CDD0D5;stop-opacity:0.2"/>
</linearGradient>
<polygon fill="url(#svg2)" points="12.11,161.51 56.7,161.51 56.7,163.25 12.18,163.25 "/>
<linearGradient id="svg3" gradientUnits="userSpaceOnUse" x1="0" y1="181.4856" x2="319.8464" y2="181.4856">
	<stop  offset="0" style="stop-color:#FFFFFF"/>
	<stop  offset="0.5" style="stop-color:#E7E7E7"/>
	<stop  offset="1" style="stop-color:#FFFFFF"/>
</linearGradient>
<rect y="177.97" fill="url(#svg3)" width="319.85" height="7.03"/>
<path fill="#34A853" d="M99,75.38c0-0.52-0.42-0.95-0.95-0.95l-26.31,0c-0.52,0-0.95,0.42-0.95,0.95l0,17.39
	c0,0.52,0.42,0.95,0.95,0.95l9.65,0c0.36,0,0.69,0.2,0.85,0.53l2.27,4.62c0.2,0.41,0.77,0.43,1,0.04l2.75-4.71
	c0.17-0.29,0.48-0.47,0.82-0.47l8.97,0c0.52,0,0.95-0.42,0.95-0.95L99,75.38z M87.93,85.34l0.72,4.17l-3.75-1.97l-3.75,1.97
	l0.72-4.17l-3.03-2.96l4.19-0.61l1.87-3.8l1.87,3.8l4.19,0.61L87.93,85.34z"/>
<path fill="#FABB05" d="M39.35,139.9l-0.78-9.39c-0.26-1.41-1.56-2.41-3.03-2.26c-1.33,0.14-2.34,1.27-2.49,2.59l-1.18,10.49
	c-0.1,0.88-0.68,1.62-1.51,1.93l-5.47,2.05l5.8,15.48c0.73,1.96,2.91,2.95,4.87,2.22l18.42-6.9l-7.13-19.02L39.35,139.9z"/>
<linearGradient id="svg4" gradientUnits="userSpaceOnUse" x1="-2919.0703" y1="1878.8055" x2="-2901.4688" y2="1878.8055" gradientTransform="matrix(0.9364 -0.3508 0.3508 0.9364 2102.8062 -2628.6929)">
	<stop  offset="0" style="stop-color:#FABB05"/>
	<stop  offset="0.2585" style="stop-color:#F9B70C"/>
	<stop  offset="0.6278" style="stop-color:#F6AC1F"/>
	<stop  offset="0.9945" style="stop-color:#F39E38"/>
</linearGradient>
<path fill="url(#svg4)" d="M39.39,139.89l0.22,2.25c0.54,7.04-3.72,13.33-10.02,15.68l1.12,2.98c0.73,1.96,2.91,2.95,4.87,2.22
	l12.94-4.85l-7.13-19.02L39.39,139.89z"/>
<path fill="#FABB05" d="M49.26,136.19l-7.04,2.64c-1.31,0.49-1.98,1.95-1.49,3.27l0,0c0.49,1.31,1.95,1.98,3.27,1.49l7.04-2.64
	c1.3-0.49,1.96-1.93,1.47-3.23l-0.02-0.05C52,136.36,50.55,135.71,49.26,136.19z"/>
<path fill="#FABB05" d="M50.59,141.12l-7.04,2.64c-1.31,0.49-1.98,1.95-1.49,3.27l0,0c0.49,1.31,1.95,1.98,3.27,1.49l7.04-2.64
	c1.3-0.49,1.96-1.93,1.47-3.23l-0.02-0.05C53.33,141.29,51.88,140.63,50.59,141.12z"/>
<path fill="#FABB05" d="M52.14,145.96l-7.04,2.64c-1.31,0.49-1.98,1.95-1.49,3.27l0,0c0.49,1.31,1.95,1.98,3.27,1.49l7.04-2.64
	c1.3-0.49,1.96-1.93,1.47-3.23l-0.02-0.05C54.88,146.13,53.44,145.47,52.14,145.96z"/>
<path fill="#FABB05" d="M53.24,150.97l-7.04,2.64c-1.31,0.49-1.98,1.95-1.49,3.27h0c0.49,1.31,1.95,1.98,3.27,1.49l7.04-2.64
	c1.3-0.49,1.96-1.93,1.47-3.23l-0.02-0.05C55.99,151.14,54.54,150.48,53.24,150.97z"/>
<rect x="55.48" y="107.18" fill="#9AA0A6" width="57.71" height="5.73"/>
<rect x="56.66" y="112.91" fill="#DADCE0" width="56.53" height="50.31"/>
<rect x="63.15" y="119.39" fill="#F1F3F4" width="43.56" height="14.71"/>
<rect x="89.05" y="143.95" fill="#F1F3F4" width="17.6" height="14.71"/>
<linearGradient id="svg5" gradientUnits="userSpaceOnUse" x1="96.3746" y1="138.0649" x2="113.1893" y2="138.0649">
	<stop  offset="0" style="stop-color:#DADCE0;stop-opacity:0"/>
	<stop  offset="0.5546" style="stop-color:#D6D8DC;stop-opacity:0.3882"/>
	<stop  offset="1" style="stop-color:#CDCFD4;stop-opacity:0.7"/>
</linearGradient>
<polygon fill="url(#svg5)" points="96.37,163.22 113.19,163.22 113.19,112.91 96.37,124.28 "/>
<rect x="65.34" y="144.1" fill="#F1F3F4" width="13.74" height="19.16"/>
<linearGradient id="svg6" gradientUnits="userSpaceOnUse" x1="-3793.7361" y1="150.4905" x2="-3793.7361" y2="144.0973" gradientTransform="matrix(1 0 0 1 3865.9451 0)">
	<stop  offset="0" style="stop-color:#FFFFFF;stop-opacity:0"/>
	<stop  offset="0.2974" style="stop-color:#FDFDFD;stop-opacity:0.119"/>
	<stop  offset="0.4668" style="stop-color:#F4F4F5;stop-opacity:0.1867"/>
	<stop  offset="0.6041" style="stop-color:#E6E7E7;stop-opacity:0.2416"/>
	<stop  offset="0.7241" style="stop-color:#D3D3D4;stop-opacity:0.2896"/>
	<stop  offset="0.8329" style="stop-color:#B9BABB;stop-opacity:0.3332"/>
	<stop  offset="0.9321" style="stop-color:#9A9B9D;stop-opacity:0.3729"/>
	<stop  offset="1" style="stop-color:#808184;stop-opacity:0.4"/>
</linearGradient>
<rect x="65.34" y="144.1" fill="url(#svg6)" width="13.74" height="6.39"/>
<rect x="71.68" y="145.55" fill="#9AA0A6" width="1.05" height="17.7"/>
<path fill="#9AA0A6" d="M80,145.55c-0.14-4.15-3.54-7.47-7.73-7.47h-0.13c-4.19,0-7.59,3.32-7.73,7.47H80z"/>
<linearGradient id="svg7" gradientUnits="userSpaceOnUse" x1="-3792.928" y1="141.965" x2="-3787.3174" y2="141.965" gradientTransform="matrix(1 0 0 1 3865.9451 0)">
	<stop  offset="0" style="stop-color:#969CA1"/>
	<stop  offset="1" style="stop-color:#808184"/>
</linearGradient>
<path opacity="0.2" fill="url(#svg7)" d="M76.49,144.82c0.01,0.25,0.01,0.49,0,0.74H80c-0.12-3.42-2.45-6.28-5.61-7.18
	C75.63,140.23,76.39,142.45,76.49,144.82z"/>
<rect x="113.19" y="40.26" fill="#4688F1" width="92.97" height="122.98"/>
<rect x="119.06" y="49.44" fill="#FFFFFF" width="81.22" height="104.61"/>
<path fill="#9AA0A6" d="M180.56,43.8c-10.39-0.02-13.57-3.62-14.18-9.27c0.02-0.23,0.04-0.46,0.04-0.69
	c0.01-3.58-2.89-6.49-6.47-6.49c-3.58-0.01-6.49,2.89-6.49,6.47c-0.44,6.05-3.47,9.94-14.28,9.92c-10.81-0.02-15.14,9.05-15.14,9.05
	l32.96,0.05l2.7,0l35.99,0.06C195.68,52.9,191.37,43.82,180.56,43.8z M159.93,36.99c-1.75,0-3.16-1.42-3.16-3.17
	s1.42-3.16,3.17-3.16c1.75,0,3.16,1.42,3.16,3.17S161.68,36.99,159.93,36.99z"/>
<path fill="#E2E2E2" d="M162.77,71.09h-30.36c-1.29,0-2.33-1.04-2.33-2.33v-0.34c0-1.29,1.04-2.33,2.33-2.33l30.36,0
	c1.29,0,2.33,1.04,2.33,2.33v0.34C165.1,70.05,164.06,71.09,162.77,71.09z"/>
<path fill="#E2E2E2" d="M162.77,94.29h-30.36c-1.29,0-2.33-1.04-2.33-2.33v-0.34c0-1.29,1.04-2.33,2.33-2.33h30.36
	c1.29,0,2.33,1.04,2.33,2.33v0.34C165.1,93.25,164.06,94.29,162.77,94.29z"/>
<path fill="#E2E2E2" d="M162.77,117.54h-30.36c-1.29,0-2.33-1.04-2.33-2.33v-0.34c0-1.29,1.04-2.33,2.33-2.33h30.36
	c1.29,0,2.33,1.04,2.33,2.33v0.34C165.1,116.49,164.06,117.54,162.77,117.54z"/>
<path fill="#E2E2E2" d="M162.77,140.78h-30.36c-1.29,0-2.33-1.04-2.33-2.33v-0.34c0-1.29,1.04-2.33,2.33-2.33h30.36
	c1.29,0,2.33,1.04,2.33,2.33v0.34C165.1,139.74,164.06,140.78,162.77,140.78z"/>
<path fill="#4688F1" d="M182.89,99.07c-4.02,0-7.29-3.27-7.29-7.29c0-4.02,3.27-7.29,7.29-7.29s7.29,3.27,7.29,7.29
	C190.18,95.8,186.91,99.07,182.89,99.07z M182.89,85.55c-3.44,0-6.24,2.8-6.24,6.24c0,3.44,2.8,6.24,6.24,6.24s6.24-2.8,6.24-6.24
	C189.12,88.35,186.33,85.55,182.89,85.55z"/>
<path fill="#4688F1" d="M182.89,96.48c-2.04,0-3.83-1.3-4.46-3.23c-0.09-0.28,0.06-0.57,0.33-0.66c0.28-0.09,0.57,0.06,0.66,0.34
	c0.49,1.5,1.88,2.51,3.47,2.51c1.58,0,2.97-1.01,3.47-2.51c0.09-0.28,0.39-0.42,0.66-0.33c0.28,0.09,0.43,0.39,0.33,0.66
	C186.72,95.18,184.92,96.48,182.89,96.48z"/>
<path fill="#3AA756" d="M187.45,74.51h-8.87c-1.36,0-2.47-1.11-2.47-2.47v-7.49h3.09c0.19,0,0.36-0.11,0.45-0.28l2.11-4.15
	c0.39-0.77,1.26-1.15,2.06-0.91c0.85,0.25,1.38,1.1,1.23,1.98l-0.83,2.95c-0.04,0.14,0.02,0.24,0.05,0.29
	c0.04,0.05,0.12,0.13,0.26,0.13h2.92V74.51z M177.16,65.6v6.44c0,0.78,0.64,1.42,1.42,1.42h7.82V65.6h-1.87
	c-0.43,0-0.83-0.2-1.1-0.54c-0.26-0.35-0.35-0.79-0.23-1.2l0.82-2.9c0.05-0.3-0.16-0.64-0.5-0.74c-0.32-0.09-0.67,0.07-0.83,0.38
	l-2.11,4.15c-0.27,0.52-0.8,0.85-1.39,0.85H177.16z"/>
<g>
	<path fill="#FFFFFF" d="M187.91,67.3h-3.45c-0.57,0-1.04,0.46-1.04,1.04v0.15c0,0.57,0.46,1.04,1.04,1.04h3.45
		c0.57,0,1.03-0.46,1.03-1.03v-0.17C188.93,67.76,188.47,67.3,187.91,67.3z"/>
	<path fill="#3AA756" d="M187.91,70.05h-3.45c-0.86,0-1.56-0.7-1.56-1.56v-0.15c0-0.86,0.7-1.56,1.56-1.56h3.45
		c0.86,0,1.55,0.7,1.55,1.55v0.17C189.46,69.35,188.76,70.05,187.91,70.05z M184.46,67.82c-0.28,0-0.51,0.23-0.51,0.51v0.15
		c0,0.28,0.23,0.51,0.51,0.51h3.45c0.28,0,0.5-0.23,0.5-0.5v-0.17c0-0.28-0.22-0.5-0.5-0.5H184.46z"/>
</g>
<g>
	<path fill="#FFFFFF" d="M187.8,69.53h-3.45c-0.57,0-1.04,0.46-1.04,1.04v0.15c0,0.57,0.46,1.04,1.04,1.04h3.45
		c0.57,0,1.03-0.46,1.03-1.03v-0.17C188.83,69.99,188.37,69.53,187.8,69.53z"/>
	<path fill="#3AA756" d="M187.8,72.28h-3.45c-0.86,0-1.56-0.7-1.56-1.56v-0.15c0-0.86,0.7-1.56,1.56-1.56h3.45
		c0.86,0,1.55,0.7,1.55,1.55v0.17C189.35,71.58,188.66,72.28,187.8,72.28z M184.35,70.05c-0.28,0-0.51,0.23-0.51,0.51v0.15
		c0,0.28,0.23,0.51,0.51,0.51h3.45c0.28,0,0.5-0.23,0.5-0.5v-0.17c0-0.28-0.22-0.5-0.5-0.5H184.35z"/>
</g>
<g>
	<path fill="#FFFFFF" d="M187.48,71.75h-3.45c-0.57,0-1.04,0.46-1.04,1.04v0.15c0,0.57,0.46,1.04,1.04,1.04h3.45
		c0.57,0,1.03-0.46,1.03-1.03v-0.17C188.51,72.21,188.05,71.75,187.48,71.75z"/>
	<path fill="#3AA756" d="M187.48,74.51h-3.45c-0.86,0-1.56-0.7-1.56-1.56v-0.15c0-0.86,0.7-1.56,1.56-1.56h3.45
		c0.86,0,1.55,0.7,1.55,1.55v0.17C189.03,73.81,188.34,74.51,187.48,74.51z M184.04,72.28c-0.28,0-0.51,0.23-0.51,0.51v0.15
		c0,0.28,0.23,0.51,0.51,0.51h3.45c0.28,0,0.5-0.23,0.5-0.5v-0.17c0-0.28-0.22-0.5-0.5-0.5H184.04z"/>
</g>
<path fill="#FABB05" d="M187.53,144.89l-4.64-2.44l-4.64,2.44l0.89-5.17l-3.75-3.66l5.19-0.75l2.32-4.7l2.32,4.7l5.19,0.75
	l-3.75,3.66L187.53,144.89z M182.89,141.26l3.25,1.71l-0.62-3.62l2.63-2.56l-3.63-0.53l-1.62-3.29l-1.62,3.29l-3.63,0.53l2.63,2.56
	l-0.62,3.62L182.89,141.26z"/>
<circle fill="#4688F1" cx="180.68" cy="90.37" r="1.26"/>
<circle fill="#4688F1" cx="185.1" cy="90.37" r="1.26"/>
<g>
	<path fill="#FFFFFF" d="M187.59,109.97c-1.56-1.56-4.09-1.56-5.65,0c-1.56-1.56-4.09-1.56-5.65,0c-1.56,1.56-1.56,4.09,0,5.65
		l5.65,5.65l5.65-5.65C189.15,114.06,189.15,111.53,187.59,109.97z"/>
	<path fill="#DD3A33" d="M181.94,122.01l-6.02-6.02c-0.85-0.85-1.32-1.99-1.32-3.2c0-1.21,0.47-2.34,1.32-3.2
		c1.64-1.64,4.25-1.75,6.02-0.33c1.77-1.42,4.38-1.31,6.02,0.33l0,0c0.85,0.85,1.32,1.99,1.32,3.2c0,1.21-0.47,2.34-1.32,3.2
		L181.94,122.01z M179.11,109.32c-0.89,0-1.78,0.34-2.45,1.01c-0.66,0.66-1.02,1.53-1.02,2.45c0,0.93,0.36,1.8,1.02,2.45l5.28,5.28
		l5.28-5.28c0.66-0.66,1.02-1.53,1.02-2.45c0-0.93-0.36-1.8-1.02-2.45c-1.35-1.35-3.55-1.35-4.91,0l-0.37,0.37l-0.37-0.37
		C180.89,109.66,180,109.32,179.11,109.32z"/>
</g>
<rect x="185" y="65" fill="#FFFFFF" width="3" height="2"/>
<path fill="#3AA756" d="M188.12,67.82h-3.45c-0.86,0-1.56-0.7-1.56-1.56v-0.15c0-0.86,0.7-1.56,1.56-1.56h3.45
	c0.86,0,1.55,0.7,1.55,1.55v0.17C189.67,67.13,188.97,67.82,188.12,67.82z M184.67,65.6c-0.28,0-0.51,0.23-0.51,0.51v0.15
	c0,0.28,0.23,0.51,0.51,0.51h3.45c0.28,0,0.5-0.23,0.5-0.5V66.1c0-0.28-0.22-0.5-0.5-0.5H184.67z"/>
<rect x="206.16" y="78.69" fill="#9AA0A6" width="60.29" height="5.73"/>
<rect x="206.16" y="84.41" fill="#DADCE0" width="59.11" height="78.82"/>
<rect x="213.85" y="113.06" fill="#F1F3F4" width="16.57" height="12.53"/>
<rect x="239.74" y="113.06" fill="#F1F3F4" width="16.95" height="12.53"/>
<rect x="213.85" y="91.14" fill="#F1F3F4" width="16.57" height="12.53"/>
<rect x="239.74" y="91.14" fill="#F1F3F4" width="16.95" height="12.53"/>
<rect x="227.19" y="144.44" fill="#F1F3F4" width="17.05" height="18.8"/>
<path fill="#9AA0A6" d="M225.71,144.44c0.18-5.32,4.55-9.59,9.91-9.59h0.17c5.37,0,9.73,4.26,9.91,9.59H225.71z"/>
<linearGradient id="svg8" gradientUnits="userSpaceOnUse" x1="-15480.9678" y1="139.8359" x2="-15473.7695" y2="139.8359" gradientTransform="matrix(-1 0 0 1 -15246.2939 0)">
	<stop  offset="0" style="stop-color:#969CA1"/>
	<stop  offset="1" style="stop-color:#808184"/>
</linearGradient>
<path opacity="0.2" fill="url(#svg8)" d="M230.22,143.5c-0.01,0.32-0.01,0.63,0,0.94h-4.5c0.15-4.39,3.14-8.06,7.2-9.21
	C231.32,137.61,230.35,140.46,230.22,143.5z"/>
<rect x="235.19" y="144.44" fill="#9AA0A6" width="1.05" height="18.78"/>
<path fill="#9AA0A6" d="M238.51,156.17c-0.29,0-0.53-0.24-0.53-0.53v-3.63c0-0.29,0.24-0.53,0.53-0.53s0.53,0.24,0.53,0.53v3.63
	C239.03,155.94,238.8,156.17,238.51,156.17z"/>
<path fill="#9AA0A6" d="M232.92,156.17c-0.29,0-0.53-0.24-0.53-0.53v-3.63c0-0.29,0.24-0.53,0.53-0.53s0.53,0.24,0.53,0.53v3.63
	C233.44,155.94,233.21,156.17,232.92,156.17z"/>
<linearGradient id="svg9" gradientUnits="userSpaceOnUse" x1="235.7116" y1="152.3829" x2="235.7116" y2="144.4402">
	<stop  offset="0" style="stop-color:#FFFFFF;stop-opacity:0"/>
	<stop  offset="0.2974" style="stop-color:#FDFDFD;stop-opacity:0.119"/>
	<stop  offset="0.4668" style="stop-color:#F4F4F5;stop-opacity:0.1867"/>
	<stop  offset="0.6041" style="stop-color:#E6E7E7;stop-opacity:0.2416"/>
	<stop  offset="0.7241" style="stop-color:#D3D3D4;stop-opacity:0.2896"/>
	<stop  offset="0.8329" style="stop-color:#B9BABB;stop-opacity:0.3332"/>
	<stop  offset="0.9321" style="stop-color:#9A9B9D;stop-opacity:0.3729"/>
	<stop  offset="1" style="stop-color:#808184;stop-opacity:0.4"/>
</linearGradient>
<rect x="227.19" y="144.44" fill="url(#svg9)" width="17.05" height="7.94"/>
<linearGradient id="svg10" gradientUnits="userSpaceOnUse" x1="224.6178" y1="123.8263" x2="206.1553" y2="123.8263">
	<stop  offset="0" style="stop-color:#DADCE0;stop-opacity:0"/>
	<stop  offset="0.5546" style="stop-color:#D6D8DC;stop-opacity:0.3882"/>
	<stop  offset="1" style="stop-color:#CDCFD4;stop-opacity:0.7"/>
</linearGradient>
<polygon fill="url(#svg10)" points="224.62,163.24 206.16,163.24 206.16,84.41 224.62,94.92 "/>
<path fill="#E94335" d="M278.87,163.28l11.29-11.34c1.43-1.44,2.31-3.42,2.31-5.61c0-4.4-3.57-7.97-7.97-7.97
	c-2.19,0-4.17,0.88-5.61,2.31l-0.02-0.02l-0.02,0.02c-1.44-1.43-3.42-2.31-5.61-2.31c-4.4,0-7.97,3.57-7.97,7.97
	c0,2.19,0.88,4.17,2.31,5.61L278.87,163.28z"/>
<linearGradient id="svg11" gradientUnits="userSpaceOnUse" x1="273.0416" y1="138.3669" x2="273.0416" y2="163.2839">
	<stop  offset="0" style="stop-color:#E94335"/>
	<stop  offset="0.9987" style="stop-color:#D43636"/>
</linearGradient>
<path fill="url(#svg11)" d="M271.46,151.95c-1.43-1.44-2.31-3.42-2.31-5.61c0-3.73,2.57-6.87,6.03-7.73
	c-0.62-0.16-1.27-0.24-1.94-0.24c-4.4,0-7.97,3.57-7.97,7.97c0,2.19,0.88,4.17,2.31,5.61l11.29,11.34l1.94-1.95L271.46,151.95z"/>
<linearGradient id="svg12" gradientUnits="userSpaceOnUse" x1="-3537.1541" y1="21004.25" x2="-3522.7205" y2="21004.25" gradientTransform="matrix(0.5362 -0.8441 0.8441 0.5362 -15620.3057 -14200.7109)">
	<stop  offset="0" style="stop-color:#F8BA2D"/>
	<stop  offset="1" style="stop-color:#F6A629"/>
</linearGradient>
<polygon fill="url(#svg12)" points="233.71,21.98 197.92,78.32 190.7,73.73 226.49,17.39 "/>
<polygon fill="#E0E1E5" points="197.92,78.32 187.62,86.81 190.69,73.73 "/>
<polygon fill="#2A2C33" points="188.47,83.21 187.62,86.81 190.45,84.48 "/>
<path fill="#E94335" d="M226.51,17.36c-0.01,0.01-0.01,0.02-0.02,0.03l0,0l-2.47,3.89l7.22,4.59l2.47-3.89l0,0
	c0.01-0.01,0.02-0.02,0.02-0.03c1.27-1.99,0.68-4.64-1.32-5.91C230.42,14.78,227.77,15.36,226.51,17.36z"/>
<rect x="226.77" y="19.1" transform="matrix(0.5362 -0.8441 0.8441 0.5362 85.8897 203.0846)" fill="#E0E1E5" width="1.96" height="8.56"/>
<path fill="#E0E1E5" d="M195.6,74.42c-0.1,0-0.2-0.03-0.29-0.08c-0.25-0.16-0.32-0.49-0.17-0.74l29.99-47.22
	c0.16-0.25,0.49-0.33,0.74-0.17c0.25,0.16,0.32,0.49,0.17,0.74l-29.99,47.22C195.96,74.33,195.78,74.42,195.6,74.42z"/>
</svg>
