<?xml version="1.0" encoding="utf-8"?>
<!-- Generator: Adobe Illustrator 16.0.4, SVG Export Plug-In . SVG Version: 6.00 Build 0)  -->
<!DOCTYPE svg PUBLIC "-//W3C//DTD SVG 1.1//EN" "http://www.w3.org/Graphics/SVG/1.1/DTD/svg11.dtd">
<svg version="1.1" id="Layer_1" xmlns="http://www.w3.org/2000/svg" xmlns:xlink="http://www.w3.org/1999/xlink" x="0px" y="0px"
	 width="108px" height="108px" viewBox="0 0 108 108" enable-background="new 0 0 108 108" xml:space="preserve">
<path fill="#E65345" d="M84.781,14.348H23.219c-4.857,0-8.795,3.938-8.795,8.795v61.562c0,4.855,3.938,8.793,8.795,8.793h61.562
	c4.856,0,8.794-3.938,8.794-8.793V23.143C93.576,18.286,89.638,14.348,84.781,14.348z M23.219,23.1h13.191
	c0,7.283-5.906,13.235-13.191,13.235V23.1z M23.219,53.924v-8.795c12.142,0,21.986-9.889,21.986-22.029H54
	C54,40.101,40.218,53.924,23.219,53.924z M23.219,80.307l15.39-19.787l10.994,13.218l15.39-19.813l19.788,26.383H23.219z"/>
<g id="ic_x5F_volumeUp_2">
</g>
<g id="ic_x5F_volumeOff_2">
</g>
</svg>
