<svg xmlns="http://www.w3.org/2000/svg" width="720" height="400" viewBox="0 0 720 400"><linearGradient id="a" x1="233.7309" x2="100.5932" y1="163.0514" y2="352.0001" gradientUnits="userSpaceOnUse" gradientTransform="matrix(1.0164 .005 .005 1.0324 -4.45 -4.402)"><stop offset="0" style="stop-color:#111111;stop-opacity:0.03"/><stop offset="1" style="stop-color:#111111;stop-opacity:0.1"/></linearGradient><path fill="url(#a)" d="M278.04 302.36L92.87 354.72 55.41 222.21l185.16-52.35"/><path fill="#FFF" d="M64.94395 221.8102l173.3006-49.0025 34.1132 120.64356-173.30062 49.0025z"/><linearGradient id="b" x1="77.3948" x2="258.8542" y1="257.4499" y2="257.4499" gradientUnits="userSpaceOnUse"><stop offset="0" style="stop-color:#F5F5F5"/><stop offset="1" style="stop-color:#EEEEEE"/></linearGradient><path fill="url(#b)" d="M77.39 228.43l152.67-43.35 28.79 101.39-152.66 43.35"/><linearGradient id="c" x1="179.2274" x2="179.2274" y1="329.8223" y2="263.2795" gradientUnits="userSpaceOnUse"><stop offset="0" style="stop-color:#DFDFDF"/><stop offset="1" style="stop-color:#F5F5F5"/></linearGradient><path fill="url(#c)" d="M99.6 306.63l152.67-43.35 6.58 23.19-152.66 43.35"/><path fill="#FFF" d="M165.44 248.79c-32.41 9.2-57.18 21.95-55.33 28.47 18.56 10.72 24.31 30.16 68.42 17.64 47.14-13.38 37.81-30.97 48.94-50.96-1.85-6.53-29.63-4.35-62.03 4.85z"/><path fill="#B2EBF2" d="M174.86 280.01c-17.66 5.01-35.36 8.09-46.5 8.28-4.27-2.07-4.87-.63-5.47-2.75-.29-1.01-5.76-2.37-4.47-3.73 6-6.3 27.46-15.75 50.61-22.33 22.35-6.35 44.76-9.58 53.86-7.81 2.37.46.62 1.9-.46 4.42-1.08 2.51-2.09 5.56-2.09 5.56s-26.81 13.06-45.48 18.36z"/><path fill="#FFCDD2" d="M128.88 262.08c2.07-.98 4.28-1.96 6.62-2.95-2.34.99-4.55 1.97-6.62 2.95zM196.35 241.86c1.67-.26 3.29-.49 4.86-.69-1.57.2-3.19.43-4.86.69zM193.81 242.27c-8.57 1.45-18.25 3.64-28.37 6.52-11.14 3.16-21.38 6.74-29.94 10.35 8.56-3.6 18.8-7.19 29.94-10.35 10.12-2.88 19.8-5.07 28.37-6.52z"/><path fill="#FFCA28" d="M172.14 272.4c-32.41 9.2-56.55 8.84-62.03 4.85 31.29 22.71 24.35 30.29 68.45 17.77 47.14-13.38 39.4-24.77 48.9-51.09-2.29 6.38-22.91 19.27-55.32 28.47z"/><ellipse cx="164.47" cy="239.78" fill="#DFDFDF" transform="rotate(-15.846 164.504 239.798)" rx="2.21" ry="2.21"/><ellipse cx="173.99" cy="237.08" fill="#DFDFDF" transform="rotate(-15.846 174.023 237.095)" rx="2.21" ry="2.21"/><ellipse cx="154.65" cy="242.57" fill="#DFDFDF" transform="rotate(-15.846 154.684 242.587)" rx="2.21" ry="2.21"/><path fill="#DFDFDF" d="M166.18 245.98c-.57.16-1.16-.17-1.32-.74l-1.17-4.12c-.16-.57.17-1.16.74-1.32.57-.16 1.16.17 1.32.74l1.17 4.12c.16.57-.17 1.16-.74 1.32z"/><path fill="#FFECB3" d="M165.44 248.79c-32.41 9.2-57.18 21.95-55.33 28.47 1.85 6.52 29.62 4.35 62.03-4.85s57.18-21.95 55.33-28.47c-1.85-6.53-29.63-4.35-62.03 4.85zm6.26 22.07c-28.16 7.99-56.41 11.05-58.02 5.39-1.61-5.67 24.04-17.91 52.2-25.91 28.16-7.99 56.41-11.05 58.02-5.39 1.61 5.67-24.04 17.91-52.2 25.91z"/><g fill="#FFECB3"><path d="M138.37495 216.69158l16.39248-4.65362 4.65363 16.39248-16.39248 4.65362zM157.16348 211.35075l16.39248-4.65362 4.65362 16.39248-16.39248 4.65363zM136.89768 211.46925l16.39248-4.65363.90396 3.18422-16.39248 4.65363zM155.6794 206.14077l16.3925-4.65362.90395 3.1842-16.39248 4.65364z"/></g><path fill="#FFB74D" d="M131.5944 213.023l5.28137-1.4993 7.513 26.4646-5.2814 1.49932z"/><path fill="#F1CB83" d="M178.24 223.11l-35.19 9.99-3.92 6.38 45.8-13.01"/><path fill="#FFCA28" d="M206.2 280.71c3.99 3.7 5.47 5.24 7.56 5.91 2.08.67 3.35 1.06 4.52.73 1.17-.33 3.89-.95 2.83-3.18s-1.56-1.85-3.15-1.48c-1.6.38-1.74-.3-2.46-.81-1.65-1.18-2.92-4.62-4.75-6.62s-4.55 5.45-4.55 5.45zM149.28 296.87c-1.45 5.25-1.9 7.34-3.32 9-1.42 1.66-2.29 2.66-3.46 2.99s-3.81 1.23-4.08-1.21c-.27-2.45.36-2.39 1.9-2.91 1.56-.52 1.32-1.17 1.66-1.98.79-1.87.06-5.47.56-8.13.52-2.67 6.74 2.24 6.74 2.24z"/><linearGradient id="d" x1="-1010.6215" x2="-1010.6215" y1="1405.7406" y2="1331.6653" gradientUnits="userSpaceOnUse" gradientTransform="matrix(1.5263 -.4165 .2256 .8265 1404.94 -1314.035)"><stop offset="0" style="stop-color:#FFFFFF;stop-opacity:0.9736"/><stop offset="1" style="stop-color:#FFFFFF;stop-opacity:0"/></linearGradient><path fill="url(#d)" d="M107.75 222.68c1.02 4.03 3.07 7.79 6.06 11.13 1.34 1.5 3.1 3.01 6.18 3.2 2.95.18 6.43-.89 9.52-.93 3.91-.05 6.69 1.79 6.3 4.19-.35 2.18-2.92 4.41-4.56 6.63-1.65 2.22-2.08 4.98.95 5.64 1.33.29 3.02.1 4.64-.04 3.08-.27 6.2-.33 8.63.35 2.42.67 4.02 2.21 3.35 4.08-.63 1.75-3 3.4-4.67 5.09s-2.48 3.95-.26 4.62c.89.27 2.08.21 3.18.25 6.35.23 9.46 4.27 6.63 8.34 9.26-1.9 24.12-5.56 37.5-10.64-4.71-2.07-5.28-8.58.18-12.11 2.96-1.92 7.51-3.99 6.91-6.01-.37-1.27-2.82-1.64-5.15-1.48s-4.79.7-7.04.67c-4.86-.06-7.35-3.25-4.92-6.29 1.84-2.3 5.6-4.05 8.68-5.98s5.77-4.74 4.17-6.46c-2.11-2.27-9.57-.63-12.43-2.52-1.65-1.1-1.19-3.14.32-4.88 1.51-1.75 3.9-3.29 6.2-4.8 10.76-7.07 20.76-14.53 29.85-22.26-18.75 5.98-37.5 11.93-56.27 17.86-18.91 5.99-34.66 9.79-53.95 12.35" opacity=".72"/><g fill="#EEE"><path d="M177.79 239.11l-.07.13c-.2.36-.65.49-1.01.29l-6.26-3.49c-.36-.2-.49-.65-.29-1.01l.07-.13c.2-.36.65-.49 1.01-.29l6.26 3.49c.36.2.48.65.29 1.01z"/><path d="M171.92 240.88l-.13-.07c-.36-.2-.49-.65-.29-1.01l3.49-6.26c.2-.36.65-.49 1.01-.29l.13.07c.36.2.49.65.29 1.01l-3.49 6.26c-.2.36-.65.49-1.01.29z"/></g><g fill="#EEE"><path d="M158.48 244.59l-.07.13c-.2.36-.65.49-1.01.29l-6.26-3.49c-.36-.2-.49-.65-.29-1.01l.07-.13c.2-.36.65-.49 1.01-.29l6.26 3.49c.36.2.49.65.29 1.01z"/><path d="M152.61 246.36l-.13-.07c-.36-.2-.49-.65-.29-1.01l3.49-6.26c.2-.36.65-.49 1.01-.29l.13.07c.36.2.49.65.29 1.01l-3.49 6.26c-.19.36-.65.49-1.01.29z"/></g><linearGradient id="e" x1="615.7202" x2="492.6726" y1="177.0047" y2="354.9426" gradientUnits="userSpaceOnUse" gradientTransform="matrix(1.0496 .0044 .0044 1.03 -29.81 -7.91)"><stop offset="0" style="stop-color:#111111;stop-opacity:0.03"/><stop offset="1" style="stop-color:#111111;stop-opacity:0.1"/></linearGradient><path fill="url(#e)" d="M606.72 372.6l-145.66-31.62 38.31-176.5 145.66 31.61"/><path fill="#FFF" d="M508.6727 168.9216l133.378 28.94953-35.52886 163.69077-133.37803-28.94953z"/><path fill="#90CAF9" d="M519.59627 187.47155l103.94477 22.56107-29.10224 134.0816-103.94477-22.56106z"/><linearGradient id="f" x1="557.0608" x2="557.0608" y1="349.3922" y2="180.1549" gradientUnits="userSpaceOnUse"><stop offset="0" style="stop-color:#DFDFDF"/><stop offset="1" style="stop-color:#FFFFFF"/></linearGradient><path fill="url(#f)" d="M516.46 180.15l-31.29 144.96 112.48 24.28 31.29-144.96-112.48-24.28zm28.55 22.42l-4.67 21.3-23.11-5.07 4.67-21.3 23.11 5.07zm-28.47 19.35l23.11 5.07-4.6 20.96-23.11-5.07 4.6-20.96zm21.63 26.72l4.6-20.96 22.28 4.89-4.6 20.96-22.28-4.89zm27.57-19.2l-22.28-4.89 4.67-21.3 22.28 4.89-4.67 21.3z"/><linearGradient id="g" x1="681.3832" x2="681.3832" y1="305.429" y2="258.9186" gradientUnits="userSpaceOnUse" gradientTransform="rotate(12.374 570.175 -180.352)"><stop offset="0" style="stop-color:#DFDFDF"/><stop offset="1" style="stop-color:#81D4FA"/></linearGradient><path fill="url(#g)" d="M577.66 318.61l-5.9-1.3 9.97-45.43 5.89 1.3"/><linearGradient id="h" x1="-177.8181" x2="-177.8181" y1="-899.3281" y2="-876.8793" gradientUnits="userSpaceOnUse" gradientTransform="rotate(-167.626 267.388 -370.336)"><stop offset="0" style="stop-color:#E3F2FD;stop-opacity:0.5"/><stop offset=".3643" style="stop-color:#DBEDF4;stop-opacity:0.2875"/><stop offset=".8571" style="stop-color:#D4E8EC;stop-opacity:0"/></linearGradient><path fill="url(#h)" d="M624.37 227.28l-61.56-13.5 19.98 25.43 12.59 2.85"/><linearGradient id="i" x1="624.5714" x2="624.5714" y1="305.429" y2="258.9186" gradientUnits="userSpaceOnUse" gradientTransform="rotate(12.374 570.175 -180.352)"><stop offset="0" style="stop-color:#DFDFDF"/><stop offset="1" style="stop-color:#81D4FA"/></linearGradient><path fill="url(#i)" d="M522.17 306.43l-5.9-1.29 9.96-45.43 5.9 1.29"/><path fill="#039BE5" d="M604.76 293.99l-103.13-22.62 25.51-17.11 61.61 13.51"/><path fill="#81D4FA" d="M501.7411 271.41993l103.0231 22.60222-1.28365 5.85103-103.0231-22.60222z"/><linearGradient id="j" x1="701.2085" x2="701.2085" y1="323.0862" y2="282.1811" gradientUnits="userSpaceOnUse" gradientTransform="rotate(12.374 570.175 -180.352)"><stop offset="0" style="stop-color:#DFDFDF"/><stop offset="1" style="stop-color:#81D4FA"/></linearGradient><path fill="url(#j)" d="M593.78 340.22l-6.98-1.53 8.77-39.96 6.97 1.53"/><linearGradient id="k" x1="604.5855" x2="604.5855" y1="323.0862" y2="282.1811" gradientUnits="userSpaceOnUse" gradientTransform="rotate(12.374 570.175 -180.352)"><stop offset="0" style="stop-color:#DFDFDF"/><stop offset="1" style="stop-color:#81D4FA"/></linearGradient><path fill="url(#k)" d="M499.4 319.52l-6.98-1.53 8.77-39.96 6.97 1.53"/><path fill="#81D4FA" d="M575.87564 267.73998l.75213.165-.17786.81076-.75213-.165zM588.79713 270.56948l.75213.165-.17787.81076-.75214-.165z"/><ellipse cx="582.54" cy="270.01" fill="#81D4FA" transform="rotate(-77.626 582.53 269.998)" rx="1.66" ry="7"/><ellipse cx="582.71" cy="269.22" fill="#B3E5FC" transform="rotate(-77.626 582.703 269.21)" rx="1.66" ry="7"/><path fill="#42A5F5" d="M584.94136 253.79118l2.21734.48646-3.33237 15.18924-2.21733-.48646z"/><ellipse cx="582.71" cy="269.22" fill="#42A5F5" transform="rotate(-77.626 582.703 269.21)" rx=".26" ry="1.11"/><path fill="#90CAF9" d="M568.09 273.87l-21.38-4.69c-.85-.19-1.39-1.03-1.2-1.88l2.75-12.54c.19-.85 1.03-1.39 1.88-1.2l21.38 4.69c.85.19 1.39 1.03 1.2 1.88l-2.75 12.54c-.19.84-1.03 1.38-1.88 1.2zM569.3 282.76l-27.42-6.01c-1.03-.23-1.48-1.44-.84-2.28l3.53-4.7c.34-.45.91-.66 1.46-.54l22.65 4.97c.55.12.98.55 1.1 1.11l1.24 5.74c.22 1.02-.69 1.93-1.72 1.71z"/><path fill="#1E88E5" d="M567.51 278.18l-22.08-4.84 1.91-3.04 19.71 4.32"/><path fill="#1E88E5" d="M567.51 278.18l-22.08-4.84 1.91-3.04 19.71 4.32"/><path fill="#BBDEFB" d="M560.32 279.48l-8.91-1.95.98-2.16 7.95 1.75"/><path fill="#E3F2FD" d="M549.41273 254.51534l22.31012 4.8946-2.96163 13.4994-22.3101-4.89462z"/><path fill="#81D4FA" d="M534.82 267.8l2.03.92c.18.08.19.33.02.42l-4.65 2.66c-.33.19-.74.19-1.07-.01l-2.49-1.47c-.18-.11-.16-.37.04-.45l5.31-2.1c.26-.1.55-.09.81.03z"/><path fill="#81D4FA" d="M528.62842 269.744l.29304.06428-.07715.35165-.29303-.0643zM536.75846 268.61297l.29304.0643-.07715.35164-.29304-.06428z"/><path fill="#64B5F6" d="M534.89 267.47l2.03.92c.18.08.19.33.02.42l-4.65 2.66c-.33.19-.74.19-1.07-.01l-2.49-1.47c-.18-.11-.16-.37.04-.45l5.31-2.1c.26-.09.55-.09.81.03z"/><path fill="#BBDEFB" d="M534.87 267.59l1.79.81c.16.07.17.29.02.37l-3.86 2.15c-.29.17-.65.16-.94-.01l-2.14-1.22c-.16-.09-.14-.33.03-.39l4.39-1.72c.23-.1.49-.1.71.01z"/><linearGradient id="l" x1="-593.9689" x2="-593.9689" y1="-70.8086" y2="-48.3598" gradientUnits="userSpaceOnUse" gradientTransform="rotate(12.374 -1484.332 5535.72)"><stop offset="0" style="stop-color:#E3F2FD;stop-opacity:0.5"/><stop offset=".3643" style="stop-color:#DBEDF4;stop-opacity:0.2875"/><stop offset=".8571" style="stop-color:#D4E8EC;stop-opacity:0"/></linearGradient><path fill="url(#l)" d="M551.39 264.73l61.55 13.5-19.98-25.43-12.59-2.85"/><path fill="#90CAF9" d="M582.42 239.26l-7.23 13.09 21.41 4.71-1.09-14.93"/><ellipse cx="588.96" cy="240.73" fill="#E3F2FD" transform="rotate(-77.626 588.953 240.717)" rx="1.28" ry="6.7"/><ellipse cx="585.89" cy="254.74" fill="#90CAF9" transform="rotate(-77.626 585.88 254.727)" rx="2.09" ry="10.95"/><linearGradient id="m" x1="454.457" x2="251.7059" y1="17.6768" y2="307.2354" gradientUnits="userSpaceOnUse"><stop offset="0" style="stop-color:#111111;stop-opacity:0.03"/><stop offset="1" style="stop-color:#111111;stop-opacity:0.1"/></linearGradient><path fill="url(#m)" d="M192.54 59.11h321.09v206.7H192.54z"/><path fill="#FFF" d="M202.92 62.22h308.19v192.13H202.92z"/><linearGradient id="n" x1="358.1432" x2="358.1432" y1="244.312" y2="72.25" gradientUnits="userSpaceOnUse"><stop offset="0" style="stop-color:#F5F5F5"/><stop offset="1" style="stop-color:#EEEEEE"/></linearGradient><path fill="url(#n)" d="M216.28 72.25h283.73v172.06H216.28z"/><g><defs><path id="o" d="M458.1712 253.2149h-203.72v-65.65h203.72z"/></defs></g><linearGradient id="p" x1="357.1476" x2="357.1476" y1="245.3963" y2="217.7748" gradientUnits="userSpaceOnUse"><stop offset="0" style="stop-color:#DFDFDF"/><stop offset="1" style="stop-color:#BCBCBC"/></linearGradient><path fill="url(#p)" d="M215.35 217.77h283.59v27.62H215.35z"/><g><path fill="#BF360C" d="M405.59 136.94H309.7c-5.38 0-9.74 4.36-9.74 9.74v40.25c0 5.38 4.36 9.74 9.74 9.74h95.89c5.38 0 9.74-4.36 9.74-9.74v-40.25c0-5.38-4.36-9.74-9.74-9.74z"/><path fill="#EF9A9A" d="M409.7 167.52v-6.64c0-1.55.65-5.13-.23-6.1-.78-.86-3.02.81-4.16.81h-67.39c-.06-.56-.18-1.02-.42-1.29-.78-.86-3.02.81-4.16.81h-1.02c-.89-.22-1.74-.34-2.25 0h-20.96c-1.28 0-3.96-1.36-4.77-.31-.72.94.38 4.22.38 5.6v6.64c0 1.46-1.24 4.08-.44 5.03.79.96 3.62.26 4.84.26h20.56c.04.07.06.16.11.22.79.96 3.62.26 4.84.26h70.7c1.15 0 4.55.37 5.33-.51.85-.96-.96-3.25-.96-4.78z"/><path fill="#FFF" d="M347.02 173.41h-31.29c-1.57 0-5.22.89-6.24-.33-1.03-1.22.57-4.54.57-6.4v-8.45c0-1.76-1.42-5.92-.48-7.12 1.04-1.33 4.51.39 6.16.39h31.29c1.47 0 4.36-2.12 5.37-1.03 1.14 1.23.3 5.78.3 7.75v8.45c0 1.95 2.33 4.85 1.21 6.08-1.02 1.13-5.4.66-6.89.66zM367.96 151.05h31.29c1.57 0 5.64-1.19 6.67.03s-1 4.84-1 6.7v8.45c0 1.76 1.42 5.92.48 7.12-1.04 1.33-4.51-.39-6.16-.39h-31.29c-1.47 0-4.36 2.12-5.37 1.03-1.14-1.23-.3-5.78-.3-7.75v-8.45c0-1.95-2.52-5.57-1.4-6.8 1.02-1.12 5.59.06 7.08.06z"/><path fill="#C62828" d="M365.74 172.68h-18.27c-.91 0-3.05.52-3.65-.19-.6-.71.33-2.65.33-3.74v-4.93c0-1.03-.83-3.46-.28-4.16.6-.78 2.63.23 3.59.23h18.27c.86 0 2.55-1.24 3.14-.6.66.72.18 3.38.18 4.53v4.93c0 1.14 1.36 2.83.71 3.55-.59.66-3.15.38-4.02.38z"/><path fill="#BF360C" d="M297.29 193.07h121.7v24.67h-121.7z"/><path fill="#EF5350" d="M418.36 199.47c-2.42-.46-10.29-2.81-12.71-3.23-12.08-2.13-36.79-.79-49.06-.78-11.85.01-35.74-1.33-47.39.85-2.25.42-9.01 2.72-11.25 3.17-5.32 1.07-7.19-4.47-7.19-9.9v-7.44c0-5.43 4.4-9.83 9.83-9.83h114.37c5.43 0 9.83 4.4 9.83 9.83v7.44c.01 5.42-1.1 10.91-6.43 9.89z"/><path fill="#FFF" d="M415.95 199.25H299.68c-2.18 0-3.94-1.77-3.94-3.94v-14.04c0-2.18 1.77-3.94 3.94-3.94h116.27c2.18 0 3.94 1.77 3.94 3.94v14.04c0 2.18-1.76 3.94-3.94 3.94z"/><path fill="#BF360C" d="M236.48 172.94h46.98v45.18h-46.98z"/><path fill="#FF6F00" d="M236.48 178.79h46.98v1.31h-46.98zM236.48 194.25h46.98v1.31h-46.98z"/><path fill="#A1887F" d="M257.99 137.63h3.73v31.6h-3.73zM250.34 169.24h18.93v3.69h-18.93z"/><circle cx="260.17" cy="187.48" r="1.49" fill="#FF6F00"/><path fill="#FF6F00" d="M236.48 210.02h46.98v1.31h-46.98z"/><circle cx="260.17" cy="203.25" r="1.49" fill="#FF6F00"/><path fill="#F44336" d="M274.29 150.65H244.9l3.46-19.54h22.47"/><g><path fill="#BF360C" d="M432.72 172.94h46.98v45.18h-46.98z"/><path fill="#FF6F00" d="M432.72 178.79h46.98v1.31h-46.98zM432.72 194.25h46.98v1.31h-46.98z"/><path fill="#A1887F" d="M454.22 137.63h3.73v31.6h-3.73zM446.57 169.24h18.93v3.69h-18.93z"/><circle cx="456.4" cy="187.48" r="1.49" fill="#FF6F00"/><path fill="#FF6F00" d="M432.72 210.02h46.98v1.31h-46.98z"/><circle cx="456.4" cy="203.25" r="1.49" fill="#FF6F00"/><path fill="#F44336" d="M470.53 150.65h-29.4l3.46-19.54h22.48"/></g></g></svg>
