<svg xmlns="http://www.w3.org/2000/svg" width="480" height="480" version="1" viewBox="0 0 480 480"><path fill="#FFF" fill-rule="evenodd" d="M383 116.6C380 106 368 97.3 357 97l-51.6-1.4.7-40.4L186 52l-.7 40.4-51.8-1.4c-11-.3-23.2 7.8-27 18.2L61.4 229l9.8.3-9.8-.3-3 140.3-.2 27.7c0 11 8.8 20 20 20h20c11 0 19.7-9 19.7-20v-26l240 6.4V408c0 11 9 20 20.2 20h20c11 0 19.8-9 19.8-20v-32l3.6-137.4-38.5-122zM130.3 303c-16.6 0-30-13.4-30-30 0-16.5 13.4-30 30-30s30 13.5 30 30c0 16.6-13.5 30-30 30zm220 6c-16.6 0-30-13.4-30-30 0-16.5 13.4-30 30-30s30 13.5 30 30c0 16.6-13.5 30-30 30zm-248-107L135 113l220 6 27.3 90.8-279.7-7.5z" clip-rule="evenodd"/></svg>