<svg xmlns="http://www.w3.org/2000/svg" width="480" height="480" version="1" viewBox="0 0 480 480"><path fill="#FFF" fill-rule="evenodd" d="M421.8 370.6l-4-138.6.2-.4v.4h-.3l-45.5-120c-4-10.4-16-18.6-27-18.3L293.4 95l-1-39.7-120 4 .7 39-51 1.6c-11 .2-22.6 8.7-26 19.3L58.3 240l3.5 138v26.7c0 11 8.8 20.3 20 20.3h20c11 0 20.3-9.3 20.3-20.3v-25l240-7v30c0 11.2 8.6 20.3 19.6 20.3h20c11 0 20-9 20-20l.2-32.4zm-297-248l219.7-7L377 205 97 213.4l27.5-90.8zm4.2 190c-16.5 0-30-13.4-30-30 0-16.5 13.5-30 30-30 16.6 0 30 13.5 30 30 0 16.6-13.4 30-30 30zm220-6.7c-16.7 0-30-13.5-30-30 0-16.7 13.3-30 30-30 16.4 0 30 13.3 30 30 0 16.5-13.6 30-30 30z" clip-rule="evenodd"/></svg>