<svg xmlns="http://www.w3.org/2000/svg" width="480" height="480" version="1" xmlns:xlink="http://www.w3.org/1999/xlink" viewBox="0 0 480 480"><defs><path id="a" d="M350 320c16.6 0 30-13.4 30-30s-13.4-30-30-30-30 13.4-30 30 13.4 30 30 30zm-220 0c16.6 0 30-13.4 30-30s-13.4-30-30-30-30 13.4-30 30 13.4 30 30 30zm50-260h120v40H180V60zm-60 320v20c0 11-9 20-20 20H80c-11 0-20-9-20-20V240h360v160c0 11-9 20-20 20h-20c-11 0-20-9-20-20v-20H120z"/></defs><use fill="#FFF" fill-rule="evenodd" xlink:href="#a" overflow="visible" clip-rule="evenodd"/><path fill="#FFF" fill-rule="evenodd" d="M378 119c-3.8-10.5-15.7-19-26.7-19H128.7c-11 0-23 8.5-26.6 19L60 240h360l-42-121zm-248 11h220l30 90H100l30-90z" clip-rule="evenodd"/></svg>