<svg xmlns="http://www.w3.org/2000/svg" width="480" height="480" version="1" viewBox="0 0 480 480"><path fill="#FFF" fill-rule="evenodd" d="M419 231l-43.3-120.4C372 100.2 360 92 349 92l-51 .5-1-39.7-120 1.5v39.4l-50.7.5c-11 0-22.8 8.7-26.4 19.2L59.2 234l1.3 135v38c-.2 11.2 8.8 20 19.8 20h20c11 0 19.6-8.7 19.6-19.8v-32.6l240-2v30c0 11.2 9.4 20.4 20.4 20.4h20c11 0 20-9.2 20-20.2l.4-30.8-2-141zM127.7 117l220.2-2.2 31 89.6L99 207l29-90zm1.8 190c-16.6 0-30-13.4-30-30s13.4-30 30-30 30 13.5 30 30-13.4 30-30 30zm220-2.3c-16.7 0-30-13.4-30-30s13.3-30 30-30c16.4 0 30 13.4 30 30s-13.6 30-30 30z" clip-rule="evenodd"/></svg>