<svg xmlns="http://www.w3.org/2000/svg" width="480" height="480" version="1" viewBox="0 0 480 480"><path fill="#FFF" fill-rule="evenodd" d="M384 119.4c-3.3-10.5-15-19.4-26-19.8L306.8 98 308 58l-120-4-1.4 39.7-51.3-1.8c-11-.3-23.2 7.6-27 18L62.2 230l-4 138.7L58 400c0 11 8.8 20 20 20h20c11 0 20-9 20-20v-28.2l240 8v25.8c0 11 8.8 20.4 20 20.4h20c11 0 20-9.3 20-20.4v-25.8l4-136.8-38-123.6zM130.5 304.8c-16.6 0-30-13.4-30-30s13.4-30 30-30 30 13.4 30 30-13.4 30-30 30zm220 7.3c-16.5 0-30-13.4-30-30 0-16.5 13.5-30 30-30 16.6 0 30 13.5 30 30 0 16.6-13.4 30-30 30zM103 203.6l33-88.5 219.5 7.2 27 90.7-279.5-9.5z" clip-rule="evenodd"/></svg>