<?xml version="1.0" encoding="utf-8"?>
<!-- Generator: Adobe Illustrator 19.2.1, SVG Export Plug-In . SVG Version: 6.00 Build 0)  -->
<svg version="1.1" id="Layer_1" xmlns="http://www.w3.org/2000/svg" xmlns:xlink="http://www.w3.org/1999/xlink" x="0px" y="0px"
	 width="500px" height="500px" viewBox="0 0 500 500" enable-background="new 0 0 500 500" xml:space="preserve">
<path fill-rule="evenodd" clip-rule="evenodd" fill="#FFFFFF" d="M229.17,233.17H125V129h104.17V233.17z M375,233.17H270.83V129H375
	V233.17z M156.25,358.17c-17.29,0-31.25-13.96-31.25-31.25c0-17.29,13.96-31.25,31.25-31.25s31.25,13.96,31.25,31.25
	C187.5,344.21,173.54,358.17,156.25,358.17z M343.75,358.17c-17.29,0-31.25-13.96-31.25-31.25c0-17.29,13.96-31.25,31.25-31.25
	S375,309.62,375,326.92C375,344.21,361.04,358.17,343.75,358.17z M83.33,129v197.92c0,40.21,32.71,72.92,72.92,72.92h187.5
	c40.21,0,72.92-32.71,72.92-72.92V129c0-72.92-74.58-83.33-166.67-83.33S83.33,56.08,83.33,129z"/>
<linearGradient id="SVGID_1_" gradientUnits="userSpaceOnUse" x1="249.5581" y1="500.8379" x2="249.5581" y2="399.5025">
	<stop  offset="0" style="stop-color:#FFFFFF;stop-opacity:0"/>
	<stop  offset="0.6511" style="stop-color:#FFFFFF"/>
</linearGradient>
<polygon fill-rule="evenodd" clip-rule="evenodd" fill="url(#SVGID_1_)" points="134.32,414.7 85.34,463.67 85.34,476.96 
	413.77,476.96 413.77,463.68 365.5,415.09 "/>
</svg>
