<?xml version="1.0" encoding="utf-8"?>
<!-- Generator: Adobe Illustrator 19.2.1, SVG Export Plug-In . SVG Version: 6.00 Build 0)  -->
<svg version="1.1" id="Layer_1" xmlns="http://www.w3.org/2000/svg" xmlns:xlink="http://www.w3.org/1999/xlink" x="0px" y="0px"
	 width="500px" height="500px" viewBox="0 0 500 500" enable-background="new 0 0 500 500" xml:space="preserve">
<linearGradient id="SVGID_1_" gradientUnits="userSpaceOnUse" x1="249.8288" y1="501.4803" x2="249.8288" y2="381.4153">
	<stop  offset="0" style="stop-color:#FFFFFF;stop-opacity:0"/>
	<stop  offset="0.6511" style="stop-color:#FFFFFF"/>
</linearGradient>
<polygon fill-rule="evenodd" clip-rule="evenodd" fill="url(#SVGID_1_)" points="121.75,427.27 67.66,481.35 67.66,486.62 
	432,486.62 432,482.02 377.75,427.42 "/>
<polygon fill-rule="evenodd" clip-rule="evenodd" fill="#FFFFFF" points="324.24,373.66 176.82,372.16 160.78,388.24 160.78,394.77 
	338.83,394.77 338.83,388.24 "/>
<path fill-rule="evenodd" clip-rule="evenodd" fill="#FFFFFF" d="M229.17,215.17H125V111h104.17V215.17z M375,215.17H270.83V111H375
	V215.17z M156.25,340.17c-17.29,0-31.25-13.96-31.25-31.25c0-17.29,13.96-31.25,31.25-31.25s31.25,13.96,31.25,31.25
	C187.5,326.21,173.54,340.17,156.25,340.17z M343.75,340.17c-17.29,0-31.25-13.96-31.25-31.25c0-17.29,13.96-31.25,31.25-31.25
	S375,291.62,375,308.92C375,326.21,361.04,340.17,343.75,340.17z M83.33,111v197.92c0,40.21,32.71,72.92,72.92,72.92h187.5
	c40.21,0,72.92-32.71,72.92-72.92V111c0-72.92-74.58-83.33-166.67-83.33S83.33,38.08,83.33,111z"/>
</svg>
