<?xml version="1.0" encoding="UTF-8" standalone="no"?>
<svg width="500px" height="500px" viewBox="0 0 500 500" version="1.1" xmlns="http://www.w3.org/2000/svg" xmlns:xlink="http://www.w3.org/1999/xlink">
    <!-- Generator: Sketch 3.8.1 (29687) - http://www.bohemiancoding.com/sketch -->
    <title>Train_03-24fps_00024</title>
    <desc>Created with Sketch.</desc>
    <defs></defs>
    <g id="Page-1" stroke="none" stroke-width="1" fill="none" fill-rule="evenodd">
        <g id="Train_03-24fps_00024" fill="#FFFFFF">
            <g id="Train" transform="translate(83.000000, 41.000000)">
                <path d="M0.333333333,84 L0.333333333,281.916667 C0.333333333,322.125 33.0416667,354.833333 73.25,354.833333 L260.75,354.833333 C300.958333,354.833333 333.666667,322.125 333.666667,281.916667 L333.666667,84 C333.666667,11.0833333 259.083333,0.666666667 167,0.666666667 C74.9166667,0.666666667 0.333333333,11.0833333 0.333333333,84 Z M260.75,313.166667 C243.458333,313.166667 229.5,299.208333 229.5,281.916667 C229.5,264.625 243.458333,250.666667 260.75,250.666667 C278.041667,250.666667 292,264.625 292,281.916667 C292,299.208333 278.041667,313.166667 260.75,313.166667 Z M73.25,313.166667 C55.9583333,313.166667 42,299.208333 42,281.916667 C42,264.625 55.9583333,250.666667 73.25,250.666667 C90.5416667,250.666667 104.5,264.625 104.5,281.916667 C104.5,299.208333 90.5416667,313.166667 73.25,313.166667 Z M292,188.166667 L187.833333,188.166667 L187.833333,84 L292,84 L292,188.166667 Z M146.166667,188.166667 L42,188.166667 L42,84 L146.166667,84 L146.166667,188.166667 Z" id="Combined-Shape"></path>
            </g>
            <polygon id="Rail" points="335.404297 384.982503 163.806721 384.982503 160.783203 388.244141 123.026032 425.995696 123.026031 440.079103 377.104675 440.079103 377.10467 426.768572 338.831116 388.244141"></polygon>
        </g>
    </g>
</svg>