<?xml version="1.0" encoding="utf-8"?>
<!-- Generator: Adobe Illustrator 19.2.1, SVG Export Plug-In . SVG Version: 6.00 Build 0)  -->
<svg version="1.1" id="Layer_1" xmlns="http://www.w3.org/2000/svg" xmlns:xlink="http://www.w3.org/1999/xlink" x="0px" y="0px"
	 width="500px" height="500px" viewBox="0 0 500 500" enable-background="new 0 0 500 500" xml:space="preserve">
<linearGradient id="SVGID_1_" gradientUnits="userSpaceOnUse" x1="249.4026" y1="502.3194" x2="249.4026" y2="384.1833">
	<stop  offset="0" style="stop-color:#FFFFFF;stop-opacity:0"/>
	<stop  offset="0.6511" style="stop-color:#FFFFFF"/>
</linearGradient>
<polygon fill-rule="evenodd" clip-rule="evenodd" fill="url(#SVGID_1_)" points="100.46,448.56 39.29,509.72 39.29,520.14 
	459.52,520.14 459.52,509.72 398.9,448.7 "/>
<path fill-rule="evenodd" clip-rule="evenodd" fill="#FFFFFF" d="M249.5,48.67C157.42,48.67,83,59.08,83,132v197.92
	c0,40.21,33.04,73.08,73.25,73.08h187.5c40.21,0,72.25-32.88,72.25-73.08V132C416,59.08,341.58,48.67,249.5,48.67z M156.25,361.17
	c-17.29,0-31.25-13.96-31.25-31.25c0-17.29,13.96-31.25,31.25-31.25s31.25,13.96,31.25,31.25
	C187.5,347.21,173.54,361.17,156.25,361.17z M229,237H124V133h105V237z M270,133h104v104H270V133z M343.75,361.17
	c-17.29,0-31.25-13.96-31.25-31.25c0-17.29,13.96-31.25,31.25-31.25S375,312.62,375,329.92C375,347.21,361.04,361.17,343.75,361.17z
	"/>
</svg>
