<?xml version="1.0" encoding="utf-8"?>
<!-- Generator: Adobe Illustrator 19.2.1, SVG Export Plug-In . SVG Version: 6.00 Build 0)  -->
<svg version="1.1" id="Layer_1" xmlns="http://www.w3.org/2000/svg" xmlns:xlink="http://www.w3.org/1999/xlink" x="0px" y="0px"
	 width="500px" height="500px" viewBox="0 0 500 500" enable-background="new 0 0 500 500" xml:space="preserve">
<path fill-rule="evenodd" clip-rule="evenodd" fill="#FFFFFF" d="M229.17,229.17H125V125h104.17V229.17z M375,229.17H270.83V125H375
	V229.17z M156.25,354.17c-17.29,0-31.25-13.96-31.25-31.25c0-17.29,13.96-31.25,31.25-31.25s31.25,13.96,31.25,31.25
	C187.5,340.21,173.54,354.17,156.25,354.17z M343.75,354.17c-17.29,0-31.25-13.96-31.25-31.25c0-17.29,13.96-31.25,31.25-31.25
	S375,305.62,375,322.92C375,340.21,361.04,354.17,343.75,354.17z M83.33,125v197.92c0,40.21,32.71,72.92,72.92,72.92h187.5
	c40.21,0,72.92-32.71,72.92-72.92V125c0-72.92-74.58-83.33-166.67-83.33S83.33,52.08,83.33,125z"/>
<linearGradient id="SVGID_1_" gradientUnits="userSpaceOnUse" x1="250.2574" y1="500.9007" x2="250.2574" y2="396.6952">
	<stop  offset="0" style="stop-color:#FFFFFF;stop-opacity:0"/>
	<stop  offset="0.6511" style="stop-color:#FFFFFF"/>
</linearGradient>
<polygon fill-rule="evenodd" clip-rule="evenodd" fill="url(#SVGID_1_)" points="148.54,400.48 107.11,441.91 107.11,454.92 
	393.41,454.92 393.41,443.18 351.27,400.76 "/>
</svg>
