<?xml version="1.0" encoding="utf-8"?>
<!-- Generator: Adobe Illustrator 19.2.1, SVG Export Plug-In . SVG Version: 6.00 Build 0)  -->
<svg version="1.1" id="Layer_1" xmlns="http://www.w3.org/2000/svg" xmlns:xlink="http://www.w3.org/1999/xlink" x="0px" y="0px"
	 width="500px" height="500px" viewBox="0 0 500 500" enable-background="new 0 0 500 500" xml:space="preserve">
<linearGradient id="SVGID_1_" gradientUnits="userSpaceOnUse" x1="249.4026" y1="500.5155" x2="249.4026" y2="382.8364">
	<stop  offset="0" style="stop-color:#FFFFFF;stop-opacity:0"/>
	<stop  offset="0.6511" style="stop-color:#FFFFFF"/>
</linearGradient>
<polygon fill-rule="evenodd" clip-rule="evenodd" fill="url(#SVGID_1_)" points="104.4,444.62 39.29,509.72 39.29,520.14 
	459.52,520.14 459.52,509.72 394.94,444.72 "/>
<polygon fill-rule="evenodd" clip-rule="evenodd" fill="#FFFFFF" points="331.23,380.58 169.16,379.5 160.78,388.24 157.04,391.99 
	157.04,400.03 342.06,400.03 342.06,391.49 338.83,388.24 "/>
<path fill-rule="evenodd" clip-rule="evenodd" fill="#FFFFFF" d="M229.17,217.17H125V113h104.17V217.17z M375,217.17H270.83V113H375
	V217.17z M156.25,342.17c-17.29,0-31.25-13.96-31.25-31.25c0-17.29,13.96-31.25,31.25-31.25s31.25,13.96,31.25,31.25
	C187.5,328.21,173.54,342.17,156.25,342.17z M343.75,342.17c-17.29,0-31.25-13.96-31.25-31.25c0-17.29,13.96-31.25,31.25-31.25
	S375,293.62,375,310.92C375,328.21,361.04,342.17,343.75,342.17z M83.33,113v197.92c0,40.21,32.71,72.92,72.92,72.92h187.5
	c40.21,0,72.92-32.71,72.92-72.92V113c0-72.92-74.58-83.33-166.67-83.33S83.33,40.08,83.33,113z"/>
</svg>
