<svg xmlns="http://www.w3.org/2000/svg" width="110" height="88" viewBox="0 0 110 88">
  <path fill="#686969" d="M89.821616 48.959216l-10.25 8.572034 10.25 8.572034 0-6.429025 18.312504 0 0-4.286018-18.312504 0zM97.884116 64.959216l10.250004 8.572034-10.250004 8.572034 0-6.429025-18.3125 0 0-4.286018 18.3125 0z"/>
  <path fill="#686969" d="m 64.980866,15.434 c 3.338,0 6.041,-2.71 6.041,-6.036 0,-3.334 -2.703,-6.046 -6.041,-6.046 -3.332,0 -6.037,2.707 -6.037,6.046 0.002,3.334 2.705,6.036 6.037,6.036 z m 0.812,24.781 11.836,5.103 3.371,-2.902 -12.008,-8.418 c 0,0 -2.125,-6.859 -4.014,-12.903 -1.889,-6.042 -6.42,-6.042 -8.676,-5.288 -2.263,0.754 -21.058,8.738 -21.058,8.738 l -1.041,19.383 3.833,0.462 2.707,-15.147 7.625,-3.39 c 0,0 -4.003,8.569 -4.835,13.997 -0.465,3.014 1.396,4.996 1.396,4.996 l -13.235,34.82 5.798,4.982 13.695,-29.947 5.925,8.119 4.643,21.482 7.545,-2.199 c 0,0 -2.879,-10.699 -4.182,-19.736 -1.045,-7.201 -4.199,-10.975 -5.346,-13.238 -1.125,-2.27 -1.584,-4.257 -1.584,-7.271 0,-3.016 3.445,-8.741 3.445,-8.741 l 4.16,7.098 z"/>
</svg>
