<svg version="1.1" id="Layer_1" xmlns="http://www.w3.org/2000/svg" xmlns:xlink="http://www.w3.org/1999/xlink" x="0px" y="0px" width="1422px" height="650px" viewBox="0 0 1422 650" enable-background="new 0 0 1422 650" xml:space="preserve"><path fill="#9FC1F9" d="M0,0h1422v650H0V0z"/><path fill="#9FC1F9" d="M1366.44,188.41l-11.55-11.55c0.18,2.97,0.79,5.43,3.46,8.1C1361.01,187.62,1363.47,188.23,1366.44,188.41 L1366.44,188.41z M1346.81,174.44c-0.05-2.43-0.09-4.48-0.77-6.43l-7.01-7.01c-1.95-0.68-4-0.72-6.44-0.77 c-1.68-0.03-3.51-0.07-5.43-0.37l20.03,20.14C1346.88,178.04,1346.84,176.16,1346.81,174.44L1346.81,174.44z M1330.18,152.15 l-11.54-11.54c0.18,2.97,0.79,5.42,3.45,8.09C1324.75,151.36,1327.21,151.97,1330.18,152.15L1330.18,152.15z M1293.92,115.89 l-11.52-11.52c0.18,2.97,0.79,5.42,3.44,8.07C1288.51,115.11,1290.96,115.72,1293.92,115.89L1293.92,115.89z M551.59,577.86 l73.13-72.84l-0.01-0.01l-73.11,72.84L551.59,577.86z M640.7,107.13l27.16,48.9l7.62-7.63l94.71-94.72l-49.52-26.53L640.7,107.13z M545.36,584.07v-0.01l-0.57,0.57l-2.19,2.18l0.01,0.01l2.18-2.18L545.36,584.07z M309.83,396.88l-59.07,59.06v0.01L309.83,396.88 L172.92,259.97L309.83,396.88z M0,650h23.37L0,626.63V650z M1310.56,138.19c-0.05-2.43-0.09-4.48-0.77-6.43l-7.01-7.01 c-1.94-0.67-3.99-0.71-6.42-0.76c-1.62-0.03-3.38-0.07-5.22-0.34l19.78,19.88C1310.63,141.65,1310.59,139.85,1310.56,138.19 L1310.56,138.19z M1265.15,552.07l6.68,6.24l-3.67-3.82C1267.05,553.49,1266.08,552.7,1265.15,552.07z M660.09,469.77l-31.83,31.71 v0.01l31.83-31.71V469.77z M321.55,627.19l-9.1-9.1l-0.27,0.27l-12.23-12.23l0.27-0.27l-9.71-9.71c-7.05-7.05-8.12-17.78-3.27-25.98 l-34.13,34.12L298.82,650h27.59l18.01-18.01C336.76,634.97,327.74,633.38,321.55,627.19L321.55,627.19z"/><linearGradient id="SVGID_1_" gradientUnits="userSpaceOnUse" x1="-13847.2217" y1="6005.2754" x2="-13984.0059" y2="5868.4912" gradientTransform="matrix(0.2664 0.0429 -0.0429 -0.2664 4262.6646 2794.6182)"><stop offset="0" style="stop-color:#4285F4"/><stop offset="0.144" style="stop-color:#5994F5"/><stop offset="0.37" style="stop-color:#78A8F7"/><stop offset="0.591" style="stop-color:#8DB6F8"/><stop offset="0.804" style="stop-color:#9BBEF9"/><stop offset="1" style="stop-color:#9FC1F9"/></linearGradient><path fill="url(#SVGID_1_)" d="M321.55,627.19l-9.1-9.1l-0.27,0.27l-12.23-12.23l0.27-0.27l-9.71-9.71 c-7.05-7.05-8.12-17.78-3.27-25.98l-34.13,34.12L298.82,650h27.59l18.01-18.01C336.76,634.97,327.74,633.38,321.55,627.19 L321.55,627.19z"/><path fill="#9FC1F9" d="M146.42,144.97l-58.81-19.35v-0.01c-10.45-2.55-20.11-8.59-27.05-17.86c-8.92-11.91-11.45-26.65-8.2-40.08 L0,120.03v17.15l77.11,77.11L146.42,144.97z"/><linearGradient id="SVGID_2_" gradientUnits="userSpaceOnUse" x1="-7640.1587" y1="-3831.636" x2="-7805.3823" y2="-3666.4138" gradientTransform="matrix(0.432 0.0134 0.0134 0.432 3454.1091 1861.1438)"><stop offset="0" style="stop-color:#4285F4"/><stop offset="0.144" style="stop-color:#5994F5"/><stop offset="0.37" style="stop-color:#78A8F7"/><stop offset="0.591" style="stop-color:#8DB6F8"/><stop offset="0.804" style="stop-color:#9BBEF9"/><stop offset="1" style="stop-color:#9FC1F9"/></linearGradient><path fill="url(#SVGID_2_)" d="M146.42,144.97l-58.81-19.35v-0.01c-10.45-2.55-20.11-8.59-27.05-17.86 c-8.92-11.91-11.45-26.65-8.2-40.08L0,120.03v17.15l77.11,77.11L146.42,144.97z"/><path fill="#9FC1F9" d="M147.1,144.29l-0.09-0.09v0.18L147.1,144.29z"/><linearGradient id="SVGID_3_" gradientUnits="userSpaceOnUse" x1="-7544.0835" y1="-3735.5593" x2="-7709.3076" y2="-3570.3386" gradientTransform="matrix(0.432 0.0134 0.0134 0.432 3454.1091 1861.1438)"><stop offset="0" style="stop-color:#4285F4"/><stop offset="0.144" style="stop-color:#5994F5"/><stop offset="0.37" style="stop-color:#78A8F7"/><stop offset="0.591" style="stop-color:#8DB6F8"/><stop offset="0.804" style="stop-color:#9BBEF9"/><stop offset="1" style="stop-color:#9FC1F9"/></linearGradient><path fill="url(#SVGID_3_)" d="M147.1,144.29l-0.09-0.09v0.18L147.1,144.29z"/><path fill="#1A73E8" d="M60.56,107.75c6.94,9.27,16.6,15.31,27.05,17.86v0.01l58.81,19.35l0.59,0.19v-0.96l0.06-67.17l-0.18,0.01 c-0.01-0.18-0.01-0.37-0.02-0.56c0-0.16-0.02-0.32-0.03-0.48c-0.04-0.7-0.1-1.39-0.17-2.08c-0.03-0.27-0.07-0.55-0.1-0.82 c-0.07-0.59-0.15-1.17-0.24-1.75c-0.04-0.3-0.1-0.6-0.15-0.9c-0.1-0.57-0.22-1.14-0.34-1.7c-0.06-0.29-0.12-0.58-0.19-0.87 c-0.14-0.62-0.31-1.23-0.48-1.85l-0.18-0.66c-0.25-0.84-0.52-1.67-0.81-2.49c-0.04-0.12-0.1-0.24-0.14-0.36 c-0.25-0.7-0.52-1.39-0.81-2.08l-0.36-0.81c-0.24-0.53-0.48-1.07-0.74-1.6c-0.15-0.3-0.3-0.59-0.45-0.89 c-0.26-0.51-0.53-1.01-0.81-1.51c-0.16-0.29-0.32-0.58-0.49-0.87c-0.3-0.53-0.63-1.05-0.96-1.57c-0.16-0.24-0.31-0.49-0.47-0.73 c-0.5-0.75-1.02-1.5-1.57-2.23c-15.86-21.18-45.99-25.51-67.17-9.65c-0.01,0.01-0.03,0.02-0.04,0.03 c-9.25,6.94-15.28,16.61-17.81,27.06C49.11,81.1,51.64,95.84,60.56,107.75z M82.56,57.07c5.85-4.38,13.06-6.23,20.31-5.18 c7.24,1.04,13.64,4.84,18.02,10.69c4.38,5.85,6.23,13.07,5.18,20.31c-1.04,7.24-4.84,13.64-10.69,18.02 c-4.72,3.55-10.47,5.46-16.38,5.45c-8.34,0-16.58-3.79-21.95-10.96c-2.2-2.93-3.79-6.27-4.66-9.82c-0.33-1.34,0.49-2.7,1.83-3.03 c1.34-0.33,2.7,0.49,3.03,1.83c0.72,2.91,2,5.61,3.81,8.03c3.58,4.79,8.82,7.89,14.73,8.74c5.92,0.84,11.81-0.66,16.6-4.24 c9.88-7.4,11.9-21.45,4.5-31.33c-3.58-4.79-8.82-7.89-14.73-8.74s-11.81,0.65-16.6,4.24c-4.76,3.55-7.91,8.85-8.74,14.73 c-0.22,1.36-1.5,2.29-2.86,2.08c-1.33-0.21-2.25-1.44-2.09-2.78V75.1C72.91,67.86,76.71,61.46,82.56,57.07z"/><path fill="#FFFFFF" d="M71.87,75.1v0.01c-0.17,1.37,0.8,2.62,2.17,2.79c1.34,0.17,2.56-0.76,2.78-2.09 c0.83-5.88,3.98-11.18,8.74-14.73c4.74-3.57,10.72-5.1,16.6-4.24c5.91,0.85,11.15,3.95,14.73,8.74c7.4,9.88,5.38,23.93-4.5,31.33 c-4.79,3.58-10.68,5.08-16.6,4.24c-5.91-0.85-11.15-3.95-14.73-8.74c-1.8-2.39-3.09-5.12-3.81-8.03c-0.33-1.34-1.69-2.16-3.03-1.83 s-2.16,1.69-1.83,3.03c0.87,3.55,2.46,6.89,4.66,9.82c5.37,7.17,13.61,10.96,21.95,10.96c5.91,0.01,11.66-1.9,16.38-5.45 c5.85-4.38,9.65-10.78,10.69-18.02c1.05-7.24-0.8-14.46-5.18-20.31s-10.78-9.65-18.02-10.69c-7.25-1.05-14.46,0.8-20.31,5.18 C76.71,61.46,72.91,67.86,71.87,75.1z"/><path fill="#9FC1F9" d="M416.76,180.36l-57.09-57.09h-35.6l18.77-18.77c-9.62-15.6-9.94-35.3-0.96-51.16l-0.65-0.65l-66.41,66.41 l74.12,74.12c14.25-6.08,31.43-3.27,43.12,8.43l36.32,36.33l49.06-49.07l-0.32-0.32C457.92,199.45,433.12,196.72,416.76,180.36z"/><linearGradient id="SVGID_4_" gradientUnits="userSpaceOnUse" x1="-11531.1406" y1="-1077.4751" x2="-11822.4795" y2="-786.1359" gradientTransform="matrix(0.3245 0.0913 0.0913 0.3245 4252.8911 1519.9111)"><stop offset="0" style="stop-color:#4285F4"/><stop offset="0.144" style="stop-color:#5994F5"/><stop offset="0.37" style="stop-color:#78A8F7"/><stop offset="0.591" style="stop-color:#8DB6F8"/><stop offset="0.804" style="stop-color:#9BBEF9"/><stop offset="1" style="stop-color:#9FC1F9"/></linearGradient><path fill="url(#SVGID_4_)" d="M416.76,180.36l-57.09-57.09h-35.6l18.77-18.77c-9.62-15.6-9.94-35.3-0.96-51.16l-0.65-0.65 l-66.41,66.41l74.12,74.12c14.25-6.08,31.43-3.27,43.12,8.43l36.32,36.33l49.06-49.07l-0.32-0.32 C457.92,199.45,433.12,196.72,416.76,180.36z"/><path fill="#9FC1F9" d="M380.81,299.61l-14.41,14.41l-0.1-27.91l-29.35-29.35c-14.05-14.05-15.28-36.04-3.64-51.33l-0.08-0.08 l-47.2,47.21l92.29,92.3l43.24-43.24C408.84,308.59,393.03,307.91,380.81,299.61L380.81,299.61z"/><linearGradient id="SVGID_5_" gradientUnits="userSpaceOnUse" x1="-15572.5967" y1="-1984.8818" x2="-15813.6973" y2="-1743.7808" gradientTransform="matrix(0.2704 0.0701 0.0701 0.2704 4731.7275 1877.474)"><stop offset="0" style="stop-color:#4285F4"/><stop offset="0.144" style="stop-color:#5994F5"/><stop offset="0.37" style="stop-color:#78A8F7"/><stop offset="0.591" style="stop-color:#8DB6F8"/><stop offset="0.804" style="stop-color:#9BBEF9"/><stop offset="1" style="stop-color:#9FC1F9"/></linearGradient><path fill="url(#SVGID_5_)" d="M380.81,299.61l-14.41,14.41l-0.1-27.91l-29.35-29.35c-14.05-14.05-15.28-36.04-3.64-51.33 l-0.08-0.08l-47.2,47.21l92.29,92.3l43.24-43.24C408.84,308.59,393.03,307.91,380.81,299.61L380.81,299.61z"/><path fill="#1A73E8" d="M348.94,193.22c-6.19,2.63-11.58,6.84-15.63,12.21c-11.64,15.29-10.41,37.28,3.64,51.33l29.35,29.35 l0.1,27.91l14.41-14.41c12.22,8.3,28.03,8.98,40.75,2.01c3.15-1.73,6.12-3.92,8.78-6.58c15.21-15.21,15.12-39.97-0.2-55.3 l-1.76-1.76l-36.32-36.33C380.37,189.95,363.19,187.15,348.94,193.22L348.94,193.22z M405.94,271.39c-0.79,0.78-1.81,1.17-2.83,1.17 s-2.05-0.39-2.83-1.17l-41.14-41.15c-1.56-1.56-1.56-4.1,0-5.66s4.1-1.56,5.66,0l41.14,41.15 C407.5,267.29,407.5,269.83,405.94,271.39z"/><path fill="#FFFFFF" d="M421.3,42.51c-19.66-19.66-51.53-19.66-71.19,0c-3.3,3.3-6.04,6.95-8.23,10.83 c-8.97,15.87-8.66,35.56,0.96,51.16l-18.77,18.77h35.6l57.09,57.09c16.36,16.36,41.16,19.09,60.36,8.23 c3.88-2.19,7.53-4.93,10.83-8.23c19.66-19.66,19.66-51.53,0-71.19L421.3,42.51z M389.86,62.99c1.56-1.56,4.1-1.56,5.66,0 l70.51,70.51c1.56,1.56,1.56,4.1,0,5.66c-0.79,0.78-1.81,1.17-2.83,1.17s-2.05-0.39-2.83-1.17l-70.51-70.51 C388.3,67.09,388.3,64.55,389.86,62.99L389.86,62.99z M445.88,159.31c-0.79,0.78-1.81,1.17-2.83,1.17s-2.05-0.39-2.83-1.17 L369.71,88.8c-1.56-1.56-1.56-4.1,0-5.66s4.1-1.56,5.66,0l70.51,70.51C447.44,155.21,447.44,157.75,445.88,159.31L445.88,159.31z M359.14,224.58c-1.56,1.56-1.56,4.1,0,5.66l41.14,41.15c0.78,0.78,1.81,1.17,2.83,1.17s2.04-0.39,2.83-1.17 c1.56-1.56,1.56-4.1,0-5.66l-41.14-41.15C363.24,223.02,360.7,223.02,359.14,224.58L359.14,224.58z"/><path fill="#1A73E8" d="M460.37,139.16c0.78,0.78,1.81,1.17,2.83,1.17s2.04-0.39,2.83-1.17c1.56-1.56,1.56-4.1,0-5.66l-70.51-70.51 c-1.56-1.56-4.1-1.56-5.66,0c-1.56,1.56-1.56,4.1,0,5.66L460.37,139.16L460.37,139.16z M445.88,153.65l-70.51-70.51 c-1.56-1.56-4.1-1.56-5.66,0s-1.56,4.1,0,5.66l70.51,70.51c0.78,0.78,1.81,1.17,2.83,1.17s2.04-0.39,2.83-1.17 C447.44,157.75,447.44,155.21,445.88,153.65L445.88,153.65z"/><path fill="#9FC1F9" d="M627,198.56l117.39,117.4l43.08-43.08L652.6,172.96L627,198.56z"/><linearGradient id="SVGID_6_" gradientUnits="userSpaceOnUse" x1="748.4607" y1="670.1257" x2="688.4617" y2="748.1257" gradientTransform="matrix(1 0 0 1 0 -488)"><stop offset="0" style="stop-color:#4285F4"/><stop offset="0.144" style="stop-color:#5994F5"/><stop offset="0.37" style="stop-color:#78A8F7"/><stop offset="0.591" style="stop-color:#8DB6F8"/><stop offset="0.804" style="stop-color:#9BBEF9"/><stop offset="1" style="stop-color:#9FC1F9"/></linearGradient><path fill="url(#SVGID_6_)" d="M627,198.56l117.39,117.4l43.08-43.08L652.6,172.96L627,198.56z"/><path fill="#D2E3FC" d="M675.48,148.4l-7.62,7.62l15.98,28.76l10.7-10.71c0.98-0.98,2.56-0.98,3.53,0c0.98,0.98,0.98,2.56,0,3.54 l-13.05,13.05c-0.46,0.46-1.09,0.72-1.75,0.72c-0.12,0-0.23-0.01-0.35-0.02c-0.78-0.11-1.46-0.58-1.84-1.26l-16.89-30.41 l-12.55,12.55l0.96,0.71l134.88,99.92l1.21,0.89l84.79-84.8l-60.95,60.95L675.48,148.4z"/><path fill="#1A73E8" d="M681.08,190.11c0.38,0.68,1.06,1.15,1.84,1.26c0.12,0.01,0.23,0.02,0.35,0.02c0.66,0,1.29-0.26,1.75-0.72 l13.05-13.05c0.98-0.98,0.98-2.56,0-3.54c-0.97-0.98-2.55-0.98-3.53,0l-10.7,10.71l-15.98-28.76l-27.16-48.9l79.97-79.98 l49.52,26.53l3.7-3.7L721.4,21.86c-0.97-0.52-2.17-0.34-2.95,0.44l-82.62,82.63c-0.79,0.79-0.96,2-0.42,2.98l28.78,51.79 L681.08,190.11L681.08,190.11z"/><path fill="#FFFFFF" d="M788.71,35.16l-14.83,14.83l-3.7,3.7l-94.71,94.72l137.04,101.52l60.95-60.95l16.76-16.76L788.71,35.16z M844.13,163.66c-0.46,0.46-1.12,0.68-1.77,0.6l-41.46,41.46c-0.39,0.4-0.94,0.62-1.49,0.62c-1.07,0.01-1.97-0.78-2.1-1.84 l-2.48-18.51l-14.48-14.49l-4.57,4.57c-0.4,0.42-0.94,0.63-1.5,0.63c-0.25,0-0.5-0.04-0.75-0.14c-0.78-0.29-1.32-1.02-1.37-1.85 l-1.27-18.92l-12.22-12.22l-4.12,4.12c-0.4,0.42-0.94,0.63-1.5,0.63c-0.27,0-0.54-0.05-0.8-0.16c-0.79-0.32-1.31-1.09-1.32-1.94 l-0.38-29.9c-0.01-0.57,0.22-1.12,0.62-1.53c0.41-0.4,1-0.63,1.53-0.62l29.9,0.38c0.85,0.01,1.62,0.53,1.94,1.32s0.14,1.7-0.47,2.3 l-4.14,4.14l12.03,12.03l19.28,1.29c0.83,0.06,1.55,0.59,1.85,1.37c0.29,0.78,0.1,1.66-0.49,2.25l-4.74,4.74l14.09,14.1l19.2,2.57 c0.85-0.8,2.19-0.76,2.99,0.09C844.91,161.57,844.91,162.85,844.13,163.66L844.13,163.66z"/><path fill="#FFFFFF" d="M800.94,199.68l35.38-35.39l-14.7-1.97l-22.65,22.65L800.94,199.68z"/><path fill="#1A73E8" d="M841.15,160.66l-19.2-2.57l0.45,0.45c0.83,0.83,0.83,2.17,0,3l-0.78,0.78l14.7,1.97l-35.38,35.39 l-1.97-14.71l-1.08,1.08c-0.83,0.83-2.17,0.83-3,0l-0.06-0.06l2.48,18.51c0.13,1.06,1.03,1.85,2.1,1.84c0.55,0,1.1-0.22,1.49-0.62 l41.46-41.46c0.65,0.08,1.31-0.14,1.77-0.6c0.81-0.84,0.78-2.18-0.07-2.99C843.25,159.89,841.97,159.89,841.15,160.66L841.15,160.66 z"/><path fill="#FFFFFF" d="M783.34,168.5l21.51-21.51l13.04,13.04l-21.51,21.51L783.34,168.5z"/><path fill="#1A73E8" d="M796.39,186.67c0.57,0,1.11-0.23,1.5-0.62l1.08-1.08l22.65-22.65l0.78-0.78c0.83-0.83,0.83-2.17,0-3 l-0.45-0.45l-14.09-14.1l-3,3l13.04,13.04l-21.51,21.51l-13.04-13.04l-3,3l14.48,14.49l0.06,0.06 C795.29,186.45,795.83,186.67,796.39,186.67z"/><path fill="#FFFFFF" d="M776.09,169.77l30.2-30.2l-14.24-0.96l-16.91,16.91L776.09,169.77z"/><path fill="#1A73E8" d="M783.35,168.5l21.51-21.51l3-3l4.74-4.74c0.59-0.59,0.78-1.47,0.49-2.25c-0.3-0.78-1.02-1.31-1.85-1.37 l-19.28-1.29l0.68,0.68c0.83,0.83,0.83,2.17,0,3l-0.59,0.59l14.24,0.96l-30.2,30.2l-0.95-14.25l-0.76,0.76 c-0.41,0.42-0.96,0.62-1.5,0.62s-1.09-0.21-1.5-0.62l-0.49-0.49l1.27,18.92c0.05,0.83,0.59,1.56,1.37,1.85 c0.25,0.1,0.5,0.14,0.75,0.14c0.56,0,1.1-0.21,1.5-0.63l4.57-4.57L783.35,168.5L783.35,168.5z"/><path fill="#FFFFFF" d="M755.11,141.14l22.4-22.4l-22.69-0.29L755.11,141.14z"/><path fill="#1A73E8" d="M757.23,139.13l18.26-18.26c0.83-0.83,2.17-0.83,3,0l1.44,1.44l4.14-4.14c0.61-0.6,0.79-1.51,0.47-2.3 s-1.09-1.31-1.94-1.32l-29.9-0.38c-0.53-0.01-1.12,0.22-1.53,0.62c-0.4,0.41-0.63,0.96-0.62,1.53l0.38,29.9 c0.01,0.85,0.53,1.62,1.32,1.94c0.26,0.11,0.53,0.16,0.8,0.16c0.56,0,1.1-0.21,1.5-0.63l4.12-4.12l-1.44-1.44 C756.4,141.3,756.4,139.96,757.23,139.13L757.23,139.13z M755.11,141.14l-0.29-22.69l22.69,0.29L755.11,141.14z"/><path fill="#FFFFFF" d="M761.72,140.64l15.26-15.26l11.15,11.15l-15.26,15.26L761.72,140.64z"/><path fill="#1A73E8" d="M772.88,156.9c0.54,0,1.09-0.2,1.5-0.62l0.76-0.76l16.91-16.91l0.59-0.59c0.83-0.83,0.83-2.17,0-3 l-0.68-0.68l-12.03-12.03l-1.44-1.44c-0.83-0.83-2.17-0.83-3,0l-18.26,18.26c-0.83,0.83-0.83,2.17,0,3l1.44,1.44l12.22,12.22 l0.49,0.49C771.79,156.69,772.34,156.9,772.88,156.9L772.88,156.9z M776.99,125.37l11.15,11.15l-15.26,15.26l-11.15-11.15 L776.99,125.37z"/><path fill="#9FC1F9" d="M1333.71,255.48c-1.56,1.56-4.1,1.56-5.66,0l-111.89-111.89c-0.89-0.89-1.25-2.09-1.13-3.25l-38.93,38.94 l117.03,117.03l50.05-50.04l-0.28-0.28c-0.18,0.36-0.41,0.7-0.7,1L1333.71,255.48z"/><linearGradient id="SVGID_7_" gradientUnits="userSpaceOnUse" x1="-4194.0688" y1="2815.4954" x2="-4344.9312" y2="2664.6333" gradientTransform="matrix(0.3768 0.1284 -0.1284 -0.3768 3225.0554 1788.5864)"><stop offset="0" style="stop-color:#4285F4"/><stop offset="0.144" style="stop-color:#5994F5"/><stop offset="0.37" style="stop-color:#78A8F7"/><stop offset="0.591" style="stop-color:#8DB6F8"/><stop offset="0.804" style="stop-color:#9BBEF9"/><stop offset="1" style="stop-color:#9FC1F9"/></linearGradient><path fill="url(#SVGID_7_)" d="M1333.71,255.48c-1.56,1.56-4.1,1.56-5.66,0l-111.89-111.89c-0.89-0.89-1.25-2.09-1.13-3.25 l-38.93,38.94l117.03,117.03l50.05-50.04l-0.28-0.28c-0.18,0.36-0.41,0.7-0.7,1L1333.71,255.48z"/><path fill="#E8F0FE" d="M1234.44,133.74c-0.4-0.4-0.75-0.82-1.08-1.25l-3.05-3.05c-1.56-1.56-4.1-1.56-5.66,0l-8.49,8.49 c-0.67,0.68-1.04,1.53-1.13,2.41c-0.12,1.16,0.24,2.36,1.13,3.25l111.89,111.89c1.56,1.56,4.1,1.56,5.66,0l8.49-8.49 c0.3-0.3,0.52-0.64,0.7-1c0.78-1.51,0.56-3.4-0.7-4.66l-4.06-4.06c-0.43-0.33-0.85-0.68-1.25-1.08L1234.44,133.74z M1269.38,81 c-0.31,0.31-0.62,0.62-0.92,0.94c-2.32,2.4-2.28,6.21,0.08,8.57l5.01,5.01c-0.5-1.43-1.33-2.81-2.77-4.25 c-1.56-1.56-1.56-4.1,0-5.66c1.56-1.56,4.1-1.56,5.66,0c5.67,5.67,5.78,11.49,5.88,16.17c0.02,0.92,0.04,1.77,0.09,2.6l11.52,11.52 c0.82,0.05,1.68,0.07,2.6,0.09c4.68,0.09,10.5,0.21,16.17,5.88s5.78,11.49,5.87,16.17c0.02,0.91,0.04,1.77,0.08,2.58l11.54,11.54 c0.82,0.05,1.67,0.07,2.58,0.09c4.68,0.09,10.5,0.21,16.17,5.88s5.79,11.49,5.88,16.17c0.02,0.91,0.04,1.76,0.08,2.57l11.55,11.55 c0.82,0.05,1.67,0.07,2.58,0.09c4.68,0.09,10.5,0.21,16.17,5.88c1.56,1.56,1.56,4.1,0,5.66c-0.79,0.77-1.81,1.16-2.83,1.16 s-2.05-0.39-2.83-1.17c-1.43-1.43-2.81-2.27-4.23-2.76l4.94,4.94c2.36,2.36,6.17,2.39,8.57,0.08c0.31-0.3,0.63-0.61,0.94-0.92 c33.24-33.24,30.91-84.8-2.33-118.04S1302.62,47.76,1269.38,81L1269.38,81z M1338.71,80.39c-1.86,0-3.37-1.51-3.37-3.37 s1.51-3.37,3.37-3.37s3.37,1.51,3.37,3.37S1340.57,80.39,1338.71,80.39z M1356.91,84.44c-2.61,0-4.72-2.11-4.72-4.72 s2.11-4.72,4.72-4.72s4.72,2.11,4.72,4.72S1359.52,84.44,1356.91,84.44z"/><path fill="#E8F0FE" d="M1307.03,127.52c-1.44-1.44-2.82-2.27-4.25-2.77l7.01,7.01C1309.3,130.34,1308.46,128.96,1307.03,127.52z M1343.27,163.77c-1.43-1.43-2.81-2.27-4.23-2.76l7.01,7.01C1345.55,166.58,1344.71,165.21,1343.27,163.77z"/><path fill="#4285F4" d="M1259.5,108.68c-4.87-4.87-12.76-4.87-17.62,0l-7.44,7.44c-4.47,4.47-4.83,11.49-1.08,16.37 c0.33,0.43,0.68,0.86,1.08,1.25l102.45,102.45c0.39,0.39,0.82,0.75,1.25,1.08c4.89,3.75,11.91,3.4,16.37-1.08l7.44-7.44 c4.38-4.37,4.81-11.18,1.31-16.05l-48.57-48.83L1259.5,108.68L1259.5,108.68z"/><path fill="#D2E3FC" d="M1347.2,180.01l-20.03-20.14c-3.42-0.53-7.11-1.88-10.74-5.51c-3.66-3.66-5-7.39-5.52-10.83l-19.78-19.88 c-3.47-0.51-7.24-1.83-10.95-5.54c-3.74-3.74-5.06-7.54-5.55-11.04l-14.6-14.68l-8.25,8.25l62.9,63.23l48.57,48.83l6.7,6.73 l8.25-8.25l-15.01-15.09c-3.35-0.55-6.96-1.93-10.51-5.48C1349.11,187.03,1347.74,183.38,1347.2,180.01L1347.2,180.01z"/><path fill="#1A73E8" d="M1382.36,201.2c1.02,0,2.04-0.39,2.83-1.16c1.56-1.56,1.56-4.1,0-5.66c-5.67-5.67-11.49-5.79-16.17-5.88 c-0.91-0.02-1.76-0.04-2.58-0.09c-2.97-0.18-5.43-0.79-8.09-3.45c-2.67-2.66-3.28-5.12-3.46-8.1c-0.05-0.82-0.07-1.67-0.08-2.57 c-0.09-4.68-0.21-10.5-5.88-16.17s-11.49-5.79-16.17-5.88c-0.91-0.02-1.76-0.04-2.58-0.09c-2.97-0.18-5.43-0.79-8.09-3.45 c-2.66-2.67-3.27-5.12-3.45-8.09c-0.05-0.86-0.07-1.72-0.08-2.58c-0.09-4.68-0.2-10.5-5.87-16.17s-11.49-5.79-16.17-5.88 c-0.92-0.02-1.77-0.04-2.6-0.09c-2.97-0.18-5.42-0.79-8.07-3.44c-2.65-2.65-3.27-5.11-3.44-8.07c-0.05-0.82-0.07-1.68-0.09-2.6 c-0.1-4.68-0.21-10.5-5.88-16.17c-1.56-1.56-4.1-1.56-5.66,0s-1.56,4.1,0,5.66c1.44,1.44,2.27,2.82,2.77,4.25 c0.67,1.95,0.72,3.99,0.76,6.42c0.03,1.59,0.07,3.32,0.33,5.13c0.49,3.5,1.81,7.3,5.55,11.04c3.71,3.71,7.47,5.04,10.95,5.54 c1.84,0.27,3.6,0.31,5.22,0.34c2.43,0.05,4.48,0.09,6.42,0.76c1.43,0.5,2.81,1.33,4.25,2.77c1.43,1.44,2.27,2.82,2.76,4.24 c0.68,1.95,0.72,3.99,0.77,6.43c0.03,1.66,0.07,3.46,0.35,5.34c0.52,3.44,1.85,7.17,5.52,10.83c3.63,3.63,7.32,4.98,10.74,5.51 c1.92,0.3,3.75,0.34,5.43,0.37c2.44,0.05,4.49,0.09,6.44,0.77c1.43,0.5,2.8,1.33,4.23,2.76c1.44,1.44,2.28,2.81,2.77,4.24 c0.68,1.95,0.72,3.99,0.77,6.43c0.03,1.72,0.07,3.6,0.39,5.57c0.54,3.38,1.91,7.02,5.49,10.6c3.55,3.55,7.16,4.92,10.51,5.48 c2,0.33,3.91,0.37,5.66,0.4c2.44,0.05,4.49,0.1,6.44,0.78c1.43,0.5,2.8,1.33,4.23,2.76C1380.31,200.81,1381.34,201.2,1382.36,201.2 L1382.36,201.2z"/><circle fill="#4285F4" cx="1338.71" cy="77.02" r="3.37"/><circle fill="#4285F4" cx="1356.91" cy="79.72" r="4.72"/><path fill="#D2E3FC" d="M339.71,620.81l-2.72-2.72h-0.01l-5.85-5.85h0.01l-6.42-6.42l-12.27,12.27l9.1,9.1 c6.19,6.19,15.21,7.78,22.87,4.8c2.68-1.04,5.19-2.63,7.36-4.8c1.23-1.23,2.26-2.59,3.13-4.02 C350.01,625.71,343.83,624.93,339.71,620.81L339.71,620.81z M290.51,596.15l9.71,9.71l12.27-12.27l-4.06-4.06h-0.02l-5.85-5.85h0.02 l-5.71-5.71c-0.11-0.11-0.2-0.23-0.31-0.34l-0.03-0.03c-0.37-0.4-0.72-0.82-1.03-1.26c-0.02-0.03-0.04-0.05-0.06-0.08 c-0.97-1.37-1.64-2.88-2.02-4.45c0-0.01-0.01-0.02-0.01-0.03c-0.71-2.99-0.36-6.18,1.07-8.97c-1.41,0.86-2.76,1.89-3.98,3.11 c-1.3,1.3-2.37,2.74-3.27,4.25C282.39,578.37,283.46,589.1,290.51,596.15L290.51,596.15z"/><path fill="#1A73E8" d="M312.22,553.62c0.99,0.28,1.96,0.69,2.87,1.2C314.17,554.3,313.21,553.89,312.22,553.62z M318.05,565.67 c0,6.59-5.37,11.96-11.96,11.96h-9.53c0.1,0.11,0.2,0.23,0.31,0.34l5.71,5.71h16.51c3.37,0,6.11-2.74,6.11-6.11v-13.32l5.85,5.85 v4.93l2.47-2.47l12.23,12.23l0.91,0.91v7.47c0,6.59-5.37,11.96-11.96,11.96h-9.3l-0.68,0.68l6.42,6.42h16.52 c3.37,0,6.11-2.74,6.11-6.11V592.8l5.85,5.85v7.47c0,6.59-5.36,11.96-11.96,11.96h-10.67l2.72,2.72c4.12,4.12,10.3,4.9,15.2,2.36 c1.16-0.6,2.25-1.39,3.23-2.36l2.6-2.6c5.09-5.09,5.09-13.34,0-18.43l-42.69-42.69L318.05,565.67L318.05,565.67z"/><path fill="#1A73E8" d="M316.55,589.53h-8.12l4.06,4.06L316.55,589.53z M340.81,593.18v-3.45l-9.56,9.56h3.45 C338.07,599.29,340.81,596.55,340.81,593.18z M293.42,571.78h12.67c3.37,0,6.11-2.74,6.11-6.11v-12.06 c-4.38-1.22-9.28-0.12-12.73,3.33l-2.6,2.6c-0.99,0.99-1.78,2.09-2.38,3.27C293.08,565.58,292.7,568.76,293.42,571.78L293.42,571.78 z M296.53,577.6c-0.37-0.4-0.72-0.82-1.03-1.26C295.82,576.78,296.16,577.2,296.53,577.6z"/><path fill="#FFFFFF" d="M316.55,589.53l14.5-14.5v-4.93l-5.85-5.85v13.32c0,3.37-2.74,6.11-6.11,6.11h-16.53l5.85,5.85H316.55z M340.81,589.73v3.45c0,3.37-2.74,6.11-6.11,6.11h-3.45l-5.85,5.85h9.3c6.59,0,11.96-5.37,11.96-11.96v-7.47l-0.91-0.91 L340.81,589.73L340.81,589.73z"/><path fill="#FFFFFF" d="M336.98,618.09h10.68c6.6,0,11.96-5.37,11.96-11.96v-7.47l-5.85-5.85v13.32c0,3.37-2.74,6.11-6.11,6.11 h-16.53L336.98,618.09z M312.2,565.67c0,3.37-2.74,6.11-6.11,6.11h-12.67c0,0.01,0.01,0.02,0.01,0.03c0.38,1.57,1.05,3.09,2.02,4.45 c0.02,0.03,0.04,0.05,0.06,0.08c0.31,0.43,0.65,0.85,1.03,1.26l0.03,0.03h9.53c6.59,0,11.96-5.37,11.96-11.96v-8.58l-0.15-0.15 c-0.38-0.38-0.77-0.72-1.18-1.04c-0.11-0.08-0.22-0.16-0.32-0.24c-0.33-0.24-0.67-0.47-1.01-0.68c-0.1-0.06-0.19-0.12-0.29-0.17 c-0.92-0.52-1.88-0.92-2.87-1.2c-0.01,0-0.01,0-0.02-0.01v12.07L312.2,565.67z"/><path fill="#2C66BF" d="M325.4,605.14l5.85-5.85l9.56-9.56l4.94-4.93v-0.01l-12.23-12.23l-2.47,2.47l-14.5,14.5l-4.06,4.06 l-12.27,12.27l-0.27,0.27l12.23,12.23l0.27-0.27l12.27-12.27L325.4,605.14z"/><path fill="#9FC1F9" d="M1336.13,446.87c-11.68-0.59-23.22-5.08-32.5-13.55c-19.62-17.93-22.35-47.51-7.32-68.64l-43.8,43.81 l98.81,98.8l51.02-51.02l-0.85-0.85L1336.13,446.87L1336.13,446.87L1336.13,446.87z"/><linearGradient id="SVGID_8_" gradientUnits="userSpaceOnUse" x1="1546.3781" y1="-224.2406" x2="1479.744" y2="-290.8746" gradientTransform="matrix(0.9021 0.1441 -0.1441 -0.9021 -70.3661 -22.2551)"><stop offset="0" style="stop-color:#4285F4"/><stop offset="0.144" style="stop-color:#5994F5"/><stop offset="0.37" style="stop-color:#78A8F7"/><stop offset="0.591" style="stop-color:#8DB6F8"/><stop offset="0.804" style="stop-color:#9BBEF9"/><stop offset="1" style="stop-color:#9FC1F9"/></linearGradient><path fill="url(#SVGID_8_)" d="M1336.13,446.87c-11.68-0.59-23.22-5.08-32.5-13.55c-19.62-17.93-22.35-47.51-7.32-68.64l-43.8,43.81 l98.81,98.8l51.02-51.02l-0.85-0.85L1336.13,446.87L1336.13,446.87L1336.13,446.87z"/><path fill="#1A73E8" d="M1349.65,401.62l14.64-2.32l-13.21-6.73c-0.96-0.49-1.5-1.55-1.33-2.62l2.32-14.64l-10.48,10.48 c-0.77,0.77-1.94,0.95-2.9,0.46l-13.21-6.73l6.73,13.21c0.49,0.96,0.31,2.14-0.46,2.9l-10.48,10.48l14.64-2.32 c1.07-0.16,2.12,0.38,2.61,1.34l6.73,13.21l2.32-14.64C1347.74,402.63,1348.58,401.79,1349.65,401.62L1349.65,401.62z"/><path fill="#1A73E8" d="M1389.7,382.99l-0.2,0.04c-0.05-0.2-0.09-0.4-0.14-0.6c-0.04-0.16-0.09-0.33-0.13-0.5 c-0.18-0.73-0.38-1.46-0.6-2.18c-0.08-0.28-0.18-0.57-0.27-0.85c-0.19-0.6-0.39-1.21-0.61-1.81c-0.12-0.31-0.23-0.62-0.35-0.93 c-0.22-0.58-0.45-1.16-0.7-1.74c-0.13-0.3-0.25-0.6-0.38-0.89c-0.28-0.63-0.58-1.26-0.89-1.88c-0.11-0.22-0.22-0.45-0.33-0.67 c-0.44-0.84-0.89-1.67-1.37-2.49c-0.07-0.12-0.15-0.24-0.22-0.36c-0.42-0.69-0.84-1.38-1.29-2.05c-0.17-0.27-0.36-0.53-0.54-0.79 c-0.36-0.53-0.73-1.05-1.11-1.56c-0.22-0.29-0.44-0.58-0.66-0.86c-0.38-0.48-0.77-0.96-1.17-1.44c-0.23-0.27-0.46-0.55-0.7-0.82 c-0.44-0.49-0.89-0.98-1.35-1.47c-0.22-0.23-0.43-0.46-0.65-0.69c-0.68-0.7-1.39-1.39-2.12-2.06 c-21.21-19.38-54.23-17.89-73.61,3.32l-0.04,0.04c-1.42,1.56-2.74,3.21-3.96,4.93c-15.04,21.13-12.31,50.71,7.32,68.64 c9.28,8.47,20.82,12.96,32.5,13.55v0.01l65.36,8.54l1.97,0.26L1389.7,382.99L1389.7,382.99z M1348.96,426.72 c-0.17,1.07-1.01,1.91-2.08,2.08c-0.11,0.01-0.24,0.02-0.37,0.02c-0.93,0-1.79-0.52-2.23-1.37l-9.4-18.45l-20.45,3.24 c-1.07,0.17-2.13-0.37-2.62-1.33s-0.31-2.14,0.46-2.9l14.64-14.64l-9.4-18.45c-0.49-0.96-0.31-2.14,0.46-2.9 c0.77-0.77,1.94-0.95,2.9-0.46l18.45,9.4l14.64-14.64c0.97-0.98,2.55-0.98,3.53-0.01c0.57,0.57,0.83,1.38,0.7,2.17l-3.24,20.45 l18.45,9.4c1.23,0.63,1.71,2.14,1.08,3.37c-0.36,0.71-1.05,1.2-1.83,1.33l-20.45,3.24L1348.96,426.72L1348.96,426.72z"/><path fill="#9FC1F9" d="M1403.48,455.69l0.01-0.01l-0.01-0.01V455.69z"/><linearGradient id="SVGID_9_" gradientUnits="userSpaceOnUse" x1="7160.1289" y1="29.4448" x2="7160.145" y2="29.4448" gradientTransform="matrix(0.6745 -0.7383 -0.7383 -0.6745 -3404.158 5761.7222)"><stop offset="0" style="stop-color:#FFFFFF"/><stop offset="1" style="stop-color:#979DA5"/></linearGradient><path opacity="0.8" fill="url(#SVGID_9_)" enable-background="new " d="M1403.48,455.69l0.01-0.01l-0.01-0.01V455.69z"/><path fill="#FFFFFF" d="M1372.65,403.03c1.37-0.22,2.3-1.5,2.08-2.87c-0.13-0.79-0.62-1.46-1.33-1.83l-18.45-9.4l3.24-20.45 c0.97-0.98,0.97-2.56-0.01-3.53s-2.56-0.97-3.53,0.01c-0.37,0.37-0.61,0.84-0.69,1.36l-14.64,14.64l-18.45-9.4 c-0.96-0.49-2.13-0.31-2.9,0.46c-0.77,0.76-0.95,1.94-0.46,2.9l9.4,18.45l-14.64,14.64c-0.77,0.76-0.95,1.94-0.46,2.9 s1.55,1.5,2.62,1.33l20.45-3.24l9.4,18.45c0.44,0.85,1.3,1.37,2.23,1.37c0.13,0,0.26-0.01,0.37-0.02c1.07-0.17,1.91-1.01,2.08-2.08 l3.24-20.45L1372.65,403.03L1372.65,403.03z M1347.57,403.7l-2.32,14.64l-6.73-13.21c-0.49-0.96-1.54-1.5-2.61-1.34l-14.64,2.32 l10.48-10.48c0.77-0.76,0.95-1.94,0.46-2.9l-6.73-13.21l13.21,6.73c0.96,0.49,2.13,0.31,2.9-0.46l10.48-10.48l-2.32,14.64 c-0.17,1.07,0.37,2.13,1.33,2.62l13.21,6.73l-14.64,2.32C1348.58,401.79,1347.74,402.63,1347.57,403.7L1347.57,403.7z"/><path fill="#9FC1F9" d="M1331.05,619.85l-59.22-61.53l-6.68-6.24c-2.96-2.03-5.41-2.36-10.26-2.51 c-20.54-0.64-23.04-7.49-48.03-45.15c-0.14-0.21-0.23-0.45-0.27-0.7l-24.69,20.38L1308.41,650l27.97-27.98 C1334.38,622.08,1332.44,621.29,1331.05,619.85L1331.05,619.85z"/><linearGradient id="SVGID_10_" gradientUnits="userSpaceOnUse" x1="1276.7621" y1="-19.4442" x2="1251.3031" y2="-44.9021" gradientTransform="matrix(1 0 0 -1 0 536)"><stop offset="0" style="stop-color:#4285F4"/><stop offset="0.144" style="stop-color:#5994F5"/><stop offset="0.37" style="stop-color:#78A8F7"/><stop offset="0.591" style="stop-color:#8DB6F8"/><stop offset="0.804" style="stop-color:#9BBEF9"/><stop offset="1" style="stop-color:#9FC1F9"/></linearGradient><path fill="url(#SVGID_10_)" d="M1331.05,619.85l-59.22-61.53l-6.68-6.24c-2.96-2.03-5.41-2.36-10.26-2.51 c-20.54-0.64-23.04-7.49-48.03-45.15c-0.14-0.21-0.23-0.45-0.27-0.7l-24.69,20.38L1308.41,650l27.97-27.98 C1334.38,622.08,1332.44,621.29,1331.05,619.85L1331.05,619.85z"/><path fill="#D2E3FC" d="M1254.9,549.56c4.84,0.15,7.29,0.49,10.26,2.51c0.92,0.63,1.89,1.42,3.01,2.43l3.67,3.82l59.22,61.53 c1.39,1.44,3.33,2.23,5.33,2.17c1.77-0.05,3.53-0.74,4.88-2.09c2.82-2.82,2.79-7.4-0.06-10.19l-65.25-63.44 c-4.2-4.67-4.73-6.83-5.03-13c-0.97-19.99-7.72-22.75-44.92-48.21c-0.51-0.37-1.2-0.42-1.77-0.13l-0.27,0.14 c-1.07,0.54-1.31,1.97-0.46,2.82l31.2,31.2c1.12,1.12,1.4,2.89,0.53,4.21c-0.98,1.55-3.03,2-4.58,1.02 c-0.21-0.13-0.4-0.29-0.57-0.46l-33.42-31.98c-0.92-0.88-2.38-0.85-3.26,0.08c-0.85,0.89-0.85,2.29,0,3.18l31.9,33.34 c1.12,1.12,1.4,2.89,0.53,4.21c-0.98,1.55-3.03,2-4.58,1.02c-0.21-0.13-0.4-0.29-0.57-0.46l-31.1-31.1 c-0.93-0.93-2.51-0.55-2.92,0.7c-0.09,0.27-0.11,0.55-0.06,0.83c0.04,0.25,0.13,0.49,0.27,0.7 C1231.86,542.07,1234.36,548.92,1254.9,549.56L1254.9,549.56z"/><path fill="#9FC1F9" d="M402.07,446.28l-3.12,3.12l3.13-3.11L402.07,446.28z"/><linearGradient id="SVGID_11_" gradientUnits="userSpaceOnUse" x1="-1664.2512" y1="-10773.7383" x2="-1905.3433" y2="-11014.8291" gradientTransform="matrix(0.6164 0.4161 -0.4161 -0.6164 -3052.667 -5504.5176)"><stop offset="0" style="stop-color:#4285F4"/><stop offset="0.144" style="stop-color:#5994F5"/><stop offset="0.37" style="stop-color:#78A8F7"/><stop offset="0.591" style="stop-color:#8DB6F8"/><stop offset="0.804" style="stop-color:#9BBEF9"/><stop offset="1" style="stop-color:#9FC1F9"/></linearGradient><path fill="url(#SVGID_11_)" d="M402.07,446.28l-3.12,3.12l3.13-3.11L402.07,446.28z"/><path fill="#9FC1F9" d="M542.61,586.82l-0.01-0.01l-13.2,13.15l-57.86-82.61l-80.52-60.02l-36.16,36.16L511.38,650h85.15 l-67.12-50.03L542.61,586.82z"/><linearGradient id="SVGID_12_" gradientUnits="userSpaceOnUse" x1="-1567.844" y1="-10870.1445" x2="-1808.936" y2="-11111.2363" gradientTransform="matrix(0.6164 0.4161 -0.4161 -0.6164 -3052.667 -5504.5176)"><stop offset="0" style="stop-color:#4285F4"/><stop offset="0.144" style="stop-color:#5994F5"/><stop offset="0.37" style="stop-color:#78A8F7"/><stop offset="0.591" style="stop-color:#8DB6F8"/><stop offset="0.804" style="stop-color:#9BBEF9"/><stop offset="1" style="stop-color:#9FC1F9"/></linearGradient><path fill="url(#SVGID_12_)" d="M542.61,586.82l-0.01-0.01l-13.2,13.15l-57.86-82.61l-80.52-60.02l-36.16,36.16L511.38,650h85.15 l-67.12-50.03L542.61,586.82z"/><path fill="#FFFFFF" d="M814.23,456.49l-15.38,15.33l45.27,69.63l-45.25,45.08l0.09,0.11c0.92,1.03,0.83,2.61-0.2,3.53l0,0 c-0.48,0.42-1.07,0.63-1.66,0.63c-0.65,0-1.28-0.26-1.77-0.75L735.16,650h25.63L872.1,539.11L814.23,456.49z M625.34,644.67 l-5.35,5.33h8.81L625.34,644.67z"/><path fill="#80ADF8" d="M795.23,589.96l-53.89-60.42l-0.25-0.18l-32.73,32.6l-2.99,6.5L695.01,650h40.15l60.17-59.95 C795.3,590.02,795.26,590,795.23,589.96L795.23,589.96z M678.26,591.95c-0.05,0.62-0.11,1.25-0.18,1.88 c-2.76,25.32,2.78,43.57,10.06,56.17h1.82l10.15-79.82L678.26,591.95L678.26,591.95z M744.72,525.83l0.17,0.2l23.2,26.01l4.64-27.55 h0.01c0.43-5.2,2.62-10.27,6.55-14.26c8.98-9.13,23.72-9.26,32.86-0.29l0.02,0.02c9.14,8.99,9.26,23.74,0.27,32.88 c-0.31,0.32-0.63,0.62-0.95,0.91c-0.1,0.09-0.21,0.18-0.32,0.28c-0.22,0.2-0.45,0.39-0.68,0.58c-0.13,0.1-0.25,0.2-0.38,0.3 c-0.22,0.17-0.44,0.34-0.66,0.5c-0.13,0.09-0.26,0.19-0.39,0.28c-0.24,0.16-0.47,0.32-0.71,0.47c-0.12,0.08-0.24,0.16-0.36,0.23 c-0.31,0.19-0.62,0.37-0.93,0.54c-0.05,0.03-0.11,0.06-0.16,0.09c-0.37,0.2-0.75,0.39-1.13,0.57c-0.1,0.05-0.2,0.09-0.3,0.13 c-0.28,0.13-0.57,0.25-0.85,0.37c-0.13,0.05-0.27,0.1-0.4,0.15c-0.26,0.1-0.52,0.2-0.79,0.29c-0.14,0.05-0.28,0.09-0.42,0.14 c-0.27,0.09-0.54,0.17-0.82,0.24c-0.13,0.04-0.26,0.07-0.39,0.11c-0.33,0.09-0.65,0.16-0.98,0.23c-0.08,0.02-0.15,0.04-0.23,0.05 c-0.09,0.02-0.18,0.03-0.27,0.05l0.02,0.09l-30.46,4.6l28.99,32.49l45.25-45.08l-45.27-69.63l-54.18,53.97L744.72,525.83 L744.72,525.83z"/><path fill="#80ADF8" d="M672.71,597.48l-47.37,47.19l3.46,5.33h53.54C676.04,638.02,670.93,620.79,672.71,597.48z"/><path fill="#D2E3FC" d="M521.11,467.93h0.01l49.16-48.98c0-0.01,0-0.01,0.01-0.02L521.11,467.93z M633.4,356.08l25.02-24.91 L633.4,356.08z M586.42,402.88l43.21-43.05l-43.2,43.03C586.43,402.87,586.43,402.88,586.42,402.88z"/><path fill="#D2E3FC" d="M471.54,517.35l15.38-15.33l30.42-30.31l-0.01-0.01l-30.41,30.29l-67.48-46.58l28.66-28.55 c-0.81-0.82-0.98-2.12-0.33-3.12c0.75-1.16,2.3-1.49,3.46-0.74l0.45,0.29l87.5-87.17l2.35-6.05c0.5-1.29,1.95-1.92,3.24-1.42 c0.43,0.17,0.8,0.45,1.08,0.82l30.87-30.75l-0.4-0.46c-0.92-1.03-0.83-2.61,0.2-3.53s2.61-0.83,3.53,0.2 c0.01,0.01,0.02,0.03,0.03,0.04l0.18,0.21l12.61-12.56l15.76,10.88c0.45-0.51,1.11-0.85,1.85-0.85h0.03c1.37,0,2.49,1.1,2.5,2.48 c0,0.03,0,0.51-0.01,1.39l47.35,32.69l0.06-0.06l15.38-15.33l-80.53-60.03l-193.2,192.48l-3.13,3.11l-7.95,7.92l0.02,0.01 L471.54,517.35L471.54,517.35z M757.02,438.12c0.87,0.76,1.08,1.98,0.61,2.97l41.22,30.73l15.38-15.33l-80.54-60.03l-15.38,15.32 l35.4,26.39C754.64,437.32,756.06,437.3,757.02,438.12L757.02,438.12z M544.79,584.64l-2.18,2.18l-13.2,13.15L596.53,650h23.46 l5.35-5.33L544.79,584.64z"/><path fill="#FFFFFF" d="M660.09,469.77l-31.83,31.71L660.09,469.77z M486.92,502.01l-15.38,15.33v0.01l57.86,82.61l13.2-13.15 l2.19-2.18L486.92,502.01z M718.3,411.78l-54.29,54.09l69.68-69.42l-57.87-82.62l-0.01,0.01l-15.38,15.32L718.3,411.78z"/><path fill="#80ADF8" d="M658.42,331.17l-25.02,24.91l0.57,0.65l30.04,109.14l54.29-54.09l-57.87-82.62l-0.06,0.06L658.42,331.17z M572.85,446.76c-4.69-9.41-6.17-18.67-2.56-27.81l-49.16,48.98l95.24,28.93c-0.88-0.86-1.77-1.71-2.65-2.56 c-6.17-5.97-12.27-11.88-17.9-17.72l-28.72,4.34L572.85,446.76z M544.79,584.63l0.57-0.57c-0.28-0.55-0.34-1.19-0.18-1.78 l25.46-91.92c0.23-0.82,0.83-1.42,1.58-1.68l-53.99-16.4l-0.29-0.19l-0.6-0.39l-30.42,30.31L544.79,584.63L544.79,584.63z M620.4,503.31l-45.36-13.78c0.45,0.6,0.63,1.39,0.42,2.17l-23.86,86.15l73.12-72.84l-2.1-2.07c-0.42,0.31-0.94,0.48-1.48,0.48 C620.89,503.42,620.64,503.38,620.4,503.31L620.4,503.31z"/><path fill="#80ADF8" d="M659.85,469.6l-30.21-109.76l-43.21,43.05c-2.2,3.62-4.56,7.14-7.14,10.48c-6.16,7.95-7.17,16.13-4.62,24.6 c1.33-3.85,3.5-7.47,6.54-10.56c10.89-11.07,28.76-11.23,39.84-0.35c0.01,0.01,0.02,0.01,0.02,0.02 c11.08,10.9,11.23,28.79,0.32,39.87c-0.38,0.38-0.76,0.75-1.16,1.11c-0.13,0.11-0.26,0.22-0.38,0.34c-0.27,0.24-0.55,0.47-0.82,0.7 c-0.15,0.12-0.31,0.24-0.46,0.36c-0.27,0.21-0.53,0.41-0.8,0.6c-0.16,0.11-0.32,0.23-0.48,0.34c-0.29,0.2-0.57,0.39-0.87,0.57 c-0.15,0.09-0.29,0.19-0.44,0.28c-0.37,0.23-0.75,0.45-1.13,0.65c-0.07,0.04-0.13,0.08-0.2,0.11c-0.45,0.24-0.91,0.47-1.37,0.69 c-0.12,0.06-0.25,0.11-0.37,0.16c-0.34,0.15-0.69,0.3-1.03,0.44c-0.16,0.07-0.32,0.13-0.49,0.19c-0.32,0.12-0.63,0.24-0.96,0.35 c-0.17,0.06-0.34,0.11-0.51,0.17c-0.33,0.11-0.66,0.2-0.99,0.3c-0.16,0.04-0.31,0.09-0.47,0.13c-0.4,0.1-0.79,0.2-1.19,0.28 c-0.09,0.02-0.18,0.04-0.28,0.06l-0.33,0.06l0.02,0.11l-4.77,0.72c4.83,4.9,10,9.91,15.31,15.05c3.65,3.53,7.35,7.12,11.05,10.77 l31.83-31.71L659.85,469.6L659.85,469.6z M494.28,456.8l-45.77-29.6c-0.15-0.1-0.29-0.21-0.41-0.34l-28.66,28.55l67.48,46.58 l30.41-30.29l-22.96-14.84L494.28,456.8L494.28,456.8z"/><path opacity="0.5" fill="#4285F4" enable-background="new " d="M494.28,456.8l-45.77-29.6c-0.15-0.1-0.29-0.21-0.41-0.34 l-28.66,28.55l67.48,46.58l30.41-30.29l-22.96-14.84L494.28,456.8L494.28,456.8z"/><path fill="#80ADF8" d="M539.19,336.13l-87.51,87.16l42.79,27.67L539.19,336.13z"/><path opacity="0.5" fill="#4285F4" enable-background="new " d="M539.19,336.13l-87.51,87.16l42.79,27.67L539.19,336.13z"/><path fill="#80ADF8" d="M608.02,295.18c0-0.64,0.24-1.22,0.63-1.67l-15.76-10.88l-12.61,12.56l25.63,29.38 C608.08,307.52,608.02,295.47,608.02,295.18z"/><path opacity="0.5" fill="#4285F4" enable-background="new " d="M608.02,295.18c0-0.64,0.24-1.22,0.63-1.67l-15.76-10.88 l-12.61,12.56l25.63,29.38C608.08,307.52,608.02,295.47,608.02,295.18z"/><path fill="#80ADF8" d="M633.4,356.08l25.01-24.91l1.95-1.95l-47.35-32.69c-0.05,4.09-0.39,16.84-2.69,33.11L633.4,356.08 L633.4,356.08z"/><path opacity="0.5" fill="#4285F4" enable-background="new " d="M633.4,356.08l25.01-24.91l1.95-1.95l-47.35-32.69 c-0.05,4.09-0.39,16.84-2.69,33.11L633.4,356.08L633.4,356.08z"/><path fill="#80ADF8" d="M586.44,402.86l43.2-43.03l-0.19-0.67l-20.11-23.05c-0.08,0.46-0.15,0.91-0.23,1.37 C605.9,356.19,599.4,381.51,586.44,402.86L586.44,402.86z"/><path opacity="0.5" fill="#4285F4" enable-background="new " d="M586.44,402.86l43.2-43.03l-0.19-0.67l-20.11-23.05 c-0.08,0.46-0.15,0.91-0.23,1.37C605.9,356.19,599.4,381.51,586.44,402.86L586.44,402.86z"/><path fill="#80ADF8" d="M546.2,331.9l-47.44,121.83l21.6,13.97l0.75,0.23l49.18-48.99c1.14-2.89,2.79-5.77,5.01-8.64 c17.93-23.16,26.03-54.88,29.69-79.16l-28.28-32.41l-30.87,30.75C546.36,330.15,546.53,331.06,546.2,331.9L546.2,331.9z"/><path opacity="0.5" fill="#4285F4" enable-background="new " d="M546.2,331.9l-47.44,121.83l21.6,13.97l0.75,0.23l49.18-48.99 c1.14-2.89,2.79-5.77,5.01-8.64c17.93-23.16,26.03-54.88,29.69-79.16l-28.28-32.41l-30.87,30.75 C546.36,330.15,546.53,331.06,546.2,331.9L546.2,331.9z"/><path fill="#80ADF8" d="M660.09,469.78l-31.83,31.71c26.75,26.45,52.72,56.06,49.99,90.47l21.86-21.77l0.4-3.11l23.2-50.5 L660.09,469.78L660.09,469.78z"/><path opacity="0.5" fill="#4285F4" enable-background="new " d="M660.09,469.78l-31.83,31.71 c26.75,26.45,52.72,56.06,49.99,90.47l21.86-21.77l0.4-3.11l23.2-50.5L660.09,469.78L660.09,469.78z"/><path fill="#80ADF8" d="M550,583.61c-0.36,1.33-1.74,2.11-3.07,1.75c-0.68-0.19-1.25-0.66-1.57-1.29l-0.57,0.57l80.54,60.03 l47.37-47.19c0.11-1.38,0.23-2.78,0.38-4.2c3.6-32.96-21.95-62.15-48.37-88.26l-73.12,72.85L550,583.61L550,583.61z"/><path opacity="0.5" fill="#4285F4" enable-background="new " d="M550,583.61c-0.36,1.33-1.74,2.11-3.07,1.75 c-0.68-0.19-1.25-0.66-1.57-1.29l-0.57,0.57l80.54,60.03l47.37-47.19c0.11-1.38,0.23-2.78,0.38-4.2 c3.6-32.96-21.95-62.15-48.37-88.26l-73.12,72.85L550,583.61L550,583.61z"/><path fill="#80ADF8" d="M757.45,441.41c-1.64,3.12-17.13,44.87-27.62,73.46l14.84,10.92l54.18-53.97l-41.22-30.73 C757.57,441.2,757.52,441.31,757.45,441.41L757.45,441.41z"/><path opacity="0.5" fill="#4285F4" enable-background="new " d="M757.45,441.41c-1.64,3.12-17.13,44.87-27.62,73.46l14.84,10.92 l54.18-53.97l-41.22-30.73C757.57,441.2,757.52,441.31,757.45,441.41L757.45,441.41z"/><path fill="#80ADF8" d="M727.82,519.6l-19.45,42.36l32.72-32.6L727.82,519.6z"/><path opacity="0.5" fill="#4285F4" enable-background="new " d="M727.82,519.6l-19.45,42.36l32.72-32.6L727.82,519.6z"/><path fill="#80ADF8" d="M664.21,466.6l61.42,45.18c17.44-47.5,26.81-72.21,27.86-73.41c0.07-0.08,0.14-0.14,0.22-0.2l-35.4-26.39 l-54.3,54.09L664.21,466.6L664.21,466.6z"/><path opacity="0.5" fill="#4285F4" enable-background="new " d="M664.21,466.6l61.42,45.18c17.44-47.5,26.81-72.21,27.86-73.41 c0.07-0.08,0.14-0.14,0.22-0.2l-35.4-26.39l-54.3,54.09L664.21,466.6L664.21,466.6z"/><path fill="#AECBFA" d="M767.7,554.37l0.39-2.33l-23.2-26.01l-0.17-0.2l-0.05-0.04l-14.84-10.92c-0.22,0.59-0.43,1.18-0.65,1.77 l-0.08,0.18l-1.28,2.78l13.27,9.76l0.25,0.18l53.89,60.42c0.03,0.04,0.07,0.06,0.1,0.09c0.49,0.49,1.12,0.75,1.77,0.75 c0.59,0,1.18-0.21,1.66-0.63c1.03-0.92,1.12-2.5,0.2-3.53l0,0l-0.09-0.11l-28.99-32.49L767.7,554.37L767.7,554.37z M633.97,356.73 l-0.57-0.65l-23.07-26.44c-0.3,2.1-0.63,4.26-0.99,6.47l20.11,23.05l0.19,0.67l30.21,109.76l0.24,0.17h0.01l63.62,46.79l0.8-1.75 c0.38-1.03,0.75-2.03,1.12-3.04l-61.42-45.18l-0.2-0.73v-0.01L633.97,356.73L633.97,356.73z M605.92,324.57l-25.63-29.38l-0.18-0.21 c-0.9-1.05-2.48-1.17-3.53-0.28s-1.17,2.48-0.28,3.53c0.01,0.01,0.02,0.03,0.03,0.04l0.4,0.46L605,331.14 C605.35,328.88,605.65,326.69,605.92,324.57z M678.08,593.83c0.07-0.63,0.13-1.25,0.18-1.88c2.72-34.41-23.24-64.02-49.99-90.47 l-0.01-0.01c-3.69-3.65-7.4-7.24-11.05-10.77c-5.3-5.14-10.48-10.15-15.31-15.05l-6.08,0.92c5.63,5.84,11.73,11.75,17.9,17.72 l2.65,2.56l5.49,1.67c1.32,0.4,2.07,1.8,1.67,3.12c-0.17,0.54-0.5,0.98-0.92,1.29l2.1,2.07l0.01,0.01 c26.42,26.12,51.97,55.3,48.37,88.26c-0.16,1.42-0.28,2.82-0.38,4.2c-1.78,23.31,3.33,40.54,9.64,52.52h5.79 C680.86,637.4,675.32,619.15,678.08,593.83L678.08,593.83z"/><path fill="#AECBFA" d="M605.92,324.57c-0.27,2.11-0.57,4.31-0.91,6.57c-3.66,24.28-11.77,56-29.69,79.16 c-2.22,2.87-3.87,5.75-5.01,8.64c0,0.01,0,0.01-0.01,0.02c-3.61,9.13-2.13,18.4,2.56,27.81l0.35-2.07h0.01 c0.2-2.28,0.69-4.54,1.45-6.73c-2.54-8.48-1.54-16.65,4.62-24.6c2.59-3.34,4.95-6.86,7.14-10.48c0-0.01,0.01-0.01,0.01-0.02 c12.96-21.36,19.46-46.67,22.67-65.38c0.08-0.46,0.15-0.92,0.23-1.37c0.37-2.21,0.7-4.37,0.99-6.47c2.3-16.26,2.64-29.01,2.69-33.11 c0.01-0.88,0.01-1.36,0.01-1.39c-0.01-1.37-1.13-2.48-2.5-2.48h-0.03c-0.74,0.01-1.4,0.34-1.85,0.85c-0.39,0.45-0.63,1.03-0.63,1.67 C608.02,295.47,608.08,307.52,605.92,324.57L605.92,324.57z M708.37,561.96l19.46-42.36l1.28-2.78l0.08-0.18 c0.21-0.58,0.43-1.17,0.65-1.77c10.49-28.6,25.99-70.35,27.62-73.46c0.07-0.1,0.12-0.21,0.18-0.32c0.48-0.99,0.27-2.21-0.61-2.97 c-0.96-0.82-2.38-0.8-3.31,0.05c-0.07,0.07-0.15,0.13-0.22,0.2c-1.06,1.2-10.42,25.91-27.86,73.41c-0.37,1.01-0.74,2.01-1.12,3.04 l-0.8,1.75l-23.2,50.5l-0.4,3.11L689.96,650h5.05l10.37-81.54L708.37,561.96z M521.13,467.93h-0.01l-0.75-0.23l-21.6-13.97 l-0.74,1.91c-0.39,0.98-1.33,1.59-2.33,1.59c-0.3,0-0.61-0.06-0.91-0.17c-0.14-0.06-0.28-0.13-0.41-0.21l22.96,14.84l0.01,0.01 l0.6,0.39l0.29,0.19l53.99,16.4c0.47-0.17,0.99-0.2,1.5-0.06c0.55,0.15,1,0.49,1.32,0.91l45.36,13.78c0.75,0.23,1.57,0.09,2.21-0.37 c0.43-0.31,0.76-0.75,0.92-1.29c0.4-1.32-0.35-2.72-1.67-3.12l-5.49-1.67L521.13,467.93z M448.51,427.2l45.77,29.6 c-0.97-0.66-1.35-1.89-0.92-2.98l1.11-2.86l-42.79-27.67l-0.45-0.29c-1.16-0.75-2.71-0.42-3.46,0.74c-0.64,0.99-0.5,2.29,0.33,3.12 C448.22,426.99,448.36,427.1,448.51,427.2L448.51,427.2z"/><path fill="#AECBFA" d="M493.36,453.82c-0.42,1.09-0.04,2.32,0.92,2.98l0.09,0.06c0.13,0.08,0.26,0.15,0.41,0.21 c0.3,0.11,0.61,0.17,0.91,0.17c1,0,1.94-0.61,2.33-1.59l0.74-1.91L546.2,331.9c0.33-0.84,0.16-1.75-0.34-2.42 c-0.27-0.36-0.63-0.65-1.08-0.82c-1.29-0.5-2.74,0.13-3.24,1.42l-2.35,6.05l-44.71,114.83L493.36,453.82L493.36,453.82z M570.64,490.36l-25.46,91.92c-0.17,0.62-0.09,1.25,0.18,1.78v0.01c0.31,0.61,0.85,1.09,1.56,1.29c1.33,0.37,2.71-0.41,3.08-1.73 c0-0.01,0-0.01,0-0.02l1.59-5.75v-0.01l23.86-86.15c0.22-0.78,0.03-1.57-0.42-2.17c-0.32-0.44-0.79-0.76-1.32-0.91 c-0.51-0.14-1.04-0.11-1.5,0.06C571.47,488.94,570.87,489.54,570.64,490.36L570.64,490.36z"/><path fill="#FFFFFF" d="M606.65,474.83l0.33-0.06c0.1-0.02,0.19-0.04,0.28-0.06c0.4-0.08,0.79-0.18,1.19-0.28 c0.16-0.04,0.31-0.09,0.47-0.13c0.33-0.1,0.66-0.19,0.99-0.3c0.17-0.06,0.34-0.11,0.51-0.17c0.33-0.11,0.64-0.23,0.96-0.35 c0.17-0.06,0.33-0.12,0.49-0.19c0.34-0.14,0.69-0.29,1.03-0.44c0.12-0.05,0.25-0.1,0.37-0.16c0.46-0.22,0.92-0.45,1.37-0.69 c0.07-0.03,0.13-0.07,0.2-0.11c0.38-0.2,0.76-0.42,1.13-0.65c0.15-0.09,0.29-0.19,0.44-0.28c0.3-0.18,0.58-0.37,0.87-0.57 c0.16-0.11,0.32-0.23,0.48-0.34c0.27-0.19,0.53-0.39,0.8-0.6c0.15-0.12,0.31-0.24,0.46-0.36c0.27-0.23,0.55-0.46,0.82-0.7 c0.12-0.12,0.25-0.23,0.38-0.34c0.4-0.36,0.78-0.73,1.16-1.11c10.91-11.08,10.76-28.97-0.32-39.87c0-0.01-0.01-0.01-0.02-0.02 c-11.08-10.88-28.95-10.72-39.84,0.35c-2.94,2.99-5.18,6.6-6.54,10.56c-0.76,2.19-1.24,4.45-1.45,6.73h-0.01l-0.35,2.07l-5.75,34.16 l28.72-4.34l6.08-0.92l4.77-0.72L606.65,474.83L606.65,474.83z M593.54,438.7c4.3-4.3,11.26-4.3,15.56,0s4.3,11.26,0,15.56 s-11.26,4.3-15.56,0C589.25,449.96,589.25,442.99,593.54,438.7z M769.88,554.04l30.46-4.6l-0.02-0.09c0.09-0.02,0.18-0.03,0.27-0.05 c0.08-0.01,0.15-0.03,0.23-0.05c0.33-0.07,0.65-0.14,0.98-0.23c0.13-0.04,0.26-0.07,0.39-0.11c0.28-0.07,0.55-0.15,0.82-0.24 c0.14-0.05,0.28-0.09,0.42-0.14c0.27-0.09,0.53-0.19,0.79-0.29c0.13-0.05,0.27-0.1,0.4-0.15c0.28-0.12,0.57-0.24,0.85-0.37 c0.1-0.04,0.2-0.08,0.3-0.13c0.38-0.18,0.76-0.37,1.13-0.57c0.05-0.03,0.11-0.06,0.16-0.09c0.31-0.17,0.62-0.35,0.93-0.54 c0.12-0.07,0.24-0.15,0.36-0.23c0.24-0.15,0.47-0.31,0.71-0.47c0.13-0.09,0.26-0.19,0.39-0.28c0.22-0.16,0.44-0.33,0.66-0.5 c0.13-0.1,0.25-0.2,0.38-0.3c0.23-0.19,0.46-0.38,0.68-0.58c0.11-0.1,0.22-0.19,0.32-0.28c0.32-0.29,0.64-0.59,0.95-0.91 c8.99-9.14,8.87-23.89-0.27-32.88l-0.02-0.02c-9.14-8.97-23.88-8.84-32.86,0.29c-3.79,3.84-6.11,8.88-6.55,14.26h-0.01l-4.64,27.55 l-0.39,2.33L769.88,554.04L769.88,554.04z M789.06,520.36c3.71-3.71,9.72-3.71,13.43,0l0,0c3.71,3.71,3.71,9.72,0,13.43l0,0 c-3.71,3.71-9.72,3.71-13.43,0S785.35,524.07,789.06,520.36z"/><ellipse fill="#6099F6" cx="601.3" cy="446.48" rx="11" ry="11"/><ellipse fill="#6099F6" cx="795.76" cy="527.1" rx="9.5" ry="9.5"/><path fill="#9FC1F9" d="M1085.56,603.4c-24.14,22.67-62.15,22.18-85.81-1.47c-0.32-0.32-0.69-0.71-1.1-1.17 c-0.05-0.06-0.11-0.11-0.16-0.17l-0.04-0.06c-10.06-11.54-42.01-61.23-45.17-66.16l-58.66,58.66L951.58,650h180.57l-46.56-46.56 C1085.58,603.43,1085.57,603.41,1085.56,603.4L1085.56,603.4z"/><linearGradient id="SVGID_13_" gradientUnits="userSpaceOnUse" x1="1056.9899" y1="-18.3205" x2="996.0087" y2="-112.2919" gradientTransform="matrix(1 0 0 -1 0 536)"><stop offset="0" style="stop-color:#4285F4"/><stop offset="0.144" style="stop-color:#5994F5"/><stop offset="0.37" style="stop-color:#78A8F7"/><stop offset="0.591" style="stop-color:#8DB6F8"/><stop offset="0.804" style="stop-color:#9BBEF9"/><stop offset="1" style="stop-color:#9FC1F9"/></linearGradient><path fill="url(#SVGID_13_)" d="M1085.56,603.4c-24.14,22.67-62.15,22.18-85.81-1.47c-0.32-0.32-0.69-0.71-1.1-1.17 c-0.05-0.06-0.11-0.11-0.16-0.17l-0.04-0.06c-10.06-11.54-42.01-61.23-45.17-66.16l-58.66,58.66L951.58,650h180.57l-46.56-46.56 C1085.58,603.43,1085.57,603.41,1085.56,603.4L1085.56,603.4z"/><path fill="#F1F1F2" d="M984.07,579.46l70.67-70.67l-35.21-23.02c-1.15-0.75-1.48-2.3-0.73-3.45l0.01-0.01 c0.75-1.15,2.3-1.48,3.45-0.73l0.01,0.01l36.08,23.59l5.95-5.95l21.1,14.45c0,0,0.93,0.62,1.4,1.06 c-4.1-5.24-67.93-46.62-67.93-46.62l-65.85,65.85c0,0,0.09,0.14,0.25,0.4c3.16,4.93,35.11,54.62,45.17,66.16L984.07,579.46 L984.07,579.46z M1026.14,515.48c1.79-1.79,4.69-1.79,6.48,0.01s1.8,4.7,0.01,6.48c-1.79,1.79-4.69,1.79-6.48-0.01 S1024.35,517.27,1026.14,515.48z M999.76,601.92c-0.38-0.38-0.74-0.77-1.11-1.16c0.4,0.46,0.77,0.85,1.1,1.17 c23.65,23.65,61.67,24.14,85.81,1.47C1061.41,626.06,1023.41,625.57,999.76,601.92L999.76,601.92z"/><path fill="#FFFFFF" d="M1089.07,599.85c-0.67,0.74-1.36,1.47-2.08,2.19c-0.47,0.47-0.95,0.91-1.43,1.36 c0.01,0.01,0.02,0.03,0.03,0.04l46.56,46.56h7.08l-50.1-50.1C1089.11,599.88,1089.09,599.87,1089.07,599.85z M1177.77,634 c-0.98-0.98-2.56-0.98-3.54,0l-16,16h7.08l12.46-12.46C1178.75,636.56,1178.75,634.97,1177.77,634L1177.77,634z"/><path fill="#1A73E8" d="M1064.3,499.23l-5.95,5.95l8.18,5.35c1.16,0.76,1.48,2.31,0.72,3.46c-0.48,0.73-1.28,1.13-2.09,1.13 c-0.47,0-0.94-0.13-1.37-0.41l-9.05-5.92l-70.67,70.67l14.38,21.07l0.04,0.06c0.05,0.06,0.11,0.11,0.16,0.17 c0.36,0.39,0.72,0.79,1.11,1.16c23.65,23.65,61.65,24.14,85.8,1.48c0.48-0.45,0.96-0.89,1.43-1.36c0.72-0.72,1.41-1.45,2.08-2.19 c21.94-24.18,21.2-61.64-2.2-85.04l-0.07-0.07c-0.47-0.44-1.4-1.06-1.4-1.06L1064.3,499.23L1064.3,499.23z M1028.66,566.21 c-2.59,2.59-6.78,2.58-9.37-0.01c-2.59-2.59-2.59-6.78-0.01-9.37c2.59-2.59,6.78-2.58,9.37,0.01S1031.25,563.62,1028.66,566.21z"/><ellipse transform="matrix(0.7066 -0.7076 0.7076 0.7066 -96.9104 889.3755)" fill="#E1E2E6" cx="1023.95" cy="561.54" rx="6.62" ry="6.63"/><ellipse transform="matrix(0.7071 -0.7071 0.7071 0.7071 -65.3088 879.8115)" fill="#669DF6" cx="1029.37" cy="518.74" rx="4.58" ry="4.59"/><path fill="#D2E3FC" d="M1065.16,515.12c0.81,0,1.61-0.4,2.09-1.13c0.76-1.15,0.44-2.7-0.72-3.46l-8.18-5.35l-36.08-23.59 c-1.15-0.76-2.7-0.44-3.46,0.72c-0.76,1.15-0.44,2.7,0.72,3.46l35.21,23.02l9.05,5.92C1064.22,514.99,1064.69,515.12,1065.16,515.12 L1065.16,515.12z"/><path fill="#9FC1F9" d="M1054.91,360.16l-39.13-39.14l-18.47,18.47l44.8,44.8l22.88-22.88l-0.75-0.75 C1061.46,362.9,1057.44,362.69,1054.91,360.16L1054.91,360.16z"/><linearGradient id="SVGID_14_" gradientUnits="userSpaceOnUse" x1="1049.5837" y1="224.2601" x2="1022.9167" y2="168.2601" gradientTransform="matrix(1 0 0 -1 0 536)"><stop offset="0" style="stop-color:#4285F4"/><stop offset="0.144" style="stop-color:#5994F5"/><stop offset="0.37" style="stop-color:#78A8F7"/><stop offset="0.591" style="stop-color:#8DB6F8"/><stop offset="0.804" style="stop-color:#9BBEF9"/><stop offset="1" style="stop-color:#9FC1F9"/></linearGradient><path fill="url(#SVGID_14_)" d="M1054.91,360.16l-39.13-39.14l-18.47,18.47l44.8,44.8l22.88-22.88l-0.75-0.75 C1061.46,362.9,1057.44,362.69,1054.91,360.16L1054.91,360.16z"/><path fill="#9FC1F9" d="M1018.67,304.17l-0.41,0.41c0.68,0.25,1.32,0.61,1.9,1.08L1018.67,304.17L1018.67,304.17z"/><linearGradient id="SVGID_15_" gradientUnits="userSpaceOnUse" x1="1022.2544" y1="237.2733" x2="995.5884" y2="181.2733" gradientTransform="matrix(1 0 0 -1 0 536)"><stop offset="0" style="stop-color:#4285F4"/><stop offset="0.144" style="stop-color:#5994F5"/><stop offset="0.37" style="stop-color:#78A8F7"/><stop offset="0.591" style="stop-color:#8DB6F8"/><stop offset="0.804" style="stop-color:#9BBEF9"/><stop offset="1" style="stop-color:#9FC1F9"/></linearGradient><path fill="url(#SVGID_15_)" d="M1018.67,304.17l-0.41,0.41c0.68,0.25,1.32,0.61,1.9,1.08L1018.67,304.17L1018.67,304.17z"/><path fill="#9FC1F9" d="M1126.23,278.94h-29.02c-2.11,0-4-0.94-5.28-2.41l-51.57,49.28l19.5,19.5L1126.23,278.94z"/><linearGradient id="SVGID_16_" gradientUnits="userSpaceOnUse" x1="-23135.6484" y1="22975.1797" x2="-23371.1602" y2="22739.6699" gradientTransform="matrix(0.2701 -0.0856 0.0856 -0.2701 5412.9355 4480.1821)"><stop offset="0" style="stop-color:#4285F4"/><stop offset="0.144" style="stop-color:#5994F5"/><stop offset="0.37" style="stop-color:#78A8F7"/><stop offset="0.591" style="stop-color:#8DB6F8"/><stop offset="0.804" style="stop-color:#9BBEF9"/><stop offset="1" style="stop-color:#9FC1F9"/></linearGradient><path fill="url(#SVGID_16_)" d="M1126.23,278.94h-29.02c-2.11,0-4-0.94-5.28-2.41l-51.57,49.28l19.5,19.5L1126.23,278.94z"/><path fill="#9FC1F9" d="M1136.13,320.31v-31.47l-66.4,66.4l0.72,0.72l-5.46,5.45l19.04,19.04l54.7-54.7 C1137.08,324.43,1136.13,322.42,1136.13,320.31z"/><linearGradient id="SVGID_17_" gradientUnits="userSpaceOnUse" x1="-22975.6055" y1="22815.1406" x2="-23211.1172" y2="22579.6309" gradientTransform="matrix(0.2701 -0.0856 0.0856 -0.2701 5412.9355 4480.1821)"><stop offset="0" style="stop-color:#4285F4"/><stop offset="0.144" style="stop-color:#5994F5"/><stop offset="0.37" style="stop-color:#78A8F7"/><stop offset="0.591" style="stop-color:#8DB6F8"/><stop offset="0.804" style="stop-color:#9BBEF9"/><stop offset="1" style="stop-color:#9FC1F9"/></linearGradient><path fill="url(#SVGID_17_)" d="M1136.13,320.31v-31.47l-66.4,66.4l0.72,0.72l-5.46,5.45l19.04,19.04l54.7-54.7 C1137.08,324.43,1136.13,322.42,1136.13,320.31z"/><path fill="#9FC1F9" d="M1069.73,355.24l-4.92,4.92c-0.18,0.18-0.37,0.35-0.57,0.5l0.75,0.75l5.46-5.45L1069.73,355.24z"/><linearGradient id="SVGID_18_" gradientUnits="userSpaceOnUse" x1="1082.1392" y1="208.7574" x2="1055.4722" y2="152.7574" gradientTransform="matrix(1 0 0 -1 0 536)"><stop offset="0" style="stop-color:#4285F4"/><stop offset="0.144" style="stop-color:#5994F5"/><stop offset="0.37" style="stop-color:#78A8F7"/><stop offset="0.591" style="stop-color:#8DB6F8"/><stop offset="0.804" style="stop-color:#9BBEF9"/><stop offset="1" style="stop-color:#9FC1F9"/></linearGradient><path fill="url(#SVGID_18_)" d="M1069.73,355.24l-4.92,4.92c-0.18,0.18-0.37,0.35-0.57,0.5l0.75,0.75l5.46-5.45L1069.73,355.24z"/><linearGradient id="SVGID_19_" gradientUnits="userSpaceOnUse" x1="-23027.2871" y1="22866.8203" x2="-23262.7988" y2="22631.3105" gradientTransform="matrix(0.2701 -0.0856 0.0856 -0.2701 5412.9355 4480.1821)"><stop offset="0" style="stop-color:#4285F4"/><stop offset="0.144" style="stop-color:#5994F5"/><stop offset="0.37" style="stop-color:#78A8F7"/><stop offset="0.591" style="stop-color:#8DB6F8"/><stop offset="0.804" style="stop-color:#9BBEF9"/><stop offset="1" style="stop-color:#9FC1F9"/></linearGradient><path fill="url(#SVGID_19_)" d="M1069.73,355.24l-4.92,4.92c-0.18,0.18-0.37,0.35-0.57,0.5l0.75,0.75l5.46-5.45L1069.73,355.24z"/><path fill="#FFFFFF" d="M1097.21,264.94c-3.87,0-7,3.13-7,7c0,1.76,0.65,3.36,1.72,4.59c1.32,1.53,3.25,2.41,5.28,2.41h29.02 l-66.37,66.37l-19.5-19.5l-19.63-19.64c-0.18-0.18-0.37-0.35-0.57-0.51c-0.58-0.47-1.23-0.83-1.9-1.08 c-2.5-0.94-5.42-0.42-7.43,1.59l-88.17,88.17c-2.73,2.74-2.73,7.16,0,9.9c1.37,1.37,3.16,2.05,4.95,2.05s3.58-0.68,4.95-2.05 l64.75-64.75l18.47-18.47l39.13,39.14c2.53,2.53,6.55,2.74,9.33,0.5c0.19-0.16,0.38-0.32,0.57-0.5l4.92-4.92l66.4-66.4v31.47 c0,2.2,1.01,4.16,2.6,5.44c3,2.43,7.41,1.97,9.84-1.03c1.01-1.25,1.56-2.81,1.56-4.41v-55.37L1097.21,264.94L1097.21,264.94z"/><path fill="#9FC1F9" d="M159.78,576.33l-21.14,21.13L0,458.82v167.81L23.37,650h63.04l73.52-73.52L159.78,576.33z"/><linearGradient id="SVGID_20_" gradientUnits="userSpaceOnUse" x1="-4833.5503" y1="1792.1101" x2="-5063.4043" y2="1562.2571" gradientTransform="matrix(0.5358 0.0844 -0.0844 -0.5358 2828.5923 1878.2574)"><stop offset="0" style="stop-color:#4285F4"/><stop offset="0.144" style="stop-color:#5994F5"/><stop offset="0.37" style="stop-color:#78A8F7"/><stop offset="0.591" style="stop-color:#8DB6F8"/><stop offset="0.804" style="stop-color:#9BBEF9"/><stop offset="1" style="stop-color:#9FC1F9"/></linearGradient><path fill="url(#SVGID_20_)" d="M159.78,576.33l-21.14,21.13L0,458.82v167.81L23.37,650h63.04l73.52-73.52L159.78,576.33z"/><path fill="#9FC1F9" d="M224.57,373.14c22.53,22.53,31.24,53.62,26.19,82.8l59.06-59.06l-136.9-136.91l-134,134l26.71,26.71 c3.59-17.42,12.12-34.02,25.64-47.54C128.08,336.33,187.76,336.33,224.57,373.14L224.57,373.14z"/><path opacity="0.5" fill="#4285F4" enable-background="new " d="M224.57,373.14c22.53,22.53,31.24,53.62,26.19,82.8l59.06-59.06 l-136.9-136.91l-134,134l26.71,26.71c3.59-17.42,12.12-34.02,25.64-47.54C128.08,336.33,187.76,336.33,224.57,373.14L224.57,373.14z "/><path fill="#E8F0FE" d="M224.57,373.14c-36.81-36.81-96.49-36.81-133.3,0c-13.52,13.52-22.05,30.12-25.64,47.54l110.2,110.21 l74.93-74.94v-0.01C255.81,426.76,247.1,395.67,224.57,373.14z M202.24,416.25c0.18,0.01,0.36,0.01,0.54,0.03 c0.38,0.03,0.76,0.08,1.14,0.15c0.12,0.02,0.24,0.06,0.37,0.09c0.29,0.07,0.59,0.15,0.88,0.24c0.08,0.03,0.16,0.04,0.24,0.07 c-0.01,0-0.02,0-0.03,0.01c1.41,0.5,2.74,1.3,3.86,2.43c4.03,4.03,4.03,10.57,0,14.61c-0.17,0.17-0.36,0.33-0.54,0.48l0.02,0.02 l-10.76,10.76l-14.5-14.51l10.06-10.07c0.32-0.45,0.68-0.89,1.09-1.3c0.24-0.24,0.5-0.44,0.75-0.65c0.02-0.02,0.04-0.04,0.07-0.06 c0.25-0.2,0.5-0.38,0.76-0.56c0.06-0.04,0.13-0.08,0.2-0.12c0.5-0.32,1.03-0.6,1.57-0.82c0.04-0.02,0.07-0.03,0.11-0.05 c0.25-0.1,0.5-0.18,0.75-0.26c0.14-0.04,0.28-0.08,0.43-0.12c0.24-0.06,0.47-0.13,0.71-0.17c0.34-0.07,0.68-0.11,1.02-0.15 c0.2-0.02,0.39-0.02,0.59-0.03C201.77,416.24,202,416.24,202.24,416.25L202.24,416.25z M87.37,424.37l29.09-29.1 c3.96-5.5,9.83-9.65,16.93-11.33c7.86-1.86,15.74-0.34,22.1,3.61c2.27-1.65,4.9-2.88,7.8-3.57c11.75-2.78,23.52,4.49,26.3,16.24 s-4.49,23.52-16.24,26.3c-2.71,0.64-5.43,0.74-8.03,0.38c-2.2,3.79-5.24,7.09-8.94,9.58l-28.46,28.46L87.37,424.37L87.37,424.37z M146.04,467.2l14.32-14.33c0.16-0.18,0.31-0.36,0.47-0.52c0.09-0.09,0.19-0.16,0.28-0.24c0.26-0.25,0.53-0.49,0.81-0.71 c0.18-0.14,0.37-0.27,0.55-0.41c0.22-0.15,0.43-0.3,0.66-0.44c0.2-0.13,0.4-0.25,0.61-0.36c0.23-0.13,0.47-0.24,0.71-0.35 c0.24-0.11,0.47-0.22,0.71-0.32c0.37-0.14,0.74-0.27,1.11-0.38c0.21-0.06,0.41-0.1,0.62-0.15c0.27-0.06,0.53-0.12,0.8-0.17 l0.61-0.09c0.31-0.04,0.61-0.06,0.92-0.07c0.16-0.01,0.33-0.02,0.49-0.02c0.47,0,0.94,0.02,1.4,0.06c0.1,0.01,0.2,0.03,0.3,0.04 c0.39,0.05,0.77,0.11,1.15,0.2l0.19,0.03c-0.01,0-0.02,0.01-0.02,0.01c2.24,0.52,4.36,1.64,6.11,3.39c4.98,4.98,4.98,13.05,0,18.03 c-0.79,0.79-1.65,1.43-2.57,1.97l-12.55,12.55L146.04,467.2L146.04,467.2z"/><path fill="#FFFFFF" d="M159.78,576.33l179.46-179.47l-166.3-166.3L0,403.5v55.32l138.64,138.64L159.78,576.33z M309.83,396.88 l-59.07,59.07l-74.93,74.94L65.63,420.68l-26.71-26.71l134-134L309.83,396.88L309.83,396.88z"/><path fill="#E8F0FE" d="M146.82,440.67c-15.35,3.63-30.72-5.6-34.83-20.71l-14.45,3.01c-1.08,0.22-2.14-0.47-2.37-1.55 s0.46-2.14,1.55-2.37l0,0l14.48-3.01c-0.98-7.55,1.05-14.92,5.27-20.77l-29.09,29.1l40.56,40.57l28.46-28.46 C153.48,438.44,150.24,439.86,146.82,440.67L146.82,440.67z"/><linearGradient id="SVGID_21_" gradientUnits="userSpaceOnUse" x1="-16705.2559" y1="-1082.9703" x2="-16856.2754" y2="-931.9523" gradientTransform="matrix(0.2704 0.0701 0.0701 0.2704 4731.7275 1877.474)"><stop offset="0" style="stop-color:#4285F4"/><stop offset="0.032" style="stop-color:#4C8BF5"/><stop offset="0.202" style="stop-color:#7BAAF7"/><stop offset="0.372" style="stop-color:#A2C3FA"/><stop offset="0.538" style="stop-color:#C1D7FC"/><stop offset="0.7" style="stop-color:#D6E5FD"/><stop offset="0.856" style="stop-color:#E4EDFE"/><stop offset="1" style="stop-color:#E8F0FE"/></linearGradient><path fill="url(#SVGID_21_)" d="M146.82,440.67c-15.35,3.63-30.72-5.6-34.83-20.71l-14.45,3.01c-1.08,0.22-2.14-0.47-2.37-1.55 s0.46-2.14,1.55-2.37l0,0l14.48-3.01c-0.98-7.55,1.05-14.92,5.27-20.77l-29.09,29.1l40.56,40.57l28.46-28.46 C153.48,438.44,150.24,439.86,146.82,440.67L146.82,440.67z"/><path fill="#E8F0FE" d="M203.09,436.83c-0.04,0-0.07,0-0.11,0.01c-0.19,0.02-0.39,0.03-0.59,0.04c-0.79,0.04-1.58-0.01-2.36-0.15 c-0.04-0.01-0.08-0.01-0.12-0.02c-0.3-0.06-0.59-0.13-0.88-0.21l-0.1-0.03c-0.3-0.09-0.6-0.2-0.9-0.31c-0.01,0-0.02-0.01-0.03-0.01 c-1.24-0.5-2.42-1.24-3.42-2.25c-3.63-3.63-3.99-9.29-1.09-13.33l-10.06,10.07l14.5,14.51l10.76-10.76l-0.02-0.02 c-1.58,1.37-3.53,2.24-5.61,2.47C203.08,436.83,203.08,436.83,203.09,436.83L203.09,436.83z"/><linearGradient id="SVGID_22_" gradientUnits="userSpaceOnUse" x1="-16467.7031" y1="-1096.5599" x2="-16522.666" y2="-1041.5961" gradientTransform="matrix(0.2704 0.0701 0.0701 0.2704 4731.7275 1877.474)"><stop offset="0" style="stop-color:#4285F4"/><stop offset="0.032" style="stop-color:#4C8BF5"/><stop offset="0.202" style="stop-color:#7BAAF7"/><stop offset="0.372" style="stop-color:#A2C3FA"/><stop offset="0.538" style="stop-color:#C1D7FC"/><stop offset="0.7" style="stop-color:#D6E5FD"/><stop offset="0.856" style="stop-color:#E4EDFE"/><stop offset="1" style="stop-color:#E8F0FE"/></linearGradient><path fill="url(#SVGID_22_)" d="M203.09,436.83c-0.04,0-0.07,0-0.11,0.01c-0.19,0.02-0.39,0.03-0.59,0.04 c-0.79,0.04-1.58-0.01-2.36-0.15c-0.04-0.01-0.08-0.01-0.12-0.02c-0.3-0.06-0.59-0.13-0.88-0.21l-0.1-0.03 c-0.3-0.09-0.6-0.2-0.9-0.31c-0.01,0-0.02-0.01-0.03-0.01c-1.24-0.5-2.42-1.24-3.42-2.25c-3.63-3.63-3.99-9.29-1.09-13.33 l-10.06,10.07l14.5,14.51l10.76-10.76l-0.02-0.02c-1.58,1.37-3.53,2.24-5.61,2.47C203.08,436.83,203.08,436.83,203.09,436.83 L203.09,436.83z"/><path fill="#4285F4" d="M152.06,419.85l-10.51-6.04l-11.91,2.48l12.02,6.91c0.96,0.55,1.29,1.77,0.74,2.73 c-0.55,0.96-1.78,1.29-2.74,0.73l0,0l-15.92-9.15l-11.75,2.45c4.11,15.1,19.48,24.34,34.83,20.71c3.52-0.83,6.74-2.28,9.57-4.18 c3.7-2.49,6.74-5.79,8.94-9.58C160.2,426.19,155.49,423.67,152.06,419.85L152.06,419.85z M147.82,412.8 c-0.03-0.09-0.07-0.18-0.1-0.27l-0.27,0.06L147.82,412.8L147.82,412.8z M146.74,408.63c-0.04-0.27-0.08-0.53-0.11-0.8l-0.53,0.93 L146.74,408.63z M111.2,416.04l11.55-2.41l9.05-15.74c0.55-0.96,1.77-1.29,2.73-0.74s1.29,1.77,0.74,2.73L128,412.53l12.84-2.67 l6.95-12.09c1.5-4.1,4.18-7.66,7.71-10.22c-6.36-3.95-14.23-5.47-22.1-3.61c-6.83,1.61-12.84,5.63-16.93,11.33 C112.25,401.12,110.21,408.49,111.2,416.04L111.2,416.04z"/><path fill="#4285F4" d="M147.79,397.77l2-3.48c0.55-0.96,1.77-1.29,2.73-0.74s1.29,1.77,0.74,2.73l-6.64,11.55 c0.03,0.26,0.07,0.53,0.11,0.8l18.35-3.83c1.08-0.23,2.14,0.46,2.37,1.55l0,0c0.22,1.09-0.47,2.14-1.55,2.39l-18.19,3.79 c0.03,0.09,0.07,0.18,0.1,0.27l11.84,6.81c0.96,0.55,1.29,1.77,0.74,2.73c-0.55,0.96-1.78,1.29-2.74,0.73l0,0l-5.6-3.22 c3.43,3.82,8.14,6.34,13.27,7.05c2.61,0.36,5.32,0.26,8.03-0.38c11.75-2.78,19.02-14.56,16.24-26.3s-14.56-19.02-26.3-16.24 c-2.9,0.69-5.53,1.92-7.8,3.57C151.97,390.12,149.29,393.67,147.79,397.77L147.79,397.77z"/><path fill="#80ADF8" d="M139.66,426.66c0.96,0.56,2.18,0.23,2.74-0.73l0,0c0.55-0.96,0.22-2.18-0.74-2.73l-12.02-6.91l11.91-2.48 l10.51,6.04l5.6,3.22c0.96,0.56,2.18,0.23,2.74-0.73l0,0c0.55-0.96,0.22-2.18-0.74-2.73l-11.84-6.81l-0.37-0.21l0.27-0.06 l18.19-3.79c1.08-0.25,1.77-1.3,1.55-2.39c-0.22-1.08-1.28-1.78-2.37-1.55l0,0l-18.35,3.83l-0.65,0.13l0.53-0.93l6.64-11.55 c0.55-0.96,0.22-2.18-0.74-2.73s-2.18-0.22-2.73,0.74l-2,3.48l-6.95,12.09L128,412.53l7.27-12.65c0.55-0.96,0.22-2.18-0.74-2.73 c-0.96-0.55-2.18-0.22-2.73,0.74l-9.05,15.74l-11.55,2.41l-14.48,3.01c-1.08,0.22-1.78,1.28-1.55,2.37l0,0 c0.23,1.08,1.29,1.77,2.37,1.55l14.45-3.01l11.75-2.45L139.66,426.66L139.66,426.66z"/><path fill="#4285F4" d="M195.34,418.6c0.02-0.02,0.04-0.04,0.07-0.06C195.39,418.56,195.37,418.58,195.34,418.6z M196.17,417.98 c0.06-0.04,0.13-0.08,0.2-0.12C196.3,417.9,196.24,417.94,196.17,417.98z M198.79,416.72c0.14-0.04,0.28-0.09,0.43-0.12 C199.08,416.64,198.94,416.68,198.79,416.72z M199.93,416.43c0.34-0.06,0.68-0.11,1.02-0.15 C200.61,416.31,200.27,416.36,199.93,416.43z M197.94,417.03c0.04-0.01,0.07-0.03,0.11-0.05C198.01,417,197.97,417.02,197.94,417.03 z M199.26,434.41c1.08,1.08,2.38,1.9,3.81,2.41c2.02-0.23,3.98-1.05,5.61-2.47c0.18-0.16,0.36-0.31,0.54-0.48 c4.03-4.03,4.03-10.57,0-14.61c-1.09-1.09-2.41-1.92-3.86-2.43c-2.23,0.26-4.39,1.23-6.1,2.94 C195.22,423.82,195.22,430.37,199.26,434.41L199.26,434.41z M199.92,436.7c0.04,0.01,0.08,0.01,0.12,0.02 C200,436.71,199.96,436.71,199.92,436.7z M198.94,436.46l0.1,0.03C199.01,436.48,198.98,436.47,198.94,436.46z M198.01,436.13 c0.01,0,0.02,0.01,0.03,0.01C198.04,436.14,198.03,436.14,198.01,436.13z M202.4,436.87c0.2-0.01,0.39-0.02,0.59-0.04 C202.79,436.86,202.59,436.86,202.4,436.87z"/><path fill="#1A73E8" d="M199.93,416.43c-0.24,0.05-0.48,0.11-0.71,0.17l-0.43,0.12c-0.25,0.08-0.5,0.16-0.75,0.26 c-0.04,0.01-0.07,0.03-0.11,0.05c-0.54,0.22-1.06,0.5-1.57,0.82c-0.07,0.04-0.13,0.08-0.2,0.12c-0.26,0.17-0.51,0.36-0.76,0.56 c-0.02,0.02-0.04,0.04-0.07,0.06c-0.26,0.21-0.52,0.41-0.75,0.65c-0.41,0.41-0.76,0.84-1.09,1.3c-2.9,4.04-2.55,9.7,1.09,13.33 c1.01,1.01,2.18,1.75,3.42,2.25c0.01,0,0.02,0.01,0.03,0.01c0.3,0.12,0.59,0.22,0.9,0.31l0.1,0.03c0.29,0.08,0.58,0.16,0.88,0.21 c0.04,0.01,0.08,0.01,0.12,0.02c0.78,0.14,1.57,0.19,2.36,0.15c0.2-0.01,0.39-0.01,0.59-0.04c0.04,0,0.07,0,0.11-0.01 c-0.01,0-0.01,0-0.02-0.01c-1.39-0.5-2.7-1.3-3.81-2.41c-4.04-4.04-4.04-10.59,0-14.63c1.71-1.71,3.87-2.69,6.1-2.94 c0.01,0,0.02,0,0.03-0.01c-0.08-0.03-0.16-0.04-0.24-0.07c-0.29-0.1-0.58-0.18-0.88-0.24c-0.12-0.03-0.24-0.07-0.37-0.09 c-0.38-0.07-0.76-0.12-1.14-0.15c-0.18-0.02-0.36-0.02-0.54-0.03c-0.23-0.01-0.47-0.01-0.7,0c-0.2,0.01-0.39,0.01-0.59,0.03 C200.61,416.31,200.27,416.36,199.93,416.43L199.93,416.43z"/><path fill="#E8F0FE" d="M173.08,473.7h-0.02c-2.11,0.55-4.33,0.55-6.44,0h-0.02c-1.04-0.27-2.05-0.68-3-1.21 c-0.05-0.02-0.09-0.05-0.13-0.08c-0.42-0.24-0.83-0.52-1.23-0.81c-0.05-0.04-0.1-0.07-0.16-0.11c-0.43-0.33-0.86-0.69-1.26-1.09 c-4.05-4.05-4.8-10.14-2.27-14.95c0.48-0.91,1.09-1.77,1.81-2.57l-14.32,14.33l17.7,17.71l12.55-12.55 C175.27,472.96,174.19,473.41,173.08,473.7L173.08,473.7z"/><linearGradient id="SVGID_23_" gradientUnits="userSpaceOnUse" x1="-16626.8496" y1="-930.4238" x2="-16703.2598" y2="-854.0127" gradientTransform="matrix(0.2704 0.0701 0.0701 0.2704 4731.7275 1877.474)"><stop offset="0" style="stop-color:#4285F4"/><stop offset="0.032" style="stop-color:#4C8BF5"/><stop offset="0.202" style="stop-color:#7BAAF7"/><stop offset="0.372" style="stop-color:#A2C3FA"/><stop offset="0.538" style="stop-color:#C1D7FC"/><stop offset="0.7" style="stop-color:#D6E5FD"/><stop offset="0.856" style="stop-color:#E4EDFE"/><stop offset="1" style="stop-color:#E8F0FE"/></linearGradient><path fill="url(#SVGID_23_)" d="M173.08,473.7h-0.02c-2.11,0.55-4.33,0.55-6.44,0h-0.02c-1.04-0.27-2.05-0.68-3-1.21 c-0.05-0.02-0.09-0.05-0.13-0.08c-0.42-0.24-0.83-0.52-1.23-0.81c-0.05-0.04-0.1-0.07-0.16-0.11c-0.43-0.33-0.86-0.69-1.26-1.09 c-4.05-4.05-4.8-10.14-2.27-14.95c0.48-0.91,1.09-1.77,1.81-2.57l-14.32,14.33l17.7,17.71l12.55-12.55 C175.27,472.96,174.19,473.41,173.08,473.7L173.08,473.7z"/><path fill="#4285F4" d="M166.9,448.98c0.27-0.06,0.53-0.12,0.8-0.17C167.44,448.86,167.17,448.92,166.9,448.98z M165.17,449.52 c0.37-0.14,0.74-0.27,1.11-0.38C165.91,449.24,165.54,449.37,165.17,449.52z M161.11,452.1c0.26-0.25,0.53-0.49,0.81-0.71 C161.64,451.61,161.37,451.86,161.11,452.1z M166.98,470.32c1.74,1.74,3.86,2.86,6.1,3.38c1.11-0.29,2.19-0.74,3.21-1.33 c0.92-0.54,1.78-1.18,2.57-1.97c4.98-4.98,4.98-13.05,0-18.03c-1.68-1.68-3.8-2.85-6.11-3.39c-2.11,0.56-4.11,1.65-5.77,3.3 C162,457.26,162,465.34,166.98,470.32L166.98,470.32z M163.75,450.18c0.23-0.13,0.47-0.24,0.71-0.35 C164.22,449.94,163.98,450.06,163.75,450.18z M162.48,450.98c0.22-0.15,0.43-0.3,0.66-0.44 C162.91,450.68,162.69,450.83,162.48,450.98z M158.55,455.45c-2.53,4.81-1.77,10.9,2.27,14.95c0.4,0.4,0.82,0.75,1.26,1.09 c-0.43-0.33-0.85-0.7-1.25-1.09C156.79,466.35,156.03,460.26,158.55,455.45z"/><path fill="#1A73E8" d="M160.83,470.39c0.4,0.4,0.82,0.76,1.25,1.09c0.05,0.04,0.1,0.08,0.16,0.11c0.4,0.3,0.81,0.57,1.23,0.81 c0.04,0.03,0.09,0.05,0.13,0.08c0.96,0.54,1.97,0.94,3,1.21h0.02c2.11,0.55,4.33,0.54,6.44,0h0.02c-2.24-0.52-4.36-1.64-6.1-3.38 c-4.98-4.98-4.98-13.06,0-18.04c1.65-1.65,3.65-2.74,5.77-3.3c0.01,0,0.02-0.01,0.02-0.01l-0.19-0.03c-0.38-0.08-0.77-0.15-1.15-0.2 c-0.1-0.01-0.2-0.03-0.3-0.04c-0.47-0.05-0.94-0.07-1.4-0.06c-0.16,0-0.33,0.02-0.49,0.02c-0.31,0.01-0.61,0.04-0.92,0.07 c-0.21,0.02-0.41,0.05-0.61,0.09c-0.27,0.04-0.53,0.1-0.8,0.17c-0.21,0.05-0.42,0.09-0.62,0.15c-0.37,0.11-0.74,0.24-1.11,0.38 c-0.24,0.09-0.48,0.21-0.71,0.32c-0.24,0.11-0.48,0.22-0.71,0.35c-0.21,0.11-0.41,0.24-0.61,0.36c-0.22,0.14-0.44,0.29-0.66,0.44 c-0.19,0.13-0.37,0.26-0.55,0.41c-0.28,0.22-0.55,0.46-0.81,0.71c-0.09,0.09-0.19,0.16-0.28,0.24c-0.17,0.17-0.32,0.35-0.47,0.52 c-0.72,0.8-1.33,1.66-1.81,2.57C156.03,460.26,156.79,466.35,160.83,470.39L160.83,470.39z"/><linearGradient id="SVGID_24_" gradientUnits="userSpaceOnUse" x1="-7758.7607" y1="-6597.0889" x2="-7894.1128" y2="-6461.7378" gradientTransform="matrix(0.362 0.0477 0.0477 0.362 4148.9917 2912.925)"><stop offset="0" style="stop-color:#4285F4"/><stop offset="0.144" style="stop-color:#5994F5"/><stop offset="0.37" style="stop-color:#78A8F7"/><stop offset="0.591" style="stop-color:#8DB6F8"/><stop offset="0.804" style="stop-color:#9BBEF9"/><stop offset="1" style="stop-color:#9FC1F9"/></linearGradient><path fill="url(#SVGID_24_)" d="M1016.1,228.79l-64.56-64.56l43.05-43.06l64.56,64.57L1016.1,228.79z"/><path fill="#4285F4" d="M982.26,134.27l105.92-105.92l64.87,64.87l-105.92,105.92L982.26,134.27z"/><linearGradient id="SVGID_25_" gradientUnits="userSpaceOnUse" x1="1029.8571" y1="291.483" x2="1087.514" y2="233.826" gradientTransform="matrix(1 0 0 1 0 -140)"><stop offset="0" style="stop-color:#174EA6"/><stop offset="0.996" style="stop-color:#4285F4;stop-opacity:0.93"/></linearGradient><path opacity="0.3" fill="url(#SVGID_25_)" enable-background="new " d="M1015.83,100.64c-7.95,7.95-7.95,20.85,0,28.8 l50.47,50.48l86.71-86.72l-64.87-64.88L1015.83,100.64z"/><path fill="#3674CE" d="M1094.11,84.59l-42.37,42.37l-40.37-49.65l32.43-32.44L1094.11,84.59z"/><path fill="#4285F4" d="M1094.11,84.59l-42.37,42.37l-40.37-49.65l32.43-32.44L1094.11,84.59z"/><g><path fill="#174EA6" d="M1074.91,139.87c-8.32,0-16.22-3.17-22.23-8.94c-6.19-5.94-9.7-13.93-9.88-22.51s2.99-16.71,8.93-22.9 c6.11-6.37,14.35-9.88,23.18-9.88c8.32,0,16.22,3.17,22.22,8.94c6.19,5.94,9.7,13.93,9.88,22.51s-2.99,16.71-8.93,22.9 C1091.98,136.36,1083.74,139.87,1074.91,139.87z"/><path fill="#1967D2" d="M1074.92,75.93c7.92,0,15.86,2.94,22.03,8.86c12.69,12.17,13.11,32.32,0.94,45.01 c-6.25,6.52-14.61,9.8-22.97,9.8c-7.92,0-15.86-2.94-22.03-8.86c-12.69-12.17-13.11-32.32-0.94-45.01 C1058.19,79.21,1066.55,75.93,1074.92,75.93 M1074.92,64.25c-11.97,0-23.12,4.76-31.4,13.39c-8.04,8.39-12.34,19.41-12.1,31.03 s5,22.45,13.38,30.5c8.14,7.81,18.84,12.11,30.11,12.11c11.97,0,23.12-4.76,31.4-13.39c8.04-8.39,12.34-19.41,12.1-31.03 s-5-22.45-13.38-30.5C1096.89,68.55,1086.19,64.25,1074.92,64.25z"/></g><ellipse transform="matrix(0.9998 -0.02 0.02 0.9998 -2.4704 20.0425)" fill="#FFFFFF" cx="1000.79" cy="133.53" rx="5.15" ry="5.15"/><path fill="#174287" d="M1052.88,130.73c0.86,0.82,1.75,1.57,2.67,2.28c-9.36-12.26-8.66-29.85,2.35-41.33 c11.33-11.81,29.56-12.98,42.27-3.28c-0.97-1.27-2.03-2.48-3.22-3.62c-12.69-12.17-32.83-11.75-45,0.94 C1039.77,98.41,1040.19,118.56,1052.88,130.73L1052.88,130.73z"/></svg>
