<?xml version="1.0" encoding="utf-8"?>
<!-- Generator: Adobe Illustrator 21.0.2, SVG Export Plug-In . SVG Version: 6.00 Build 0)  -->
<svg version="1.1" id="Layer_1" xmlns="http://www.w3.org/2000/svg" xmlns:xlink="http://www.w3.org/1999/xlink" x="0px" y="0px"
	 width="20px" height="20px" viewBox="0 0 20 20" enable-background="new 0 0 20 20" xml:space="preserve">
<title>ic_qu_alternate-route copy 2</title>
<desc>Created with Sketch.</desc>
<g id="Page-1">
	<g id="start_direction_promo" transform="translate(-23.000000, -237.000000)">
		<g id="ic_qu_alternate-route-copy-2" transform="translate(21.000000, 235.000000)">
			<polygon id="_x5B_container_x5D_" fill="none" points="0,0 24,0 24,24 0,24 			"/>
			<g id="icon" transform="translate(2.000000, 2.000000)">
				<circle id="Base" fill="#0F9D58" cx="10" cy="10" r="10"/>
				<g id="ic_qu_turn_ramp_right" transform="translate(5.000000, 4.000000)">
					<rect id="_x5B_container_x5D__1_" fill="none" width="12" height="12"/>
				</g>
			</g>
		</g>
	</g>
</g>
<path fill="#FFFFFF" d="M5,14h2V8H5V14z M16,8.5c0-0.6-0.4-1-1-1h-3.2l0.5-2.3l0-0.2c0-0.2-0.1-0.4-0.2-0.5L11.6,4L8.3,7.3
	C8.1,7.5,8,7.7,8,8v5c0,0.6,0.4,1,1,1h4.5c0.4,0,0.8-0.2,0.9-0.6l1.5-3.5C16,9.8,16,9.6,16,9.5V8.5L16,8.5L16,8.5z"/>
</svg>
