<?xml version="1.0" encoding="utf-8"?>
<!-- Generator: Adobe Illustrator 19.2.1, SVG Export Plug-In . SVG Version: 6.00 Build 0)  -->
<svg version="1.0" id="Layer_1" xmlns="http://www.w3.org/2000/svg" xmlns:xlink="http://www.w3.org/1999/xlink" x="0px" y="0px"
	 width="273px" height="101.5px" viewBox="0 0 273 101.5" style="enable-background:new 0 0 273 101.5;" xml:space="preserve">
<path style="fill:none;" d="M-36.5-21.5h344.179993V126H-36.5V-21.5z"/>
<linearGradient id="SVGID_1_" gradientUnits="userSpaceOnUse" x1="45.110374" y1="21.206802" x2="45.110374" y2="46.529198" gradientTransform="matrix(1 0 0 -1 0 105)">
	<stop  offset="0" style="stop-color:#FFFFFF;stop-opacity:0.5"/>
	<stop  offset="0.6" style="stop-color:#ECEDEF;stop-opacity:0.8"/>
	<stop  offset="1" style="stop-color:#DFE1E5"/>
</linearGradient>
<path style="opacity:0.5;fill:url(#SVGID_1_);enable-background:new    ;" d="M82.559998,79.389999h-2.730003
	c-2.449997,0-4.599998-1.720001-5.739998-4.32c-2.349998-5.370003-7-9-12.459999-9
	c-4.199997,0.099998-8.099998,2.199997-10.489998,5.650002c-3.400002-7.919998-10.279999-13.339996-18.220001-13.339996
	c-8.84,0-16.360001,6.709999-19.23,16.110001c-0.700001,2.779999-3.130001,4.779999-6,4.93
	c-0.959999,0-1.790001,0.669998-2,1.599998c-0.41,1.610001,0.580002,3.080002,1.860001,3.080002h75.089996
	c1.230003-0.139999,2.110001-1.25,1.970001-2.480003c-0.010002-0.080002-0.019997-0.169998-0.040001-0.25
	C84.489998,80.300003,83.629997,79.459999,82.559998,79.389999z"/>
<linearGradient id="SVGID_2_" gradientUnits="userSpaceOnUse" x1="102.423035" y1="33.959801" x2="102.423035" y2="102.444496" gradientTransform="matrix(1 0 0 -1 0 105)">
	<stop  offset="0" style="stop-color:#FFFFFF;stop-opacity:0.5"/>
	<stop  offset="0.6" style="stop-color:#ECEDEF;stop-opacity:0.8"/>
	<stop  offset="1" style="stop-color:#DFE1E5"/>
</linearGradient>
<path style="opacity:0.5;fill:url(#SVGID_2_);enable-background:new    ;" d="M202.339996,63.550003
	c-0.460007-2.43-2.529999-4.220001-5-4.330002c-6.759995,0-13-5.209999-15.320007-13.330002
	c-7.270004-25.419998-26.330002-43.580002-48.75-43.580002c-20.149994,0-37.580002,14.669998-46.199997,36.080002
	c-6.529999-9.349998-16.010002-15.27-26.589996-15.27c-13.729996,0-25.599998,9.899998-31.599998,24.420002
	c-2.880001,7.010002-8.349998,11.669998-14.549999,11.669998H7.469997c-2.470001,0-4.759998,2.160004-5.119999,5.279999
	C1.84,68.449997,4.23,71.869995,7.23,71.869995H197.62999C200.869995,71.869995,203.339996,67.889992,202.339996,63.550003z"/>
<linearGradient id="SVGID_3_" gradientUnits="userSpaceOnUse" x1="187.276505" y1="26.5" x2="187.276505" y2="85.926903" gradientTransform="matrix(1 0 0 -1 0 105)">
	<stop  offset="0" style="stop-color:#FFFFFF;stop-opacity:0.5"/>
	<stop  offset="0.6" style="stop-color:#ECEDEF;stop-opacity:0.8"/>
	<stop  offset="1" style="stop-color:#DFE1E5"/>
</linearGradient>
<path style="opacity:0.5;fill:url(#SVGID_3_);enable-background:new    ;" d="M270.769989,72
	c-0.359985-2.050003-2.070007-3.580002-4.140015-3.720001c-5.660004,0-10.869995-4.529999-12.809998-11.580002
	c-6.079987-22.07-22-37.84-40.740005-37.84c-16.839996,0-31.399994,12.75-38.610001,31.34
	c-5.460007-8.119999-13.389999-13.260002-22.229996-13.260002c-11.470001,0-21.410004,8.599998-26.410004,21.209999
	c-2.410004,6.129997-6.979996,10.129997-12.160004,10.129997h-5.729996c-2.110001,0-3.970001,1.870003-4.300003,4.529999
	c-0.419998,3.410004,1.570007,6.409996,4.080002,6.409996h159.109985c2.709991,0,4.809998-3.449997,3.940002-7.220001L270.769989,72
	z"/>
<g>
	<path style="fill:#BABFC5;" d="M86.550003,24.540001c-0.040001-1.09-0.910004-1.959999-2-2H51.089996
		c-0.07,0-0.139999,0.009998-0.220001,0.02c-0.959999,0.130001-1.639999,1.02-1.5,1.98c0.040001,1.09,0.910004,1.959999,2,2H65.5
		l2.330002,33.919998c0.040001,1.089996,0.910004,1.959999,2,2c0.07,0,0.139999-0.010002,0.220001-0.019997
		c0.959999-0.129997,1.639999-1.019997,1.5-1.980003l-2.330002-33.919998h15.610001c0.07,0,0.139999-0.009998,0.220001-0.02
		C86.010002,26.389999,86.68,25.5,86.550003,24.540001z"/>
	
		<linearGradient id="SVGID_4_" gradientUnits="userSpaceOnUse" x1="-386.380005" y1="231.889999" x2="-309.093414" y2="231.889999" gradientTransform="matrix(1 0 0.07 1 404.254974 -144.5)">
		<stop  offset="0" style="stop-color:#808080;stop-opacity:0"/>
		<stop  offset="1" style="stop-color:#808080"/>
	</linearGradient>
	<path style="fill:url(#SVGID_4_);" d="M112.289993,88.199997H35.189995l-0.300003-1.620003h77.099998L112.289993,88.199997"/>
	<path style="fill:#292D33;" d="M107.830002,62.760002c-4.25,0-7.320007,5.559998-6.830002,12.68s4.309998,12.68,8.570007,12.68h4
		l-2.419998-25.360001H107.830002z"/>
	<path style="fill:#676C72;" d="M120.229996,75.449997c0.479996,7-2.520004,12.669998-6.699997,12.669998
		s-8-5.669998-8.429993-12.669998s2.520004-12.669998,6.699997-12.669998s7.949997,5.669998,8.430008,12.669998H120.229996z"/>
	<path style="fill:#DFE1E5;" d="M116.600006,75.449997c0.210007,3.089996-1.110001,5.599998-3,5.599998
		s-3.520004-2.510002-3.729996-5.599998s1.110001-5.599998,3-5.599998S116.380005,72.349998,116.600006,75.449997z"/>
	<path style="fill:#FDDF87;" d="M69.779999,22.400002c0.25,3.59-6,6.510002-8.389999,6.510002s-4.5-2.91-4.75-6.510002
		s1.480003-6.510002,3.849998-6.510002S69.529999,18.799999,69.779999,22.400002z"/>
	<path style="fill:#FBC730;" d="M65.239998,22.400002c0.25,3.59-1.480003,6.510002-3.849998,6.510002s-4.5-2.91-4.75-6.510002
		s1.480003-6.510002,3.849998-6.510002S65,18.799999,65.239998,22.400002z"/>
	<path style="fill:#FFFFFF;" d="M64.199997,22.400002c0.190002,2.720001-1.120003,4.93-2.919998,4.93
		s-3.410004-2.209999-3.589996-4.93s1.120003-4.93,2.919998-4.93S64.010002,19.68,64.199997,22.400002z"/>
	<path style="fill:#FBC730;" d="M118.539993,73.279999c-0.75-10.400002-6.369995-18.889999-12.529999-18.889999
		s-10.619995,8.489998-9.940002,18.889999H118.539993z"/>
	<path style="fill:#FDDF87;" d="M123.429993,73.279999c-0.75-10.400002-6.369995-18.889999-12.529999-18.889999
		s-10.619995,8.489998-9.940002,18.889999H123.429993z"/>
	<path style="fill:#FBC730;" d="M90.339996,54.269997c0.720001,10.440002-5.089996,18.909996-13,19l0.360001,5.260002h28.369995
		l-1.660004-24.220001H90.30999C90.30999,54.309998,90.339989,54.269997,90.339996,54.269997z"/>
	<path style="fill:#FDDF87;" d="M101.830002,54.269997c0.820007,11.909996-4.899994,21.57-12.779999,21.639999l0.160004,2.379997
		h23.520004l-1.649994-24h-9.25v-0.019997H101.830002z"/>
	<path style="fill:#FDDF87;" d="M123.869995,79.739998l-52.040001-0.110001l-0.18-3.720001h51.869995L123.869995,79.739998"/>
	<path style="fill:#FDDF87;" d="M123.869995,79.739998H99.110001L98.669998,73.25h24.75L123.869995,79.739998 M73.099991,79.639999
		h-5.769997c-6.68,0-12.540001-6.389999-13-14.199997l-1.290001-20.910004
		c-0.480003-7.810001,4.589996-14.200001,11.270004-14.200001h5.769997c6.68,0,12.540001,6.389999,13,14.200001l2.169998,35.119995
		C85.249992,79.649994,73.099991,79.639992,73.099991,79.639999z"/>
	<path style="fill:#FBC730;" d="M67.830002,79.639999h-0.739998c-6.68,0-12.540001-6.389999-13-14.199997l-1.290001-20.910004
		C52.32,36.719997,57.389999,30.329998,64.070007,30.329998h0.739998c6.68,0,12.540001,6.389999,13,14.200001l1.290001,20.910004
		C79.560005,73.25,74.490005,79.639999,67.830002,79.639999z"/>
	<path style="fill:#292D33;" d="M55.730003,62.760002c-4.25,0-7.32,5.559998-6.830002,12.68s4.309998,12.68,8.57,12.68h4
		l-2.419998-25.360001H55.730003z"/>
	<path style="fill:#676C72;" d="M68.150002,75.449997c0.480003,7-2.519997,12.669998-6.699997,12.669998s-8-5.669998-8.43-12.669998
		s2.519997-12.669998,6.699997-12.669998S67.669998,68.449997,68.150002,75.449997z"/>
	<path style="fill:#DFE1E5;" d="M64.519997,75.449997c0.209999,3.089996-1.110001,5.599998-3,5.599998
		S58,78.539993,57.789993,75.449997s1.110001-5.599998,3-5.599998S64.30999,72.349998,64.519997,75.449997z"/>
	<path style="fill:#FBC730;" d="M65.830002,75.620003c-0.629997-8.760002-5.360001-15.909996-10.550003-15.909996
		s-8.940002,7.150002-8.370003,15.910004C46.909996,75.62001,65.829994,75.62001,65.830002,75.620003z"/>
	<path style="fill:#FDDF87;" d="M69.910004,75.620003c-0.629997-8.760002-5.360001-15.909996-10.550003-15.909996
		s-8.940002,7.150002-8.370003,15.910004C50.989998,75.62001,69.909996,75.62001,69.910004,75.620003z"/>
	<path style="fill:#292D33;" d="M113.679993,43.800003H88.099998c-2.019997,0.040001-3.620003,1.709999-3.580002,3.720001
		c0,0.089996,0.010002,0.190002,0.019997,0.279999l0.160004,2.279999c0.129997,2.209999,1.900002,3.970001,4.110001,4.080002
		h25.580002c2.029999-0.050003,3.630005-1.739998,3.570007-3.769997c0-0.110001-0.009995-0.209999-0.020004-0.309998
		l-0.160004-2.279999C117.630005,45.62001,115.869995,43.900009,113.679993,43.800003z"/>
	<path style="fill:#676C72;" d="M113.830002,43.800003h-12.639999C99.25,43.840004,97.710007,45.440002,97.75,47.380005
		c0,0.099998,0.009995,0.209999,0.020004,0.309998l0.179993,2.580002c0.130005,2.139999,1.860001,3.839996,4,3.93h12.639999
		c1.949997-0.050003,3.490005-1.68,3.440002-3.639999c0-0.099998-0.009995-0.199997-0.020004-0.290001l-0.179993-2.580002
		C117.699997,45.550003,115.970001,43.870003,113.830002,43.800003z"/>
</g>
<g>
	<path style="fill:#E4594E;" d="M204.660004,56.239998h8.160004c1.429993,0,2.589996,1.160004,2.589996,2.589996v0.690002
		c0,1.43-1.160004,2.589996-2.589996,2.589996h-8.160004c-1.429993,0-2.589996-1.160004-2.589996-2.589996v-0.690002
		C202.070007,57.399994,203.230011,56.239998,204.660004,56.239998z"/>
	
		<linearGradient id="SVGID_5_" gradientUnits="userSpaceOnUse" x1="-323.950012" y1="237.054993" x2="-217.381912" y2="237.054993" gradientTransform="matrix(1 0 0.07 1 404.254974 -144.5)">
		<stop  offset="0" style="stop-color:#808080;stop-opacity:0"/>
		<stop  offset="1" style="stop-color:#808080"/>
	</linearGradient>
	<path style="fill:url(#SVGID_5_);" d="M204.389999,93.639999H98.100006l-0.429993-2.169998h106.290009l0.429993,2.169998"/>
	<path style="fill:#292D33;" d="M196.899994,54.849998c-5.759995,0-9.710007,8.590004-8.800003,19.400002
		s6.300003,19.400002,12.069992,19.400002h5.369995l-4.199997-38.790001h-4.449997l0.009995-0.010002H196.899994z"/>
	<path style="fill:#676C72;" d="M215.210007,74.07c0.910004,10.809998-3.360001,19.57-9.529999,19.57
		s-11.919998-8.760002-12.830002-19.57s3.360001-19.57,9.529999-19.57S214.300003,63.260002,215.210007,74.07z"/>
	<path style="fill:#DFE1E5;" d="M209.610001,74.07c0.380005,4.559998-1.419998,8.269997-4,8.269997s-5-3.699997-5.419998-8.270004
		s1.419998-8.270004,4-8.270004S209.229996,69.509987,209.610001,74.07z"/>
	<path style="fill:#2C66BF;" d="M203.190002,52.099998h-5.889999c-6.089996,0-10.850006,7.779999-11.550003,17.900002h24.570007
		C209.360001,63.419998,203.190002,52.099998,203.190002,52.099998z"/>
	<path style="fill:#4285F4;" d="M203.179993,52.099998c-6.110001,0-10.889999,7.760002-11.589996,17.900002h24.570007
		c-1.490005-10.150002-6.869995-17.900002-12.979996-17.900002H203.179993z"/>
	<path style="fill:#BABFC5;" d="M145.190002,21c-0.850006-0.389999-1.860001-0.02-2.259995,0.830002
		c-0.050003,0.110001-0.089996,0.220001-0.110001,0.330002L125.690002,75.25
		c-0.339996,1.089996,0.139999,2.260002,1.149994,2.800003c0.289993,0.139999,0.610001,0.190002,0.929993,0.150002
		c0.699997-0.110001,1.270004-0.620003,1.449997-1.309998l17.130005-53.09c0.339996-1.09-0.149994-2.27-1.160004-2.799999
		L145.190002,21z"/>
	<path style="fill:#292D33;" d="M205.570007,38.82h-32.649994c-2.570007,0.049999-4.610001,2.16-4.570007,4.730003
		c0,0.139999,0.009995,0.290001,0.029999,0.43l0.199997,2.910004c0.160004,2.82,2.429993,5.07,5.25,5.209999h32.650009
		c2.589996-0.07,4.630005-2.220001,4.570007-4.809998c0-0.129997-0.009995-0.269997-0.029999-0.400002l-0.190002-2.889999
		c-0.160004-2.82-2.429993-5.07-5.259995-5.18L205.570007,38.82z"/>
	<path style="fill:#676C72;" d="M205.75,38.82h-16.130005c-2.470001,0.040001-4.440002,2.09-4.399994,4.559998
		c0,0.150002,0.009995,0.290001,0.029999,0.440002l0.229996,3.300003c0.160004,2.709999,2.339996,4.860001,5.050003,5h16.130005
		c2.5-0.07,4.460007-2.150002,4.389999-4.639999c0-0.120003-0.009995-0.239998-0.020004-0.360001L210.800003,43.82
		C210.650009,41.099998,208.470001,38.939999,205.75,38.82z"/>
	<path style="fill:#2C66BF;" d="M158.710007,33.900002l2.169998-3L150.340012,31.02
		c-8.600006,0.189999-14.819992,9.439999-13.869995,21.09h31.360001c-0.630005-7.739998-4.259995-14.580002-9.119995-18.209999
		H158.710007z"/>
	<path style="fill:#4285F4;" d="M160.830002,30.880001c-8.649994,0.119999-14.910004,9.52-14,21.219997h31.360001
		C177.330002,40.399998,169.529999,30.759998,160.830002,30.880001z M148.110001,28.670002
		c0.300003,4.329998-7.240005,7.84-10.100006,7.84s-5.419998-3.509998-5.720001-7.84s1.779999-7.84,4.639999-7.84
		s10.899994,3.509998,11.179993,7.84H148.110001z"/>
	<path style="fill:#2C66BF;" d="M142.639999,28.669998c0.300003,4.330002-1.779999,7.84-4.639999,7.84
		s-5.419998-3.509998-5.720001-7.84s1.779999-7.84,4.639999-7.84S142.349991,24.339996,142.639999,28.669998z"/>
	<path style="fill:#FFFFFF;" d="M141.389999,28.669998c0.220001,3.279999-1.350006,5.93-3.520004,5.93s-4.100006-2.66-4.330002-5.93
		s1.350006-5.93,3.520004-5.93S141.160004,25.389999,141.389999,28.669998z"/>
	<path style="fill:#174689;" d="M145.759995,52.099998L153.429993,70.5c1.179993,2.629997,3.710007,4.410004,6.589996,4.629997h13.5
		c2.369995,0.029999,4.330002-1.860001,4.360001-4.239998c0-0.129997,0-0.260002-0.009995-0.389999l-1.259995-18.400002H145.759995z
		"/>
	<path style="fill:#2C66BF;" d="M154.580002,52.099998l7.720001,18.5c1.149994,2.580002,3.630005,4.309998,6.440002,4.529999
		h18.580002c2.320007,0.029999,4.229996-1.82,4.259995-4.139999c0-0.129997,0-0.260002-0.009995-0.389999l-0.440002-6.400002
		L197.25,52.099998H154.580002z"/>
	<path style="fill:#BABFC5;" d="M221.309998,70.760002h-52.699997c-0.910004-0.029999-1.720001-0.589996-2.050003-1.440002
		l-5.509995-13.260002c-0.5-1.050003-0.059998-2.300003,0.979996-2.800003c0.009995,0,0.009995-0.010002,0.020004-0.010002
		c1.119995-0.379997,2.350006,0.199997,2.759995,1.309998l4.910004,11.82h51.25c1.200012,0.050003,2.160004,1,2.230011,2.190002
		c0.109985,1.099998-0.700012,2.080002-1.799988,2.18c-0.029999,0.010002-0.059998,0.010002-0.089996,0.010002L221.309998,70.760002
		z"/>
	<path style="fill:#292D33;" d="M128.949997,54.849998c-5.759995,0-9.710007,8.590004-8.800003,19.400002
		s6.300003,19.400002,12.070007,19.400002h5.369995l-4.199997-38.790001h-4.449997L128.949997,54.849998z"/>
	<path style="fill:#676C72;" d="M147.259995,74.07c0.910004,10.809998-3.360001,19.57-9.529999,19.57
		s-11.919998-8.760002-12.830002-19.57s3.360001-19.57,9.529999-19.57S146.349991,63.260002,147.259995,74.07z"/>
	<path style="fill:#DFE1E5;" d="M141.669998,74.07c0.380005,4.559998-1.419998,8.269997-4,8.269997s-5-3.699997-5.419998-8.270004
		s1.419998-8.270004,4-8.270004S141.279999,69.509987,141.669998,74.07z"/>
	<path style="fill:#2C66BF;" d="M135.25,52.169998h-5.889999c-6.089996,0-10.860001,7.699997-11.559998,17.82h24.569992
		C141.409988,63.419998,135.25,52.169998,135.25,52.169998z"/>
	<path style="fill:#4285F4;" d="M148.210007,70c-1.479996-10.139999-6.860001-17.82-13-17.82s-10.899994,7.68-11.600006,17.82
		H148.210007z"/>
	<path style="fill:#BABFC5;" d="M175.570007,15.27c-0.059998-1.080002-0.919998-1.950001-2-2h-8.130005
		c-2.690002,0-4.610001,1.77-6.309998,3.32c-1.410004,1.290001-2.729996,2.5-4.179993,2.5h-7.839996
		c-1.449997,0-2.940002-1.220001-4.520004-2.5c-1.910004-1.560001-4.070007-3.32-6.759995-3.32h-8.149994
		c-0.059998,0-0.119995,0.009998-0.179993,0.009998c-0.979996,0.119999-1.679993,1.009998-1.570007,1.990002
		c0.059998,1.080002,0.919998,1.939999,2,2h8.130005c1.320007,0,2.789993,1.18,4.320007,2.420002
		c2,1.59,4.210007,3.389999,7,3.389999h5.470001l-16.020004,50.240005c-0.339996,1.089996,0.149994,2.260002,1.160004,2.790001
		c0.289993,0.139999,0.610001,0.190002,0.919998,0.150002c0.699997-0.110001,1.270004-0.629997,1.449997-1.32l16.649994-52.119999
		v-0.009998c1.880005-0.549999,3.360001-1.900002,4.679993-3.119999c1.369995-1.25,2.660004-2.420002,4-2.420002h8.130005
		c0.059998,0,0.119995-0.009998,0.179993-0.009998c0.979996-0.119999,1.690002-1.009998,1.570007-1.990002L175.570007,15.27z"/>
</g>
<g>
	
		<linearGradient id="SVGID_6_" gradientUnits="userSpaceOnUse" x1="214.739166" y1="6.918297" x2="214.739166" y2="29.887703" gradientTransform="matrix(1 0 0 -1 0 105)">
		<stop  offset="0" style="stop-color:#FFFFFF;stop-opacity:0.5"/>
		<stop  offset="0.6" style="stop-color:#ECEDEF;stop-opacity:0.8"/>
		<stop  offset="1" style="stop-color:#DFE1E5"/>
	</linearGradient>
	<path style="opacity:0.75;fill:url(#SVGID_6_);enable-background:new    ;" d="M248.390015,95.57
		c-0.160004-0.809998-0.850006-1.410004-1.670013-1.449997c-2.279999,0-4.380005-1.75-5.160004-4.470001
		c-2.410004-8.529999-8.859985-14.620003-16.410004-14.620003c-6.779999,0-12.649994,4.93-15.550003,12.110001
		c-1.970001-3.089996-5.339996-5.010002-9-5.120003c-4.639999,0-8.639999,3.32-10.639999,8.190002
		c-0.970001,2.360001-2.809998,3.919998-4.899994,3.919998H182.75c-0.910004,0.099998-1.619995,0.839996-1.679993,1.75
		c-0.020004,0.07-0.029999,0.139999-0.039993,0.209999c-0.160004,1.089996,0.589996,2.110001,1.679993,2.269997h64.089981
		c1.089996,0,1.940002-1.330002,1.589996-2.790001L248.390015,95.57z"/>
	
		<linearGradient id="SVGID_7_" gradientUnits="userSpaceOnUse" x1="77.260605" y1="9.804298" x2="77.260605" y2="27.496597" gradientTransform="matrix(1 0 0 -1 0 105)">
		<stop  offset="0" style="stop-color:#FFFFFF;stop-opacity:0.5"/>
		<stop  offset="0.6" style="stop-color:#ECEDEF;stop-opacity:0.8"/>
		<stop  offset="1" style="stop-color:#DFE1E5"/>
	</linearGradient>
	<path style="fill:url(#SVGID_7_);" d="M103.160004,93.260002c-0.119995-0.629997-0.649994-1.089996-1.289993-1.120003
		c-1.949997-0.120003-3.589996-1.529999-4-3.440002c-1.889999-6.57-6.830002-11.260002-12.639999-11.260002
		c-5.239998,0-9.760002,3.800003-12,9.330002c-1.510002-2.370003-4.089996-3.849998-6.900002-3.949997
		c-3.559998,0-6.639999,2.559998-8.190002,6.309998c-0.529999,1.669998-2.019997,2.860001-3.769997,3h-1.779999
		c-0.709999,0.080002-1.25,0.660004-1.290001,1.370003c-0.010002,0.040001-0.019997,0.080002-0.019997,0.120003
		c-0.139999,0.849998,0.440002,1.650002,1.290001,1.790001h49.370003c0.089996-0.019997,0.190002-0.040001,0.279999-0.080002
		c0.830002-0.309998,1.25-1.239998,0.940002-2.07H103.160004z"/>
</g>
</svg>
