<svg xmlns="http://www.w3.org/2000/svg" width="99.9" height="99.9" viewBox="0 0 99.9 99.9"><linearGradient id="a" x1="-378.6979" x2="-378.6979" y1="-108.9" y2="-77.86" gradientUnits="userSpaceOnUse" gradientTransform="matrix(-.92 0 0 -1 -301.83 -66.5)"><stop offset="0" style="stop-color:#FFFFFF;stop-opacity:0.5"/><stop offset=".58" style="stop-color:#ECEDEF;stop-opacity:0.8"/><stop offset="1" style="stop-color:#DFE1E5"/></linearGradient><path fill="url(#a)" d="M92.84 38.68c-.27-1.12-1.26-1.91-2.41-1.93-3.51-.14-6.52-2.55-7.42-5.95-3.5-11.3-12.75-19.44-23.6-19.44-9.75 0-18.19 5.55-22.37 15.1-3.16-4.17-7.75-5.81-12.87-5.81-6.64 0-12.41 4.42-15.3 10.9-1.4 3.13-4 5.21-7 5.21H.19v5.64h90.32c1.62-.01 2.83-1.78 2.33-3.72z" opacity=".5"/><path fill="#E4594E" d="M78.36 49.89h6.87c.91 0 1.65.74 1.65 1.65v.83c0 .91-.74 1.65-1.65 1.65h-6.87c-.91 0-1.65-.74-1.65-1.65v-.83c0-.91.74-1.65 1.65-1.65z"/><linearGradient id="b" x1="845.85" x2="927.1" y1="-141.945" y2="-141.945" gradientUnits="userSpaceOnUse" gradientTransform="matrix(1 0 -.07 -1 -859.17 -66.5)"><stop offset="0" style="stop-color:#808080;stop-opacity:0"/><stop offset="1" style="stop-color:#808080"/></linearGradient><path fill="url(#b)" d="M78.15 74.68h-78v1.53h78.33l-.33-1.53"/><path fill="#292D33" d="M72.77 48.92c-4.39 0-7.4 6-6.71 13.65s4.81 13.65 9.2 13.65h4.1l-3.2-27.3h-3.39z"/><path fill="#676C72" d="M86.73 62.44c.69 7.61-2.56 13.77-7.27 13.77s-9.09-6.17-9.78-13.77 2.56-13.77 7.27-13.77 9.08 6.16 9.78 13.77z"/><path fill="#DFE1E5" d="M82.51 62.44c.29 3.21-1.08 5.82-3.07 5.82s-3.84-2.6-4.13-5.82 1.08-5.82 3.07-5.82 3.79 2.61 4.13 5.82z"/><path fill="#2C66BF" d="M77.57 46.98h-4.49c-4.64 0-8.27 5.47-8.81 12.59H83c-.73-4.63-5.43-12.59-5.43-12.59z"/><path fill="#4285F4" d="M77.51 46.98c-4.66 0-8.3 5.46-8.84 12.59H87.4c-1.08-7.14-5.18-12.59-9.89-12.59z"/><path fill="#BABFC5" d="M41 26.56h-6c-2.13 0-3.82-1.27-5.31-2.39-1.17-.88-2.27-1.7-3.29-1.7h-6.2c-.8-.01-1.46-.61-1.54-1.4-.06-.72.48-1.34 1.2-1.4h6.33c2 0 3.7 1.24 5.16 2.33 1.2.9 2.34 1.76 3.44 1.76h6c1.11 0 2.12-.85 3.18-1.76 1.29-1.09 2.76-2.33 4.81-2.33h6.19c.8.01 1.46.61 1.54 1.4.06.72-.48 1.34-1.2 1.4h-6.32c-1 0-2 .83-3 1.7-1.36 1.12-2.86 2.39-4.99 2.39z"/><path fill="#BABFC5" d="M33.35 25.11c-.66-.3-1.45-.01-1.75.66-.02.05-.05.11-.06.16L18.51 63.29c-.27.79.11 1.66.87 2 .22.1.47.13.71.1.51-.07.94-.42 1.1-.92l13.06-37.36c.27-.8-.13-1.67-.9-2z"/><path fill="#292D33" d="M79.38 37.63H54.51c-1.87-.05-3.42 1.42-3.47 3.29 0 .11 0 .23.01.34l.15 2c.21 2.06 1.93 3.63 4 3.66h24.89c1.88.04 3.43-1.45 3.47-3.33 0-.11 0-.22-.01-.33l-.15-2c-.19-2.07-1.94-3.65-4.02-3.63z"/><path fill="#676C72" d="M79.51 37.63h-12.3c-1.79-.05-3.29 1.36-3.34 3.16 0 .11 0 .23.01.34l.17 2.32c.2 1.98 1.86 3.5 3.85 3.53h12.3c1.81.03 3.31-1.41 3.34-3.22 0-.1 0-.21-.01-.31l-.17-2.32c-.2-1.98-1.86-3.49-3.85-3.5z"/><path fill="#2C66BF" d="M43.65 34.17l1.65-2.12-8 .08c-6.56.14-11.3 6.64-10.57 14.84h23.88c-.36-5.07-2.89-9.74-6.96-12.8z"/><path fill="#4285F4" d="M45.3 32.05c-6.6.09-11.37 6.7-10.64 14.93h23.91c-.72-8.23-6.67-15.02-13.27-14.93zm-9.73-1.55c.23 3-5.52 5.51-7.7 5.51s-4.13-2.51-4.36-5.51 1.36-5.51 3.54-5.51 8.3 2.46 8.52 5.51z"/><path fill="#2C66BF" d="M31.41 30.5c.23 3-1.36 5.51-3.54 5.51s-4.13-2.51-4.36-5.51 1.36-5.51 3.54-5.51 4.13 2.46 4.36 5.51z"/><path fill="#FFF" d="M30.45 30.5c.17 2.31-1 4.18-2.68 4.18s-3.13-1.87-3.3-4.18 1-4.18 2.68-4.18 3.13 1.87 3.3 4.18z"/><path fill="#174689" d="M33.79 46.98l5.85 12.94c.97 1.9 2.87 3.14 5 3.26h10.29c1.73.1 3.21-1.23 3.31-2.96.01-.1.01-.2 0-.3l-1-12.94H33.79z"/><path fill="#2C66BF" d="M40.51 46.98l5.88 13c.96 1.86 2.82 3.07 4.91 3.18h14.21c1.69.1 3.14-1.2 3.24-2.89.01-.1.01-.19 0-.29l-.37-4.48 4.67-8.51-32.54-.01z"/><path fill="#BABFC5" d="M91.38 60.11H51.2c-.67 0-1.28-.39-1.56-1l-4.2-9.33c-.36-.71-.07-1.58.64-1.93.05-.03.1-.05.16-.07.83-.28 1.74.12 2.1.92l3.74 8.31h39.07c.88 0 1.61.67 1.7 1.54.07.79-.51 1.48-1.29 1.55-.06.01-.12.01-.18.01z"/><path fill="#292D33" d="M20.97 48.92c-4.39 0-7.4 6-6.71 13.65s4.81 13.65 9.2 13.65h4.05l-3.2-27.3h-3.39.05z"/><path fill="#676C72" d="M34.93 62.44c.69 7.61-2.56 13.77-7.27 13.77s-9.09-6.17-9.78-13.77 2.56-13.77 7.27-13.77 9.08 6.16 9.78 13.77z"/><path fill="#DFE1E5" d="M30.66 62.44c.29 3.21-1.08 5.82-3.07 5.82s-3.84-2.6-4.13-5.82 1.08-5.82 3.07-5.82 3.84 2.61 4.13 5.82z"/><path fill="#2C66BF" d="M25.77 47.03h-4.49c-4.64 0-8.28 5.42-8.81 12.54H31.2c-.69-4.63-5.43-12.54-5.43-12.54z"/><path fill="#4285F4" d="M35.65 59.57c-1.13-7.14-5.23-12.54-9.89-12.54s-8.31 5.4-8.84 12.54h18.73z"/><path fill="#BABFC5" d="M41.51 24.41c-.66-.3-1.45-.01-1.75.66-.02.05-.05.11-.06.16L27.01 61.9c-.27.79.11 1.66.88 2 .22.09.46.13.7.1.52-.07.95-.43 1.1-.93L42.38 26.4c.26-.79-.11-1.65-.87-1.99z"/><linearGradient id="c" x1="-408.3531" x2="-408.3531" y1="-148.4" y2="-122" gradientUnits="userSpaceOnUse" gradientTransform="matrix(-.92 0 0 -1 -301.83 -66.5)"><stop offset="0" style="stop-color:#FFFFFF;stop-opacity:0.5"/><stop offset=".58" style="stop-color:#ECEDEF;stop-opacity:0.8"/><stop offset="1" style="stop-color:#DFE1E5"/></linearGradient><path fill="url(#c)" d="M86.51 55.5c-6 0-11.1 5.57-13.65 13.7-1.93-3.55-4.73-5.8-7.86-5.8-4.05 0-7.57 3.76-9.33 9.27-.85 2.66-2.47 4.43-4.3 4.43h-2c-.73 0-1.4.82-1.52 2-.15 1.5.55 2.8 1.44 2.8h50.59V68.32c-2.61-7.64-7.59-12.82-13.37-12.82z" opacity=".75"/><path fill="none" d="M0 0h99.9v99.9H0V0z"/></svg>