<svg width="500" height="500" viewBox="0 0 500 500" xmlns="http://www.w3.org/2000/svg"><title>Walk_05-24fps_00035</title><desc>Created with Sketch.</desc><g fill="#fff"><path d="M232.408 94.21c22.871-1.604 40.271-21.629 38.667-44.5-1.604-22.871-21.629-40.271-44.5-38.667-22.871 1.604-40.271 21.629-38.667 44.5 1.604 22.871 21.629 40.271 44.5 38.667"/><rect transform="rotate(-2 227.062 198.929)" x="184.065" y="100.659" width="85.995" height="196.54" rx="42.997"/><rect transform="rotate(-39 267.496 160.871)" x="248.366" y="103.458" width="38.26" height="114.825" rx="19.13"/><rect transform="rotate(6 205.576 317.688)" x="181.168" y="242.34" width="48.815" height="150.695" rx="24.408"/><rect transform="rotate(-39 278.717 301.719)" x="254.31" y="231.214" width="48.815" height="141.011" rx="24.408"/><path d="M285.316 437.181l-1.65-97.037c-.229-13.483 10.51-24.599 23.993-24.828 13.48-.229 24.593 10.51 24.823 23.998l1.65 97.037-48.815.83zM155.213 474.987l20.829-107.088c2.574-13.233 15.388-21.873 28.629-19.298 13.237 2.575 21.882 15.386 19.308 28.622l-20.829 107.088-47.937-9.324zM376.524 251.81l-88.742-37.675c-9.733-4.132-14.276-15.368-10.144-25.101 4.131-9.731 15.363-14.272 25.101-10.138l87.834 37.289-14.048 35.624z"/><rect transform="rotate(39 183.142 157.499)" x="164.012" y="100.087" width="38.26" height="114.825" rx="19.13"/><path d="M121.009 285.094l12.977-92.426c1.469-10.46 11.136-17.749 21.598-16.28 10.46 1.469 17.748 11.139 16.28 21.592l-12.844 91.477-38.011-4.364z"/></g></svg>