<svg width="500" height="500" viewBox="0 0 500 500" xmlns="http://www.w3.org/2000/svg"><title>Walk_05-24fps_00025</title><desc>Created with Sketch.</desc><g fill="#fff"><path d="M246.909 111.739c22.917 0 41.667-18.75 41.667-41.667s-18.75-41.667-41.667-41.667-41.667 18.75-41.667 41.667 18.75 41.667 41.667 41.667"/><rect transform="rotate(3 230.246 210.315)" x="187.249" y="112.545" width="85.995" height="195.54" rx="42.997"/><rect transform="rotate(-29 272.426 179.445)" x="253.296" y="122.032" width="38.26" height="114.825" rx="19.13"/><rect transform="rotate(17 191.979 328.343)" x="167.572" y="253.773" width="48.815" height="149.139" rx="24.408"/><rect transform="rotate(-24 269.399 326.622)" x="244.992" y="256.117" width="48.815" height="141.011" rx="24.408"/><path d="M301.929 487.928l-33.697-103.707c-4.164-12.815 2.85-26.579 15.672-30.746 12.819-4.165 26.586 2.844 30.751 15.662l33.697 103.707-46.423 15.084zM103.498 460.893l46.923-88.343c6.321-11.9 21.091-16.423 32.996-10.1 11.903 6.322 16.423 21.103 10.108 32.994l-46.923 88.343-43.104-22.894zM369.633 265.129l-89.995-34.495c-9.871-3.783-14.807-14.848-11.024-24.718 3.782-9.868 14.843-14.803 24.718-11.018l89.073 34.142-12.773 36.089z"/><rect transform="rotate(41 192.609 177.308)" x="173.479" y="119.895" width="38.26" height="114.825" rx="19.13"/><path d="M133.712 294.906l14.564-92.24c1.648-10.439 11.444-17.565 21.885-15.916 10.438 1.648 17.564 11.448 15.917 21.879l-14.415 91.293-37.951-5.016z"/></g></svg>