<svg width="500" height="500" viewBox="0 0 500 500" xmlns="http://www.w3.org/2000/svg"><title>Walk_05-24fps_00038</title><desc>Created with Sketch.</desc><g fill="#fff"><path d="M231.949 107.887c22.894-1.192 40.65-20.898 39.458-43.792-1.192-22.894-20.898-40.65-43.792-39.458-22.894 1.192-40.65 20.898-39.458 43.792 1.192 22.894 20.898 40.65 43.792 39.458"/><rect transform="rotate(-1 224.914 206.001)" x="181.916" y="110.231" width="85.995" height="191.54" rx="42.997"/><rect transform="rotate(-45 267.084 164.172)" x="247.954" y="106.76" width="38.26" height="114.825" rx="19.13"/><rect transform="rotate(18 190.403 321.675)" x="165.996" y="246.328" width="48.815" height="150.695" rx="24.408"/><rect transform="rotate(-36 279.753 316.975)" x="255.345" y="241.627" width="48.815" height="150.695" rx="24.408"/><path d="M342.964 468.264l-56.282-101.54c-6.537-11.793-2.277-26.652 9.521-33.192 11.795-6.538 26.659-2.271 33.193 9.516l56.282 101.54-42.713 23.675zM113.328 470.954l37.295-102.508c4.609-12.667 18.614-19.199 31.288-14.588 12.671 4.61 19.208 18.613 14.599 31.283l-37.295 102.508-45.886-16.695zM387.341 231l-88.287-13.94c-10.439-1.648-17.565-11.444-15.917-21.885 1.648-10.438 11.445-17.564 21.891-15.915l87.362 13.794-5.05 37.946z"/><rect transform="rotate(52 172.786 160.154)" x="153.656" y="102.742" width="38.26" height="114.825" rx="19.13"/><path d="M104.155 270.14l15.376-87.04c1.838-10.404 11.762-17.347 22.171-15.509 10.407 1.838 17.353 11.763 15.515 22.171l-15.214 86.128-37.846-5.75z"/></g></svg>