<svg width="500" height="500" viewBox="0 0 500 500" xmlns="http://www.w3.org/2000/svg"><title>Walk_05-24fps_00032</title><desc>Created with Sketch.</desc><g fill="#fff"><path d="M240.408 87.21c22.871-1.604 40.271-21.629 38.667-44.5-1.604-22.871-21.629-40.271-44.5-38.667-22.871 1.604-40.271 21.629-38.667 44.5 1.604 22.871 21.629 40.271 44.5 38.667"/><rect transform="rotate(-2 234.062 195.429)" x="191.065" y="95.659" width="85.995" height="199.54" rx="42.997"/><rect transform="rotate(-19 265.496 171.871)" x="246.366" y="114.458" width="38.26" height="114.825" rx="19.13"/><rect transform="rotate(-3 225.576 324.688)" x="201.168" y="249.34" width="48.815" height="150.695" rx="24.408"/><rect transform="rotate(-30 272.717 297.719)" x="248.31" y="227.214" width="48.815" height="141.011" rx="24.408"/><path d="M230.501 418.513l49.974-83.161c6.944-11.555 21.935-15.296 33.49-8.352 11.552 6.942 15.291 21.933 8.345 33.492l-49.974 83.161-41.835-25.14zM199.206 479.929l3.817-108.942c.472-13.462 11.768-23.992 25.237-23.52 13.466.472 24.001 11.764 23.529 25.229l-3.817 108.942-48.766-1.709zM326.317 301.901l-59.354-75.927c-6.51-8.328-5.04-20.353 3.287-26.863 8.325-6.508 20.347-5.039 26.86 3.292l58.746 75.15-29.539 24.348z"/><rect transform="rotate(11 204.142 183.499)" x="185.012" y="126.087" width="38.26" height="114.825" rx="19.13"/><path d="M183.612 320.543l-6.535-93.173c-.74-10.544 7.206-19.691 17.753-20.431 10.544-.74 19.691 7.21 20.43 17.747l6.468 92.217-38.116 3.64z"/></g></svg>