<svg width="500" height="500" viewBox="0 0 500 500" xmlns="http://www.w3.org/2000/svg"><title>Walk_05-24fps_00036</title><desc>Created with Sketch.</desc><g fill="#fff"><path d="M230.408 99.21c22.871-1.604 40.271-21.629 38.667-44.5-1.604-22.871-21.629-40.271-44.5-38.667-22.871 1.604-40.271 21.629-38.667 44.5 1.604 22.871 21.629 40.271 44.5 38.667"/><rect transform="rotate(-2 225.062 200.929)" x="182.065" y="103.659" width="85.995" height="194.54" rx="42.997"/><rect transform="rotate(-43 265.496 157.871)" x="246.366" y="100.458" width="38.26" height="114.825" rx="19.13"/><rect transform="rotate(10 199.576 320.688)" x="175.168" y="245.34" width="48.815" height="150.695" rx="24.408"/><rect transform="rotate(-40 277.717 304.719)" x="253.31" y="234.214" width="48.815" height="141.011" rx="24.408"/><path d="M304.895 446.281l-19.682-101.191c-2.574-13.235 6.067-26.051 19.307-28.627 13.237-2.575 26.054 6.063 28.629 19.303l19.682 101.191-47.937 9.324zM142.139 474.623l24.536-106.216c3.032-13.125 16.13-21.307 29.263-18.273 13.129 3.033 21.316 16.129 18.283 29.256l-24.536 106.216-47.546-10.983zM383.593 239.021l-89.719-25.767c-10.153-2.916-16.021-13.508-13.104-23.664 2.916-10.153 13.512-16.02 23.658-13.106l88.798 25.503-9.633 37.034z"/><rect transform="rotate(45 176.142 157.499)" x="157.012" y="100.087" width="38.26" height="114.825" rx="19.13"/><path d="M110.404 275.68l13.94-88.287c1.648-10.439 11.444-17.565 21.885-15.917 10.438 1.648 17.564 11.445 15.915 21.891l-13.794 87.362-37.946-5.05z"/></g></svg>