<svg width="500" height="500" viewBox="0 0 500 500" xmlns="http://www.w3.org/2000/svg"><title>Walk_05-24fps_00027</title><desc>Created with Sketch.</desc><g fill="#fff"><path d="M254.328 104.621c22.917-.39 41.348-19.458 40.958-42.375-.39-22.917-19.458-41.348-42.375-40.958-22.917.39-41.348 19.458-40.958 42.375.39 22.917 19.458 41.348 42.375 40.958"/><rect transform="rotate(2 237.529 210.5)" x="194.531" y="107.73" width="85.995" height="205.54" rx="42.997"/><rect transform="rotate(-17 266.235 183.125)" x="247.105" y="125.712" width="38.26" height="114.825" rx="19.13"/><rect transform="rotate(1 211.573 325.934)" x="187.165" y="266.072" width="48.815" height="119.724" rx="24.408"/><rect transform="rotate(-18 269.83 333.262)" x="245.422" y="262.757" width="48.815" height="141.011" rx="24.408"/><path d="M270.547 482.243l-10.189-96.552c-1.416-13.415 8.307-25.438 21.722-26.854 13.413-1.415 25.433 8.308 26.849 21.728l10.189 96.552-48.571 5.126zM138.878 442.165l51.525-85.741c6.941-11.55 21.929-15.286 33.484-8.342 11.552 6.942 15.286 21.941 8.35 33.482l-51.525 85.741-41.835-25.14zM331.678 299.516l-69.279-66.966c-7.599-7.345-7.808-19.456-.463-27.054 7.343-7.596 19.449-7.806 27.052-.457l68.569 66.28-25.879 28.197z"/><rect transform="rotate(24 218.441 184.822)" x="199.311" y="127.41" width="38.26" height="114.825" rx="19.13"/><path d="M178.531 317.353l4.855-93.266c.549-10.555 9.549-18.666 20.106-18.116 10.555.549 18.665 9.552 18.116 20.1l-4.805 92.309-38.272-1.026z"/></g></svg>