<?xml version="1.0" encoding="UTF-8" standalone="no"?>
<svg width="64px" height="64px" viewBox="0 0 64 64" version="1.1" xmlns="http://www.w3.org/2000/svg" xmlns:xlink="http://www.w3.org/1999/xlink">
    <!-- Generator: Sketch 3.6.1 (26313) - http://www.bohemiancoding.com/sketch -->
    <title>Artboard</title>
    <desc>Created with Sketch.</desc>
    <defs>
        <path id="path-1" d="M0.271168831,0.355324675 L0.271168831,63.9998753 L63.9158442,63.9998753 L63.9158442,0.355324675 L0.271168831,0.355324675 Z"></path>
    </defs>
    <g id="Page-1" stroke="none" stroke-width="1" fill="none" fill-rule="evenodd">
        <g id="Artboard">
            <g id="Group-8">
                <mask id="mask-2" fill="white">
                    <use xlink:href="#path-1"></use>
                </mask>
                <g id="Clip-7"></g>
                <path d="M41.9809551,47.2284509 L39.3734287,51.3261002 L34.105508,41.2400145 C37.0068295,40.744188 39.582635,39.3027791 41.5108073,37.2390381 L46.8334843,47.429727 L41.9809551,47.2284509 Z M33.3313691,40.1029744 C32.8551792,40.1626397 32.3729473,40.203046 31.8805195,40.203046 C31.3880916,40.203046 30.9058597,40.1626397 30.4296699,40.1029744 L30.4292923,40.1029744 C24.7033078,39.387368 20.2691913,34.5121811 20.2691913,28.5917178 C20.2691913,22.1792044 25.4676284,16.9807673 31.8805195,16.9807673 C38.2934106,16.9807673 43.4918477,22.1792044 43.4918477,28.5917178 C43.4918477,34.5121811 39.0581087,39.387368 33.3317467,40.1029744 L33.3313691,40.1029744 L33.3313691,40.1029744 Z M24.3876102,51.3261002 L21.7800839,47.2284509 L16.9275547,47.429727 L22.2502316,37.2390381 C24.1784039,39.3027791 26.7542095,40.744188 29.655531,41.2400145 L24.3876102,51.3261002 Z M32.0932987,0.3552 C14.5182338,0.3552 0.271168831,14.6026805 0.271168831,32.1777455 C0.271168831,49.7528104 14.5182338,63.9998753 32.0932987,63.9998753 C49.6683636,63.9998753 63.9158442,49.7528104 63.9158442,32.1777455 C63.9158442,14.6026805 49.6683636,0.3552 32.0932987,0.3552 Z M33.4240769,26.512985 L31.5699199,22.7559567 L29.7157628,26.512985 L25.5693993,27.1156804 L28.5700372,30.0400373 L27.8616057,34.1694075 L31.5699199,32.2197103 L35.278234,34.1694075 L34.5698025,30.0400373 L37.5700627,27.1156804 L33.4240769,26.512985 Z" id="Combined-Shape" fill="#000000" mask="url(#mask-2)"></path>
            </g>
        </g>
    </g>
</svg>