<?xml version="1.0" encoding="UTF-8" standalone="no"?>
<svg width="64px" height="64px" viewBox="0 0 64 64" version="1.1" xmlns="http://www.w3.org/2000/svg" xmlns:xlink="http://www.w3.org/1999/xlink">
    <!-- Generator: Sketch 3.6.1 (26313) - http://www.bohemiancoding.com/sketch -->
    <title>Group</title>
    <desc>Created with Sketch.</desc>
    <defs></defs>
    <g id="Page-1" stroke="none" stroke-width="1" fill="none" fill-rule="evenodd">
        <g id="Store" transform="translate(-1111.000000, -295.000000)">
            <g id="Group" transform="translate(1111.000000, 295.000000)">
                <circle id="Oval-12" fill="#FFFFFF" cx="32" cy="32" r="32"></circle>
                <path d="M44.6452736,26.4427861 C44.0482587,23.0099502 41.0631841,20.4726368 37.4810945,20.4726368 L35.2422886,20.4726368 L28.8243781,20.4726368 L26.4363184,20.4726368 C22.8542289,20.4726368 19.8691542,23.0099502 19.2721393,26.4427861 C19.2721393,26.4427861 17.0333333,39.5771144 17.0333333,39.7263682 C17.0333333,41.5174129 18.3766169,42.8606965 20.1676617,42.8606965 C21.0631841,42.8606965 21.8094527,42.5621891 22.4064677,41.9651741 L27.4810945,36.8905473 L36.4363184,36.8905473 L41.660199,41.9651741 C42.2572139,42.5621891 43.0034826,42.8606965 43.899005,42.8606965 C45.540796,42.8606965 47.0333333,41.5174129 47.0333333,39.7263682 C46.8840796,39.5771144 44.6452736,26.4427861 44.6452736,26.4427861 L44.6452736,26.4427861 Z M30.4661692,29.4278607 L27.4810945,29.4278607 L27.4810945,32.4129353 L25.9885572,32.4129353 L25.9885572,29.4278607 L23.0034826,29.4278607 L23.0034826,27.9353234 L25.9885572,27.9353234 L25.9885572,24.9502488 L27.4810945,24.9502488 L27.4810945,27.9353234 L30.4661692,27.9353234 L30.4661692,29.4278607 L30.4661692,29.4278607 Z M37.1825871,27.3383085 C36.5855721,27.3383085 35.9885572,26.7412935 35.9885572,26.1442786 C35.9885572,25.5472637 36.5855721,24.9502488 37.1825871,24.9502488 C37.779602,24.9502488 38.3766169,25.5472637 38.3766169,26.1442786 C38.3766169,26.7412935 37.779602,27.3383085 37.1825871,27.3383085 L37.1825871,27.3383085 Z M37.1825871,32.4129353 C36.5855721,32.4129353 35.9885572,31.8159204 35.9885572,31.2189055 C35.9885572,30.6218905 36.5855721,30.0248756 37.1825871,30.0248756 C37.779602,30.0248756 38.3766169,30.6218905 38.3766169,31.2189055 C38.3766169,31.8159204 37.779602,32.4129353 37.1825871,32.4129353 L37.1825871,32.4129353 Z M38.5258706,28.681592 C38.5258706,28.0845771 39.1228856,27.4875622 39.7199005,27.4875622 C40.3169154,27.4875622 40.9139303,28.0845771 40.9139303,28.681592 C40.9139303,29.278607 40.3169154,29.8756219 39.7199005,29.8756219 C38.9736318,29.8756219 38.5258706,29.278607 38.5258706,28.681592 L38.5258706,28.681592 Z M33.4512438,28.681592 C33.4512438,28.0845771 34.0482587,27.4875622 34.6452736,27.4875622 C35.2422886,27.4875622 35.8393035,28.0845771 35.8393035,28.681592 C35.8393035,29.278607 35.2422886,29.8756219 34.6452736,29.8756219 C34.0482587,29.8756219 33.4512438,29.278607 33.4512438,28.681592 L33.4512438,28.681592 Z" id="Shape" fill="#8AC249"></path>
            </g>
        </g>
    </g>
</svg>