<?xml version="1.0" encoding="UTF-8" standalone="no"?>
<svg width="24px" height="17px" viewBox="0 0 21 15" version="1.1"
    xmlns="http://www.w3.org/2000/svg">
    <!-- Generator: Sketch 3.6.1 (26313) - http://www.bohemiancoding.com/sketch -->
    <title>ic_games_24px</title>
    <desc>Created with Sketch.</desc>
    <defs></defs>
    <g id="Page-1" stroke="none" stroke-width="1" fill="none" fill-rule="evenodd">
        <g id="Store" transform="translate(-892.000000, -204.000000)" fill="#000000">
            <g id="ic_games_24px" transform="translate(890.000000, 200.000000)">
                <path d="M20.5,8 C20.1,5.7 18.1,4 15.7,4 L14.2,4 L9.9,4 L8.3,4 C5.9,4 3.9,5.7 3.5,8 C3.5,8 2,16.8 2,16.9 C2,18.1 2.9,19 4.1,19 C4.7,19 5.2,18.8 5.6,18.4 L9,15 L15,15 L18.5,18.4 C18.9,18.8 19.4,19 20,19 C21.1,19 22.1,18.1 22.1,16.9 C22,16.8 20.5,8 20.5,8 L20.5,8 Z M11,10 L9,10 L9,12 L8,12 L8,10 L6,10 L6,9 L8,9 L8,7 L9,7 L9,9 L11,9 L11,10 L11,10 Z M15.5,8.6 C15.1,8.6 14.7,8.2 14.7,7.8 C14.7,7.4 15.1,7 15.5,7 C15.9,7 16.3,7.4 16.3,7.8 C16.3,8.2 15.9,8.6 15.5,8.6 L15.5,8.6 Z M15.5,12 C15.1,12 14.7,11.6 14.7,11.2 C14.7,10.8 15.1,10.4 15.5,10.4 C15.9,10.4 16.3,10.8 16.3,11.2 C16.3,11.6 15.9,12 15.5,12 L15.5,12 Z M16.4,9.5 C16.4,9.1 16.8,8.7 17.2,8.7 C17.6,8.7 18,9.1 18,9.5 C18,9.9 17.6,10.3 17.2,10.3 C16.7,10.3 16.4,9.9 16.4,9.5 L16.4,9.5 Z M13,9.5 C13,9.1 13.4,8.7 13.8,8.7 C14.2,8.7 14.6,9.1 14.6,9.5 C14.6,9.9 14.2,10.3 13.8,10.3 C13.4,10.3 13,9.9 13,9.5 L13,9.5 Z" id="Shape"></path>
            </g>
        </g>
    </g>
</svg>