<?xml version="1.0" encoding="UTF-8"?>
<svg width="189px" height="121px" viewBox="0 0 189 121" version="1.1" xmlns="http://www.w3.org/2000/svg" xmlns:xlink="http://www.w3.org/1999/xlink">
    <!-- Generator: Sketch 47.1 (45422) - http://www.bohemiancoding.com/sketch -->
    <title>coupon_books_blue</title>
    <desc>Created with Sketch.</desc>
    <defs>
        <linearGradient x1="50%" y1="17.5534663%" x2="70.3099965%" y2="44.8740173%" id="linearGradient-1">
            <stop stop-color="#454545" stop-opacity="0.2" offset="0%"></stop>
            <stop stop-color="#212121" stop-opacity="0" offset="100%"></stop>
        </linearGradient>
        <linearGradient x1="0%" y1="20.034869%" x2="96.6724383%" y2="30.4825054%" id="linearGradient-2">
            <stop stop-color="#000000" stop-opacity="0.2" offset="0%"></stop>
            <stop stop-color="#000000" stop-opacity="0" offset="100%"></stop>
        </linearGradient>
    </defs>
    <g id="Page-1" stroke="none" stroke-width="1" fill="none" fill-rule="evenodd">
        <g id="coupon_books_blue">
            <g id="Group" opacity="0.92" transform="translate(31.000000, 0.000000)">
                <polygon id="Shape" points="0.312 35.168 94.042 35.168 94.042 97.689 0.312 97.689"></polygon>
                <path d="M43.569,18.535 C43.569,15.445 46.663,12.357 49.756,12.357 L74.504,12.357 C77.598,12.357 80.691,15.446 80.691,18.535 L43.57,18.535 C43.57,18.535 43.57,21.624 43.57,18.535 L43.569,18.535 Z M89.3187797,61.8326511 C92.2353898,63.4892613 92.2353898,66.2045155 89.3187797,67.8641765 L48.6174237,90.9957019 C46.8784407,91.9811257 45.3347119,91.8896003 44.3645424,90.9499392 L44.3614915,90.9529901 C43.7025085,90.315363 43.312,89.2841765 43.312,87.9326511 L43.312,41.7611257 C43.312,40.4096003 43.7025085,39.3784138 44.3614915,38.7438375 L44.3645424,38.7468884 C45.3347119,37.8072274 46.8814915,37.7126511 48.6174237,38.7011257 L89.3187797,61.8326511 Z M80.69,3.55271368e-15 L43.57,3.55271368e-15 L31.55,12.357 L31.55,19.46 L0.312,19.46 L0.342,39.985 L21.764,39.985 L27.341,110.785 L111.626,110.794 C117.813,110.794 124,104.615 124,98.437 L124,19.46 L92.846,19.46 L92.846,11.39 L80.69,3.55271368e-15 Z" id="Shape" fill="#01579B" fill-rule="nonzero"></path>
                <path d="M104.82688,62.7421339 L94.042,86.8761454 L109.171988,110.794 C116.585994,110.794 124,104.310345 124,97.82774 L122.80168,55.397 L104.82688,62.7421339 Z" id="Shape" fill="url(#linearGradient-1)" fill-rule="nonzero"></path>
            </g>
            <path d="M56.985,40 C59.216,39.958 61.245,40.86 62.719,42.315 C64.204,43.78 104,111 104,111 C104,111 88.3333333,111 57,111 L56.985,40 Z" id="Shape" fill="url(#linearGradient-2)" fill-rule="nonzero"></path>
            <path d="M32.563,40 L32.563,68.265 L40.703,60.189 L48.845,68.265 L48.845,40 L56.985,40 C61.463,40 65.126,43.634 65.126,48.076 L65.126,112.681 C65.126,117.122 61.463,120.756 56.986,120.756 L0,120.756 L0,40 L32.563,40 Z" id="Shape" fill="#039BE5" fill-rule="nonzero"></path>
            <path d="M155.5,50 C137.000556,50 122,65.0005556 122,83.5 L122,109.555556 C122,115.734444 126.987778,120.722222 133.166667,120.722222 L144.333333,120.722222 L144.333333,90.9444444 L131.444444,90.9444444 L131.444444,83.5 C131.444444,69.095 141.095,59.4444444 155.5,59.4444444 C169.905,59.4444444 179.555556,69.095 179.555556,83.5 L179.555556,90.9444444 L166.666667,90.9444444 L166.666667,120.722222 L177.833333,120.722222 C184.012222,120.722222 189,115.734444 189,109.555556 L189,83.5 C189,65.0005556 173.999444,50 155.5,50 Z" id="Shape" fill="#039BE5" fill-rule="nonzero"></path>
        </g>
    </g>
</svg>