<?xml version="1.0" encoding="UTF-8" standalone="no"?>
<svg width="30px" height="31px" viewBox="0 0 30 31" version="1.1" xmlns="http://www.w3.org/2000/svg" xmlns:xlink="http://www.w3.org/1999/xlink">
    <!-- Generator: Sketch 3.8.1 (29687) - http://www.bohemiancoding.com/sketch -->
    <title>finger</title>
    <desc>Created with Sketch.</desc>
    <defs></defs>
    <g id="Page-1" stroke="none" stroke-width="1" fill="none" fill-rule="evenodd">
        <g id="finger">
            <path d="M24.4192,25.4582 L22.8042,26.8452 C17.3542,31.5252 9.0662,30.8962 4.3862,25.4462 L4.3862,25.4462 C-0.2948,19.9962 0.3352,11.7082 5.7852,7.0282 L7.4002,5.6412 C12.8502,0.9602 21.1382,1.5902 25.8182,7.0402 L25.8182,7.0402 C30.4982,12.4902 29.8692,20.7782 24.4192,25.4582" id="Fill-1" fill="#FFD5BA"></path>
            <path d="M3.9613,19.7398 C3.9613,19.7398 7.4933,6.5498 20.9613,5.1568 C20.9613,5.1568 20.8783,3.0728 16.2113,2.1568 C11.6033,1.2518 7.2993,4.5048 5.5443,5.9898 C3.3783,7.8228 1.2943,10.8228 1.0323,14.1588 C0.7963,17.1648 1.8713,19.8958 3.9613,19.7398" id="Fill-3" fill="#FDEFEC"></path>
        </g>
    </g>
</svg>