<?xml version="1.0" encoding="UTF-8" standalone="no"?>
<svg width="22px" height="65px" viewBox="0 0 22 65" version="1.1" xmlns="http://www.w3.org/2000/svg" xmlns:xlink="http://www.w3.org/1999/xlink">
    <!-- Generator: Sketch 3.8.3 (29802) - http://www.bohemiancoding.com/sketch -->
    <title>finger2</title>
    <desc>Created with Sketch.</desc>
    <defs></defs>
    <g id="Page-1" stroke="none" stroke-width="1" fill="none" fill-rule="evenodd">
        <g id="finger2" transform="translate(10.581333, 32.778634) scale(1, -1) rotate(41.000000) translate(-10.581333, -32.778634) translate(-14.418667, 5.778634)">
            <path d="M31.2521815,50.0911773 L2.97391899,17.5717653 C-0.770093568,13.2121552 -0.265817416,6.58139954 4.09379264,2.83643552 C8.45340266,-0.907576949 15.0841583,-0.403300894 18.8281709,3.95630916 L47.1064334,36.4747698 C50.8513974,40.8353313 50.3471213,47.466087 45.9875112,51.2100995 C41.6279012,54.9541121 34.9971455,54.4507874 31.2521815,50.0911773 Z" id="Fill-12" fill="#FFD5BA"></path>
            <path d="M45.3669661,48.6606506 L43.5610866,50.2115376 C40.5839544,52.769074 36.0549837,52.4246439 33.4983987,49.4475117 L33.3728054,49.3009861 C30.8162205,46.3238539 31.1596991,41.7958347 34.1377828,39.2382982 L35.9436623,37.6874112 C38.9207946,35.1308263 43.4488138,35.4743049 46.0063502,38.4523886 L46.1309921,38.5979627 C48.6885285,41.5750949 48.3440983,46.1040656 45.3669661,48.6606506" id="Fill-14" fill="#FDEFEC"></path>
            <path d="M46.1793265,44.2584149 L39.0871105,50.3496902 C37.4981649,51.7131388 35.0833482,51.5295061 33.7198997,49.941512 L30.7028059,46.4287053 C29.3384059,44.8407111 29.5220386,42.4258944 31.1100327,41.0614944 L38.2032001,34.9702191 C39.7911942,33.6067705 42.206011,33.7904032 43.5694595,35.3783973 L46.5865532,38.891204 C47.9509532,40.4791982 47.7673206,42.8949664 46.1793265,44.2584149" id="Fill-16" fill="#F4E6E2"></path>
            <path d="M46.1793265,44.2584149 L39.0871105,50.3496902 C37.4981649,51.7131388 35.0833482,51.5295061 33.7198997,49.941512 L30.7028059,46.4287053 C29.3384059,44.8407111 29.5220386,42.4258944 31.1100327,41.0614944 L38.2032001,34.9702191 C39.7911942,33.6067705 42.206011,33.7904032 43.5694595,35.3783973 L46.5865532,38.891204 C47.9509532,40.4791982 47.7673206,42.8949664 46.1793265,44.2584149" id="Fill-18" fill="#FDEFEC"></path>
            <path d="M40.8239116,41.3780517 C42.988413,39.5192709 43.5333489,37.0591528 42.5436878,34.5365216 C41.5296831,34.07728 40.0808105,33.7278906 38.4270077,34.7859047 L30.7879762,41.3780518 C29.837622,42.1947623 29.5634485,44.0531721 29.9482381,45.0542059 C32.2926779,46.413352 35.4417669,46.082633 37.6062683,44.2238521 L40.8239116,41.3780517 Z" id="Fill-1" fill="#FEFEFE"></path>
        </g>
    </g>
</svg>