<?xml version="1.0" encoding="UTF-8" standalone="no"?>
<!-- TODO(jrochest) Figure out a means of pulling out the extra inkscape tags -->
<svg
   xmlns:dc="http://purl.org/dc/elements/1.1/"
   xmlns:cc="http://creativecommons.org/ns#"
   xmlns:rdf="http://www.w3.org/1999/02/22-rdf-syntax-ns#"
   xmlns:svg="http://www.w3.org/2000/svg"
   xmlns="http://www.w3.org/2000/svg"
   xmlns:xlink="http://www.w3.org/1999/xlink"
   xmlns:sodipodi="http://sodipodi.sourceforge.net/DTD/sodipodi-0.dtd"
   xmlns:inkscape="http://www.inkscape.org/namespaces/inkscape"
   width="252px"
   height="251px"
   viewBox="0 0 252 251"
   version="1.1"
   id="svg3512"
   inkscape:version="0.91 r13725"
   sodipodi:docname="hand.svg">
  <metadata
     id="metadata3573">
    <rdf:RDF>
      <cc:Work
         rdf:about="">
        <dc:format>image/svg+xml</dc:format>
        <dc:type
           rdf:resource="http://purl.org/dc/dcmitype/StillImage" />
        <dc:title>hand</dc:title>
      </cc:Work>
    </rdf:RDF>
  </metadata>
  <sodipodi:namedview
     pagecolor="#ff2eff"
     bordercolor="#666666"
     borderopacity="1"
     objecttolerance="10"
     gridtolerance="10"
     guidetolerance="10"
     inkscape:pageopacity="0"
     inkscape:pageshadow="2"
     inkscape:window-width="1382"
     inkscape:window-height="826"
     id="namedview3571"
     showgrid="false"
     inkscape:zoom="20.015936"
     inkscape:cx="58.919527"
     inkscape:cy="227.89139"
     inkscape:window-x="0"
     inkscape:window-y="0"
     inkscape:window-maximized="0"
     inkscape:current-layer="Page-1" />
  <!-- Generator: Sketch 3.8.1 (29687) - http://www.bohemiancoding.com/sketch -->
  <title
     id="title3514">hand</title>
  <desc
     id="desc3516">Created with Sketch.</desc>
  <defs
     id="defs3518">
    <path
       d="M71.8405,218.4413 L108.1735,230.4413 L136.5075,225.7743 L257.1735,358.7743 L256.1735,375.1083 L116.5075,247.7743 L88.0075,239.2743 L47.3405,210.6083 C47.3405,210.6083 60.7664423,212.123054 76.0151368,212.6913 C85.3585191,213.039483 93.0000001,213.385254 105.5905,212.6913 L71.8405,218.4413 Z"
       id="path-1" />
    <pattern
       id="pattern-2"
       width="512"
       height="512"
       x="-464.6595"
       y="-301.3917"
       patternUnits="userSpaceOnUse">
      <use
         xlink:href="#image-3"
         id="use3522" />
    </pattern>
    <path
       d="M13.4515369,27.2623134 C13.0536255,25.8143677 13.4874315,24.1952577 14.697,23.156 L22.152,16.754 C22.903,16.11 23.83,15.794 24.754,15.794 C25.1780431,15.794 25.6012382,15.8605614 26.0062134,15.9924093 L26.0062134,27.2623134 L13.4515369,27.2623134 L13.4515369,27.2623134 Z"
       id="path-4" />
    <path
       d="M14.821689,30.8435051 C14.1110276,29.2671395 14.4841395,27.3379223 15.859,26.159 L25.022,18.289 C25.773,17.644 26.7,17.328 27.624,17.328 C28.2240799,17.328 28.8224617,17.4615801 29.3699134,17.7246754 L29.3699134,30.8435051 L14.821689,30.8435051 L14.821689,30.8435051 Z"
       id="path-6" />
    <path
       d="M16.4320133,32.9824139 C15.5403216,31.3612261 15.8734294,29.2684992 17.329,28.018 L27.316,19.441 C28.068,18.796 28.995,18.48 29.919,18.48 C30.6072659,18.48 31.2932981,18.6553538 31.9028134,19.0008367 L31.9028134,32.9824139 L16.4320133,32.9824139 L16.4320133,32.9824139 Z"
       id="path-8" />
  </defs>
  <g
     id="Page-1"
     stroke="none"
     stroke-width="1"
     fill="none"
     fill-rule="evenodd">
    <g
       id="hand">
      <path
         d="M162.1667,62 L189.1667,155 L189.1667,196.5 L259.4997,258.667 L258.6667,342 L255.6667,374 L116.1667,247 L87.6667,238.5 L46.9997,209.833 C46.9997,209.833 61.2497,211.417 77.4167,211.917 C89.6627,212.295 104.3647,211.91 105.2497,211.917 L105.2687,211.85 C105.5977,210.298 111.5057,183.13 123.1667,164.667 C135.1667,145.667 152.6667,135.5 152.6667,135.5 L143.8337,94.333 C143.8337,94.333 138.1667,68 162.1667,62"
         id="Fill-1"
         fill="#FFD5BA" />
      <g
         id="Fill-48">
        <use
           xlink:href="#path-1"
           id="use3531"
           fill="#F8C3A6" />
        <use
           xlink:href="#path-1"
           id="use3533"
           fill-opacity="0.00635494403"
           fill="url(#pattern-2)" />
      </g>
      <path
         d="M162.5071,62.7747 C162.5071,62.7747 157.1741,62.1077 154.5071,67.4417 C151.8401,72.7747 157.1741,87.4417 157.1741,87.4417 C157.1741,87.4417 157.5071,88.7747 159.5071,88.7747 C161.5071,88.7747 169.1741,86.1077 169.1741,86.1077 C169.1741,86.1077 168.1741,74.4417 162.5071,62.7747"
         id="Fill-51"
         fill="#FDEFEC" />
      <path
         d="M55.1325,98.6424 L52.7965,100.6484 C47.9985,104.7694 40.7015,104.2144 36.5805,99.4164 L12.8845,71.8234 C8.7635,67.0254 9.3175,59.7274 14.1155,55.6074 L16.4515,53.6014 C21.2495,49.4804 28.5475,50.0344 32.6685,54.8334 L56.3645,82.4254 C60.4855,87.2244 59.9305,94.5214 55.1325,98.6424 L55.1325,98.6424 Z"
         id="path3536"
         fill="#F8C3A6" />
      <path
         d="M34.6738,77.3297 L34.6738,77.3297 C33.6658,77.3297 32.8408,76.5047 32.8408,75.4967 L32.8408,63.5247 C32.8408,62.5167 33.6658,61.6917 34.6738,61.6917 L34.6738,61.6917 C35.6818,61.6917 36.5068,62.5167 36.5068,63.5247 L36.5068,75.4967 C36.5068,76.5047 35.6818,77.3297 34.6738,77.3297"
         id="Fill-3"
         fill="#FFFFFF" />
      <path
         d="M34.6738,59.3297 L34.6738,59.3297 C33.6658,59.3297 32.8408,58.5047 32.8408,57.4967 L32.8408,45.5247 C32.8408,44.5167 33.6658,43.6917 34.6738,43.6917 L34.6738,43.6917 C35.6818,43.6917 36.5068,44.5167 36.5068,45.5247 L36.5068,57.4967 C36.5068,58.5047 35.6818,59.3297 34.6738,59.3297"
         id="Fill-3-Copy"
         fill="#FFFFFF" />
      <path
         d="m 143.3815,47.6069 0.858,0 c 0.096,0 0.174,-13.65 0.174,-13.65 0,-0.094 -1.032,-0.17 -1.032,-0.17 l 0,-16.038 c -0.002,-0.167 0.082,-2.728 -1.454,-4.48 -1.536,-1.752 -2.904,-2.061 -2.904,-2.061 -0.696,-0.303 -1.874,-0.65 -2.614,-0.816 0,0 -2.171,-0.578 -8.362,-1.404 -3.684,-0.492 -9.476,-1.011 -12.854,-1.188 -3.787,-0.199 -8.8,-0.574 -13.635,-0.709 -5.475,-0.153 -10.562,-0.072 -12.161,-0.04 -1.599,-0.032 -6.687,-0.113 -12.161,0.04 -4.835,0.135 -9.848,0.51 -13.635,0.709 -3.379,0.177 -9.171,0.696 -12.854,1.188 -6.191,0.826 -8.362,1.404 -8.362,1.404 -0.74,0.166 -1.918,0.513 -2.614,0.816 0,0 -1.368,0.309 -2.904,2.061 -1.536,1.752 -1.452,4.313 -1.452,4.313 -0.004,0.057 -0.002,184.67 -0.002,184.67 0.002,0.166 -0.082,2.728 1.454,4.48 1.536,1.752 2.904,2.061 2.904,2.061 0.696,0.303 1.874,0.65 2.614,0.816 0,0 2.171,0.577 8.362,1.404 3.683,0.492 9.475,1.011 12.854,1.188 3.787,0.199 8.8,0.574 13.635,0.709 5.474,0.153 10.562,0.072 12.161,0.04 1.599,0.032 6.686,0.113 12.161,-0.04 4.835,-0.135 9.848,-0.51 13.635,-0.709 3.378,-0.177 9.17,-0.696 12.854,-1.188 6.191,-0.827 8.362,-1.404 8.362,-1.404 0.74,-0.166 1.918,-0.513 2.614,-0.816 0,0 1.368,-0.309 2.904,-2.061 1.536,-1.752 1.452,-4.314 1.452,-4.314 0.003,-0.056 0.002,-154.811 0.002,-154.811 z"
         id="Fill-7"
         inkscape:connector-curvature="0"
         style="fill:#ffffff"
         sodipodi:nodetypes="cscccscccccccccccsccsccsccccccccsccc" />
      <polygon
         id="Path-Copy"
         points="40.0445 189.2149 138.5795 189.2149 138.5795 25.6439 40.0445 25.6439"
         fill="#263238" />
      <polygon
         id="Path"
         points="40.0445 189.2149 138.5795 189.2149 138.5795 25.6439 40.0445 25.6439"
         fill="#263238"
         style="stroke:none" />
      <g
         id="Group-23"
         transform="translate(8.000000, 168.108000)">
        <path
           d="M30.3334,33.8224 L30.3334,33.8224 C25.7514,37.7574 18.7824,37.2284 14.8464,32.6464 L3.2324,19.1224 C-0.7026,14.5404 -0.1726,7.5714 4.4094,3.6354 L4.4094,3.6354 C8.9914,-0.2996 15.9604,0.2304 19.8954,4.8124 L31.5094,18.3354 C35.4454,22.9184 34.9154,29.8874 30.3334,33.8224"
           id="Fill-12"
           fill="#FFD5BA" />
        <path
           d="M29.6812,31.1429 L27.7832,32.7729 C24.6542,35.4609 19.8942,35.0989 17.2072,31.9699 L17.0752,31.8159 C14.3882,28.6869 14.7492,23.9279 17.8792,21.2399 L19.7772,19.6099 C22.9062,16.9229 27.6652,17.2839 30.3532,20.4139 L30.4842,20.5669 C33.1722,23.6959 32.8102,28.4559 29.6812,31.1429"
           id="Fill-14"
           fill="#FDEFEC" />
        <path
           d="M30.535,26.5161 L23.081,32.9181 C21.411,34.3511 18.873,34.1581 17.44,32.4891 L14.269,28.7971 C12.835,27.1281 13.028,24.5901 14.697,23.1561 L22.152,16.7541 C23.821,15.3211 26.359,15.5141 27.792,17.1831 L30.963,20.8751 C32.397,22.5441 32.204,25.0831 30.535,26.5161"
           id="Fill-16"
           fill="#F4E6E2" />
        <path
           d="M30.535,26.5161 L23.081,32.9181 C21.411,34.3511 18.873,34.1581 17.44,32.4891 L14.269,28.7971 C12.835,27.1281 13.028,24.5901 14.697,23.1561 L22.152,16.7541 C23.821,15.3211 26.359,15.5141 27.792,17.1831 L30.963,20.8751 C32.397,22.5441 32.204,25.0831 30.535,26.5161"
           id="Fill-18"
           fill="#FDEFEC" />
      </g>
      <g
         id="Group-34"
         transform="translate(7.000000, 131.108000)">
        <path
           d="M34.514,37.2762 L33.194,38.4102 C28.396,42.5302 21.098,41.9762 16.977,37.1782 L2.762,20.6252 C-1.359,15.8272 -0.804,8.5292 3.994,4.4082 L5.314,3.2752 C10.112,-0.8458 17.41,-0.2918 21.531,4.5072 L35.746,21.0592 C39.867,25.8582 39.312,33.1552 34.514,37.2762"
           id="Fill-24"
           fill="#FFD5BA" />
        <path
           d="M33.8384,34.2074 L30.2624,37.2784 C27.1334,39.9654 22.3734,39.6044 19.6864,36.4754 L18.3034,34.8644 C15.6154,31.7354 15.9774,26.9754 19.1064,24.2884 L22.6824,21.2174 C25.8124,18.5294 30.5714,18.8914 33.2584,22.0204 L34.6414,23.6314 C37.3294,26.7604 36.9674,31.5204 33.8384,34.2074"
           id="Fill-27"
           fill="#FDEFEC" />
        <path
           d="M34.4645,29.2841 L25.3015,37.1531 C23.6325,38.5871 21.0935,38.3941 19.6605,36.7251 L15.4305,31.7991 C13.9965,30.1301 14.1895,27.5921 15.8585,26.1581 L25.0215,18.2891 C26.6915,16.8561 29.2295,17.0481 30.6625,18.7171 L34.8925,23.6431 C36.3265,25.3121 36.1335,27.8511 34.4645,29.2841"
           id="Fill-29"
           fill="#FDEFEC" />
      </g>
      <g
         id="Group-44"
         transform="translate(10.000000, 94.108000)">
        <path
           d="M37.6304,39.1909 L35.2944,41.1969 C30.4964,45.3179 23.1994,44.7629 19.0784,39.9649 L3.2834,21.5719 C-0.8376,16.7739 -0.2836,9.4769 4.5144,5.3559 L6.8504,3.3499 C11.6484,-0.7711 18.9464,-0.2161 23.0674,4.5819 L38.8624,22.9739 C42.9834,27.7729 42.4284,35.0699 37.6304,39.1909"
           id="Fill-35"
           fill="#FFD5BA" />
        <path
           d="M36.7541,36.0971 L32.3691,39.8631 C29.2391,42.5501 24.4801,42.1891 21.7931,39.0591 L19.8061,36.7461 C17.1181,33.6171 17.4801,28.8571 20.6091,26.1701 L24.9941,22.4041 C28.1241,19.7161 32.8831,20.0781 35.5711,23.2071 L37.5571,25.5211 C40.2451,28.6501 39.8831,33.4101 36.7541,36.0971"
           id="Fill-37"
           fill="#FDEFEC" />
        <path
           d="M37.2704,31.0308 L27.2824,39.6078 C25.6134,41.0418 23.0754,40.8488 21.6424,39.1798 L16.9004,33.6588 C15.4674,31.9898 15.6604,29.4518 17.3294,28.0178 L27.3174,19.4408 C28.9864,18.0078 31.5244,18.1998 32.9574,19.8688 L37.6984,25.3898 C39.1324,27.0588 38.9394,29.5978 37.2704,31.0308"
           id="Fill-39"
           fill="#FDEFEC" />
      </g>
    </g>
    <circle
       style="opacity:1;fill:#000000;fill-opacity:1;fill-rule:evenodd;stroke:#000000;stroke-width:1px;stroke-linecap:butt;stroke-linejoin:miter;stroke-opacity:1"
       id="path5215"
       cx="52.408241"
       cy="18.48527"
       r="0.44972134" />
  </g>
</svg>
