<?xml version="1.0" encoding="UTF-8" standalone="no"?>
<svg width="144px" height="144px" viewBox="0 0 144 144" version="1.1" xmlns="http://www.w3.org/2000/svg" xmlns:xlink="http://www.w3.org/1999/xlink" xmlns:sketch="http://www.bohemiancoding.com/sketch/ns">
    <!-- Generator: Sketch 3.4.4 (17249) - http://www.bohemiancoding.com/sketch -->
    <title>ic_empty_note</title>
    <desc>Created with Sketch.</desc>
    <defs></defs>
    <g id="Page-1" stroke="none" stroke-width="1" fill="none" fill-rule="evenodd" sketch:type="MSPage">
        <g id="ic_empty_note" sketch:type="MSArtboardGroup" fill="#616161">
            <path d="M78,54 L78,21 L111,54 L78,54 Z M90,94 L76,94 L76,108 L68,108 L68,94 L54,94 L54,86 L68,86 L68,72 L76,72 L76,86 L90,86 L90,94 Z M84,12 L36,12 C29.373,12 24.062,17.373 24.062,24 L24,120 C24,126.627 29.314,132 35.941,132 L108,132 C114.627,132 120,126.627 120,120 L120,48 L84,12 Z" id="Page-1" sketch:type="MSShapeGroup"></path>
        </g>
    </g>
</svg>