<?xml version="1.0" encoding="UTF-8"?>
<svg width="144px" height="144px" viewBox="0 0 144 144" version="1.1" xmlns="http://www.w3.org/2000/svg" xmlns:xlink="http://www.w3.org/1999/xlink">
    <!-- Generator: Sketch 49.1 (51147) - http://www.bohemiancoding.com/sketch -->
    <title>bookmark_empty</title>
    <desc>Created with Sketch.</desc>
    <defs></defs>
    <g id="bookmark_empty" stroke="none" stroke-width="1" fill="none" fill-rule="evenodd">
        <g id="ic_bookmark_border_24dp">
            <path d="M102,18 L42,18 C35.4,18 30.06,23.4 30.06,30 L30,126 L72,108 L114,126 L114,30 C114,23.4 108.6,18 102,18 Z M102,108 L72,94.92 L42,108 L42,30 L102,30 L102,108 Z" id="Shape" fill="#616161" fill-rule="nonzero"></path>
            <polygon id="Path" fill="#616161" points="76.5 42 67.5 42 67.5 55.5 54 55.5 54 64.5 67.5 64.5 67.5 78 76.5 78 76.5 64.5 90 64.5 90 55.5 76.5 55.5"></polygon>
            <polygon id="Shape" points="0 0 144 0 144 144 0 144"></polygon>
        </g>
    </g>
</svg>