<?xml version="1.0" encoding="UTF-8" standalone="no"?>
<svg width="144px" height="144px" viewBox="0 0 144 144" version="1.1" xmlns="http://www.w3.org/2000/svg" xmlns:xlink="http://www.w3.org/1999/xlink" xmlns:sketch="http://www.bohemiancoding.com/sketch/ns">
    <!-- Generator: Sketch 3.5.1 (25234) - http://www.bohemiancoding.com/sketch -->
    <title>ic_empty_search_144dp</title>
    <desc>Created with Sketch.</desc>
    <defs></defs>
    <g id="Page-1" stroke="none" stroke-width="1" fill="none" fill-rule="evenodd" sketch:type="MSPage">
        <g id="Books" sketch:type="MSArtboardGroup" transform="translate(-794.000000, -690.000000)">
            <g id="Header-&amp;-BG" sketch:type="MSLayerGroup" transform="translate(0.000000, 60.000000)"></g>
            <g id="TOC-Empty-States" sketch:type="MSLayerGroup" transform="translate(150.000000, 690.000000)" fill="#616161">
                <g id="ic_empty_search_144dp" transform="translate(644.000000, 0.000000)" sketch:type="MSShapeGroup">
                    <path d="M93,84 L88.23,84 L86.58,82.35 C92.46,75.54 96,66.69 96,57 C96,35.46 78.54,18 57,18 C35.46,18 18,35.46 18,57 C18,78.54 35.46,96 57,96 C66.69,96 75.54,92.46 82.35,86.61 L84,88.26 L84,93 L114,122.94 L122.94,114 L93,84 L93,84 Z M57,84 C42.09,84 30,71.91 30,57 C30,42.09 42.09,30 57,30 C71.91,30 84,42.09 84,57 C84,71.91 71.91,84 57,84 L57,84 Z" id="Shape"></path>
                </g>
            </g>
        </g>
    </g>
</svg>