<?xml version="1.0" encoding="UTF-8" standalone="no"?>
<svg width="40px" height="40px" viewBox="0 0 40 40" version="1.1" xmlns="http://www.w3.org/2000/svg" xmlns:xlink="http://www.w3.org/1999/xlink">
    <!-- Generator: Sketch 3.6 (26304) - http://www.bohemiancoding.com/sketch -->
    <title>ic_family_40dp</title>
    <desc>Created with Sketch.</desc>
    <defs></defs>
    <g id="Page-1" stroke="none" stroke-width="1" fill="none" fill-rule="evenodd">
        <g id="ic_family_40dp" fill="#039BE5">
            <path d="M20,40 C31.045695,40 40,31.045695 40,20 C40,8.954305 31.045695,0 20,0 C8.954305,0 0,8.954305 0,20 C0,31.045695 8.954305,40 20,40 Z M24.696472,21.9923529 L20,26.7647059 L15.303528,21.9923529 C14.808264,21.4782353 14.5,20.7852047 14.5,20.0141176 C14.5,18.4718541 15.732176,17.22 17.25,17.22 C18.00944,17.22 18.702352,17.5332094 19.196472,18.0472376 L20,18.8516753 L20.803528,18.0357929 C21.297648,17.5332094 21.99056,17.22 22.75,17.22 C24.267912,17.22 25.5,18.4718541 25.5,20.0141176 C25.5,20.7852047 25.191736,21.4891435 24.696472,21.9923529 Z M28,11 L25,11 L25,14.480011 L20,10 L9,20 L12,20 L12,29 L28,29 L28,20 L31,20 L28,17 L28,11 Z" id="Combined-Shape"></path>
        </g>
    </g>
</svg>