<?xml version="1.0" encoding="UTF-8" standalone="no"?>
<svg width="32px" height="31px" viewBox="0 0 32 31" version="1.1" xmlns="http://www.w3.org/2000/svg" xmlns:xlink="http://www.w3.org/1999/xlink">
    <!-- Generator: Sketch 3.6 (26304) - http://www.bohemiancoding.com/sketch -->
    <title>Literata</title>
    <desc>Created with Sketch.</desc>
    <defs></defs>
    <g id="Page-1" stroke="none" stroke-width="1" fill="none" fill-rule="evenodd">
        <path d="M23.2706258,26.35 C23.8463401,27.9 23.6249115,28.3871429 22.4291973,28.5642857 L19.8606258,28.8742857 L19.8606258,31 L31.6849115,31 L31.6849115,28.7857143 L29.8691973,28.4314286 C28.6291973,28.1214286 28.4963401,27.7228571 27.9206258,26.1728571 L18.6649115,0 L13.9706258,0 L4.62634012,26.1285714 C3.9620544,27.8557143 3.69634012,28.2985714 2.58919726,28.52 L0.463482974,28.8742857 L0.463482974,31 L11.1806258,31 L11.1806258,28.9185714 L8.65634012,28.5642857 C7.3720544,28.2985714 7.10634012,27.6785714 7.63776869,26.1728571 L9.49776869,20.77 L21.3663401,20.77 L23.2706258,26.35 Z M15.4320544,3.67571429 L15.6091973,3.67571429 L20.5249115,18.2457143 L10.383483,18.2457143 L15.4320544,3.67571429 Z" id="Literata" fill="#000000"></path>
    </g>
</svg>