<?xml version="1.0" encoding="UTF-8" standalone="no"?>
<svg width="35px" height="31px" viewBox="0 0 35 31" version="1.1" xmlns="http://www.w3.org/2000/svg" xmlns:xlink="http://www.w3.org/1999/xlink">
    <!-- Generator: Sketch 3.6 (26304) - http://www.bohemiancoding.com/sketch -->
    <title>Sorts Mill Goudy</title>
    <desc>Created with Sketch.</desc>
    <defs></defs>
    <g id="Page-1" stroke="none" stroke-width="1" fill="none" fill-rule="evenodd">
        <path d="M5.55548297,30.8296703 L1.77148297,31 C0.920812054,31 0.495482974,30.829672 0.495482974,30.489011 C0.495482974,30.0915731 0.715480774,29.8218872 1.15548297,29.6799451 C2.09415433,29.339284 2.91547945,28.5799052 3.61948297,27.4017857 C4.32348649,26.2236663 6.09080215,22.660973 8.92148297,16.7135989 C11.7521638,10.7662248 14.267472,5.52154286 16.467483,0.979395604 C16.6728173,0.553569299 16.8561488,0.283883352 17.017483,0.17032967 C17.1788171,0.056775989 17.4134814,0 17.721483,0 C18.0294845,0 18.2274825,0.056775989 18.315483,0.17032967 C18.4034834,0.283883352 18.5648151,0.667121277 18.799483,1.32005495 C19.0341508,1.97298861 19.2174823,2.46977852 19.349483,2.81043956 C19.4814836,3.1511006 19.6941482,3.7046665 19.987483,4.47115385 C20.2808178,5.2376412 20.7501464,6.38735497 21.395483,7.92032967 C22.0408195,9.45330437 23.5148048,12.8101847 25.817483,17.9910714 C28.1201612,23.1719581 29.4474812,26.1101156 29.799483,26.8056319 C30.1514847,27.5011482 30.6354799,28.0972961 31.251483,28.5940934 C31.8674861,29.0908908 32.402814,29.3605767 32.857483,29.4031593 C33.3121519,29.445742 33.6934814,29.516712 34.001483,29.6160714 C34.3094845,29.7154309 34.463483,29.9354379 34.463483,30.2760989 C34.463483,30.7019252 34.0674869,30.9148352 33.275483,30.9148352 L29.315483,30.6593407 L25.223483,30.8296703 C24.3141451,30.8296703 23.7348176,30.7941853 23.485483,30.7232143 C23.2361484,30.6522432 23.111483,30.5032063 23.111483,30.2760989 C23.111483,30.0489915 23.2288151,29.8715666 23.463483,29.7438187 C23.6981508,29.6160708 23.9474817,29.5309068 24.211483,29.4883242 C24.4754843,29.4457415 24.7248151,29.3179956 24.959483,29.1050824 C25.1941508,28.8921693 25.311483,28.5373193 25.311483,28.040522 C25.311483,27.5437246 24.94482,26.3301379 24.211483,24.3997253 C23.478146,22.4693127 22.8621521,21.049913 22.363483,20.1414835 C22.0994817,19.6588804 21.4981543,19.4175824 20.559483,19.4175824 L15.235483,19.5027473 L12.903483,19.5027473 C11.5834764,19.5027473 10.754818,19.5737172 10.417483,19.7156593 C10.080148,19.8576014 9.80148407,20.1556754 9.58148297,20.6098901 C9.36148187,21.0641048 9.04615169,21.6957377 8.63548297,22.5048077 C8.22481425,23.3138777 7.94615037,23.8745406 7.79948297,24.1868132 C7.65281557,24.4990858 7.47681733,24.8965177 7.27148297,25.3791209 C6.89014773,26.2307735 6.69948297,26.9404734 6.69948297,27.5082418 C6.69948297,28.0760102 6.86814795,28.5302181 7.20548297,28.8708791 C7.54281799,29.2115402 7.91681425,29.4102561 8.32748297,29.467033 C9.41282173,29.5521982 9.95548297,29.8218842 9.95548297,30.2760989 C9.95548297,30.4748178 9.91148341,30.6238548 9.82348297,30.7232143 C9.73548253,30.8225738 9.53015125,30.8722527 9.20748297,30.8722527 L5.55548297,30.8296703 Z M13.651483,11.638 C12.2434759,14.8793495 11.539483,16.6759982 11.539483,17.028 C11.539483,17.3800018 11.6714817,17.5999996 11.935483,17.688 C12.1994843,17.7760004 12.8154781,17.82 13.783483,17.82 L15.147483,17.82 L19.327483,17.776 C20.4714887,17.776 21.043483,17.5633355 21.043483,17.138 C21.043483,16.7126645 20.3248235,14.8793495 18.887483,11.638 C17.4501425,8.39665046 16.5408182,6.776 16.159483,6.776 C15.8954817,6.776 15.05949,8.39665046 13.651483,11.638 L13.651483,11.638 Z" id="Sorts-Mill-Goudy" fill="#212121"></path>
    </g>
</svg>