<?xml version="1.0" encoding="UTF-8" standalone="no"?>
<svg width="32px" height="31px" viewBox="0 0 32 31" version="1.1" xmlns="http://www.w3.org/2000/svg" xmlns:xlink="http://www.w3.org/1999/xlink">
    <!-- Generator: Sketch 3.6 (26304) - http://www.bohemiancoding.com/sketch -->
    <title>Georgia</title>
    <desc>Created with Sketch.</desc>
    <defs></defs>
    <g id="Page-1" stroke="none" stroke-width="1" fill="none" fill-rule="evenodd">
        <path d="M31.495483,31 L18.7637248,31 L18.7637248,29.4704656 C19.8839528,29.3986561 20.8138717,29.2550393 21.5535094,29.0396108 C22.2931471,28.8241824 22.6629604,28.5584913 22.6629604,28.2425295 C22.6629604,28.1132725 22.6485987,27.955294 22.6198749,27.7685893 C22.5911511,27.5818846 22.5480661,27.4167253 22.4906185,27.2731063 L19.9485754,20.4225156 L9.24183461,20.4225156 C8.83970149,21.4278484 8.51297323,22.303911 8.26164003,23.0507297 C8.01030683,23.7975483 7.78411034,24.486909 7.58304378,25.1188325 C7.39633912,25.7363941 7.26708398,26.239053 7.1952745,26.6268242 C7.12346501,27.0145954 7.08756081,27.3305524 7.08756081,27.5747047 C7.08756081,28.1491805 7.53995378,28.5943927 8.4447533,28.9103544 C9.34955282,29.2263162 10.3692322,29.413018 11.5038221,29.4704656 L11.5038221,31 L0,31 L0,29.4704656 C0.373409326,29.4417418 0.840163982,29.3591621 1.40027797,29.2227241 C1.96039196,29.0862861 2.41996577,28.9031746 2.7790132,28.6733843 C3.35348909,28.2856131 3.79870122,27.8798956 4.11466296,27.4562196 C4.4306247,27.0325436 4.73940085,26.4473051 5.04100069,25.7004864 C6.57772369,21.8658599 8.27240213,17.5573554 10.1250869,12.7748436 C11.9777716,7.99233189 13.629365,3.73409326 15.0799166,0 L16.8033356,0 L26.9930507,26.3683113 C27.2084792,26.9284253 27.4526278,27.3808183 27.7255038,27.7255038 C27.9983799,28.0701894 28.3789644,28.4076889 28.8672689,28.7380125 C29.1975926,28.9390791 29.628443,29.1078288 30.1598332,29.2442669 C30.6912234,29.3807049 31.1364355,29.4561037 31.495483,29.4704656 L31.495483,31 Z M19.1730368,18.505212 L14.5413482,6.65670605 L9.99583044,18.505212 L19.1730368,18.505212 Z" id="Georgia" fill="#212121"></path>
    </g>
</svg>