<?xml version="1.0" encoding="UTF-8" standalone="no"?>
<svg width="36px" height="36px" viewBox="0 0 36 36" version="1.1" xmlns="http://www.w3.org/2000/svg" xmlns:xlink="http://www.w3.org/1999/xlink">
    <!-- Generator: Sketch 3.6 (26304) - http://www.bohemiancoding.com/sketch -->
    <title>ic_family_36dp</title>
    <desc>Created with Sketch.</desc>
    <defs></defs>
    <g id="Page-1" stroke="none" stroke-width="1" fill="none" fill-rule="evenodd">
        <g id="ic_family_36dp" fill="#039BE5">
            <path d="M18,36 C27.9411255,36 36,27.9411255 36,18 C36,8.0588745 27.9411255,0 18,0 C8.0588745,0 0,8.0588745 0,18 C0,27.9411255 8.0588745,36 18,36 Z M22.696472,19.9923529 L18,24.7647059 L13.303528,19.9923529 C12.808264,19.4782353 12.5,18.7852047 12.5,18.0141176 C12.5,16.4718541 13.732176,15.22 15.25,15.22 C16.00944,15.22 16.702352,15.5332094 17.196472,16.0472376 L18,16.8516753 L18.803528,16.0357929 C19.297648,15.5332094 19.99056,15.22 20.75,15.22 C22.267912,15.22 23.5,16.4718541 23.5,18.0141176 C23.5,18.7852047 23.191736,19.4891435 22.696472,19.9923529 Z M26,9 L23,9 L23,12.480011 L18,8 L7,18 L10,18 L10,27 L26,27 L26,18 L29,18 L26,15 L26,9 Z" id="Combined-Shape"></path>
        </g>
    </g>
</svg>