<?xml version="1.0" encoding="UTF-8" standalone="no"?>
<svg width="30px" height="31px" viewBox="0 0 30 31" version="1.1" xmlns="http://www.w3.org/2000/svg" xmlns:xlink="http://www.w3.org/1999/xlink">
    <!-- Generator: Sketch 3.6 (26304) - http://www.bohemiancoding.com/sketch -->
    <title>Vollkorn</title>
    <desc>Created with Sketch.</desc>
    <defs></defs>
    <g id="Page-1" stroke="none" stroke-width="1" fill="none" fill-rule="evenodd">
        <path d="M13.6034593,0.181021898 C14.1163572,0.0603400292 14.7046725,0 15.3684228,0 L26.1392257,24.7094891 C26.5012713,25.5542621 26.825599,26.2481725 27.1122184,26.7912409 C27.3988379,27.3343093 27.670368,27.764232 27.926817,28.0810219 C28.1832659,28.3978118 28.4397111,28.6240869 28.69616,28.759854 C28.952609,28.8956211 29.2618516,28.9936737 29.6238972,29.0540146 C29.7445791,29.4462307 29.8200042,29.7781008 29.8501746,30.049635 C29.8803451,30.3211692 29.8954301,30.6379544 29.8954301,31 C29.6540664,31 29.3221962,30.9924575 28.8998097,30.9773723 C28.4774231,30.962287 28.0097879,30.9396595 27.4968899,30.9094891 L26.0034593,30.8642336 L24.736306,30.8642336 C24.3742604,30.8642336 23.9443377,30.8717761 23.446525,30.8868613 C22.9487123,30.9019465 22.4584495,30.9170316 21.9757221,30.9321168 C21.4929946,30.947202 21.0329019,30.962287 20.5954301,30.9773723 C20.1579583,30.9924575 19.8336307,31 19.6224374,31 C19.6224374,30.6379544 19.6375224,30.2909992 19.6676929,29.9591241 C19.6978633,29.6272489 19.7883734,29.3255488 19.9392257,29.0540146 C20.5728055,28.9936737 21.0630683,28.9031636 21.4100286,28.7824818 C21.756989,28.6617999 21.9908066,28.4732373 22.1114885,28.2167883 C22.2321704,27.9603394 22.2472554,27.6209267 22.156744,27.1985401 C22.0662326,26.7761536 21.8701275,26.2180083 21.5684228,25.5240876 L19.5771819,20.9080292 C17.6161016,20.9080292 15.5494556,20.9231142 13.3771819,20.9532847 C11.2954197,20.9834551 9.36453875,21.0287102 7.58448119,21.0890511 L6.40783885,24.2116788 C5.71391811,25.9917364 5.50272801,27.2211645 5.77426221,27.9 C6.04579642,28.5788355 6.80004678,28.9635032 8.03703593,29.0540146 C8.2482292,29.5669125 8.35382425,30.2155679 8.35382425,31 C7.84092631,30.9396591 7.1847285,30.9019465 6.38521112,30.8868613 C5.58569374,30.8717761 4.80881586,30.8642336 4.05455418,30.8642336 C3.3002925,30.8642336 2.59129716,30.8793186 1.92754688,30.9094891 C1.26379661,30.9396595 0.720736343,30.9698295 0.298349802,31 C0.298349802,30.6982953 0.320977313,30.3739677 0.366233014,30.0270073 C0.411488715,29.6800469 0.494456255,29.3708043 0.615138124,29.0992701 C1.0073542,29.0087587 1.35430936,28.8729936 1.65601404,28.6919708 C1.95771871,28.510948 2.24433385,28.2394179 2.51586805,27.8773723 C2.78740225,27.5153267 3.05138988,27.0401489 3.30783885,26.4518248 C3.56428782,25.8635007 3.87353047,25.1167928 4.23557608,24.2116788 L13.6034593,0.181021898 Z M8.4443352,18.8715328 L18.7173279,18.8715328 L15.2779118,10.8160584 C15.0667186,10.3635014 14.878156,9.94112118 14.7122184,9.54890511 C14.5462808,9.15668904 14.3803458,8.75693634 14.2144082,8.34963504 C14.0484706,7.94233373 13.874993,7.52749603 13.6939702,7.10510949 C13.5732884,6.74306388 13.4224383,6.35085369 13.2414155,5.92846715 C12.9397108,6.92409257 12.6530957,7.78393799 12.3815615,8.5080292 C12.1100273,9.29246134 11.8384971,10.0467117 11.5669629,10.7708029 L8.4443352,18.8715328 Z" id="Vollkorn" fill="#212121"></path>
    </g>
</svg>