<?xml version="1.0" encoding="UTF-8" standalone="no"?>
<svg width="132px" height="114px" viewBox="0 0 22 19" version="1.1"
     xmlns="http://www.w3.org/2000/svg" xmlns:xlink="http://www.w3.org/1999/xlink">
    <title>ic_family_library</title>
    <desc>Scaled from raw/ic_family_36dp.svg</desc>
    <defs></defs>
    <g id="Page-1" stroke="none" stroke-width="1" fill="none" fill-rule="evenodd">
        <g id="ic_family_library" fill="#ffffff">
            <path d="M15.696472,11.9923529 L11,16.7647059 L6.303528,11.9923529 C5.808264,11.4782353 5.5,10.7852047 5.5,10.0141176 C5.5,8.4718541 6.732176,7.22 8.25,7.22 C9.00944,7.22 9.702352,7.5332094 10.196472,8.0472376 L11,8.8516753 L11.803528,8.0357929 C12.297648,7.5332094 12.99056,7.22 13.75,7.22 C15.267912,7.22 16.5,8.4718541 16.5,10.0141176 C16.5,10.7852047 16.191736,11.4891435 15.696472,11.9923529 Z M19,1 L16,1 L16,4.480011 L11,0 L0,10 L3,10 L3,19 L19,19 L19,10 L22,10 L19,7 L19,1 Z" id="Combined-Shape"></path>
        </g>
    </g>
</svg>