<?xml version="1.0" encoding="UTF-8" standalone="no"?>
<svg width="96px" height="96px" viewBox="0 0 96 96" version="1.1" xmlns="http://www.w3.org/2000/svg" xmlns:xlink="http://www.w3.org/1999/xlink" xmlns:sketch="http://www.bohemiancoding.com/sketch/ns">
    <!-- Generator: Sketch 3.5.2 (25235) - http://www.bohemiancoding.com/sketch -->
    <title>ic_link_my_library_96dp</title>
    <desc>Created with Sketch.</desc>
    <defs></defs>
    <g id="Page-1" stroke="none" stroke-width="1" fill="none" fill-rule="evenodd" sketch:type="MSPage">
        <g id="Books" sketch:type="MSArtboardGroup" transform="translate(-486.000000, -1316.000000)">
            <g id="Header-&amp;-BG" sketch:type="MSLayerGroup" transform="translate(0.000000, 60.000000)"></g>
            <g id="Shelf" sketch:type="MSLayerGroup" transform="translate(150.000000, 1316.000000)" fill="#616161">
                <g id="ic_link_my_library_96dp" transform="translate(336.000000, 0.000000)" sketch:type="MSShapeGroup">
                    <path d="M48,96 C74.509668,96 96,74.509668 96,48 C96,21.490332 74.509668,0 48,0 C21.490332,0 0,21.490332 0,48 C0,74.509668 21.490332,96 48,96 Z M28.8,33.6 L24,33.6 L24,67.2 C24,69.852 26.148,72 28.8,72 L62.4,72 L62.4,67.2 L28.8,67.2 L28.8,33.6 Z M67.2,24 L38.4,24 C35.748,24 33.6,26.148 33.6,28.8 L33.6,57.6 C33.6,60.252 35.748,62.4 38.4,62.4 L67.2,62.4 C69.852,62.4 72,60.252 72,57.6 L72,28.8 C72,26.148 69.852,24 67.2,24 Z M64.8,45.6 L40.8,45.6 L40.8,40.8 L64.8,40.8 L64.8,45.6 Z M55.2,55.2 L40.8,55.2 L40.8,50.4 L55.2,50.4 L55.2,55.2 Z M64.8,36 L40.8,36 L40.8,31.2 L64.8,31.2 L64.8,36 Z" id="Oval-22"></path>
                </g>
            </g>
        </g>
    </g>
</svg>