<?xml version="1.0" encoding="UTF-8" standalone="no"?>
<svg width="24px" height="24px" viewBox="0 0 24 24" version="1.1" xmlns="http://www.w3.org/2000/svg" xmlns:xlink="http://www.w3.org/1999/xlink" xmlns:sketch="http://www.bohemiancoding.com/sketch/ns">
    <!-- Generator: Sketch 3.5.2 (25235) - http://www.bohemiancoding.com/sketch -->
    <title>ic_note_add_24dp</title>
    <desc>Created with Sketch.</desc>
    <defs></defs>
    <g id="Page-1" stroke="none" stroke-width="1" fill="none" fill-rule="evenodd" sketch:type="MSPage">
        <g id="Books" sketch:type="MSArtboardGroup" transform="translate(-554.000000, -434.000000)">
            <g id="Header-&amp;-BG" sketch:type="MSLayerGroup" transform="translate(0.000000, 60.000000)"></g>
            <g id="RDR" sketch:type="MSLayerGroup" transform="translate(150.000000, 394.000000)" fill="#616161">
                <g id="ic_note_add_24dp" transform="translate(404.000000, 40.000000)" sketch:type="MSShapeGroup">
                    <path d="M14,2 L6,2 C4.9,2 4.01,2.9 4.01,4 L4,20 C4,21.1 4.89,22 5.99,22 L18,22 C19.1,22 20,21.1 20,20 L20,8 L14,2 L14,2 Z M16,16 L13,16 L13,19 L11,19 L11,16 L8,16 L8,14 L11,14 L11,11 L13,11 L13,14 L16,14 L16,16 L16,16 Z M13,9 L13,3.5 L18.5,9 L13,9 L13,9 Z" id="Shape"></path>
                </g>
            </g>
        </g>
    </g>
</svg>