<?xml version="1.0" encoding="UTF-8" standalone="no"?>
<svg width="24px" height="24px" viewBox="0 0 24 24" version="1.1" xmlns="http://www.w3.org/2000/svg" xmlns:xlink="http://www.w3.org/1999/xlink" xmlns:sketch="http://www.bohemiancoding.com/sketch/ns">
    <!-- Generator: Sketch 3.5.1 (25234) - http://www.bohemiancoding.com/sketch -->
    <title>ic_settings_lineheight_smaller_24dp</title>
    <desc>Created with Sketch.</desc>
    <defs></defs>
    <g id="Page-1" stroke="none" stroke-width="1" fill="none" fill-rule="evenodd" sketch:type="MSPage">
        <g id="Books" sketch:type="MSArtboardGroup" transform="translate(-494.000000, -600.000000)">
            <g id="Header-&amp;-BG" sketch:type="MSLayerGroup" transform="translate(0.000000, 60.000000)"></g>
            <g id="Display" sketch:type="MSLayerGroup" transform="translate(150.000000, 563.000000)" fill="#616161">
                <g id="ic_settings_lineheight_smaller_24dp" transform="translate(344.000000, 37.000000)" sketch:type="MSShapeGroup">
                    <path d="M10,19 L22,19 L22,17 L10,17 L10,19 Z M8.5,15.996 L5,12.496 L1.5,15.996 L4,15.996 L4,20 L6,20 L6,15.996 L8.5,15.996 Z M10,11 L22,11 L22,9 L10,9 L10,11 Z M10,7 L22,7 L22,5 L10,5 L10,7 Z M10,15 L22,15 L22,13 L10,13 L10,15 Z M4,7.996 L1.5,7.996 L5,11.496 L8.5,7.996 L6,7.996 L6,4 L4,4 L4,7.996 Z" id="Fill-5"></path>
                </g>
            </g>
        </g>
    </g>
</svg>