<?xml version="1.0" encoding="UTF-8" standalone="no"?>
<svg width="24px" height="24px" viewBox="0 0 24 24" version="1.1" xmlns="http://www.w3.org/2000/svg" xmlns:xlink="http://www.w3.org/1999/xlink" xmlns:sketch="http://www.bohemiancoding.com/sketch/ns">
    <!-- Generator: Sketch 3.5.1 (25234) - http://www.bohemiancoding.com/sketch -->
    <title>ic_settings_alignment_left_holo_24dp</title>
    <desc>Created with Sketch.</desc>
    <defs></defs>
    <g id="Page-1" stroke="none" stroke-width="1" fill="none" fill-rule="evenodd" sketch:type="MSPage">
        <g id="Books" sketch:type="MSArtboardGroup" transform="translate(-584.000000, -600.000000)">
            <g id="Header-&amp;-BG" sketch:type="MSLayerGroup" transform="translate(0.000000, 60.000000)"></g>
            <g id="Display" sketch:type="MSLayerGroup" transform="translate(150.000000, 563.000000)" fill="#616161">
                <g id="ic_settings_alignment_left_holo_24dp" transform="translate(434.000000, 37.000000)" sketch:type="MSShapeGroup">
                    <path d="M15,15 L3,15 L3,17 L15,17 L15,15 L15,15 Z M15,7 L3,7 L3,9 L15,9 L15,7 L15,7 Z M3,13 L21,13 L21,11 L3,11 L3,13 L3,13 Z M3,21 L21,21 L21,19 L3,19 L3,21 L3,21 Z M3,3 L3,5 L21,5 L21,3 L3,3 L3,3 Z" id="Shape"></path>
                </g>
            </g>
        </g>
    </g>
</svg>