<?xml version="1.0" encoding="UTF-8" standalone="no"?>
<svg width="24px" height="24px" viewBox="0 0 24 24" version="1.1" xmlns="http://www.w3.org/2000/svg" xmlns:xlink="http://www.w3.org/1999/xlink" xmlns:sketch="http://www.bohemiancoding.com/sketch/ns">
    <!-- Generator: Sketch 3.5.1 (25234) - http://www.bohemiancoding.com/sketch -->
    <title>ic_settings_pages_two_holo_24dp</title>
    <desc>Created with Sketch.</desc>
    <defs></defs>
    <g id="Page-1" stroke="none" stroke-width="1" fill="none" fill-rule="evenodd" sketch:type="MSPage">
        <g id="Books" sketch:type="MSArtboardGroup" transform="translate(-734.000000, -600.000000)">
            <g id="Header-&amp;-BG" sketch:type="MSLayerGroup" transform="translate(0.000000, 60.000000)"></g>
            <g id="Display" sketch:type="MSLayerGroup" transform="translate(150.000000, 563.000000)" fill="#616161">
                <g id="ic_settings_pages_two_holo_24dp" transform="translate(584.000000, 37.000000)" sketch:type="MSShapeGroup">
                    <path d="M0,21 L24,21 L24,3 L0,3 L0,21 Z M2,5 L22,5 L22,18.999 L2,18.999 L2,5 Z" id="Fill-1"></path>
                    <path d="M3,14 L10,14 L10,13 L3,13 L3,14 Z M13,20 L11,20 L11,4 L13,4 L13,20 Z M3,17 L10,17 L10,16 L3,16 L3,17 Z M3,8 L10,8 L10,7 L3,7 L3,8 Z M3,11 L10,11 L10,9.999 L3,9.999 L3,11 Z M13.999,14 L20.999,14 L20.999,13 L13.999,13 L13.999,14 Z M13.999,17 L20.999,17 L20.999,16 L13.999,16 L13.999,17 Z M14,8 L20.999,8 L20.999,7 L14,7 L14,8 Z M14,11 L20.999,11 L20.999,9.999 L14,9.999 L14,11 Z" id="Fill-3"></path>
                </g>
            </g>
        </g>
    </g>
</svg>