<?xml version="1.0" encoding="UTF-8" standalone="no"?>
<svg width="24px" height="24px" viewBox="0 0 24 24" version="1.1" xmlns="http://www.w3.org/2000/svg" xmlns:xlink="http://www.w3.org/1999/xlink" xmlns:sketch="http://www.bohemiancoding.com/sketch/ns">
    <!-- Generator: Sketch 3.5.1 (25234) - http://www.bohemiancoding.com/sketch -->
    <title>ic_settings_lineheight_larger_24dp</title>
    <desc>Created with Sketch.</desc>
    <defs></defs>
    <g id="Page-1" stroke="none" stroke-width="1" fill="none" fill-rule="evenodd" sketch:type="MSPage">
        <g id="Books" sketch:type="MSArtboardGroup" transform="translate(-524.000000, -600.000000)">
            <g id="Header-&amp;-BG" sketch:type="MSLayerGroup" transform="translate(0.000000, 60.000000)"></g>
            <g id="Display" sketch:type="MSLayerGroup" transform="translate(150.000000, 563.000000)" fill="#616161">
                <g id="ic_settings_lineheight_larger_24dp" transform="translate(374.000000, 37.000000)" sketch:type="MSShapeGroup">
                    <path d="M5,3.5 L1.5,7 L4,7 L4,17 L1.5,17 L5,20.5 L8.5,17 L6,17 L6,7 L8.5,7 L5,3.5 Z M9.999,7 L22,7 L22,5 L9.999,5 L9.999,7 Z M9.999,13 L22,13 L22,10.999 L9.999,10.999 L9.999,13 Z M9.999,19 L22,19 L22,17 L9.999,17 L9.999,19 Z" id="Page-1"></path>
                </g>
            </g>
        </g>
    </g>
</svg>