<?xml version="1.0" encoding="UTF-8" standalone="no"?>
<svg width="24px" height="24px" viewBox="0 0 24 24" version="1.1" xmlns="http://www.w3.org/2000/svg" xmlns:xlink="http://www.w3.org/1999/xlink" xmlns:sketch="http://www.bohemiancoding.com/sketch/ns">
    <!-- Generator: Sketch 3.5.2 (25235) - http://www.bohemiancoding.com/sketch -->
    <title>ic_settings_brightness_auto_on_holo_24dp</title>
    <desc>Created with Sketch.</desc>
    <defs></defs>
    <g id="Page-1" stroke="none" stroke-width="1" fill="none" fill-rule="evenodd" sketch:type="MSPage">
        <g id="Books" sketch:type="MSArtboardGroup" transform="translate(-674.000000, -600.000000)">
            <g id="Header-&amp;-BG" sketch:type="MSLayerGroup" transform="translate(0.000000, 60.000000)"></g>
            <g id="Display" sketch:type="MSLayerGroup" transform="translate(150.000000, 563.000000)" fill="#616161">
                <g id="ic_settings_brightness_auto_on_holo_24dp" transform="translate(524.000000, 37.000000)" sketch:type="MSShapeGroup">
                    <path d="M10.85,12.65 L13.15,12.65 L12,9 L10.85,12.65 L10.85,12.65 Z M20,8.69 L20,4 L15.31,4 L12,0.69 L8.69,4 L4,4 L4,8.69 L0.69,12 L4,15.31 L4,20 L8.69,20 L12,23.31 L15.31,20 L20,20 L20,15.31 L23.31,12 L20,8.69 L20,8.69 Z M14.3,16 L13.6,14 L10.4,14 L9.7,16 L7.8,16 L11,7 L13,7 L16.2,16 L14.3,16 L14.3,16 Z" id="Shape"></path>
                </g>
            </g>
        </g>
    </g>
</svg>