<svg xmlns="http://www.w3.org/2000/svg" width="24" height="24" viewBox="0 0 24 24">
  <g fill-rule="evenodd">
    <path d="M10.7490234 15.6894531L5.24121094 15.6894531 4.08886719 19 1.52050781 19 6.89160156 4.78125 9.10839844 4.78125 14.4892578 19 11.9111328 19 10.7490234 15.6894531zM5.93457031 13.6972656L10.0556641 13.6972656 7.99511719 7.79882812 5.93457031 13.6972656zM20.4072266 19C20.3134761 18.8183585 20.2314457 18.522463 20.1611328 18.1123047 19.4814419 18.8212926 18.649419 19.1757812 17.6650391 19.1757812 16.7099562 19.1757812 15.9306671 18.903323 15.3271484 18.3583984 14.7236298 17.8134738 14.421875 17.1396525 14.421875 16.3369141 14.421875 15.3232371 14.7983361 14.5454129 15.5512695 14.003418 16.304203 13.4614231 17.3808524 13.1904297 18.78125 13.1904297L20.0908203 13.1904297 20.0908203 12.5664062C20.0908203 12.0742163 19.9531264 11.6801773 19.6777344 11.3842773 19.4023424 11.0883774 18.9834013 10.9404297 18.4208984 10.9404297 17.9345679 10.9404297 17.5361344 11.0620105 17.2255859 11.3051758 16.9150375 11.5483411 16.7597656 11.85742 16.7597656 12.2324219L14.6240234 12.2324219C14.6240234 11.7109349 14.7968733 11.2231468 15.1425781 10.769043 15.488283 10.3149391 15.9584931 9.95898566 16.5532227 9.70117188 17.1479522 9.44335809 17.8115198 9.31445312 18.5439453 9.31445312 19.6572321 9.31445312 20.5449186 9.59423548 21.2070312 10.1538086 21.8691439 10.7133817 22.2089843 11.4999949 22.2265625 12.5136719L22.2265625 16.8027344C22.2265625 17.6582074 22.3466785 18.3408178 22.5869141 18.8505859L22.5869141 19 20.4072266 19zM18.0605469 17.4619141C18.482424 17.4619141 18.8793927 17.359376 19.2514648 17.1542969 19.623537 16.9492177 19.9033194 16.6738299 20.0908203 16.328125L20.0908203 14.5351562 18.9394531 14.5351562C18.1484335 14.5351562 17.5537129 14.6728502 17.1552734 14.9482422 16.7568339 15.2236342 16.5576172 15.6132787 16.5576172 16.1171875 16.5576172 16.5273458 16.6938463 16.8540027 16.9663086 17.097168 17.2387709 17.3403332 17.6035133 17.4619141 18.0605469 17.4619141z"/>
  </g>
</svg>
