<?xml version="1.0" encoding="UTF-8" standalone="no"?>
<svg width="72px" height="72px" viewBox="0 0 72 72" version="1.1" xmlns="http://www.w3.org/2000/svg" xmlns:xlink="http://www.w3.org/1999/xlink">
    <!-- Generator: Sketch 3.7.1 (28215) - http://www.bohemiancoding.com/sketch -->
    <title>Artboard 1</title>
    <desc>Created with Sketch.</desc>
    <defs></defs>
    <g id="Page-1" stroke="none" stroke-width="1" fill="none" fill-rule="evenodd" opacity="0.8">
        <g id="Artboard-1" fill="#FFFFFF">
            <path d="M71.3,20.8049383 C71.3,20.8049383 70.6,15.9049383 68.4,13.7049383 C65.7,10.8049383 62.6,10.8049383 61.2,10.6049383 C51.1,9.90493827 36,10.0049383 36,10.0049383 C36,10.0049383 20.9,9.90493827 10.9,10.6049383 C9.5,10.8049383 6.5,10.8049383 3.7,13.7049383 C1.5,15.9049383 0.8,20.8049383 0.8,20.8049383 C0.8,20.8049383 0.1,26.7049383 0,32.4049383 L0,38.5049383 C0.1,44.3049383 0.8,50.1049383 0.8,50.1049383 C0.8,50.1049383 1.5,55.1049383 3.7,57.2049383 C6.4,60.1049383 10,60.0049383 11.6,60.3049383 C17.2,60.9049383 35.3,61.0049383 36,61.0049383 C36,61.0049383 51.1,61.0049383 61.2,60.3049383 C62.6,60.1049383 65.6,60.1049383 68.4,57.2049383 C70.6,55.0049383 71.3,50.1049383 71.3,50.1049383 C71.3,50.1049383 72,44.3049383 72.1,38.5049383 L72.1,32.5049383 C72,26.7049383 71.3,20.8049383 71.3,20.8049383 L71.3,20.8049383 Z M28.8,46.0049383 L28.8,25.0049383 L48.1,35.9049383 L28.8,46.0049383 L28.8,46.0049383 Z" id="Shape"></path>
        </g>
    </g>
</svg>