<?xml version="1.0" encoding="UTF-8" standalone="no"?>
<svg width="82px" height="82px" viewBox="0 0 82 82" version="1.1" xmlns="http://www.w3.org/2000/svg" xmlns:xlink="http://www.w3.org/1999/xlink" xmlns:sketch="http://www.bohemiancoding.com/sketch/ns">
    <!-- Generator: Sketch 3.5.2 (25235) - http://www.bohemiancoding.com/sketch -->
    <title>illo_fit-width_rotate_82dp</title>
    <desc>Created with Sketch.</desc>
    <defs></defs>
    <g id="Page-1" stroke="none" stroke-width="1" fill="none" fill-rule="evenodd" sketch:type="MSPage">
        <g id="Books" sketch:type="MSArtboardGroup" transform="translate(-766.000000, -1198.000000)">
            <g id="Header-&amp;-BG" sketch:type="MSLayerGroup" transform="translate(0.000000, 60.000000)"></g>
            <g id="Shelf" sketch:type="MSLayerGroup" transform="translate(150.000000, 1198.000000)">
                <g id="illo_fit-width_rotate_82dp" transform="translate(616.000000, 0.000000)" sketch:type="MSShapeGroup">
                    <g id="Group" transform="translate(13.000000, 4.000000)" fill="#CACACA">
                        <rect id="Rectangle-238" x="0" y="24.8450704" width="56.8101266" height="22.3098592"></rect>
                        <rect id="Rectangle-238-Copy-2" x="0" y="0.304225352" width="56.8101266" height="21.1943662"></rect>
                        <rect id="Rectangle-238-Copy" x="0" y="50.5014085" width="56.8101266" height="21.1943662"></rect>
                    </g>
                    <path d="M2,21.5938918 C2,17.9521859 4.95398831,15 8.59049114,15 L73.4981165,15 C77.1379442,15 80.0886076,17.9597476 80.0886076,21.5938918 L80.0886076,57.4877984 C80.0886076,61.1295042 77.1346193,64.0816901 73.4981165,64.0816901 L8.59049114,64.0816901 C4.95066339,64.0816901 2,61.1219425 2,57.4877984 L2,21.5938918 Z M8,20 L74,20 L74,59 L8,59 L8,20 Z" id="Rectangle-246" fill="#212121"></path>
                    <path d="M42,25.9876649 L42,48" id="Line-Copy-3" stroke="#0099E8" stroke-width="2" stroke-linecap="square"></path>
                    <polygon id="Triangle-13" fill="#0099E8" points="42 23 47 30 37 30 "></polygon>
                    <path d="M42,54 C44.209139,54 46,52.209139 46,50 C46,47.790861 44.209139,46 42,46 C39.790861,46 38,47.790861 38,50 C38,52.209139 39.790861,54 42,54 Z" id="Oval-27" fill="#0099E8"></path>
                </g>
            </g>
        </g>
    </g>
</svg>