<?xml version="1.0" encoding="UTF-8" standalone="no"?>
<svg width="82px" height="82px" viewBox="0 0 82 82" version="1.1" xmlns="http://www.w3.org/2000/svg" xmlns:xlink="http://www.w3.org/1999/xlink">
    <!-- Generator: Sketch 3.6 (26304) - http://www.bohemiancoding.com/sketch -->
    <title>illo_fit_width_rotate_dark_82dp</title>
    <desc>Created with Sketch.</desc>
    <defs></defs>
    <g id="Page-1" stroke="none" stroke-width="1" fill="none" fill-rule="evenodd">
        <g id="Books" transform="translate(-982.000000, -1198.000000)">
            <g id="Header-&amp;-BG" transform="translate(0.000000, 60.000000)"></g>
            <g id="Shelf" transform="translate(150.000000, 1198.000000)">
                <g id="illo_fit_width_rotate_dark_82dp" transform="translate(832.000000, 0.000000)">
                    <g id="Group">
                        <path d="M34.9525,5.96208333 C32.95375,3.96333333 29.7079167,3.96333333 27.7091667,5.96208333 L5.96208333,27.7091667 C3.96333333,29.7079167 3.96333333,32.95375 5.96208333,34.9525 L47.0304167,76.0208333 C49.0291667,78.0195833 52.275,78.0195833 54.27375,76.0208333 L76.0208333,54.27375 C78.0195833,52.275 78.0195833,49.0291667 76.0208333,47.0304167 L34.9525,5.96208333 L34.9525,5.96208333 Z M50.4792151,72.10875 L9.58375,31.2302893 L31.2302893,9.58375 L72.10875,50.4622107 L50.4792151,72.10875 L50.4792151,72.10875 Z" id="Shape" fill="#FFFFFF"></path>
                        <path d="M25.67625,73.4070833 C14.5208333,68.11125 6.50875,57.2633333 5.29583333,44.4166667 L0.170833333,44.4166667 C1.91333333,65.4633333 19.5091667,82 41,82 C41.76875,82 42.5033333,81.9316667 43.2720833,81.8804167 L30.2375,68.8458333 L25.67625,73.4070833 L25.67625,73.4070833 Z" id="Path" fill="#0099E8"></path>
                        <path d="M56.32375,8.59291667 C67.4791667,13.88875 75.49125,24.7366667 76.7041667,37.5833333 L81.8291667,37.5833333 C80.0866667,16.5366667 62.4908333,0 41,0 C40.23125,0 39.4966667,0.0683333333 38.7279167,0.119583333 L51.7625,13.1541667 L56.32375,8.59291667 L56.32375,8.59291667 Z" id="Path" fill="#0099E8"></path>
                    </g>
                </g>
            </g>
        </g>
    </g>
</svg>