<?xml version="1.0" encoding="UTF-8" standalone="no"?>
<svg width="119px" height="216px" viewBox="0 0 119 216" version="1.1" xmlns="http://www.w3.org/2000/svg" xmlns:xlink="http://www.w3.org/1999/xlink">
    <!-- Generator: Sketch 3.8.1 (29687) - http://www.bohemiancoding.com/sketch -->
    <title>Phone</title>
    <desc>Created with Sketch.</desc>
    <defs>
        <path d="M112.283707,40.7704582 C112.45771,40.4409027 112.283703,27.1204582 112.283703,27.1204582 C112.283703,27.0264582 110.9685,26.9504586 110.9685,26.9504586 L110.9685,10.9124586 C110.9665,10.7454586 111.0505,8.18445856 109.5145,6.43245856 C107.9785,4.68045856 106.6105,4.37145856 106.6105,4.37145856 C105.9145,4.06845856 104.7365,3.72145856 103.9965,3.55545856 C103.9965,3.55545856 101.8255,2.97745856 95.6345,2.15145856 C91.9505,1.65945856 86.1585,1.14045856 82.7805,0.963458564 C78.9935,0.764458564 73.9805,0.389458564 69.1455,0.254458564 C63.6705,0.101458564 58.5835009,-0.0270718057 56.9845009,0.00492819426 C55.3855009,-0.0270718057 50.2975,0.101458564 44.8235,0.254458564 C39.9885,0.389458564 34.9755,0.764458564 31.1885,0.963458564 C27.8095,1.14045856 22.0175,1.65945856 18.3345,2.15145856 C12.1435,2.97745856 9.9725,3.55545856 9.9725,3.55545856 C9.2325,3.72145856 8.0545,4.06845856 7.3585,4.37145856 C7.3585,4.37145856 5.9905,4.68045856 4.4545,6.43245856 C2.9185,8.18445856 3.0025,10.7454586 3.0025,10.7454586 C2.9985,10.8024586 3.0005,195.415459 3.0005,195.415459 C3.0025,195.581459 2.9185,198.143459 4.4545,199.895459 C5.9905,201.647459 7.3585,201.956459 7.3585,201.956459 C8.0545,202.259459 9.2325,202.606459 9.9725,202.772459 C9.9725,202.772459 12.1435,203.349459 18.3345,204.176459 C22.0175,204.668459 27.8095,205.187459 31.1885,205.364459 C34.9755,205.563459 39.9885,205.938459 44.8235,206.073459 C50.2975,206.226459 55.3855,206.145459 56.9845,206.113459 C58.5835,206.145459 63.6705,206.226459 69.1455,206.073459 C73.9805,205.938459 78.9935,205.563459 82.7805,205.364459 C86.1585,205.187459 91.9505,204.668459 95.6345,204.176459 C101.8255,203.349459 103.9965,202.772459 103.9965,202.772459 C104.7365,202.606459 105.9145,202.259459 106.6105,201.956459 C106.6105,201.956459 107.9785,201.647459 109.5145,199.895459 C111.0505,198.143459 110.9665,195.581459 110.9665,195.581459 C110.9695,195.525459 110.966499,41.1078949 110.966499,41.1078949 L112.283707,40.7704582 Z M58.5007712,12.0932746 C59.3290488,12.0932746 60,11.4269507 60,10.6048427 C60,9.78427716 59.3290488,9.11795325 58.5007712,9.11795325 C57.6724936,9.11795325 57,9.78427716 57,10.6048427 C57,11.4269507 57.6724936,12.0932746 58.5007712,12.0932746 L58.5007712,12.0932746 Z" id="path-1"></path>
        <filter x="-50%" y="-50%" width="200%" height="200%" filterUnits="objectBoundingBox" id="filter-2">
            <feMorphology radius="0.2" operator="dilate" in="SourceAlpha" result="shadowSpreadOuter1"></feMorphology>
            <feOffset dx="0" dy="2" in="shadowSpreadOuter1" result="shadowOffsetOuter1"></feOffset>
            <feGaussianBlur stdDeviation="2" in="shadowOffsetOuter1" result="shadowBlurOuter1"></feGaussianBlur>
            <feComposite in="shadowBlurOuter1" in2="SourceAlpha" operator="out" result="shadowBlurOuter1"></feComposite>
            <feColorMatrix values="0 0 0 0 0   0 0 0 0 0   0 0 0 0 0  0 0 0 0.0586503623 0" type="matrix" in="shadowBlurOuter1"></feColorMatrix>
        </filter>
    </defs>
    <g id="Page-1" stroke="none" stroke-width="1" fill="none" fill-rule="evenodd">
        <g id="Phone" transform="translate(2.000000, 3.000000)">
            <path d="M1.833,70.638 L1.833,70.638 C0.825,70.638 0,69.813 0,68.805 L0,56.833 C0,55.825 0.825,55 1.833,55 L1.833,55 C2.841,55 3.666,55.825 3.666,56.833 L3.666,68.805 C3.666,69.813 2.841,70.638 1.833,70.638" id="Fill-3-Copy-2" fill="#FFFFFF"></path>
            <path d="M1.833,52.638 L1.833,52.638 C0.825,52.638 0,51.813 0,50.805 L0,38.833 C0,37.825 0.825,37 1.833,37 L1.833,37 C2.841,37 3.666,37.825 3.666,38.833 L3.666,50.805 C3.666,51.813 2.841,52.638 1.833,52.638" id="Fill-3-Copy-3" fill="#FFFFFF"></path>
            <g id="Fill-7-Copy">
                <use fill="black" fill-opacity="1" filter="url(#filter-2)" xlink:href="#path-1"></use>
                <use stroke="#ECECEC" stroke-width="0.4" fill="#FFFFFF" fill-rule="evenodd" xlink:href="#path-1"></use>
            </g>
            <polygon id="Path-Copy-2" fill="#263238" points="7 182.571 105.535 182.571 105.535 19 7 19"></polygon>
            <polygon id="Path-Copy-3" fill="#5D5E5E" opacity="0.230118937" points="7 155.557266 80.7787399 19 7 19"></polygon>
        </g>
    </g>
</svg>