<svg xmlns="http://www.w3.org/2000/svg" width="358" height="370"><linearGradient id="a" gradientUnits="userSpaceOnUse" x1="304" y1="502" x2="304" y2="334" gradientTransform="translate(0 -160)"><stop offset="0" style="stop-color:#95c8ec"/><stop offset=".206" style="stop-color:#91c5ea;stop-opacity=.979"/><stop offset=".423" style="stop-color:#84bbe4;stop-opacity=.958"/><stop offset=".645" style="stop-color:#6faadb;stop-opacity=.935"/><stop offset=".87" style="stop-color:#5293cd;stop-opacity=.913"/><stop offset="1" style="stop-color:#3d82c4;stop-opacity=.9"/></linearGradient><path fill="url(#a)" d="M347.5 212v130h-87V212l10-26h40v-12h7v12h5v-12h7v12h8"/><linearGradient id="b" gradientUnits="userSpaceOnUse" x1="302.25" y1="395.39" x2="302.25" y2="381.39" gradientTransform="translate(0 -160)"><stop offset="0" style="stop-color:#95c8ec"/><stop offset=".3" style="stop-color:#9bcbed"/><stop offset=".696" style="stop-color:#acd4f1"/><stop offset="1" style="stop-color:#bdddf4"/></linearGradient><path opacity=".3" fill="url(#b)" d="M300.2 221.4h4v14h-4v-14z"/><linearGradient id="c" gradientUnits="userSpaceOnUse" x1="316.25" y1="395.39" x2="316.25" y2="381.39" gradientTransform="translate(0 -160)"><stop offset="0" style="stop-color:#95c8ec"/><stop offset=".3" style="stop-color:#9bcbed"/><stop offset=".696" style="stop-color:#acd4f1"/><stop offset="1" style="stop-color:#bdddf4"/></linearGradient><path opacity=".3" fill="url(#c)" d="M314.2 221.4h4v14h-4v-14z"/><linearGradient id="d" gradientUnits="userSpaceOnUse" x1="330.25" y1="395.39" x2="330.25" y2="381.39" gradientTransform="translate(0 -160)"><stop offset="0" style="stop-color:#95c8ec"/><stop offset=".3" style="stop-color:#9bcbed"/><stop offset=".696" style="stop-color:#acd4f1"/><stop offset="1" style="stop-color:#bdddf4"/></linearGradient><path opacity=".3" fill="url(#d)" d="M328.2 221.4h4v14h-4v-14z"/><linearGradient id="e" gradientUnits="userSpaceOnUse" x1="330.25" y1="416.39" x2="330.25" y2="402.39" gradientTransform="translate(0 -160)"><stop offset="0" style="stop-color:#95c8ec"/><stop offset=".3" style="stop-color:#9bcbed"/><stop offset=".696" style="stop-color:#acd4f1"/><stop offset="1" style="stop-color:#bdddf4"/></linearGradient><path opacity=".3" fill="url(#e)" d="M328.2 242.4h4v14h-4v-14z"/><linearGradient id="f" gradientUnits="userSpaceOnUse" x1="316.25" y1="416.39" x2="316.25" y2="402.39" gradientTransform="translate(0 -160)"><stop offset="0" style="stop-color:#95c8ec"/><stop offset=".3" style="stop-color:#9bcbed"/><stop offset=".696" style="stop-color:#acd4f1"/><stop offset="1" style="stop-color:#bdddf4"/></linearGradient><path opacity=".3" fill="url(#f)" d="M314.2 242.4h4v14h-4v-14z"/><linearGradient id="g" gradientUnits="userSpaceOnUse" x1="316.25" y1="436.89" x2="316.25" y2="422.89" gradientTransform="translate(0 -160)"><stop offset="0" style="stop-color:#95c8ec"/><stop offset=".3" style="stop-color:#9bcbed"/><stop offset=".696" style="stop-color:#acd4f1"/><stop offset="1" style="stop-color:#bdddf4"/></linearGradient><path opacity=".3" fill="url(#g)" d="M314.2 262.9h4v14h-4v-14z"/><linearGradient id="h" gradientUnits="userSpaceOnUse" x1="302.25" y1="436.61" x2="302.25" y2="422.64" gradientTransform="translate(0 -160)"><stop offset="0" style="stop-color:#95c8ec"/><stop offset=".3" style="stop-color:#9bcbed"/><stop offset=".696" style="stop-color:#acd4f1"/><stop offset="1" style="stop-color:#bdddf4"/></linearGradient><path opacity=".3" fill="url(#h)" d="M300.2 262.6h4v14h-4v-14z"/><linearGradient id="i" gradientUnits="userSpaceOnUse" x1="50" y1="502" x2="50" y2="324.39" gradientTransform="translate(0 -160)"><stop offset="0" style="stop-color:#95c8ec"/><stop offset=".196" style="stop-color:#8fc3e9"/><stop offset=".464" style="stop-color:#7db5e1"/><stop offset=".772" style="stop-color:#619ed3"/><stop offset="1" style="stop-color:#4789c7"/></linearGradient><path fill="url(#i)" d="M49.8 164.4l-15.5 20.2v-6.2h-9v18L10.5 216v126h79V216"/><g opacity=".3"><linearGradient id="j" gradientUnits="userSpaceOnUse" x1="27.425" y1="399.42" x2="27.425" y2="386.58" gradientTransform="translate(0 -160)"><stop offset="0" style="stop-color:#95c8ec"/><stop offset=".3" style="stop-color:#9bcbed"/><stop offset=".696" style="stop-color:#acd4f1"/><stop offset="1" style="stop-color:#bdddf4"/></linearGradient><path fill="url(#j)" d="M24.3 226.6h6.3v12.8h-6.3v-12.8z"/><linearGradient id="k" gradientUnits="userSpaceOnUse" x1="50.215" y1="399.42" x2="50.215" y2="386.58" gradientTransform="translate(0 -160)"><stop offset="0" style="stop-color:#95c8ec"/><stop offset=".3" style="stop-color:#9bcbed"/><stop offset=".696" style="stop-color:#acd4f1"/><stop offset="1" style="stop-color:#bdddf4"/></linearGradient><path fill="url(#k)" d="M47.1 226.6h6.3v12.8h-6.3v-12.8z"/><linearGradient id="l" gradientUnits="userSpaceOnUse" x1="71.735" y1="399.42" x2="71.735" y2="386.58" gradientTransform="translate(0 -160)"><stop offset="0" style="stop-color:#95c8ec"/><stop offset=".3" style="stop-color:#9bcbed"/><stop offset=".696" style="stop-color:#acd4f1"/><stop offset="1" style="stop-color:#bdddf4"/></linearGradient><path fill="url(#l)" d="M68.6 226.6h6.3v12.8h-6.3v-12.8z"/><linearGradient id="m" gradientUnits="userSpaceOnUse" x1="27.425" y1="421.99" x2="27.425" y2="409.15" gradientTransform="translate(0 -160)"><stop offset="0" style="stop-color:#95c8ec"/><stop offset=".3" style="stop-color:#9bcbed"/><stop offset=".696" style="stop-color:#acd4f1"/><stop offset="1" style="stop-color:#bdddf4"/></linearGradient><path fill="url(#m)" d="M24.3 249.1h6.3V262h-6.3v-12.9z"/><linearGradient id="n" gradientUnits="userSpaceOnUse" x1="50.215" y1="421.99" x2="50.215" y2="409.15" gradientTransform="translate(0 -160)"><stop offset="0" style="stop-color:#95c8ec"/><stop offset=".3" style="stop-color:#9bcbed"/><stop offset=".696" style="stop-color:#acd4f1"/><stop offset="1" style="stop-color:#bdddf4"/></linearGradient><path fill="url(#n)" d="M47.1 249.1h6.3V262h-6.3v-12.9z"/><linearGradient id="o" gradientUnits="userSpaceOnUse" x1="71.735" y1="421.99" x2="71.735" y2="409.15" gradientTransform="translate(0 -160)"><stop offset="0" style="stop-color:#95c8ec"/><stop offset=".3" style="stop-color:#9bcbed"/><stop offset=".696" style="stop-color:#acd4f1"/><stop offset="1" style="stop-color:#bdddf4"/></linearGradient><path fill="url(#o)" d="M68.6 249.1h6.3V262h-6.3v-12.9z"/><linearGradient id="p" gradientUnits="userSpaceOnUse" x1="27.5" y1="445" x2="27.5" y2="432" gradientTransform="translate(0 -160)"><stop offset="0" style="stop-color:#95c8ec"/><stop offset=".3" style="stop-color:#9bcbed"/><stop offset=".696" style="stop-color:#acd4f1"/><stop offset="1" style="stop-color:#bdddf4"/></linearGradient><path fill="url(#p)" d="M24.5 272h6v13h-6v-13z"/><linearGradient id="q" gradientUnits="userSpaceOnUse" x1="50.5" y1="445" x2="50.5" y2="432" gradientTransform="translate(0 -160)"><stop offset="0" style="stop-color:#95c8ec"/><stop offset=".3" style="stop-color:#9bcbed"/><stop offset=".696" style="stop-color:#acd4f1"/><stop offset="1" style="stop-color:#bdddf4"/></linearGradient><path fill="url(#q)" d="M47.5 272h6v13h-6v-13z"/><linearGradient id="r" gradientUnits="userSpaceOnUse" x1="71.735" y1="444.7" x2="71.735" y2="431.86" gradientTransform="translate(0 -160)"><stop offset="0" style="stop-color:#95c8ec"/><stop offset=".3" style="stop-color:#9bcbed"/><stop offset=".696" style="stop-color:#acd4f1"/><stop offset="1" style="stop-color:#bdddf4"/></linearGradient><path fill="url(#r)" d="M68.6 271.9h6.3v12.8h-6.3v-12.8z"/><g><linearGradient id="s" gradientUnits="userSpaceOnUse" x1="27.5" y1="468" x2="27.5" y2="455" gradientTransform="translate(0 -160)"><stop offset="0" style="stop-color:#95c8ec"/><stop offset=".3" style="stop-color:#9bcbed"/><stop offset=".696" style="stop-color:#acd4f1"/><stop offset="1" style="stop-color:#bdddf4"/></linearGradient><path fill="url(#s)" d="M24.5 295h6v13h-6v-13z"/><linearGradient id="t" gradientUnits="userSpaceOnUse" x1="50.5" y1="468" x2="50.5" y2="455" gradientTransform="translate(0 -160)"><stop offset="0" style="stop-color:#95c8ec"/><stop offset=".3" style="stop-color:#9bcbed"/><stop offset=".696" style="stop-color:#acd4f1"/><stop offset="1" style="stop-color:#bdddf4"/></linearGradient><path fill="url(#t)" d="M47.5 295h6v13h-6v-13z"/><linearGradient id="u" gradientUnits="userSpaceOnUse" x1="71.735" y1="467.31" x2="71.735" y2="454.47" gradientTransform="translate(0 -160)"><stop offset="0" style="stop-color:#95c8ec"/><stop offset=".3" style="stop-color:#9bcbed"/><stop offset=".696" style="stop-color:#acd4f1"/><stop offset="1" style="stop-color:#bdddf4"/></linearGradient><path fill="url(#u)" d="M68.6 294.5h6.3v12.8h-6.3v-12.8z"/></g></g><linearGradient id="v" gradientUnits="userSpaceOnUse" x1="143.5" y1="502" x2="143.5" y2="362" gradientTransform="translate(0 -160)"><stop offset="0" style="stop-color:#95c8ec"/><stop offset=".328" style="stop-color:#93c6eb;stop-opacity=.934"/><stop offset=".518" style="stop-color:#8abfe7;stop-opacity=.896"/><stop offset=".674" style="stop-color:#7cb4e1;stop-opacity=.865"/><stop offset=".81" style="stop-color:#68a5d8;stop-opacity=.838"/><stop offset=".933" style="stop-color:#4f90cc;stop-opacity=.814"/><stop offset="1" style="stop-color:#3d82c4;stop-opacity=.8"/></linearGradient><path fill="url(#v)" d="M143.5 202l-9 8.4V206h-9v12.9l-13 12.1v111h62V231"/><linearGradient id="w" gradientUnits="userSpaceOnUse" x1="139" y1="413.53" x2="139" y2="402" gradientTransform="translate(0 -160)"><stop offset="0" style="stop-color:#95c8ec"/><stop offset=".3" style="stop-color:#9bcbed"/><stop offset=".696" style="stop-color:#acd4f1"/><stop offset="1" style="stop-color:#bdddf4"/></linearGradient><path opacity=".3" fill="url(#w)" d="M141.5 253.5h-5V242h5"/><linearGradient id="x" gradientUnits="userSpaceOnUse" x1="149.845" y1="413.42" x2="149.845" y2="401.89" gradientTransform="translate(0 -160)"><stop offset="0" style="stop-color:#95c8ec"/><stop offset=".3" style="stop-color:#9bcbed"/><stop offset=".696" style="stop-color:#acd4f1"/><stop offset="1" style="stop-color:#bdddf4"/></linearGradient><path opacity=".3" fill="url(#x)" d="M147.4 241.9h4.8v11.5h-4.8v-11.5z"/><linearGradient id="y" gradientUnits="userSpaceOnUse" x1="127.345" y1="433.89" x2="127.345" y2="422.36" gradientTransform="translate(0 -160)"><stop offset="0" style="stop-color:#95c8ec"/><stop offset=".3" style="stop-color:#9bcbed"/><stop offset=".696" style="stop-color:#acd4f1"/><stop offset="1" style="stop-color:#bdddf4"/></linearGradient><path opacity=".3" fill="url(#y)" d="M124.9 262.4h4.8v11.5h-4.8v-11.5z"/><linearGradient id="z" gradientUnits="userSpaceOnUse" x1="139" y1="434.53" x2="139" y2="423" gradientTransform="translate(0 -160)"><stop offset="0" style="stop-color:#95c8ec"/><stop offset=".3" style="stop-color:#9bcbed"/><stop offset=".696" style="stop-color:#acd4f1"/><stop offset="1" style="stop-color:#bdddf4"/></linearGradient><path opacity=".3" fill="url(#z)" d="M141.5 274.5h-5V263h5"/><linearGradient id="A" gradientUnits="userSpaceOnUse" x1="160.845" y1="433.89" x2="160.845" y2="422.36" gradientTransform="translate(0 -160)"><stop offset="0" style="stop-color:#95c8ec"/><stop offset=".3" style="stop-color:#9bcbed"/><stop offset=".696" style="stop-color:#acd4f1"/><stop offset="1" style="stop-color:#bdddf4"/></linearGradient><path opacity=".3" fill="url(#A)" d="M158.4 262.4h4.8v11.5h-4.8v-11.5z"/><linearGradient id="B" gradientUnits="userSpaceOnUse" x1="139" y1="454.53" x2="139" y2="443" gradientTransform="translate(0 -160)"><stop offset="0" style="stop-color:#95c8ec"/><stop offset=".3" style="stop-color:#9bcbed"/><stop offset=".696" style="stop-color:#acd4f1"/><stop offset="1" style="stop-color:#bdddf4"/></linearGradient><path opacity=".3" fill="url(#B)" d="M141.5 294.5h-5V283h5"/><linearGradient id="C" gradientUnits="userSpaceOnUse" x1="149.845" y1="454.42" x2="149.845" y2="442.89" gradientTransform="translate(0 -160)"><stop offset="0" style="stop-color:#95c8ec"/><stop offset=".3" style="stop-color:#9bcbed"/><stop offset=".696" style="stop-color:#acd4f1"/><stop offset="1" style="stop-color:#bdddf4"/></linearGradient><path opacity=".3" fill="url(#C)" d="M147.4 282.9h4.8v11.5h-4.8v-11.5z"/><linearGradient id="D" gradientUnits="userSpaceOnUse" x1="160.845" y1="454.42" x2="160.845" y2="442.89" gradientTransform="translate(0 -160)"><stop offset="0" style="stop-color:#95c8ec"/><stop offset=".3" style="stop-color:#9bcbed"/><stop offset=".696" style="stop-color:#acd4f1"/><stop offset="1" style="stop-color:#bdddf4"/></linearGradient><path opacity=".3" fill="url(#D)" d="M158.4 282.9h4.8v11.5h-4.8v-11.5z"/><path fill="#A6A8AB" d="M0 344h358v26H0v-26z"/><path fill="#929497" d="M0 342h358v2H0v-2z"/><path fill="#FFF" d="M97.5 86c0-5.5-4.1-9.8-9.2-9.8-.9 0-1.8.2-2.6.5-2.2-9.5-9.6-16.4-18.2-16.4-7.9 0-14.7 4-17.6 12.3-2.1-.8-6-1.1-9.5-.4-7.9 1.6-13.3 7.9-14 14.9h71c0-.1.1-.7.1-1.1z" opacity=".75"/><g opacity=".5" fill="#FFF"><path d="M178.2 52.3c0-3.6-2.6-6.5-5.9-6.5-.6 0-1.1.1-1.7.3-1.4-6.3-6.1-10.9-11.7-10.9-5.1 0-9.4 2.7-11.2 8.2-1.3-.6-3.8-.7-6.1-.2-5.1 1-8.5 4.9-8.9 9.9h45.5v-.8z"/><path d="M178.2 52.3c0-3.6-2.6-6.5-5.9-6.5-.6 0-1.1.1-1.7.3-1.4-6.3-6.1-10.9-11.7-10.9-5.1 0-9.4 2.7-11.2 8.2-1.3-.6-3.8-.7-6.1-.2-5.1 1-8.5 4.9-8.9 9.9h45.5v-.8z"/></g><path fill="#FFF" d="M316.9 105c0-4.2-3.1-7.6-6.9-7.6-.7 0-1.3.1-2 .3-1.7-7.3-7.1-12.6-13.5-12.6-5.9 0-10.9 3.1-13 9.4-1.6-.6-4.5-.6-7-.1-5.9 1.2-9.9 5.6-10.4 11.6h52.8c-.1-1 0-.7 0-1z" opacity=".65"/><path fill="#ED3D35" d="M248.3 143.6c10.4 0 18.8 8.4 18.8 18.8 0 14.2-15.8 21.6-17.7 41.8 0 .6-.5 1-1.1 1s-1.1-.4-1.1-1c-1.9-20.2-17.7-27.6-17.7-41.8 0-10.4 8.4-18.8 18.8-18.8z"/><path fill="#3E2723" fill-opacity=".2" d="M247.2 203.7c0 .6.5 1 1.1 1s1.1-.4 1.1-1c1.9-20.1 17.5-27.5 17.7-41.6v.3c0 14.2-15.8 21.6-17.7 41.8 0 .6-.5 1-1.1 1s-1.1-.4-1.1-1c-1.9-20.2-17.7-27.6-17.7-41.8v-.3c.2 14.1 15.8 21.5 17.7 41.6z"/><circle fill="#7B231E" cx="248.3" cy="162.4" r="6.6"/><path fill="#FFF" fill-opacity=".2" d="M248.3 144.1c-10.3 0-18.6 8.3-18.8 18.5v-.2c0-10.4 8.4-18.8 18.8-18.8s18.8 8.4 18.8 18.8v.2c-.2-10.3-8.5-18.5-18.8-18.5z"/><linearGradient id="E" gradientUnits="userSpaceOnUse" x1="92.625" y1="501.89" x2="92.625" y2="395" gradientTransform="translate(0 -160)"><stop offset="0" style="stop-color:#95c8ec"/><stop offset=".264" style="stop-color:#8fc3e9"/><stop offset=".61" style="stop-color:#7fb4df"/><stop offset="1" style="stop-color:#649bd0"/></linearGradient><path fill="url(#E)" d="M122.5 242h-12v-7h-6v7h-2v-7h-6v7h-34l-6.8 15.4-.2.6.2 83.9h74l-.2-83.9"/><g opacity=".5"><linearGradient id="F" gradientUnits="userSpaceOnUse" x1="115.5" y1="436.62" x2="115.5" y2="425" gradientTransform="translate(0 -160)"><stop offset="0" style="stop-color:#95c8ec"/><stop offset=".3" style="stop-color:#9bcbed"/><stop offset=".696" style="stop-color:#acd4f1"/><stop offset="1" style="stop-color:#bdddf4"/></linearGradient><path opacity=".4" fill="url(#F)" d="M113.5 265h4v11.6h-4V265z"/><linearGradient id="G" gradientUnits="userSpaceOnUse" x1="85.5" y1="436.62" x2="85.5" y2="425" gradientTransform="translate(0 -160)"><stop offset="0" style="stop-color:#95c8ec"/><stop offset=".3" style="stop-color:#9bcbed"/><stop offset=".696" style="stop-color:#acd4f1"/><stop offset="1" style="stop-color:#bdddf4"/></linearGradient><path opacity=".4" fill="url(#G)" d="M83.5 265h4v11.6h-4V265z"/><linearGradient id="H" gradientUnits="userSpaceOnUse" x1="70.5" y1="436.62" x2="70.5" y2="425" gradientTransform="translate(0 -160)"><stop offset="0" style="stop-color:#95c8ec"/><stop offset=".3" style="stop-color:#9bcbed"/><stop offset=".696" style="stop-color:#acd4f1"/><stop offset="1" style="stop-color:#bdddf4"/></linearGradient><path opacity=".4" fill="url(#H)" d="M68.5 265h4v11.6h-4V265z"/><linearGradient id="I" gradientUnits="userSpaceOnUse" x1="115.5" y1="453.62" x2="115.5" y2="442" gradientTransform="translate(0 -160)"><stop offset="0" style="stop-color:#95c8ec"/><stop offset=".3" style="stop-color:#9bcbed"/><stop offset=".696" style="stop-color:#acd4f1"/><stop offset="1" style="stop-color:#bdddf4"/></linearGradient><path opacity=".4" fill="url(#I)" d="M113.5 282h4v11.6h-4V282z"/><linearGradient id="J" gradientUnits="userSpaceOnUse" x1="100.5" y1="453.62" x2="100.5" y2="442" gradientTransform="translate(0 -160)"><stop offset="0" style="stop-color:#95c8ec"/><stop offset=".3" style="stop-color:#9bcbed"/><stop offset=".696" style="stop-color:#acd4f1"/><stop offset="1" style="stop-color:#bdddf4"/></linearGradient><path opacity=".4" fill="url(#J)" d="M98.5 282h4v11.6h-4V282z"/><linearGradient id="K" gradientUnits="userSpaceOnUse" x1="85.5" y1="453.62" x2="85.5" y2="442" gradientTransform="translate(0 -160)"><stop offset="0" style="stop-color:#95c8ec"/><stop offset=".3" style="stop-color:#9bcbed"/><stop offset=".696" style="stop-color:#acd4f1"/><stop offset="1" style="stop-color:#bdddf4"/></linearGradient><path opacity=".4" fill="url(#K)" d="M83.5 282h4v11.6h-4V282z"/></g><g><linearGradient id="L" gradientUnits="userSpaceOnUse" x1="178.5" y1="502" x2="178.5" y2="381" gradientTransform="translate(0 -160)"><stop offset="0" style="stop-color:#95c8ec"/><stop offset=".279" style="stop-color:#92c5ea"/><stop offset=".504" style="stop-color:#88bde5"/><stop offset=".711" style="stop-color:#77afdd"/><stop offset=".905" style="stop-color:#5f9bd1"/><stop offset="1" style="stop-color:#518fca"/></linearGradient><path fill="url(#L)" d="M144.5 342h68V239l-33-18-35 18"/><g opacity=".5"><linearGradient id="M" gradientUnits="userSpaceOnUse" x1="159.5" y1="419.39" x2="159.5" y2="410.89" gradientTransform="translate(0 -160)"><stop offset="0" style="stop-color:#95c8ec"/><stop offset=".3" style="stop-color:#9bcbed"/><stop offset=".696" style="stop-color:#acd4f1"/><stop offset="1" style="stop-color:#bdddf4"/></linearGradient><path opacity=".3" fill="url(#M)" d="M157.2 250.9h4.5v8.5h-4.5v-8.5z"/><linearGradient id="N" gradientUnits="userSpaceOnUse" x1="179" y1="419.39" x2="179" y2="410.89" gradientTransform="translate(0 -160)"><stop offset="0" style="stop-color:#95c8ec"/><stop offset=".3" style="stop-color:#9bcbed"/><stop offset=".696" style="stop-color:#acd4f1"/><stop offset="1" style="stop-color:#bdddf4"/></linearGradient><path opacity=".3" fill="url(#N)" d="M176.8 250.9h4.5v8.5h-4.5v-8.5z"/><linearGradient id="O" gradientUnits="userSpaceOnUse" x1="198.07" y1="419.349" x2="198.07" y2="410.719" gradientTransform="translate(0 -160)"><stop offset="0" style="stop-color:#95c8ec"/><stop offset=".3" style="stop-color:#9bcbed"/><stop offset=".696" style="stop-color:#acd4f1"/><stop offset="1" style="stop-color:#bdddf4"/></linearGradient><path opacity=".3" fill="url(#O)" d="M195.9 250.7h4.4v8.6h-4.4v-8.6z"/><linearGradient id="P" gradientUnits="userSpaceOnUse" x1="179" y1="437.89" x2="179" y2="429.39" gradientTransform="translate(0 -160)"><stop offset="0" style="stop-color:#95c8ec"/><stop offset=".3" style="stop-color:#9bcbed"/><stop offset=".696" style="stop-color:#acd4f1"/><stop offset="1" style="stop-color:#bdddf4"/></linearGradient><path opacity=".3" fill="url(#P)" d="M176.8 269.4h4.5v8.5h-4.5v-8.5z"/><linearGradient id="Q" gradientUnits="userSpaceOnUse" x1="198.07" y1="438.16" x2="198.07" y2="429.53" gradientTransform="translate(0 -160)"><stop offset="0" style="stop-color:#95c8ec"/><stop offset=".3" style="stop-color:#9bcbed"/><stop offset=".696" style="stop-color:#acd4f1"/><stop offset="1" style="stop-color:#bdddf4"/></linearGradient><path opacity=".3" fill="url(#Q)" d="M195.9 269.5h4.4v8.6h-4.4v-8.6z"/></g></g><g><path fill="#F37046" d="M189.5 256h117v86h-117v-86z"/><path fill="#F05323" d="M214.5 215h14v9h-14v-9z"/><path fill="#D94E31" d="M306.5 256h-117l14-33h88"/><path fill="#F37046" d="M286.5 223h4v33h-4v-33zm-8 0h4v33h-4v-33zm-8 0h4v33h-4v-33zm-8 0h4v33h-4v-33zm-8 0h4v33h-4v-33zm-8 0h4v33h-4v-33zm-8 0h4v33h-4v-33zm-8 0h4v33h-4v-33zm-8 0h4v33h-4v-33zm-8 0h4v33h-4v-33zm-8 0h4v33h-4v-33zm96 33h4l-4-8.8m-8 8.8h4v-17.6l-4-8.8m-96 26.4h4v-30.7l-4 9.4m-8 21.3h4v-11.9l-4 9.5"/><path fill="#FFCA28" d="M198.5 302h30v19h-30v-19z"/><path fill="#F05323" d="M236.5 297h24v38h-24v-38z"/><linearGradient id="R" gradientUnits="userSpaceOnUse" x1="248" y1="416" x2="248" y2="436" gradientTransform="translate(0 -160)"><stop offset="0" style="stop-color:#bf360c"/><stop offset=".237" style="stop-color:#c43c12;stop-opacity=.881"/><stop offset=".551" style="stop-color:#d34c23;stop-opacity=.724"/><stop offset=".906" style="stop-color:#eb683e;stop-opacity=.547"/><stop offset="1" style="stop-color:#f37046;stop-opacity=.5"/></linearGradient><path opacity=".75" fill="url(#R)" d="M189.5 256h117v20h-97"/><g fill="#558B2F"><ellipse cx="205.6" cy="315.6" rx="4.8" ry="3.4"/><ellipse cx="212.6" cy="316.4" rx="3.7" ry="2.6"/><ellipse cx="218.3" cy="315.8" rx="4.9" ry="3.2"/><ellipse cx="224" cy="316.1" rx="2.6" ry="2.4"/></g><path fill="#D74527" d="M198.5 317.5h30v3.5h-30v-3.5z"/><path fill="#FFCA28" d="M267.5 302h30v19h-30v-19z"/><ellipse fill="#558B2F" cx="273.9" cy="315.9" rx="4.2" ry="3"/><ellipse fill="#558B2F" cx="280.7" cy="316.2" rx="4.4" ry="3.2"/><ellipse fill="#558B2F" cx="287.3" cy="315.4" rx="5.1" ry="3.9"/><ellipse fill="#558B2F" cx="292.5" cy="316.4" rx="3.4" ry="2.4"/><path fill="#D74527" d="M267.5 317.5h30v3.5h-30v-3.5z"/><path fill="#F05323" d="M236.5 338h24v4h-24v-4z"/><path fill="#E75324" d="M236.8 296.9c0-6.5 5.2-11.8 11.8-11.8s11.8 5.3 11.8 11.8h-23.6z"/><path fill="#FFCA28" d="M244.1 302.5c-1.5 1.3-2.4 3.4-2.4 5.4h6.3l-3.9-5.4zm11.1 5.4c0-2.2-.9-4.2-2.4-5.5l-3.8 5.5h6.2z"/><linearGradient id="S" gradientUnits="userSpaceOnUse" x1="248.5" y1="457" x2="248.5" y2="463" gradientTransform="translate(0 -160)"><stop offset="0" style="stop-color:#bf360c"/><stop offset=".237" style="stop-color:#c43c12;stop-opacity=.762"/><stop offset=".551" style="stop-color:#d34c23;stop-opacity=.449"/><stop offset=".906" style="stop-color:#eb683e;stop-opacity=.094"/><stop offset="1" style="stop-color:#f37046;stop-opacity=0"/></linearGradient><path opacity=".75" fill="url(#S)" d="M236.5 297h24v6h-18"/><path fill="#FFCA28" d="M277.5 265h6v15h-6v-15zm-32 0h6v15h-6v-15z"/><linearGradient id="T" gradientUnits="userSpaceOnUse" x1="218.5" y1="440" x2="218.5" y2="425" gradientTransform="translate(0 -160)"><stop offset="0" style="stop-color:#f05323"/><stop offset="1" style="stop-color:#d74527"/></linearGradient><path fill="url(#T)" d="M215.5 265h6v15h-6v-15z"/></g><circle fill="#D74527" cx="240.5" cy="318.6" r="1.2"/><path fill="#FFCA28" d="M248.5 307.4l3.7-5.3s-3.4-2.6-7.5 0l3.8 5.3z"/><g><path fill="#D0D2D3" d="M336.2 355.4h9v2h-9v-2zm-18 0h9v2h-9v-2zm-18 0h9v2h-9v-2zm-18 0h9v2h-9v-2zm-18 0h9v2h-9v-2zm-18 0h9v2h-9v-2zm-18 0h9v2h-9v-2zm-18 0h9v2h-9v-2zm-18 0h9v2h-9v-2zm-18 0h9v2h-9v-2zm-107.4 0h9v2h-9v-2zm-18 0h9v2h-9v-2zm-18 0h9v2h-9v-2zm-18 0h9v2h-9v-2zm-12.8 0h3.8v2H0v-2zm354.2 0h3.8v2h-3.8v-2zm-269.4 0h4.5v2h-4.5v-2z"/></g><g><path fill="#F36E44" d="M95.4 339.5c2.9-.8 5.9-1.7 7.2-2l.4-.1c.1 0 .8-1 1.4-2l6-9.9c.7-1.1 2.2-2 3.5-2H141c1.3 0 2.9.9 3.6 2l5.5 8.6c.7 1.1 1.4 2.3 1.7 2.6.2.4.8.7 1.2.8s1.8.2 3.1.4l12.6 2.3c1.3.2 2.5 1.3 2.7 2.6 0 0 1.9 11.8 1.9 13.1s-1 2.2-2.3 2.2H91c-1.3 0-2.3-.7-2.3-1.5s0-2.5.1-3.8c0 0 .1-2.7.1-5.6-.1-2.9 2.6-6.6 6.5-7.7z"/><path fill="#EF4323" d="M88.7 354.7h84.7v3.5H88.6s0-3.5.1-3.5z"/><g fill="#EF4323"><path d="M146.2 358.2c0-5 4.1-9.1 9.1-9.1s9.1 4.1 9.1 9.1"/><path d="M144.7 358.2h3.1c0-4.2 3.4-7.5 7.6-7.5s7.6 3.4 7.6 7.5h3.1c0-5.9-4.8-10.6-10.6-10.6s-10.8 4.7-10.8 10.6zm-47.2 0c0-5 4.1-9.1 9.1-9.1s9.1 4.1 9.1 9.1"/><path d="M95.9 358.2H99c0-4.2 3.4-7.5 7.6-7.5 4-.1 7.2 3.2 7.6 7.5h3.1c0-5.9-4.8-10.6-10.6-10.6-6-.1-10.8 4.7-10.8 10.6z"/></g><circle fill="#333F44" cx="155.3" cy="358.2" r="6.7"/><circle fill="#4C5A5E" cx="155.3" cy="358.2" r="2.8"/><circle fill="#333F44" cx="106.6" cy="358.2" r="6.7"/><circle fill="#4C5A5E" cx="106.6" cy="358.2" r="2.8"/><path fill="#FFF" d="M117.1 326.7c0-.4.4-.8.8-.8h18.4c.4 0 .9.3 1.1.7l4.8 10c.2.4 0 .7-.4.7h-23.9c-.4 0-.8-.3-.8-.8v-9.8zm27.8-.8H141c-.4 0-.6.3-.4.7l5 10c.2.4.7.7 1.1.7h5.5m-48.9 0h9.8c.4 0 .8-.3.8-.8v-9.9c0-.4-.4-.8-.8-.8h-2.9"/><path fill="#E9F5F7" d="M117.1 326.7c0-.4.4-.8.8-.8h18.4c.4 0 .9.3 1.1.7l4.8 10c.2.4 0 .7-.4.7h-23.9c-.4 0-.8-.3-.8-.8v-9.8zm27.8-.8H141c-.4 0-.6.3-.4.7l5 10c.2.4.7.7 1.1.7h5.5m-48.9 0h9.8c.4 0 .8-.3.8-.8v-9.9c0-.4-.4-.8-.8-.8h-2.9"/><path fill="#FFF278" d="M170.2 343.6h1.5l.8 4.3h-2.3c-1.2 0-2.2-1-2.2-2.2 0-1.1 1-2.1 2.2-2.1z"/><path fill="#EF4323" stroke="#EF4323" stroke-width=".54" stroke-miterlimit="10" d="M141.7 354.7v-17.4m-23.9.1v17.3"/><path fill="#EF4323" d="M134.7 340.6c0 .6.5 1 1 1h2.5c.6 0 1-.5 1-1s-.5-1-1-1h-2.5c-.6-.1-1 .4-1 1z"/><path fill="#FFF278" d="M88.4 347.3h.8l-.1 6.2h-.8c-.9-.2-1.6-1.5-1.6-3.1.1-1.6.8-2.9 1.7-3.1z"/></g></svg>
