<svg xmlns="http://www.w3.org/2000/svg" width="480" height="480"><path fill="#fff" fill-rule="evenodd" d="M-125.25 405.62c-36.58 0-67.38-30.8-67.38-67.38s30.8-67.38 67.38-67.38 67.38 30.8 67.38 67.38-30.8 67.38-67.38 67.38zm0-163.62c-53.9 0-96.25 42.35-96.25 96.25s42.35 96.25 96.25 96.25S-29 392.15-29 338.25-71.35 242-125.25 242zm-111.65-75.08l15.4 15.4c25.02 25.02 57.75 40.42 98.17 40.42v-38.5c-28.88 0-51.97-11.55-69.3-28.88l-36.58-36.58c-9.7-7.7-19.3-11.55-30.8-11.55s-21.2 3.85-27 11.55l-53.9 53.9c-7.7 7.7-11.6 17.32-11.6 26.95 0 11.55 3.8 21.18 11.5 26.95l61.6 53.9v96.25h38.5V257.4l-42.4-44.27 46.2-46.2zm-157.85 238.7c-36.57 0-67.38-30.8-67.38-67.38s30.8-67.38 67.38-67.38 67.38 30.8 67.38 67.38-30.8 67.38-67.38 67.38zm0-163.62c-53.9 0-96.25 42.35-96.25 96.25s42.35 96.25 96.25 96.25 96.25-42.35 96.25-96.25S-340.85 242-394.75 242zm202.13-125.12c21.17 0 38.5-17.33 38.5-38.5s-17.33-38.5-38.5-38.5-38.5 17.33-38.5 38.5 17.32 38.5 38.5 38.5zm299.3 285.8c36.36 0 65.84-29.48 65.84-65.85s-29.48-65.85-65.85-65.85-65.85 29.48-65.85 65.85 29.5 65.85 65.85 65.85zm265.9-7.68c36.36 0 65.84-29.48 65.84-65.85 0-36.37-29.48-65.85-65.85-65.85-36.37 0-65.85 29.48-65.85 65.85 0 36.37 29.48 65.85 65.85 65.85zm-78.25-286.27c21.26 0 38.5-17.24 38.5-38.5s-17.24-38.5-38.5-38.5-38.5 17.24-38.5 38.5 17.23 38.5 38.5 38.5zM161.73 227.7c-2.24-1.2-4.38-2.66-6.37-4.4-14.3-12.43-15.8-34.1-3.38-48.4l53.23-61.23c12.5-14.3 34.1-15.82 48.4-3.4 5.4 4.7 9 10.7 10.7 17.1 1.4 1.5 39.3 41.2 110.7 51.45-.8 4-4.3 17.92-6.3 37.76-10.7-1.93-77.5-13.3-117.9-50.77l-40.3 46.5c4.4 3.1 49.5 34 54.3 41 2.5 3.6 9 28.4 15.1 53 10.3-41.7 47.9-72.6 92.8-72.6 52.8 0 95.5 42.8 95.5 95.5s-42.7 95.5-95.5 95.5c-41.5 0-76.8-26.4-90-63.4l-27.1 7.6L241 312c-6.1 28.6-13.73 59.8-13.73 59.8l-28.64-7.14c-11.85 39.3-48.3 67.98-91.5 67.98-52.74 0-95.5-42.76-95.5-95.5s42.76-95.5 95.5-95.5c46.4 0 85.06 33.1 93.7 76.95l9.45-41-48.3-49.5zm444.94 174.98c36.37 0 65.85-29.48 65.85-65.85s-29.48-65.85-65.85-65.85c-36.37 0-65.85 29.48-65.85 65.85s29.5 65.85 65.85 65.85zM872.57 388c36.37 0 65.85-29.48 65.85-65.85 0-36.37-29.48-65.85-65.85-65.85-36.37 0-65.85 29.48-65.85 65.85 0 36.37 29.48 65.85 65.85 65.85zm-85.24-283.27c21.26 0 38.5-17.24 38.5-38.5s-17.24-38.5-38.5-38.5-38.5 17.24-38.5 38.5 17.23 38.5 38.5 38.5zm-81.9 106.67l41.35-47.58c41.7 35.82 108.5 44.8 119.27 46.36 1.3-19.9 4.35-33.92 4.98-37.96-63.64-6.86-101.72-37.85-110.5-45.75-1.57-6.83-5.23-13.24-10.92-18.2-14.3-12.42-35.9-10.9-48.4 3.4L648 172.9c-12.43 14.3-10.92 35.97 3.38 48.4 2.03 1.76 4.2 3.25 6.48 4.45l4.83 3.6 50.6 45.3-12.8 43.52c-8.7-43.84-47.3-76.9-93.7-76.9-52.8 0-95.5 42.76-95.5 95.5s42.7 95.5 95.5 95.5c49.7 0 90.5-38 95.1-86.53l28.8 8.16s3.4-9.9 7.7-23.7l14 51.67 37.3-11.8-.1-.2c16.6 28.48 47.4 47.63 82.7 47.63 52.7 0 95.5-42.8 95.5-95.5s-42.8-95.5-95.5-95.5S777 269.2 777 322c0 1.9.06 3.9.18 5.8-8.6-28.2-18.76-61.08-21.2-66.2l-.25-.5c.7-6.8.45-11.8-1.3-13.86-7.3-8.63-36.6-27.93-49.06-35.96zm401.24 190.28c36.37 0 65.85-29.48 65.85-65.85s-29.48-65.85-65.85-65.85-65.85 29.48-65.85 65.85 29.5 65.85 65.85 65.85zm265.9-18.68c36.37 0 65.85-29.48 65.85-65.85 0-36.37-29.48-65.85-65.85-65.85s-65.85 29.48-65.85 65.85c0 36.37 29.48 65.85 65.85 65.85zm-87.24-280.8c21.26 0 38.5-17.23 38.5-38.5s-17.24-38.5-38.5-38.5-38.5 17.25-38.5 38.5c0 21.28 17.23 38.5 38.5 38.5zm-178.45 329.1c52.74 0 95.5-42.76 95.5-95.5s-42.76-95.5-95.5-95.5-95.5 42.76-95.5 95.5 42.76 95.5 95.5 95.5zm265.7-18.78c52.73 0 95.5-42.76 95.5-95.5s-42.77-95.5-95.5-95.5-95.5 42.76-95.5 95.5 42.74 95.5 95.5 95.5zm-163.8-207.9l35.7-44.1c42.36 34.54 108.58 42.27 119.3 43.63.96-19.92 3.76-34 4.32-38.04-62.86-5.6-101.27-35.2-110.9-43.4-1.77-6.8-5.68-13.2-11.6-18-14.73-11.9-36.32-9.6-48.25 5.1l-51.06 63.1c-12 14.8-9.7 36.4 5 48.3.6.5 1.3 1 2 1.5l59.3 63.7-9.4 41.7 24.3 6.3 15.5 55.8 36.8-10.9s-18.6-65.8-27.8-95.1c6.8-22.6 11.9-45.7 7.3-53-5.4-8.3-41.3-22.6-50.9-26.3zm397.9 192.36c36.36 0 65.84-29.48 65.84-65.85s-29.48-65.84-65.85-65.84-65.85 29.4-65.85 65.8 29.5 65.8 65.85 65.8zm265.9-16.68c36.36 0 65.84-29.48 65.84-65.85 0-36.37-29.48-65.85-65.85-65.85s-65.85 29.48-65.85 65.85c0 36.37 29.48 65.85 65.85 65.85zm-83.8-279.46c21.27 0 38.5-17.24 38.5-38.5s-17.23-38.5-38.5-38.5-38.5 17.24-38.5 38.5 17.25 38.5 38.5 38.5zm-181.9 325.75c52.74 0 95.5-42.8 95.5-95.5s-42.76-95.5-95.5-95.5-95.5 42.7-95.5 95.5 42.76 95.5 95.5 95.5zm265.7-16.8c52.73 0 95.5-42.8 95.5-95.5s-42.77-95.5-95.5-95.5-95.5 42.7-95.5 95.5c0 52.7 42.74 95.5 95.5 95.5zM1717.2 238.4c2.97 4.2 5.95 8.45 8.75 12.52l1.35-9.15-10.1-3.37zm-4.8-41.08l33.1-39.46c42.14 35.47 107.97 43.1 118.8 44.47.97-19.92 3.15-34.38 3.7-38.42-64.6-6-100.34-35.6-109.16-43.9-1.68-6.8-5.46-13.1-11.25-18-14.5-12.2-36.2-10.3-48.4 4.3l-52.2 62.2c-12.2 14.5-10.3 36.1 4.1 48.3l54.4 70.8 21.7 103.7 38.6-6.8s-6.7-30.4-13.2-59.3l2.1.3s16.3-94.5 10.1-106.7c-6.1-12-51.4-21.2-52.5-21.4zm394.25 194.33c36.37 0 65.85-29.5 65.85-65.86s-29.48-65.8-65.85-65.8-65.85 29.4-65.85 65.8 29.5 65.8 65.85 65.8zm265.9-13.7c36.37 0 65.85-29.47 65.85-65.84 0-36.3-29.48-65.8-65.85-65.8s-65.85 29.5-65.85 65.9c0 36.4 29.48 65.9 65.85 65.9zm-78.75-278.4c21.25 0 38.5-17.24 38.5-38.5s-17.25-38.5-38.5-38.5-38.5 17.24-38.5 38.5 17.23 38.5 38.5 38.5zM2106.88 421.3c52.74 0 95.5-42.77 95.5-95.5s-42.76-95.5-95.5-95.5-95.5 42.75-95.5 95.5c0 52.74 42.76 95.5 95.5 95.5zm265.7-13.8c52.73 0 95.5-42.75 95.5-95.5s-42.77-95.5-95.5-95.5-95.5 42.77-95.5 95.5 42.74 95.5 95.5 95.5zM2213.43 231c7.18 9.5 14.95 20.1 20.24 28.25l-.26-21.97-19.9-6.3zm2.04-38.7l32.97-36.62c41.2 35.5 107.1 43.05 117.87 44.42 1-19.92 3.2-34.38 3.7-38.42-62.5-4.75-96.4-33.14-106.8-43.48-1.4-6.85-5-13.32-10.6-18.36-14.1-12.68-35.7-11.54-48.4 2.54l-54.3 60.3c-12.1 13.5-11.6 34.05 1 46.88l51.7 71.78 8.4 102.46 38.4-2.5s-2.3-32.6-4.7-62.5l27.4.9s1.9-90.7-2.2-105.4c-5.6-11.1-46.8-20.6-54.1-22.2zm391.2 194.38c36.36 0 65.84-29.48 65.84-65.85s-29.4-65.85-65.8-65.85-65.8 29.48-65.8 65.85 29.5 65.85 65.9 65.85zm265.9-8.68c36.36 0 65.84-29.48 65.84-65.85 0-36.37-29.4-65.85-65.8-65.85s-65.8 29.48-65.8 65.85c0 36.37 29.5 65.85 65.9 65.85zm-71.8-278.46c21.27 0 38.5-17.24 38.5-38.5s-17.23-38.5-38.5-38.5-38.5 17.24-38.5 38.5 17.25 38.5 38.5 38.5zm-74.98 138.3c4.5 6.43 8.7 12.48 11.5 17.2l-1.6-13.07-10-4.12zm-9.9-46.45L2752 154c39.5 35.5 87.3 41.2 117.45 45.1.96-19.9 2.67-33.85 3.23-37.9-62.37-4.72-95.16-33.7-105.27-44.4-1.3-6.63-4.6-12.95-9.8-18-13.6-13.16-35.3-12.78-48.5.85L2652.8 158c-13.16 13.64-12.8 35.36.84 48.5 1 .97 2 1.84 3.04 2.65l47.02 63.96-2.43 33.2c-6.98-45.9-46.6-81-94.4-81-52.75 0-95.5 42.8-95.5 95.5s42.75 95.5 95.5 95.5c42.96 0 79.3-28.4 91.3-67.4l-1.52 20.8 38.7 2.8s4.3-53.7 5.77-86.1l5.1 42.3 31.66-4c6.14 46.9 46.2 83 94.7 83 52.74 0 95.5-42.7 95.5-95.5s-42.76-95.5-95.5-95.5c-44.06 0-81.16 29.9-92.17 70.5-3.2-28.6-7.8-64.3-11.2-69.1-5.1-7.4-46.1-23.6-53.2-26.4zm390.7 191.2c36.3 0 65.8-29.5 65.8-65.9s-29.5-65.9-65.9-65.9-65.9 29.5-65.9 65.8 29.5 65.8 65.8 65.8zm265.9-3.7c36.3 0 65.8-29.5 65.8-65.9s-29.5-65.9-65.9-65.9-65.9 29.4-65.9 65.8 29.5 65.8 65.8 65.8zm-65.7-279.4c21.2 0 38.5-17.3 38.5-38.5s-17.3-38.5-38.5-38.5-38.5 17.2-38.5 38.5 17.2 38.5 38.5 38.5zm-91.9 93.7l41.4-40c37.4 35.7 79.2 41.8 115.6 47.5 1.6-19.9 2.8-34.2 3.5-38.3-64.8-7.1-92.3-34.3-103-45.9-1.2-6.6-4.2-12.9-9.1-18-13.2-13.7-34.9-14-48.5-.9l-58.4 56.3c-13.7 13.1-14 34.9-.9 48.5 2 2.1 4.2 3.9 6.6 5.3l47.1 54.9-8.6 37.3c-7.8-44.9-47-79.1-94.1-79.1-52.8 0-95.5 42.8-95.5 95.5s42.7 95.5 95.5 95.5c40.4 0 75-25.1 88.9-60.6l30.9 7.7s10.3-43.8 15.7-73.1l11 57.4 26.9-5.6c11 40.5 48.1 70.3 92.1 70.3 52.7 0 95.5-42.8 95.5-95.5S3424.7 217 3372 217c-43.9 0-80.8 29.5-92 69.8-4.6-26.14-9.9-53.7-12.8-57.9-5-7.13-43.56-30.6-52.8-36.14zm391.7 186.4c36.3 0 65.8-29.5 65.8-65.9s-29.5-65.9-65.9-65.9-65.9 29.5-65.9 65.8 29.5 65.8 65.8 65.8zm265.9 2.3c36.3 0 65.8-29.5 65.8-65.9 0-36.4-29.5-65.9-65.9-65.9s-65.9 29.4-65.9 65.8 29.5 65.8 65.8 65.8zm-59.8-280.5c21.2 0 38.5-17.3 38.5-38.5s-17.3-38.5-38.5-38.5-38.5 17.2-38.5 38.5 17.2 38.5 38.5 38.5zm-98.9 95.1l46.2-43.2c36.9 37 78.9 43.9 115.5 50.3 2-19.9 3.4-34.2 4.2-38.2-66.2-8.4-92.9-37.2-102.9-48.5-1-6.6-4-12.9-8.8-18.1-12.9-13.9-34.6-14.6-48.5-1.7l-59.3 55.3c-13.9 12.9-14.7 34.6-1.7 48.5 2.2 2.4 4.7 4.4 7.4 6l51.5 45.2-16.2 48c-6.4-46.5-46.3-82.4-94.6-82.4-52.8 0-95.5 42.7-95.5 95.5s42.7 95.5 95.5 95.5c45.4 0 83.4-31.7 93.1-74.2l27.2 9.1s6.4-19 12.9-39.9l12.4 56.7 32.1-7.7c14.6 34.13 48.4 58.1 87.9 58.1 52.7 0 95.5-42.78 95.5-95.5S3925 220 3872.2 220c-48.4 0-88.42 36.1-94.62 82.86-5.1-26.8-11-55.35-13.9-59.53-5.3-7.64-45.23-42.8-50.1-47.1zm392.7 182c36.3 0 65.8-29.5 65.8-65.9s-29.5-65.9-65.9-65.9-65.9 29.5-65.9 65.8 29.5 65.8 65.8 65.8zm265.9 8.3c36.3 0 65.8-29.5 65.8-65.9s-29.5-65.9-65.8-65.9-65.9 29.4-65.9 65.8c0 36.3 29.5 65.8 65.8 65.8zm-54.8-282.4c21.2 0 38.5-17.3 38.5-38.5s-17.3-38.5-38.5-38.5-38.5 17.2-38.5 38.5 17.2 38.5 38.5 38.5zm54.7 311.9c52.7 0 95.5-42.8 95.5-95.5s-42.8-95.5-95.5-95.5-95.5 42.7-95.5 95.5 42.7 95.5 95.5 95.5zm-205.9-210.8c-1.9-1.5-3.8-3.1-5.4-4.9-12.7-14.1-11.6-35.8 2.5-48.5L4224 98c14.07-12.67 35.76-11.54 48.44 2.54 4.7 5.2 7.48 11.45 8.44 17.9 9.43 11.2 35.6 40.45 101.9 52.4-1 3.96-3.14 18.18-6.18 37.9-35.98-8.23-78.54-15.65-113.5-53.63l-43.27 39c20.36 12.1 46.05 28.7 48.26 36.7 1.3 4.9-2.7 19.8-8.5 36.8 7.2 24.9 20.7 101.4 20.7 101.4l-37 7.9-9.3-44.6-32.1-12.2c-3.7 49.4-44.9 88.3-95.3 88.3-52.8 0-95.5-42.7-95.5-95.5s42.7-95.5 95.5-95.5c52 0 94.3 41.6 95.4 93.3l15.6-42.2-51.4-62.7zm-4559.9 677c36.4 0 65.8-29.5 65.8-65.9s-29.5-65.8-65.9-65.8c-36.4 0-65.9 29.5-65.9 65.9 0 36.3 29.5 65.8 65.8 65.8zm265.9 13.3c36.4 0 65.8-29.5 65.8-65.9s-29.5-65.8-65.9-65.8c-36.4 0-65.9 29.5-65.9 65.8 0 36.4 29.4 65.9 65.8 65.9zm-51.8-285.5c21.2 0 38.5-17.3 38.5-38.5s-17.3-38.5-38.5-38.5-38.5 17.2-38.5 38.5 17.2 38.5 38.5 38.5zm-213.8 301.8c52.7 0 95.5-42.8 95.5-95.5s-42.8-95.5-95.5-95.5-95.5 42.7-95.5 95.5c0 52.7 42.7 95.5 95.5 95.5zm265.7 13.2c52.7 0 95.5-42.8 95.5-95.5s-42.8-95.5-95.5-95.5S-223 777-223 829.8s42.7 95.5 95.5 95.5zm-137.8-180l1-3.4-3.4-1.6 2.3 4.9zm-68.3-35.7c-1-.9-1.8-1.8-2.7-2.7-12.7-14.1-11.5-35.8 2.5-48.5l60.3-54.3c14.1-12.7 35.7-11.6 48.4 2.5 4.6 5.1 7.4 11.3 8.4 17.6 9.5 11.5 36.7 43.6 102.4 55.7-1 3.9-3.8 18-6.8 37.7-35.9-8.2-77.18-19.3-113.47-56.5l-39.3 35.6c14 5.4 46.7 19.2 49.6 29.8 2.55 9.3-11.58 54.4-20.6 81.5 5.25 34 10.5 77.8 10.5 77.8l-38 3.6-9-69.8-6.6-2.1 4.4-14.5-2.6-20.37-47.8-73.4zm441.2 174.9c36.3 0 65.8-29.5 65.8-65.9 0-36.4-29.5-65.9-65.9-65.9s-65.9 29.5-65.9 65.8 29.5 65.8 65.9 65.8zM373.5 902c36.4 0 65.84-29.48 65.84-65.85 0-36.37-29.5-65.85-65.9-65.85s-65.9 29.48-65.9 65.85c0 36.37 29.5 65.85 65.8 65.85zm-51.4-288.97c21.3 0 38.5-17.24 38.5-38.5s-17.2-38.5-38.5-38.5-38.5 17.24-38.5 38.5 17.24 38.5 38.5 38.5zM107.8 914.28c52.74 0 95.5-42.76 95.5-95.5s-42.76-95.5-95.5-95.5-95.5 42.76-95.5 95.5c0 52.75 42.8 95.5 95.5 95.5zm265.7 17.22c52.73 0 95.5-42.76 95.5-95.5s-42.77-95.5-95.5-95.5S278 783.26 278 836s42.74 95.5 95.5 95.5zM239.3 763.73l2.8-19.56-16.55-7.52c5.1 10 10.2 20.15 13.8 27.08zm-72.2-52.63l-1.32-1.4c-12.7-14.1-11.56-35.8 2.52-48.5l60.3-54.3c14.07-12.7 35.76-11.6 48.44 2.5 4.7 5.2 7.5 11.5 8.45 17.9 11.4 14.4 46 47.3 102.9 58.4-1.1 3.95-4.8 18.05-8.2 37.7-37.3-9.96-77.3-21.63-112.7-59.33l-37.8 34c16.6 6.37 50.3 20.13 50.8 27.44 4.6 4.8-14.9 104.8-14.9 104.8l-18.1-3.4c1 31.5 1.2 64.6 1.2 64.6l-38.1-.3-1.4-103.4L167 711zm440.55 177.4c36.37 0 65.85-29.5 65.85-65.9 0-36.4-29.46-65.9-65.83-65.9s-65.85 29.47-65.85 65.84c0 36.37 29.5 65.85 65.86 65.85zm265.9 18.3c36.37 0 65.85-29.5 65.85-65.9 0-36.4-29.46-65.9-65.83-65.9s-65.85 29.5-65.85 65.86c0 36.35 29.5 65.84 65.86 65.84zm-51.4-291c21.27 0 38.5-17.3 38.5-38.5s-17.23-38.5-38.5-38.5-38.5 17.2-38.5 38.5 17.25 38.5 38.5 38.5zm-214.3 302.3c52.75 0 95.5-42.8 95.5-95.5s-42.75-95.5-95.5-95.5-95.5 42.7-95.5 95.5 42.77 95.5 95.5 95.5zm137-142.9l.73-20.6-15.2-7.7c6.46 12.72 12.33 24.3 14.2 27.7.1.1.16.3.24.6zm-76-59.5c-.73-.7-1.44-1.4-2.12-2.17-12.68-14.1-11.54-35.8 2.54-48.5l60.2-54.3c14.1-12.66 35.77-11.53 48.45 2.55 4.64 5.15 7.43 11.33 8.4 17.7 10.3 13.8 45.07 47.74 103.2 60.14-1.1 3.93-5.08 17.97-8.8 37.56-36.9-10.53-77.34-23-112.05-60.9l-39.54 35.6c14.94 6.7 52.35 24.2 52.94 32 3.16 3.2.9 50.7-.84 80.63 10.85-40.8 48.03-70.8 92.23-70.8 52.7 0 95.5 42.8 95.5 95.5s-42.8 95.5-95.5 95.5-95.5-42.7-95.5-95.5v-.6l-35.5-1.6.7-20.4c-3.2 33.5-8.64 73.8-8.64 73.8l-38.07-5.3 12.03-97.1-39.8-73.7zm438.8 176.9c36.37 0 65.85-29.48 65.85-65.85 0-36.33-29.46-65.8-65.83-65.8s-65.85 29.47-65.85 65.84c0 36.4 29.5 65.8 65.86 65.8zm265.9 15.32c36.37 0 65.85-29.48 65.85-65.85 0-36.37-29.46-65.85-65.83-65.85s-65.85 29.48-65.85 65.85c0 36.4 29.5 65.87 65.86 65.87zM1318.15 617c21.3 0 38.5-17.23 38.5-38.5s-17.2-38.5-38.5-38.5-38.5 17.25-38.5 38.5 17.27 38.5 38.5 38.5zm-149.93 103.3c-.82-.7-1.62-1.46-2.4-2.26-13.15-13.63-12.77-35.34.86-48.5l58.36-56.37c13.63-13.16 35.34-12.8 48.5.84 4.93 5.1 7.95 11.4 9.1 17.8 23.94 27.9 60.65 50.1 106.18 61.3-1.05 4-6.12 17.3-9.5 37-33.2-9.5-79.67-25.1-113.74-60.6l-41.2 39.8c20.36 13.2 47.44 29 53.14 38.8 1.36 6.2 4.27 34.4 6.76 60.1 13.68-36 48.5-61.6 89.3-61.6 52.74 0 95.5 42.8 95.5 95.5s-42.76 95.5-95.5 95.5c-48.43 0-88.44-36-94.66-82.8l-28.6 2.4-4.6-55c-6.73 33.2-19.7 81-19.7 81L1191 874c-16.46 28.9-47.5 48.4-83.1 48.4-52.78 0-95.5-42.74-95.5-95.5s42.72-95.5 95.5-95.5c49.3 0 89.82 37.37 94.92 85.3l8.07-32.75-42.7-63.5zm438.47 179.38c36.3 0 65.8-29.48 65.8-65.85 0-36.37-29.5-65.85-65.9-65.85s-65.9 29.48-65.9 65.85c0 36.37 29.5 65.85 65.8 65.85zm265.9 7.32c36.3 0 65.8-29.48 65.8-65.85 0-36.37-29.5-65.85-65.9-65.85s-65.9 29.48-65.9 65.85c0 36.37 29.5 65.85 65.8 65.85zm-62.9-290.1c21.2 0 38.5-17.25 38.5-38.5s-17.3-38.5-38.5-38.5-38.5 17.23-38.5 38.5 17.2 38.5 38.5 38.5zm-141.1 110.85c-2.1-1.26-4-2.75-5.8-4.48-13.7-13.16-14-34.87-.9-48.5l56.3-58.37c13.1-13.63 34.8-14 48.5-.85 5.4 5.22 8.7 11.78 9.9 18.65 25.2 26.9 60.6 46.6 107.4 56.83-.9 4-5 18.67-9 37.5-34.3-9.04-78.8-22.1-114.7-57l-43.5 45.03c18.9 15.12 41.5 34.1 52.1 45.73 1.2 5.7 6.1 30.7 10.7 55.2 10.4-41.4 47.9-72.1 92.6-72.1 52.7 0 95.5 42.7 95.5 95.5s-42.8 95.5-95.5 95.5c-42.1 0-77.8-27.2-90.5-65l-29.3 5.5-10.7-56.3c-7.6 25-16.7 51-16.7 51l-27.5-9.4c-12.2 38.8-48.4 66.9-91.2 66.9-52.8 0-95.5-42.8-95.5-95.5s42.7-95.5 95.5-95.5c48.8 0 89 36.6 94.8 83.8l14.1-44.1-47.2-50.3zm438 176.93c36.3 0 65.8-29.48 65.8-65.85 0-36.37-29.5-65.85-65.9-65.85s-65.9 29.48-65.9 65.85c0 36.37 29.5 65.85 65.8 65.85zm266.9.32c36.3 0 65.8-29.48 65.8-65.85 0-36.37-29.5-65.85-65.9-65.85s-65.9 29.48-65.9 65.85c0 36.37 29.5 65.85 65.8 65.85zm-69.9-287.6c21.2 0 38.5-17.24 38.5-38.5s-17.3-38.5-38.5-38.5-38.5 17.24-38.5 38.5c0 21.27 17.2 38.5 38.5 38.5zm69.8 317.1c52.7 0 95.5-42.76 95.5-95.5s-42.8-95.5-95.5-95.5-95.5 42.76-95.5 95.5 42.7 95.5 95.5 95.5zm-158.8-216.8l41.8-44.8c36.4 33.85 81.1 45.4 115.4 53.82 3.6-18.9 7.5-33.65 8.3-37.66-46.9-9.4-82.7-27.43-108.4-53.75-1.4-6.7-4.8-13.1-10.2-18.1-13.9-12.9-35.6-12.1-48.5 1.7l-55.3 59.4c-13 13.9-12.2 35.6 1.7 48.5 2.2 2.2 4.7 3.9 7.4 5.3l50 53.3-15.3 42.1c-5.7-47.3-46-84-94.9-84-52.8 0-95.5 42.8-95.5 95.5s42.7 95.5 95.5 95.5c49.4 0 90-37.5 95-85.5l29.3 10.9 5.7-15 11.8 49.2 37.3-8.8s-18.9-77.9-26.2-108.6c2.2-8.6 3.3-15.3 2.5-18.4-2.4-9.3-29.8-28.4-47.8-40.2zm391.9 187.98c36.3 0 65.8-29.48 65.8-65.85 0-36.37-29.5-65.85-65.9-65.85s-65.9 29.48-65.9 65.85c0 36.37 29.5 65.85 65.8 65.85zm265.9-.68c36.3 0 65.8-29.48 65.8-65.85 0-36.37-29.5-65.85-65.9-65.85s-65.9 29.48-65.9 65.85c0 36.37 29.4 65.85 65.8 65.85zm-68.2-285.83c21.2 0 38.5-17.24 38.5-38.5s-17.3-38.5-38.5-38.5-38.5 17.24-38.5 38.5 17.2 38.5 38.5 38.5zm-197.5 316.1c52.7 0 95.5-42.75 95.5-95.5s-42.8-95.5-95.5-95.5-95.5 42.77-95.5 95.5 42.7 95.5 95.5 95.5zm265.7-.77c52.7 0 95.5-42.76 95.5-95.5s-42.8-95.5-95.5-95.5-95.5 42.76-95.5 95.5 42.7 95.5 95.5 95.5zm-154.2-220.4l37.8-40.6c38.5 37.37 96.7 49.34 116.3 53.02 2.7-19.76 5.5-33.8 6.4-37.8-66.4-11.9-98.3-43.58-107.7-52.97-1.4-6.6-4.8-12.87-10.1-17.83-13.8-12.92-35.5-12.16-48.5 1.7l-55.3 59.34c-12.9 13.86-12.2 35.57 1.7 48.48.6.56 1.2 1.1 1.8 1.6l2.3 2.85-.5.1.9.3 53.3 68.2-10.6 36.4 19.1 5.4 10.7 61.8 37.9-7.9s-12-63.9-18.5-95.1c9.1-24.8 17.3-52.3 12.2-60.3-5.3-8.2-39.6-23-49.4-27zm388.3 190.58c36.3 0 65.8-29.48 65.8-65.85 0-36.37-29.5-65.85-65.9-65.85s-65.9 29.48-65.9 65.85c0 36.37 29.5 65.85 65.8 65.85zm265.9.32c36.3 0 65.8-29.48 65.8-65.85 0-36.37-29.5-65.85-65.9-65.85s-65.9 29.48-65.9 65.85c0 36.37 29.5 65.85 65.8 65.85zM3306 620.2c21.25 0 38.5-17.25 38.5-38.5s-17.25-38.5-38.5-38.5-38.5 17.23-38.5 38.5 17.23 38.5 38.5 38.5zm-199.1 314.08c52.74 0 95.5-42.76 95.5-95.5s-42.76-95.5-95.5-95.5-95.5 42.76-95.5 95.5 42.76 95.5 95.5 95.5zm265.7.22c52.73 0 95.5-42.76 95.5-95.5s-42.77-95.5-95.5-95.5-95.5 42.76-95.5 95.5 42.74 95.5 95.5 95.5zm-151.44-181.93c3.3 5.27 6.5 10.5 9.4 15.3l1.9-10.5-11.3-4.8zm-.83-40.4l36.45-37.72c39.55 38.38 104.73 50.58 115.44 52.7 2.34-19.8 5.52-34.06 6.36-38.06-65.44-10.8-99.06-44-106.35-52-1.3-6.6-4.58-12.9-9.8-18-13.63-13.2-35.34-12.8-48.5.8l-56.37 58.3c-13.16 13.6-12.8 35.3.84 48.5l.16.1 48.52 74.3 13.8 105.8 38.24-5s-3.95-30.3-8.1-59.6l.83.2c1.12-9.6 27.3-93.2 18.3-106.1-7.38-10.7-36.06-19.2-49.82-24.7zm386.37 192.5c36.37 0 65.85-29.47 65.85-65.84 0-36.37-29.48-65.85-65.85-65.85s-65.85 29.48-65.85 65.85c0 36.37 29.5 65.85 65.85 65.85zm266.9.33c36.37 0 65.85-29.48 65.85-65.85 0-36.37-29.48-65.85-65.85-65.85s-65.85 29.48-65.85 65.85c0 36.37 29.48 65.85 65.85 65.85zm-65.4-282.97c21.27 0 38.5-17.24 38.5-38.5s-17.23-38.5-38.5-38.5-38.5 17.24-38.5 38.5 17.25 38.5 38.5 38.5zm-201.3 312.25c52.75 0 95.5-42.76 95.5-95.5s-42.75-95.5-95.5-95.5-95.5 42.76-95.5 95.5 42.77 95.5 95.5 95.5zm266.7.22c52.74 0 95.5-42.76 95.5-95.5s-42.76-95.5-95.5-95.5-95.5 42.76-95.5 95.5 42.75 95.5 95.5 95.5zm-137.3-156.58l1.15-21.65-18.78-6.65c7 11.33 13.95 22.53 17.64 28.3zM3657.2 725c-12.96-13.65-12.52-35.22 1.05-48.32l58.36-56.36c13.7-13.16 35.4-12.8 48.6.84 5.2 5.36 8.3 11.97 9.3 18.82 13.8 14.3 48.9 42.44 103.8 48.27-.7 4.02-3.1 18.4-4.8 38.27-37.8-6.65-77.5-15.98-115.9-50.28l-35.8 34.6c16.8 5.04 51.5 16.3 52.7 23.58 5 4.3-5.7 105.7-5.7 105.7l-23.1-1.93c2.4 31.4 4 63.9 4 63.9l-38.2 1.8-5.4-103.7-48.6-75.3zm449.47 179.68c36.37 0 65.85-29.48 65.85-65.85 0-36.37-29.48-65.85-65.85-65.85-36.37 0-65.85 29.48-65.85 65.85 0 36.37 29.5 65.85 65.85 65.85zm266.9.32c36.37 0 65.85-29.48 65.85-65.85 0-36.37-29.48-65.85-65.85-65.85-36.37 0-65.85 29.48-65.85 65.85 0 36.37 29.48 65.85 65.85 65.85zm-64.22-280.97c21.26 0 38.5-17.24 38.5-38.5s-17.24-38.5-38.5-38.5-38.5 17.24-38.5 38.5 17.23 38.5 38.5 38.5zM4240 779.2l-.94-16.25-13.15-6.03c6.7 10.45 12.3 19.38 14.1 22.3zm-79.5-50.53c-.95-.78-1.85-1.62-2.72-2.52-13.16-13.63-12.78-35.34.85-48.5l58.36-56.37c13.6-13.16 35.3-12.8 48.5.84 4.8 5.04 7.8 11.2 9 17.6 10.7 12.37 44.3 42.36 103.8 48.67-.7 4-3.2 18.4-4.9 38.2-39-6.9-76.2-13.2-115.4-49.8l-37.1 35.9c10.4 4.2 50.6 20.8 53.1 28.5 3 3.9 5.1 47 6.1 76.8 9.6-42.7 47.7-74.6 93.2-74.6 52.8 0 95.5 42.7 95.5 95.5s-42.7 95.5-95.5 95.5c-50.2 0-91.4-38.8-95.2-88.1l-34.3 1.8-2.6-44c-.8 34.8-5.9 92.7-5.9 92.7l-38.3-3.3 2.4-32.2c-10.2 41.9-47.9 73-92.9 73-52.8 0-95.5-42.8-95.5-95.5s42.7-95.5 95.5-95.5c50 0 91 38.4 95.1 87.3l2.6-35.2-44.2-67zM-393.34 1408.1c36.37 0 65.85-29.47 65.85-65.84 0-36.37-29.4-65.85-65.8-65.85s-65.8 29.5-65.8 65.9c0 36.4 29.5 65.9 65.9 65.9zm265.9.33c36.37 0 65.85-29.48 65.85-65.85 0-36.37-29.4-65.85-65.8-65.85s-65.8 29.48-65.8 65.85c0 36.36 29.5 65.85 65.9 65.85zm-62.4-279.97c21.27 0 38.5-17.24 38.5-38.5s-17.23-38.5-38.5-38.5-38.5 17.24-38.5 38.5 17.25 38.5 38.5 38.5zm-148.12 104.74c-1.5-1.1-2.9-2.35-4.24-3.73-13.15-13.63-12.77-35.34.86-48.5l58.36-56.37c13.63-13.16 35.34-12.8 48.5.84 5.2 5.38 8.3 12.03 9.3 18.9 31.3 31.76 57.72 41.45 102.9 47.6-.64 4.04-2.32 18.18-3.63 38.08-34.9-5.1-79.7-13.35-116.6-49.16l-40.5 39.04c20.7 12.07 47.2 26.9 53.8 36.57 1.7 5.8 6.5 31.34 11 55.82 12.6-38 48.4-65.4 90.6-65.4 52.7 0 95.5 42.7 95.5 95.5s-42.8 95.5-95.5 95.5c-45.5 0-83.5-31.8-93.2-74.4l-27.1 4.2-9.3-55.2c-5.5 32.8-15.5 76.3-15.5 76.3l-33.7-7.4c-15 33.1-48.4 56.1-87 56.1-52.8 0-95.5-42.8-95.5-95.5s42.7-95.5 95.5-95.5c48.2 0 88.1 35.7 94.6 82.2l7.5-36.9-47-58.8zm444.62 174.9c36.37 0 65.85-29.47 65.85-65.84 0-36.37-29.4-65.85-65.8-65.85s-65.8 29.5-65.8 65.9c0 36.4 29.5 65.9 65.9 65.9zm265.9.33c36.37 0 65.85-29.48 65.85-65.85 0-36.37-29.4-65.85-65.8-65.85s-65.8 29.48-65.8 65.85c0 36.36 29.5 65.85 65.9 65.85zm-61.78-279.47c21.25 0 38.5-17.24 38.5-38.5s-17.25-38.5-38.5-38.5-38.5 17.24-38.5 38.5c0 21.27 17.23 38.5 38.5 38.5zm-97.13 94.43l45.5-42.5c36.7 36.1 78.26 43 114.55 49.3 2-19.9 3.4-34.2 4.2-38.2-64.06-8.1-91.15-35.4-101.87-47.4-1-6.6-3.93-13-8.83-18.2-12.92-13.9-34.63-14.6-48.48-1.7l-59.34 55.3c-13.86 12.9-14.62 34.6-1.7 48.4 2.18 2.3 4.6 4.3 7.2 5.9l50.72 47.7-14.4 45c-7.18-45.7-46.68-80.6-94.34-80.6-52.74 0-95.5 42.7-95.5 95.5s42.76 95.5 95.5 95.5c44.7 0 82.25-30.8 92.64-72.3l26.8 9s7.6-22.5 14.57-45.4l12.7 56.3 30.37-7.2c14.14 35 48.48 59.7 88.6 59.7 52.74 0 95.5-42.8 95.5-95.5s-42.76-95.5-95.5-95.5c-47.1 0-86.25 34.1-94.08 79-5.04-26.3-10.78-53.5-13.6-57.6-4.75-6.8-39.94-35.7-51.23-44.9zm393 184.7c36.37 0 65.85-29.5 65.85-65.9 0-36.4-29.48-65.9-65.85-65.9-36.37 0-65.85 29.5-65.85 65.8s29.5 65.8 65.85 65.8zm266.9.3c36.37 0 65.85-29.5 65.85-65.9 0-36.4-29.48-65.9-65.85-65.9-36.37 0-65.85 29.5-65.85 65.8s29.48 65.8 65.85 65.8zm-63.78-280.5c21.25 0 38.5-17.3 38.5-38.5s-17.25-38.5-38.5-38.5-38.5 17.2-38.5 38.5c0 21.2 17.23 38.5 38.5 38.5zm63.77 309.9c52.74 0 95.5-42.8 95.5-95.5s-42.76-95.5-95.5-95.5-95.5 42.7-95.5 95.5 42.75 95.5 95.5 95.5zM663.7 1234.2c-2.55-1.57-4.96-3.52-7.12-5.84-12.92-13.85-12.16-35.56 1.7-48.48l59.34-55.34c13.87-12.92 35.57-12.17 48.5 1.7 4.53 4.86 7.4 10.7 8.57 16.78 8.2 9.15 33.7 38.27 103.7 49.63-.9 3.98-2.8 18.23-5.5 38-36.3-7.63-81.2-15.45-114.8-50.05l-43.4 40.45c20.4 12.1 46.5 28.88 48.7 36.98 1.1 4.08-1.2 15.1-5 28.5 7.6 22.1 25.2 105 25.2 105l-37 7.9-10.7-46.08c-1.7 4.68-2.8 7.47-2.8 7.47l-31.2-11.4c-3.7 49.37-45 88.27-95.3 88.27-52.8 0-95.5-42.8-95.5-95.5s42.7-95.5 95.5-95.5c49.8 0 90.6 38 95.1 86.7l14.2-43-52.5-56.3zm442.95 174.9c36.37 0 65.85-29.48 65.85-65.85 0-36.37-29.5-65.85-65.86-65.85s-65.85 29.5-65.85 65.87c0 36.37 29.5 65.85 65.8 65.85zm265.9-.68c36.37 0 65.85-29.48 65.85-65.85 0-36.37-29.5-65.85-65.86-65.85s-65.85 29.48-65.85 65.85c0 36.36 29.4 65.85 65.8 65.85zm-64.8-282.23c21.27 0 38.5-17.3 38.5-38.5s-17.23-38.5-38.5-38.5-38.5 17.2-38.5 38.5 17.24 38.5 38.5 38.5zm-200.9 312.5c52.75 0 95.5-42.8 95.5-95.5s-42.75-95.5-95.5-95.5-95.5 42.7-95.5 95.5 42.77 95.5 95.5 95.5zm265.7-.8c52.74 0 95.5-42.8 95.5-95.5s-42.76-95.5-95.5-95.5-95.5 42.7-95.5 95.5 42.75 95.5 95.5 95.5zm-153.66-221l38.6-37.3c44.4 41.2 104.7 48.5 115.5 50.3 1.6-19.9 4.9-33.9 5.6-37.9-61.9-7.8-95.6-39.4-104.4-48.8-1-6.8-4.1-13.4-9.3-18.7-13.2-13.7-34.9-14-48.5-.9l-58.4 56.3c-13.7 13.1-14 34.9-.9 48.5.7.8 1.5 1.5 2.3 2.2l54.5 74.1 1.6 8.4-6.8 25.5 12.1 3.1 12.5 66 37.9-6.3s-9.9-54.9-16.5-87.7c9.1-27.1 19.1-62.1 13.2-71.4-5.1-7.9-38.2-21.3-49.43-25.7zm387.7 191.2c36.3 0 65.8-29.5 65.8-65.9s-29.5-65.9-65.9-65.9-65.9 29.5-65.9 65.8 29.5 65.8 65.8 65.8zm265.9.3c36.3 0 65.8-29.5 65.8-65.9 0-36.4-29.5-65.9-65.9-65.9s-65.9 29.5-65.9 65.8 29.5 65.8 65.8 65.8zm-66.6-284.8c21.2 0 38.5-17.3 38.5-38.5s-17.3-38.5-38.5-38.5-38.5 17.2-38.5 38.5 17.2 38.5 38.5 38.5zm-199.1 314.1c52.7 0 95.5-42.8 95.5-95.5s-42.8-95.5-95.5-95.5-95.5 42.7-95.5 95.5 42.7 95.5 95.5 95.5zm265.7.2c52.7 0 95.5-42.8 95.5-95.5s-42.8-95.5-95.5-95.5-95.5 42.7-95.5 95.5 42.7 95.5 95.5 95.5zm-153.4-184.8c5.1 7.8 10.2 15.6 14.4 22.3l1.7-15.8-16.1-6.6zm2.3-38.7l35.3-36.5c39.5 38.4 104.7 50.6 115.4 52.7 2.3-19.8 5.5-34 6.3-38-65.5-10.8-99.1-44-106.4-52-1.3-6.6-4.6-12.9-9.8-18-13.7-13.2-35.4-12.8-48.5.8l-56.4 58.3c-13.1 13.6-12.8 35.3.9 48.5l.2.2 47.5 72.9 11.2 106.2 38.4-3.6s-3.2-33.6-6.5-64.5c4.5.7 9.1 1.5 13.2 2.2.4-9.7 19.4-94.8 9.5-107-8.2-10.2-36.9-17.6-50.5-22.4zm385.2 193.7c36.3 0 65.8-29.5 65.8-65.9 0-36.4-29.5-65.9-65.9-65.9s-65.9 29.5-65.9 65.8 29.5 65.8 65.8 65.8zm266.9.3c36.3 0 65.8-29.5 65.8-65.9 0-36.3-29.5-65.8-65.9-65.8s-65.9 29.5-65.9 65.8 29.4 65.8 65.8 65.8zm-69.3-286.3c21.2 0 38.5-17.3 38.5-38.5s-17.3-38.5-38.5-38.5-38.5 17.2-38.5 38.5 17.2 38.5 38.5 38.5zm-197.4 315.8c52.7 0 95.5-42.8 95.5-95.5s-42.8-95.5-95.5-95.5-95.5 42.7-95.5 95.5 42.7 95.5 95.5 95.5zm266.7 0c52.7 0 95.5-42.8 95.5-95.5s-42.8-95.5-95.5-95.5-95.5 42.7-95.5 95.5 42.7 95.5 95.5 95.5zm-134.1-152.1l-.2-23-18-7.4c7.9 12.6 15.1 24.2 17.2 27.6.4.6.7 1.5.9 2.8zm-80-54.7c-.6-.5-1.1-1-1.6-1.5-13.7-13.1-14-34.8-.9-48.5l56.3-58.3c13.1-13.6 34.9-14 48.5-.8 5.2 5 8.5 11.4 9.8 18 15.7 14.6 46.9 41.3 107.8 52.1-.7 4-5.1 18.2-6.7 38-26.8-6.1-74.1-15-116.4-53.2l-36 37.2c12.2 4.5 51.4 19.4 53.8 26.9 5.5 8.5 3.4 105.2 3.4 105.2l-36.1-.1c-.1 28.8-.8 56.6-.8 56.6l-38.4-.6 2.1-101.6-45.2-69.5zm447.1 177.9c36.3 0 65.8-29.5 65.8-65.9 0-36.4-29.5-65.9-65.9-65.9s-65.9 29.5-65.9 65.8c0 36.4 29.5 65.9 65.8 65.9zm266.9-1.7c36.3 0 65.8-29.5 65.8-65.9s-29.5-65.9-65.9-65.9-65.9 29.5-65.9 65.8c0 36.4 29.4 65.8 65.8 65.8zm-72.4-287c21.2 0 38.5-17.3 38.5-38.5s-17.3-38.5-38.5-38.5-38.5 17.2-38.5 38.5 17.2 38.5 38.5 38.5zm-142.1 109.4c-.6-.5-1.1-1-1.6-1.5-13.7-13.2-14-34.9-.9-48.5l56.3-58.3c13.1-13.6 34.9-14 48.5-.8 5.1 4.9 8.4 11.1 9.7 17.6 25.4 25.6 62.5 45.1 107.4 53.6-.8 4-5.2 17.6-7.5 37.4-33.2-7.7-79.7-20.6-115.4-53.3l-39.4 40.8c21.4 11.3 49 24.7 55.4 33.7 2 6.3 6.7 36.2 10.7 62.5 12.1-38.9 48.3-67.1 91.2-67.1 52.7 0 95.5 42.7 95.5 95.5s-42.8 95.5-95.5 95.5c-47.6 0-87.1-34.8-94.3-80.3l-29.3 4-7.4-52.6c-4 35.1-12.9 85.9-12.9 85.9l-38.3-6.4c-16 30.3-47.9 51-84.6 51-52.8 0-95.5-42.8-95.5-95.5s42.7-95.5 95.5-95.5c47.8 0 87.3 35.1 94.4 80.9l5.7-33.8-48-65z" clip-rule="evenodd"/></svg>
