<svg xmlns="http://www.w3.org/2000/svg" width="480" height="480"><path fill="#fff" fill-rule="evenodd" d="M-4125.3 405.6c-36.5 0-67.3-30.8-67.3-67.4s30.8-67.3 67.4-67.3c36.5 0 67.3 30 67.3 67s-30 67-67 67zm0-163.6c-53.8 0-96.2 42.4-96.2 96.3s42.4 96.2 96.3 96.2 96.2-42.4 96.2-96.3-42.4-96.2-96.3-96.2zm-111.6-75l16 15.3c25 25 58 40.4 98 40.4v-38.5c-29 0-52-11.5-69-28.8l-36-36.6c-9-7.7-19-11.6-31-11.6s-21 4-27 11.6l-54 54c-7 7.6-11 17.2-11 26.8 0 11.6 4 21.2 12 27l62 54v96h38v-119l-43-44.6 46-46zm-157 238.6c-36 0-67-30.8-67-67.4s31-67.3 68-67.3 68 30 68 67-31 67-67 67zm0-163.6c-54 0-96 42.4-96 96.3s43 96.2 97 96.2 96-42.4 96-96.3-43-96.2-97-96.2zm202-125c22 0 39-17.5 39-38.6s-17-38.4-39-38.4-38 17-38 38 18 38.5 39 38.5zm300 285.7c37 0 66-29.5 66-66s-29-65.7-66-65.7-66 29.5-66 65.8 30 66 66 66zm266-7.7c36 0 66-29.5 66-65.8 0-36.4-29-66-66-66s-66 29.6-66 66c0 36.3 30 65.8 66 65.8zm-78-286.3c22 0 39-17.2 39-38.5s-17-38.5-38-38.5-39 17.3-39 38.5 18 38.5 39 38.5zm-132 119c-2-1.2-4-2.7-6-4.4-14-12.4-16-34-3-48.4l54-62c13-15 34-16 49-4 5 4 9 10 11 17 2 1 39 41 111 51 0 4-4 18-6 38-11-2-77-14-118-51l-40 46c4 3 49 34 54 41 3 3 9 28 15 53 11-42 48-73 93-73 53 0 96 42 96 95s-42 95-95 95c-41 0-77-27-90-64l-27 7-15-57c-6 29-14 60-14 60l-28-7c-12 39-48 68-91 68-53 0-95-43-95-96s43-96 96-96c47 0 85 33 94 77l9-41-48-50z" clip-rule="evenodd"/><circle cx="-3212.7" cy="66.2" r="38.5" fill="#fff" fill-rule="evenodd" clip-rule="evenodd"/><path fill="#fff" fill-rule="evenodd" d="M-3127.4 226.5c-52.8 0-95.5 42.8-95.5 95.5 0 2 0 4 1 6-8-28.3-19-61.2-21-66.3v-.5c1-6.8 1-11.8-1-13.8-7-8.7-36-28-49-36l42-47.6c42 35.8 109 44.8 120 46.4 2-20 5-34 5-38-63-6.8-101-37.8-110-45.7-1-7-5-13.3-11-18.2-14-12.4-35-11-48 3.4l-54 61.3c-12 14.2-11 36 4 48.3 2 1.8 4 3.3 7 4.5l5 3.6 51 45.3-13 43.5c-9-44-47-77-94-77-53 0-96 42.8-96 95.6s43 95.5 96 95.5c50 0 91-38 95-86.6l29 8.2 8-24 14 51 37-12c17 28 48 47 83 47 53 0 96-43 96-96s-43-96-95-96zm-266 176.2c-36.3 0-65.8-29.5-65.8-66 0-36.2 29.5-65.7 66-65.7s65.7 29.5 65.7 65.8c0 36.4-29.5 66-65.8 66zm266-14.7c-36.4 0-66-29.5-66-65.8 0-36.4 29.6-66 66-66s65.8 29.6 65.8 66c0 36.3-29.5 65.8-65.8 65.8zm387-157c-5.3-8.4-41.2-22.7-50.8-26.4l35.7-44c42.3 34.4 108.6 42.2 119.3 43.5 1-19 3.7-34 4.3-38-62-5-101-35-110-43-2-7-5-13-11-18-14-12-36-9-48 5l-51 63c-12 15-9 37 5 49l2 2 60 64-9 42 25 7 15 56 37-11s-18-66-28-95c7-23 12-46 8-53zm-152.7 9.3c-53 0-96 42.7-96 95.5s42 95.5 95 95.5 95-42.8 95-95.5-43-95.5-96-95.5zm-1 161.4c-37 0-66-29.5-66-66 0-36.2 29-65.7 66-65.7s66 29.5 66 65.8c0 36.4-30 66-66 66z" clip-rule="evenodd"/><circle cx="-2714.7" cy="63.7" r="38.5" fill="#fff" fill-rule="evenodd" clip-rule="evenodd"/><path fill="#fff" fill-rule="evenodd" d="M-2627.4 221.5c-52.8 0-95.5 42.8-95.5 95.5s43 95.5 96 95.5 96-42.8 96-95.5-42-95.5-95-95.5zm0 161.5c-36.4 0-66-29.5-66-65.8 0-36.4 29.6-66 66-66s65.8 29.6 65.8 66c0 36.3-29.5 65.8-65.8 65.8zm234.3-147.4c-53 0-96 42.7-96 95.5s42 96 95 96 95-43 95-95-43-95-96-95zm-1 161.4c-37 0-66-29.5-66-66s29-65.7 66-65.7 66 29.4 66 65.8-30 66-66 66z" clip-rule="evenodd"/><circle cx="-2211.2" cy="62.3" r="38.5" fill="#fff" fill-rule="evenodd" clip-rule="evenodd"/><path fill="#fff" fill-rule="evenodd" d="M-2127.4 218.8c-52.8 0-95.5 42.7-95.5 95.5s43 95.5 96 95.5 96-42.8 96-95.5-42-95.5-95-95.5zm0 161.5c-36.4 0-66-29.5-66-66 0-36.2 29.6-65.7 66-65.7s65.8 29.5 65.8 65.8c0 36.4-29.5 66-65.8 66z" clip-rule="evenodd"/><path fill="#fff" fill-rule="evenodd" d="M-2235 218.8c-6.2-12-51.5-21.2-52.6-21.5l33-39.4c42.3 35 108 43 119 44 1-20 3-35 3.6-39-64.6-6-100.3-36-109-44-1.8-7-5.6-13-11.4-18-14.5-12-36-11-48.3 4l-52.2 62c-12 14-10 36 5 48l55 70 22 104 39-7-13-59h2s16-95 10-107zm-39 32l-8.8-12.4 10 3.4-1.2 9.2z" clip-rule="evenodd"/><circle cx="-1706.2" cy="61" r="38.5" fill="#fff" fill-rule="evenodd" clip-rule="evenodd"/><path fill="#fff" fill-rule="evenodd" d="M-1893 230.3c-53 0-95.6 42.7-95.6 95.5s42.7 95.5 95.5 95.5 95-42.8 95-95.5-43-95.5-96-95.5zm-.3 161.4c-36.4 0-66-29.5-66-66 0-36.2 29.6-65.7 66-65.7s65.8 29.5 65.8 65.8c0 36.4-29.5 66-65.8 66zm266-175.2c-53 0-95.6 42.8-95.6 95.5s43 95.5 96 95.5 96-42.8 96-95.5-42-95.5-95-95.5zm0 161.5c-36.5 0-66-29.5-66-65.8 0-36.4 29.5-66 66-66s65.7 29.6 65.7 66c0 36.3-29.5 65.8-65.8 65.8z" clip-rule="evenodd"/><path fill="#fff" fill-rule="evenodd" d="M-1784.5 192.3l33-36.6c41.2 35.5 107 43 117.8 44.4 1-19 3.2-34 3.7-38-62.5-5-96.4-33-106.8-43-1.5-7-5-13-10.6-18-14-12-35.8-11-48.5 3l-54 61c-12 14-11 34 1 47l52 72 9 103 39-2-4-62 28 1s2-91-2-106c-5-11-47-21-54-22zm-2 38.7l20 6.3.2 22c-5.3-8.2-13-18.8-20.3-28.3z" clip-rule="evenodd"/><circle cx="-1199.2" cy="61" r="38.5" fill="#fff" fill-rule="evenodd" clip-rule="evenodd"/><path fill="#fff" fill-rule="evenodd" d="M-1127.4 216.5c-44 0-81.2 29.8-92.2 70.4-3.2-29-8-65-11.2-70-5-8-46-24-53.2-27l36-38c39.6 35 87.4 41 117.5 45 1-20 2.7-34 3.2-38-62.3-5-95-34-105.2-44-1.3-7-4.6-13-9.8-18-13.7-14-35.4-13-48.6 0l-56 58c-13 13-12 35 1 48 1 1 2 2 3 2l47 64-2 33c-7-46-46-81-94-81-53 0-95 42-95 95s43 95 96 95c43 0 79-28 91-67l-1 20 39 3s5-54 6-86l5 42 32-4c6 46 46 83 95 83 53 0 96-43 96-96s-42-96-95-96zm-266 170.2c-36.3 0-65.8-29.5-65.8-66 0-36.2 29.5-65.7 66-65.7s65.7 29.5 65.7 65.8c0 36.4-29.5 66-65.8 66zM-1274 238l10 4 1.6 13c-3-4.7-7-10.7-11.6-17.2zm146.8 140c-36.4 0-66-29.5-66-65.8 0-36.4 29.6-66 66-66s65.8 29.6 65.8 66c0 36.3-29.5 65.8-65.8 65.8z" clip-rule="evenodd"/><circle cx="-693.2" cy="61" r="38.5" fill="#fff" fill-rule="evenodd" clip-rule="evenodd"/><path fill="#fff" fill-rule="evenodd" d="M-627.4 217.5c-44 0-80.8 29.5-92 69.8-4.6-26-10-53.7-12.8-58-5-7-43.6-30.5-52.8-36l41.4-40c37.4 35.6 79.2 41.8 115.7 47.5 2-20 3-34.2 4-38.3-65-7-92-34.2-103-45.8-1-6.6-4-13-9-18-13-13.6-35-14-48-.8l-58 56c-13 13-14 35-1 48 2 2 4 4 7 5l47 55-8 37c-7-45-47-79-94-79-53 0-95 42-95 95s43 95 96 95c41 0 75-26 89-61l31 7s11-44 16-73l11 57 27-6c11 40 48 70 92 70 53 0 96-43 96-96s-43-96-96-96zm-266 165.2c-36.3 0-65.8-29.5-65.8-66 0-36.2 29.5-65.7 66-65.7s65.7 29.5 65.7 65.8c0 36.4-29.5 66-65.8 66zm266-3.7c-36.4 0-66-29.5-66-65.8 0-36.4 29.6-66 66-66s65.8 29.6 65.8 66c0 36.3-29.5 65.8-65.8 65.8z" clip-rule="evenodd"/><circle cx="-187.2" cy="63" r="38.5" fill="#fff" fill-rule="evenodd" clip-rule="evenodd"/><path fill="#fff" fill-rule="evenodd" d="M-127.4 220.5c-48.5 0-88.5 36-94.7 82.8-6-26.8-11-55.3-14-59.5-6-7.7-46-42.8-50-47l46-43.2c37 37 79 44 115 50.2 2-19.8 3-34 4-38-67-8.5-93-37.3-103-48.6-1-6.5-4-13-9-18-13-14-35-14.7-49-1.8l-60 55.4c-14 13-15 34.6-2 48.5 2 2.4 5 4.4 7 6l51 45.3-16 48c-7-46.5-47-82.3-95-82.3-53 0-96 42.7-96 95.5s43 95.5 95 95.5c45 0 83-31.8 93-74.3l27 9.2 12-40 13 56.8 32-7.6c14 34 48 58 88 58 53 0 96-42.7 96-95.4s-43-95.5-96-95.5zm-266 159.2c-36.3 0-65.8-29.5-65.8-66 0-36.2 29.5-65.7 66-65.7 36.2 0 65.7 29.5 65.7 65.8 0 36.4-29.5 66-65.8 66zm266 2.3c-36.4 0-66-29.5-66-65.8 0-36.4 29.6-66 66-66s65.8 29.6 65.8 66c0 36.3-29.5 65.8-65.8 65.8z" clip-rule="evenodd"/><circle cx="317.8" cy="66" r="38.5" fill="#fff" fill-rule="evenodd" clip-rule="evenodd"/><path fill="#fff" fill-rule="evenodd" d="M268 230.8c-2-8-27.8-24.6-48-36.7l43-39c35 38 77.7 46 113.6 54 3-20 5.2-34 6.2-38-66.3-12-92.5-41-102-52-1-6-3.7-12-8.3-18-12.7-14-34.5-15-48.5-2l-60.3 54c-14 13-15.2 35-2.5 49 1.7 2 3.5 4 5.4 5l51.4 62-15.7 42c-1-51-43.4-93-95.4-93-53 0-96 43-96 96s43 95 96 95c50 0 91-39 95-88l32 12 9 45 37-8s-13-77-21-102c5-17 9-32 8-37zm-161.3 148c-36.4 0-66-29.6-66-66 0-36.3 29.6-65.8 66-65.8s65.8 29.5 65.8 65.8c0 36.4-29.5 66-65.8 66z" clip-rule="evenodd"/><path fill="#fff" fill-rule="evenodd" d="M372.6 225.5c-52.8 0-95.5 42.8-95.5 95.5s43 95.5 96 95.5 95-42.8 95-95.5-42-95.5-95-95.5zm0 161.5c-36.4 0-66-29.5-66-65.8 0-36.4 29.6-66 66-66s65.8 29.6 65.8 66c0 36.3-29.5 65.8-65.8 65.8zM-4393 721.3c-53 0-95.6 42.7-95.6 95.5s42.7 95.5 95.5 95.5 95-42.8 95-95.5-43-95.5-96-95.5zm-.3 161.4c-36.4 0-66-29.5-66-66 0-36.2 29.6-65.7 66-65.7s65.8 29.5 65.8 65.8c0 36.4-29.5 66-65.8 66z" clip-rule="evenodd"/><circle cx="-4179.2" cy="572" r="38.5" fill="#fff" fill-rule="evenodd" clip-rule="evenodd"/><path fill="#fff" fill-rule="evenodd" d="M-4127.4 734.5c-52.8 0-95.5 42.8-95.5 95.5s43 95.5 96 95.5 96-42.8 96-95.5-42-95.5-95-95.5zm0 161.5c-36.4 0-66-29.5-66-65.8 0-36.4 29.6-66 66-66 36.3 0 65.8 29.6 65.8 66 0 36.3-29.5 65.8-65.8 65.8z" clip-rule="evenodd"/><path fill="#fff" fill-rule="evenodd" d="M-4224 726.8c-3-10.6-35.6-24.3-49.6-29.8l39.4-35.5c36.3 37.2 77.5 48.3 113.4 56.5 3-19.7 5.8-33.8 6.8-37.8-65.8-12-93-44.2-102.4-55.7-1-6.3-3.8-12.5-8.4-17.6-12.7-15-34.4-16-48.5-3l-60.3 54c-14 12-15.2 34-2.5 48 0 1 1 2 2 2l48 73 2 20-5 14 6 2 9 69 38-4s-6-44-11-78c9-27 23-73 20-82zm-41.2 18.7l-2.4-5 3.4 1.6-1 4z" clip-rule="evenodd"/><g fill="#fff" fill-rule="evenodd" clip-rule="evenodd"><path d="M-3719.3 725.6c-.5-7.3-34.2-21-50.8-27.4l37-34c35 37.7 75 49.3 112 59.3 3-19.7 7-33.8 8-37.7-57-11-92-44-103-58.4-1-6.4-4-12.7-9-18-13-14-35-15-49-2.4l-61 54.3c-14 12.6-15 34.3-3 48.4l1 1.4 42 77 1 104 38 1-2-64 18 4s20-100 15-105zm-41.3 38c-3.6-6.8-8.7-17-13.8-27l16.5 7.6-2 19.5z"/><path d="M-3892 723.3c-53 0-95.6 42.7-95.6 95.5s42.7 95.5 95.5 95.5 95-42.8 95-95.5-43-95.5-96-95.5zm-.3 161.4c-36.4 0-66-29.5-66-66 0-36.2 29.6-65.7 66-65.7s65.8 29.5 65.8 65.8c0 36.4-29.5 66-65.8 66z"/><circle cx="-3677.8" cy="574.5" r="38.5"/><path d="M-3626.4 740.5c-52.8 0-95.5 42.8-95.5 95.5s43 95.5 96 95.5 96-42.8 96-95.5-42-95.5-95-95.5zm0 161.5c-36.4 0-66-29.5-66-65.8 0-36.4 29.6-66 66-66s65.8 29.6 65.8 66c0 36.3-29.5 65.8-65.8 65.8z"/></g><g fill="#fff" fill-rule="evenodd" clip-rule="evenodd"><path d="M-3392 727c-53 0-95.6 43-95.6 95.6S-3445 918-3392 918s95.4-42.6 95.4-95.4-42.8-95.5-95.5-95.5zm-.3 161.5c-36.4 0-66-29.5-66-65.8s29.6-66 66-66 65.8 29.6 65.8 66-29.5 65.8-65.8 65.8z"/><circle cx="-3177.8" cy="577.4" r="38.5"/><path d="M-3126.4 745.3c-44.2 0-81.4 30-92.3 70.8 1.8-29 4-77 .8-80 0-8-37-25-52-32l40-35c35 38 75 51 112 61 4-19 8-33 9-37-58-12-92-46-103-60-1-6-4-12-8-17-12-14-34-15-48-2l-60 55c-14 13-15 34-2 49l2 2 40 74-12 97 38 5s6-40 9-73v20l36 1v1c0 53 43 96 96 96s95-43 95-96c0-52-42-95-95-95zm-128.7 30l-1-.7-14-27.7 15 7-1 20zm128 131.5c-37 0-66-29.4-66-65.8s29-66 66-66 66 29.6 66 66-30 65.8-66 65.8z"/></g><g fill="#fff" fill-rule="evenodd" clip-rule="evenodd"><circle cx="-2681.8" cy="578.5" r="38.5"/><path d="M-2626.4 746.5c-40.8 0-75.6 25.6-89.3 61.6-2.5-25-5.4-53-6.8-60-5.7-9-32.8-25-53-38l41-40c34 36 80.6 51 113.8 61 3.4-19 8.5-33 9.5-37-45.5-11-82.2-33-106.2-61-1-6-4-13-9-18-13.2-13-35-14-48.6 0l-58.3 57c-13.7 13-14 35-1 49l2.5 2 42.7 64-8 33c-6-48-46-85-95-85-53 0-96 43-96 96s43 96 95 96c35 0 66-19 83-48l35 9s13-48 19-81l4 55 28-2c6 47 46 83 94 83 52 0 95-43 95-95s-43-95-96-95zm-266 146.2c-36.3 0-65.8-29.5-65.8-66 0-36.2 29.5-65.7 66-65.7s65.7 29.5 65.7 65.8c0 36.4-29.5 66-65.8 66zm266 15.3c-36.4 0-66-29.5-66-65.8 0-36.4 29.6-66 66-66s65.8 29.6 65.8 66c0 36.3-29.5 65.8-65.8 65.8z"/></g><g fill="#fff" fill-rule="evenodd" clip-rule="evenodd"><path d="M-2127.4 745.5c-44.7 0-82.2 30.6-92.6 72-4.7-24.4-9.5-49.4-10.8-55.2-10.6-11.6-33.3-30.6-52.2-45.7l43.5-45c36 34.8 80.5 48 114.8 57 4-19 8-33.6 9-37.6-46.8-10.2-82.2-30-107.4-56.8-2-7-5-13.4-10-18.6-14-13.2-36-12.8-49 .8l-57 58.4c-13 13.6-13 35.3 1 48.5 1 1.7 3 3.2 5 4.5l47 50.2-14 44c-6-47-46-83.7-95-83.7-53 0-96 42.8-96 95.5s42 95.5 95 95.5c42 0 79-28 91-67l27 9.5s9-26 17-51l10 56.2 29-5.4c13 37.7 48 65 91 65 52 0 95-43 95-95.6 0-52.7-43-95.5-96-95.5zm-266 154.2c-36.3 0-65.8-29.5-65.8-66 0-36.2 29.5-65.7 66-65.7s65.7 29.5 65.7 65.8c0 36.4-29.5 66-65.8 66zm266 7.3c-36.4 0-66-29.5-66-65.8 0-36.4 29.6-66 66-66s65.8 29.6 65.8 66c0 36.3-29.5 65.8-65.8 65.8z"/><circle cx="-2190.3" cy="578.4" r="38.5"/></g><g fill="#fff" fill-rule="evenodd" clip-rule="evenodd"><circle cx="-1696.3" cy="578.9" r="38.5"/><path d="M-1737.5 758c-2.4-9.4-29.8-28.6-47.8-40.3l41.8-44.8c36.4 33 81.2 45 115.4 53 3-19 7-34 8-38-47-10-83-28-109-54-2-7-5-13-10-19-14-13-36-12-49 2l-56 59c-13 14-12 35 1 48 2 2 5 4 7 5l50 53-16 42c-5-47-46-84-95-84-53 0-96 43-96 95s42 96 95 96c49 0 90-38 95-86l29 11 5-15 12 49 37-9-26-109c2-9 3-16 2-19zm-155.8 146.7c-36.4 0-66-29.5-66-66 0-36.2 29.6-65.7 66-65.7s65.8 29.5 65.8 65.8c0 36.4-29.5 66-65.8 66z"/><path d="M-1626.4 743.5c-52.8 0-95.5 42.8-95.5 95.5s43 95.5 96 95.5 96-42.8 96-95.5-42-95.5-95-95.5zm0 161.5c-36.4 0-66-29.5-66-65.8 0-36.4 29.6-66 66-66s65.8 29.6 65.8 66c0 36.3-29.5 65.8-65.8 65.8z"/></g><g fill="#fff" fill-rule="evenodd" clip-rule="evenodd"><path d="M-1127.4 743.5c-52.8 0-95.5 42.8-95.5 95.5s43 95.5 96 95.5 96-42.8 96-95.5-42-95.5-95-95.5zm0 161.5c-36.4 0-66-29.5-66-65.8 0-36.4 29.6-66 66-66s65.8 29.6 65.8 66c0 36.3-29.5 65.8-65.8 65.8zM-1393 744.3c-53 0-95.6 42.7-95.6 95.5s42.7 95.5 95.5 95.5 95-42.8 95-95.5-43-95.5-96-95.5zm-.3 161.4c-36.4 0-66-29.5-66-66 0-36.2 29.6-65.7 66-65.7s65.8 29.5 65.8 65.8c0 36.4-29.5 66-65.8 66z"/><circle cx="-1195.6" cy="580.7" r="38.5"/><path d="M-1232.3 741c-5.3-8-39.6-22.8-49.4-27l38-40.5c38.4 37.4 96.6 49.3 116.2 53 2.7-19.7 5.5-33.8 6.4-37.8-67-12-99-43.6-108-53-2-6.6-5-12.8-10-17.8-14-13-36-13-49 1l-56 59c-13 13-12 35 1 48l1 1 2 3h-1 1l53 68-11 36 19 5 11 61 37-8s-12-64-19-95c9-25 17-53 12-61z"/></g><g fill="#fff" fill-rule="evenodd" clip-rule="evenodd"><path d="M-893 743.3c-53 0-95.6 42.7-95.6 95.5s42.7 95.5 95.5 95.5 95-42.8 95-95.5-43-95.5-96-95.5zm-.3 161.4c-36.4 0-66-29.5-66-66 0-36.2 29.6-65.7 66-65.7s65.8 29.5 65.8 65.8c0 36.4-29.5 66-65.8 66z"/><path d="M-730 737c-7.3-10.8-36-19.3-49.7-24.8l36.4-37.7c39.6 38.3 104.8 50.5 115.5 52.7 2.3-19.8 5.5-34 6.4-38-65.5-11-99-44-106.4-52-1.3-6.7-4.6-13-9.8-18-13.6-13.2-35.3-12.8-48.5.8l-57 58.4c-13 13.6-13 35.4 1 48.5l49 74 14 106 38-5-8-60c1-10 27-93 18-106zm-39.5 31c-3-5-6-10.2-9.4-15.4l12 4.8-2 10.5z"/><path d="M-627.4 743.5c-52.8 0-95.5 42.8-95.5 95.5s43 95.5 96 95.5 95-42.8 95-95.5-42-95.5-95-95.5zm0 161.5c-36.4 0-66-29.5-66-65.8 0-36.4 29.6-66 66-66s65.8 29.6 65.8 66c0 36.3-29.5 65.8-65.8 65.8z"/><circle cx="-694" cy="581.7" r="38.5"/></g><g fill="#fff" fill-rule="evenodd" clip-rule="evenodd"><circle cx="-191.8" cy="583.5" r="38.5"/><path d="M-393 743.3c-53 0-95.6 42.7-95.6 95.5s42.7 95.5 95.5 95.5 95-42.8 95-95.5-43-95.5-96-95.5zm-.3 161.4c-36.4 0-66-29.5-66-66 0-36.2 29.6-65.7 66-65.7 36.3 0 65.8 29.5 65.8 65.8 0 36.4-29.5 66-65.8 66zm267-161.2c-53 0-95.6 42.8-95.6 95.5s43 95.5 96 95.5 95-42.8 95-95.5-42-95.5-95-95.5zm0 161.5c-36.5 0-66-29.5-66-65.8 0-36.4 29.5-66 66-66s65.7 29.6 65.7 66c0 36.3-29.5 65.8-65.8 65.8z"/><path d="M-278.4 711l36-34.8c38.2 34.3 78 43.7 115.8 50.3 1.6-20 4-34.2 4.8-38.3-55-5.8-90-34-103.8-48.2-1-7-4-13.5-9.3-18.8-13-13.7-34-14-48-1l-58 56.5c-13 13-14 34.6-1 48.3l49 75.3 5 103.7 38-2s-1-33-4-64l23 2s11-102 6-106c-1-7.5-36-18.7-52-23.8zm14.7 67l-17.6-28.4 18.8 6.7-1.2 21.6z"/></g><g fill="#fff" fill-rule="evenodd" clip-rule="evenodd"><circle cx="309.4" cy="585.5" r="38.5"/><path d="M373.6 743.5c-45.6 0-83.7 32-93.2 74.6-1-29-3.2-72-6.2-76-2.5-7-42.7-24-53-28l37-36c39.2 37 76.4 43 115.4 50 1.6-20 4-34 4.8-38-59.5-6-93-36-103.8-48-1.2-6-4.2-12-9-17-13.2-13-35-14-48.6 0l-58.4 56c-13.6 13-14 35-.8 49l2.7 3 44.2 67-2.7 35c-4-49-45-87-95-87-52.8 0-95.6 43-95.6 95s42.8 95 95.6 95c45 0 82.4-31 92.5-73l-2.4 32 39 4s5-58 6-93l3 44 35-2c4 50 45 88 96 88 53 0 96-42 96-95s-44-96-97-96zm-267 161.2c-36.3 0-65.8-29.5-65.8-66 0-36.2 29.5-65.7 66-65.7s65.7 29.5 65.7 65.8c0 36.4-29.5 66-65.8 66zM226 757l13 6 1 16.2-14-22.3zm147.6 148c-36.4 0-66-29.5-66-65.8 0-36.4 29.6-66 66-66s65.8 29.6 65.8 66c0 36.3-29.5 65.8-65.8 65.8z"/></g><g fill="#fff" fill-rule="evenodd" clip-rule="evenodd"><path d="M-4127.4 1247c-42.2 0-78 27.3-90.7 65.3-5-24.5-10-50-11-55.8-7-9.7-33-24.5-54-36.6l40-39c37 35 81 44 116 49 1-20 3-34 3-38-45-7-72-16-103-48-1-7-4-14-9-19-13-14-35-14-49-1l-59 56c-14 13-14 35-1 48l4 3 47 59-8 37c-7-47-47-83-95-83-53 0-96 42-96 95s43 95 95 95c38 0 72-23 87-56l33 7s10-44 15-77l9 55 27-4c9.4 42 47.4 74 93 74 52.4 0 95.2-43 95.2-96s-43-96-95.6-96zm-266 161c-36.3 0-65.8-29.4-65.8-65.7s29.5-66 66-66 65.7 29.6 65.7 66-29.5 65.8-65.8 65.8zm266 .4c-36.4 0-66-29.5-66-65.8 0-36.4 29.6-66 66-66 36.3 0 65.8 29.6 65.8 66 0 36.3-29.5 65.8-65.8 65.8z"/><circle cx="-4189.8" cy="1090" r="38.5"/></g><g fill="#fff" fill-rule="evenodd" clip-rule="evenodd"><path d="M-3627.4 1247c-47 0-86.3 34-94 79-5-26.3-11-53.6-13.7-57.7-5-6.8-40-35.7-52-45l45-42.3c36 36 78 43 114 49.3 2-20 3-34.2 4-38.2-64-8-92-35-102-47-1-6-4-13-9-18-13-14-35-14-49-1l-60 56c-14 13-15 35-2 49 2 3 5 5 7 6l50 48-14 45c-8-45-47-80-95-80-53 0-96 43-96 96s42 96 95 96c44 0 82-30 92-72l26 9 14-45 12 56 30-8c14 35 48.3 60 89 60 53 0 96-43 96-95s-43-95-96-95zm-266 161c-36.3 0-65.8-29.4-65.8-65.7s29.5-66 66-66 65.7 29.6 65.7 66-29.5 65.8-65.8 65.8zm266 .4c-36.4 0-66-29.5-66-65.8 0-36.4 29.6-66 66-66s65.8 29.6 65.8 66-29.5 65.8-65.8 65.8z"/><circle cx="-3689.2" cy="1090.5" r="38.5"/></g><g fill="#fff" fill-rule="evenodd" clip-rule="evenodd"><circle cx="-3190.2" cy="1089.5" r="38.5"/><path d="M-3236.5 1258c-2.2-8-28.3-24.8-48.8-37l43.4-40.4c34 34.6 79 42.4 115 50 3-19.7 5-34 6-38-70-11.3-95-40.4-103-49.6-1-6-4-12-8-16.8-13-13.8-34-14.6-48-1.7l-59 55.4c-14 12-14 34-1 48 2 2 5 4 7 6l53 56-14 43c-4-49-45-87-95-87-53 0-95 42-95 95s43 95 96 95c50 0 92-39 95-89l31 11 3-8 11 46 37-8s-18-83-25-105c4-14 6-25 5-29zm-156.8 150c-36.4 0-66-29.4-66-65.7s29.6-66 66-66 65.8 29.6 65.8 66-29.5 65.8-65.8 65.8z"/><path d="M-3126.4 1247c-52.8 0-95.5 42.7-95.5 95.4s43 95.5 96 95.5 96-43 96-96-42-96-95-96zm0 161.4c-36.4 0-66-29.5-66-65.8 0-36.4 29.6-66 66-66s65.8 29.6 65.8 66c0 36.3-29.5 65.8-65.8 65.8z"/></g><g fill="#fff" fill-rule="evenodd" clip-rule="evenodd"><path d="M-2893 1247.7c-53 0-95.6 42.8-95.6 95.5s42.7 95.5 95.5 95.5 95-42.8 95-95.5-43-95.5-96-95.5zm-.3 161.4c-36.4 0-66-29-66-65s29.6-66 66-66 65.8 30 65.8 66-29.5 66-65.8 66zm161.7-166c-5.2-8-38.2-21-49.5-26l38-37c44 41 104 49 115 51 1-20 5-34 5-38-62-7-96-39-105-48-1-7-4-13-10-18-13-13-35-14-49-1l-59 57c-13 14-14 35-1 49l2 2 54 74 1 9-7 26 12 3 12 66 38-6s-10-54-17-87c9.2-27 19.2-62 13.3-71z"/><circle cx="-2692.2" cy="1087.7" r="38.5"/><path d="M-2627.4 1247c-52.8 0-95.5 42.7-95.5 95.4s43 95.5 96 95.5 96-43 96-96-42-96-95-96zm0 161.4c-36.4 0-66-29.5-66-65.8 0-36.4 29.6-66 66-66s65.8 29.6 65.8 66-29.5 65.8-65.8 65.8z"/></g><g fill="#fff" fill-rule="evenodd" clip-rule="evenodd"><path d="M-2393 1246.7c-53 0-95.6 42.8-95.6 95.5s42.7 95.5 95.5 95.5 95-42.8 95-95.5-43-95.5-96-95.5zm-.3 161.4c-36.4 0-66-29-66-65s29.6-66 66-66 65.8 30 65.8 66-29.5 66-65.8 66z"/><circle cx="-2194" cy="1085.1" r="38.5"/><path d="M-2278.5 1214.4l35.2-36.5c39.6 38 104.8 50 115.5 52 2.3-20 5.5-34 6.4-38-65.5-11-99-44-106.4-52-1.3-7-4.6-13-9.8-18-13.6-13-35.3-13-48.5 1l-57 58c-13 13-13 35 1 48l47 73 11 106 38-4s-3-34-7-65l13 2c0-10 19-95 9-108-9-11-37-18-51-23zm12 61c-4-6.7-9.2-14.5-14.4-22.3l17 7-1 16z"/><path d="M-2127.4 1247c-52.8 0-95.5 42.7-95.5 95.4s43 95.5 96 95.5 96-43 96-96-42-96-95-96zm0 161.4c-36.4 0-66-29.5-66-65.8 0-36.4 29.6-66 66-66s65.8 29.6 65.8 66-29.5 65.8-65.8 65.8z"/></g><g fill="#fff" fill-rule="evenodd" clip-rule="evenodd"><path d="M-1893 1247c-53 0-95.6 42.7-95.6 95.4s42.7 95.5 95.5 95.5 95-43 95-96-43-96-96-96zm-.3 161c-36.4 0-66-29.4-66-65.7s29.6-66 66-66 65.8 29.6 65.8 66-29.5 65.8-65.8 65.8z"/><circle cx="-1695.7" cy="1083.7" r="38.5"/><path d="M-1626.4 1247c-52.8 0-95.5 42.7-95.5 95.4s43 95.5 96 95.5 96-43 96-96-42-96-95-96zm0 161.4c-36.4 0-66-29.5-66-65.8 0-36.4 29.6-66 66-66s65.8 29.6 65.8 66c0 36.3-29.5 65.8-65.8 65.8z"/><path d="M-1725.7 1241c-2.4-7.3-41.6-22.3-53.8-26.8l36-37.2c42.3 38.2 89.6 47 116.3 53.2 1.7-20 6-34 6.7-38-61-11-92-37.5-107.8-52.2-1.3-6.6-4.6-13-9.8-18-14-13.2-36-12.8-49 .8l-57 58.4c-13 13.6-13 35.3 1 48.5l1 1.4 45 70-2 102 38 1v-56h36s2-96-4-105zm-35.8 42c-2-3.4-9.3-15-17.2-27.6l18 7.4v23c0-1.3-.4-2.3-.8-2.8z"/></g><g fill="#fff" fill-rule="evenodd" clip-rule="evenodd"><circle cx="-1198.8" cy="1082" r="38.5"/><path d="M-1126.4 1246c-43 0-79 28.2-91.2 67-4-26.2-8.7-56-10.7-62.5-6.4-9-34-22.3-55.4-33.7l39.4-40.7c35.6 33 82 46 115.3 54 2.3-20 6.7-33 7.5-37-45-8-82-28-107.3-53-1.4-6-4.6-12-9.7-17-13.7-13-35.4-12-48.5 1l-56.4 59c-13.2 14-12.8 35 .8 49l1.6 1 48 65-5.7 34c-7-46-46.7-81-94.4-81-53 0-96 43-96 96s42 96 95 96c36 0 68-20 84-51l38 7s9-51 13-86l7 53 29-4c7 46 46 80 94 80 53 0 95-42 95-95s-43-95-96-95zm-267 163c-36.3 0-65.8-29.4-65.8-65.7s29.5-66 66-66 65.7 29.6 65.7 66-29.5 65.8-65.8 65.8zm267-1.6c-36.4 0-66-29.5-66-65.8 0-36.4 29.6-66 66-66s65.8 29.6 65.8 66c0 36.3-29.5 65.8-65.8 65.8z"/></g></svg>
