<svg xmlns="http://www.w3.org/2000/svg" width="480" height="480"><path fill="#fff" fill-rule="evenodd" d="M-3125.25 405.62c-36.57 0-67.38-30.8-67.38-67.38s30.8-67.38 67.38-67.38 67.38 30.8 67.38 67.38-30.8 67.38-67.38 67.38zm0-163.62c-53.9 0-96.25 42.35-96.25 96.25s42.35 96.25 96.25 96.25 96.25-42.35 96.25-96.25-42.35-96.25-96.25-96.25zm-111.65-75.08l15.4 15.4c25.02 25.02 57.75 40.42 98.18 40.42v-38.5c-28.88 0-51.98-11.55-69.3-28.88l-36.57-36.58c-9.6-7.7-19.2-11.55-30.8-11.55s-21.1 3.85-26.9 11.55l-53.9 53.9c-7.7 7.7-11.5 17.32-11.5 26.95 0 11.55 3.9 21.18 11.6 26.95l61.6 53.9v96.25h38.5V257.4l-42.3-44.27 46.2-46.2zm-157.85 238.7c-36.57 0-67.38-30.8-67.38-67.38s30.8-67.38 67.38-67.38 67.38 30.8 67.38 67.38-30.8 67.38-67.38 67.38zm0-163.62c-53.9 0-96.25 42.35-96.25 96.25s42.35 96.25 96.25 96.25 96.25-42.35 96.25-96.25-42.35-96.25-96.25-96.25zm202.13-125.12c21.18 0 38.5-17.33 38.5-38.5s-17.32-38.5-38.5-38.5-38.5 17.33-38.5 38.5 17.32 38.5 38.5 38.5zm299.3 285.8c36.36 0 65.84-29.48 65.84-65.85s-29.48-65.85-65.85-65.85-65.85 29.48-65.85 65.85 29.5 65.85 65.85 65.85zm265.9-7.68c36.36 0 65.84-29.48 65.84-65.85 0-36.37-29.48-65.85-65.85-65.85s-65.85 29.48-65.85 65.85c0 36.37 29.48 65.85 65.85 65.85zm-78.25-286.27c21.26 0 38.5-17.24 38.5-38.5s-17.24-38.5-38.5-38.5-38.5 17.24-38.5 38.5 17.23 38.5 38.5 38.5zm-132.6 118.96c-2.24-1.2-4.38-2.7-6.37-4.4-14.3-12.5-15.8-34.1-3.38-48.4l53.23-61.3c12.5-14.3 34.1-15.8 48.4-3.4 5.4 4.7 9 10.7 10.7 17.1 1.4 1.5 39.3 41.2 110.7 51.4-.8 4-4.3 17.9-6.3 37.7-10.7-2-77.5-13.3-117.9-50.8l-40.3 46.4c4.4 3 49.5 34 54.3 40.9 2.5 3.5 9 28.3 15.1 53 10.3-41.7 47.9-72.7 92.8-72.7 52.8 0 95.5 42.7 95.5 95.5s-42.7 95.5-95.5 95.5c-41.5 0-76.8-26.5-90-63.5l-27.1 7.6-14.6-57c-6 28.6-13.7 59.7-13.7 59.7l-28.6-7.2c-11.8 39.3-48.3 68-91.4 68-52.7 0-95.5-42.8-95.5-95.5s42.8-95.5 95.5-95.5c46.4 0 85.1 33.1 93.7 76.9l9.5-41-48.3-49.5z" clip-rule="evenodd"/><circle cx="-2212.67" cy="66.23" r="38.5" fill="#fff" fill-rule="evenodd" clip-rule="evenodd"/><path fill="#fff" fill-rule="evenodd" d="M-2127.43 226.5c-52.74 0-95.5 42.76-95.5 95.5 0 1.98.06 3.94.18 5.88-8.6-28.2-18.78-61.03-21.2-66.16l-.27-.52c.7-6.77.45-11.76-1.3-13.83-7.28-8.65-36.6-27.95-49.05-35.97l41.36-47.58c41.7 35.82 108.5 44.8 119.2 46.36 1.3-19.9 4.3-33.92 5-37.96-63.7-6.86-101.7-37.85-110.5-45.75-1.6-6.83-5.3-13.24-11-18.2-14.3-12.42-36-10.9-48.4 3.4l-53.2 61.23c-12.5 14.3-11 35.97 3.3 48.4 2 1.76 4.2 3.25 6.5 4.45l4.8 3.6 50.6 45.3-12.8 43.52c-8.7-43.84-47.3-76.9-93.7-76.9-52.8 0-95.5 42.76-95.5 95.5s42.7 95.5 95.5 95.5c49.7 0 90.5-38 95.1-86.53l28.8 8.16s3.4-9.9 7.7-23.7l14 51.67 37.3-11.8-.1-.2c16.5 28.48 47.3 47.62 82.6 47.62 52.72 0 95.5-42.8 95.5-95.5 0-52.8-42.78-95.5-95.5-95.5zm-265.9 176.18c-36.37 0-65.85-29.48-65.85-65.85 0-36.37 29.48-65.85 65.85-65.85s65.85 29.48 65.85 65.85c0 36.37-29.48 65.85-65.85 65.85zm265.9-14.68c-36.37 0-65.85-29.48-65.85-65.85 0-36.37 29.48-65.85 65.85-65.85s65.85 29.48 65.85 65.85c0 36.37-29.5 65.85-65.85 65.85zm387.1-157.1c-5.37-8.3-41.32-22.6-50.9-26.3l35.72-44.1c42.3 34.54 108.5 42.27 119.2 43.63.9-19.92 3.7-34 4.3-38.04-62.9-5.7-101.3-35.3-110.9-43.5-1.8-6.9-5.7-13.2-11.6-18-14.8-12-36.4-9.7-48.3 5l-51.1 63c-12 14.7-9.7 36.3 5 48.2l2 1.5 59.4 63.6-9.4 41.6 24.3 6.3 15.5 55.7 36.8-10.9s-18.6-65.8-27.8-95.1c6.8-22.7 11.9-45.8 7.4-53zm-152.8 9.38c-52.73 0-95.5 42.76-95.5 95.5s42.77 95.5 95.5 95.5 95.5-42.76 95.5-95.5-42.75-95.5-95.5-95.5zm-.2 161.4c-36.37 0-65.85-29.48-65.85-65.85 0-36.37 29.48-65.85 65.85-65.85s65.85 29.48 65.85 65.85c0 36.37-29.48 65.85-65.85 65.85z" clip-rule="evenodd"/><circle cx="-1714.67" cy="63.71" r="38.5" fill="#fff" fill-rule="evenodd" clip-rule="evenodd"/><path fill="#fff" fill-rule="evenodd" d="M-1627.43 221.5c-52.74 0-95.5 42.76-95.5 95.5s42.76 95.5 95.5 95.5 95.5-42.76 95.5-95.5-42.76-95.5-95.5-95.5zm0 161.5c-36.37 0-65.85-29.48-65.85-65.85 0-36.37 29.48-65.85 65.85-65.85s65.85 29.48 65.85 65.85c0 36.37-29.5 65.85-65.85 65.85zm234.3-147.43c-52.73 0-95.5 42.76-95.5 95.5s42.77 95.5 95.5 95.5 95.5-42.76 95.5-95.5-42.75-95.5-95.5-95.5zm-.2 161.4c-36.37 0-65.85-29.5-65.85-65.86s29.48-65.8 65.85-65.8 65.85 29.5 65.85 65.9-29.48 65.9-65.85 65.9z" clip-rule="evenodd"/><circle cx="-1211.21" cy="62.32" r="38.5" fill="#fff" fill-rule="evenodd" clip-rule="evenodd"/><path fill="#fff" fill-rule="evenodd" d="M-1127.43 218.78c-52.74 0-95.5 42.76-95.5 95.5s42.76 95.5 95.5 95.5 95.5-42.76 95.5-95.5-42.76-95.5-95.5-95.5zm0 161.5c-36.37 0-65.85-29.48-65.85-65.85 0-36.37 29.48-65.85 65.85-65.85s65.85 29.48 65.85 65.85c0 36.37-29.5 65.85-65.85 65.85z" clip-rule="evenodd"/><path fill="#fff" fill-rule="evenodd" d="M-1235.08 218.77c-6.08-12.03-51.38-21.2-52.5-21.42l33.1-39.46c42.14 35.4 107.97 43.1 118.8 44.4.97-19.9 3.15-34.4 3.7-38.4-64.6-6.1-100.34-35.7-109.16-43.9-1.68-6.8-5.46-13.2-11.25-18-14.5-12.2-36.1-10.3-48.3 4.2l-52.1 62.1c-12.1 14.5-10.3 36 4.2 48.2l54.4 70.7 21.7 103.7 38.6-6.9s-6.6-30.4-13.1-59.3l2.1.3s16.2-94.3 10-106.5zm-38.95 32.18c-2.8-4.07-5.78-8.33-8.75-12.52l10.1 3.37-1.35 9.15z" clip-rule="evenodd"/><circle cx="-706.21" cy="61.04" r="38.5" fill="#fff" fill-rule="evenodd" clip-rule="evenodd"/><path fill="#fff" fill-rule="evenodd" d="M-893.12 230.28c-52.74 0-95.5 42.76-95.5 95.5s42.76 95.5 95.5 95.5 95.5-42.76 95.5-95.5-42.76-95.5-95.5-95.5zm-.2 161.4c-36.38 0-65.86-29.48-65.86-65.85 0-36.37 29.48-65.85 65.85-65.85s65.85 29.48 65.85 65.85c0 36.37-29.48 65.85-65.85 65.85zm265.9-175.18c-52.75 0-95.5 42.76-95.5 95.5s42.75 95.5 95.5 95.5 95.5-42.76 95.5-95.5-42.77-95.5-95.5-95.5zm0 161.5c-36.38 0-65.86-29.48-65.86-65.85 0-36.37 29.48-65.85 65.85-65.85s65.85 29.48 65.85 65.85c0 36.37-29.5 65.85-65.85 65.85z" clip-rule="evenodd"/><path fill="#fff" fill-rule="evenodd" d="M-784.52 192.3l32.97-36.62c41.2 35.5 107.1 43.05 117.87 44.42.96-19.92 3.14-34.38 3.7-38.42-62.56-4.75-96.45-33.14-106.85-43.48-1.45-6.85-5-13.32-10.6-18.36-14.08-12.68-35.77-11.54-48.45 2.54l-54.3 60.3c-12.17 13.5-11.6 34.05.92 46.88l51.65 71.78 8.3 102.45 38.4-2.5s-2.4-32.6-4.7-62.5l27.3.9s1.8-90.7-2.3-105.4c-5.6-11.1-46.9-20.6-54.1-22.2zm-2.04 38.7l19.98 6.28.26 21.97c-5.3-8.14-13.06-18.76-20.24-28.26z" clip-rule="evenodd"/><circle cx="-199.21" cy="61.04" r="38.5" fill="#fff" fill-rule="evenodd" clip-rule="evenodd"/><path fill="#fff" fill-rule="evenodd" d="M-127.43 216.5c-44.06 0-81.16 29.84-92.17 70.42-3.24-28.65-7.85-64.34-11.17-69.13-5.16-7.5-46.1-23.7-53.25-26.4l36.1-37.4c39.5 35.5 87.3 41.2 117.44 45.1.96-19.9 2.67-33.9 3.23-37.9-62.37-4.8-95.16-33.7-105.27-44.4-1.3-6.7-4.6-13-9.82-18-13.63-13.2-35.34-12.8-48.5.8L-347.2 158c-13.2 13.64-12.8 35.36.8 48.5 1 .97 2 1.84 3.05 2.65l47 63.96-2.4 33.2c-7-45.9-46.6-81-94.42-81-52.74 0-95.5 42.8-95.5 95.5s42.76 95.5 95.5 95.5c42.97 0 79.3-28.4 91.3-67.4l-1.5 20.8 38.68 2.8s4.3-53.7 5.8-86.1l5.1 42.3 31.7-4c6.2 46.9 46.2 83 94.7 83 52.8 0 95.5-42.7 95.5-95.5s-42.7-95.5-95.5-95.5zm-265.9 170.18c-36.37 0-65.85-29.48-65.85-65.85 0-36.37 29.48-65.85 65.85-65.85s65.85 29.48 65.85 65.85c0 36.37-29.48 65.85-65.85 65.85zm119.13-148.83l9.97 4.12 1.58 13.07c-2.86-4.72-6.98-10.77-11.55-17.2zM-127.43 378c-36.37 0-65.85-29.48-65.85-65.85 0-36.37 29.48-65.85 65.85-65.85s65.85 29.48 65.85 65.85c0 36.37-29.5 65.85-65.85 65.85z" clip-rule="evenodd"/><circle cx="306.79" cy="61.04" r="38.5" fill="#fff" fill-rule="evenodd" clip-rule="evenodd"/><path fill="#fff" fill-rule="evenodd" d="M372.57 217.5c-43.84 0-80.8 29.54-92 69.8-4.56-26.12-9.9-53.7-12.78-57.85-5-7.17-43.6-30.62-52.9-36.2l41.4-40c37.4 35.68 79.2 41.84 115.6 47.53 1.6-19.87 2.8-34.2 3.5-38.23-64.8-7.06-92.3-34.24-103-45.88-1.2-6.54-4.2-12.82-9.1-17.96-13.2-13.6-34.9-14-48.5-.8l-58.4 56.4c-13.7 13.2-14 34.9-.9 48.5 2 2.1 4.2 3.9 6.6 5.4l47.1 55-8.5 37.4c-7.8-44.9-47-79.1-94.1-79.1-52.8 0-95.5 42.8-95.5 95.5s42.7 95.5 95.5 95.5c40.4 0 75-25.1 88.9-60.6l30.9 7.7s10.3-43.8 15.7-73l11.1 57.5 26.9-5.6c11 40.5 48.1 70.3 92.1 70.3 52.7 0 95.5-42.7 95.5-95.5 0-52.7-42.8-95.5-95.5-95.5zm-265.9 165.18c-36.37 0-65.85-29.48-65.85-65.85 0-36.37 29.48-65.85 65.85-65.85s65.85 29.48 65.85 65.85c0 36.37-29.48 65.85-65.85 65.85zm265.9-3.68c-36.37 0-65.85-29.48-65.85-65.85 0-36.37 29.48-65.85 65.85-65.85s65.85 29.48 65.85 65.85c0 36.37-29.5 65.85-65.85 65.85z" clip-rule="evenodd"/><circle cx="812.79" cy="63.04" r="38.5" fill="#fff" fill-rule="evenodd" clip-rule="evenodd"/><path fill="#fff" fill-rule="evenodd" d="M872.57 220.5c-48.45 0-88.47 36.08-94.67 82.84-5.07-26.84-10.97-55.37-13.87-59.55-5.3-7.7-45.23-42.9-50.1-47.2l46.23-43.1c36.97 37 78.94 43.9 115.56 50.3 2-19.9 3.4-34.2 4.2-38.2-66.2-8.4-92.93-37.2-102.9-48.5-1.02-6.6-3.95-12.9-8.8-18.1-12.92-13.9-34.63-14.6-48.48-1.7l-59.34 55.4c-13.86 12.9-14.62 34.6-1.7 48.5 2.25 2.4 4.76 4.4 7.45 6l51.48 45.2-16.15 48c-6.4-46.5-46.32-82.4-94.6-82.4-52.74 0-95.5 42.7-95.5 95.5s42.76 95.5 95.5 95.5c45.43 0 83.45-31.7 93.12-74.2l27.26 9.1s6.42-19 12.88-39.9l12.42 56.8 32.1-7.7c14.56 34.1 48.44 58.1 87.9 58.1 52.75 0 95.5-42.8 95.5-95.5s-42.75-95.5-95.5-95.5zm-265.9 159.18c-36.37 0-65.85-29.48-65.85-65.85 0-36.37 29.48-65.85 65.85-65.85 36.37 0 65.85 29.48 65.85 65.85 0 36.37-29.48 65.85-65.85 65.85zm265.9 2.32c-36.37 0-65.85-29.48-65.85-65.85 0-36.37 29.48-65.85 65.85-65.85s65.85 29.48 65.85 65.85c0 36.37-29.5 65.85-65.85 65.85z" clip-rule="evenodd"/><circle cx="1317.79" cy="66.04" r="38.5" fill="#fff" fill-rule="evenodd" clip-rule="evenodd"/><path fill="#fff" fill-rule="evenodd" d="M1268.13 230.78c-2.2-8.03-27.9-24.62-48.26-36.7l43.26-38.94c34.97 37.98 77.54 45.4 113.5 53.62 3.05-19.7 5.2-33.92 6.2-37.9-66.32-11.94-92.48-41.2-101.93-52.4-.95-6.44-3.75-12.7-8.44-17.9-12.68-14.07-34.37-15.2-48.45-2.52l-60.2 54.3c-14.1 12.67-15.2 34.36-2.5 48.44 1.7 1.86 3.5 3.5 5.5 4.9l51.4 62.68-15.6 42.2c-1.2-51.72-43.4-93.28-95.4-93.28-52.7 0-95.5 42.76-95.5 95.5s42.8 95.5 95.5 95.5c50.3 0 91.5-38.9 95.2-88.3l32.2 12.24 9.3 44.63 37-7.9s-13.5-76.5-20.7-101.4c5.8-16.93 9.8-31.84 8.5-36.77zm-161.46 147.9c-36.37 0-65.85-29.48-65.85-65.85 0-36.37 29.48-65.85 65.85-65.85s65.85 29.48 65.85 65.85c0 36.37-29.48 65.85-65.85 65.85z" clip-rule="evenodd"/><path fill="#fff" fill-rule="evenodd" d="M1372.57 225.5c-52.74 0-95.5 42.76-95.5 95.5s42.76 95.5 95.5 95.5 95.5-42.76 95.5-95.5-42.76-95.5-95.5-95.5zm0 161.5c-36.37 0-65.85-29.48-65.85-65.85 0-36.37 29.48-65.85 65.85-65.85s65.85 29.48 65.85 65.85c0 36.37-29.5 65.85-65.85 65.85zm-4765.7 334.28c-52.73 0-95.5 42.76-95.5 95.5s42.77 95.5 95.5 95.5 95.5-42.76 95.5-95.5-42.75-95.5-95.5-95.5zm-.2 161.4c-36.37 0-65.85-29.48-65.85-65.85 0-36.37 29.48-65.85 65.85-65.85s65.85 29.48 65.85 65.85c0 36.37-29.48 65.85-65.85 65.85z" clip-rule="evenodd"/><circle cx="-3179.21" cy="572.04" r="38.5" fill="#fff" fill-rule="evenodd" clip-rule="evenodd"/><path fill="#fff" fill-rule="evenodd" d="M-3127.43 734.5c-52.74 0-95.5 42.76-95.5 95.5s42.76 95.5 95.5 95.5 95.5-42.76 95.5-95.5-42.76-95.5-95.5-95.5zm0 161.5c-36.37 0-65.85-29.48-65.85-65.85 0-36.37 29.48-65.85 65.85-65.85s65.85 29.48 65.85 65.85c0 36.37-29.5 65.85-65.85 65.85z" clip-rule="evenodd"/><path fill="#fff" fill-rule="evenodd" d="M-3223.97 726.78c-2.9-10.55-35.62-24.33-49.63-29.8l39.38-35.46c36.3 37.2 77.52 48.27 113.43 56.47 3.1-19.8 5.8-33.8 6.8-37.8-65.7-12.1-92.9-44.2-102.4-55.7-1-6.4-3.8-12.5-8.4-17.6-12.7-14.1-34.3-15.2-48.4-2.6l-60.3 54.3c-14.1 12.7-15.2 34.3-2.5 48.4.9.9 1.8 1.8 2.7 2.6l47.8 73.4 2.6 20.3-4.4 14.4 6.6 2 9 69.7 38-3.6s-5.2-43.9-10.5-77.8c9-27.1 23.2-72.3 20.6-81.5zm-41.26 18.7l-2.37-4.9 3.4 1.56-1.03 3.34z" clip-rule="evenodd"/><g fill="#fff" fill-rule="evenodd" clip-rule="evenodd"><path d="M-2719.27 725.6c-.55-7.3-34.25-21.06-50.88-27.42l37.78-34.02c35.4 37.7 75.35 49.36 112.63 59.33 3.38-19.7 7.1-33.8 8.14-37.7-56.9-11.2-91.5-44-102.87-58.4-.95-6.5-3.75-12.8-8.45-18-12.68-14.1-34.37-15.2-48.45-2.6l-60.3 54.3c-14.07 12.6-15.2 34.3-2.53 48.4.43.5.88.9 1.33 1.4l42.22 76.8 1.37 103.3 38.13.3s-.2-33.1-1.17-64.6l18.12 3.4s19.55-100.1 14.93-104.8zm-41.38 38.13c-3.55-6.93-8.68-17.07-13.7-27.08l16.5 7.52-2.8 19.56z"/><path d="M-2892.12 723.28c-52.74 0-95.5 42.76-95.5 95.5s42.76 95.5 95.5 95.5 95.5-42.76 95.5-95.5-42.76-95.5-95.5-95.5zm-.2 161.4c-36.38 0-65.86-29.48-65.86-65.85 0-36.37 29.48-65.85 65.85-65.85s65.85 29.48 65.85 65.85c0 36.37-29.48 65.85-65.85 65.85z"/><circle cx="-2677.82" cy="574.53" r="38.5"/><path d="M-2626.43 740.5c-52.74 0-95.5 42.76-95.5 95.5s42.76 95.5 95.5 95.5 95.5-42.76 95.5-95.5-42.76-95.5-95.5-95.5zm0 161.5c-36.37 0-65.85-29.48-65.85-65.85 0-36.37 29.48-65.85 65.85-65.85s65.85 29.48 65.85 65.85c0 36.37-29.5 65.85-65.85 65.85z"/></g><g fill="#fff" fill-rule="evenodd" clip-rule="evenodd"><path d="M-2392.12 727.12c-52.74 0-95.5 42.76-95.5 95.5s42.76 95.5 95.5 95.5 95.5-42.76 95.5-95.5-42.76-95.5-95.5-95.5zm-.2 161.4c-36.38 0-65.86-29.48-65.86-65.85s29.48-65.85 65.85-65.85 65.85 29.48 65.85 65.85-29.48 65.85-65.85 65.85z"/><circle cx="-2177.82" cy="577.37" r="38.5"/><path d="M-2126.43 745.34c-44.2 0-81.38 30.02-92.27 70.8 1.75-29.95 4-77.44.85-80.66-.6-7.77-38-25.28-52.92-31.97l39.55-35.6c34.7 37.9 75.13 50.4 112.04 61 3.73-19.6 7.68-33.6 8.8-37.5-58.1-12.4-92.87-46.3-103.17-60.1-.98-6.4-3.77-12.5-8.4-17.7-12.7-14-34.38-15.2-48.46-2.5l-60.3 54.3c-14.1 12.7-15.3 34.4-2.6 48.5.7.8 1.4 1.5 2.1 2.2l39.7 73.7-12.1 97.2 38 5.4s5.4-40.3 8.6-73.8l-.8 20.5 35.5 1.6v.6c0 52.8 42.7 95.5 95.5 95.5s95.5-42.7 95.5-95.5c-.1-52.7-42.8-95.5-95.6-95.5zm-128.7 29.88c-.1-.23-.17-.43-.26-.6-1.8-3.4-7.7-14.9-14.1-27.7l15.2 7.7-.7 20.6zm128.7 131.62c-36.37 0-65.85-29.48-65.85-65.85 0-36.4 29.48-65.9 65.85-65.9s65.85 29.5 65.85 65.8-29.5 65.8-65.85 65.8z"/></g><g fill="#fff" fill-rule="evenodd" clip-rule="evenodd"><circle cx="-1681.82" cy="578.53" r="38.5"/><path d="M-1626.43 746.5c-40.8 0-75.62 25.58-89.3 61.58-2.5-25.7-5.4-53.86-6.76-60.07-5.7-9.8-32.7-25.6-53.1-38.8l41.2-39.8c34.1 35.5 80.6 51.1 113.8 60.6 3.4-19.6 8.5-33 9.5-36.9-45.5-11.1-82.2-33.3-106.1-61.2-1.1-6.4-4.2-12.7-9.1-17.8-13.1-13.6-34.9-14-48.5-.8l-58.3 56.4c-13.6 13.2-14 34.9-.8 48.5.8.8 1.6 1.6 2.4 2.3l42.7 63.5-8 32.8c-5.1-47.9-45.7-85.3-94.9-85.3-52.7 0-95.5 42.8-95.5 95.5s42.8 95.5 95.5 95.5c35.6 0 66.7-19.5 83.1-48.4l35 9.1s13-47.8 19.8-80.9l4.6 55.1 28.6-2.3c6.2 46.7 46.2 82.8 94.7 82.8 52.78 0 95.5-42.7 95.5-95.5s-42.73-95.5-95.5-95.5zm-265.9 146.18c-36.37 0-65.85-29.48-65.85-65.85 0-36.37 29.48-65.85 65.85-65.85s65.85 29.48 65.85 65.85c0 36.37-29.48 65.85-65.85 65.85zm265.9 15.32c-36.37 0-65.85-29.48-65.85-65.85 0-36.37 29.48-65.85 65.85-65.85s65.85 29.48 65.85 65.85c0 36.37-29.5 65.85-65.85 65.85z"/></g><g fill="#fff" fill-rule="evenodd" clip-rule="evenodd"><path d="M-1127.43 745.5c-44.65 0-82.14 30.64-92.6 72.04-4.7-24.47-9.52-49.47-10.77-55.22-10.6-11.64-33.26-30.6-52.17-45.73l43.5-45.1c35.9 34.9 80.48 47.9 114.72 57 3.96-18.9 8.12-33.5 8.97-37.5-46.76-10.3-82.16-30-107.37-56.9-1.22-6.9-4.54-13.5-9.94-18.7-13.6-13.2-35.3-12.8-48.5.8l-56.3 58.4c-13.1 13.6-12.8 35.3.9 48.5 1.8 1.7 3.7 3.2 5.8 4.5l47.2 50.2-14.1 44.1c-5.8-47.3-46-83.9-94.8-83.9-52.7 0-95.5 42.7-95.5 95.5s42.8 95.5 95.5 95.5c42.8 0 79-28.1 91.2-66.9l27.5 9.4s9.2-26 16.7-51l10.7 56.2 29.2-5.5c12.8 37.7 48.5 64.9 90.5 64.9 52.8 0 95.5-42.8 95.5-95.5 0-52.8-42.7-95.5-95.5-95.5zm-265.9 154.18c-36.37 0-65.85-29.48-65.85-65.85 0-36.37 29.48-65.85 65.85-65.85s65.85 29.48 65.85 65.85c0 36.37-29.48 65.85-65.85 65.85zm265.9 7.32c-36.37 0-65.85-29.48-65.85-65.85 0-36.37 29.48-65.85 65.85-65.85s65.85 29.48 65.85 65.85c0 36.37-29.5 65.85-65.85 65.85z"/><circle cx="-1190.28" cy="578.39" r="38.5"/></g><g fill="#fff" fill-rule="evenodd" clip-rule="evenodd"><circle cx="-696.28" cy="578.9" r="38.5"/><path d="M-737.5 757.92c-2.37-9.28-29.78-28.47-47.77-40.22l41.78-44.8c36.5 33.85 81.2 45.4 115.4 53.82 3.7-18.9 7.6-33.65 8.3-37.66-46.8-9.4-82.7-27.43-108.3-53.75-1.4-6.7-4.8-13.1-10.2-18.1-13.8-12.9-35.5-12.1-48.5 1.7l-55.3 59.4c-12.9 13.9-12.1 35.6 1.7 48.5 2.3 2.2 4.8 3.9 7.4 5.3l50.1 53.2-15.2 42.1c-5.7-47.3-46-84-94.8-84-52.7 0-95.5 42.8-95.5 95.5s42.8 95.5 95.5 95.5c49.4 0 90.1-37.5 95-85.5l29.4 10.9s2.4-6 5.8-15l11.9 49.1 37.3-8.8s-18.9-77.9-26.1-108.6c2.2-8.6 3.3-15.3 2.5-18.4zm-155.83 146.76c-36.37 0-65.85-29.48-65.85-65.85 0-36.37 29.48-65.85 65.85-65.85s65.85 29.48 65.85 65.85c0 36.37-29.48 65.85-65.85 65.85z"/><path d="M-626.43 743.5c-52.74 0-95.5 42.76-95.5 95.5s42.76 95.5 95.5 95.5 95.5-42.76 95.5-95.5-42.76-95.5-95.5-95.5zm0 161.5c-36.37 0-65.85-29.48-65.85-65.85 0-36.37 29.48-65.85 65.85-65.85s65.85 29.48 65.85 65.85c0 36.37-29.5 65.85-65.85 65.85z"/></g><g fill="#fff" fill-rule="evenodd" clip-rule="evenodd"><path d="M-127.43 743.5c-52.74 0-95.5 42.76-95.5 95.5s42.76 95.5 95.5 95.5 95.5-42.76 95.5-95.5-42.76-95.5-95.5-95.5zm0 161.5c-36.37 0-65.85-29.48-65.85-65.85 0-36.37 29.48-65.85 65.85-65.85s65.85 29.48 65.85 65.85c0 36.37-29.5 65.85-65.85 65.85zm-265.7-160.72c-52.73 0-95.5 42.76-95.5 95.5s42.77 95.5 95.5 95.5 95.5-42.76 95.5-95.5-42.75-95.5-95.5-95.5zm-.2 161.4c-36.37 0-65.85-29.48-65.85-65.85 0-36.37 29.48-65.85 65.85-65.85s65.85 29.48 65.85 65.85c0 36.37-29.48 65.85-65.85 65.85z"/><circle cx="-195.63" cy="580.67" r="38.5"/><path d="M-232.27 741.1c-5.3-8.2-39.58-22.9-49.4-27l37.86-40.6c38.4 37.38 96.7 49.35 116.3 53.03 2.7-19.76 5.5-33.8 6.4-37.8-66.5-11.9-98.4-43.58-107.7-52.97-1.4-6.6-4.8-12.87-10.2-17.83-13.9-12.92-35.6-12.16-48.5 1.7l-55.4 59.34c-13 13.86-12.2 35.57 1.7 48.48.6.56 1.2 1.1 1.8 1.6l2.2 2.85-.5.2.9.32 53.3 68.2-10.6 36.45 19.1 5.4 10.8 61.83 37.9-7.9s-12-63.85-18.5-95.1c9.1-24.8 17.3-52.24 12.2-60.26z"/></g><g fill="#fff" fill-rule="evenodd" clip-rule="evenodd"><path d="M106.88 743.28c-52.74 0-95.5 42.76-95.5 95.5s42.76 95.5 95.5 95.5 95.5-42.76 95.5-95.5-42.76-95.5-95.5-95.5zm-.2 161.4c-36.38 0-65.86-29.48-65.86-65.85 0-36.37 29.48-65.85 65.85-65.85s65.85 29.48 65.85 65.85c0 36.37-29.48 65.85-65.85 65.85z"/><path d="M270.15 736.86c-7.4-10.64-36.08-19.17-49.84-24.68l36.5-37.73c39.6 38.38 104.8 50.58 115.5 52.7 2.4-19.8 5.6-34.07 6.4-38.07-65.4-10.78-99-43.95-106.3-51.94-1.3-6.6-4.5-12.9-9.8-17.94-13.6-13.16-35.3-12.78-48.5.85l-56.4 58.35c-13.1 13.7-12.8 35.4.9 48.57l.2.15 48.5 74.36L221 907.3l38.2-4.9s-3.95-30.2-8.1-59.6l.83.2c1.1-9.5 27.3-93.1 18.3-106zm-39.6 31c-2.9-4.8-6.12-10.02-9.4-15.3l11.3 4.8-1.9 10.5z"/><path d="M372.57 743.5c-52.74 0-95.5 42.76-95.5 95.5s42.76 95.5 95.5 95.5 95.5-42.76 95.5-95.5-42.76-95.5-95.5-95.5zm0 161.5c-36.37 0-65.85-29.48-65.85-65.85 0-36.37 29.48-65.85 65.85-65.85s65.85 29.48 65.85 65.85c0 36.37-29.5 65.85-65.85 65.85z"/><circle cx="305.97" cy="581.69" r="38.5"/></g><g fill="#fff" fill-rule="evenodd" clip-rule="evenodd"><circle cx="808.18" cy="583.53" r="38.5"/><path d="M606.88 743.28c-52.74 0-95.5 42.76-95.5 95.5s42.76 95.5 95.5 95.5 95.5-42.76 95.5-95.5-42.76-95.5-95.5-95.5zm-.2 161.4c-36.38 0-65.86-29.48-65.86-65.85 0-36.37 29.48-65.85 65.85-65.85 36.37 0 65.85 29.48 65.85 65.85 0 36.37-29.48 65.85-65.85 65.85zm266.9-161.18c-52.75 0-95.5 42.76-95.5 95.5s42.75 95.5 95.5 95.5 95.5-42.76 95.5-95.5-42.77-95.5-95.5-95.5zm0 161.5c-36.38 0-65.86-29.48-65.86-65.85 0-36.37 29.48-65.85 65.85-65.85s65.85 29.48 65.85 65.85c0 36.37-29.5 65.85-65.85 65.85z"/><path d="M721.62 710.85l35.84-34.6c38.32 34.3 78.02 43.62 115.9 50.27 1.65-19.87 4.1-34.25 4.82-38.27-54.97-5.82-90.02-33.97-103.8-48.27-1-6.85-4.1-13.46-9.26-18.82-13.16-13.63-34.88-14-48.5-.84l-58.37 56.36c-13.57 13.1-14 34.67-1.04 48.3l48.6 75.3 5.5 103.65 38.2-1.8s-1.6-32.53-4-63.95l23.1 1.94s10.8-101.4 5.8-105.7c-1.2-7.28-35.9-18.54-52.6-23.57zm14.7 67.07c-3.7-5.78-10.65-16.98-17.65-28.3l18.78 6.65-1.14 21.65z"/></g><g fill="#fff" fill-rule="evenodd" clip-rule="evenodd"><circle cx="1309.35" cy="585.53" r="38.5"/><path d="M1373.57 743.5c-45.56 0-83.67 31.9-93.2 74.6-1.1-29.74-3.17-72.86-6.18-76.8-2.6-7.7-42.8-24.36-53.2-28.56l37.1-35.9c39.1 36.6 76.4 42.98 115.3 49.82 1.6-19.87 4.1-34.25 4.8-38.27-59.6-6.4-93.1-36.3-103.9-48.7-1.2-6.4-4.2-12.6-9.1-17.6-13.1-13.7-34.9-14-48.5-.9l-58.4 56.3c-13.7 13.1-14 34.9-.9 48.5.8.9 1.7 1.7 2.7 2.5l44.2 66.9-2.7 35.1c-4.2-48.9-45.2-87.3-95.2-87.3-52.8 0-95.5 42.7-95.5 95.5s42.7 95.5 95.5 95.5c44.9 0 82.7-31.1 92.8-73l-2.5 32.2 38.22 3.3s5.13-58 5.9-92.8l2.54 44 34.3-1.9c3.8 49.3 45 88.1 95.2 88.1 52.7 0 95.5-42.8 95.5-95.5-.04-52.8-42.8-95.5-95.54-95.5zm-266.9 161.18c-36.37 0-65.85-29.48-65.85-65.85 0-36.37 29.48-65.85 65.85-65.85s65.85 29.48 65.85 65.85c0 36.37-29.48 65.85-65.85 65.85zm119.24-147.76l13.2 6.03 1 16.26c-1.8-2.9-7.4-11.8-14.1-22.2zM1373.6 905c-36.37 0-65.85-29.48-65.85-65.85 0-36.37 29.48-65.85 65.85-65.85s65.85 29.48 65.85 65.85c0 36.37-29.5 65.85-65.85 65.85z"/></g><g fill="#fff" fill-rule="evenodd" clip-rule="evenodd"><path d="M-3127.43 1246.93c-42.2 0-78.03 27.4-90.65 65.37-4.47-24.48-9.3-50.02-11-55.82-6.54-9.67-33.07-24.5-53.82-36.57l40.43-39c36.9 35.8 81.7 44.1 116.56 49.2 1.3-19.9 3-34 3.6-38-45.2-6.1-71.6-15.8-102.9-47.6-1-6.9-4.1-13.5-9.3-18.9-13.2-13.6-34.9-14-48.5-.8l-58.4 56.4c-13.7 13.2-14 34.9-.9 48.5 1.3 1.4 2.7 2.7 4.2 3.8l46.9 58.8-7.6 37c-6.5-46.5-46.4-82.2-94.6-82.2-52.7 0-95.5 42.8-95.5 95.5s42.8 95.5 95.5 95.5c38.7 0 72-23 87-56.1l33.6 7.4s9.9-43.5 15.5-76.4l9.3 55.2 27-4.2c9.6 42.6 47.7 74.4 93.1 74.4 52.7 0 95.5-42.8 95.5-95.5s-42.8-95.5-95.5-95.5zm-265.9 161.18c-36.37 0-65.85-29.4-65.85-65.8s29.48-65.8 65.85-65.8 65.85 29.5 65.85 65.9-29.48 65.9-65.85 65.9zm265.9.4c-36.37 0-65.85-29.5-65.85-65.8s29.48-65.8 65.85-65.8 65.85 29.5 65.85 65.9c0 36.4-29.5 65.9-65.85 65.9z"/><circle cx="-3189.82" cy="1089.96" r="38.5"/></g><g fill="#fff" fill-rule="evenodd" clip-rule="evenodd"><path d="M-2627.43 1246.93c-47.1 0-86.25 34.1-94.08 78.98-5.1-26.2-10.8-53.5-13.6-57.6-4.8-6.8-40-35.7-51.3-44.9l45.5-42.4c36.7 36.1 78.2 43 114.5 49.3 2-19.8 3.4-34.1 4.2-38.1-64.1-8.1-91.2-35.3-101.9-47.3-1-6.6-4-12.9-8.9-18.2-12.9-13.8-34.6-14.6-48.5-1.7l-59.4 55.4c-13.9 12.9-14.6 34.7-1.7 48.5 2.2 2.4 4.6 4.3 7.2 5.9l50.7 47.7-14.4 45c-7.2-45.6-46.7-80.5-94.4-80.5-52.8 0-95.5 42.8-95.5 95.5s42.7 95.5 95.5 95.5c44.7 0 82.2-30.7 92.6-72.2l26.8 9s7.6-22.4 14.5-45.3l12.7 56.3 30.3-7.2c14.1 35.1 48.5 59.8 88.6 59.8 52.7 0 95.5-42.7 95.5-95.5 0-52.7-42.8-95.5-95.5-95.5zm-265.9 161.18c-36.37 0-65.85-29.4-65.85-65.8s29.48-65.8 65.85-65.8 65.85 29.5 65.85 65.9-29.48 65.9-65.85 65.9zm265.9.4c-36.37 0-65.85-29.5-65.85-65.8s29.48-65.8 65.85-65.8 65.85 29.5 65.85 65.9c0 36.4-29.5 65.9-65.85 65.9z"/><circle cx="-2689.21" cy="1090.46" r="38.5"/></g><g fill="#fff" fill-rule="evenodd" clip-rule="evenodd"><circle cx="-2190.21" cy="1089.46" r="38.5"/><path d="M-2236.5 1258.04c-2.24-8.1-28.32-24.88-48.76-36.98l43.38-40.45c33.65 34.7 78.55 42.5 114.8 50.1 2.7-19.7 4.6-34 5.53-38-70.02-11.3-95.48-40.4-103.75-49.6-1.2-6.1-4.04-11.9-8.58-16.8-12.92-13.8-34.63-14.6-48.48-1.7l-59.34 55.4c-13.86 12.9-14.62 34.7-1.7 48.5 2.16 2.4 4.57 4.3 7.14 5.9l52.45 56.3-14.3 43c-4.5-48.6-45.4-86.7-95.1-86.7-52.8 0-95.5 42.8-95.5 95.5s42.7 95.5 95.5 95.5c50.3 0 91.5-38.9 95.2-88.2l31.2 11.4 2.8-7.5 10.7 46.1 36.9-7.9s-17.7-82.9-25.3-105c3.7-13.4 6.1-24.4 4.9-28.5zm-156.83 150.07c-36.37 0-65.85-29.4-65.85-65.8s29.48-65.8 65.85-65.8 65.85 29.5 65.85 65.9-29.48 65.9-65.85 65.9z"/><path d="M-2126.43 1246.93c-52.74 0-95.5 42.76-95.5 95.5s42.76 95.5 95.5 95.5 95.5-42.76 95.5-95.5c0-52.75-42.76-95.5-95.5-95.5zm0 161.5c-36.37 0-65.85-29.48-65.85-65.85 0-36.37 29.48-65.85 65.85-65.85s65.85 29.48 65.85 65.85c0 36.36-29.5 65.85-65.85 65.85z"/></g><g fill="#fff" fill-rule="evenodd" clip-rule="evenodd"><path d="M-1893.12 1247.7c-52.74 0-95.5 42.77-95.5 95.5s42.76 95.5 95.5 95.5 95.5-42.75 95.5-95.5-42.76-95.5-95.5-95.5zm-.2 161.4c-36.38 0-65.86-29.47-65.86-65.84s29.48-65.85 65.85-65.85 65.85 29.5 65.85 65.9-29.48 65.9-65.85 65.9zm161.7-166.42c-5.13-7.93-38.2-21.36-49.48-25.76l38.6-37.27c44.4 41.2 104.7 48.55 115.56 50.3 1.66-19.86 4.94-33.83 5.65-37.86-61.8-7.8-95.5-39.4-104.3-48.8-1-6.8-4.1-13.4-9.2-18.7-13.1-13.7-34.8-14-48.5-.9l-58.3 56.3c-13.6 13.1-14 34.9-.8 48.5.8.8 1.5 1.5 2.3 2.2l54.6 74.1 1.6 8.4-6.7 25.5 12.2 3.1 12.5 66 37.9-6.4s-9.9-54.9-16.4-87.7c9.1-27.1 19.1-62.1 13.2-71.4z"/><circle cx="-1692.22" cy="1087.7" r="38.5"/><path d="M-1627.43 1246.93c-52.74 0-95.5 42.76-95.5 95.5s42.76 95.5 95.5 95.5 95.5-42.76 95.5-95.5c0-52.75-42.76-95.5-95.5-95.5zm0 161.5c-36.37 0-65.85-29.48-65.85-65.85 0-36.37 29.48-65.85 65.85-65.85s65.85 29.48 65.85 65.85c0 36.37-29.5 65.85-65.85 65.85z"/></g><g fill="#fff" fill-rule="evenodd" clip-rule="evenodd"><path d="M-1393.12 1246.7c-52.74 0-95.5 42.77-95.5 95.5s42.76 95.5 95.5 95.5 95.5-42.75 95.5-95.5-42.76-95.5-95.5-95.5zm-.2 161.4c-36.38 0-65.86-29.47-65.86-65.84s29.48-65.85 65.85-65.85 65.85 29.5 65.85 65.9-29.48 65.9-65.85 65.9z"/><circle cx="-1194.03" cy="1085.11" r="38.5"/><path d="M-1278.53 1214.4l35.28-36.52c39.55 38.38 104.73 50.58 115.44 52.7 2.3-19.8 5.5-34.07 6.3-38.07-65.5-10.7-99.1-43.9-106.4-51.9-1.3-6.6-4.6-12.9-9.8-17.9-13.7-13.1-35.4-12.8-48.5.9l-56.4 58.4c-13.2 13.7-12.8 35.4.8 48.5l.2.2 47.5 73 11.3 106.2 38.4-3.6s-3.2-33.6-6.5-64.4c4.5.8 9 1.5 13.1 2.3.4-9.6 19.4-94.7 9.5-107-8.2-10.2-36.9-17.5-50.5-22.4zm12.06 60.98c-4.15-6.66-9.24-14.5-14.4-22.3l16.12 6.55-1.72 15.75z"/><path d="M-1127.43 1246.93c-52.74 0-95.5 42.76-95.5 95.5s42.76 95.5 95.5 95.5 95.5-42.76 95.5-95.5c0-52.75-42.76-95.5-95.5-95.5zm0 161.5c-36.37 0-65.85-29.48-65.85-65.85 0-36.37 29.48-65.85 65.85-65.85s65.85 29.48 65.85 65.85c0 36.37-29.5 65.85-65.85 65.85z"/></g><g fill="#fff" fill-rule="evenodd" clip-rule="evenodd"><path d="M-893.12 1246.93c-52.74 0-95.5 42.76-95.5 95.5s42.76 95.5 95.5 95.5 95.5-42.76 95.5-95.5c0-52.75-42.76-95.5-95.5-95.5zm-.2 161.18c-36.38 0-65.86-29.4-65.86-65.8s29.48-65.8 65.85-65.8 65.85 29.5 65.85 65.9-29.48 65.9-65.85 65.9z"/><circle cx="-695.71" cy="1083.65" r="38.5"/><path d="M-626.43 1246.93c-52.74 0-95.5 42.76-95.5 95.5s42.76 95.5 95.5 95.5 95.5-42.76 95.5-95.5c0-52.75-42.76-95.5-95.5-95.5zm0 161.5c-36.37 0-65.85-29.48-65.85-65.85 0-36.37 29.48-65.85 65.85-65.85s65.85 29.48 65.85 65.85c0 36.36-29.5 65.85-65.85 65.85z"/><path d="M-725.66 1241.14c-2.44-7.48-41.6-22.43-53.83-26.94l36-37.24c42.3 38.23 89.6 47.13 116.4 53.2 1.7-19.86 6-34.02 6.7-38.04-60.9-10.83-92-37.47-107.8-52.13-1.3-6.7-4.6-13-9.8-18.1-13.6-13.2-35.3-12.8-48.5.8l-56.3 58.3c-13.1 13.6-12.8 35.3.9 48.5l1.7 1.5 45.2 69.5-2.1 101.6 38.4.6s.7-27.8.8-56.7l36.1.1c.1 0 2.1-96.7-3.4-105.2zm-35.8 41.83c-2.1-3.4-9.34-14.95-17.26-27.58l17.94 7.4.2 22.9c-.25-1.3-.55-2.3-.88-2.8z"/></g><g fill="#fff" fill-rule="evenodd" clip-rule="evenodd"><circle cx="-198.82" cy="1081.96" r="38.5"/><path d="M-126.43 1245.93c-42.85 0-79.1 28.22-91.2 67.1-3.96-26.27-8.7-56.17-10.67-62.5-6.35-9-33.98-22.37-55.4-33.7l39.36-40.76c35.7 32.65 82.12 45.6 115.32 53.24 2.35-19.8 6.7-33.4 7.55-37.4-44.9-8.5-82-27.9-107.32-53.6-1.3-6.5-4.6-12.6-9.7-17.6-13.6-13.1-35.3-12.8-48.5.9l-56.3 58.4c-13.1 13.7-12.8 35.4.9 48.5.5.5 1.1 1 1.6 1.5l48 65-5.7 33.8c-7-45.8-46.6-80.9-94.4-80.9-52.7 0-95.5 42.8-95.5 95.5s42.8 95.5 95.5 95.5c36.7 0 68.6-20.7 84.6-51l38.4 6.4s8.9-50.9 12.9-86l7.3 52.6 29.3-4c7.3 45.5 46.7 80.3 94.3 80.3 52.7 0 95.5-42.8 95.5-95.5 0-52.8-42.7-95.5-95.5-95.5zm-266.9 163.18c-36.37 0-65.85-29.4-65.85-65.8s29.48-65.8 65.85-65.8 65.85 29.5 65.85 65.9-29.48 65.9-65.85 65.9zm266.9-1.6c-36.37 0-65.85-29.5-65.85-65.8s29.48-65.8 65.85-65.8 65.85 29.5 65.85 65.9c0 36.4-29.5 65.9-65.85 65.9z"/></g></svg>
