<svg xmlns="http://www.w3.org/2000/svg" width="480" height="480"><path fill="#fff" fill-rule="evenodd" d="M-2125.25-601.8c-36.57 0-67.38-30.8-67.38-67.38 0-36.57 30.8-67.38 67.38-67.38s67.38 30.8 67.38 67.38-30.8 67.38-67.38 67.38zm0-163.63c-53.9 0-96.25 42.35-96.25 96.25s42.35 96.25 96.25 96.25 96.25-42.35 96.25-96.25-42.35-96.25-96.25-96.25zm-111.65-75.07l15.4 15.4c25.02 25.03 57.75 40.42 98.18 40.42v-38.5c-28.88 0-51.98-11.55-69.3-28.88l-36.57-36.58c-9.6-7.7-19.2-11.55-30.8-11.55s-21.1 3.9-26.9 11.6l-53.9 53.9c-7.7 7.7-11.5 17.4-11.5 27 0 11.6 3.9 21.2 11.6 27l61.6 53.9v96.3h38.5V-750l-42.3-44.3 46.2-46.17zm-157.85 238.7c-36.57 0-67.38-30.8-67.38-67.38 0-36.57 30.8-67.38 67.38-67.38s67.38 30.8 67.38 67.38-30.8 67.38-67.38 67.38zm0-163.63c-53.9 0-96.25 42.35-96.25 96.25s42.35 96.25 96.25 96.25 96.25-42.35 96.25-96.25-42.35-96.25-96.25-96.25zm202.13-125.12c21.18 0 38.5-17.33 38.5-38.5s-17.32-38.5-38.5-38.5-38.5 17.33-38.5 38.5 17.32 38.5 38.5 38.5zm299.3 285.8c36.36 0 65.84-29.48 65.84-65.85s-29.48-65.85-65.85-65.85c-36.37 0-65.85 29.48-65.85 65.85s29.5 65.85 65.85 65.85zm265.9-7.68c36.36 0 65.84-29.48 65.84-65.85 0-36.37-29.48-65.85-65.85-65.85s-65.85 29.48-65.85 65.85c0 36.37 29.48 65.85 65.85 65.85zm-78.25-286.27c21.26 0 38.5-17.24 38.5-38.5s-17.24-38.5-38.5-38.5-38.5 17.24-38.5 38.5c0 21.27 17.23 38.5 38.5 38.5zm-132.6 118.97c-2.24-1.2-4.38-2.66-6.37-4.4-14.3-12.42-15.8-34.08-3.38-48.4l53.23-61.22c12.5-14.3 34.1-15.82 48.4-3.4 5.4 4.7 9 10.7 10.7 17.1 1.4 1.5 39.3 41.2 110.7 51.45-.8 4-4.3 17.92-6.3 37.76-10.7-1.93-77.5-13.3-117.9-50.77l-40.3 46.4c4.4 3 49.5 34 54.3 40.9 2.5 3.5 9 28.3 15.1 53 10.3-41.7 47.9-72.7 92.8-72.7 52.8 0 95.5 42.7 95.5 95.5s-42.7 95.5-95.5 95.5c-41.5 0-76.8-26.5-90-63.5l-27.1 7.6-14.6-57c-6 28.5-13.7 59.7-13.7 59.7l-28.6-7.2c-11.8 39.3-48.3 67.9-91.4 67.9-52.7 0-95.5-42.8-95.5-95.5s42.8-95.5 95.5-95.5c46.4 0 85.1 33.1 93.7 76.9l9.5-41-48.3-49.5z" clip-rule="evenodd"/><circle cx="-1212.67" cy="-941.2" r="38.5" fill="#fff" fill-rule="evenodd" clip-rule="evenodd"/><path fill="#fff" fill-rule="evenodd" d="M-1127.43-780.93c-52.74 0-95.5 42.76-95.5 95.5 0 1.98.06 3.94.18 5.88-8.6-28.2-18.78-61.03-21.2-66.16l-.27-.6c.7-6.8.45-11.8-1.3-13.9-7.28-8.7-36.6-28-49.05-36l41.36-47.6c41.7 35.8 108.5 44.8 119.2 46.3 1.3-19.9 4.3-33.9 5-38-63.7-6.9-101.7-37.9-110.5-45.8-1.6-6.9-5.3-13.3-10.9-18.2-14.3-12.4-36-10.9-48.4 3.4l-53.3 61.2c-12.5 14.3-11 36 3.3 48.4 2 1.8 4.2 3.2 6.5 4.4l4.8 3.6 50.6 45.3-12.8 43.5c-8.7-43.9-47.3-76.9-93.7-76.9-52.7 0-95.5 42.7-95.5 95.5s42.8 95.5 95.5 95.5c49.7 0 90.6-38 95.1-86.5l28.8 8.1s3.4-9.9 7.7-23.7l14 51.7 37.4-11.8-.1-.2c16.5 28.5 47.3 47.6 82.6 47.6 52.7 0 95.5-42.8 95.5-95.5 0-52.8-42.8-95.5-95.5-95.5zm-265.9 176.18c-36.37 0-65.85-29.48-65.85-65.85 0-36.37 29.48-65.85 65.85-65.85s65.85 29.48 65.85 65.85c0 36.37-29.48 65.85-65.85 65.85zm265.9-14.68c-36.37 0-65.85-29.48-65.85-65.85 0-36.37 29.48-65.85 65.85-65.85s65.85 29.48 65.85 65.85c0 36.37-29.5 65.85-65.85 65.85zm387.1-157.1c-5.37-8.3-41.32-22.6-50.9-26.3l35.72-44.1c42.3 34.54 108.5 42.27 119.2 43.63.9-19.92 3.7-34 4.3-38.04-62.9-5.67-101.3-35.22-110.9-43.47-1.8-6.9-5.7-13.3-11.6-18.1-14.8-11.9-36.4-9.7-48.3 5.1l-51.1 63c-12 14.7-9.7 36.3 5 48.2l2 1.5 59.4 63.6-9.4 41.6 24.3 6.3 15.5 55.8 36.8-10.9s-18.6-65.8-27.8-95.1c6.8-22.7 11.9-45.8 7.4-53zm-152.8 9.4c-52.73 0-95.5 42.75-95.5 95.5s42.77 95.5 95.5 95.5 95.5-42.77 95.5-95.5-42.75-95.5-95.5-95.5zm-.2 161.38c-36.37 0-65.85-29.48-65.85-65.85 0-36.37 29.48-65.85 65.85-65.85s65.85 29.48 65.85 65.85c0 36.37-29.48 65.85-65.85 65.85z" clip-rule="evenodd"/><circle cx="-714.67" cy="-943.71" r="38.5" fill="#fff" fill-rule="evenodd" clip-rule="evenodd"/><path fill="#fff" fill-rule="evenodd" d="M-627.43-785.93c-52.74 0-95.5 42.76-95.5 95.5s42.76 95.5 95.5 95.5 95.5-42.76 95.5-95.5-42.76-95.5-95.5-95.5zm0 161.5c-36.37 0-65.85-29.48-65.85-65.85 0-36.37 29.48-65.85 65.85-65.85s65.85 29.48 65.85 65.85c0 36.37-29.5 65.85-65.85 65.85zm234.3-147.43c-52.73 0-95.5 42.76-95.5 95.5s42.77 95.5 95.5 95.5 95.5-42.76 95.5-95.5-42.75-95.5-95.5-95.5zm-.2 161.4c-36.37 0-65.85-29.48-65.85-65.85s29.48-65.9 65.85-65.9 65.85 29.5 65.85 65.8-29.48 65.8-65.85 65.8z" clip-rule="evenodd"/><circle cx="-211.21" cy="-945.1" r="38.5" fill="#fff" fill-rule="evenodd" clip-rule="evenodd"/><path fill="#fff" fill-rule="evenodd" d="M-127.43-788.64c-52.74 0-95.5 42.76-95.5 95.5s42.76 95.5 95.5 95.5 95.5-42.76 95.5-95.5c0-52.75-42.76-95.5-95.5-95.5zm0 161.5c-36.37 0-65.85-29.48-65.85-65.85 0-36.3 29.48-65.8 65.85-65.8s65.85 29.5 65.85 65.9c0 36.4-29.5 65.9-65.85 65.9z" clip-rule="evenodd"/><path fill="#fff" fill-rule="evenodd" d="M-235.08-788.65c-6.08-12.03-51.38-21.2-52.5-21.42l33.1-39.46c42.14 35.5 107.97 43.1 118.8 44.5.97-19.93 3.15-34.4 3.7-38.43-64.6-6.06-100.34-35.63-109.16-43.9-1.68-6.8-5.46-13.16-11.25-18-14.5-12.2-36.1-10.3-48.3 4.22L-352.8-839c-12.15 14.5-10.3 36.07 4.13 48.26l54.4 70.76 21.7 103.68 38.6-6.85s-6.62-30.4-13.14-59.3l2 .3s16.2-94.32 10-106.5zm-38.95 32.18c-2.8-4.07-5.78-8.33-8.75-12.52l10.1 3.4-1.35 9.2z" clip-rule="evenodd"/><circle cx="293.79" cy="-946.39" r="38.5" fill="#fff" fill-rule="evenodd" clip-rule="evenodd"/><path fill="#fff" fill-rule="evenodd" d="M106.88-777.14c-52.74 0-95.5 42.76-95.5 95.5s42.76 95.5 95.5 95.5 95.5-42.76 95.5-95.5c0-52.75-42.76-95.5-95.5-95.5zm-.2 161.4c-36.38 0-65.86-29.5-65.86-65.86 0-36.37 29.48-65.85 65.85-65.85s65.85 29.48 65.85 65.85c0 36.37-29.48 65.85-65.85 65.85zm265.9-175.2c-52.75 0-95.5 42.77-95.5 95.5s42.75 95.5 95.5 95.5 95.5-42.75 95.5-95.5-42.77-95.5-95.5-95.5zm0 161.5c-36.38 0-65.86-29.47-65.86-65.84 0-36.37 29.48-65.85 65.85-65.85s65.85 29.48 65.85 65.85c0 36.37-29.5 65.85-65.85 65.85z" clip-rule="evenodd"/><path fill="#fff" fill-rule="evenodd" d="M215.48-815.13l32.97-36.62c41.2 35.5 107.1 43.05 117.87 44.42.96-19.92 3.14-34.38 3.7-38.42-62.56-4.75-96.45-33.14-106.85-43.48-1.45-6.85-5-13.32-10.6-18.36-14.08-12.6-35.77-11.5-48.45 2.6l-54.3 60.3c-12.17 13.5-11.6 34.1.92 46.9L202.4-726l8.3 102.46 38.4-2.46s-2.34-32.58-4.7-62.44l27.34.94s1.86-90.68-2.24-105.38c-5.6-11.1-46.83-20.6-54.1-22.18zm-2.04 38.7l19.98 6.3.26 21.96c-5.3-8.15-13.06-18.77-20.24-28.26z" clip-rule="evenodd"/><circle cx="800.79" cy="-946.39" r="38.5" fill="#fff" fill-rule="evenodd" clip-rule="evenodd"/><path fill="#fff" fill-rule="evenodd" d="M872.57-790.93c-44.06 0-81.16 29.84-92.17 70.42-3.24-28.7-7.85-64.4-11.17-69.2-5.16-7.5-46.1-23.6-53.25-26.4l36.1-37.4c39.5 35.5 87.3 41.2 117.44 45.1.96-20 2.67-33.9 3.23-37.9-62.37-4.7-95.16-33.7-105.27-44.4-1.3-6.7-4.6-13-9.82-18-13.63-13.2-35.34-12.8-48.5.8l-56.36 58.4c-13.18 13.6-12.8 35.3.82 48.5.98.9 2 1.8 3.06 2.6l47 63.9-2.4 33.1c-7-45.9-46.6-81-94.42-81-52.74 0-95.5 42.7-95.5 95.5s42.76 95.5 95.5 95.5c42.97 0 79.3-28.4 91.3-67.4l-1.5 20.7 38.68 2.7s4.28-53.7 5.75-86.1l5.1 42.3 31.6-4.1c6.1 46.8 46.2 83 94.7 83 52.7 0 95.5-42.8 95.5-95.5S925.2-791 872.5-791zm-265.9 170.18c-36.37 0-65.85-29.48-65.85-65.85 0-36.37 29.48-65.85 65.85-65.85s65.85 29.48 65.85 65.85c0 36.37-29.48 65.85-65.85 65.85zM725.8-769.58l9.97 4.12 1.58 13.07c-2.86-4.7-6.98-10.7-11.55-17.1zm146.77 140.15c-36.37 0-65.85-29.48-65.85-65.85 0-36.37 29.48-65.85 65.85-65.85s65.85 29.48 65.85 65.85c0 36.37-29.5 65.85-65.85 65.85z" clip-rule="evenodd"/><circle cx="1306.79" cy="-946.39" r="38.5" fill="#fff" fill-rule="evenodd" clip-rule="evenodd"/><path fill="#fff" fill-rule="evenodd" d="M1372.57-789.93c-43.84 0-80.8 29.54-92 69.8-4.56-26.12-9.9-53.7-12.78-57.85-5-7.17-43.6-30.62-52.9-36.2l41.4-40c37.4 35.68 79.2 41.84 115.6 47.53 1.6-19.87 2.8-34.2 3.5-38.23-64.8-7.06-92.3-34.24-103-45.88-1.2-6.54-4.2-12.82-9.1-17.96-13.2-13.63-34.9-14-48.5-.84l-58.4 56.36c-13.7 13.16-14 34.88-.9 48.5 2 2.1 4.2 3.9 6.6 5.36l47.1 54.97-8.5 37.34c-7.8-44.94-47-79.12-94.1-79.12-52.8 0-95.5 42.76-95.5 95.5s42.7 95.5 95.5 95.5c40.4 0 75-25.13 88.9-60.63l30.9 7.72s10.3-43.84 15.7-73.07l11 57.46 26.9-5.58c11 40.52 48.1 70.3 92.1 70.3 52.7 0 95.5-42.75 95.5-95.5 0-52.72-42.8-95.48-95.5-95.48zm-265.9 165.18c-36.37 0-65.85-29.48-65.85-65.85 0-36.37 29.48-65.85 65.85-65.85s65.85 29.48 65.85 65.85c0 36.37-29.48 65.85-65.85 65.85zm265.9-3.68c-36.37 0-65.85-29.48-65.85-65.85 0-36.37 29.48-65.85 65.85-65.85s65.85 29.48 65.85 65.85c0 36.37-29.5 65.85-65.85 65.85z" clip-rule="evenodd"/><circle cx="1812.79" cy="-944.39" r="38.5" fill="#fff" fill-rule="evenodd" clip-rule="evenodd"/><path fill="#fff" fill-rule="evenodd" d="M1872.57-786.93c-48.45 0-88.47 36.08-94.67 82.84-5.07-26.8-10.97-55.3-13.87-59.5-5.3-7.6-45.23-42.8-50.1-47.1l46.23-43.1c36.97 37 78.94 43.9 115.56 50.3 2-19.8 3.4-34.1 4.2-38.1-66.2-8.4-92.93-37.1-102.9-48.5-1.02-6.5-3.95-12.8-8.8-18-12.92-13.8-34.63-14.6-48.48-1.7l-59.34 55.4c-13.86 12.9-14.62 34.7-1.7 48.5 2.25 2.4 4.76 4.5 7.45 6.1l51.48 45.3-16.15 48.1c-6.4-46.5-46.32-82.3-94.6-82.3-52.74 0-95.5 42.8-95.5 95.5s42.76 95.5 95.5 95.5c45.43 0 83.45-31.7 93.12-74.2l27.26 9.2s6.42-19 12.88-39.9l12.42 56.7 32.1-7.6c14.56 34.2 48.44 58.1 87.9 58.1 52.75 0 95.5-42.7 95.5-95.5 0-52.7-42.75-95.4-95.5-95.4zm-265.9 159.18c-36.37 0-65.85-29.48-65.85-65.85 0-36.37 29.48-65.85 65.85-65.85 36.37 0 65.85 29.48 65.85 65.85 0 36.37-29.48 65.85-65.85 65.85zm265.9 2.32c-36.37 0-65.85-29.48-65.85-65.85 0-36.37 29.48-65.85 65.85-65.85s65.85 29.48 65.85 65.85c0 36.37-29.5 65.85-65.85 65.85z" clip-rule="evenodd"/><circle cx="2317.79" cy="-941.39" r="38.5" fill="#fff" fill-rule="evenodd" clip-rule="evenodd"/><path fill="#fff" fill-rule="evenodd" d="M2268.13-776.64c-2.2-8.03-27.9-24.62-48.26-36.7l43.26-38.94c34.97 37.98 77.54 45.4 113.5 53.62 3.05-19.7 5.2-33.92 6.2-37.9-66.32-11.94-92.48-41.2-101.93-52.4-.95-6.44-3.75-12.7-8.44-17.9-12.68-14.07-34.37-15.2-48.45-2.52l-60.2 54.3c-14.1 12.67-15.2 34.36-2.5 48.44 1.7 1.86 3.5 3.5 5.5 4.9l51.4 62.68-15.6 42.2c-1.2-51.72-43.4-93.28-95.4-93.28-52.7 0-95.5 42.76-95.5 95.5s42.8 95.5 95.5 95.5c50.3 0 91.5-38.9 95.2-88.3l32.2 12.24 9.3 44.63 37-7.9s-13.5-76.5-20.7-101.4c5.8-16.93 9.8-31.85 8.5-36.77zm-161.46 147.9c-36.37 0-65.85-29.5-65.85-65.86 0-36.37 29.48-65.85 65.85-65.85s65.85 29.48 65.85 65.85c0 36.37-29.48 65.85-65.85 65.85z" clip-rule="evenodd"/><path fill="#fff" fill-rule="evenodd" d="M2372.57-781.93c-52.74 0-95.5 42.76-95.5 95.5s42.76 95.5 95.5 95.5 95.5-42.76 95.5-95.5-42.76-95.5-95.5-95.5zm0 161.5c-36.37 0-65.85-29.48-65.85-65.85 0-36.37 29.48-65.85 65.85-65.85s65.85 29.48 65.85 65.85c0 36.37-29.5 65.85-65.85 65.85zm-4765.7 334.3c-52.73 0-95.5 42.75-95.5 95.5s42.77 95.5 95.5 95.5 95.5-42.77 95.5-95.5c0-52.76-42.75-95.5-95.5-95.5zm-.2 161.38c-36.37 0-65.85-29.48-65.85-65.85 0-36.37 29.48-65.85 65.85-65.85s65.85 29.48 65.85 65.85c0 36.37-29.48 65.85-65.85 65.85z" clip-rule="evenodd"/><circle cx="-2179.21" cy="-435.39" r="38.5" fill="#fff" fill-rule="evenodd" clip-rule="evenodd"/><path fill="#fff" fill-rule="evenodd" d="M-2127.43-272.93c-52.74 0-95.5 42.76-95.5 95.5s42.76 95.5 95.5 95.5 95.5-42.76 95.5-95.5-42.76-95.5-95.5-95.5zm0 161.5c-36.37 0-65.85-29.48-65.85-65.85 0-36.37 29.48-65.85 65.85-65.85s65.85 29.48 65.85 65.85c0 36.37-29.5 65.85-65.85 65.85z" clip-rule="evenodd"/><path fill="#fff" fill-rule="evenodd" d="M-2223.97-280.65c-2.9-10.55-35.62-24.33-49.63-29.8l39.38-35.46c36.3 37.2 77.52 48.2 113.43 56.4 3.1-19.7 5.8-33.8 6.8-37.8-65.7-12.1-92.9-44.2-102.4-55.7-1-6.4-3.8-12.5-8.4-17.6-12.7-14.1-34.3-15.3-48.4-2.6l-60.3 54.3c-14.1 12.6-15.2 34.3-2.5 48.4.9.9 1.8 1.8 2.7 2.6l47.8 73.4 2.6 20.3-4.4 14.4 6.6 2 9 69.7 38-3.7s-5.2-43.8-10.4-77.8c9-27.1 23.1-72.2 20.6-81.5zm-41.26 18.7l-2.37-4.9 3.4 1.56-1.03 3.4z" clip-rule="evenodd"/><g fill="#fff" fill-rule="evenodd" clip-rule="evenodd"><path d="M-1719.27-281.82c-.55-7.3-34.25-21.07-50.88-27.43l37.78-34.02c35.4 37.7 75.36 49.36 112.63 59.33 3.38-19.65 7.1-33.76 8.14-37.7-56.9-11.1-91.5-44-102.87-58.35-.95-6.4-3.75-12.7-8.45-17.9-12.68-14.1-34.37-15.2-48.45-2.5l-60.3 54.3c-14.07 12.7-15.2 34.4-2.53 48.5.43.5.88 1 1.33 1.4l42.22 76.8 1.37 103.3 38.13.4s-.2-33-1.17-64.5l18.12 3.5s19.55-100.1 14.93-104.8zm-41.38 38.12c-3.55-6.93-8.68-17.07-13.7-27.08l16.5 7.52-2.8 19.56z"/><path d="M-1892.12-284.14c-52.74 0-95.5 42.76-95.5 95.5s42.76 95.5 95.5 95.5 95.5-42.76 95.5-95.5c0-52.75-42.76-95.5-95.5-95.5zm-.2 161.4c-36.38 0-65.86-29.5-65.86-65.86 0-36.37 29.48-65.85 65.85-65.85s65.85 29.48 65.85 65.85c0 36.37-29.48 65.85-65.85 65.85z"/><circle cx="-1677.82" cy="-432.89" r="38.5"/><path d="M-1626.43-266.93c-52.74 0-95.5 42.76-95.5 95.5s42.76 95.5 95.5 95.5 95.5-42.76 95.5-95.5-42.76-95.5-95.5-95.5zm0 161.5c-36.37 0-65.85-29.48-65.85-65.85 0-36.37 29.48-65.85 65.85-65.85s65.85 29.48 65.85 65.85c0 36.37-29.5 65.85-65.85 65.85z"/></g><g fill="#fff" fill-rule="evenodd" clip-rule="evenodd"><path d="M-1392.12-280.3c-52.74 0-95.5 42.75-95.5 95.5s42.76 95.5 95.5 95.5 95.5-42.77 95.5-95.5-42.76-95.5-95.5-95.5zm-.2 161.4c-36.38 0-65.86-29.5-65.86-65.86s29.48-65.85 65.85-65.85 65.85 29.4 65.85 65.8-29.48 65.8-65.85 65.8z"/><circle cx="-1177.82" cy="-430.06" r="38.5"/><path d="M-1126.43-262.1c-44.2 0-81.38 30.03-92.27 70.8 1.75-29.94 4-77.43.85-80.65-.6-7.77-38-25.28-52.92-31.97l39.55-35.6c34.7 37.9 75.13 50.34 112.04 60.9 3.73-19.58 7.68-33.62 8.8-37.55-58.1-12.4-92.87-46.36-103.17-60.13-.98-6.38-3.77-12.56-8.4-17.72-12.7-14.08-34.38-15.2-48.46-2.53l-60.3 54.3c-14.1 12.67-15.3 34.36-2.6 48.44l2.1 2.1 39.7 73.7-12.1 97.1 38 5.3s5.4-40.3 8.6-73.8l-.8 20.4 35.5 1.5v.6c0 52.7 42.7 95.5 95.5 95.5s95.5-42.8 95.5-95.5c-.1-52.7-42.8-95.5-95.6-95.5zm-128.7 29.9c-.1-.23-.17-.43-.26-.6-1.8-3.4-7.7-14.9-14.1-27.7l15.2 7.7-.7 20.6zm128.7 131.6c-36.37 0-65.85-29.47-65.85-65.84 0-36.37 29.48-65.85 65.85-65.85s65.85 29.5 65.85 65.9c0 36.4-29.5 65.9-65.85 65.9z"/></g><g fill="#fff" fill-rule="evenodd" clip-rule="evenodd"><circle cx="-681.82" cy="-428.89" r="38.5"/><path d="M-626.43-260.93c-40.8 0-75.62 25.58-89.3 61.58-2.5-25.7-5.4-53.86-6.76-60.07-5.7-9.82-32.7-25.6-53.1-38.8l41.2-39.8c34.1 35.44 80.6 51.08 113.8 60.58 3.4-19.65 8.5-33 9.5-36.95-45.5-11.1-82.2-33.3-106.1-61.2-1.1-6.5-4.2-12.7-9.1-17.8-13.1-13.6-34.9-14-48.5-.8l-58.3 56.4c-13.6 13.2-14 34.9-.8 48.5.8.8 1.6 1.6 2.4 2.3l42.7 63.5-8 32.8c-5.1-47.9-45.7-85.3-94.9-85.3-52.7 0-95.5 42.8-95.5 95.5S-944.7-85-891.9-85c35.6 0 66.7-19.5 83.1-48.4l35 9.07s13-47.77 19.7-80.92l4.6 55.08 28.6-2.34c6.2 46.7 46.2 82.7 94.64 82.7 52.75 0 95.5-42.8 95.5-95.5s-42.76-95.5-95.5-95.5zm-265.9 146.18c-36.37 0-65.85-29.48-65.85-65.85 0-36.37 29.48-65.85 65.85-65.85s65.85 29.48 65.85 65.85c0 36.37-29.48 65.85-65.85 65.85zm265.9 15.32c-36.37 0-65.85-29.48-65.85-65.85 0-36.37 29.48-65.85 65.85-65.85s65.85 29.48 65.85 65.85c0 36.37-29.5 65.85-65.85 65.85z"/></g><g fill="#fff" fill-rule="evenodd" clip-rule="evenodd"><path d="M-127.43-261.93c-44.65 0-82.14 30.64-92.6 72.04-4.7-24.4-9.52-49.4-10.77-55.2-10.6-11.6-33.26-30.6-52.17-45.7l43.5-45c35.9 34.9 80.48 48 114.72 57.1 3.96-18.8 8.12-33.5 8.97-37.5-46.76-10.2-82.16-29.9-107.37-56.8-1.22-6.8-4.54-13.4-9.94-18.6-13.6-13.1-35.3-12.8-48.5.9l-56.3 58.4c-13.1 13.6-12.8 35.4.9 48.5 1.8 1.7 3.7 3.2 5.8 4.5l47.2 50.2-14.1 44.1c-5.8-47.2-46-83.8-94.8-83.8-52.7 0-95.5 42.8-95.5 95.5S-445.7-78-392.9-78c42.8 0 79-28.1 91.1-66.9l27.44 9.4s9.15-25.94 16.7-51l10.68 56.24 29.2-5.45c12.7 37.7 48.4 64.9 90.5 64.9 52.7 0 95.5-42.8 95.5-95.5s-42.8-95.5-95.5-95.5zm-265.9 154.18c-36.37 0-65.85-29.48-65.85-65.85 0-36.37 29.48-65.85 65.85-65.85s65.85 29.48 65.85 65.85c0 36.37-29.48 65.85-65.85 65.85zm265.9 7.32c-36.37 0-65.85-29.48-65.85-65.85 0-36.37 29.48-65.85 65.85-65.85s65.85 29.48 65.85 65.85c0 36.37-29.5 65.85-65.85 65.85z"/><circle cx="-190.28" cy="-429.04" r="38.5"/></g><g fill="#fff" fill-rule="evenodd" clip-rule="evenodd"><circle cx="303.72" cy="-428.52" r="38.5"/><path d="M262.5-249.5c-2.37-9.3-29.78-28.48-47.77-40.23l41.78-44.8c36.5 33.85 81.2 45.4 115.4 53.82 3.7-19 7.6-33.7 8.3-37.7-46.8-9.4-82.7-27.5-108.3-53.8-1.4-6.8-4.8-13.2-10.2-18.2-13.8-13-35.5-12.2-48.5 1.7l-55.3 59.3c-12.9 13.8-12.1 35.5 1.7 48.5 2.3 2.1 4.8 3.9 7.4 5.3l50 53.2-15.2 42.1c-5.7-47.4-46-84-94.8-84-52.7 0-95.5 42.7-95.5 95.5S54.3-73.3 107-73.3c49.4 0 90.06-37.5 95-85.56L231.4-148s2.36-5.94 5.78-15L249-113.8l37.3-8.86s-18.94-77.9-26.2-108.5c2.2-8.6 3.3-15.34 2.5-18.4zM106.66-102.76c-36.37 0-65.85-29.48-65.85-65.85 0-36.4 29.5-65.9 65.9-65.9s65.9 29.5 65.9 65.8-29.4 65.8-65.8 65.8z"/><path d="M373.57-263.93c-52.74 0-95.5 42.76-95.5 95.5s42.76 95.5 95.5 95.5 95.5-42.76 95.5-95.5-42.76-95.5-95.5-95.5zm0 161.5c-36.37 0-65.85-29.48-65.85-65.85 0-36.37 29.48-65.85 65.85-65.85s65.85 29.48 65.85 65.85c0 36.37-29.5 65.85-65.85 65.85z"/></g><g fill="#fff" fill-rule="evenodd" clip-rule="evenodd"><path d="M872.57-263.93c-52.74 0-95.5 42.76-95.5 95.5s42.76 95.5 95.5 95.5 95.5-42.76 95.5-95.5-42.76-95.5-95.5-95.5zm0 161.5c-36.37 0-65.85-29.48-65.85-65.85 0-36.37 29.48-65.85 65.85-65.85s65.85 29.48 65.85 65.85c0 36.37-29.5 65.85-65.85 65.85zm-265.7-160.7c-52.73 0-95.5 42.75-95.5 95.5s42.77 95.5 95.5 95.5 95.5-42.77 95.5-95.5-42.75-95.5-95.5-95.5zm-.2 161.38c-36.37 0-65.85-29.48-65.85-65.85 0-36.37 29.48-65.85 65.85-65.85s65.85 29.48 65.85 65.85c0 36.37-29.48 65.85-65.85 65.85z"/><circle cx="804.37" cy="-426.76" r="38.5"/><path d="M767.73-266.33c-5.3-8.2-39.58-22.9-49.4-27l37.86-40.6c38.4 37.38 96.7 49.35 116.3 53.03 2.7-19.76 5.5-33.8 6.4-37.8-66.5-11.9-98.4-43.58-107.7-52.97-1.4-6.6-4.8-12.87-10.2-17.83-13.9-12.92-35.6-12.16-48.5 1.7l-55.4 59.34c-13 13.86-12.2 35.57 1.7 48.48.6.56 1.2 1.1 1.8 1.6l2.2 2.85-.5.2.9.32 53.3 68.2-10.6 36.4L725-165l10.8 61.8 38-7.8s-11.96-63.9-18.5-95.1c9.14-24.8 17.32-52.3 12.23-60.3z"/></g><g fill="#fff" fill-rule="evenodd" clip-rule="evenodd"><path d="M1106.88-264.14c-52.74 0-95.5 42.76-95.5 95.5s42.76 95.5 95.5 95.5 95.5-42.76 95.5-95.5-42.76-95.5-95.5-95.5zm-.2 161.4c-36.38 0-65.86-29.5-65.86-65.86 0-36.37 29.48-65.85 65.85-65.85s65.85 29.48 65.85 65.85c0 36.37-29.48 65.85-65.85 65.85z"/><path d="M1270.15-270.56c-7.4-10.64-36.08-19.17-49.84-24.68l36.5-37.73c39.6 38.38 104.8 50.58 115.5 52.7 2.4-19.8 5.6-34.07 6.4-38.07-65.4-10.78-99-43.95-106.3-51.94-1.3-6.6-4.5-12.9-9.8-17.94-13.6-13.16-35.3-12.78-48.5.85L1157.6-329c-13.17 13.63-12.8 35.35.83 48.5l.16.16 48.5 74.36 13.8 105.83 38.2-4.97s-4-30.23-8.1-59.6l.8.22c1.1-9.6 27.3-93.13 18.3-106.06zm-39.6 31c-2.9-4.8-6.12-10.02-9.4-15.3l11.3 4.8-1.9 10.5z"/><path d="M1372.57-263.93c-52.74 0-95.5 42.76-95.5 95.5s42.76 95.5 95.5 95.5 95.5-42.76 95.5-95.5-42.76-95.5-95.5-95.5zm0 161.5c-36.37 0-65.85-29.48-65.85-65.85 0-36.37 29.48-65.85 65.85-65.85s65.85 29.48 65.85 65.85c0 36.37-29.5 65.85-65.85 65.85z"/><circle cx="1305.97" cy="-425.74" r="38.5"/></g><g fill="#fff" fill-rule="evenodd" clip-rule="evenodd"><circle cx="1808.18" cy="-423.89" r="38.5"/><path d="M1606.88-264.14c-52.74 0-95.5 42.76-95.5 95.5s42.76 95.5 95.5 95.5 95.5-42.76 95.5-95.5-42.76-95.5-95.5-95.5zm-.2 161.4c-36.38 0-65.86-29.5-65.86-65.86 0-36.37 29.48-65.85 65.85-65.85 36.37 0 65.85 29.48 65.85 65.85 0 36.37-29.48 65.85-65.85 65.85zm266.9-161.2c-52.75 0-95.5 42.77-95.5 95.5s42.75 95.5 95.5 95.5 95.5-42.75 95.5-95.5-42.77-95.5-95.5-95.5zm0 161.5c-36.38 0-65.86-29.47-65.86-65.84 0-36.37 29.48-65.85 65.85-65.85s65.85 29.48 65.85 65.85c0 36.37-29.5 65.85-65.85 65.85z"/><path d="M1721.62-296.57l35.84-34.6c38.32 34.3 78.02 43.62 115.9 50.27 1.65-19.87 4.1-34.25 4.82-38.27-54.97-5.82-90.02-33.97-103.8-48.27-1-6.85-4.1-13.46-9.26-18.82-13.16-13.63-34.88-14-48.5-.84l-58.37 56.36c-13.57 13.1-14 34.67-1.04 48.3l48.6 75.3 5.5 103.65 38.2-1.8s-1.6-32.5-4-63.9l23.1 2s10.8-101.4 5.8-105.7c-1.2-7.3-35.9-18.5-52.6-23.5zm14.7 67.07c-3.7-5.78-10.65-16.98-17.65-28.3l18.78 6.65-1.14 21.65z"/></g><g fill="#fff" fill-rule="evenodd" clip-rule="evenodd"><circle cx="2309.35" cy="-421.89" r="38.5"/><path d="M2373.57-263.93c-45.56 0-83.67 31.9-93.2 74.6-1.1-29.74-3.17-72.86-6.18-76.8-2.6-7.7-42.8-24.36-53.2-28.56l37.1-35.8c39.1 36.6 76.4 43 115.3 49.8 1.6-19.8 4.1-34.2 4.8-38.2-59.6-6.3-93.1-36.3-103.9-48.6-1.2-6.4-4.2-12.5-9.1-17.6-13.1-13.6-34.9-14-48.5-.8l-58.4 56.4c-13.7 13.2-14 34.9-.9 48.6.8.9 1.7 1.7 2.7 2.5l44.2 67-2.7 35.2c-4.2-48.9-45.2-87.3-95.2-87.3-52.8 0-95.5 42.8-95.5 95.5s42.7 95.5 95.5 95.5c44.9 0 82.7-31.1 92.8-72.9l-2.5 32.2 38.2 3.4s5.13-58 5.9-92.8l2.54 44 34.3-1.9c3.8 49.3 45 88.1 95.2 88.1 52.7 0 95.5-42.74 95.5-95.5-.04-52.72-42.8-95.5-95.54-95.5zm-266.9 161.18c-36.37 0-65.85-29.48-65.85-65.85 0-36.37 29.48-65.85 65.85-65.85s65.85 29.48 65.85 65.85c0 36.37-29.48 65.85-65.85 65.85zM2225.9-250.5l13.16 6.02.94 16.26c-1.8-2.9-7.46-11.83-14.1-22.3zm147.67 148.07c-36.37 0-65.85-29.48-65.85-65.85 0-36.37 29.48-65.85 65.85-65.85s65.85 29.48 65.85 65.85c0 36.37-29.5 65.85-65.85 65.85z"/></g><g fill="#fff" fill-rule="evenodd" clip-rule="evenodd"><path d="M-2127.43 239.5c-42.2 0-78.03 27.4-90.65 65.37-4.47-24.48-9.3-50.02-11-55.82-6.54-9.67-33.07-24.5-53.82-36.57l40.43-39.04c36.9 35.8 81.7 44.06 116.56 49.16 1.3-19.9 3-34.03 3.6-38.07-45.2-6.16-71.6-15.85-102.9-47.6-1-6.88-4.1-13.53-9.3-18.9-13.2-13.64-34.9-14-48.5-.85l-58.4 56.36c-13.7 13.16-14 34.88-.9 48.5 1.3 1.4 2.7 2.63 4.2 3.74l46.9 58.8-7.6 36.93c-6.5-46.4-46.4-82.2-94.6-82.2-52.7 0-95.5 42.8-95.5 95.5s42.8 95.5 95.5 95.5c38.7 0 72-23 87-56.1l33.6 7.4s9.9-43.5 15.5-76.3l9.3 55.2 27-4.2c9.6 42.6 47.7 74.4 93.1 74.4 52.7 0 95.5-42.7 95.5-95.5 0-52.7-42.8-95.5-95.5-95.5zm-265.9 161.18c-36.37 0-65.85-29.48-65.85-65.85s29.48-65.85 65.85-65.85 65.85 29.48 65.85 65.85-29.48 65.85-65.85 65.85zm265.9.32c-36.37 0-65.85-29.48-65.85-65.85 0-36.37 29.48-65.85 65.85-65.85s65.85 29.48 65.85 65.85c0 36.37-29.5 65.85-65.85 65.85z"/><circle cx="-2189.82" cy="82.53" r="38.5"/></g><g fill="#fff" fill-rule="evenodd" clip-rule="evenodd"><path d="M-1627.43 239.5c-47.1 0-86.25 34.1-94.08 78.98-5.1-26.24-10.8-53.52-13.6-57.6-4.8-6.83-40-35.72-51.3-44.9l45.5-42.43c36.7 36.1 78.2 42.98 114.5 49.3 2-19.85 3.4-34.16 4.2-38.17-64.1-8.1-91.2-35.33-101.9-47.33-1-6.6-4-12.97-8.9-18.22-12.9-13.86-34.6-14.6-48.5-1.7l-59.4 55.34c-13.9 12.92-14.6 34.63-1.7 48.48 2.2 2.33 4.6 4.3 7.2 5.88l50.7 47.67-14.4 45.02c-7.2-45.64-46.7-80.55-94.4-80.55-52.8 0-95.5 42.76-95.5 95.5s42.7 95.5 95.5 95.5c44.7 0 82.2-30.73 92.6-72.22l26.8 9s7.6-22.45 14.5-45.37l12.7 56.26 30.3-7.24c14.1 35.05 48.5 59.78 88.6 59.78 52.7 0 95.5-42.76 95.5-95.5 0-52.72-42.8-95.48-95.5-95.48zm-265.9 161.18c-36.37 0-65.85-29.48-65.85-65.85s29.48-65.85 65.85-65.85 65.85 29.48 65.85 65.85-29.48 65.85-65.85 65.85zm265.9.32c-36.37 0-65.85-29.48-65.85-65.85 0-36.37 29.48-65.85 65.85-65.85s65.85 29.48 65.85 65.85c0 36.37-29.5 65.85-65.85 65.85z"/><circle cx="-1689.21" cy="83.04" r="38.5"/></g><g fill="#fff" fill-rule="evenodd" clip-rule="evenodd"><circle cx="-1190.21" cy="82.04" r="38.5"/><path d="M-1236.5 250.62c-2.24-8.1-28.32-24.88-48.76-36.98l43.38-40.45c33.64 34.6 78.55 42.4 114.8 50 2.7-19.8 4.6-34 5.53-38-70.02-11.4-95.48-40.5-103.75-49.6-1.2-6.1-4.04-11.9-8.58-16.8-12.92-13.9-34.63-14.6-48.48-1.7l-59.34 55.3c-13.86 12.9-14.62 34.6-1.7 48.5 2.16 2.3 4.57 4.2 7.14 5.8l52.45 56.2-14.3 42.9c-4.5-48.6-45.4-86.7-95.1-86.7-52.8 0-95.5 42.8-95.5 95.5s42.7 95.5 95.5 95.5c50.3 0 91.5-38.9 95.2-88.3l31.2 11.4 2.8-7.5 10.7 46.1 36.9-7.9s-17.7-82.9-25.3-105c3.7-13.4 6.1-24.4 4.9-28.5zm-156.83 150.06c-36.37 0-65.85-29.48-65.85-65.85s29.48-65.85 65.85-65.85 65.85 29.48 65.85 65.85-29.48 65.85-65.85 65.85z"/><path d="M-1126.43 239.5c-52.74 0-95.5 42.76-95.5 95.5s42.76 95.5 95.5 95.5 95.5-42.76 95.5-95.5-42.76-95.5-95.5-95.5zm0 161.5c-36.37 0-65.85-29.48-65.85-65.85 0-36.37 29.48-65.85 65.85-65.85s65.85 29.48 65.85 65.85c0 36.37-29.5 65.85-65.85 65.85z"/></g><g fill="#fff" fill-rule="evenodd" clip-rule="evenodd"><path d="M-893.12 240.28c-52.74 0-95.5 42.76-95.5 95.5s42.76 95.5 95.5 95.5 95.5-42.76 95.5-95.5-42.76-95.5-95.5-95.5zm-.2 161.4c-36.38 0-65.86-29.48-65.86-65.85s29.48-65.85 65.85-65.85 65.85 29.48 65.85 65.85-29.48 65.85-65.85 65.85zm161.7-166.43c-5.13-7.93-38.2-21.36-49.48-25.76l38.6-37.3c44.4 41.2 104.7 48.5 115.56 50.3 1.66-19.9 4.94-33.9 5.65-37.9-61.8-7.8-95.5-39.4-104.3-48.8-1-6.8-4.1-13.4-9.2-18.7-13.1-13.6-34.8-14-48.5-.9l-58.3 56.3c-13.6 13.1-14 34.8-.8 48.5.8.7 1.5 1.5 2.3 2.2l54.6 74.1 1.6 8.5-6.7 25.5 12.2 3.1 12.5 66 37.9-6.3s-9.9-54.9-16.4-87.7c9.1-27.1 19.1-62.2 13.2-71.4z"/><circle cx="-692.22" cy="80.27" r="38.5"/><path d="M-627.43 239.5c-52.74 0-95.5 42.76-95.5 95.5s42.76 95.5 95.5 95.5 95.5-42.76 95.5-95.5-42.76-95.5-95.5-95.5zm0 161.5c-36.37 0-65.85-29.48-65.85-65.85 0-36.37 29.48-65.85 65.85-65.85s65.85 29.48 65.85 65.85c0 36.37-29.5 65.85-65.85 65.85z"/></g><g fill="#fff" fill-rule="evenodd" clip-rule="evenodd"><path d="M-393.12 239.28c-52.74 0-95.5 42.76-95.5 95.5s42.76 95.5 95.5 95.5 95.5-42.76 95.5-95.5-42.76-95.5-95.5-95.5zm-.2 161.4c-36.38 0-65.86-29.48-65.86-65.85s29.48-65.85 65.85-65.85 65.85 29.48 65.85 65.85-29.48 65.85-65.85 65.85z"/><circle cx="-194.03" cy="77.69" r="38.5"/><path d="M-278.53 206.98l35.28-36.53c39.55 38.38 104.73 50.58 115.44 52.7 2.3-19.8 5.5-34.07 6.3-38.07-65.5-10.78-99.1-43.95-106.4-51.94-1.3-6.6-4.6-12.9-9.8-17.94-13.7-13.16-35.4-12.78-48.5.85l-56.4 58.36c-13.2 13.7-12.8 35.4.8 48.6l.2.2 47.5 73 11.3 106.2 38.4-3.6s-3.2-33.6-6.5-64.4c4.5.8 9 1.5 13.1 2.3.4-9.6 19.4-94.7 9.5-107-8.2-10.2-36.9-17.6-50.5-22.4zm12.06 60.97c-4.15-6.66-9.24-14.5-14.4-22.3l16.12 6.55-1.72 15.75z"/><path d="M-127.43 239.5c-52.74 0-95.5 42.76-95.5 95.5s42.76 95.5 95.5 95.5 95.5-42.76 95.5-95.5-42.76-95.5-95.5-95.5zm0 161.5c-36.37 0-65.85-29.48-65.85-65.85 0-36.37 29.48-65.85 65.85-65.85s65.85 29.48 65.85 65.85c0 36.37-29.5 65.85-65.85 65.85z"/></g><g fill="#fff" fill-rule="evenodd" clip-rule="evenodd"><path d="M106.88 239.5c-52.74 0-95.5 42.76-95.5 95.5s42.76 95.5 95.5 95.5 95.5-42.76 95.5-95.5-42.76-95.5-95.5-95.5zm-.2 161.18c-36.38 0-65.86-29.48-65.86-65.85s29.48-65.85 65.85-65.85 65.85 29.48 65.85 65.85-29.48 65.85-65.85 65.85z"/><circle cx="304.29" cy="76.22" r="38.5"/><path d="M373.57 239.5c-52.74 0-95.5 42.76-95.5 95.5s42.76 95.5 95.5 95.5 95.5-42.76 95.5-95.5-42.76-95.5-95.5-95.5zm0 161.5c-36.37 0-65.85-29.48-65.85-65.85 0-36.37 29.48-65.85 65.85-65.85s65.85 29.48 65.85 65.85c0 36.37-29.5 65.85-65.85 65.85z"/><path d="M274.34 233.72c-2.44-7.48-41.6-22.43-53.83-26.94l36-37.24c42.3 38.23 89.6 47.13 116.4 53.2 1.7-19.86 6-34.02 6.7-38.04-60.9-10.83-92-37.47-107.8-52.13-1.3-6.64-4.6-12.97-9.8-18.03-13.6-13.16-35.3-12.78-48.5.85l-56.3 58.3c-13.1 13.6-12.8 35.3.9 48.5l1.7 1.5 45.2 69.5-2.1 101.6 38.4.6s.7-27.8.8-56.7l36.1.1c.1 0 2.1-96.7-3.4-105.2zm-35.8 41.83c-2.1-3.4-9.34-14.95-17.26-27.58l17.94 7.4.2 22.97c-.25-1.3-.55-2.26-.88-2.8z"/></g><g fill="#fff" fill-rule="evenodd" clip-rule="evenodd"><circle cx="801.18" cy="74.53" r="38.5"/><path d="M873.57 238.5c-42.85 0-79.1 28.22-91.2 67.1-3.96-26.27-8.7-56.17-10.67-62.5-6.35-9-33.98-22.37-55.4-33.7l39.36-40.76c35.7 32.65 82.12 45.6 115.32 53.24 2.35-19.8 6.7-33.4 7.55-37.4-44.9-8.54-82-27.98-107.32-53.63-1.3-6.5-4.6-12.65-9.7-17.6-13.6-13.17-35.3-12.8-48.5.84l-56.3 58.3c-13.1 13.6-12.8 35.3.9 48.5.5.5 1.1 1 1.6 1.4l48 65-5.7 33.8c-7-45.9-46.6-81-94.4-81-52.7 0-95.5 42.7-95.5 95.5s42.8 95.5 95.5 95.5c36.7 0 68.6-20.7 84.6-51.1l38.4 6.4s8.9-50.9 12.9-86l7.3 52.6 29.3-4c7.3 45.5 46.7 80.3 94.3 80.3 52.7 0 95.5-42.8 95.5-95.5s-42.7-95.5-95.5-95.5zm-266.9 163.18c-36.37 0-65.85-29.48-65.85-65.85s29.48-65.85 65.85-65.85 65.85 29.48 65.85 65.85-29.48 65.85-65.85 65.85zm266.9-1.68c-36.37 0-65.85-29.48-65.85-65.85 0-36.37 29.48-65.85 65.85-65.85s65.85 29.48 65.85 65.85c0 36.37-29.5 65.85-65.85 65.85z"/></g></svg>
