<svg xmlns="http://www.w3.org/2000/svg" width="720" height="400" viewBox="0 0 720 400"><linearGradient id="a" x1="451" x2="581.5" y1="200.7" y2="331.2" gradientUnits="userSpaceOnUse" gradientTransform="matrix(1.0155 .00347 .00347 1.0106 -8.626 -5.31)"><stop offset="0" style="stop-color:#111111;stop-opacity:0.03"/><stop offset="1" style="stop-color:#111111;stop-opacity:0.1"/></linearGradient><path fill="url(#a)" d="M539.3 375l-125.6-65.3 80-154 125.6 65"/><path fill="#FFF" d="M494.2 157.5l121 62.8-77 148.7L417 306z"/><path fill="#B2DFDB" d="M499 170l102 53L532.8 355l-102-53z"/><path fill="#4DD0E1" d="M507.8 272c-1.4-.7-2.7-1.5-4-2.5l2.7-4c3.6 2.8 7 3.8 9.6 3 4-.8 6-4.8 6-4.8.6-1.5.3-2.2.2-2.5-.7-1.5-4.6-3.3-5.4-3.5l2.7-3.8c.6 0 5.3 1.4 7 5.2.7 1.4 1 3.7-.2 6.6-.2.2-3 6-9 7.4-3 .8-6.2.4-9.5-1.2z"/><path fill="#4DD0E1" d="M483.3 229.2S470.8 255 470 264.6c-.6 4.7 1 8.5 2.6 10.6 1.7 2 5.4 5.5 10 7.5 4.8 2.2 9.6 2.6 12.4 2.6 4-.2 7-2.7 9.5-4.7 3-2.6 8.5-11 18.7-32.3l-40-19z"/><path fill="#26C6DA" d="M482.5 282.7s9.7 2.6 12.5 2.6c4-.2 7-2.7 9.5-4.7 3-2.6 8.5-11 18.7-32.3-4 7-17.3 31.5-25.7 31-6.4-.3-10.5 1.8-15 3.4z"/><ellipse cx="502.8" cy="239.1" fill="#FFF" transform="rotate(-64.347 502.81 239.146)" rx="6.8" ry="22.2"/><path fill="#8D6E63" d="M503 238.6c-8.2-4-16-5.2-17.4-2.8 3 3 8.2 6.7 14.5 9.7 6 3 12 4.7 16.2 5.2 1.3-2.6-4.6-8-13-12z"/><linearGradient id="b" x1="-796.4" x2="-796.4" y1="1113.7" y2="1044.5" gradientUnits="userSpaceOnUse" gradientTransform="matrix(.8278 .3975 -.3958 .8243 1604.837 -353.715)"><stop offset="0" style="stop-color:#FFFFFF;stop-opacity:0.9736"/><stop offset="1" style="stop-color:#FFFFFF;stop-opacity:0"/></linearGradient><path fill="url(#b)" d="M504.2 177.4c-1.8 3.7-3.2 7.7-4 11.7-.3 2-.4 4 .6 5.6 1 1.5 2.7 2.3 4 3.7 1.3 1.7 1.3 4.5-.2 6.2-1.3 1.6-3.4 2.2-5.2 3.3-1.8 1-3.5 3-2.7 5 .3.8 1 1.4 1.6 2 1.3 1.3 2.4 2.7 3 4.3.4 1.8.2 3.8-1 5-1.3 1-3 1.3-4.5 2-1.6.5-3 2-2.6 3.5 0 .7.6 1.2 1 1.7 2 3 1 7.8-2.2 9.8 4.3 2.8 11.7 6.7 19.2 8.8-.6-3.8 2.8-9.3 6.7-9.7 2 0 4.7.4 5.6-1.5.6-1.2 0-2.6-1-3.6s-2-1.7-3-2.8c-1.6-2.3-.8-6 1.8-7.4 2-1 4.2-.6 6.3-.8s4.7-1 5-3.2c.5-2.8-3-5-3-7.8 0-1.7 1.2-3 2.7-3.8 1.5-.7 3.2-.8 5-1 7.6-.7 15.2-2 22.7-4l-29.8-11.8c-10-4-17.7-8.2-26-15" opacity=".7"/><path fill="#80CBC4" d="M554.4 313c-8-7.6-19-15.5-32-22.5-30.8-17-60.6-22.6-66.3-12.2-5.7 10.4 14.8 32.7 45.7 49.8 13 7.4 26 12.5 37 15.2l15.7-30z"/><path fill="#FFF" d="M555.6 310.7c-8-7.6-19-15.5-32-22.6-30.8-17-60.6-22.4-66.3-12-5.8 10.4 14.7 32.7 45.6 49.8 13 7.2 26 12.4 37 15l15.6-30z"/><ellipse cx="511.8" cy="309.7" fill="#F5F5F5" transform="rotate(-61.085 511.81 309.757)" rx="12" ry="35.6"/><path fill="#FB8C00" d="M544 324.4c-5.4 10.4-18 8-31.5 1.2-13.5-7-23-15.3-17.5-26.2 2.6-5 13.2 1.4 26.7 8.3 13.5 7 24.8 11.8 22.2 16.7z"/><ellipse cx="519.5" cy="311.9" fill="#F1CB83" transform="matrix(.456 -.89 .89 .456 5.057 632.09)" rx="10.1" ry="27.4"/><path fill="#FFF" d="M540.2 318.8c.3 2.2 1.8 2.7 1.5 3.6 0 .2-.4.8-6.2 1.5h-2.8c-2.5.2-4-.4-6.5-1-5.2-1.6-4.6-1-7-2-2.6-1-5.2-2-7-4.5-1.2-1.8-.5-2.2-1.6-3.5-2.2-2.7-5-1.2-8.6-3.8-1.4-1-2.2-2.3-3.5-4.5-1.3-2-2-3.4-1.7-4.8.4-1.3 1.6-2 2.3-2.3 2.4-1.2 5-.6 6.2-.2 6.4 1.6 16 4 20.5 8l3 2.7c1.7 1.5 2.2 2 3.3 2.6 1.4.7 1.5.3 3 1 1.8.8 3 2 3.6 3 1 1 1.3 1.8 1.4 2 .2 1 0 1.2.2 2z"/><ellipse cx="520.5" cy="310.8" fill="#8D6E63" transform="rotate(-62.876 520.5 310.808)" rx="1.8" ry="4.9"/><path fill="#111010" d="M523 307.2c-2.4 4.6-12.5 4.3-22.6-.8l-5.5-3c-1.5-1.2-1.5 4-1.5 4s-12.7-8.8-13-11c-.2-1.4-3.8-5.3-3.2-6.5 2.3-4.8 21.2-5.4 31.4-.3 10.2 5 16.5 13 14.2 17.5z" opacity=".1"/><path fill="#F1CB83" d="M476 287.7c1.8-7.4 15-8.2 29.7-4.8 14.7 3.4 25.5 10 24 17.2-1 4.4-13.2 3.8-28 .4-14.7-3.5-26.5-8.6-25.6-13z"/><ellipse cx="504.7" cy="287.1" fill="#8D6E63" transform="rotate(-78.042 504.714 287.11)" rx="1.5" ry="6.2"/><linearGradient id="c" x1="128.7" x2="290.1" y1="192.8" y2="352.6" gradientUnits="userSpaceOnUse" gradientTransform="matrix(1.0056 -.0012 -.0012 1.011 -.2 -1.067)"><stop offset="0" style="stop-color:#111111;stop-opacity:0.03"/><stop offset="1" style="stop-color:#111111;stop-opacity:0.1"/></linearGradient><path fill="url(#c)" d="M290.8 355.4l-187.2-39 25.7-123 187.2 39"/><path fill="#FFF" d="M130.3 195l181.2 37.8L287.2 349 106 311.3z"/><path fill="#FFB74D" d="M140.2 206.2l160.4 33.5-20 96.4L120 302.7z"/><path fill="#FFD54F" d="M124.6 281.3L284.8 315l-4.5 21L120 302.6z"/><path fill="#FFE082" d="M175 234.5L258 252l-11.6 55-83.3-17.5z"/><path fill="#FFF" d="M249 249.7l9.2 2-4 19.5-9.3-2z"/><ellipse cx="249.6" cy="270.2" fill="#FFF" transform="rotate(-78.16 249.553 270.19)" rx="4.7" ry="4.7"/><g fill="#FFF8E1"><path d="M230.5 245.8l9.3 2-4 19.5-9.3-2z"/><ellipse cx="231.1" cy="266.3" transform="rotate(-78.16 231.07 266.315)" rx="4.7" ry="4.7"/><path d="M212 242l9.3 2-4 19.5-9.4-2z"/><ellipse cx="212.6" cy="262.4" transform="rotate(-78.16 212.588 262.44)" rx="4.7" ry="4.7"/><path d="M193.5 238l9.3 2-4 19.6-9.4-2z"/><ellipse cx="194.1" cy="258.6" transform="rotate(-78.16 194.106 258.565)" rx="4.7" ry="4.7"/><path d="M175 234.2l9.2 2-4 19.5-9.3-2z"/><ellipse cx="175.5" cy="254.7" transform="rotate(-78.16 175.546 254.674)" rx="4.7" ry="4.7"/></g><g fill="#E57373"><path d="M239.7 247.8l9.3 2-4 19.5-9.4-2z"/><ellipse cx="240.3" cy="268.2" transform="rotate(-78.16 240.288 268.247)" rx="4.7" ry="4.7"/><path d="M221.2 244l9.3 2-4 19.4-9.4-2z"/><ellipse cx="221.8" cy="264.4" transform="rotate(-78.16 221.805 264.372)" rx="4.7" ry="4.7"/><path d="M202.7 240l9.3 2-4 19.5-9.3-2z"/><ellipse cx="203.3" cy="260.5" transform="rotate(-78.16 203.323 260.497)" rx="4.7" ry="4.7"/><path d="M184.2 236l9.3 2-4 19.6-9.3-2z"/><ellipse cx="184.8" cy="256.6" transform="rotate(-78.16 184.84 256.623)" rx="4.7" ry="4.7"/></g><ellipse cx="209.3" cy="278.8" fill="#E57373" transform="rotate(-78.16 209.335 278.823)" rx="7.1" ry="7.1"/><path fill="#FFF8E1" d="M202.4 277.2l14 3-4.2 19.5-14-3z"/><path fill="#E57373" d="M209 278.5l.8.2-4 19.7-1-.2z"/><ellipse cx="209.3" cy="288.8" fill="#E57373" transform="rotate(-78.16 209.302 288.775)" rx=".5" ry=".5"/><ellipse cx="205.4" cy="287.9" fill="#E57373" transform="rotate(-78.16 205.403 287.957)" rx=".5" ry=".5"/><path fill="#E57373" d="M227.5 282.4l12 2.5-2.4 12-12-2.5z"/><path fill="#FFF8E1" d="M228 283.4l5 1-1 5-5-1zM227 289l5 1-1.2 5-5-1.2zM233.8 284.5l5 1-1.2 5-5-1zM232.7 290.2l5 1-1.2 5-5-1.2z"/><path fill="#E57373" d="M224 294.3l14 3-.4 1.4-13.8-3zM227 280.7l13.8 3-.3 1.4-13.8-2.8zM179 272.3l12.2 2.5-2.5 12-12.2-2.4z"/><path fill="#FFF8E1" d="M179.8 273.2l4.8 1-1 5-5-1zM178.6 278.8l4.8 1-1 5-5-1zM185.3 274.4l5 1-1 5-5-1zM184 280l5 1-1 5-5-1z"/><path fill="#E57373" d="M175.7 284.2l13.8 3-.3 1.4-13.8-3zM178.5 270.5l13.8 2.8-.3 1.6-13.8-3z"/><linearGradient id="d" x1="232.3" x2="476.4" y1="40.3" y2="284.4" gradientUnits="userSpaceOnUse"><stop offset="0" style="stop-color:#111111;stop-opacity:0.03"/><stop offset="1" style="stop-color:#111111;stop-opacity:0.1"/></linearGradient><path fill="url(#d)" d="M236.8 36H472v253H236.8z"/><path fill="#FFF" d="M238 37h228v246H238z"/><path fill="#81D4FA" d="M252.2 53.5h200V269h-200z"/><path fill="#1E88E5" d="M395.7 157h-5.4c-7.5 0-12.8-5.8-12.8-13.4l-.8-16.6c0-7.5 6-13.7 13.6-13.7h5.4c7.5 0 13.6 6.2 13.6 13.7l-1 16.4c0 7.5-5 13.5-12.6 13.5z"/><path fill="#FFF" d="M376.8 130l.7-2c1.3-3.4 10.6-5.3 15.3-5.3 4 0 14 1 16 6l.5 1.6s1-22.6.5-30c0-2.3-2-4.7-5.8-6.4-4-2-17.7-.3-20.8 0-3.2.2-7.3 4.6-8 8.4s1.6 27.5 1.6 27.5z"/><path fill="#FFF" d="M410.7 115.7l7-8.8s6-14 1.2-18.4c-5-4.4-12.6-12.3-28.7-12-16 .3-19 2.7-24.5 7.6-5.5 5-6 15.2-7.2 19.5-1.2 4.4.3 9.7 1.7 13 .8 1.6 3.3 2.6 5.4 3 1.8.6 3.7 0 4.8-1.5l3.2-4 1.5 4 35.5-2.5z"/><path fill="#1E88E5" d="M316.8 165.7l-5-4s-22.2-.5-28.6 0-3.3 3.2-.8 3.4 12.2.3 16.5 1.5 10.2 5.6 12 7.6c1.7 2 5.8-8.3 5.8-8.3z"/><path fill="#FFF" d="M367 169.3c.2-1.3-3-.7-2.3-1.8 3.2-5.8-6.4 2.8-7.8 4-2 1.3-4.3 5.2-5.7 7-1.5 1.8-5.7 6.3-7.8 8.5-.6.7-1.8.7-2.5 0l-18.4-19.6c-4.2-3.3-6-2.8-6.7-2.2l-2.7 2.3-.3.2c-1 1.3-10.2 12.2-9.2 16.5 2 8.3 24.2 20.3 26 21v.2c1 .8 11.3 8 14 8 5 .2 17.6-10.3 20.4-12.7.3-.3.5-.7.6-1L367 169zM409.7 152.8c-2.5 1.6-5.6 3.4-9.3 5-4.2 2-8 3-11.2 3.7l-.5 2.4c-.8 3.4-3 6.2-6.4 7.7l-2.7 1.2-14 76-1 20h48.6s5-24 5.2-34c0-7.6-3.8-30-3.8-30l13.4-17.5-2.3-22c-1.8-2.5-4.6-5.8-9-8.8-2.4-1.8-5-3-7-4z"/><path fill="#FFF" d="M379.3 155v1c0 2-1.3 4-3.3 4.8 0 0-9 2.6-11.3 4.5-2 1.5-5.8 8-5.8 8l-7.7 24s-.7 15.2-1.4 20.2c-2 13.4-12 51.6-12 51.6h41.5l4.2-91.5-5.3-2s3-10.4 3-14c-.2-1.7-2-6.4-2-6.4z"/><path fill="#BBDEFB" d="M416 163.4c2.4-.5 8.4 5 8.4 5s11.7 19 11.4 26c-.2 7.3-8.2 20.4-13 25.5-5 4.8-15.2 15.4-22 16.5-12.6 2-33-10.8-42.5-19.2-2-1.6-6-10.2-5.6-12.7.4-2.4 6.4-7.4 8.6-8.4 6-2.7 31.6 11 31.6 11s1-3.5 2.3-5.8c2.5-5 8.2-12.7 13-17.3 2.7-2.4 2.4-14 2.4-14s3.2-6.2 5.3-6.6z"/><path fill="#1E88E5" d="M361.6 196.8s-1-2.2-6.3-2.8-8.4-4-9.6-5c-1.3-.7-2.3.2-1.6 1.2.8 1 3.5 1.8 3.2 3.6-.3 2-4 2.3-8.4 2.3s-7.4-1-9.5-2c-2.2-.8-4 .5-2.8 1.7 1.4 1.2 4.8 7.5 7.8 8.3s5 1.5 6.7 1.5 17-.8 19.2-2.2 1.4-6.6 1.4-6.6z"/><path fill="#FFF" d="M417.5 160.6c2.4-.4 8.4 5 8.4 5s11.5 19 11.3 26.2c-.3 7-8.2 20.2-13 25.4-5 5-15.2 15.5-22 16.6-12.6 2-36-12-45.8-20.4-1.8-1.7-4-6.8-3.7-9.3.4-2.3 4-6.2 6.4-7.2 6-2.7 35 12 35 12s1.4-7.8 2.6-10c2.5-5 12-12 14.2-17 1.6-3.2 1.2-14.5 1.2-14.5s3.2-6.3 5.3-6.7z"/><ellipse cx="296.6" cy="160.3" fill="#E3F2FD" rx="32.2" ry="3"/><path fill="#E3F2FD" d="M323.4 160.7v-1.5c0-14.2-12-25.7-27-25.7s-27 11.5-27 25.7v1.6c25 3.3 47.5.8 54 0z"/><ellipse cx="296.4" cy="133.5" fill="#E3F2FD" rx="2.6" ry="2.5"/><path fill="#64B5F6" d="M296.6 161.6c-11 0-21.6-.6-27.5-1.5l.2-.3c5.8.8 16.3 1.4 27.4 1.4 11 0 21.2-.4 27.2-1.3v.5c-6 1-16 1.4-27.2 1.4z"/><linearGradient id="e" x1="353.1" x2="353.1" y1="-21.2" y2="129.5" gradientUnits="userSpaceOnUse"><stop offset="0" style="stop-color:#FFFDE7"/><stop offset=".2" style="stop-color:#FDFCE7;stop-opacity:0.5"/><stop offset=".5" style="stop-color:#FAFAE7;stop-opacity:0.3338"/><stop offset=".7" style="stop-color:#EFF5E9;stop-opacity:0.189"/><stop offset=".9" style="stop-color:#DDECEB;stop-opacity:0.0528"/><stop offset="1" style="stop-color:#D4E8EC;stop-opacity:0"/></linearGradient><path fill="url(#e)" d="M258.2 192H448L430.4 53.5H276"/></svg>