<?xml version="1.0" encoding="utf-8"?>
<!-- Generator: Adobe Illustrator 17.0.0, SVG Export Plug-In . SVG Version: 6.00 Build 0)  -->
<!DOCTYPE svg PUBLIC "-//W3C//DTD SVG 1.1//EN" "http://www.w3.org/Graphics/SVG/1.1/DTD/svg11.dtd">
<svg version="1.1" id="Layer_1" xmlns="http://www.w3.org/2000/svg" xmlns:xlink="http://www.w3.org/1999/xlink" x="0px" y="0px"
	 width="72px" height="84px" viewBox="0 0 72 84" enable-background="new 0 0 72 84" xml:space="preserve">
	<path fill="#E65345" d="M48,42c0,3.313,2.686,6,6,6s6-2.687,6-6c0-3.314-2.686-6-6-6S48,38.686,48,42z M42,42
		c0-3.314-2.686-6-6-6s-6,2.686-6,6c0,3.313,2.686,6,6,6S42,45.313,42,42z M24,42c0-3.314-2.686-6-6-6s-6,2.686-6,6
		c0,3.313,2.686,6,6,6S24,45.313,24,42z"/>
</svg>
