<?xml version="1.0" encoding="UTF-8"?>
<svg width="26px" height="26px" viewBox="0 0 26 26" version="1.1" xmlns="http://www.w3.org/2000/svg" xmlns:xlink="http://www.w3.org/1999/xlink">
    <!-- Generator: Sketch 47.1 (45422) - http://www.bohemiancoding.com/sketch -->
    <title>dropped_pin</title>
    <desc>Created with Sketch.</desc>
    <defs></defs>
    <g id="v2---launch" stroke="none" stroke-width="1" fill="none" fill-rule="evenodd">
        <g id="dropped_pin">
            <g id="ic_my_location_black_48dp-copy-3">
                <polygon id="container" points="0 0 26 0 26 26 0 26"></polygon>
                <path d="M13,2.16666667 C8.81291667,2.16666667 5.41666667,5.56183333 5.41666667,9.75 C5.41666667,15.4375 13,23.8333333 13,23.8333333 C13,23.8333333 20.5833333,15.4375 20.5833333,9.75 C20.5833333,5.56183333 17.1870833,2.16666667 13,2.16666667 L13,2.16666667 Z" id="Path" fill="#EA4335"></path>
                <path d="M13.0025013,12.240609 C11.6057872,12.240609 10.4722222,11.117494 10.4722222,9.73141562 C10.4722222,8.34533719 11.6057872,7.22222222 13.0025013,7.22222222 C14.4002274,7.22222222 15.5327803,8.34533719 15.5327803,9.73141562 C15.5327803,11.117494 14.4002274,12.240609 13.0025013,12.240609 L13.0025013,12.240609 Z" id="Path" fill="#960A0A"></path>
            </g>
        </g>
    </g>
</svg>