<svg xmlns="http://www.w3.org/2000/svg" width="360" height="200" viewBox="0 0 360 200"><path fill="#DADCE0" d="M0 0h360v200H0V0z"/><path fill="#FFF" d="M88.9 168.08l-10.28-3.92a1.78 1.78 0 0 1-1.1-1.24l-2.6-10.69c-.35-1.44-2.2-1.85-3.12-.7l-6.9 8.57c-.37.46-.94.7-1.52.66l-10.97-.83c-1.47-.11-2.44 1.52-1.63 2.75l6.02 9.21c.32.49.38 1.11.16 1.65l-4.18 10.18c-.56 1.37.69 2.79 2.12 2.4l10.62-2.88c.57-.15 1.17-.02 1.62.36l8.39 7.12c1.13.96 2.86.2 2.94-1.27l.53-10.97c.03-.59.34-1.12.84-1.43l9.36-5.78c1.26-.78 1.09-2.66-.3-3.19z"/><path fill="#BABFC5" d="M214.61 49.49c.32.32.65.63.99.93l.33.28.7.59.39.3.69.51.41.28.74.48.37.23c.32.19.64.37.97.55l.17.09c.39.2.78.39 1.17.57l.31.14c.29.13.59.25.88.37l.41.16c.27.1.54.2.81.29l.43.14c.28.09.56.17.84.25l.4.11c.34.08.67.16 1.01.23l.24.05.28.05-.02.09 33.62 4.8-5.43-30.7h-.01c-.51-5.34-2.8-10.54-6.89-14.62-.58-.58-1.19-1.13-1.81-1.64l-.12-.09c-.59-.47-1.19-.92-1.81-1.33l-.35-.21c-.55-.35-1.11-.69-1.69-.99l-.22-.1c-.62-.32-1.25-.62-1.9-.88l-.44-.16c-.58-.22-1.16-.44-1.75-.61l-.58-.14c-.55-.15-1.1-.3-1.66-.41l-.77-.11c-.5-.08-1-.17-1.5-.22-.31-.03-.63-.03-.94-.05-.45-.03-.9-.06-1.36-.06-.36 0-.72.04-1.09.05-.4.02-.8.02-1.2.06-.39.04-.78.11-1.18.17-.37.05-.73.09-1.1.16-.48.09-.95.22-1.42.34-.27.07-.55.12-.82.2-.54.16-1.07.36-1.59.55l-.6.21c-.57.23-1.12.5-1.68.78l-.45.21c-.55.29-1.09.62-1.63.96l-.41.24c-.62.41-1.21.85-1.8 1.32l-.14.1c-.63.51-1.23 1.05-1.81 1.64l-.02.02c-9.3 9.32-9.3 24.5.03 33.82zm16.91-30.02c.39 0 .7.31.7.7s-.31.7-.7.7c-3.64 0-7.03 1.67-9.28 4.57-3.21 4.13-3.21 10.12 0 14.26 2.26 2.91 5.64 4.57 9.28 4.57s7.03-1.67 9.28-4.57c3.35-4.32 3.21-10.49-.34-14.67a11.553 11.553 0 0 0-4.54-3.3.708.708 0 0 1-.39-.91c.15-.36.56-.53.91-.39 1.98.8 3.69 2.04 5.09 3.69 3.97 4.69 4.13 11.6.38 16.44-2.52 3.25-6.31 5.12-10.39 5.12s-7.87-1.87-10.39-5.12c-3.59-4.63-3.59-11.35 0-15.98 2.52-3.24 6.31-5.11 10.39-5.11z"/><path fill="#979DA5" d="M221.13 40.57c2.52 3.25 6.31 5.12 10.39 5.12s7.87-1.87 10.39-5.12c3.76-4.84 3.6-11.75-.38-16.44-1.4-1.65-3.11-2.89-5.09-3.69a.692.692 0 0 0-.91.39c-.15.36.03.77.39.91 1.76.72 3.29 1.83 4.54 3.3 3.55 4.18 3.69 10.35.34 14.67-2.26 2.91-5.64 4.57-9.28 4.57s-7.03-1.67-9.28-4.57c-3.21-4.13-3.21-10.13 0-14.26 2.26-2.91 5.64-4.57 9.28-4.57.39 0 .7-.31.7-.7s-.31-.7-.7-.7c-4.08 0-7.87 1.87-10.39 5.12-3.59 4.62-3.59 11.34 0 15.97z"/><path fill="none" d="M186.6 164.65l-.15.15.15-.15zm-8.66-121.78l-6.48-6.47 6.48 6.47zm48.1 48.11l17.11 17.11-17.11-17.11z"/><path fill="#BABFC5" d="M223.54 127.71l-36.94 36.94 36.94-36.94zm2.5-36.73l-48.1-48.11 9.95-7.67-9.95 7.67 48.1 48.11zm19.2 28.07l-5.3-7.75 5.3 7.75z"/><linearGradient id="a" gradientUnits="userSpaceOnUse" x1="-3384.805" y1="2316.141" x2="-3383.805" y2="2316.141" gradientTransform="rotate(134.999 -33436.318 45222.204) scale(26.333 23.013)"><stop offset="0" style="stop-color:#BABFC5"/><stop offset="1" style="stop-color:#9BA1A9"/></linearGradient><path fill="url(#a)" d="M186.6 164.65l58.64-45.6-58.64 45.6z"/><linearGradient id="b" gradientUnits="userSpaceOnUse" x1="-3384.805" y1="2318.836" x2="-3383.805" y2="2318.836" gradientTransform="rotate(134.999 -33436.318 45222.204) scale(26.333 23.013)"><stop offset="0" style="stop-color:#BABFC5"/><stop offset="1" style="stop-color:#9BA1A9"/></linearGradient><path fill="url(#b)" d="M226.04 90.98L187.89 35.2l38.15 55.78z"/><path fill="#BABFC5" d="M226.04 90.98L187.89 35.2l-9.95 7.67 48.1 48.11z"/><linearGradient id="c" gradientUnits="userSpaceOnUse" x1="-3384.805" y1="2318.871" x2="-3383.805" y2="2318.871" gradientTransform="rotate(134.999 -33436.318 45222.204) scale(26.333 23.013)"><stop offset="0" style="stop-color:#BABFC5"/><stop offset="1" style="stop-color:#9BA1A9"/></linearGradient><path fill="url(#c)" d="M226.04 90.98L187.89 35.2l-9.95 7.67 48.1 48.11z"/><path fill="#BABFC5" d="M223.54 127.71l-36.94 36.94 58.64-45.6-5.3-7.75-16.4 16.41z"/><linearGradient id="d" gradientUnits="userSpaceOnUse" x1="-3384.805" y1="2316.141" x2="-3383.805" y2="2316.141" gradientTransform="rotate(134.999 -33436.318 45222.204) scale(26.333 23.013)"><stop offset="0" style="stop-color:#BABFC5"/><stop offset="1" style="stop-color:#9BA1A9"/></linearGradient><path fill="url(#d)" d="M223.54 127.71l-36.94 36.94 58.64-45.6-5.3-7.75-16.4 16.41z"/><path fill="#FFF" d="M177.94 42.87l-6.47-6.47-56.7 56.7 71.69 71.69.14-.14 36.94-36.94 16.4-16.4 3.21-3.21-17.11-17.11-48.1-48.12zm-26.16 25l27.47 27.47L155 119.59l-27.47-27.47 24.25-24.25zm35.08 82.15a.795.795 0 0 1-1.14 0l-25.29-25.29a.815.815 0 0 1 0-1.14c.31-.31.82-.31 1.14 0l25.29 25.29c.31.32.31.83 0 1.14zm4.81-4.82a.795.795 0 0 1-1.14 0l-25.29-25.29a.815.815 0 0 1 0-1.14c.31-.31.82-.31 1.14 0l25.29 25.29c.32.32.32.83 0 1.14zm4.64-4.99a.795.795 0 0 1-1.14 0l-25.29-25.29a.815.815 0 0 1 0-1.14c.31-.31.82-.31 1.14 0l25.29 25.29c.32.31.32.82 0 1.14zm4.82-4.82a.795.795 0 0 1-1.14 0L174.7 110.1a.815.815 0 0 1 0-1.14c.31-.31.82-.31 1.14 0l25.29 25.29c.31.31.31.82 0 1.14zm4.82-4.82a.795.795 0 0 1-1.14 0l-25.29-25.29a.815.815 0 0 1 0-1.14c.31-.31.82-.31 1.14 0l25.29 25.29c.31.32.31.83 0 1.14zm4.81-4.82a.795.795 0 0 1-1.14 0l-25.29-25.29a.815.815 0 0 1 0-1.14c.31-.31.82-.31 1.14 0l25.29 25.29c.32.32.32.83 0 1.14zM159.57 60l10.15-10.15 60.37 60.37-10.15 10.15L159.57 60z"/><path fill="#DADCE0" d="M127.53 92.12l24.25-24.25 27.47 27.47L155 119.59l-27.47-27.47zM159.56 60l10.15-10.15 60.38 60.36-10.15 10.15L159.56 60z"/><path fill="#959CA5" d="M185.47 99.33a.815.815 0 0 0-1.14 0c-.31.31-.31.82 0 1.14l25.29 25.29a.795.795 0 0 0 1.14 0c.31-.31.31-.82 0-1.14l-25.29-25.29zm-4.81 4.81a.815.815 0 0 0-1.14 0c-.31.31-.31.82 0 1.14l25.29 25.29a.795.795 0 0 0 1.14 0c.31-.31.31-.82 0-1.14l-25.29-25.29zm-4.82 4.82a.815.815 0 0 0-1.14 0c-.31.31-.31.82 0 1.14l25.29 25.29a.795.795 0 0 0 1.14 0c.31-.31.31-.82 0-1.14l-25.29-25.29zm-4.82 4.82a.815.815 0 0 0-1.14 0c-.31.31-.31.82 0 1.14l25.29 25.29a.795.795 0 0 0 1.14 0c.31-.31.31-.82 0-1.14l-25.29-25.29zm-4.64 4.99a.815.815 0 0 0-1.14 0c-.31.31-.31.82 0 1.14l25.29 25.29a.795.795 0 0 0 1.14 0c.31-.31.31-.82 0-1.14l-25.29-25.29zm-4.81 4.82a.815.815 0 0 0-1.14 0c-.31.31-.31.82 0 1.14l25.29 25.29a.795.795 0 0 0 1.14 0c.31-.31.31-.82 0-1.14l-25.29-25.29z"/><path fill="#FFF" d="M303.35 78.45L286 61.1l28.66-38.69-2.15-2.15-8.12 4.51 3.03 3.03c.27.27.27.72 0 .99-.27.28-.72.28-.99 0l-4.34-4.34 9.4-5.22-3.55-3.55-28.66 38.69 24.07 24.08z"/><linearGradient id="e" gradientUnits="userSpaceOnUse" x1="-3405.74" y1="2374.883" x2="-3404.74" y2="2374.883" gradientTransform="rotate(-45 -227382.632 -145916.443) scale(49.811)"><stop offset="0" style="stop-color:#DCDFE2"/><stop offset="1" style="stop-color:#FFFFFF"/></linearGradient><path fill="url(#e)" d="M303.35 78.45L286 61.1l28.66-38.69-2.15-2.15-8.12 4.51 3.03 3.03c.27.27.27.72 0 .99-.27.28-.72.28-.99 0l-4.34-4.34 9.4-5.22-3.55-3.55-28.66 38.69 24.07 24.08z"/><path fill="#FFF" d="M323.55 31.3l15.63 15.63-15.63-15.63z"/><linearGradient id="f" gradientUnits="userSpaceOnUse" x1="-3404.282" y1="2374.913" x2="-3404.282" y2="2375.357" gradientTransform="rotate(-45 -227382.632 -145916.443) scale(49.811)"><stop offset="0" style="stop-color:#DCDFE2"/><stop offset="1" style="stop-color:#FFFFFF"/></linearGradient><path fill="url(#f)" d="M323.55 31.3l15.63 15.63-15.63-15.63z"/><path fill="#979DA5" d="M306.42 28.79c.27.28.72.28.99 0 .27-.27.27-.72 0-.99l-3.03-3.03 8.12-4.51 13.81-7.67 22.58 22.58-7.49 13.98 1.04 1.04 8.19-15.28-24.07-24.07-15.08 8.38-9.4 5.22 4.34 4.35z"/><path fill="#FFF" d="M339.18 46.93L323.55 31.3l-8.89-8.89L286 61.1l17.35 17.35 4.58 4.58 38.69-28.66-4.19-4.19-1.04-1.04-2.21-2.21zm-26.83 23.63l-.24.04a.75.75 0 0 1-.53-.22l-11.7-11.7c-.2-.2-.27-.5-.18-.77s.33-.47.61-.5l5.18-.69 3.94-3.94-1.18-1.18a.742.742 0 0 1-.17-.8c.1-.28.36-.47.65-.49l5.29-.35 3.3-3.3-1.06-1.06a.758.758 0 0 1-.17-.81c.11-.28.38-.46.69-.47l8.44-.11c.2.02.4.08.54.22s.22.34.22.54l-.11 8.44c0 .3-.19.57-.47.69-.09.04-.19.06-.28.06a.75.75 0 0 1-.53-.22l-1.06-1.06-3.25 3.25-.36 5.38c-.02.29-.21.55-.49.65l-.26.05a.75.75 0 0 1-.53-.22l-1.23-1.23-3.83 3.83-.72 5.37c-.04.27-.24.51-.51.6zm-10.34-11.87l9.56 9.55.5-3.77-6.28-6.29-3.78.51z"/><path fill="#BABFC5" d="M312.86 69.95l.72-5.37-.16.16c-.15.15-.34.22-.53.22s-.38-.07-.53-.22l-.28-.28-.5 3.77-9.55-9.55 3.77-.51-.36-.36a.754.754 0 0 1 0-1.06l.06-.06-5.18.69c-.28.04-.52.23-.61.5s-.02.57.18.77l11.7 11.7c.14.14.33.22.53.22l.24-.04c.26-.06.46-.3.5-.58z"/><path fill="#FFF" d="M307.02 57.3l3.46-3.47 5.86 5.85-3.46 3.47-5.86-5.85z"/><path fill="#BABFC5" d="M305.43 57.83l.36.36 6.29 6.29.28.28c.15.15.34.22.53.22s.38-.07.53-.22l.16-.16 3.83-3.83-1.06-1.06-3.46 3.46-5.86-5.86 3.46-3.46-1.06-1.06-3.94 3.94-.06.06c-.3.27-.3.74 0 1.04z"/><path fill="#FFF" d="M310.47 51.69l8.06 8.06.24-3.62-4.68-4.68-3.62.24z"/><path fill="#BABFC5" d="M310.49 53.83l5.86 5.86 1.06 1.06 1.23 1.23c.14.14.33.22.53.22l.26-.05c.28-.1.47-.36.49-.65l.36-5.38-.23.23c-.15.15-.34.22-.53.22s-.38-.07-.53-.22l-.22-.22-.24 3.62-8.05-8.05 3.62-.24-.26-.26a.754.754 0 0 1 0-1.06l.18-.18-5.29.35a.761.761 0 0 0-.48 1.29l1.18 1.18 1.06 1.05z"/><path fill="#FFF" d="M324.46 45.71l-5.88.08 5.81 5.81.07-5.89z"/><path fill="#BABFC5" d="M318.89 46.13l5.16 5.16a.75.75 0 0 1 0 1.06l-.52.52 1.06 1.06c.14.14.34.22.53.22.1 0 .19-.02.28-.06.28-.11.46-.38.47-.69l.11-8.44c0-.2-.08-.4-.22-.54s-.35-.2-.54-.22l-8.44.11c-.3 0-.57.19-.69.47-.11.28-.05.6.17.81l1.06 1.06.52-.52c.28-.3.75-.3 1.05 0zm-.31-.34l5.89-.08-.08 5.89-5.81-5.81z"/><path fill="#FFF" d="M315.42 50.66l2.93-2.93 4.09 4.1-2.93 2.93-4.09-4.1z"/><path fill="#BABFC5" d="M313.83 51.19l.26.26 4.68 4.68.22.22c.15.15.34.22.53.22s.38-.07.53-.22l.23-.23 3.25-3.25.52-.52a.75.75 0 0 0 0-1.06l-5.16-5.16a.754.754 0 0 0-1.06 0l-.52.52-3.3 3.3-.18.18c-.29.29-.29.76 0 1.06zm8.62.63l-2.93 2.93-4.09-4.09 2.93-2.93 4.09 4.09z"/><path fill="#FFF" d="M111.95 119.74l-4.83-4.83L88 134.03l4.02 4.02 15.87-15.87a9.729 9.729 0 0 1 4.06-2.44z"/><path fill="#BABFC5" d="M121.78 122.18a9.834 9.834 0 0 0-13.89 0l-15.87 15.87-3.69 3.69 52.04 52.04 19.57-19.57c3.83-3.83 3.83-10.05 0-13.88l-38.16-38.15zm.29 10.28l-16.51 16.51c-.14.14-.32.21-.5.21a.705.705 0 0 1-.5-1.2l16.51-16.51c.27-.28.72-.28.99 0 .28.27.28.72.01.99z"/><path fill="#979DA5" d="M121.07 131.47l-16.51 16.51a.706.706 0 0 0 .5 1.2c.18 0 .36-.07.5-.21l16.51-16.51c.27-.27.27-.72 0-.99a.719.719 0 0 0-1 0z"/><path fill="#FFF" d="M254.25 139.07c1.17-1.18 1.07-3.12-.23-4.16-.9-.72-2.16-.79-3.13-.16-1.74 1.13-4.25 2.77-4.35 2.84-12.64 8.39-14.95 9.23-15.16 16.13-.07 2.13-.24 2.88-1.66 4.45l-19.15 18.33c-.97.93-.98 2.48-.03 3.43s2.49.94 3.42-.02l18.51-19.12c1.28-1.14 16.1-16.01 21.78-21.72zm11.35 11.23l-10.38 10.38c-.49.49-1.32.43-1.72-.19-.29-.44-.19-1.03.18-1.41l10.65-11.13c.28-.3.28-.76 0-1.06a.773.773 0 0 0-1.09-.03l-11.16 10.68c-.49.49-1.32.43-1.72-.19-.29-.44-.2-1.03.18-1.41l10.42-10.42c.28-.28.21-.76-.15-.94l-.09-.05a.589.589 0 0 0-.6.04c-12.42 8.5-14.67 9.42-15 16.09-.1 2.06-.28 2.78-1.68 4.34l-21.78 21.18c-.95.93-.96 2.46-.02 3.4.95.95 2.48.93 3.41-.03l21-21.82c1.56-1.41 2.3-1.58 4.43-1.65 6.86-.21 7.69-2.5 16.03-15.07.1-.15.13-.34.07-.51-.14-.38-.67-.5-.98-.2z"/><path fill="#7F8791" d="M348.6 151.19a5.527 5.527 0 0 0-3.92-1.62c-.62 0-1.23.12-1.82.33l-31.31 31.15c-.79 2-.39 4.36 1.23 5.97a5.527 5.527 0 0 0 3.92 1.62c1.22 0 2.43-.4 3.43-1.19l28.9-28.9a5.542 5.542 0 0 0-.43-7.36z"/><path fill="#BABFC5" d="M320.14 187.45l-2.94 2.93 2.94-2.93 28.9-28.9 3.23-3.24-3.23 3.24-28.9 28.9zm0 0l-2.94 2.93 4.22 4.22 35.07-35.07-4.22-4.22-3.23 3.24-28.9 28.9z"/><linearGradient id="g" gradientUnits="userSpaceOnUse" x1="-3425.648" y1="2424.177" x2="-3424.648" y2="2424.177" gradientTransform="matrix(9.393 -9.393 9.393 9.393 9724.153 -54752.93)"><stop offset="0" style="stop-color:#82888E"/><stop offset="1" style="stop-color:#BABFC5"/></linearGradient><path fill="url(#g)" d="M320.14 187.45l-2.94 2.93 4.22 4.22 35.07-35.07-4.22-4.22-3.23 3.24-28.9 28.9z"/><path fill="#BABFC5" d="M325.16 135.02l.55.07-.55-.07zm7.87 2.29l.5.25-.5-.25zm-15.04-2l.63-.11-.63.11zm-1.19.25l.63-.14-.63.14zm17.3 2.32l.48.27c-.15-.1-.31-.18-.48-.27zm6.19 5.64l-.02.19.02-.19zm-.03-.34l.01.14-.01-.14zm-13.95-8.01l.54.09-.54-.09zm8.85 3.33l.46.29-.46-.29zm1.04.69l.44.31-.44-.31zm-8.74-3.81l.54.12-.54-.12zm12.7 7.47l.03.11-.03-.11zm-24.54-6.97l.62-.18-.62.18zm24.53 8.32l-.1.19.1-.19zm.1-.33l-.06.19.06-.19zm-.25-1.34l.04.08-.04-.08zm-25.56-6.27l.62-.21-.62.21zm8.39-1.38l.55.01-.55-.01zm14.39 5.08l.39.31-.39-.31zm-7.49-3.98l.53.17-.53-.17zm-8.12-1.09l.63-.02-.63.02zm-2.42.22l.63-.08-.63.08zm12.76 1.7l.51.22-.51-.22zm6.31 4l.31.27-.31-.27zm-17.86-5.84l.63-.05-.63.05zm8.2.68l.54.15-.54-.15zm11.39 8.87c-.07.1-.14.2-.23.28l.23-.28zm-16-9.6l.55.04-.55-.04zm6.86 1.45l.52.2c-.18-.08-.35-.14-.52-.2zm-32.32 14.75l.27-.61-.27.61zm1.89 22.88l-.3-.47.3.47zm-.65-1.03l-.27-.49.27.49zm-.72-22.99l.31-.61-.31.61zm.14 21.93l-.25-.5.25.5zm-1.52-18.47l.21-.62-.21.62zm.4-1.17l.24-.61-.24.61zm2.88-5.58l.43-.6-.43.6zm-3.62 7.93zm4.56 21.37l-.31-.4.31.4zm-.19-30.35l.48-.62-.48.62zm-.58 29.37l-.31-.45.31.45zm-1.49-26.14l.34-.6-.34.6zm.63-1.1l.38-.6-.38.6zm-3.71 11.64l.05-.63-.05.63zm-.04 2.35l-.01-.55.01.55zm.91 5.75l-.15-.54.15.54zm-.84-4.59l-.04-.55.04.55zm.12 1.16l-.07-.55.07.55zm.42 2.3l-.12-.54.12.54zm-.62-5.76l.02-.63-.02.63zm6.21 16.33l-.28-.33.28.33zM296.82 157l.11-.63-.11.63zm1.37 12.74l-.2-.52.2.52zm.47 1.1l-.22-.51.22.51zm-.88-2.21l-.17-.53c.05.18.1.36.17.53zm-1.13-10.43l.08-.63-.08.63zm.39-2.4c.04-.21.09-.42.14-.62l-.14.62zm7.22 22.63l-.1-.05.1.05zm.34.15l-.13-.04.13.04zm1.43-.15l-.2.11.2-.11zm.62-37.87l.61-.48-.61.48zm5.48-3.38c.2-.09.4-.19.61-.27l-.61.27zm-4.41 2.58l.6-.42c-.21.13-.4.27-.6.42zm-2.03 38.81l-.2.06.2-.06zm5.31-40.83l.6-.31-.6.31zm-2.21 1.28l.6-.38-.6.38zm1.1-.67l.6-.34-.6.34zm-4.31 3.11l.67-.58-.67.58zm-.63 37.19l-.15-.01.15.01zm-1.58-35.02zm9.91-6.94l.61-.24-.61.24zm-6.85 41.44zm-3.92-33.51l.58-.67c-.2.23-.4.45-.58.67zm2.83 34.03l-.2.02.2-.02zm-1.05-35.99c.32-.32.64-.62.96-.92-.33.3-.65.61-.96.92zm-7.4 22.57l-.09-.55c.02.19.05.37.09.55z"/><linearGradient id="h" gradientUnits="userSpaceOnUse" x1="-3409.65" y1="2384.919" x2="-3408.65" y2="2384.919" gradientTransform="rotate(-45 -147863.008 -94804.71) scale(32.34)"><stop offset="0" style="stop-color:#82888E"/><stop offset="1" style="stop-color:#BABFC5"/></linearGradient><path fill="url(#h)" d="M339.78 142.25c.09.09.16.18.22.28-.06-.1-.14-.19-.22-.28z"/><linearGradient id="i" gradientUnits="userSpaceOnUse" x1="-3409.65" y1="2384.796" x2="-3408.65" y2="2384.796" gradientTransform="rotate(-45 -147863.008 -94804.71) scale(32.34)"><stop offset="0" style="stop-color:#82888E"/><stop offset="1" style="stop-color:#BABFC5"/></linearGradient><path fill="url(#i)" d="M336.63 139.5c.2.15.4.3.59.46-.19-.16-.39-.31-.59-.46z"/><linearGradient id="j" gradientUnits="userSpaceOnUse" x1="-3409.65" y1="2384.581" x2="-3408.65" y2="2384.581" gradientTransform="rotate(-45 -147863.008 -94804.71) scale(32.34)"><stop offset="0" style="stop-color:#82888E"/><stop offset="1" style="stop-color:#BABFC5"/></linearGradient><path fill="url(#j)" d="M297.99 169.22c-.07-.19-.15-.39-.21-.59.06.2.14.4.21.59z"/><linearGradient id="k" gradientUnits="userSpaceOnUse" x1="-3409.65" y1="2384.517" x2="-3408.65" y2="2384.517" gradientTransform="rotate(-45 -147863.008 -94804.71) scale(32.34)"><stop offset="0" style="stop-color:#82888E"/><stop offset="1" style="stop-color:#BABFC5"/></linearGradient><path fill="url(#k)" d="M297.28 166.98l-.15-.6c.04.2.09.4.15.6z"/><linearGradient id="l" gradientUnits="userSpaceOnUse" x1="-3409.65" y1="2384.964" x2="-3408.65" y2="2384.964" gradientTransform="rotate(-45 -147863.008 -94804.71) scale(32.34)"><stop offset="0" style="stop-color:#82888E"/><stop offset="1" style="stop-color:#BABFC5"/></linearGradient><path fill="url(#l)" d="M305.83 178.53l-.14.04.14-.04z"/><linearGradient id="m" gradientUnits="userSpaceOnUse" x1="-3409.65" y1="2384.958" x2="-3408.65" y2="2384.958" gradientTransform="rotate(-45 -147863.008 -94804.71) scale(32.34)"><stop offset="0" style="stop-color:#82888E"/><stop offset="1" style="stop-color:#BABFC5"/></linearGradient><path fill="url(#m)" d="M305.49 178.63l-.15.02.15-.02z"/><linearGradient id="n" gradientUnits="userSpaceOnUse" x1="-3409.65" y1="2384.548" x2="-3408.65" y2="2384.548" gradientTransform="rotate(-45 -147863.008 -94804.71) scale(32.34)"><stop offset="0" style="stop-color:#82888E"/><stop offset="1" style="stop-color:#BABFC5"/></linearGradient><path fill="url(#n)" d="M297.6 168.1l-.18-.59.18.59z"/><linearGradient id="o" gradientUnits="userSpaceOnUse" x1="-3409.65" y1="2384.967" x2="-3408.65" y2="2384.967" gradientTransform="rotate(-45 -147863.008 -94804.71) scale(32.34)"><stop offset="0" style="stop-color:#82888E"/><stop offset="1" style="stop-color:#BABFC5"/></linearGradient><path fill="url(#o)" d="M306.14 178.36l-.11.06.11-.06z"/><linearGradient id="p" gradientUnits="userSpaceOnUse" x1="-3409.65" y1="2384.836" x2="-3408.65" y2="2384.836" gradientTransform="rotate(-45 -147863.008 -94804.71) scale(32.34)"><stop offset="0" style="stop-color:#82888E"/><stop offset="1" style="stop-color:#BABFC5"/></linearGradient><path fill="url(#p)" d="M337.62 140.26l.65.55-.65-.55z"/><linearGradient id="q" gradientUnits="userSpaceOnUse" x1="-3409.65" y1="2384.487" x2="-3408.65" y2="2384.487" gradientTransform="rotate(-45 -147863.008 -94804.71) scale(32.34)"><stop offset="0" style="stop-color:#82888E"/><stop offset="1" style="stop-color:#BABFC5"/></linearGradient><path fill="url(#q)" d="M297.01 165.84l-.12-.6c.03.2.07.4.12.6z"/><linearGradient id="r" gradientUnits="userSpaceOnUse" x1="-3409.65" y1="2384.615" x2="-3408.65" y2="2384.615" gradientTransform="rotate(-45 -147863.008 -94804.71) scale(32.34)"><stop offset="0" style="stop-color:#82888E"/><stop offset="1" style="stop-color:#BABFC5"/></linearGradient><path fill="url(#r)" d="M298.43 170.32l-.25-.58.25.58z"/><linearGradient id="s" gradientUnits="userSpaceOnUse" x1="-3409.65" y1="2384.225" x2="-3408.65" y2="2384.225" gradientTransform="rotate(-45 -147863.008 -94804.71) scale(32.34)"><stop offset="0" style="stop-color:#82888E"/><stop offset="1" style="stop-color:#BABFC5"/></linearGradient><path fill="url(#s)" d="M313.89 136.45l.55-.19-.55.19z"/><linearGradient id="t" gradientUnits="userSpaceOnUse" x1="-3409.65" y1="2384.758" x2="-3408.65" y2="2384.758" gradientTransform="rotate(-45 -147863.008 -94804.71) scale(32.34)"><stop offset="0" style="stop-color:#82888E"/><stop offset="1" style="stop-color:#BABFC5"/></linearGradient><path fill="url(#t)" d="M300.81 174.56l-.39-.56c.12.19.26.38.39.56z"/><linearGradient id="u" gradientUnits="userSpaceOnUse" x1="-3409.65" y1="2384.796" x2="-3408.65" y2="2384.796" gradientTransform="rotate(-45 -147863.008 -94804.71) scale(32.34)"><stop offset="0" style="stop-color:#82888E"/><stop offset="1" style="stop-color:#BABFC5"/></linearGradient><path fill="url(#u)" d="M301.57 175.59l-.45-.58.45.58z"/><linearGradient id="v" gradientUnits="userSpaceOnUse" x1="-3409.65" y1="2384.968" x2="-3408.65" y2="2384.968" gradientTransform="rotate(-45 -147863.008 -94804.71) scale(32.34)"><stop offset="0" style="stop-color:#82888E"/><stop offset="1" style="stop-color:#BABFC5"/></linearGradient><path fill="url(#v)" d="M340.05 144.4l-.06.12.06-.12z"/><linearGradient id="w" gradientUnits="userSpaceOnUse" x1="-3409.65" y1="2384.95" x2="-3408.65" y2="2384.95" gradientTransform="rotate(-45 -147863.008 -94804.71) scale(32.34)"><stop offset="0" style="stop-color:#82888E"/><stop offset="1" style="stop-color:#BABFC5"/></linearGradient><path fill="url(#w)" d="M340.29 143.51l-.02-.19.02.19z"/><linearGradient id="x" gradientUnits="userSpaceOnUse" x1="-3409.65" y1="2384.836" x2="-3408.65" y2="2384.836" gradientTransform="rotate(-45 -147863.008 -94804.71) scale(32.34)"><stop offset="0" style="stop-color:#82888E"/><stop offset="1" style="stop-color:#BABFC5"/></linearGradient><path fill="url(#x)" d="M302.43 176.63l-.54-.63c.17.21.35.42.54.63z"/><linearGradient id="y" gradientUnits="userSpaceOnUse" x1="-3409.65" y1="2384.931" x2="-3408.65" y2="2384.931" gradientTransform="rotate(-45 -147863.008 -94804.71) scale(32.34)"><stop offset="0" style="stop-color:#82888E"/><stop offset="1" style="stop-color:#BABFC5"/></linearGradient><path fill="url(#y)" d="M340.04 142.61l.12.23-.12-.23z"/><linearGradient id="z" gradientUnits="userSpaceOnUse" x1="-3409.65" y1="2384.721" x2="-3408.65" y2="2384.721" gradientTransform="rotate(-45 -147863.008 -94804.71) scale(32.34)"><stop offset="0" style="stop-color:#82888E"/><stop offset="1" style="stop-color:#BABFC5"/></linearGradient><path fill="url(#z)" d="M300.12 173.53l-.35-.56.35.56z"/><linearGradient id="A" gradientUnits="userSpaceOnUse" x1="-3409.65" y1="2384.942" x2="-3408.65" y2="2384.942" gradientTransform="rotate(-45 -147863.008 -94804.71) scale(32.34)"><stop offset="0" style="stop-color:#82888E"/><stop offset="1" style="stop-color:#BABFC5"/></linearGradient><path fill="url(#A)" d="M304.8 178.64l-.2-.06.2.06z"/><linearGradient id="B" gradientUnits="userSpaceOnUse" x1="-3409.65" y1="2384.964" x2="-3408.65" y2="2384.964" gradientTransform="rotate(-45 -147863.008 -94804.71) scale(32.34)"><stop offset="0" style="stop-color:#82888E"/><stop offset="1" style="stop-color:#BABFC5"/></linearGradient><path fill="url(#B)" d="M340.2 144.06l-.04.14.04-.14z"/><linearGradient id="C" gradientUnits="userSpaceOnUse" x1="-3409.65" y1="2384.95" x2="-3408.65" y2="2384.95" gradientTransform="rotate(-45 -147863.008 -94804.71) scale(32.34)"><stop offset="0" style="stop-color:#82888E"/><stop offset="1" style="stop-color:#BABFC5"/></linearGradient><path fill="url(#C)" d="M305.14 178.67l-.19-.02.19.02z"/><linearGradient id="D" gradientUnits="userSpaceOnUse" x1="-3409.65" y1="2384.649" x2="-3408.65" y2="2384.649" gradientTransform="rotate(-45 -147863.008 -94804.71) scale(32.34)"><stop offset="0" style="stop-color:#82888E"/><stop offset="1" style="stop-color:#BABFC5"/></linearGradient><path fill="url(#D)" d="M298.93 171.41l-.28-.57.28.57z"/><linearGradient id="E" gradientUnits="userSpaceOnUse" x1="-3409.65" y1="2384.932" x2="-3408.65" y2="2384.932" gradientTransform="rotate(-45 -147863.008 -94804.71) scale(32.34)"><stop offset="0" style="stop-color:#82888E"/><stop offset="1" style="stop-color:#BABFC5"/></linearGradient><path fill="url(#E)" d="M304.47 178.54l-.21-.11.21.11z"/><linearGradient id="F" gradientUnits="userSpaceOnUse" x1="-3409.65" y1="2384.685" x2="-3408.65" y2="2384.685" gradientTransform="rotate(-45 -147863.008 -94804.71) scale(32.34)"><stop offset="0" style="stop-color:#82888E"/><stop offset="1" style="stop-color:#BABFC5"/></linearGradient><path fill="url(#F)" d="M299.5 172.48l-.31-.57.31.57z"/><linearGradient id="G" gradientUnits="userSpaceOnUse" x1="-3409.65" y1="2384.942" x2="-3408.65" y2="2384.942" gradientTransform="rotate(-45 -147863.008 -94804.71) scale(32.34)"><stop offset="0" style="stop-color:#82888E"/><stop offset="1" style="stop-color:#BABFC5"/></linearGradient><path fill="url(#G)" d="M340.2 142.96l.06.22-.06-.22z"/><linearGradient id="H" gradientUnits="userSpaceOnUse" x1="-3409.65" y1="2384.958" x2="-3408.65" y2="2384.958" gradientTransform="rotate(-45 -147863.008 -94804.71) scale(32.34)"><stop offset="0" style="stop-color:#82888E"/><stop offset="1" style="stop-color:#BABFC5"/></linearGradient><path fill="url(#H)" d="M340.27 143.71l-.02.15.02-.15z"/><linearGradient id="I" gradientUnits="userSpaceOnUse" x1="-3409.65" y1="2384.457" x2="-3408.65" y2="2384.457" gradientTransform="rotate(-45 -147863.008 -94804.71) scale(32.34)"><stop offset="0" style="stop-color:#82888E"/><stop offset="1" style="stop-color:#BABFC5"/></linearGradient><path fill="url(#I)" d="M296.79 164.69l-.09-.61.09.61z"/><linearGradient id="J" gradientUnits="userSpaceOnUse" x1="-3409.65" y1="2384.376" x2="-3408.65" y2="2384.376" gradientTransform="rotate(-45 -147863.008 -94804.71) scale(32.34)"><stop offset="0" style="stop-color:#82888E"/><stop offset="1" style="stop-color:#BABFC5"/></linearGradient><path fill="url(#J)" d="M322.56 134.87l-.32.01h.59l-.27-.01z"/><linearGradient id="K" gradientUnits="userSpaceOnUse" x1="-3409.65" y1="2384.148" x2="-3408.65" y2="2384.148" gradientTransform="rotate(-45 -147863.008 -94804.71) scale(32.34)"><stop offset="0" style="stop-color:#82888E"/><stop offset="1" style="stop-color:#BABFC5"/></linearGradient><path fill="url(#K)" d="M305.25 141.75l.33-.29-.33.29z"/><linearGradient id="L" gradientUnits="userSpaceOnUse" x1="-3409.65" y1="2384.152" x2="-3408.65" y2="2384.152" gradientTransform="rotate(-45 -147863.008 -94804.71) scale(32.34)"><stop offset="0" style="stop-color:#82888E"/><stop offset="1" style="stop-color:#BABFC5"/></linearGradient><path fill="url(#L)" d="M306.24 140.88l.41-.32-.41.32z"/><linearGradient id="M" gradientUnits="userSpaceOnUse" x1="-3409.65" y1="2384.152" x2="-3408.65" y2="2384.152" gradientTransform="rotate(-45 -147863.008 -94804.71) scale(32.34)"><stop offset="0" style="stop-color:#82888E"/><stop offset="1" style="stop-color:#BABFC5"/></linearGradient><path fill="url(#M)" d="M302.19 145.03l.32-.41-.32.41z"/><linearGradient id="N" gradientUnits="userSpaceOnUse" x1="-3409.65" y1="2384.173" x2="-3408.65" y2="2384.173" gradientTransform="rotate(-45 -147863.008 -94804.71) scale(32.34)"><stop offset="0" style="stop-color:#82888E"/><stop offset="1" style="stop-color:#BABFC5"/></linearGradient><path fill="url(#N)" d="M299.97 148.27l.29-.5-.29.5z"/><linearGradient id="O" gradientUnits="userSpaceOnUse" x1="-3409.65" y1="2384.401" x2="-3408.65" y2="2384.401" gradientTransform="rotate(-45 -147863.008 -94804.71) scale(32.34)"><stop offset="0" style="stop-color:#82888E"/><stop offset="1" style="stop-color:#BABFC5"/></linearGradient><path fill="url(#O)" d="M323.38 134.89l.61.03-.61-.03z"/><linearGradient id="P" gradientUnits="userSpaceOnUse" x1="-3409.65" y1="2384.35" x2="-3408.65" y2="2384.35" gradientTransform="rotate(-45 -147863.008 -94804.71) scale(32.34)"><stop offset="0" style="stop-color:#82888E"/><stop offset="1" style="stop-color:#BABFC5"/></linearGradient><path fill="url(#P)" d="M321.03 134.92l.57-.03-.57.03z"/><linearGradient id="Q" gradientUnits="userSpaceOnUse" x1="-3409.65" y1="2384.164" x2="-3408.65" y2="2384.164" gradientTransform="rotate(-45 -147863.008 -94804.71) scale(32.34)"><stop offset="0" style="stop-color:#82888E"/><stop offset="1" style="stop-color:#BABFC5"/></linearGradient><path fill="url(#Q)" d="M300.64 147.17l.31-.48-.31.48z"/><linearGradient id="R" gradientUnits="userSpaceOnUse" x1="-3409.65" y1="2384.157" x2="-3408.65" y2="2384.157" gradientTransform="rotate(-45 -147863.008 -94804.71) scale(32.34)"><stop offset="0" style="stop-color:#82888E"/><stop offset="1" style="stop-color:#BABFC5"/></linearGradient><path fill="url(#R)" d="M301.38 146.09l.32-.45-.32.45z"/><linearGradient id="S" gradientUnits="userSpaceOnUse" x1="-3409.65" y1="2384.429" x2="-3408.65" y2="2384.429" gradientTransform="rotate(-45 -147863.008 -94804.71) scale(32.34)"><stop offset="0" style="stop-color:#82888E"/><stop offset="1" style="stop-color:#BABFC5"/></linearGradient><path fill="url(#S)" d="M324.54 134.96l.61.06a6 6 0 0 0-.61-.06z"/><linearGradient id="T" gradientUnits="userSpaceOnUse" x1="-3409.65" y1="2384.183" x2="-3408.65" y2="2384.183" gradientTransform="rotate(-45 -147863.008 -94804.71) scale(32.34)"><stop offset="0" style="stop-color:#82888E"/><stop offset="1" style="stop-color:#BABFC5"/></linearGradient><path fill="url(#T)" d="M310.49 138.01l.51-.27-.51.27z"/><linearGradient id="U" gradientUnits="userSpaceOnUse" x1="-3409.65" y1="2384.157" x2="-3408.65" y2="2384.157" gradientTransform="rotate(-45 -147863.008 -94804.71) scale(32.34)"><stop offset="0" style="stop-color:#82888E"/><stop offset="1" style="stop-color:#BABFC5"/></linearGradient><path fill="url(#U)" d="M307.27 140.08l.45-.32-.45.32z"/><linearGradient id="V" gradientUnits="userSpaceOnUse" x1="-3409.65" y1="2384.196" x2="-3408.65" y2="2384.196" gradientTransform="rotate(-45 -147863.008 -94804.71) scale(32.34)"><stop offset="0" style="stop-color:#82888E"/><stop offset="1" style="stop-color:#BABFC5"/></linearGradient><path fill="url(#V)" d="M311.6 137.43l.53-.25-.53.25z"/><linearGradient id="W" gradientUnits="userSpaceOnUse" x1="-3409.65" y1="2384.242" x2="-3408.65" y2="2384.242" gradientTransform="rotate(-45 -147863.008 -94804.71) scale(32.34)"><stop offset="0" style="stop-color:#82888E"/><stop offset="1" style="stop-color:#BABFC5"/></linearGradient><path fill="url(#W)" d="M315.06 136.05l.56-.17-.56.17z"/><linearGradient id="X" gradientUnits="userSpaceOnUse" x1="-3409.65" y1="2384.281" x2="-3408.65" y2="2384.281" gradientTransform="rotate(-45 -147863.008 -94804.71) scale(32.34)"><stop offset="0" style="stop-color:#82888E"/><stop offset="1" style="stop-color:#BABFC5"/></linearGradient><path fill="url(#X)" d="M317.43 135.42l.57-.11-.57.11z"/><linearGradient id="Y" gradientUnits="userSpaceOnUse" x1="-3409.65" y1="2384.209" x2="-3408.65" y2="2384.209" gradientTransform="rotate(-45 -147863.008 -94804.71) scale(32.34)"><stop offset="0" style="stop-color:#82888E"/><stop offset="1" style="stop-color:#BABFC5"/></linearGradient><path fill="url(#Y)" d="M312.74 136.91l.54-.22-.54.22z"/><linearGradient id="Z" gradientUnits="userSpaceOnUse" x1="-3409.65" y1="2384.261" x2="-3408.65" y2="2384.261" gradientTransform="rotate(-45 -147863.008 -94804.71) scale(32.34)"><stop offset="0" style="stop-color:#82888E"/><stop offset="1" style="stop-color:#BABFC5"/></linearGradient><path fill="url(#Z)" d="M316.24 135.7l.56-.14-.56.14z"/><linearGradient id="aa" gradientUnits="userSpaceOnUse" x1="-3409.65" y1="2384.325" x2="-3408.65" y2="2384.325" gradientTransform="rotate(-45 -147863.008 -94804.71) scale(32.34)"><stop offset="0" style="stop-color:#82888E"/><stop offset="1" style="stop-color:#BABFC5"/></linearGradient><path fill="url(#aa)" d="M319.83 135.03l.57-.06-.57.06z"/><linearGradient id="ab" gradientUnits="userSpaceOnUse" x1="-3409.65" y1="2384.164" x2="-3408.65" y2="2384.164" gradientTransform="rotate(-45 -147863.008 -94804.71) scale(32.34)"><stop offset="0" style="stop-color:#82888E"/><stop offset="1" style="stop-color:#BABFC5"/></linearGradient><path fill="url(#ab)" d="M308.32 139.33l.48-.31c-.16.1-.33.2-.48.31z"/><linearGradient id="ac" gradientUnits="userSpaceOnUse" x1="-3409.65" y1="2384.457" x2="-3408.65" y2="2384.457" gradientTransform="rotate(-45 -147863.008 -94804.71) scale(32.34)"><stop offset="0" style="stop-color:#82888E"/><stop offset="1" style="stop-color:#BABFC5"/></linearGradient><path fill="url(#ac)" d="M325.7 135.08l.61.09-.61-.09z"/><linearGradient id="ad" gradientUnits="userSpaceOnUse" x1="-3409.65" y1="2384.173" x2="-3408.65" y2="2384.173" gradientTransform="rotate(-45 -147863.008 -94804.71) scale(32.34)"><stop offset="0" style="stop-color:#82888E"/><stop offset="1" style="stop-color:#BABFC5"/></linearGradient><path fill="url(#ad)" d="M309.39 138.64l.5-.29-.5.29z"/><linearGradient id="ae" gradientUnits="userSpaceOnUse" x1="-3409.65" y1="2384.302" x2="-3408.65" y2="2384.302" gradientTransform="rotate(-45 -147863.008 -94804.71) scale(32.34)"><stop offset="0" style="stop-color:#82888E"/><stop offset="1" style="stop-color:#BABFC5"/></linearGradient><path fill="url(#ae)" d="M318.62 135.2l.57-.09-.57.09z"/><linearGradient id="af" gradientUnits="userSpaceOnUse" x1="-3409.65" y1="2384.148" x2="-3408.65" y2="2384.148" gradientTransform="rotate(-45 -147863.008 -94804.71) scale(32.34)"><stop offset="0" style="stop-color:#82888E"/><stop offset="1" style="stop-color:#BABFC5"/></linearGradient><path fill="url(#af)" d="M303.08 143.96l.29-.33-.29.33z"/><linearGradient id="ag" gradientUnits="userSpaceOnUse" x1="-3409.65" y1="2384.35" x2="-3408.65" y2="2384.35" gradientTransform="rotate(-45 -147863.008 -94804.71) scale(32.34)"><stop offset="0" style="stop-color:#82888E"/><stop offset="1" style="stop-color:#BABFC5"/></linearGradient><path fill="url(#ag)" d="M296.52 159.99l.03-.58c-.02.19-.03.38-.03.58z"/><linearGradient id="ah" gradientUnits="userSpaceOnUse" x1="-3409.65" y1="2384.684" x2="-3408.65" y2="2384.684" gradientTransform="rotate(-45 -147863.008 -94804.71) scale(32.34)"><stop offset="0" style="stop-color:#82888E"/><stop offset="1" style="stop-color:#BABFC5"/></linearGradient><path fill="url(#ah)" d="M333.53 137.56l.57.31-.57-.31z"/><linearGradient id="ai" gradientUnits="userSpaceOnUse" x1="-3409.65" y1="2384.325" x2="-3408.65" y2="2384.325" gradientTransform="rotate(-45 -147863.008 -94804.71) scale(32.34)"><stop offset="0" style="stop-color:#82888E"/><stop offset="1" style="stop-color:#BABFC5"/></linearGradient><path fill="url(#ai)" d="M296.59 158.78l.06-.57-.06.57z"/><linearGradient id="aj" gradientUnits="userSpaceOnUse" x1="-3409.65" y1="2384.302" x2="-3408.65" y2="2384.302" gradientTransform="rotate(-45 -147863.008 -94804.71) scale(32.34)"><stop offset="0" style="stop-color:#82888E"/><stop offset="1" style="stop-color:#BABFC5"/></linearGradient><path fill="url(#aj)" d="M296.73 157.57l.09-.57-.09.57z"/><linearGradient id="ak" gradientUnits="userSpaceOnUse" x1="-3409.65" y1="2384.649" x2="-3408.65" y2="2384.649" gradientTransform="rotate(-45 -147863.008 -94804.71) scale(32.34)"><stop offset="0" style="stop-color:#82888E"/><stop offset="1" style="stop-color:#BABFC5"/></linearGradient><path fill="url(#ak)" d="M332.46 137.03l.57.28-.57-.28z"/><linearGradient id="al" gradientUnits="userSpaceOnUse" x1="-3409.65" y1="2384.376" x2="-3408.65" y2="2384.376" gradientTransform="rotate(-45 -147863.008 -94804.71) scale(32.34)"><stop offset="0" style="stop-color:#82888E"/><stop offset="1" style="stop-color:#BABFC5"/></linearGradient><path fill="url(#al)" d="M296.49 160.94l.01.27v-.59l-.01.32z"/><linearGradient id="am" gradientUnits="userSpaceOnUse" x1="-3409.65" y1="2384.429" x2="-3408.65" y2="2384.429" gradientTransform="rotate(-45 -147863.008 -94804.71) scale(32.34)"><stop offset="0" style="stop-color:#82888E"/><stop offset="1" style="stop-color:#BABFC5"/></linearGradient><path fill="url(#am)" d="M296.64 163.53l-.06-.61.06.61z"/><linearGradient id="an" gradientUnits="userSpaceOnUse" x1="-3409.65" y1="2384.758" x2="-3408.65" y2="2384.758" gradientTransform="rotate(-45 -147863.008 -94804.71) scale(32.34)"><stop offset="0" style="stop-color:#82888E"/><stop offset="1" style="stop-color:#BABFC5"/></linearGradient><path fill="url(#an)" d="M335.62 138.79l.57.4-.57-.4z"/><linearGradient id="ao" gradientUnits="userSpaceOnUse" x1="-3409.65" y1="2384.615" x2="-3408.65" y2="2384.615" gradientTransform="rotate(-45 -147863.008 -94804.71) scale(32.34)"><stop offset="0" style="stop-color:#82888E"/><stop offset="1" style="stop-color:#BABFC5"/></linearGradient><path fill="url(#ao)" d="M331.36 136.56c.2.08.39.16.58.25l-.58-.25z"/><linearGradient id="ap" gradientUnits="userSpaceOnUse" x1="-3409.65" y1="2384.401" x2="-3408.65" y2="2384.401" gradientTransform="rotate(-45 -147863.008 -94804.71) scale(32.34)"><stop offset="0" style="stop-color:#82888E"/><stop offset="1" style="stop-color:#BABFC5"/></linearGradient><path fill="url(#ap)" d="M296.54 162.37l-.03-.62.03.62z"/><linearGradient id="aq" gradientUnits="userSpaceOnUse" x1="-3409.65" y1="2384.721" x2="-3408.65" y2="2384.721" gradientTransform="rotate(-45 -147863.008 -94804.71) scale(32.34)"><stop offset="0" style="stop-color:#82888E"/><stop offset="1" style="stop-color:#BABFC5"/></linearGradient><path fill="url(#aq)" d="M334.59 138.15l.57.35-.57-.35z"/><linearGradient id="ar" gradientUnits="userSpaceOnUse" x1="-3409.65" y1="2384.183" x2="-3408.65" y2="2384.183" gradientTransform="rotate(-45 -147863.008 -94804.71) scale(32.34)"><stop offset="0" style="stop-color:#82888E"/><stop offset="1" style="stop-color:#BABFC5"/></linearGradient><path fill="url(#ar)" d="M299.36 149.38l.27-.51-.27.51z"/><linearGradient id="as" gradientUnits="userSpaceOnUse" x1="-3409.65" y1="2384.548" x2="-3408.65" y2="2384.548" gradientTransform="rotate(-45 -147863.008 -94804.71) scale(32.34)"><stop offset="0" style="stop-color:#82888E"/><stop offset="1" style="stop-color:#BABFC5"/></linearGradient><path fill="url(#as)" d="M329.13 135.8l.59.18-.59-.18z"/><linearGradient id="at" gradientUnits="userSpaceOnUse" x1="-3409.65" y1="2384.196" x2="-3408.65" y2="2384.196" gradientTransform="rotate(-45 -147863.008 -94804.71) scale(32.34)"><stop offset="0" style="stop-color:#82888E"/><stop offset="1" style="stop-color:#BABFC5"/></linearGradient><path fill="url(#at)" d="M298.81 150.51l.25-.53-.25.53z"/><linearGradient id="au" gradientUnits="userSpaceOnUse" x1="-3409.65" y1="2384.517" x2="-3408.65" y2="2384.517" gradientTransform="rotate(-45 -147863.008 -94804.71) scale(32.34)"><stop offset="0" style="stop-color:#82888E"/><stop offset="1" style="stop-color:#BABFC5"/></linearGradient><path fill="url(#au)" d="M328 135.5l.6.15-.6-.15z"/><linearGradient id="av" gradientUnits="userSpaceOnUse" x1="-3409.65" y1="2384.209" x2="-3408.65" y2="2384.209" gradientTransform="rotate(-45 -147863.008 -94804.71) scale(32.34)"><stop offset="0" style="stop-color:#82888E"/><stop offset="1" style="stop-color:#BABFC5"/></linearGradient><path fill="url(#av)" d="M298.31 151.66l.22-.54-.22.54z"/><linearGradient id="aw" gradientUnits="userSpaceOnUse" x1="-3409.65" y1="2384.242" x2="-3408.65" y2="2384.242" gradientTransform="rotate(-45 -147863.008 -94804.71) scale(32.34)"><stop offset="0" style="stop-color:#82888E"/><stop offset="1" style="stop-color:#BABFC5"/></linearGradient><path fill="url(#aw)" d="M297.5 154l.17-.56-.17.56z"/><linearGradient id="ax" gradientUnits="userSpaceOnUse" x1="-3409.65" y1="2384.225" x2="-3408.65" y2="2384.225" gradientTransform="rotate(-45 -147863.008 -94804.71) scale(32.34)"><stop offset="0" style="stop-color:#82888E"/><stop offset="1" style="stop-color:#BABFC5"/></linearGradient><path fill="url(#ax)" d="M297.88 152.82l.19-.55-.19.55z"/><linearGradient id="ay" gradientUnits="userSpaceOnUse" x1="-3409.65" y1="2384.581" x2="-3408.65" y2="2384.581" gradientTransform="rotate(-45 -147863.008 -94804.71) scale(32.34)"><stop offset="0" style="stop-color:#82888E"/><stop offset="1" style="stop-color:#BABFC5"/></linearGradient><path fill="url(#ay)" d="M330.26 136.15l.59.21-.59-.21z"/><linearGradient id="az" gradientUnits="userSpaceOnUse" x1="-3409.65" y1="2384.281" x2="-3408.65" y2="2384.281" gradientTransform="rotate(-45 -147863.008 -94804.71) scale(32.34)"><stop offset="0" style="stop-color:#82888E"/><stop offset="1" style="stop-color:#BABFC5"/></linearGradient><path fill="url(#az)" d="M296.93 156.37l.11-.57-.11.57z"/><linearGradient id="aA" gradientUnits="userSpaceOnUse" x1="-3409.65" y1="2384.486" x2="-3408.65" y2="2384.486" gradientTransform="rotate(-45 -147863.008 -94804.71) scale(32.34)"><stop offset="0" style="stop-color:#82888E"/><stop offset="1" style="stop-color:#BABFC5"/></linearGradient><path fill="url(#aA)" d="M326.85 135.26l.6.12-.6-.12z"/><linearGradient id="aB" gradientUnits="userSpaceOnUse" x1="-3409.65" y1="2384.261" x2="-3408.65" y2="2384.261" gradientTransform="rotate(-45 -147863.008 -94804.71) scale(32.34)"><stop offset="0" style="stop-color:#82888E"/><stop offset="1" style="stop-color:#BABFC5"/></linearGradient><path fill="url(#aB)" d="M297.19 155.18l.14-.57-.14.57z"/><path fill="#BABFC5" d="M305.82 177.28c-.17 0-.34-.06-.47-.2a.664.664 0 0 1 0-.94c1.54-1.54 3.09-1.57 4.46-1.6l.21-.01 4.54-4.54.01-.21c.03-1.37.06-2.92 1.6-4.46s3.09-1.57 4.46-1.6l.21-.01 4.54-4.54.01-.21c.03-1.37.06-2.92 1.6-4.46s3.09-1.57 4.46-1.6l.21-.01 4.54-4.54.01-.21c.03-1.37.06-2.92 1.6-4.46a.664.664 0 1 1 .94.94c-.78.78-1.04 1.53-1.14 2.32l2.16-2.16c.09-.09.17-.18.23-.28l.06-.12.1-.19.04-.14.06-.19.02-.15.02-.19-.02-.2-.01-.14-.06-.22-.03-.11-.12-.23-.04-.08c-.06-.1-.14-.2-.22-.28l-.27-.28c-.3-.3-.61-.6-.93-.88l-.31-.27c-.21-.19-.43-.38-.65-.55l-.39-.31-.59-.46-.44-.31-.57-.4-.46-.29-.57-.35-.48-.27-.57-.31-.5-.25-.57-.28-.51-.22-.58-.25-.52-.2-.59-.21-.53-.17-.59-.18-.54-.15-.6-.15-.54-.12-.6-.12-.54-.09-.61-.09-.55-.07-.61-.06-.55-.04-.61-.03-.55-.01h-.59l-.63.02-.57.03-.63.05-.57.06-.63.08-.57.09-.63.11-.57.11-.63.14-.56.14-.62.18-.56.17-.62.21-.55.19-.61.24-.54.22-.61.27-.53.25-.6.31-.51.27-.6.34-.5.29-.6.38-.48.31-.6.42-.45.32-.61.48-.41.32c-.23.19-.45.38-.67.58l-.33.29c-.33.3-.65.6-.96.92-.32.32-.62.64-.92.96l-.29.33-.58.67-.32.41c-.16.2-.33.41-.48.62l-.32.45-.43.6-.31.48-.38.6-.29.5-.34.6-.27.51-.31.61-.25.53c-.09.2-.19.4-.27.61l-.22.54-.24.61-.19.55-.21.62-.17.56-.18.62-.14.57-.14.62-.11.57-.11.63-.09.57-.08.63-.06.57-.05.63-.03.58-.02.63v.59l.01.55.03.62.04.55.06.61.07.55.09.61.09.55.12.6.12.54.15.6.15.54.18.59.17.53.21.59.2.52.25.58.22.51.28.57c.08.17.16.34.25.5l.31.57.27.49c.11.19.23.38.35.56.1.16.19.32.3.47l.39.56.31.45.45.58.31.4.54.63.28.33c.28.31.58.62.88.93l.28.27c.09.09.18.16.28.23l.1.05.21.11.13.04.2.06.15.01.19.02.2-.02.15-.02.2-.06.14-.04.2-.11.11-.06c.1-.07.2-.14.28-.23l2.18-2.18c-.79.1-1.55.36-2.32 1.14-.14.08-.31.14-.48.14zm-3.41-19.08c-.55 0-1.01-.45-1.01-1.01 0-.55.45-1 1.01-1s1.01.45 1.01 1a1.02 1.02 0 0 1-1.01 1.01zm.8-5.03c-.78 0-1.41-.63-1.41-1.41s.63-1.41 1.41-1.41 1.41.63 1.41 1.41-.63 1.41-1.41 1.41z"/><linearGradient id="aC" gradientUnits="userSpaceOnUse" x1="-3409.65" y1="2384.56" x2="-3408.65" y2="2384.56" gradientTransform="rotate(-45 -147863.008 -94804.71) scale(32.34)"><stop offset="0" style="stop-color:#82888E"/><stop offset="1" style="stop-color:#BABFC5"/></linearGradient><path fill="url(#aC)" d="M305.82 177.28c-.17 0-.34-.06-.47-.2a.664.664 0 0 1 0-.94c1.54-1.54 3.09-1.57 4.46-1.6l.21-.01 4.54-4.54.01-.21c.03-1.37.06-2.92 1.6-4.46s3.09-1.57 4.46-1.6l.21-.01 4.54-4.54.01-.21c.03-1.37.06-2.92 1.6-4.46s3.09-1.57 4.46-1.6l.21-.01 4.54-4.54.01-.21c.03-1.37.06-2.92 1.6-4.46a.664.664 0 1 1 .94.94c-.78.78-1.04 1.53-1.14 2.32l2.16-2.16c.09-.09.17-.18.23-.28l.06-.12.1-.19.04-.14.06-.19.02-.15.02-.19-.02-.2-.01-.14-.06-.22-.03-.11-.12-.23-.04-.08c-.06-.1-.14-.2-.22-.28l-.27-.28c-.3-.3-.61-.6-.93-.88l-.31-.27c-.21-.19-.43-.38-.65-.55l-.39-.31-.59-.46-.44-.31-.57-.4-.46-.29-.57-.35-.48-.27-.57-.31-.5-.25-.57-.28-.51-.22-.58-.25-.52-.2-.59-.21-.53-.17-.59-.18-.54-.15-.6-.15-.54-.12-.6-.12-.54-.09-.61-.09-.55-.07-.61-.06-.55-.04-.61-.03-.55-.01h-.59l-.63.02-.57.03-.63.05-.57.06-.63.08-.57.09-.63.11-.57.11-.63.14-.56.14-.62.18-.56.17-.62.21-.55.19-.61.24-.54.22-.61.27-.53.25-.6.31-.51.27-.6.34-.5.29-.6.38-.48.31-.6.42-.45.32-.61.48-.41.32c-.23.19-.45.38-.67.58l-.33.29c-.33.3-.65.6-.96.92-.32.32-.62.64-.92.96l-.29.33-.58.67-.32.41c-.16.2-.33.41-.48.62l-.32.45-.43.6-.31.48-.38.6-.29.5-.34.6-.27.51-.31.61-.25.53c-.09.2-.19.4-.27.61l-.22.54-.24.61-.19.55-.21.62-.17.56-.18.62-.14.57-.14.62-.11.57-.11.63-.09.57-.08.63-.06.57-.05.63-.03.58-.02.63v.59l.01.55.03.62.04.55.06.61.07.55.09.61.09.55.12.6.12.54.15.6.15.54.18.59.17.53.21.59.2.52.25.58.22.51.28.57c.08.17.16.34.25.5l.31.57.27.49c.11.19.23.38.35.56.1.16.19.32.3.47l.39.56.31.45.45.58.31.4.54.63.28.33c.28.31.58.62.88.93l.28.27c.09.09.18.16.28.23l.1.05.21.11.13.04.2.06.15.01.19.02.2-.02.15-.02.2-.06.14-.04.2-.11.11-.06c.1-.07.2-.14.28-.23l2.18-2.18c-.79.1-1.55.36-2.32 1.14-.14.08-.31.14-.48.14zm-3.41-19.08c-.55 0-1.01-.45-1.01-1.01 0-.55.45-1 1.01-1s1.01.45 1.01 1a1.02 1.02 0 0 1-1.01 1.01zm.8-5.03c-.78 0-1.41-.63-1.41-1.41s.63-1.41 1.41-1.41 1.41.63 1.41 1.41-.63 1.41-1.41 1.41z"/><path fill="#BABFC5" d="M317.1 166.27c-.78.78-1.04 1.53-1.14 2.32l3.46-3.46c-.79.11-1.54.37-2.32 1.14z"/><linearGradient id="aD" gradientUnits="userSpaceOnUse" x1="-3409.65" y1="2384.956" x2="-3408.65" y2="2384.956" gradientTransform="rotate(-45 -147863.008 -94804.71) scale(32.34)"><stop offset="0" style="stop-color:#82888E"/><stop offset="1" style="stop-color:#BABFC5"/></linearGradient><path fill="url(#aD)" d="M317.1 166.27c-.78.78-1.04 1.53-1.14 2.32l3.46-3.46c-.79.11-1.54.37-2.32 1.14z"/><path fill="#BABFC5" d="M327.92 155.46c-.78.78-1.04 1.53-1.14 2.32l3.46-3.46c-.8.1-1.55.37-2.32 1.14z"/><linearGradient id="aE" gradientUnits="userSpaceOnUse" x1="-3409.65" y1="2384.956" x2="-3408.65" y2="2384.956" gradientTransform="rotate(-45 -147863.008 -94804.71) scale(32.34)"><stop offset="0" style="stop-color:#82888E"/><stop offset="1" style="stop-color:#BABFC5"/></linearGradient><path fill="url(#aE)" d="M327.92 155.46c-.78.78-1.04 1.53-1.14 2.32l3.46-3.46c-.8.1-1.55.37-2.32 1.14z"/><path fill="#FFF" d="M344.89 147.88l-2.46-2.46-5.23 5.2c-.22.67-.6 1.36-1.28 2.04-.69.69-1.39 1.07-2.07 1.29l-7.44 7.4c-.22.7-.6 1.41-1.31 2.12-.72.72-1.44 1.11-2.15 1.32l-7.32 7.28c-.21.72-.6 1.47-1.34 2.21-.75.75-1.5 1.14-2.24 1.35l-5.07 5.04 2.46 2.46 2.1-2.09 31.31-31.15 2.04-2.01z"/><path fill="#959CA5" d="M315.63 172.07c.23-.78.25-1.54.26-2.25.01-.42.02-.83.07-1.22.1-.79.36-1.55 1.14-2.32.78-.78 1.53-1.04 2.32-1.14.39-.05.8-.06 1.22-.07.73-.01 1.51-.04 2.31-.28.71-.21 1.43-.6 2.15-1.32.71-.71 1.09-1.43 1.31-2.12.25-.81.27-1.6.29-2.34.01-.42.02-.83.07-1.22.1-.79.36-1.55 1.14-2.32s1.53-1.04 2.32-1.14c.39-.05.8-.06 1.22-.07.75-.02 1.56-.04 2.4-.31.68-.22 1.37-.6 2.07-1.29.68-.68 1.06-1.37 1.28-2.04.28-.84.3-1.66.32-2.42.01-.42.02-.83.07-1.22.1-.79.36-1.55 1.14-2.32a.664.664 0 1 0-.94-.94c-1.54 1.54-1.57 3.09-1.6 4.46l-.01.21c-.03 1.19-.11 2.24-1.2 3.34-1.1 1.1-2.15 1.18-3.34 1.2l-.21.01c-1.37.03-2.92.06-4.46 1.6s-1.57 3.09-1.6 4.46l-.01.21c-.03 1.19-.11 2.24-1.2 3.33-1.1 1.1-2.14 1.18-3.33 1.2l-.21.01c-1.37.03-2.92.06-4.46 1.6s-1.57 3.09-1.6 4.46l-.01.21c-.03 1.19-.11 2.24-1.2 3.33-1.1 1.1-2.14 1.18-3.33 1.2l-.21.01c-1.37.03-2.92.06-4.46 1.6-.26.26-.26.68 0 .94.13.13.3.2.47.2s.34-.06.47-.2c.78-.78 1.53-1.04 2.32-1.14.39-.05.8-.06 1.22-.07.7-.01 1.45-.03 2.22-.25.73-.21 1.49-.6 2.24-1.35s1.13-1.49 1.34-2.22z"/><circle fill="#FFF" cx="302.41" cy="157.2" r="1.01"/><circle fill="#FFF" cx="303.21" cy="151.77" r="1.41"/><path fill="#7F8791" d="M283.5 121.89c-1.78 1.8-4.16 2.79-6.68 2.79s-4.89-.99-6.68-2.79c-3.69-3.71-3.69-9.76 0-13.47.15-.15.31-.29.47-.43l-1.42-1.43c-.16.15-.33.28-.48.44-4.46 4.5-4.46 11.81 0 16.31 2.16 2.18 5.04 3.38 8.1 3.38s5.94-1.2 8.1-3.38l.43-.47-1.42-1.43-.42.48z"/><path fill="#FFF" d="M254.52 86.36c-.55 0-1.07-.22-1.45-.61-.81-.81-.81-2.13 0-2.95l3.94-3.97a.694.694 0 0 0-.98-.98l-3.94 3.97a3.477 3.477 0 0 0 0 4.89c.65.66 1.52 1.02 2.44 1.02s1.79-.36 2.44-1.02l15.46-15.58c.39-.39.9-.61 1.45-.61.53 0 1.03.2 1.41.57.77.81.76 2.11-.03 2.91l-12.8 12.89a3.477 3.477 0 0 0 0 4.89l.1.1c.65.66 1.52 1.02 2.44 1.02s1.79-.36 2.44-1.02l3.69-3.71c.78-.79 2.13-.79 2.91 0l2.24 2.26.97-.98-2.25-2.23c-1.3-1.31-3.57-1.31-4.87 0l-3.69 3.71c-.78.78-2.13.78-2.91 0l-.1-.1c-.81-.81-.81-2.13 0-2.94L276.23 75a3.486 3.486 0 0 0 .07-4.82l-.02-.02-.06-.06c-.64-.61-1.48-.94-2.36-.94-.92 0-1.79.36-2.44 1.02l-15.46 15.58c-.38.38-.89.6-1.44.6z"/><path fill="#959CA5" d="M264.74 102.06l4.46 4.5 1.41 1.42 13.32 13.42 1.42 1.43 7.27 7.32 22.65-22.81-27.89-28.09-10.14 10.22-.98.98-11.52 11.61z"/><path fill="#FFF" d="M38.56 80.64l-1.03 1.03-1.38 1.37-3.01 3.01L38 90.9l3.6-3.59c3.31-3.3 3.31-8.66 0-11.97a8.514 8.514 0 0 0-1.93-1.44c1.07 2.2.72 4.91-1.11 6.74zM22.63 96.55c-1.82 1.82-4.52 2.17-6.72 1.11.38.69.85 1.34 1.43 1.92 3.3 3.3 8.66 3.3 11.96 0l3.85-3.84-4.86-4.86-5.66 5.67z"/><path fill="#BABFC5" d="M24.82 77.72l.11.11h3.21c2.35 0 4.26 1.91 4.26 4.26v3.21l.74.74 3.01-3.01v-6.07c0-1.59-1.3-2.89-2.89-2.89h-4.8l-3.75 3.75.11-.1zM14.31 96.55c.48.48 1.03.83 1.6 1.11 2.19 1.06 4.9.71 6.72-1.11l5.67-5.66-2.08-2.08v4.16l-1.38 1.37v-6.07c0-.37-.08-.72-.2-1.04L23 85.58c-.32-.13-.67-.2-1.04-.2h-4.8l-2.84 2.84c-.29.29-.54.6-.76.93h3.69c2.35 0 4.26 1.91 4.26 4.26v3.99c-.44.26-.9.46-1.38.6v-4.59c0-1.59-1.3-2.89-2.89-2.89H12.9c.07-.2.15-.4.23-.59-.98 2.17-.61 4.82 1.18 6.62zm23.22-19.58v4.7l1.03-1.03c1.83-1.82 2.18-4.54 1.11-6.74-.28-.57-.63-1.11-1.1-1.59-2.3-2.3-6.02-2.3-8.32 0l-.4.4h3.43c2.34 0 4.25 1.91 4.25 4.26zm-16.11 7.04l-1.44-1.45 3.36-3.35-4.81 4.8h2.89zm6.72-4.8h-1.83l4.72 4.72V82.1c0-1.6-1.3-2.89-2.89-2.89z"/><path fill="#FFF" d="M17.25 90.52c1.59 0 2.89 1.3 2.89 2.89V98c.48-.14.94-.33 1.38-.6v-3.99c0-2.35-1.91-4.26-4.26-4.26h-3.69c-.16.25-.29.51-.41.78l-.23.59h4.32zm4.71-5.14c.37 0 .72.08 1.04.2L21.42 84h-2.89l-1.38 1.37 4.81.01zm2.89 2.89v6.07l1.38-1.37v-4.16l-1.58-1.58c.12.32.2.67.2 1.04zm-.13-10.44h-.01l-1.37 1.38 1.38-1.38zm1.59 1.38h1.83c1.59 0 2.89 1.3 2.89 2.89v1.83l1.38 1.37v-3.2c0-2.35-1.91-4.26-4.26-4.26h-3.21l1.37 1.37zm6.96-5.13c1.59 0 2.89 1.3 2.89 2.89v6.07l1.38-1.37v-4.7c0-2.35-1.91-4.26-4.26-4.26h-3.43l-1.38 1.37h4.8z"/><path fill="#959CA5" d="M32.4 85.3l-1.37-1.37-4.72-4.72-1.38-1.38-.11-.11-.1.11-1.38 1.38-3.36 3.35 1.44 1.45L23 85.58l1.65 1.65 1.57 1.58 2.08 2.08 4.86 4.85.11.11 4.84-4.84-.11-.11-4.85-4.85-.75-.75z"/><path fill="#7F8791" d="M71.24 101.11L77 95.29l16.81 9.5c.13.07.27.11.4.11.29 0 .56-.15.72-.42.22-.39.08-.89-.31-1.12l-17.35-9.81a.862.862 0 0 0-.4-.11c-.21 0-.42.08-.58.24l-6.2 6.26 1.15 1.17z"/><path fill="#BABFC5" d="M54.72 91.82l-14.88 16.69 22.45 22.45-1.23 1.1-22.31-22.32-2.56 2.87 22.01 22.01-1.22 1.09-21.88-21.88-2.35 2.64 21.59 21.6-1.22 1.1-21.47-21.47-20.85 23.38 18.97 18.97 49.19-44-24.24-24.23z"/><path fill="#FFF" d="M57.22 87.1l-4.11 3.11 1.61 1.61 24.24 24.23 1.6 1.6 3.11-4.11-12.43-12.43-1.16-1.16L57.22 87.1zm3.84 44.96l1.23-1.1-22.45-22.45-1.09 1.23 22.31 22.32zm-4.08 3.65l1.22-1.09-22.01-22.01-1.09 1.22 21.88 21.88zm-3.86 3.46l1.22-1.1-21.59-21.6-1.1 1.23 21.47 21.47zM21.98 40.13l20.37-20.37-10.16-6.64a.821.821 0 0 1-.24-1.13c.25-.38.75-.48 1.13-.24l10.45 6.83 1.65-1.65 6.1 4.18s.3.2.42.33c-1.03-1.42-19.66-13.5-19.66-13.5L13 26.98s10.03 15.66 13.11 19.21l-4.13-6.06zm12.16-18.5c.52-.52 1.36-.52 1.88 0s.52 1.36 0 1.88c-.52.52-1.36.52-1.87 0-.52-.52-.52-1.36-.01-1.88zm-7.63 25l-.27-.28.27.28zM62.19 56.9a.818.818 0 0 1-1.16 0l-.27-.27-7.31 7.31c-.32.32-.32.83 0 1.15a.818.818 0 0 0 1.16 0l15.77-15.77c.32-.32.32-.83 0-1.15s-.83-.32-1.15 0l-7.31 7.31.27.27c.32.32.32.83 0 1.15zm-10.94-9.8l.02.03 9.5 9.5.27.27a.818.818 0 0 0 1.16 0c.32-.32.32-.83 0-1.15l-.27-.27-9.5-9.5-.04-.03c-.21.24-.42.48-.64.71l-.5.44z"/><path fill="#959CA5" d="M45.17 16.94l-1.65 1.65 2.35 1.54c.38.25.48.75.24 1.13a.82.82 0 0 1-1.13.24l-2.63-1.72-20.37 20.35 4.14 6.06.03.05.1.11.27.28c6.82 6.82 17.75 6.97 24.74.47l.49-.44c.23-.23.43-.47.64-.71 6.28-6.99 6.07-17.76-.68-24.51-.13-.13-.42-.33-.42-.33l-6.12-4.17zM34.87 36.3c-.75.75-1.96.75-2.71 0s-.75-1.96 0-2.71 1.96-.75 2.71 0 .75 1.96 0 2.71z"/><ellipse transform="rotate(-45.001 33.508 34.949)" fill="#FFF" cx="33.51" cy="34.95" rx="1.91" ry="1.92"/><ellipse transform="rotate(-45.001 35.057 22.573)" fill="#CDD0D5" cx="35.06" cy="22.57" rx="1.32" ry="1.33"/><path fill="#FFF" d="M45.42 21.62c.27 0 .53-.13.68-.37.25-.38.14-.88-.24-1.13l-2.35-1.54-10.45-6.83a.812.812 0 0 0-1.13.24c-.25.38-.14.88.24 1.13l10.16 6.64 2.63 1.72c.15.1.31.14.46.14z"/><path fill="#BABFC5" d="M135.83 46.95c.37.37.65.79.88 1.23 1.31-.78 2.56-1.71 3.69-2.84 1.69-1.69 2.97-3.63 3.87-5.7l-1.4-.76.79-1.44 1.2.66c2.13-6.43.66-13.8-4.46-18.92-4.3-4.3-10.19-6.02-15.78-5.2l1.23 2.18-1.43.8-1.5-2.66c-3.18.78-6.2 2.39-8.69 4.87a18.486 18.486 0 0 0-2.8 3.62c.36.21.7.46 1.01.77l23.39 23.39zm1.45-20.29l4.44 2.54-.81 1.42-4.44-2.54.81-1.42zm-3.71 11.85l-1.64-.06.16-4.6 1.64.06-.16 4.6zm-1.14-18.61l.32 1.61-4.76.95-.32-1.61 4.76-.95zm-14.34-.04l2.38 4.6-1.46.75-2.38-4.6 1.46-.75z"/><path fill="#FFF" d="M118.86 57.98c-3.56-.35-7.03-1.89-9.76-4.62l-3.04-3.04c-2.81-2.81-4.35-6.4-4.64-10.08l-.18-.18-21.17 24.19 14.77 14.77 24.02-21.04zm-13.37-24.41c-.22 1.65-.3 2.72.69 3.71.99.99 2.06.91 3.71.69 1.63-.22 3.47-.46 5.08 1.15 1.62 1.62 1.37 3.46 1.16 5.08-.22 1.65-.3 2.72.69 3.71s2.06.91 3.71.69c1.62-.22 3.47-.46 5.09 1.16s1.37 3.46 1.16 5.09c-.1.77-.17 1.4-.12 1.97 1.78-.74 3.44-1.82 4.91-3.23l-25.73-25.73c-.37.38-.71.77-1.03 1.18 1.08 1.47.87 3.08.68 4.53zm3.61 19.79c2.73 2.73 6.2 4.27 9.76 4.62 2.08.21 4.2.01 6.22-.6-.16-.93-.05-1.87.07-2.75.22-1.65.3-2.72-.69-3.71-1-1-2.06-.91-3.71-.69-1.63.21-3.47.46-5.09-1.16-1.62-1.62-1.37-3.46-1.16-5.08.22-1.65.3-2.72-.69-3.71-.99-.99-2.06-.91-3.71-.69-1.63.22-3.47.46-5.08-1.15-1.62-1.62-1.37-3.46-1.16-5.08.16-1.18.24-2.06-.09-2.83a16.119 16.119 0 0 0-2.36 9.73c.29 3.67 1.83 7.27 4.64 10.08l3.05 3.02z"/><path fill="#CDD0D5" d="M103.87 33.35c-.22 1.63-.46 3.47 1.16 5.08s3.46 1.37 5.08 1.15c1.65-.22 2.71-.3 3.71.69.99.99.91 2.06.69 3.71-.21 1.63-.46 3.47 1.16 5.08 1.62 1.62 3.46 1.37 5.09 1.16 1.65-.22 2.72-.3 3.71.69 1 1 .91 2.06.69 3.71-.12.88-.23 1.82-.07 2.75.14.8.48 1.59 1.22 2.34l1.16-1.16c-.53-.53-.75-1.09-.81-1.75-.05-.56.02-1.2.12-1.97.21-1.63.46-3.47-1.16-5.09s-3.46-1.37-5.09-1.16c-1.66.22-2.72.3-3.71-.69s-.91-2.06-.69-3.71c.21-1.63.46-3.47-1.16-5.08-1.62-1.61-3.45-1.37-5.08-1.15-1.65.22-2.72.3-3.71-.69-.99-.99-.91-2.06-.69-3.71.19-1.44.4-3.05-.68-4.53-.14-.19-.29-.37-.47-.56l-1.16 1.16c.28.28.47.57.6.88.32.79.24 1.67.09 2.85z"/><path fill="#BABFC5" d="M131.56 53.58l.7.7c.99.99 2.59.99 3.57 0 1.65-1.65 1.93-4.14.88-6.1a4.96 4.96 0 0 0-.88-1.23l-23.38-23.38c-.31-.31-.65-.55-1.01-.77-1.99-1.19-4.6-.95-6.32.77-.99.99-.99 2.59 0 3.57l.71.71 25.73 25.73z"/><path fill="#FFF" d="M127.67 20.85l4.76-.95.32 1.61-4.76.95-.32-1.61zm4.27 17.61l.16-4.6 1.64.06-.16 4.6-1.64-.06zm-15.3-17.85l1.46-.75 2.38 4.6-1.46.75-2.38-4.6zm19.82 7.47l.81-1.42 4.45 2.54-.81 1.42-4.45-2.54zm6.42 10.8l1.4.76 2.09 1.14.78-1.43-2.29-1.25-1.2-.66-.78 1.44zm-17.03-22.72l-1.23-2.18-.69-1.23-1.43.8.43.76 1.49 2.65 1.43-.8z"/></svg>