<svg version="1" xmlns="http://www.w3.org/2000/svg" width="500" height="500" viewBox="0 0 500 500"><g fill="#fff"><path d="M232.13 94.17c22.87-1.6 40.27-21.63 38.67-44.5s-21.63-40.27-44.5-38.67-40.27 21.63-38.67 44.5 21.63 40.27 44.5 38.67"/><path d="M111.02 139.77l54.85-1.92 4.27 121.88-54.85 1.92-4.27-121.88zM346.94 134.24l20.57-7.49 78.88 316.17-20.57 7.49-78.88-316.17zM224.06 100.67c23.73-.83 43.64 17.74 44.47 41.47l3.85 110.31c.83 23.73-17.74 43.64-41.47 44.47-23.73.83-43.64-17.74-44.47-41.47l-3.85-110.31c-.83-23.73 17.74-43.64 41.47-44.47zM225.67 108.93c8.33-6.5 20.35-5.03 26.85 3.3l47.14 60.33c6.5 8.33 5.03 20.35-3.3 26.85s-20.35 5.03-26.85-3.3l-47.14-60.33c-6.5-8.33-5.03-20.35 3.3-26.85zM213.18 246.33c13.45.94 23.59 12.6 22.65 26.05l-7.14 102.16c-.94 13.45-12.6 23.59-26.05 22.65-13.45-.94-23.59-12.6-22.65-26.05l7.14-102.16c.94-13.45 12.6-23.59 26.05-22.65zM233.24 243.7c10.62-8.3 25.96-6.42 34.26 4.21l59.45 76.09c8.3 10.62 6.42 25.96-4.21 34.26-10.62 8.3-25.96 6.42-34.26-4.21l-59.45-76.09c-8.3-10.62-6.42-25.96 4.21-34.26zM156.73 475.07l23.47-106.06c2.91-13.16 15.93-21.46 29.09-18.55s21.46 15.93 18.55 29.1l-23.47 106.06-47.64-10.55zM284.54 437.4v-93.62c0-13.48 10.92-24.4 24.41-24.4 13.48 0 24.41 10.92 24.41 24.4v93.62h-48.82zM273.23 191.69c1.1-10.51 10.52-18.13 21.02-17.03l71.96 7.56c10.51 1.1 18.13 10.52 17.03 21.02-1.1 10.51-10.52 18.13-21.02 17.03l-71.96-7.56c-10.51-1.1-18.13-10.51-17.03-21.02z"/></g></svg>