<svg version="1" xmlns="http://www.w3.org/2000/svg" width="500" height="500" viewBox="0 0 500 500"><g fill="#fff"><path d="M236.34 110.99c22.89-.8 40.97-20.19 40.17-43.08-.8-22.89-20.19-40.97-43.08-40.17-22.89.8-40.97 20.19-40.17 43.08.8 22.89 20.19 40.97 43.08 40.17"/><path d="M112.82 147.31h54.91v122h-54.91v-122zM357.03 162.56l21.35-4.93 39.77 323.66-21.35 4.93-39.77-323.66zM226.16 112.18c23.75 0 43 19.25 43 43v110.38c0 23.75-19.25 43-43 43s-43-19.25-43-43v-110.38c0-23.75 19.25-43 43-43zM236.3 128.8c8.55-6.21 20.51-4.32 26.72 4.23l45 61.94c6.21 8.55 4.32 20.51-4.23 26.72-8.55 6.21-20.51 4.32-26.72-4.23l-45-61.94c-6.21-8.54-4.32-20.51 4.23-26.72zM213.32 251.18c12.67 4.61 19.2 18.62 14.59 31.28l-35.03 96.24c-4.61 12.67-18.62 19.2-31.28 14.59-12.67-4.61-19.2-18.62-14.59-31.28l35.03-96.24c4.61-12.67 18.62-19.2 31.28-14.59zM230.54 252.68c11.43-7.14 26.49-3.67 33.63 7.77l51.17 81.89c7.14 11.43 3.67 26.49-7.76 33.63-11.43 7.14-26.49 3.67-33.63-7.77l-51.17-81.89c-7.15-11.43-3.67-26.49 7.76-33.63zM100.31 471.16l43.36-99.65c5.38-12.36 19.76-18.02 32.12-12.64 12.36 5.38 18.02 19.75 12.64 32.12l-43.36 99.65-44.76-19.48zM334.52 482.67l-55.21-108.37c-6.12-12.01-1.34-26.7 10.67-32.82 12.01-6.12 26.71-1.34 32.83 10.66l55.22 108.36-43.51 22.17zM277.55 204.56c2.91-10.16 13.51-16.03 23.66-13.12l69.55 19.94c10.16 2.91 16.03 13.51 13.12 23.66-2.91 10.16-13.51 16.03-23.66 13.12l-69.55-19.94c-10.16-2.91-16.03-13.51-13.12-23.66z"/></g></svg>