<svg version="1" xmlns="http://www.w3.org/2000/svg" width="500" height="500" viewBox="0 0 500 500"><g fill="#fff"><path d="M231.1 103.2c22.9-1.6 40.3-21.6 38.7-44.5s-21.6-40.3-44.5-38.7-40.3 21.6-38.7 44.5 21.7 40.3 44.5 38.7"/><path d="M108 146.8l54.9-1.9 4.3 121.9-54.9 1.9-4.3-121.9zM359.4 149.9l21.2-5.3 45.3 322.7-21.2 5.3-45.3-322.7zM221.1 107.7c23.7-.8 43.6 17.7 44.5 41.5l3.9 110.3c.8 23.7-17.7 43.6-41.5 44.5-23.7.8-43.6-17.7-44.5-41.5l-3.9-110.3c-.8-23.8 17.7-43.7 41.5-44.5zM226.3 117.8c8-6.9 20.1-6.1 27 1.9l50.2 57.8c6.9 8 6.1 20.1-1.9 27-8 6.9-20.1 6.1-27-1.9l-50.2-57.8c-6.9-7.9-6-20 1.9-27zM210.3 251.5c13.2 2.6 21.9 15.4 19.3 28.6l-19.5 100.5c-2.6 13.2-15.4 21.9-28.6 19.3-13.2-2.6-21.9-15.4-19.3-28.6l19.5-100.5c2.6-13.2 15.4-21.8 28.6-19.3zM231.2 251.5c10.5-8.5 25.8-6.9 34.3 3.6l60.8 75c8.5 10.5 6.9 25.8-3.6 34.3-10.5 8.5-25.8 6.9-34.3-3.6l-60.8-75c-8.4-10.5-6.8-25.8 3.6-34.3zM128.6 473.5l32.7-103.7c4.1-12.9 17.8-20 30.6-15.9 12.9 4.1 20 17.8 15.9 30.6l-32.7 103.7-46.5-14.7zM324.3 454l-35.7-93c-4.8-12.6 1.5-26.7 14.1-31.5 12.6-4.8 26.7 1.5 31.5 14.1l35.7 93-45.6 17.4zM278.6 194.1c2.6-10.3 12.9-16.5 23.2-13.9l70.2 17.5c10.3 2.6 16.5 12.9 13.9 23.2-2.6 10.3-12.9 16.5-23.2 13.9l-70.2-17.5c-10.2-2.6-16.5-13-13.9-23.2z"/></g></svg>