<svg version="1" xmlns="http://www.w3.org/2000/svg" width="500" height="500" viewBox="0 0 500 500"><g fill="#fff"><path d="M252.74 99.13c22.92.6 42.15-17.67 42.75-40.58.6-22.92-17.67-42.15-40.58-42.75-22.92-.6-42.15 17.67-42.75 40.58-.6 22.92 17.66 42.15 40.58 42.75"/><path d="M128.35 131.64l54.8 3.35-7.44 121.76-54.8-3.35 7.44-121.76zM284.11 143.52l20.76-6.94 70.4 318.12-20.76 6.94-70.4-318.12zM243.94 103.4c23.7 1.45 41.74 21.84 40.29 45.54l-6.9 112.82c-1.45 23.7-21.84 41.74-45.54 40.29-23.7-1.45-41.74-21.84-40.29-45.54l6.9-112.82c1.44-23.7 21.83-41.74 45.54-40.29zM244.39 123.67c10.42-1.74 20.28 5.29 22.02 15.71l12.64 75.51c1.74 10.42-5.29 20.28-15.71 22.03-10.42 1.74-20.28-5.29-22.03-15.71l-12.64-75.51c-1.74-10.43 5.3-20.29 15.72-22.03zM246.91 255.67c12.92-3.83 26.51 3.55 30.33 16.47l25.1 84.72c3.83 12.93-3.55 26.51-16.47 30.33-12.92 3.83-26.51-3.55-30.33-16.47l-25.1-84.72c-3.82-12.92 3.55-26.51 16.47-30.33zM212.09 251.24c13.33-1.99 25.75 7.2 27.75 20.53l12.84 85.92c1.99 13.33-7.2 25.76-20.53 27.75-13.33 1.99-25.75-7.2-27.75-20.53l-12.84-85.92c-2-13.33 7.19-25.76 20.53-27.75zM257.38 480.72l-.98-108.67c-.12-13.48 10.7-24.51 24.19-24.63 13.48-.12 24.51 10.7 24.63 24.19l.98 108.67-48.82.44zM156.33 433.08l51.88-81.44c7.24-11.37 22.32-14.72 33.69-7.48 11.36 7.24 14.71 22.32 7.46 33.69l-51.88 81.44-41.15-26.21zM208.96 207.47c.46-10.56 9.39-18.74 19.95-18.28l72.29 3.16c10.56.46 18.74 9.39 18.28 19.95-.46 10.56-9.39 18.74-19.95 18.28l-72.29-3.16c-10.56-.47-18.74-9.4-18.28-19.95z"/></g></svg>