<svg version="1" xmlns="http://www.w3.org/2000/svg" width="500" height="500" viewBox="0 0 500 500"><g fill="#fff"><path d="M231.7 107.6c22.9-1.2 40.6-20.9 39.5-43.8s-20.9-40.7-43.8-39.5c-22.9 1.2-40.6 20.9-39.5 43.8 1.2 22.9 20.9 40.6 43.8 39.5"/><path d="M109.9 147l54.9-.9 2.1 122-54.9.9-2.1-122zM359.6 158.1l21.4-4.7 36.8 324-21.4 4.7-36.8-324zM222.6 109.9c23.7-.4 43.3 18.5 43.7 42.2l1.9 110.4c.4 23.7-18.5 43.3-42.2 43.7-23.7.4-43.3-18.5-43.7-42.2l-1.9-110.4c-.5-23.7 18.5-43.3 42.2-43.7zM233.7 130.1c8.1-6.8 20.2-5.7 27 2.4l49.2 58.7c6.8 8.1 5.7 20.2-2.4 27-8.1 6.8-20.2 5.7-27-2.4l-49.2-58.7c-6.7-8.1-5.7-20.2 2.4-27zM211.2 251.5c13 3.5 20.7 16.9 17.3 29.9l-26.5 98.9c-3.5 13-16.9 20.7-29.9 17.3-13-3.5-20.7-16.9-17.3-29.9l26.5-98.9c3.5-13.1 16.9-20.8 29.9-17.3zM231.3 253.1c10.8-8.1 26.1-6 34.2 4.8l58.1 77.1c8.1 10.8 6 26.1-4.8 34.2-10.8 8.1-26.1 6-34.2-4.8l-58.1-77.1c-8.1-10.8-6-26.1 4.8-34.2zM113.9 471.6l39.9-101.1c4.9-12.5 19.1-18.7 31.7-13.7 12.5 4.9 18.7 19.1 13.7 31.7l-39.9 101.1-45.4-18zM341.7 467.9l-51.9-97.7c-6.3-11.9-1.8-26.7 10.1-33 11.9-6.3 26.7-1.8 33 10.1l51.9 97.7-43.1 22.9zM279.1 199.4c3.1-10.1 13.8-15.8 23.9-12.7l69.2 21.2c10.1 3.1 15.8 13.8 12.7 23.9-3.1 10.1-13.8 15.8-23.9 12.7l-69.2-21.2c-10.1-3.1-15.8-13.8-12.7-23.9z"/></g></svg>