<svg xmlns="http://www.w3.org/2000/svg" width="112" height="94" viewBox="0 0 112 94"><linearGradient id="a" x1="-613.9729" x2="-613.9729" y1="43.0725" y2="35.1798" gradientUnits="userSpaceOnUse" gradientTransform="matrix(-1 0 0 1 -570.047 0)"><stop offset="0" style="stop-color:#DFE1E5"/><stop offset=".3616" style="stop-color:#E3E4E8"/><stop offset=".6986" style="stop-color:#EEEFF1"/><stop offset="1" style="stop-color:#FFFFFF"/></linearGradient><path fill="url(#a)" d="M45.11 43.07h-2.37v-7.89h1.02c.74 0 1.35.6 1.35 1.35v6.54z"/><linearGradient id="b" x1="41.5581" x2="41.5581" y1="43.0725" y2="35.1798" gradientUnits="userSpaceOnUse"><stop offset="0" style="stop-color:#959CA5"/><stop offset=".0443" style="stop-color:#A4AAB2"/><stop offset=".1283" style="stop-color:#BABEC5"/><stop offset=".2274" style="stop-color:#CBCED3"/><stop offset=".3501" style="stop-color:#D6D9DE"/><stop offset=".5222" style="stop-color:#DDDFE3"/><stop offset="1" style="stop-color:#DFE1E5"/></linearGradient><path fill="url(#b)" d="M42.94 43.07h-2.76v-7.89h1.41c.74 0 1.35.6 1.35 1.35v6.54z"/><linearGradient id="c" x1="-603.7123" x2="-603.7123" y1="43.0725" y2="35.1798" gradientUnits="userSpaceOnUse" gradientTransform="matrix(-1 0 0 1 -570.047 0)"><stop offset="0" style="stop-color:#DFE1E5"/><stop offset=".2435" style="stop-color:#DBDEE2"/><stop offset=".4708" style="stop-color:#D0D3D8"/><stop offset=".6918" style="stop-color:#BDC1C8"/><stop offset=".9074" style="stop-color:#A3A9B1"/><stop offset="1" style="stop-color:#959CA5"/></linearGradient><path fill="url(#c)" d="M32.48 35.18h2.37v7.89h-2.37z"/><linearGradient id="d" x1="31.2976" x2="31.2976" y1="43.0725" y2="35.1798" gradientUnits="userSpaceOnUse"><stop offset="0" style="stop-color:#959CA5"/><stop offset=".0443" style="stop-color:#A4AAB2"/><stop offset=".1283" style="stop-color:#BABEC5"/><stop offset=".2274" style="stop-color:#CBCED3"/><stop offset=".3501" style="stop-color:#D6D9DE"/><stop offset=".5222" style="stop-color:#DDDFE3"/><stop offset="1" style="stop-color:#DFE1E5"/></linearGradient><path fill="url(#d)" d="M32.48 43.07h-2.37v-6.55c0-.74.6-1.35 1.35-1.35h1.02v7.9z"/><path fill="#DFE1E5" d="M32.48 35.18h7.89v2.76h-7.89z"/><linearGradient id="e" x1="-609.7615" x2="-632.0067" y1="69.8381" y2="47.5929" gradientUnits="userSpaceOnUse" gradientTransform="matrix(-1 0 0 1 -570.047 0)"><stop offset="0" style="stop-color:#DFE1E5"/><stop offset=".0358" style="stop-color:#DFE1E5;stop-opacity:0.9821"/><stop offset="1" style="stop-color:#DFE1E5;stop-opacity:0.5"/></linearGradient><path fill="url(#e)" d="M56.65 74.59H44.46V42.85h12.19c.74 0 1.35.6 1.35 1.35v29.05c0 .73-.6 1.34-1.35 1.34z"/><linearGradient id="f" x1="-154.6513" x2="-127.3755" y1="-89.022" y2="-89.022" gradientUnits="userSpaceOnUse" gradientTransform="matrix(1 0 0 -1 146.007 -15.09)"><stop offset="0" style="stop-color:#FFFFFF;stop-opacity:0"/><stop offset=".1404" style="stop-color:#FBFBFB;stop-opacity:0.0702"/><stop offset=".2776" style="stop-color:#EFF0F0;stop-opacity:0.1388"/><stop offset=".4137" style="stop-color:#DCDCDD;stop-opacity:0.2068"/><stop offset=".549" style="stop-color:#C0C1C3;stop-opacity:0.2745"/><stop offset=".6838" style="stop-color:#9C9EA1;stop-opacity:0.3419"/><stop offset=".8184" style="stop-color:#717377;stop-opacity:0.4092"/><stop offset=".9502" style="stop-color:#3E4247;stop-opacity:0.4751"/><stop offset="1" style="stop-color:#292D33;stop-opacity:0.5"/></linearGradient><path fill="url(#f)" d="M-8.64 73.28h27.28v1.31H-8.64z"/><linearGradient id="g" x1="-587.8518" x2="-618.7824" y1="74.1808" y2="43.2502" gradientUnits="userSpaceOnUse" gradientTransform="matrix(-1 0 0 1 -570.047 0)"><stop offset="0" style="stop-color:#959CA5"/><stop offset=".0926" style="stop-color:#A3A9B1"/><stop offset=".3082" style="stop-color:#BDC1C8"/><stop offset=".5292" style="stop-color:#D0D3D8"/><stop offset=".7565" style="stop-color:#DBDEE2"/><stop offset="1" style="stop-color:#DFE1E5"/></linearGradient><path fill="url(#g)" d="M19.29 74.59h27.96c1.44 0 2.6-1.17 2.6-2.6V45.45c0-1.44-1.17-2.6-2.6-2.6H19.29c-1.44 0-2.6 1.17-2.6 2.6v26.54c0 1.43 1.16 2.6 2.6 2.6z"/><linearGradient id="h" x1="19.5732" x2="25.407" y1="72.9868" y2="67.153" gradientUnits="userSpaceOnUse"><stop offset="0" style="stop-color:#73CB8A"/><stop offset="1" style="stop-color:#23893C"/></linearGradient><path fill="url(#h)" d="M21.17 74.59h2.64v-9.04h-2.64"/><linearGradient id="i" x1="49.7557" x2="55.9155" y1="55.043" y2="48.8832" gradientUnits="userSpaceOnUse"><stop offset="0" style="stop-color:#34A853"/><stop offset="1" style="stop-color:#73CB8A"/></linearGradient><path fill="url(#i)" d="M49.85 48.79h5.96v6.36h-5.96z"/><linearGradient id="j" x1="31.0411" x2="45.7014" y1="59.2932" y2="44.633" gradientUnits="userSpaceOnUse"><stop offset="0" style="stop-color:#23893C"/><stop offset="1" style="stop-color:#53BA6F"/></linearGradient><path fill="url(#j)" d="M26.89 48.79h22.96v6.36H26.89z"/><linearGradient id="k" x1="31.0411" x2="45.7013" y1="65.649" y2="50.9887" gradientUnits="userSpaceOnUse"><stop offset="0" style="stop-color:#34A853"/><stop offset="1" style="stop-color:#53BA6F"/></linearGradient><path fill="url(#k)" d="M26.89 55.14h22.96v6.36H26.89z"/><linearGradient id="l" x1="49.7557" x2="55.9155" y1="61.3988" y2="55.2389" gradientUnits="userSpaceOnUse"><stop offset="0" style="stop-color:#53BA6F"/><stop offset="1" style="stop-color:#23893C"/></linearGradient><path fill="url(#l)" d="M49.85 55.14h5.96v6.36h-5.96z"/><path fill="#4285F4" d="M18.49 80.93v-2.08l93.51-.32v2.08"/><path fill="#4285F4" d="M18.58 79.67c0-1.89 1.53-3.41 3.41-3.41s3.41 1.53 3.41 3.41"/><g><linearGradient id="m" x1="53.5618" x2="53.5618" y1="54" y2="33.9035" gradientUnits="userSpaceOnUse"><stop offset="0" style="stop-color:#FFFFFF;stop-opacity:0"/><stop offset="1" style="stop-color:#E09108"/></linearGradient><path fill="url(#m)" d="M51.89 33.9l3.34.13-1.2 19.7c-.03.36-.55.36-.59.01L51.89 33.9z"/><ellipse cx="53.56" cy="24.17" fill="#FFF" rx="10.01" ry="9.77"/><path fill="#FABB05" d="M53.56 35.34c-6.29 0-11.41-5.01-11.41-11.17S47.27 13 53.56 13s11.41 5.01 11.41 11.17-5.12 11.17-11.41 11.17zm0-19.55c-4.75 0-8.62 3.76-8.62 8.38s3.87 8.38 8.62 8.38c4.75 0 8.62-3.76 8.62-8.38s-3.87-8.38-8.62-8.38z"/><path fill="#DF382B" d="M56.31 28.68l-3.87-3.5v-7.04h1.86v6.22l3.25 2.94"/></g></svg>