<?xml version="1.0" encoding="utf-8"?>
<!-- Generator: Adobe Illustrator 21.0.2, SVG Export Plug-In . SVG Version: 6.00 Build 0)  -->
<svg version="1.1" id="Layer_1" xmlns="http://www.w3.org/2000/svg" xmlns:xlink="http://www.w3.org/1999/xlink" x="0px" y="0px"
	 width="24px" height="24px" viewBox="0 0 24 24" enable-background="new 0 0 24 24" xml:space="preserve">
<path fill="none" d="M0,0h24v24H0V0z"/>
<path d="M12,2C6.48,2,2,6.48,2,12s4.48,10,10,10s10-4.48,10-10S17.52,2,12,2z M16.5,16H8c-1.66,0-3-1.34-3-3s1.34-3,3-3l0.14,0.01
	C8.58,8.28,10.13,7,12,7c2.21,0,4,1.79,4,4h0.5c1.38,0,2.5,1.12,2.5,2.5S17.88,16,16.5,16z"/>
<path d="M10.78,14.14l-1.87-1.87l0.76-0.76l1.11,1.12l2.78-2.77l0.75,0.75L10.78,14.14z"/>
</svg>
