<?xml version="1.0" encoding="utf-8"?>
<!-- Generator: Adobe Illustrator 21.0.2, SVG Export Plug-In . SVG Version: 6.00 Build 0)  -->
<svg version="1.1" id="Layer_1" xmlns="http://www.w3.org/2000/svg" xmlns:xlink="http://www.w3.org/1999/xlink" x="0px" y="0px"
	 width="33px" height="31px" viewBox="0 0 33 31" enable-background="new 0 0 33 31" xml:space="preserve">
<title>ic_mod_offline_route</title>
<desc>Created with Sketch.</desc>
<g id="card_savedRoutes" transform="translate(-20.000000, -57.000000)">
	<g id="savedRoutes">
		<g id="ic_mod_offline_route" transform="translate(16.000000, 58.000000)">
			<g id="ic_x2F_car" transform="translate(0.000000, 2.000000)">
				<g id="Shape">
					<path id="path-1_1_" fill="#3C4043" d="M25.23,8.01c-0.27-0.79-1.01-1.35-1.89-1.35H8.67c-0.88,0-1.61,0.56-1.89,1.35L4,16
						v10.67C4,27.4,4.6,28,5.33,28h1.33C7.4,28,8,27.4,8,26.67v-1.33h16v1.33C24,27.4,24.6,28,25.33,28h1.33
						C27.4,28,28,27.4,28,26.67V16L25.23,8.01z M8.67,21.33c-1.11,0-2-0.89-2-2s0.89-2,2-2s2,0.89,2,2S9.77,21.33,8.67,21.33z
						 M23.33,21.33c-1.11,0-2-0.89-2-2s0.89-2,2-2s2,0.89,2,2S24.44,21.33,23.33,21.33z M6.67,14.67l2-6h14.67l2,6H6.67z"/>
				</g>
			</g>
			<g id="ic_offline_pin" transform="translate(18.000000, 0.000000)">
				<g id="Shape_1_">
					<g>
						<path id="path-3" fill="#34A853" d="M9,1.5C4.88,1.5,1.5,4.88,1.5,9s3.38,7.5,7.5,7.5s7.5-3.38,7.5-7.5S13.12,1.5,9,1.5z
							 M12.75,13.5h-7.5V12h7.5V13.5z M7.72,10.5L5.25,8.02L6.3,6.97L7.72,8.4l3.97-3.97l1.05,1.05L7.72,10.5z"/>
					</g>
					<path fill="none" stroke="#FFFFFF" stroke-width="2" stroke-linecap="round" stroke-linejoin="round" d="M9,0.5
						c4.68,0,8.5,3.82,8.5,8.5s-3.82,8.5-8.5,8.5S0.5,13.68,0.5,9S4.32,0.5,9,0.5z"/>
				</g>
			</g>
		</g>
	</g>
</g>
<polygon fill="#FFFFFF" points="21.73,11.5 19.25,9.02 20.3,7.97 21.73,9.4 25.7,5.43 26.75,6.47 "/>
<rect x="19.25" y="13" fill="#FFFFFF" width="7.5" height="1.5"/>
</svg>
