<svg id="Layer_1" data-name="Layer 1" xmlns="http://www.w3.org/2000/svg" width="24" height="24" viewBox="0 0 24 24"><title>ic_mod_tab_driving</title><path d="M17.5,15c-0.83,0-1.5-0.67-1.5-1.5c0-0.83,0.67-1.5,1.5-1.5s1.5,0.67,1.5,1.5C19,14.33,18.33,15,17.5,15z M6.5,15 C5.67,15,5,14.33,5,13.5C5,12.67,5.67,12,6.5,12S8,12.67,8,13.5C8,14.33,7.33,15,6.5,15z M4.71,9H19.3l-1.92-4H6.66L4.71,9z M4,16 h16v-5H4V16z M18,18H6v2c0,0.55-0.45,1-1,1s-1-0.45-1-1v-2H2.03L2,10.93c0-0.61,0.14-1.22,0.4-1.77l2.5-5.13C5.18,3.41,5.8,3,6.5,3 h11.03c0.69,0,1.31,0.41,1.58,1l2.49,5.18c0.26,0.54,0.4,1.13,0.4,1.73V18h-2v2c0,0.55-0.45,1-1,1s-1-0.45-1-1V18z"/></svg>