<?xml version="1.0" encoding="UTF-8" standalone="no"?>
<svg width="24px" height="24px" viewBox="0 0 24 24" version="1.1" xmlns="http://www.w3.org/2000/svg" xmlns:xlink="http://www.w3.org/1999/xlink">
    <g id="Page-1" stroke="none" stroke-width="1" fill="none" fill-rule="evenodd">
        <g id="XMLID_3_" transform="translate(0.000000, 1.000000)" fill="#000000">
            <path d="M12.7,7.9 L10.7,7.9 L10.7,10.3 L12.7,10.3 C13.4,10.3 13.9,9.8 13.9,9.1 C14,8.5 13.4,7.9 12.7,7.9 L12.7,7.9 Z" id="XMLID_6_"></path>
            <path d="M12,-1 C5.34545455,-1 0,4.34545455 0,11 C0,17.6545455 5.34545455,23 12,23 C18.6545455,23 24,17.6545455 24,11 C24,4.34545455 18.6545455,-1 12,-1 L12,-1 Z M12.6,12.8 L10.8,12.8 L10.8,16.5 L8.3,16.5 L8.3,5.5 L12.6,5.5 C14.6,5.5 16.3,7.1 16.3,9.2 C16.3,11.2 14.6,12.8 12.6,12.8 L12.6,12.8 Z" id="XMLID_11_"></path>
        </g>
    </g>
</svg>
