<?xml version="1.0" encoding="UTF-8" standalone="no"?>
<svg style="enable-background:new 0 0 18 18" xmlns="http://www.w3.org/2000/svg" xml:space="preserve" height="18px" width="18px" version="1.0" y="0px" x="0px" xmlns:xlink="http://www.w3.org/1999/xlink" viewBox="0 0 18 18">
	<path d="m8.5208 3.75c-0.825 0-1.5-0.675-1.5-1.5s0.675-1.5 1.5-1.5 1.5 0.675 1.5 1.5-0.6752 1.5-1.5002 1.5z"/>
	<path d="m5.5208 9v2h-1.2812c-0.14586-0.53069-0.13094-1.5424-0.13094-1.5424 0.2916-7.9583 6.4123-1.5201 9.8493-8.0201l1.042 1.2065c-1.042 1.4185-2.167 2.7935-4.479 3.5202v10.836h-1.5v-6h-1v6h-1.5v-10.25c-1.0002 0-1.0002 2.25-1.0002 2.25z"/>
	<rect y="12" x="3" height="5" width="3"/>
</svg>
