<?xml version="1.0" encoding="utf-8"?>
<!-- Generator: Adobe Illustrator 19.2.1, SVG Export Plug-In . SVG Version: 6.00 Build 0)  -->
<svg version="1.1" id="Layer_1" xmlns="http://www.w3.org/2000/svg" xmlns:xlink="http://www.w3.org/1999/xlink" x="0px" y="0px"
	 width="24px" height="24px" viewBox="0 0 24 24" style="enable-background:new 0 0 24 24;" xml:space="preserve">
<title>2wheeler_icon@1x</title>
<desc>Created with Sketch.</desc>
<path d="M19.8,11.5c2.3,0,4.2,1.9,4.2,4.2S22.1,20,19.8,20s-4.2-1.9-4.2-4.2c0-1.1,0.5-2.2,1.2-2.9L16,12l-3,6H9.5l0,0l-1.2-1.1
	C7.8,18.7,6.2,20,4.2,20C1.9,20,0,18.1,0,15.8c0-1.8,1.2-3.4,2.8-4L2,11H0v-1h4.5L7,11.5l4-1.5h3.4l-1.6-2L10,8V7h4l0.2,0l1.4,1.8
	L19,7.3V10h-2.4l1.5,1.9l0.4-0.2C18.9,11.6,19.3,11.5,19.8,11.5z M4.2,18.1c1.3,0,2.4-1.1,2.4-2.4s-1.1-2.4-2.4-2.4
	c-1.3,0-2.4,1.1-2.4,2.4S2.9,18.1,4.2,18.1z M19.8,18.1c1.3,0,2.4-1.1,2.4-2.4s-1.1-2.4-2.4-2.4c-1.3,0-2.4,1.1-2.4,2.4
	S18.5,18.1,19.8,18.1z"/>
</svg>
