<?xml version="1.0" encoding="utf-8"?>
<svg version="1.1" xmlns="http://www.w3.org/2000/svg" xmlns:xlink="http://www.w3.org/1999/xlink" x="0px" y="0px"
	 width="18px" height="18px" viewBox="0 0 18 18" style="enable-background:new 0 0 18 18;" xml:space="preserve">
	<g>
		<path transform="matrix(0.75,0,0,0.75,0,0)" d="M18,15.7c-0.7,0-1.4,0.2-2,0.7l-6.6-3.9c0-0.2,0-0.3,0-0.5c0-0.2,0-0.3,0-0.5l6.6-3.8c0.6,0.5,1.3,0.7,2.1,0.7
			c1.9,0,3.4-1.5,3.4-3.4S19.9,1.6,18,1.6S14.6,3.1,14.6,5c0,0.2,0,0.3,0,0.5L8.1,9.3C7.5,8.9,6.8,8.6,6,8.6c-1.9,0-3.4,1.5-3.4,3.4
			s1.5,3.4,3.4,3.4c0.8,0,1.5-0.3,2.1-0.7l6.6,3.9c0,0.2,0,0.3,0,0.4c0,1.8,1.5,3.3,3.3,3.3s3.3-1.5,3.3-3.3S19.8,15.7,18,15.7z"/>
	</g>
</svg>
