<?xml version="1.0" encoding="utf-8"?>
<!-- Generator: Adobe Illustrator 21.0.2, SVG Export Plug-In . SVG Version: 6.00 Build 0)  -->
<svg version="1.1" id="Layer_1" xmlns="http://www.w3.org/2000/svg" xmlns:xlink="http://www.w3.org/1999/xlink" x="0px" y="0px"
	 width="32px" height="32px" viewBox="0 0 32 32" enable-background="new 0 0 32 32" xml:space="preserve">
<title>Asset 1</title>
<path fill="none" d="M0,0h32v32H0V0z"/>
<path d="M21.3,19.1h-1.1l-0.4-0.4c1.4-1.6,2.2-3.7,2.2-5.8c0.1-5-3.9-9-8.9-9.1s-9,3.9-9.1,8.9s3.9,9,8.9,9.1H13
	c2.1,0,4.2-0.8,5.8-2.2l0.4,0.4v1.1l6.9,6.9l2-2L21.3,19.1z M13.1,19.1c-3.4,0-6.2-2.7-6.2-6.1v-0.1c-0.1-3.4,2.6-6.1,6-6.2h0.2
	c3.4-0.1,6.1,2.6,6.2,6v0.2c0.1,3.4-2.6,6.1-6,6.2C13.3,19.1,13.1,19.1,13.1,19.1z"/>
</svg>
