<svg xmlns="http://www.w3.org/2000/svg" width="40" height="40" viewBox="0 0 40 40"><circle cx="20.12" cy="20.07" r="20" fill="#DBDBDB"/><path fill="#FFF" d="M28.21 13.95c-.55-.47-1.17-.84-1.83-1.12-.83-.34-1.7-.51-2.6-.52l-16.55-.63c-.74-.06-1.49-.01-2.21.16-.68.16-1.33.42-1.93.78l-1.87.91C.51 15.58.11 17.77.11 20.05c0 3.94 1.16 7.61 3.13 10.71l32.73 1.44c2.59-3.37 4.14-7.57 4.14-12.15 0-.47-.04-.94-.07-1.4l-6.72-.3-5.11-4.4zM5.26 17.13l.13-.06.22-.12c.18-.11.37-.19.57-.24.21-.05.42-.06.64-.04l16.81.65h.1c.25-.01.5.05.73.14.18.07.35.18.49.29l.31.26-20-.88z"/><g fill="#A3A3A3"><path d="M4.4301 22.28673l.02217-.4094 9.68545.52478-.02218.4094zM.2 21.64c.01.14.01.28.02.41l2.82.15.02-.41-2.86-.15zM37.71 23.67l-.02.41 2 .11c.03-.13.05-.27.07-.41l-2.05-.11zM15.50712 22.8831l.02218-.40938 9.68545.52477-.02218.40938zM26.60923 23.48762l.02218-.4094 9.68546.52478-.02218.4094z"/></g><path fill="#AB30B5" d="M.85 25.36l37.87 2.03c.19-.49.38-.98.53-1.48L.48 23.83c.1.52.23 1.03.37 1.53z"/><path fill="#2E2EFF" d="M.13 19.74l39.89 2.14c.04-.5.07-1 .08-1.51L.21 18.23c-.05.5-.07 1-.08 1.51z"/><path fill="#FFF" d="M37.07 15.18c.89.08 1.71-.38 2.14-1.1-.79-2.53-2.08-4.85-3.74-6.83L35 12.73c-.11 1.25.82 2.35 2.07 2.45z"/><path fill="#C1C1C1" d="M18.72 37.51h-6.48c-.83 0-1.5-.67-1.5-1.5v-6.62c0-.83.67-1.5 1.5-1.5h6.48c.83 0 1.5.67 1.5 1.5v6.62c-.01.83-.68 1.5-1.5 1.5z"/><path fill="#00B0FF" d="M18.72 37.09h-6.48c-.83 0-1.5-.67-1.5-1.5v-6.62c0-.83.67-1.5 1.5-1.5h6.48c.83 0 1.5.67 1.5 1.5v6.62c-.01.83-.68 1.5-1.5 1.5z"/><g fill="#FFF"><path d="M18.17 29.39c-.3-.23-1.26-.9-2.67-.91-1.44-.01-2.43.68-2.73.91-.09.69-.27 2.09-.27 2.09s-.02 2.31-.02 3.69h6.01l-.01-3.78-.31-2z"/><path d="M13.33 34.71h.9v1.38h-.9zM16.79 34.71h.9v1.38h-.9z"/></g><g fill="#00B0FF"><path d="M13.3 30.01h4.38v2.56H13.3zM13.3 33.47h.91v.84h-.91zM16.79 33.47h.91v.84h-.91z"/></g><g><path fill="#C1C1C1" d="M30.08 15.46h-6.71c-.86 0-1.55-.7-1.55-1.55V7.04c0-.86.7-1.55 1.55-1.55h6.71c.86 0 1.55.7 1.55 1.55v6.86c0 .86-.69 1.56-1.55 1.56z"/><path fill="#00B0FF" d="M30.08 15.02h-6.71c-.86 0-1.55-.7-1.55-1.55V6.6c0-.86.7-1.55 1.55-1.55h6.71c.86 0 1.55.7 1.55 1.55v6.86c0 .86-.69 1.56-1.55 1.56z"/><text fill="#FFF" transform="translate(22.978 13.097)" font-family="'Roboto-Bold'" font-size="8.6272">M</text></g><path fill="#C5C9DA" d="M17.89 14.43l-3.07-1.89-.04 1.46-3-.08-.03.99 3 .09-.03 1.15"/></svg>
