<svg xmlns="http://www.w3.org/2000/svg" width="40" height="40" xmlns:xlink="http://www.w3.org/1999/xlink" viewBox="0 0 40 40"><defs><path id="a" d="M22.02.12l.31.03C33.22 1.36 41.08 11.24 39.87 22.2c-1.2 10.97-11.01 18.88-21.9 17.67l-.31-.03C6.77 38.63-1.08 28.76.12 17.79S11.13-1.09 22.02.12z"/></defs><clipPath id="b"><use xlink:href="#a" overflow="visible"/></clipPath><g clip-path="url(#b)"><path fill="#8E8454" d="M39.28 14.65c2.91 10.64-3.29 21.64-13.85 24.57l-.3.08C14.57 42.23 3.64 35.99.73 25.35-2.19 14.72 4.01 3.71 14.57.78l.3-.08c10.57-2.94 21.5 3.31 24.41 13.95z"/><path fill="#C1C9B9" d="M14.88.7l-.3.08C4.01 3.71-2.19 14.72.72 25.35c2.91 10.64 13.84 16.88 24.4 13.95l.3-.08c10.56-2.93 16.77-13.94 13.85-24.57C36.37 4.01 25.44-2.24 14.88.7z"/><path fill="none" d="M1.42 27.44c-.15-.39-.29-.78-.42-1.18M7.39 7.67L9 3.39s.06-.07.15-.18c-.88.56-1.7 1.2-2.47 1.89l.64 2.59.07-.02z"/><path fill="none" d="M18.31.07l-.58.61 1.19 4.13s6.18-2.72 6.63-2.87c.45-.15.07 6.54.07 6.54l-1.97.56-1.76 1.74-4.52.89-2.83 1.26-2.68 4.79-2.45 1.38-.5 2.58-1.56 1.84-3.62.85-2.74 1.89c.13.4.27.79.42 1.18l1.49-.21 3.55-1.57 3.94-.37 5.64-2.09s7.96-.9 8.26-.99c.3-.1-1.46 4.78-1.46 4.78l-2.39-.31s-2.9-1.05-3.3-1c-.4.05-4.47 1.04-4.47 1.04l-.6.7-1.47-.19-1.16 1.04-2.04.83 2.88 1.23 4.3-1.07 2.11-2.19 2.74.28 3.44 1.86-4.05 2.68-3.74.47-4.14.01-.81-.99-2.26-.6-.07 1.61-2.18.96 2.97 1.47 1.52 2.63c4.41 2.5 9.76 3.32 15.02 1.86l.3-.08C35.99 36.3 42.2 25.29 39.28 14.66 36.68 5.16 27.71-.83 18.31.07z"/><path fill="#A2A79B" d="M5.62 33.35l2.18-.96.06-1.61 2.26.6.81.99 8.38-.7 3.56-2.46-3.44-1.86-2.74-.28-2.11 2.19-4.3 1.07L7.4 29.1l2.05-.84 1.16-1.04 1.47.19.6-.7s4.07-.99 4.47-1.04c.4-.05 3.3 1 3.3 1l2.39.31s1.76-4.88 1.46-4.78c-.3.1-8.26.99-8.26.99l-5.64 2.09-3.94.37-3.55 1.57-1.49.21c1.72 4.36 4.84 7.83 8.69 10.01l-1.52-2.63-2.97-1.46zM.72 25.35c.08.31.18.61.27.9l8.47-5.09 5.09-8.24L25 7.9l.56-5.97-6.64 2.87L17.73.67l.58-.61c-1.14.11-2.29.31-3.43.63l-.3.08c-1.97.55-3.79 1.37-5.42 2.43-.1.12-.16.19-.16.19L7.39 7.67l-.07.02-.64-2.59C1.2 10-1.36 17.77.72 25.35z"/><g><path fill="none" d="M16.64 37.17l2.11-4.27s3.14-2.35 3.51-2.47c.37-.12.3-2.1.3-2.1l1.37-1.34 3.2-14.72-1.53-5.5L24.29.42c-3.02-.65-6.24-.61-9.42.28l-.3.08C4.01 3.71-2.19 14.72.72 25.35 2.69 32.53 8.3 37.7 14.98 39.41l.51-.85 1.15-1.39z"/><path fill="#80837C" d="M25.43 39.22c10.56-2.93 16.77-13.94 13.85-24.57C37.24 7.21 31.3 1.93 24.29.42l1.31 6.35 1.53 5.5-3.2 14.72-1.37 1.34s.08 1.98-.3 2.1c-.37.12-3.51 2.47-3.51 2.47l-2.11 4.27-1.14 1.39-.51.85c3.23.83 6.7.85 10.14-.11l.3-.08z"/></g><g><path fill="#71756C" d="M31.13 36.63l.07-.08c-.03.02-.05.04-.08.05l.01.03z"/><path fill="none" d="M34.52 29.69l.17.92c-.94-.22-2.1-.46-2.1-.46s-5.64.5-5.89.5 1.36 1.64 1.36 1.64l1.1 2.9-.34 2.03 2.07-.45c.08-.05.16-.11.24-.16l-.38-2.93 2.12-.36s.76-1.25.99-1.57c0 0 .48-.23.97-.44l.33 1.75c1.2-1.39 2.19-2.94 2.97-4.6l-.77-.01-2.84 1.24zM26.54 23.7c-.25.25-.31 3.69-.31 3.69l.8-.34c.45-.15 4.31-.13 4.31-.13s-4.55-3.47-4.8-3.22zM36.14 21.07l-6.83-.36 1.49 1.02 3.16.3 4.53.94s-3.65.77-3.87.84 1.76 1.35 1.76 1.35 1.75-.33 3.08-.57c.26-1.08.42-2.18.5-3.3l-.45.18-3.37-.4zM35.2 16.62s-6.31-1.86-6.54-2.04c-.22-.18.02 3.41.02 3.41l1.28 1.92s3.87-.84 4.35-1.17c.48-.32 1.63-.61 1.63-.61l3.66.56.34-.27c-.05-.58-.11-1.17-.21-1.76l-3.49-.96-1.04.92zM33.13 4.85c-.47-.41-.96-.8-1.47-1.16l-1.49.14 2.96 1.02zM16.5 34.47l1.22-2.65 1.55-.59 2.56-2.59 1.03-3.25.75-3.08-.69-.61 1.29-2.67-.66-1.03 2.2-3.47-.89-.71 1.22-3.29-1.57-1.41-1.45-.39 1.23-6.24-1.23.57.05-2.69.02-.17c-.94-.14-1.9-.22-2.87-.23l-1.04 1.17-.18 3.56-2.38 3.94s1.12-.12 1.32-.26c.2-.15-1.27 3-1.27 3l-3.14 3.36-3.94 5.54-4.78-.44 1.23-1.57 2.02.34-.4-2.29 2.08-1.26.29-2.18 1.54-1.92-.5-2.84 2.49-5.15-.15-1.84c-2.48.85-4.69 2.15-6.57 3.79l.51 2.78-1.22 3.12-2.54 5.5-2.03 4-1.37-3.25c-.4 2.69-.27 5.5.49 8.29 1.88 6.85 7.09 11.88 13.38 13.8l1.2-.71 1.2-3.98z"/><path fill="none" d="M4.65 10.48l1.18-3.3-.33-.94C3.28 8.59 1.65 11.45.77 14.56l1.92.89 1.96-4.97zM31.2 36.55l.09-.06-.05.02-.04.04zM28.59 8.93l2.95-.63 3.36.16s.45-.36.94-.74c-.21-.28-.43-.55-.66-.81l-2.16.08-4.43 1.94zM36.75 13.2l-2.46 1.89s2.15-.78 2.4-.78c.09 0 .35-.11.66-.25l1.9.52c-.44-1.58-1.06-3.06-1.82-4.43l-.28 2.41c-.23.36-.4.64-.4.64z"/><path fill="#71756C" d="M33.85 31.74c-.23.32-.99 1.57-.99 1.57l-2.12.36.38 2.93c.03-.02.05-.04.08-.05l.04-.04.05-.02c1.44-.98 2.73-2.14 3.85-3.44l-.33-1.75c-.48.21-.96.44-.96.44z"/><path fill="#71756C" d="M39.6 18.69l-3.66-.56s-1.15.29-1.63.61-4.35 1.17-4.35 1.17l-1.28-1.92s-.24-3.59-.02-3.41c.22.18 6.54 2.04 6.54 2.04l1.03-.92 3.49.96c-.11-.67-.26-1.34-.44-2.02-.01-.03-.02-.05-.02-.08l-1.9-.52c-.31.15-.57.25-.66.25-.25 0-2.4.78-2.4.78l2.46-1.89s.17-.28.4-.65l.28-2.41c-.48-.85-1.01-1.65-1.59-2.41-.5.39-.95.75-.95.75l-3.36-.16-2.95.63 4.43-1.94 2.16-.08c-.64-.74-1.32-1.43-2.05-2.07l-2.95-1.02 1.49-.14C29.15 1.87 26.23.67 23.13.2l-.02.17-.05 2.69 1.23-.57-1.23 6.24 1.45.39 1.57 1.41-1.22 3.29.89.71-2.2 3.47.66 1.03-1.29 2.67.69.61-.75 3.08-1.03 3.25-2.56 2.59-1.55.59-2.43 6.63-1.2.71c3.47 1.06 7.27 1.18 11.02.14l.3-.08c1.99-.55 3.82-1.39 5.46-2.45l-2.07.45.34-2.03-1.1-2.9s-1.61-1.65-1.36-1.64c.25 0 5.89-.5 5.89-.5s1.16.25 2.1.46l-.17-.92 2.83-1.25.77.01c.57-1.23 1.03-2.52 1.34-3.85-1.33.24-3.08.57-3.08.57s-1.98-1.27-1.76-1.35 3.87-.84 3.87-.84l-4.53-.94-3.16-.3-1.49-1.02 6.83.36 3.36.41.45-.18c.06-.95.06-1.91-.02-2.88l-.31.26zm-12.56 8.35l-.8.34s.05-3.44.31-3.69c.25-.25 4.81 3.21 4.81 3.21s-3.87-.01-4.32.14zM11.1 8.12l.5 2.84-1.54 1.92-.29 2.18-2.08 1.26.4 2.29-2.02-.34-1.23 1.57 4.78.44 3.94-5.54 3.14-3.36 1.27-3-1.32.26 2.38-3.94.18-3.56 1.04-1.17c-1.78-.01-3.58.22-5.38.72l-.3.08c-.38.11-.76.23-1.13.36l.15 1.84-2.49 5.15zM3.63 16.32l2.54-5.5L7.39 7.7l-.52-2.78c-.48.42-.94.86-1.37 1.32l.33.93-1.18 3.3-1.96 4.98-1.92-.89c-.23.82-.41 1.65-.54 2.5l1.37 3.25 2.03-3.99z"/></g><g><path fill="#DDD" d="M30.4 37.05c2.18-1.33 4.05-3.04 5.55-5.03-.27-2.36-1.68-4.29-3.07-6.16-.88-1.19-1.79-2.41-2.35-3.69-.95-2.15-.64-3.8-.29-5.71.14-.77.29-1.56.33-2.37.23-4.24-2.23-7.26-4.75-7.72-.3-.05-.59-.08-.88-.08-1.83 0-3.14 1.06-4.2 1.92-.39.32-.76.61-1.07.79-.39.22-1.03.33-1.71.44-1.31.23-2.76.47-3.95 1.56-1.05.97-1.57 2.39-2.07 3.77-.3.82-.6 1.66-.99 2.27-.87 1.37-2.64 3.38-3.78 4.07-.38.23-1.32.46-2.15.65-1.09.26-2.33.56-3.31 1.07-.51.27-.97.63-1.35.95.1.52.2 1.05.35 1.57.17.62.37 1.23.6 1.82l.14-.13c.67-.62 1.26-1.15 1.74-1.4.62-.33 1.61-.56 2.56-.79 1.17-.28 2.25-.54 3.04-1.02 1.61-.98 3.72-3.35 4.81-5.08.57-.9.94-1.91 1.29-2.89.35-.97.75-2.07 1.23-2.52.5-.46 1.38-.6 2.31-.76.88-.15 1.88-.31 2.76-.81.54-.31 1.03-.7 1.5-1.08.92-.74 1.56-1.22 2.24-1.22.1 0 .2.01.3.03.83.15 2.32 1.61 2.16 4.42-.03.61-.16 1.27-.29 1.96-.37 2.02-.84 4.53.5 7.58.71 1.61 1.72 2.98 2.71 4.3 1.25 1.68 2.42 3.26 2.5 4.85.05.91-.82 2.23-1.77 3.52l-.64.92z"/><path fill="#FFF" fill-rule="evenodd" d="M30.11 22.35c-1-2.28-.67-4.07-.32-5.97.14-.75.28-1.53.33-2.31.22-3.99-2.05-6.82-4.38-7.25-.28-.05-.55-.08-.8-.08-1.67 0-2.9 1-3.92 1.82-.4.33-.78.63-1.13.83-.46.26-1.15.38-1.88.5-1.22.21-2.6.44-3.69 1.44-.97.89-1.47 2.27-1.95 3.59-.3.84-.62 1.71-1.03 2.36-.92 1.44-2.71 3.48-3.93 4.21-.44.27-1.38.49-2.27.71-1.12.27-2.28.55-3.2 1.03-.51.27-.99.64-1.47 1.06.08.35.16.71.26 1.06.13.46.27.91.43 1.36.66-.61 1.29-1.18 1.84-1.47.67-.36 1.69-.6 2.67-.83 1.12-.27 2.17-.52 2.91-.97 1.56-.94 3.6-3.25 4.67-4.94.54-.85.9-1.84 1.25-2.8.39-1.07.79-2.18 1.35-2.7.59-.55 1.54-.71 2.54-.87.89-.15 1.81-.31 2.61-.76.51-.29.98-.67 1.44-1.04.99-.8 1.7-1.32 2.52-1.32.12 0 .25.01.38.04 1.12.21 2.7 1.9 2.53 4.89-.04.63-.16 1.31-.29 2.02-.36 1.96-.82 4.39.47 7.31.69 1.57 1.69 2.91 2.66 4.22 1.29 1.73 2.5 3.37 2.59 5.09.05 1.07-.85 2.44-1.85 3.81 1.55-1.08 2.93-2.38 4.1-3.83v-.05-.05c-.12-2.42-1.6-4.41-3.03-6.34-.9-1.2-1.82-2.44-2.41-3.77z" clip-rule="evenodd"/></g></g></svg>