<?xml version="1.0" encoding="UTF-8" standalone="no"?>
<svg width="20px" height="22px" viewBox="0 0 20 22" version="1.1" xmlns="http://www.w3.org/2000/svg" xmlns:xlink="http://www.w3.org/1999/xlink">
    <!-- Generator: Sketch 41.2 (35397) - http://www.bohemiancoding.com/sketch -->
    <title>directions-final-taxi-icon-18px</title>
    <desc>Created with Sketch.</desc>
    <defs></defs>
    <g id="v2-explorations" stroke="none" stroke-width="1" fill="none" fill-rule="evenodd">
        <g id="mvp-copy-3" transform="translate(-293.000000, -371.000000)" fill="#FFFFFF">
            <g id="more-map">
                <g id="3-copy-19">
                    <g id="Group-21-Copy-3">
                        <g id="mock_explore-copy-20">
                            <g id="tabSheet_explore" transform="translate(0.000000, 306.000000)">
                                <g id="row2" transform="translate(8.000000, 10.000000)">
                                    <g id="Group-9-Copy-3" transform="translate(37.000000, 40.000000)">
                                        <g id="Screen-Shot-2016-06-15-at-1.23.09-PM" transform="translate(233.000000, 0.000000)">
                                            <g id="directions-final-taxi-icon-18px" transform="translate(15.000000, 15.000000)">
                                                <g id="Group" transform="translate(3.750000, 0.000000)">
                                                    <path d="M6.5,5 C5.25,5 4.25,4 4.25,2.75 C4.25,1.5 5.25,0.5 6.5,0.5 C7.75,0.5 8.75,1.625 8.75,2.75 C8.75,3.875 7.75,5 6.5,5 L6.5,5 Z" id="Shape"></path>
                                                    <path d="M0,13.75 L0,13.5 C0,0.125 8.25,12 14.875,1.25 L16.25,3.125 C14.75,5.125 13.125,7 10,8.375 L10,21.25 L7.5,21.25 L7.5,13.75 L6.25,13.75 L6.25,21.25 L3.75,21.25 L3.75,8.75 C2.5,8.625 2.5,13.75 2.5,13.75 L0,13.75 L0,13.75 Z" id="Shape"></path>
                                                </g>
                                                <polygon id="Shape" points="0 15 0 21.25 6.25 21.25 6.25 15"></polygon>
                                            </g>
                                        </g>
                                    </g>
                                </g>
                            </g>
                        </g>
                    </g>
                </g>
            </g>
        </g>
    </g>
</svg>