<svg xmlns="http://www.w3.org/2000/svg" height="40" version="1.0" viewBox="0 0 1136 40" width="136"><linearGradient gradientTransform="matrix(-1,0,0,-1,-823,62)" gradientUnits="userSpaceOnUse" id="d" x1="-869" x2="-852" y1="5.09" y2="5.09"><stop offset="0" style="stop-color:#FFFFFF"/><stop offset="1" style="stop-color:#DFE1E5"/></linearGradient><polygon points="43.34 40.0 43.34 39.1 26.44 39.1 26.44 40.0" fill="url(#d)"/><rect height="8.84" fill="#eff0f2" width="18.4" x="3.81e-8" y="31.1"/><polygon points="0.0 31.1 4.35 20.1 22.74 20.1 18.44 31.1" fill="#dfe1e5"/><polygon points="22.64 20.0 26.64 31.1 26.64 40.0 18.44 40.0 18.44 31.1" fill="#cdd0d5"/><rect height="6.43" fill="#34a853" width="2.2" x="8.14" y="33.5"/><rect height="18.4" fill="#eff0f2" width="18.4" x="99" y="21.6"/><polygon points="99.04 21.6 103.04 12.8 122.04 12.8 117.04 21.6" fill="#dfe1e5"/><polygon points="122.04 12.8 126.04 21.6 126.04 40.0 117.04 40.0 117.04 21.6" fill="#cdd0d5"/><rect height="6.41" fill="#df382b" width="2.19" x="107" y="33.6"/><linearGradient gradientTransform="matrix(-1,0,0,-1,-823,62)" gradientUnits="userSpaceOnUse" id="e" x1="-959" x2="-951" y1="5.08" y2="5.08"><stop offset="0" style="stop-color:#FFFFFF"/><stop offset="1" style="stop-color:#DFE1E5"/></linearGradient><polygon points="133 40.0 133 39.1 126.04 39.1 126.04 40.0" fill="url(#e)"/><polyline points="69.14 39.5 45.84 39.5 45.84 11.3 69.14 11.3 69.24 39.7" fill="#ffffff"/><polygon points="74.24 0.0 79.44 11.3 79.44 40.0 69.14 40.0 69.14 11.3" fill="#ffffff"/><polyline points="58.84 39.5 58.84 31.8 56.14 31.8 56.14 39.5" fill="#fabb05"/><linearGradient gradientTransform="matrix(-1 0 0 -1 -825 59.6)" gradientUnits="userSpaceOnUse" id="f" x1="-923" x2="-904" y1="5.21" y2="5.21"><stop offset="0" style="stop-color:#FFFFFF"/><stop offset="1" style="stop-color:#DFE1E5"/></linearGradient><rect height="1.14" fill="url(#f)" width="19" x="78.9" y="38.8"/><polygon points="52.64 0.0 45.84 11.3 69.24 11.3 74.24 0.0" fill="#ffffff"/><path d="m74.2 2.2 4.34 9.31v27.6h-8.5v-27.6l4.2-9.3m0-2.2-5.11 11.3v28.7h10.4v-28.7l-5.3-11.3z" fill="#cdd0d5"/><path d="m72.4 4.7c-.171 0-.335.098-.411.265 0 0-.026.057-.068.15h.1v.001l-.002.005c-.001.0010-.001.002-.002.004l-.001.002c0 .001-.001.001-.001.001v.001c0 .0010-.0010.002-.0010.003v.0010c0 .001-.001.001-.001.002l-.667 1.47c-.101.226-.0010.492.225.595.06.027.124.04.186.04.171 0 .335-.098.411-.265l.744-1.64c.2-.21.1-.48-.2-.58 0-.1-.1-.1-.1-.1zm-2.3 4.9c-.172 0-.335.098-.411.265l-.641 1.42v.25c0 .249.202.45.451.45s.451-.202.451-.451v-.1l.561-1.24c.103-.227.002-.494-.224-.597h-.4zm-.6 5.1c-.249 0-.451.202-.451.451v1.8c.001.248.202.449.451.449s.451-.202.451-.451v-1.8c0-.2-.2-.4-.5-.4zm0 5.4c-.249 0-.451.202-.451.451v1.8c0 .249.202.451.451.451s.451-.202.451-.451v-1.8c0-.3-.2-.5-.5-.5zm0 5.4c-.249 0-.45.201-.451.45v1.8c0 .249.202.451.451.451s.451-.202.451-.451v-1.8c0-.3-.2-.5-.5-.5zm0 5.4c-.248 0-.45.201-.451.449v1.81c.001.248.202.45.451.45s.451-.202.451-.451v-1.8c0-.2-.2-.4-.5-.4zm0 5.4c-.249 0-.451.202-.451.451v1.8c.001.248.202.449.451.449s.451-.202.451-.451v-1.8c0-.2-.2-.4-.5-.4zm3.6 2.8h-1.8c-.249 0-.451.202-.451.451s.202.451.451.451h1.8c.249 0 .451-.202.451-.451 0-.3-.2-.5-.5-.5zm5.4 0h-1.8c-.249 0-.451.202-.451.451s.202.451.451.451h1.8c.249 0 .451-.202.451-.451s-.2-.5-.5-.5zm.5-4.1c-.249 0-.451.202-.451.451v1.8c0 .249.202.451.451.451s.451-.202.451-.451v-1.8c-.1-.3-.3-.5-.5-.5zm0-5.4c-.249 0-.451.202-.451.451v1.8c0 .249.202.451.451.451s.451-.202.451-.451v-1.81c-.1-.3-.3-.5-.5-.5zm0-5.4c-.249 0-.451.202-.451.451v1.8c0 .249.202.451.451.451.248 0 .45-.201.451-.449v-1.96c-.1-.3-.3-.5-.5-.5zm0-5.4c-.249 0-.451.202-.451.451v1.8c0 .249.202.451.451.451s.451-.202.451-.451v-1.8c-.1-.4-.3-.6-.5-.6zm0-5.4c-.249 0-.451.202-.451.451v1.8c0 .249.202.451.451.451s.451-.202.451-.451v-1.8c-.1-.3-.3-.5-.5-.5zm-1.2-5c-.064 0-.129.014-.19.042-.226.105-.323.373-.218.599l.762 1.63c.076.164.239.26.409.26.064 0 .129-.014.19-.042.226-.105.323-.373.218-.599l-.004-.008-.759-1.63c-.1-.2-.2-.3-.4-.3zm-2.3-4.9c-.064 0-.129.014-.19.042-.226.105-.323.373-.218.599l.762 1.63c.076.164.239.26.409.26.064 0 .129-.014.19-.042.225-.105.323-.372.219-.597l-.4-.88v-.01s0-.001-.001-.001c-.2-.38-.4-.74-.4-.74-.1-.2-.3-.3-.5-.3zm-1.3-3.5-.4 1.03c-.15.331-.278.613-.278.613-.103.227-.002.494.224.597.06.027.124.04.186.04.171 0 .335-.098.411-.265l.425-.938-.4-1z" fill="#eff0f2"/><g stroke-miterlimit="10" style="stroke-width:.901;stroke-miterlimit:10;fill:none"><polyline points="74.24 0.5 52.64 0.5 45.84 11.0" style="stroke:#dfe1e5"/><polyline points="69.74 11.3 45.84 11.3 45.84 39.4 70.64 39.5" style="stroke:#dfe1e5"/><polyline points="69.74 11.3 45.84 11.3 45.84 39.4 70.64 39.5" style="stroke-linejoin:round;stroke:#cdd0d5;stroke-linecap:round;stroke-dasharray:1.8028, 3.6056"/><polyline points="74.24 0.5 52.64 0.5 45.84 11.0" style="stroke-linejoin:round;stroke:#cdd0d5;stroke-linecap:round;stroke-dasharray:1.8028, 3.6056"/></g></svg>
