<?xml version="1.0" encoding="utf-8"?>
<svg version="1.0" id="Layer_1" xmlns="http://www.w3.org/2000/svg" xmlns:xlink="http://www.w3.org/1999/xlink" x="0px" y="0px"
	 width="124" height="124" viewBox="0 0 124 124" enable-background="new 0 0 124 124" xml:space="preserve">
<g id="XMLID_15_">
	<circle id="XMLID_67_" fill="#3367D6" cx="62" cy="62" r="62"/>
	<g id="XMLID_25_">
		<g id="XMLID_30_">
			
				<rect id="XMLID_66_" x="78.272" y="25.561" transform="matrix(0.9086 0.4176 -0.4176 0.9086 19.8006 -31.5563)" fill="#82B1FF" width="7.495" height="7.827"/>
			<path id="XMLID_65_" opacity="0.7" fill="#FFFFFF" d="M83.123,41.57l3.157-6.869c0.59-1.285,0.028-2.805-1.257-3.395
				l-6.349-2.918c-1.285-0.59-2.805-0.028-3.395,1.257l-3.157,6.869c-3.907-0.649-7.918,1.351-9.651,5.123L40.739,88.926
				c-2.076,4.518-0.097,9.864,4.421,11.94l6.689,3.074c4.518,2.076,9.864,0.097,11.94-4.421L85.521,52.23
				C87.254,48.459,86.16,44.112,83.123,41.57z"/>
			<g id="XMLID_49_">
				<path id="XMLID_64_" fill="#3367D6" d="M76.013,42.608c-0.888-0.48-2.058-1.209-2.925-1.791l-1.794,4.202
					c0.84,0.526,1.812,1.051,2.87,1.538c3.764,1.73,7.192,2.311,7.657,1.299S79.842,44.678,76.013,42.608z"/>
				<path id="XMLID_63_" fill="#7BAAF7" d="M78.414,45.603c-0.982-0.623-2.416-1.441-3.537-2.027
					c-3.661-1.912-6.374-2.629-6.786-1.732c-0.412,0.897,2.324,3.035,6.088,4.765c1.149,0.528,1.958,1.188,3.06,1.549L78.414,45.603
					z"/>
				<path id="XMLID_61_" fill="#4285F4" d="M74.168,46.559c-3.764-1.73-6.433-3.95-5.968-4.962L44.945,92.201l-0.006-0.003
					c0,0-0.016,0.029-0.021,0.038c-0.465,1.012,2.206,3.24,5.97,4.97c3.764,1.73,7.196,2.303,7.661,1.291
					c0.004-0.009,0.015-0.037,0.014-0.037l0.003,0.001l23.256-50.605C81.356,48.868,77.932,48.288,74.168,46.559z"/>
				<path id="XMLID_2_" fill="#3367D6" d="M63.258,52.362c0.161-0.201,2.588,0.003,3.62,1.647s0.681,0.655,1.005,1.148
					s3.442,3.276,3.588,4.306c0.146,1.03-0.943,3.838-1.435,4.162s-4.023,1.419-4.786,2.031s-2.614,2.994-2.459,4.304
					c0.155,1.309-0.212,6.299-0.272,7.028s-2.381,4.133-3.778,4.179c-1.397,0.046-1.36-3.926-2.675-4.806
					c-1.315-0.88-2.063-4.043-2.063-4.043L63.258,52.362z M64.617,85.263c-0.889,0.753-3.487,3.124-4.493,3.12
					s-1.531,0.488-2.696,0.228s-2.529-0.899-2.983-1.108s-1.991,0.323-3.66,0.377c-0.559,0.018,2.826,2.514,3.66,4.252
					c1.19,2.48,4.547,3.473,5.128,4.054c0.044,0.044,1.661-3.533,1.661-3.533L64.617,85.263z"/>
			</g>
			<g id="XMLID_1_">
				<path id="XMLID_21_" fill="#EE4637" d="M71.845,51.068c-1.867-0.908-4.116-0.13-5.023,1.737
					c-1.238,2.547,0.961,5.258-0.471,9.055c-0.04,0.106,0.009,0.227,0.113,0.277s0.229,0.014,0.288-0.083
					c2.102-3.472,5.593-3.417,6.831-5.963C74.489,54.225,73.712,51.975,71.845,51.068z"/>
				<circle id="XMLID_9_" fill="#8F1F1D" cx="70.202" cy="54.448" r="1.315"/>
				<path id="XMLID_32_" fill="#FF8A80" d="M71.711,51.344c1.813,0.881,2.598,3.028,1.81,4.861c0.02-0.038,0.042-0.075,0.061-0.115
					c0.908-1.867,0.13-4.116-1.737-5.023c-1.867-0.908-4.116-0.13-5.023,1.737c-0.019,0.039-0.035,0.079-0.053,0.118
					C67.724,51.171,69.898,50.463,71.711,51.344z"/>
			</g>
		</g>
		<path id="XMLID_27_" opacity="0.8" fill="#E8F0FE" d="M79.742,39.804c-0.221-0.128-0.494-0.266-0.731-0.373l-5.333-2.413
			c-0.507-0.229-1.025-0.403-1.547-0.526l-0.01,0.022c-3.907-0.649-7.918,1.351-9.651,5.123L54.129,59.79
			c-0.052,0.149-0.068,0.222-0.04,0.201C63.047,53.586,63.795,31.873,79.742,39.804z"/>
		<path id="XMLID_26_" fill="#7BAAF7" d="M45.16,100.866l6.689,3.074c4.518,2.076,9.864,0.097,11.94-4.421l8.484-18.462
			c-8.518,3.487-6.472,28.03-27.66,19.533C44.792,100.687,44.973,100.78,45.16,100.866z"/>
	</g>
	<path id="XMLID_23_" opacity="0.6" fill="#7BAAF7" d="M121.346,68.832c-4.61,0-8.499,4.168-13.425,5.168h-2.224
		c-4.432-1-7.906-5.167-12.769-5.167c-4.61,0-8.499,4.167-13.425,5.167h-2.439c-4.432-1-7.906-5.167-12.769-5.167
		c-4.61,0-8.499,4.167-13.425,5.167h-2.654c-4.432-1-7.906-5.167-12.769-5.167c-4.61,0-8.499,4.167-13.425,5.167h-2.439
		c-4.432-1-7.906-5.168-12.769-5.168c-2.154,0-4.151,0.948-6.169,1.998c0.319,2.22,0.745,4.432,1.293,6.57
		c0.024,0.093,0.051,0.198,0.075,0.291c0.204,0.781,0.427,1.561,0.66,2.33c0.114,0.373,0.234,0.748,0.355,1.118
		c0.143,0.44,0.292,0.879,0.444,1.315c0.208,0.588,0.419,1.175,0.643,1.755c0.054,0.139,0.11,0.278,0.164,0.417
		c5.111,12.9,14.495,23.824,26.428,30.89c0.309,0.181,0.62,0.36,0.933,0.537c0.382,0.217,0.766,0.432,1.152,0.641
		C41.496,121.352,51.438,124,62,124s20.504-2.648,29.208-7.306c0.387-0.209,0.771-0.424,1.152-0.641
		c0.313-0.176,0.624-0.355,0.933-0.536c11.933-7.065,21.318-17.99,26.428-30.89c0.055-0.139,0.111-0.277,0.164-0.416
		c0.225-0.58,0.436-1.167,0.643-1.754c0.152-0.436,0.302-0.873,0.444-1.313c0.121-0.37,0.241-0.742,0.355-1.115
		c0.233-0.769,0.456-1.542,0.66-2.323c0.024-0.093,0.051-0.184,0.075-0.277c0.683-2.667,1.179-5.46,1.503-8.253
		C122.855,68.996,122.119,68.832,121.346,68.832z"/>
	<path id="XMLID_24_" opacity="0.7" fill="#4285F4" d="M62,124c14.41,0,27.66-4.929,38.188-13.175
		c-1.429-0.817-2.851-1.798-4.571-1.798c-2.692,0-4.963,2.974-7.839,2.974h-1.298c-2.588,0-4.616-3.017-7.456-3.017
		c-2.692,0-4.963,3.017-7.839,3.017h-1.424c-2.588,0-4.616-3.017-7.456-3.017c-2.692,0-4.963,3.017-7.839,3.017h-1.55
		c-2.588,0-4.616-3.017-7.456-3.017c-2.692,0-4.963,3.017-7.839,3.017h-1.424c-2.588,0-4.616-2.785-7.456-2.785
		c-1.623,0-3.094,0.946-4.635,1.785C34.584,119.109,47.723,124,62,124z"/>
	<path id="XMLID_20_" fill="#BBDEFB" d="M64.809,10.598l0.421,2.555c0.014,0.084,0.08,0.15,0.164,0.164l2.555,0.421
		c0.223,0.037,0.223,0.357,0,0.393l-2.555,0.421c-0.084,0.014-0.15,0.08-0.164,0.164l-0.421,2.555c-0.037,0.223-0.357,0.223-0.393,0
		l-0.421-2.555c-0.014-0.084-0.08-0.15-0.164-0.164l-2.555-0.421c-0.223-0.037-0.223-0.357,0-0.393l2.555-0.421
		c0.084-0.014,0.15-0.08,0.164-0.164l0.421-2.555C64.452,10.375,64.772,10.375,64.809,10.598z"/>
	<path id="XMLID_19_" fill="#BBDEFB" d="M15.498,39.535l0.483,2.935c0.016,0.097,0.092,0.173,0.189,0.189l2.935,0.483
		c0.256,0.042,0.256,0.41,0,0.452l-2.935,0.483c-0.097,0.016-0.173,0.092-0.189,0.189L15.498,47.2c-0.042,0.256-0.41,0.256-0.452,0
		l-0.483-2.935c-0.016-0.097-0.092-0.173-0.189-0.189l-2.935-0.483c-0.256-0.042-0.256-0.41,0-0.452l2.935-0.483
		c0.097-0.016,0.173-0.092,0.189-0.189l0.483-2.935C15.089,39.279,15.456,39.279,15.498,39.535z"/>
	<path id="XMLID_18_" fill="#BBDEFB" d="M106.464,37.59l0.617,3.744c0.02,0.124,0.117,0.22,0.241,0.241l3.744,0.617
		c0.326,0.054,0.326,0.523,0,0.576l-3.744,0.617c-0.124,0.02-0.22,0.117-0.241,0.241l-0.617,3.744c-0.054,0.326-0.523,0.326-0.576,0
		l-0.617-3.744c-0.02-0.124-0.117-0.22-0.241-0.241l-3.744-0.617c-0.326-0.054-0.326-0.523,0-0.576l3.744-0.617
		c0.124-0.02,0.22-0.117,0.241-0.241l0.617-3.744C105.941,37.264,106.41,37.264,106.464,37.59z"/>
	<path id="XMLID_17_" fill="#BBDEFB" d="M37,54.221l0.586,3.561c0.019,0.118,0.111,0.21,0.229,0.229l3.561,0.586
		c0.31,0.051,0.31,0.497,0,0.548l-3.561,0.586c-0.118,0.019-0.21,0.111-0.229,0.229L37,63.522c-0.051,0.31-0.497,0.31-0.548,0
		l-0.586-3.561c-0.019-0.118-0.111-0.21-0.229-0.229l-3.561-0.586c-0.31-0.051-0.31-0.497,0-0.548l3.561-0.586
		c0.118-0.019,0.21-0.111,0.229-0.229l0.586-3.561C36.503,53.911,36.949,53.911,37,54.221z"/>
	<path id="XMLID_16_" fill="#FFFFFF" d="M33.234,29.485c-2.973-2.973-3.311-7.581-1.019-10.928c-0.433,0.296-0.845,0.634-1.23,1.019
		c-3.357,3.357-3.357,8.8,0,12.158s8.8,3.357,12.158,0c0.384-0.384,0.722-0.797,1.019-1.23
		C40.815,32.796,36.207,32.458,33.234,29.485z"/>
</g>
</svg>
