<svg xmlns="http://www.w3.org/2000/svg" width="344" height="86" viewBox="0 0 344 86"><path fill="#F1F1F1" d="M0 86V36.2h41.2V25.5h34.4v10.3l7.5 5.3V14.8h24.7v12h34.3v20.8h10.7v-6.7h3.9v-7.7l14.7-13.4h15.4l14.5 12.5v8.3h7.9V22.4h19.5v-8.8h41.4v17.8H282V16.7h21.7v33.6l40.3.03V86"/><path fill="#71B366" d="M.1 70.3h22.7S61 72.6 69 72.1s44.7-1.5 55-1.5 57.8.5 75.1 1 53.7-2 73.8-1.8c20.1.3 59 1.8 59 1.8H344V86H0l.1-15.7z"/><path fill="#7CB342" d="M65.1 66.3c-9.4 0-11.1-12.1-6.2-24.4 1.4-3.6 0-4.4 1.4-8.8s7.2-5.5 9.5-.1c2.8 6.8 1.3 6.1 3.3 13.2 2.5 8.8 2.3 20.1-8 20.1z"/><path fill="#33691E" d="M69.3 51.7l-.6-.5-2.8 2.1-.2-12.4h-.8l-.2 7-2.2-1.7-.3.3 2.5 2.4-.3 11.8-3.3-2.7-.5.8 3.8 4.1-.3 12.9h2.3L66 55.2"/><path fill="#8BAF31" d="M269.6 66.9c-10.6 0-12.5-13.6-6.9-27.5 1.6-4 0-4.9 1.6-9.9s8.1-6.2 10.7-.2c3.2 7.7 1.5 6.9 3.7 14.8 2.7 10.1 2.5 22.8-9.1 22.8z"/><path fill="#33691E" d="M274.3 50.5l-.6-.6-3.1 2.4-.3-14h-.9l-.2 7.9-2.5-1.9-.3.4 2.8 2.6-.3 13.3-3.8-3-.6.9 4.3 4.6-.3 14.6h2.6l-.5-23.3"/><g fill="#6D4C41"><path d="M83 68.2h2.8v7.6H83zM117.2 68.2h2.8v7.6h-2.8z"/></g><path fill="#8D6E63" d="M80.6 66.3h41.8v1.9H80.6z"/><path fill="#A1887F" d="M116.6 56.9H86.3l-2 9.4h34.3"/><path fill="#AFB42B" d="M252.6 58c0 7.4-6.7 10.6-13.8 10.6s-13.4-2.4-13.4-9.8 6.3-15.5 13.4-15.5 13.8 7.3 13.8 14.7z"/><path fill="#795548" d="M245.2 60.4l-.5-.6-5 3.1-.2-6.8h-1.2l-.2 7-5.1-2.6-.5.7 5.6 3.8-.3 10h2.3l-.4-10"/><path fill="#C3DEF4" d="M130.7 9.3v46.3c0 .7.5 1.4 1.2 1.5l25.1 6.4c.2.1.5.1.8 0l28.1-6.6c.2-.1.5-.1.7 0l25.3 6.3c1 .2 2-.5 2-1.5V15.3c0-.7-.5-1.4-1.2-1.5l-26.2-6.5c-.2-.1-.5-.1-.7 0l-27.9 6.6c-.2.1-.5.1-.8 0l-24.5-6.2c-1-.2-1.9.5-1.9 1.6z"/><path fill="#B4D3ED" d="M185.9 56.87V7.22L157.3 14v49.5"/><path fill="#0F9D58" d="M157.2 33.3L144 29.4s-5.09 4.48-13.3 5.29v9.93L157 51.1l28.9-7.2 15.1 4.5V30.3l-15.2-4.5-28.6 7.5z" opacity=".2168"/><path fill="#FFF" d="M199.6 10.58V47.2h4V11.57M149.66 12.05c-.07 3.26-.8 9.76-5.16 14.59-3.2 3.54-7.84 5.56-13.8 6.05v4.02c7.16-.52 12.79-2.99 16.76-7.38 4.85-5.35 5.97-12.2 6.17-16.26l-3.97-1.02z"/><path fill="#FFF" d="M157.02 49.03l-26.32-7.1v4.14l26.28 7.1 28.87-7.2 27.95 8.43v-4.18l-27.85-8.39"/><circle cx="173.3" cy="33.9" r="13.6" fill="#4184F3" opacity=".3"/><circle cx="173.1" cy="33.6" r="4.3" fill="#4184F3"/><path fill="#FFF" d="M173.1 38.4c-2.65 0-4.8-2.15-4.8-4.8s2.15-4.8 4.8-4.8 4.8 2.15 4.8 4.8-2.15 4.8-4.8 4.8zm0-8.6c-2.1 0-3.8 1.7-3.8 3.8 0 2.1 1.7 3.8 3.8 3.8 2.1 0 3.8-1.7 3.8-3.8 0-2.1-1.7-3.8-3.8-3.8z"/></svg>