<?xml version="1.0" encoding="utf-8"?>
<svg version="1.0" id="Layer_1" xmlns="http://www.w3.org/2000/svg" xmlns:xlink="http://www.w3.org/1999/xlink" x="0px" y="0px"
	 width="124" height="124" viewBox="0 0 124 124" enable-background="new 0 0 124 124" xml:space="preserve">
<g>
	<circle fill="#3367D6" cx="62" cy="62" r="62"/>
	<path fill="#82B1FF" d="M61.401,71.442c-20.689,0-40.369,3.666-58.201,10.267C11.436,106.288,34.648,124,62,124
		c27.204,0,50.314-17.522,58.665-41.895C102.553,75.255,82.502,71.442,61.401,71.442z"/>
	<path fill="#5E97F6" d="M101.972,109.391c-25.02-28.036-57.058-37.155-57.448-37.155l-6.961,0.789
		c21.742,11.977,37.482,33.356,45.967,47.132C90.317,117.644,96.543,113.975,101.972,109.391z"/>
	<path opacity="0.2" fill="#1C3AA9" d="M73.873,89.98c1.299,0.868-0.196,1.572-3.339,1.572c-3.143,0-6.745-0.704-8.044-1.572
		c-1.299-0.868,0.196-1.572,3.339-1.572C68.972,88.408,72.573,89.112,73.873,89.98z"/>
	<linearGradient id="SVGID_1_" gradientUnits="userSpaceOnUse" x1="62.1901" y1="68.7628" x2="62.1901" y2="20.5443">
		<stop  offset="0" style="stop-color:#90CAF9;stop-opacity:0"/>
		<stop  offset="1" style="stop-color:#90CAF9;stop-opacity:0.6"/>
	</linearGradient>
	<path opacity="0.2" fill="url(#SVGID_1_)" d="M94.953,67.497c0,0-11.748,4.024-32.717,3.963c-17.882-0.052-32.808-3.96-32.808-3.96
		L56.88,16H67.5L94.953,67.497z"/>
	<linearGradient id="SVGID_2_" gradientUnits="userSpaceOnUse" x1="62.1901" y1="85.565" x2="62.1901" y2="28.8416">
		<stop  offset="0" style="stop-color:#BBDEFB;stop-opacity:0"/>
		<stop  offset="1" style="stop-color:#BBDEFB;stop-opacity:0.8"/>
	</linearGradient>
	<path fill="url(#SVGID_2_)" d="M86.004,88.8c0,0-10.885,5.442-23.786,5.362c-11.002-0.069-23.842-5.397-23.842-5.397L58.84,20
		h6.699L86.004,88.8z"/>
	<linearGradient id="SVGID_3_" gradientUnits="userSpaceOnUse" x1="62.1901" y1="99.9589" x2="62.1901" y2="22.3455">
		<stop  offset="0" style="stop-color:#E8F0FE;stop-opacity:0"/>
		<stop  offset="1" style="stop-color:#E8F0FE;stop-opacity:0.7"/>
	</linearGradient>
	<path opacity="0.7" fill="url(#SVGID_3_)" d="M77.715,102.827c0,0-6.497,6.54-15.506,6.443c-7.683-0.083-15.545-6.478-15.545-6.478
		L61.577,20h1.226L77.715,102.827z"/>
	<g>
		<path id="XMLID_188_" fill="#EE4637" d="M58.906,47.888c-3.49,1.421-5.167,5.403-3.746,8.893
			c1.939,4.762,8.269,5.078,11.662,11.62c0.095,0.183,0.317,0.263,0.511,0.184s0.297-0.292,0.237-0.489
			c-2.142-7.051,2.167-11.7,0.228-16.461C66.378,48.144,62.396,46.467,58.906,47.888z"/>
		<circle id="XMLID_183_" fill="#8F1F1D" cx="61.479" cy="54.207" r="2.388"/>
		<path fill="#FF8A80" d="M59.117,48.405c3.39-1.38,7.243,0.163,8.763,3.45c-0.027-0.074-0.051-0.147-0.081-0.221
			c-1.421-3.49-5.403-5.167-8.893-3.746c-3.49,1.421-5.167,5.403-3.746,8.893c0.03,0.074,0.064,0.143,0.096,0.215
			C54.048,53.581,55.727,49.785,59.117,48.405z"/>
	</g>
	<g>
		<g>
			<path fill="#4285F4" d="M82.855,23.088c0,4.294-9.238,7.775-20.631,7.775c-11.395,0-20.633-3.48-20.633-7.775
				c0-1.608,0-0.839,0-0.839h41.264V23.088z"/>
			<ellipse fill="#7BAAF7" cx="62.223" cy="22.249" rx="20.632" ry="6.936"/>
			<path fill="#5E97F6" d="M42.294,20.48c6.536-3.281,11.613-2.442,11.821-2.507l1.205-2.252
				C48.95,16.482,44.034,18.261,42.294,20.48z"/>
			<path fill="#5E97F6" fill-opacity="0.7" d="M82.855,22.249c0-3.081-5.982-5.69-14.251-6.594l-6.168,3.094
				c15.24,2.353,13.844,7.327,13.048,8.809C79.988,26.287,82.855,24.382,82.855,22.249z"/>
		</g>
		<path fill="#448AFF" d="M74.062,18.227c0,2.597-5.301,4.703-11.838,4.703c-6.538,0-11.84-2.106-11.84-4.703
			c0-2.598,3.206-4.001,11.84-4.001C70.858,14.226,74.062,15.629,74.062,18.227z"/>
		<path fill="#E8F0FE" d="M73.145,17.613c0,2.394-4.89,4.335-10.921,4.335c-6.032,0-10.923-1.941-10.923-4.335
			c0-2.394,2.958-9.866,10.923-9.866S73.145,15.219,73.145,17.613z"/>
		<path opacity="0.3" fill="#448AFF" d="M72.957,16.313c-1.428-1.306-4.741-1.999-10.733-1.999s-9.306,0.693-10.735,1.999
			c-0.126,0.511-0.189,0.958-0.189,1.299c0,2.394,4.891,4.335,10.923,4.335c6.031,0,10.921-1.941,10.921-4.335
			C73.145,17.271,73.083,16.825,72.957,16.313z"/>
		<path opacity="0.4" fill="#FFFFFF" d="M62.222,7.746c0.176,0,0.348,0.008,0.519,0.015c-4.595,1.705-7.87,6.127-7.87,11.315
			c0,0.607,0.046,1.204,0.133,1.787c-2.27-0.794-3.703-1.956-3.703-3.251C51.301,15.219,54.256,7.746,62.222,7.746z"/>
	</g>
	<path fill="#BBDEFB" d="M26.788,24.391l0.462,2.802c0.015,0.092,0.088,0.165,0.18,0.18l2.802,0.462c0.244,0.04,0.244,0.391,0,0.431
		l-2.802,0.462c-0.092,0.015-0.165,0.088-0.18,0.18l-0.462,2.802c-0.04,0.244-0.391,0.244-0.431,0l-0.462-2.802
		c-0.015-0.092-0.088-0.165-0.18-0.18l-2.802-0.462c-0.244-0.04-0.244-0.391,0-0.431l2.802-0.462c0.092-0.015,0.165-0.088,0.18-0.18
		l0.462-2.802C26.396,24.147,26.747,24.147,26.788,24.391z"/>
	<path fill="#BBDEFB" d="M13.145,54.888l0.462,2.802c0.015,0.092,0.088,0.165,0.18,0.18l2.802,0.462c0.244,0.04,0.244,0.391,0,0.431
		l-2.802,0.462c-0.092,0.015-0.165,0.088-0.18,0.18l-0.462,2.802c-0.04,0.244-0.391,0.244-0.431,0l-0.462-2.802
		c-0.015-0.092-0.088-0.165-0.18-0.18L9.27,58.763c-0.244-0.04-0.244-0.391,0-0.431l2.802-0.462c0.092-0.015,0.165-0.088,0.18-0.18
		l0.462-2.802C12.754,54.644,13.105,54.644,13.145,54.888z"/>
	<path fill="#BBDEFB" d="M104.072,42.837l0.714,4.333c0.024,0.143,0.136,0.255,0.279,0.279l4.333,0.714
		c0.377,0.062,0.377,0.605,0,0.667l-4.333,0.714c-0.143,0.024-0.255,0.136-0.279,0.279l-0.714,4.333
		c-0.062,0.377-0.605,0.377-0.667,0l-0.714-4.333c-0.024-0.143-0.136-0.255-0.279-0.279L98.08,48.83
		c-0.377-0.062-0.377-0.605,0-0.667l4.333-0.714c0.143-0.024,0.255-0.136,0.279-0.279l0.714-4.333
		C103.467,42.46,104.01,42.46,104.072,42.837z"/>
	<circle fill="#BBDEFB" cx="94.058" cy="22.377" r="1.184"/>
	<circle fill="#BBDEFB" cx="37.437" cy="41.538" r="1.453"/>
</g>
</svg>
