<svg width="94" height="44"><g fill="none"><path d="M4.618 0h84.765c2.55 0 4.618 2.091 4.618 4.67v34.659c0 2.579-2.067 4.67-4.618 4.67h-84.765c-2.55 0-4.618-2.091-4.618-4.67v-34.659c0-2.579 2.067-4.67 4.618-4.67z" fill="#CDD0D5"/><path d="M4.906 2h84.188c1.605 0 2.906 1.299 2.906 2.902v32.195c0 1.603-1.301 2.902-2.906 2.902h-84.188c-1.605 0-2.906-1.299-2.906-2.902v-32.195c0-1.603 1.301-2.902 2.906-2.902z" fill="#EFF0F2"/><path d="M30 6.5h34v2.5h-34v-2.5zm-4.25 3c-.966 0-1.75-.784-1.75-1.75s.784-1.75 1.75-1.75 1.75.784 1.75 1.75-.784 1.75-1.75 1.75zm42.5 0c-.966 0-1.75-.784-1.75-1.75s.784-1.75 1.75-1.75 1.75.784 1.75 1.75-.784 1.75-1.75 1.75z" id="Combined-Shape" fill="#CDD0D5"/><g><path d="M86 33h-2.5v-7.504h-5.5v-10.496h2.5v7.5h3v-7.5h2.5v18zm-30-.158v-10.342h5.207v-4.566h-5.207v-2.934h7.5v10.5h-5v4.693h5v2.649h-7.5zm18.5.158h-7.5v-2.625h5v-4.876h-5v-2.998h5v-4.527h-5v-2.973h7.5v18zm-22-18v18h-2.5v-18h2.5zm-18 15.387h5v2.613h-7.5v-18h2.5v15.387zm-26.5-15.387h8v2.954h-5.5v12.399h3.097v-4.853h-1.597v-3h4v10.5h-8v-18zm12 0h8v2.954h-5.5v12.399h3.097v-4.853h-1.597v-3h4v10.5h-8v-18z" fill="#676C72"/><path fill="#F1B500" d="M42.716 25.882l-2.914 1.521.557-3.221-2.358-2.281 3.258-.47 1.457-2.93 1.457 2.93 3.258.47-2.358 2.281.557 3.221z"/></g></g></svg>