<?xml version="1.0" encoding="utf-8"?>
<!-- Generator: Adobe Illustrator 21.0.2, SVG Export Plug-In . SVG Version: 6.00 Build 0)  -->
<svg version="1.0" id="Layer_1" xmlns="http://www.w3.org/2000/svg" xmlns:xlink="http://www.w3.org/1999/xlink" x="0px" y="0px" width="24" height="24"
	 viewBox="0 0 24 24" style="enable-background:new 0 0 24 24;" xml:space="preserve">
<path d="M19.636,3.071l-5.023,1.994L9.566,3.071C9.325,2.976,9.057,2.978,8.818,3.076l-5.198,2.14C3.245,5.37,3,5.735,3,6.141
	v13.916c0,0.733,0.763,1.217,1.426,0.905l4.781-2.253l4.995,2.259c0.263,0.119,0.563,0.118,0.826-0.001l5.391-2.449
	c0.357-0.162,0.586-0.518,0.586-0.91V4.001C21.005,3.295,20.292,2.811,19.636,3.071z M10.235,5.486l3.425,1.353v11.689l-3.425-1.549
	V5.486z M5,6.81l3.235-1.331v11.477L5,18.48V6.81z M19.005,16.963l-3.345,1.52V6.801l3.345-1.327V16.963z"/>
</svg>
