<svg xmlns="http://www.w3.org/2000/svg" width="1248" height="960" version="1"><path fill="#E0F7FA" d="M9304-1682h45v52h-45z"/><path fill="#C5EEFC" d="M9349-1647v16h-45v-51h16"/><path fill="#E0F7FA" d="M9313.6-1680.1l-4.9 3.7 39.9 46.4h.4v-9.1z"/><radialGradient id="a" cx="208.78" cy="1321.43" r="442.91" fx="113.62" fy="1218.32" gradientTransform="matrix(1 0 0 -1.08 0 1527.24)" gradientUnits="userSpaceOnUse"><stop offset=".01" style="stop-color:#FFFFA9"/><stop offset=".14" style="stop-color:#EBFBBD"/><stop offset=".36" style="stop-color:#CFF5DA"/><stop offset=".57" style="stop-color:#BAF0EF"/><stop offset=".79" style="stop-color:#AEEEFB"/><stop offset="1" style="stop-color:#AAEDFF"/></radialGradient><path fill="url(#a)" d="M0 0h1248v387h-1248z"/><linearGradient id="b" x1="196.73" x2="67.13" y1="786.47" y2="640.87" gradientUnits="userSpaceOnUse" gradientTransform="matrix(1 0 0 -1 0 962)"><stop offset="0" style="stop-color:#FFD674"/><stop offset="1" style="stop-color:#53BDA8"/></linearGradient><path fill="url(#b)" d="M111.3 286.4c-27.5-43.1-76-87.7-111.3-114.1v241.7l180.2 4.4 15.3-44s-40.2-19.1-84.2-88z"/><linearGradient id="c" x1="226.08" x2="524.23" y1="1078.23" y2="616.1" gradientUnits="userSpaceOnUse" gradientTransform="matrix(1 0 0 -1 0 962)"><stop offset="0" style="stop-color:#FFD674"/><stop offset=".81" style="stop-color:#53C993"/></linearGradient><path fill="url(#c)" d="M1248 703v-404.9c-29.5-39.5-68.2-88.9-117.3-90.1-84.2-2.1-93.7 56-200.7 131-22.7 15.9-41.9 24.7-58.7 30.4-33.3 11.2-68.2 16.6-103.3 16.6h-268.2c-9.5 0-18.9-1.8-27.7-5.1-85.2-32.7-152.6-97.4-225-100.2-93.9-3.6-146.9 56.4-247.1 94v328.3h1248z"/><path fill="#444" d="M1248 83.2s-207.7-54.3-624.9-54.3c-402.2 0-623.1 54.3-623.1 54.3v-83.2h1248v83.2z"/><path fill="#739191" d="M1013.3 703l-334.2-317h-112.9l-333.4 317z"/><path fill="#88AAA9" d="M513.9 434l-32.8 32h33.3l27.7-32zM730.4 434h-28.2l29.3 32h31.4zM567.2 434l-24.6 32h34.5l15.2-32zM677.1 434h-25.1l16.7 32h34.5zM640.4 466h-35l8.9-32h15.7z"/><ellipse cx="303" cy="501.5" fill="#54A878" rx="21" ry="4.5"/><path fill="#444" d="M0 702h1248v258h-1248z"/><path fill="#545757" d="M0 702h1248v103h-1248z"/><path fill="#2D2D2D" d="M848.2 933.5h-451.8c-15.2 0-28.1-10.9-30.7-25.9l-20.6-120c-3.3-19 11.4-36.4 30.7-36.4h493.1c19.3 0 34 17.4 30.7 36.4l-20.6 120c-2.7 15-15.6 25.9-30.8 25.9z"/><path fill="#353535" d="M524.5 844.8c2.8-35.6-26.7-65.1-62.3-62.3-28 2.2-50.7 24.9-52.9 52.9-2.8 35.6 26.7 65.1 62.3 62.3 27.9-2.2 50.7-24.9 52.9-52.9zM681.8 844.8c2.8-35.6-26.7-65.1-62.3-62.3-28 2.2-50.7 24.9-52.9 52.9-2.8 35.6 26.7 65.1 62.3 62.3 28-2.2 50.7-24.9 52.9-52.9zM838.6 844.8c2.8-35.6-26.7-65.1-62.3-62.3-28 2.2-50.7 24.9-52.9 52.9-2.8 35.6 26.7 65.1 62.3 62.3 28-2.2 50.7-24.9 52.9-52.9z"/><path fill="#2D2D2D" d="M624.6 795.2l-6.5 44.1c-.6 3.9 2.5 7.5 6.5 7.5h.2c4 0 7-3.5 6.5-7.5l-6.7-44.1zM510.5 823.9l-43 12c-3.8 1.1-5.8 5.3-4.2 9l.1.1c1.6 3.6 6.1 5 9.5 2.9l37.6-24zM818.8 869.9l-26.6-35.8c-2.4-3.2-7-3.5-9.9-.7l-.1.1c-2.8 2.8-2.5 7.5.7 9.9l35.9 26.5z"/><path fill="#EFEFEF" d="M799.1 431.4l11.2-.8 4.7 9.3-5.6 5.1h-3l3.9-5.5zM795.2 428l-6.9 9.5-3.9 1.5 3 1.4 5.6-2.5 12.1-9.9z"/><path fill="#9EAAAF" d="M791.7 433l3.5-5h9.9l-7.4 6c-2-.2-4-.4-6-1zM811.2 432.3l.5 1c-3.1.8-4.8 1.3-8.2 1.2l-3.4-2.6 11.1.4z"/><path fill="#432AF4" d="M850 434.5s3.4 3.4 8.2 2.6c4.7-.9 5.2-4.3 5.2-4.3s-38.4-22.4-39.7-23.3c0 0-3.3-1 5.2 9.5l21.1 15.5z"/><path fill="#FF8A65" d="M765.9 361.2c-.4.1-7.2 3.2-7.3 8.2 0 0 4.3-2.6 8.2-1.3l-.9-6.9z"/><path fill="#EDF0F4" d="M772.5 386.7c2.1-1.8 4.7-3.7 7.6-4.8 3.9-1.6 8.6-.3 12.1 1.3 9 8.6 36.7 30 37 30.2 7.8 6.9-24.1 31.9-49.2 11.6-15-12.2-11.4-28.1-8.2-36.6.3-.6.5-1.1.7-1.7z"/><path fill="#432AF4" d="M780.1 382.7c-3.2 1.3-6 3.3-8.4 5.4 2.1-6 3-11.2 1.1-14.3l-6.5-7.2c-.3-1.1-.5-2.2-.5-3.3 0-6.3 5.1-11.4 11.4-11.4 3.4 0 6.5 1.5 8.6 3.9l.5.4c5.2 5.2 1.9 20 4.3 24.8.3.6 1.4 1.8 2.9 3.3-3.9-2-9.1-3.4-13.4-1.6z"/><path fill="#B6BEC1" d="M792.4 385c13.3 8.7 33.4 21.6 43.4 28.3-6.1 7-22.5 14.2-36.9 3.4-12.1-9.1-9.8-21.7-7.5-28.5.4-1.2.8-2.2 1-3.2z"/><path fill="#EDF0F4" d="M792 383.7c14.3 6.9 35.8 17.3 46.6 22.7-5.2 7.7-20.5 16.9-36.1 8-13.2-7.5-14.3-20.7-12.9-27.8.2-1.1 2.3-1.8 2.4-2.9z"/><path fill="#432AF4" d="M803.5 414.9c14.5-1.2 21.4-13.7 22.1-14.9 1.6.8 3.1 1.5 4.6 2.2-.2.4-2.8 5.4-8 10.1-2.2 2-5.1 4-8.6 5.6-3.3-.3-6.7-1.2-10.1-3zM816.1 395.4l1.2.6 3 1.5c-.1.2-2.2 4.3-6.8 8-3.2 2.6-8.2 5.5-15.1 6-1.7-1.4-3-3-4.1-4.6 15.1 1 21.5-10.8 21.8-11.5z"/><circle cx="775.4" cy="361.2" r="2.2" fill="#FF8A65"/><path fill="#FF8A65" d="M784.4 439.1l-9.4.2-2.5 2 11.6-.3 5.1 2.6.3-2zM808.8 444.5l-9.4.2-2.5 2 11.6-.3 5.1 2.6.3-2z"/><path fill="#EFEFEF" d="M915.6 431.4l11.2-.8 4.8 9.3-5.6 5.1h-3.1l3.9-5.5zM911.7 428l-6.9 9.5-3.8 1.5 3 1.4 5.6-2.5 12.1-9.9z"/><path fill="#9EAAAF" d="M908.3 433l3.5-5h9.9l-7.4 6c-2-.2-4-.4-6-1zM927.7 432.3l.5 1c-3.1.8-4.8 1.3-8.2 1.2l-3.4-2.6 11.1.4z"/><path fill="#432AF4" d="M966.5 434.5s3.4 3.4 8.2 2.6c4.7-.9 5.2-4.3 5.2-4.3s-38.4-22.4-39.7-23.3c0 0-3.3-1 5.2 9.5l21.1 15.5z"/><path fill="#FF8A65" d="M882.4 361.2c-.4.1-7.2 3.2-7.3 8.2 0 0 4.3-2.6 8.2-1.3l-.9-6.9z"/><path fill="#EDF0F4" d="M889 386.7c2.1-1.8 4.7-3.7 7.6-4.8 3.9-1.6 8.6-.3 12.1 1.3 9 8.6 36.7 30 37 30.2 7.8 6.9-24.1 31.9-49.2 11.6-15-12.2-11.4-28.1-8.2-36.6.4-.6.5-1.1.7-1.7z"/><path fill="#432AF4" d="M896.7 382.7c-3.2 1.3-6 3.3-8.4 5.4 2.1-6 3-11.2 1.1-14.3l-6.5-7.2c-.3-1.1-.5-2.2-.5-3.3 0-6.3 5.1-11.4 11.4-11.4 3.4 0 6.5 1.5 8.6 3.9l.5.4c5.2 5.2 1.9 20 4.3 24.8.3.6 1.4 1.8 2.9 3.3-4-2-9.2-3.4-13.4-1.6z"/><path fill="#B6BEC1" d="M908.3 382.9c9.7 6.3 24.3 15.8 31.6 20.6-4.4 5.1-16.4 10.3-26.8 2.5-8.8-6.6-7.1-15.8-5.5-20.8.3-.7.5-1.5.7-2.3z"/><path fill="#EDF0F4" d="M909.2 383.2c15.9-.2 39.8-.4 51.8-.5-1.2 9.2-10.9 24.3-28.8 23.2-15.2-.9-22-12.2-23.9-19.1-.3-1 1.3-2.6.9-3.6z"/><path fill="#432AF4" d="M933.4 406c12.5-7.6 13.1-21.8 13.1-23.2h5.1c0 .5-.1 6.1-2.7 12.6-1.1 2.7-2.7 5.9-5.2 8.9-3 1.1-6.5 1.8-10.3 1.7zM936 382.9h4.6c0 .2 0 4.8-2.5 10.2-1.7 3.8-4.9 8.6-10.9 12.1-2.2-.5-4.1-1.3-5.7-2.3 14.1-5.8 14.5-19.2 14.5-20z"/><circle cx="891.9" cy="361.2" r="2.2" fill="#FF8A65"/><path fill="#FF8A65" d="M901 439.1l-9.5.2-2.5 2 11.6-.3 5.1 2.6.3-2zM925.4 444.5l-9.4.2-2.6 2 11.6-.3 5.1 2.6.3-2z"/><ellipse cx="1100" cy="635.5" fill="#54A878" rx="21" ry="4.5"/><path fill="#E0E0E0" d="M1096 447h8v189h-8z"/><path fill="#9B9B9B" d="M1096 460h8v17h-8z"/><path fill="#F9E02B" d="M1088.2 458.2l-78.7-78.7c-6.8-6.8-6.8-17.8 0-24.6l78.7-78.7c6.8-6.8 17.8-6.8 24.6 0l78.7 78.7c6.8 6.8 6.8 17.8 0 24.6l-78.7 78.7c-6.7 6.8-17.8 6.8-24.6 0z"/><path fill="#444" d="M1106.4 406.1l4.2-3.9-3.7-7.2c7.7-2 13.9-6.6 16.1-10.5l17.8 13s3 3 7.1 2.2c4.1-.7 4.5-3.7 4.5-3.7s-18.7-10.9-28.5-16.7c3.3-1.9 5.8-4.3 7.4-6.6-9.2-4.5-27.4-13.3-39.7-19.3-1.1-1-1.8-1.9-2-2.3-2.1-4.1.8-16.9-3.7-21.4l-.4-.4c-1.8-2-4.5-3.3-7.4-3.3-4.9 0-9 3.6-9.8 8.3l-.1-.1c-.4.1-6.2 2.8-6.3 7.1 0 0 3.7-2.2 7.1-1.1.4.1.7.1 1 .1l4.3 4.8c1.6 2.7.8 7.2-1 12.4l.4-.3-.2.6c-2.8 7.4-5.9 21.2 7.1 31.7 3.5 2.9 7.2 4.7 10.9 5.7l-3.5 5.7-4.4 3.2h-6.1l-1 1h8.1l3.6.1v-2l-1.8-.2 5.2-2.4 5.1-4.8 1.9.2 8 5.7-2.5 3.3h-5.6l-1 2h7.8l3.8 1.8v-2l-2.7-.7z"/><path fill="#EFEFEF" d="M570.7 431.4l11.2-.8 4.7 9.3-5.6 5.1h-3l3.9-5.5zM566.8 428l-6.9 9.5-3.9 1.5 3 1.4 5.6-2.5 12.1-9.9z"/><path fill="#9EAAAF" d="M563.3 433l3.5-5h9.9l-7.4 6c-2-.2-4-.4-6-1zM582.7 432.3l.5 1c-3.1.8-4.8 1.3-8.2 1.2l-3.4-2.6 11.1.4z"/><path fill="#432AF4" d="M621.6 434.5s3.4 3.4 8.2 2.6c4.7-.9 5.2-4.3 5.2-4.3s-38.4-22.4-39.7-23.3c0 0-3.3-1 5.2 9.5l21.1 15.5z"/><path fill="#FF8A65" d="M537.5 361.2c-.4.1-7.2 3.2-7.3 8.2 0 0 4.3-2.6 8.2-1.3l-.9-6.9z"/><path fill="#EDF0F4" d="M544.1 386.7c2.1-1.8 4.7-3.7 7.6-4.8 3.9-1.6 8.6-.3 12.1 1.3 9 8.6 36.7 30 37 30.2 7.8 6.9-24.1 31.9-49.2 11.6-15-12.2-11.4-28.1-8.2-36.6.3-.6.5-1.1.7-1.7z"/><path fill="#432AF4" d="M551.7 382.7c-3.2 1.3-6 3.3-8.4 5.4 2.1-6 3-11.2 1.1-14.3l-6.5-7.2c-.3-1.1-.5-2.2-.5-3.3 0-6.3 5.1-11.4 11.4-11.4 3.4 0 6.5 1.5 8.6 3.9l.5.4c5.2 5.2 1.9 20 4.3 24.8.3.6 1.4 1.8 2.9 3.3-3.9-2-9.1-3.4-13.4-1.6z"/><path fill="#B6BEC1" d="M563.2 383.1c8.4 4.9 21.1 12.3 27.5 16.1-3.8 3.9-14.2 8-23.3 1.9-7.7-5.2-6.2-12.3-4.8-16.2l.6-1.8z"/><path fill="#EDF0F4" d="M563.7 383.3c15.5-3.7 38.7-9.2 50.4-11.9.9 9.2-5.2 26.1-23 29-15 2.5-24.2-7-27.5-13.4-.5-.9.7-2.8.1-3.7z"/><path fill="#432AF4" d="M592.4 400.2c10.5-10.1 8-24.1 7.7-25.5 1.7-.4 3.4-.8 5-1.2.1.4 1.2 5.9.1 12.9-.5 2.9-1.4 6.3-3.1 9.8-2.8 1.9-6 3.3-9.7 4zM589.8 377.2l1.3-.3 3.2-.7c0 .2 1 4.7-.2 10.5-.8 4.1-2.9 9.5-7.9 14.2-2.2-.1-4.3-.4-6.1-1 12.4-8.8 9.8-22 9.7-22.7z"/><circle cx="547" cy="361.2" r="2.2" fill="#FF8A65"/><path fill="#FF8A65" d="M556 439.1l-9.4.2-2.5 2 11.6-.3 5.1 2.6.3-2zM580.4 444.5l-9.4.2-2.5 2 11.6-.3 5.1 2.6.3-2z"/><path fill="#353535" d="M287.6 960c-.1-3.7-.2-7.4-.2-11.1 0-184.2 149.9-334.1 334.1-334.1 184.2 0 334.1 149.9 334.1 334.1 0 3.7-.1 7.4-.2 11.1h69c.1-3.7.2-7.4.2-11.1 0-222.3-180.8-403.1-403.1-403.1s-403.1 180.8-403.1 403.1c0 3.7.1 7.4.2 11.1h69z"/><path fill="#FFCC80" d="M809.3 707.4l1 2.7c2.9 7 7.3 15 14.3 23.7.7.9 1.5 1.9 2.3 2.8.3.4.6.8 1 1.2l.3.3.9 1.2.1.1 1.1 1.4.3.3 1 1.4.1.2 1.2 1.7.2.3 1.2 1.7.1.1c4.6 6.9 9.9 15.7 15.2 24.8l17.6 40.8.3-.1h.1l-.2 1.4v.4s2.5 4.5 6.6 10.3c.9 1.2 1.8 2.6 2.8 3.9s2.1 2.7 3.2 4.1c2.6 3.2 5.6 6.4 8.7 9.2.9.8 1.8 1.6 2.7 2.3 1.4 1.1 2.8 2.1 4.2 3 .6.4 1.4 1.2 2.2 2.3l.8 1.2c.3.4.6.9.9 1.4 9.1 15.6 25.4 62.9 38.7 108.3h104.4l-47.5-120.9v-.1l-.4-1.4v-.1l-.1-.3c-.1-.2-.1-.5-.2-.8l.2-1.3c0-.2 0-.3.1-.5.1-.4.1-.8.2-1.3s.2-1.1.2-1.7l.2-1.3.1-.9c.1-.5.1-1 .2-1.4v-.1l.2-1.6c0-.2.1-.5.1-.8.1-.4.1-.8.2-1.3l.1-.6c.1-.4.1-.8.2-1.3l.1-.8c.3-2.1.6-4.2.9-6.5v-.2l.3-2c0-.2 0-.3.1-.5l.3-1.9c0-.1 0-.3.1-.4l.3-2c0-.1 0-.3.1-.4l.3-2.4.3-2.4c0-.2 0-.4.1-.5.1-.6.2-1.1.2-1.7l.1-.9.3-1.9v-.3l.7-5.2v-.1l.3-2.3.1-.7c.1-.6.2-1.2.2-1.8 0-.3.1-.6.1-.8l.3-2c0-.2 0-.3.1-.5.2-1.7.4-3.4.7-5.1l.1-.7c.1-.6.2-1.2.2-1.8l.1-.7.3-2 .1-.6c.1-.6.2-1.3.2-1.9l.1-.7.6-4.9.1-.7c.1-.6.1-1.1.2-1.6 0-.3.1-.6.1-.8l.2-1.7.1-.7.2-1.7.1-.7.3-2.3c0-.1 0-.3.1-.4l.2-1.8.1-.7.2-1.5.1-.8.2-1.4.1-.8.2-1.6c0-.2 0-.3.1-.5.1-.7.2-1.4.2-2v-.4l.2-1.6c0-.2 0-.4.1-.6l.2-1.4c0-.2 0-.4.1-.6l.1-1.3c0-.2 0-.4.1-.6.1-.5.1-1 .2-1.4v-.3l.2-1.7v-.4c0-.4.1-.8.1-1.1 0-.2 0-.4.1-.5l.1-1v-.5l.1-.9v-.4c0-.4.1-.8.1-1.1v-.2l.1-1.2v-.3c0-.3 0-.5.1-.8v-4.8c0-.3 0-.6-.1-1 0-.2 0-.4-.1-.6 0-.3 0-.6-.1-.9l-.1-.7c0-.3-.1-.6-.1-.8l-.1-.8-.1-.8-.1-.8-.1-.8-.2-.9-.2-.7-.2-.9-.2-.7c-.1-.3-.2-.6-.3-1l-.2-.6-.3-1-.2-.6c-.1-.4-.2-.7-.3-1-.1-.2-.1-.4-.2-.5l-.4-1.1-.2-.5c-.1-.4-.3-.8-.5-1.1-.1-.1-.1-.2-.2-.4l-.5-1.2-.1-.3-.6-1.2-.1-.2c-.2-.4-.4-.9-.7-1.3v-.1c-4.1-7.5-9.8-13-16.6-12.2 0-5.4-1.3-11.1-3.6-16.2v-.1l-.6-1.4-.1-.2c-.2-.4-.4-.9-.7-1.3l-.1-.2-.7-1.2-.1-.2c-.2-.4-.5-.8-.8-1.2l-.1-.2-.8-1.2-.1-.2-.9-1.1-.1-.2-.9-1.1-.1-.2c-.3-.4-.6-.7-1-1l-.1-.1-1-1-.1-.1-1.1-1c-4.8-4-10.7-6.1-17.1-5.1l-.2-1.1c0-.1 0-.2-.1-.3l-.3-1.1c0-.1 0-.2-.1-.2-.3-1.2-.8-2.3-1.3-3.4 0 0 0-.1-.1-.1l-.5-1-.2-.3-.6-.9-.1-.2c-.6-1-1.4-1.9-2.2-2.8l-.3-.3-.7-.7-.4-.4c-.2-.2-.5-.4-.7-.7-.1-.1-.3-.2-.4-.4-.4-.4-.8-.7-1.2-1l-.6-.4c-.2-.2-.4-.3-.7-.5l-.6-.4c-.2-.1-.4-.3-.7-.4l-.7-.4-.6-.3-1.2-.6c-.2-.1-.4-.2-.5-.2l-1-.4-.6-.2-.9-.3-.6-.2c-.3-.1-.7-.2-1-.2l-.4-.1c-.5-.1-1-.2-1.5-.2h-.4l-1.2-.1h-2c-.4 0-.8.1-1.2.2h-.3c-.5.1-1 .2-1.5.4l-.4.1c-.4.1-.7.2-1.1.4l-.5.2c-.3.1-.7.3-1 .5l-.4.2-1.4.8-.4-.7-.2-.3-.4-.7c-.1-.1-.1-.2-.2-.2l-1-1.5-.5-.6-.3-.3-.5-.6-.3-.3-.9-.9-.3-.3c-.2-.2-.3-.3-.5-.4-.1-.1-.3-.2-.4-.4l-.5-.4c-.2-.1-.3-.2-.5-.4-.2-.1-.3-.2-.5-.4l-.9-.6-.4-.3-.6-.3-.5-.3-.6-.3-.4-.2c-.3-.2-.7-.3-1-.4-.1 0-.2-.1-.4-.1l-.8-.3-.4-.1-.8-.2-.4-.1c-.4-.1-.8-.2-1.2-.2h-.3c-.3 0-.6-.1-1-.1h-1.7c-.4 0-.8 0-1.3.1h-.2c-.4 0-.7.1-1.1.2l-.4.1-1 .2-.4.1-1.4.4h-.1c-.4.1-.9.3-1.3.5l-.4.2-1 .5-.4.2c-.5.2-1 .5-1.4.8-.2.1-.5.3-.7.5l-.2.2c-.2.1-.3.2-.5.4l-.2.2-.4.4c-.1.1-.2.2-.2.3l-.3.4-.2.3-.3.5-.2.3-.3.5-.2.3-.3.6-.1.3-.3.7-.1.3-.3.9c0 .1 0 .1-.1.2-6 18.2 2.9 61.7-10.8 83.6-1.1.4-2.4.8-3.9.8l-.8-.2v-.1l-.8-.1c-.3 0-.5-.1-.8-.2h-.1l-.9-.2-.9-.3c-1.6-.5-3.4-1.2-5.5-2.3l-.2-.1-1-.5c-.1-.1-.2-.1-.4-.2l-.9-.5-.5-.3-.9-.5-.5-.3c-.3-.2-.6-.4-.8-.5l-.6-.4c-.3-.2-.6-.4-.8-.6l-.6-.4-.9-.6c-.2-.2-.4-.3-.7-.5l-.9-.6-.7-.5-.9-.7-.7-.6-.9-.7-.7-.6-.9-.8c-.3-.2-.5-.4-.8-.7l-1-.9-.8-.7-1-.9-.8-.7-1.1-1-.8-.7c-.4-.4-.8-.8-1.2-1.1l-.7-.7c-.5-.5-1-.9-1.4-1.4l-.6-.6-2.1-2.1c-6.3-6.3-22.7-19.7-30-11.9-.7.8-1.4 1.8-1.9 3.1 0 0-.9 5 .6 13.3.4 2.6 1.3 6.1 2.8 10.1z"/><path fill="#8D8D8E" d="M1068.9 960l-55.5-98.9-110.9 49.7s5.6 20.1 13.8 49.2h152.6z"/><path fill="#FFCC80" d="M235.5 723.4v1.9c0 .2 0 .5.1.8v.3l.1 1.2v.2l.1 1.1v.4l.1.9v.5c0 .3.1.6.1 1 0 .2 0 .3.1.5 0 .4.1.8.1 1.1v.4c.1.5.1 1.1.2 1.7v.2l.2 1.5c0 .2 0 .4.1.6l.1 1.3c0 .2 0 .4.1.6l.2 1.4c0 .2 0 .4.1.6.1.5.1 1 .2 1.6v.4c.1.7.2 1.3.2 2 0 .1 0 .3.1.4l.2 1.7c0 .2 0 .4.1.6l.2 1.6c0 .2 0 .4.1.6l.2 1.6.1.6.3 2.1v.1l.3 2.4v.4c.1.7.2 1.3.2 2 0 .2 0 .4.1.6.1.6.2 1.2.2 1.8l.1.7c.1.6.2 1.2.2 1.8l.1.6.6 5v.3l.3 2.3c0 .1 0 .3.1.4l.3 2.1c0 .2 0 .4.1.5.1.7.2 1.4.3 2l.1.6 1 7.7.1.6.3 1.9.1.7.3 2.3v.1c.3 2.6.7 5.2 1 7.7 0 .1 0 .3.1.4l.3 2.2v.3c1.9 13.7 3.6 26 4.6 33.7-.1.4-.2.8-.3 1.1v.1c-.2.7-.3 1.2-.4 1.4v.1l-48.1 122.3h104.5c.3-1 .6-2 .9-2.9 1.6-5.5 3.2-10.9 4.9-16.4l1.4-4.5 1.4-4.5 1.9-6 .5-1.4c.3-1 .6-2 1-3 1.6-4.9 3.1-9.6 4.7-14.3l.9-2.7c1.2-3.7 2.5-7.2 3.7-10.7.6-1.8 1.2-3.5 1.9-5.2.6-1.6 1.2-3.3 1.8-4.8.3-.8.6-1.5.8-2.2.4-1 .8-2 1.1-3l.8-2.1.5-1.3c.6-1.4 1.1-2.8 1.6-4.1 3.5-8.7 6.7-15.7 9.2-20.1.3-.5.6-1 .9-1.4.3-.4.6-.9.8-1.2.8-1.1 1.5-1.9 2.2-2.3 1.4-.9 2.8-1.9 4.2-3 .9-.7 1.8-1.5 2.7-2.3 3.1-2.8 6.1-6 8.7-9.2 1.1-1.4 2.2-2.7 3.2-4.1 1-1.3 2-2.6 2.8-3.9 4.1-5.8 6.6-10.3 6.6-10.3v-.4l-.2-1.4h.1l.3.1 17.3-40 .3-.8c5.3-9.2 10.6-18 15.2-24.8l.1-.1 1.2-1.8c.1-.1.1-.2.2-.2l1.2-1.8.1-.2c.3-.5.7-1 1-1.4.1-.1.2-.2.2-.3l1.1-1.5.1-.1.9-1.2.3-.3 1-1.2c7.6-8.9 12.5-17.1 15.7-24.3.4-.9.8-1.7 1.1-2.6l.7-1.7c1.2-3.2 2.1-6.2 2.7-8.8l.2-.7c2-9.3.9-15 .9-15-.5-1.3-1.2-2.3-1.9-3.1-7.2-7.8-23.7 5.6-30 11.9l-2.1 2.1c-.2.2-.4.3-.5.5-.5.5-1 1-1.5 1.4-.2.2-.5.4-.7.7l-1.2 1.2-.8.7c-.4.3-.8.7-1.1 1l-.8.7-1.1.9-.8.7-1 .9-.8.6c-.3.3-.6.5-1 .8l-.7.6c-.3.3-.6.5-.9.7l-.7.6-.9.7c-.2.2-.5.4-.7.5l-.9.6-.6.5-.9.6-.6.4c-.3.2-.6.4-.8.6l-.6.4c-.3.2-.6.4-.8.5l-.5.3c-.3.2-.6.4-.9.5l-.5.3c-.3.2-.6.4-.9.5-.1.1-.2.1-.4.2-.3.2-.7.4-1 .5l-.2.1c-2 1-3.8 1.8-5.5 2.3l-.9.3-.9.2h-.1c-.3.1-.6.1-.8.1l-.8.1v.1l-.8.2c-1.5 0-2.8-.3-3.9-.8-13.7-21.9-4.8-65.3-10.8-83.5 0-.1 0-.2-.1-.2l-.3-.9-.1-.3-.3-.7-.1-.3-.3-.6-.2-.3c-.1-.2-.2-.4-.3-.5l-.2-.3-.3-.5-.2-.3-.3-.4c-.1-.1-.2-.2-.2-.3l-.4-.4-.2-.2c-.1-.1-.3-.3-.5-.4l-.2-.2-.7-.5c-.5-.3-1-.5-1.4-.8l-.4-.2c-.4-.2-.7-.3-1-.5l-.4-.2-1.3-.5h-.1c-.5-.2-.9-.3-1.4-.4l-.4-.1c-.3-.1-.7-.2-1-.2l-.4-.1c-.4-.1-.8-.1-1.1-.2h-.2l-1.3-.1h-1.7c-.3 0-.6.1-1 .1h-.3l-1.2.2-.4.1-.8.2-.4.1-.8.3c-.1 0-.2.1-.4.1l-1 .4-.4.2-.6.3-.5.3-.6.3-.4.3-.9.6-.5.3c-.2.1-.3.2-.5.4l-.5.4c-.1.1-.3.2-.4.4l-.5.4-.3.3-.9.9-.3.3-.5.6-.3.3-.5.6v.1c-.4.5-.7 1-1 1.4-.1.1-.1.2-.2.2l-.4.7c-.1.1-.2.2-.2.3-.1.2-.5.5-.5.7-.4-.3-.8-.6-1.3-.8-.1-.1-.3-.2-.4-.2l-1-.5-.5-.2-1.1-.4-.4-.1-1.5-.4h-.3l-1.2-.2h-2c-.4 0-.8 0-1.2.1h-.4c-.5 0-1 .1-1.5.2l-.4.1-1 .2c-.2 0-.4.1-.6.2l-.9.3-.6.2-1 .4c-.2.1-.4.1-.5.2l-1.2.6-.6.3-.7.4c-.2.1-.4.3-.7.4l-.6.4c-.2.2-.4.3-.7.5l-.6.4-1.2 1c-.1.1-.3.2-.4.4-.2.2-.5.4-.7.7l-.4.4-.7.7-.3.3c-.8.9-1.5 1.8-2.2 2.8l-.1.2-.6.9-.2.3c-.2.3-.4.7-.5 1 0 0 0 .1-.1.1-.5 1.1-1 2.2-1.3 3.4 0 .1 0 .2-.1.2l-.3 1.1c0 .1 0 .2-.1.3l-.2 1.1c-6.4-1-12.3 1.1-17.1 5.1-.4.3-.8.6-1.1 1l-.1.1c-.4.3-.7.7-1 1l-.1.1-1 1-.1.2-.9 1.1-.1.2-.9 1.1c-.1.1-.1.1-.1.2l-.8 1.2-.1.2-.8 1.2-.1.2-.7 1.2-.1.2-.7 1.3-.1.2-.6 1.4.2.1c-2.3 5.1-3.3 10.8-3.3 16.2v.2h-.3c-6.8-1-12.6 4.6-16.7 12.1h-.1c-.2.4-.5.8-.7 1.3l-.1.2-.6 1.2-.1.3-.5 1.2c-.1.1-.1.2-.2.4-.2.4-.3.8-.5 1.1l-.2.5-.4 1.1c-.1.2-.1.4-.2.5l-.3 1-.2.6-.3 1-.2.6c-.1.3-.2.6-.3 1l-.2.7-.2.9c-.1.3-.1.5-.2.7l-.2.9c-.1.3-.1.5-.1.8l-.1.8-.1.8-.1.8c0 .3-.1.6-.1.8l-.1.7-.1.9c0 .2 0 .4-.1.6 0 .3 0 .7-.1 1v2.6c.3.6.3.7.3.7z"/><path fill="#8D8D8E" d="M329.8 960c8.2-29.1 13.8-49.2 13.8-49.2l-110.9-49.7-55.6 98.9h152.7z"/><path fill="#E0E0E0" d="M298 344h9v157h-9z"/><path fill="#9B9B9B" d="M298 374h9v13h-9z"/><path fill="#FF4936" d="M281.8 378l-28.8-30.5v-43.1l28.8-29.4h43.2l31 29.4v43.1l-31 30.5z"/><path fill="#fff" d="M286.4 367l-24.4-23.8v-34.2l24.4-23h34.1l24.5 23v34.2l-24.5 23.8z"/><path fill="#FF4936" d="M288.2 363l-22.2-21.6v-30.6l22.2-20.8h30.6l22.2 20.8v30.6l-22.2 21.6z"/></svg>
