<svg width="18px" height="18px" version="1.1" xmlns="http://www.w3.org/2000/svg" xmlns:xlink="http://www.w3.org/1999/xlink">
    <g stroke="none" stroke-width="1" fill="none" fill-rule="evenodd">
        <path d="M9,16 C12.8659932,16 16,12.8659932 16,9 C16,5.13400675 12.8659932,2 9,2 C5.13400675,2 2,5.13400675 2,9 C2,12.8659932 5.13400675,16 9,16 Z M9,18 C4.02943725,18 0,13.9705627 0,9 C0,4.02943725 4.02943725,0 9,0 C13.9705627,0 18,4.02943725 18,9 C18,13.9705627 13.9705627,18 9,18 Z" id="Oval" fill="#1A73E8" fill-rule="nonzero"></path>
        <rect fill="#1A73E8" x="6.42330433" y="10.8" width="5.15339134" height="2"></rect>
        <circle fill="#1A73E8" cx="6" cy="7.5" r="1.5"></circle>
        <circle fill="#1A73E8" cx="12" cy="7.5" r="1.5"></circle>
        <circle fill="#1A73E8" cx="11.6056641" cy="11.8" r="1"></circle>
        <circle fill="#1A73E8" cx="6.39433594" cy="11.8" r="1"></circle>
    </g>
</svg>
