<svg xmlns="http://www.w3.org/2000/svg" id="Layer_1" width="716" height="422" version="1" style="enable-background:new 0 0 716 422;"><path d="M738 323H-6.1L-7.6-37h744.1z" style="fill:none;"/><linearGradient id="SVGID_1_" x1="366.4" x2="366.4" y1="-1164.2" y2="-795.6" gradientUnits="userSpaceOnUse" gradientTransform="matrix(1 0 0 -1 0 -832)"><stop offset="0" style="stop-color:#FFFFFF"/><stop offset=".4" style="stop-color:#B2DFDB"/></linearGradient><path d="M-7.6-36.4h748v368.6h-748V-36.4z" style="fill:url(#SVGID_1_);"/><path d="M15.4 299.6L113 248c7-3.8 15.5-4 22.7-.4l107 52H15.4z" style="fill:#B2DFDB;"/><linearGradient id="SVGID_2_" x1="625.56" x2="620.72" y1="-905.98" y2="-850.6" gradientUnits="userSpaceOnUse" gradientTransform="matrix(1 0 0 -1 0 -832)"><stop offset="0" style="stop-color:#FFFFFF;stop-opacity:0"/><stop offset="1" style="stop-color:#FFFDFE"/></linearGradient><path d="M672.02 38.43c-8.98 0-15.5.7-20.7-.88-16.98-5.1-19.7-18.05-40.4-18.05-21.84 0-22 17.34-44.9 19.1-22.64 1.76-21.3 26.42-21.3 26.42v2.02h160.23v-2.1s.7-26.42-33.1-26.42l.17-.1z" style="fill:url(#SVGID_2_);"/><path d="M50.5 242.6c-16.3-7.8-35.4-7.5-51.5 1l-5 2.7v88.34h296.7L50.5 242.6z" style="fill:#80CBC4;"/><radialGradient id="SVGID_3_" cx="127.17" cy="-1236.66" r="258.96" gradientTransform="matrix(.86 -.5 -.3 -.5 -38.48 -426.18)" gradientUnits="userSpaceOnUse"><stop offset="0" style="stop-color:#26A69A"/><stop offset="0" style="stop-color:#24A498"/><stop offset="0" style="stop-color:#24A498"/><stop offset="0" style="stop-color:#80CBC4"/><stop offset=".7" style="stop-color:#25A599"/></radialGradient><path d="M-6.4 327.3c54-11 150.7-31.7 237.1-69 44.2-19 70-30.3 100.5-54.4 24-19 32.6-31.4 66.5-55.3 24.3-17.2 41.2-29 67.2-38.3 40.2-14.2 74.6-12.2 86.8-11 39 3.5 67.3 17.7 87.7 28 33 16.7 41.2 25.5 61.2 36.6 12.2 6.7 23.7 12 39 16.4 0 22.8.7 66.5 0 150.2-253 3.4-492.2 2-745.2 5.4-1.6-5.7.6-2.9-.8-8.6z" style="fill:url(#SVGID_3_);"/><radialGradient id="SVGID_4_" cx="607.1" cy="-1147.46" r="143.3" fx="606.1" fy="-1145.96" gradientTransform="matrix(1 0 0 -.86 0 -770.23)" gradientUnits="userSpaceOnUse"><stop offset="0" style="stop-color:#26A69A"/><stop offset="0" style="stop-color:#25A599"/><stop offset=".6" style="stop-color:#25A599"/><stop offset="1" style="stop-color:#00897B"/></radialGradient><path d="M604.9 111.8c33.5 11.6 84.6 45.5 104.5 57 9.3 5.2 17 7.2 30 11.4 0 22.8 11.8 70.4 11.2 154-71.3 1-153.5 0-153.5 0s226.4-118.6 7.8-222.6v.2z" style="fill:url(#SVGID_4_);"/><linearGradient id="SVGID_5_" x1="424.95" x2="421.6" y1="-917.53" y2="-879.58" gradientUnits="userSpaceOnUse" gradientTransform="matrix(1 0 0 -1 0 -832)"><stop offset="0" style="stop-color:#FFFFFF;stop-opacity:0"/><stop offset="1" style="stop-color:#FFFDFE"/></linearGradient><path d="M456.58 61.18c-6.16 0-10.56.52-14.08-.62-11.72-3.52-13.56-12.33-27.74-12.33-14.97 0-14.97 11.98-30.82 13.2-15.58 1.24-14.52 18.06-14.52 18.06v1.2h110.06v-1.2s.44-18.36-22.9-18.36z" style="fill:url(#SVGID_5_);"/><linearGradient id="SVGID_6_" x1="131.36" x2="124.58" y1="-929.87" y2="-852.61" gradientUnits="userSpaceOnUse" gradientTransform="matrix(1 0 0 -1 0 -832)"><stop offset="0" style="stop-color:#FFFFFF;stop-opacity:0"/><stop offset="1" style="stop-color:#FFFDFE"/></linearGradient><path d="M195.46 48.33c-12.68 0-21.14 1.05-28.44-1.24C143.42 40 139.9 22 111.12 22 80.54 22 81.16 46.1 49 48.65c-31.42 2.46-28.78 36.8-28.78 36.8v2.82h220.12v-2.83s2.3-37.15-44.9-37.15z" style="fill:url(#SVGID_6_);"/><path d="M389.5 280.9c-.2-77.3 64.6-140.3 141.6-140.3 77.2 0 140.6 63.4 140.6 140.5-53.6-1.2-108.6-1.7-164.6-1.5-39.4.3-79.5.3-117.6 1.3z" style="fill:#4DB6AC;"/><path d="M532.6 140.6h-1.5c-77 0-141.8 63-141.6 140.3h2.7c0-76.8 64-139.5 140.4-140.3zm-1.5 139c48 0 95 .5 141 1.5-46-1-93-1.6-141-1.5z" style="fill:#80CBC4;"/><path d="M529.1 140.6h1.3c78-.4 142 63 141.7 140.3h-2.7c0-76.8-63.8-139.5-140.4-140.3h.1zm1 139c-48 0-95 .5-141 1.5 46-1 93-1.6 141-1.5z" style="fill:#00897B;"/><path d="M420.6 275.4c0-60 50.3-109.3 110.5-109.3 60 0 109.4 49.4 109.4 109.5-41.8-1-84.5-1.4-128.3-1-30.5 0-61.7 0-91.5.8h-.1z" style="fill:#006064;"/><radialGradient id="SVGID_7_" cx="524.8" cy="-1092.18" r="111.9" gradientTransform="matrix(1 0 0 -1 0 -832)" gradientUnits="userSpaceOnUse"><stop offset=".8" style="stop-color:#006064"/><stop offset=".9" style="stop-color:#00838F"/></radialGradient><path d="M613.7 275.2c6.7 0 20.2.2 26.8.4 0-60-49.4-109.5-109.4-109.5-3.8 0-7.5.2-11.2.6 49 10 92.4 52.3 93.8 108.5z" style="fill:url(#SVGID_7_);"/><path d="M19.1 36.6h716v341h-716v-341z" style="fill:none;"/><path d="M19.1 36.6h716v341h-716v-341z" style="fill:none;"/><path d="M392.1 283.1c0 .5.3 1 .8 1l12-1.5h-8.8c-1.2 0-2-1-2.3-2-.5-2.6-.8-6-.6-9.8.3-2.5.7-4.7 1.2-6.6.2-1 .7-2 1.7-2 .8 0 2 .2 3 0h6.5c-4-.2-8-.6-12-1-.4 0-.8.4-.8 1l-.8 21 .1-.1z" style="fill:#80CBC4;"/><path d="M552.4 145.3c.5 1-.8 8.3-3.4 21 0 .2 0 .5.3.6.3 0 .7 0 .8-.4 1.6-10.4 3.5-20.4 4.5-21 1.4-.8 3.5-1.2 6.5-1.2l-7.5-1.6-7.3-.8c1 0 3 1 4.3 1.6 1 .4 1.3.6 1.8 1.7v.1zm22.1 5.7c.3 1-2 8-6.8 20 0 .3 0 .6.3.8 0 0 .5 0 .7-.3 3.2-10 6.8-19.5 8-20 1.4-.5 3.2-.3 6.2.2-1.7-.7-4.8-2-6.7-2.6-2-.7-5-2-7.3-2.5 1 .3 3 1.6 4 2.4.8.5 1 .8 1.4 2h.2zm17.4 7.6c0 1.2-3 7.8-9.2 19.2 0 .2 0 .6.2.7.3 0 .7 0 1-.2 4.2-9.5 9-18.5 10-18.8 1.6-.4 3.4 0 6.3 1-1.4-1-4.3-2.6-6-3.5l-7-3.4c.8.5 2.6 2 3.6 3 .7.5 1 .8 1.1 2zm18 11c0 1.2-4.2 7.4-11.8 17.7-.2.3 0 .6 0 .8.3.2.7.3 1 0 5.6-8.8 11.5-17 12.7-17.2 1.6 0 3.3.5 6 1.8-1.3-1-4-3-5.7-4-1.8-1.4-4.3-3.2-6.4-4.5 1 .5 2.5 2.3 3.3 3.3.5.7.8 1 .8 2.3l.1-.2zm15.9 13.7c-.2 1-5.2 6.5-14.4 15.5-.2.2-.2.5 0 .8 0 .2.5.3.8 0 7-7.7 14.3-15 15.4-14.8 1.7 0 3.2 1 5.7 2.7-1-1.4-3.4-3.7-4.8-5.2-1.6-1.5-3.8-3.7-5.7-5.3.8.6 2 2.6 2.7 3.8.5.8.7 1 .5 2.3l-.2.2zm14.1 15.7c-.4 1-6.2 5.7-16.7 13.2 0 .2-.2.5 0 .7 0 .3.5.5.8.3 8-6.6 16.3-12.6 17.4-12.4 1.6.4 3 1.5 5.2 3.6l-4-5.8c-1.4-1.7-3.2-4.3-4.8-6 .6.6 1.6 2.8 2 4 .4 1 .5 1.3.2 2.4h-.1zm11.8 18.8c-.5 1-7 4.5-18.6 10.2-.3 0-.4.5-.3.7 0 .4.5.6.8.5 9-5.2 18.2-9.8 19.3-9.3 1.5.6 2.6 2 4.5 4.3l-3-6.3c-1.2-2-2.5-4.8-3.8-7 .5 1 1 3.3 1.4 4.6 0 1 0 1.3-.3 2.3zm8.4 20.5c-.7 1-7.7 3.3-20 7-.2.2-.4.5-.4.8s.4.5.8.5c9.7-3.7 19.4-6.8 20.4-6.2 1.4.8 2.4 2.4 3.8 5l-2-6.7-2.6-7.3c.4 1 .6 3.3.7 4.6 0 1 0 1.4-.7 2.4v-.1zm5.2 20.7c-.8.8-8 2-20.8 4-.3 0-.5.4-.5.7 0 .4.2.7.5.7 10.2-2.2 20.3-3.8 21.2-3 1.2 1 2 2.6 3 5.5l-1-7-1.5-7.7c.2 1 0 3.4 0 4.7 0 1-.2 1.3-1 2.2l.1-.1z" style="fill:#26A69A;"/><path d="M638.1 275.6h2.4c0-60-49.4-109.5-109.4-109.5h-1.8c59.5 1 108 50 108.8 109.5z" style="fill:#80CBC4;"/><path d="M420.9 275.6h-2.6c0-60 49.4-109.5 109.5-109.5h1.8c-59.5 1-108.2 50-108.7 109.5z" style="fill:#26A69A;"/><path d="M389.6 275.6h278.5c14.2 0 34 2.4 48 2.4 10.5 0 14.7 1.7 25.2 1.7l.6 52.7-607.6 6.2c6.7-17 32.4 28.7 89-4.1 28.2-16.3 118.2-50 166.3-58.7v-.2z" style="fill:#4DB6AC;"/><linearGradient id="SVGID_8_" x1="568.73" x2="568.73" y1="-1102.28" y2="-1169.57" gradientUnits="userSpaceOnUse" gradientTransform="matrix(1 0 0 -1 0 -832)"><stop offset="0" style="stop-color:#26A69A"/><stop offset="0" style="stop-color:#24A498"/><stop offset="0" style="stop-color:#24A498"/><stop offset="0" style="stop-color:#7AC9C1"/><stop offset="0" style="stop-color:#72C6BD"/><stop offset="0" style="stop-color:#61BFB6"/><stop offset="0" style="stop-color:#56BAB0"/><stop offset="0" style="stop-color:#4FB7AD"/><stop offset="0" style="stop-color:#4DB6AC"/><stop offset="0" style="stop-color:#53B8AF"/><stop offset=".5" style="stop-color:#B2DFDB"/></linearGradient><path d="M402.08 335.87c41.74-33.14 48.16-56.03 18.52-60.37 35.8-1.6 73-2.4 111.6-2.4 37.5 0 73.6 1 108.4 2.3 39.32.6 92.63 30.08 94.7 60.53.04.52.07 0 .07.52l-333.3-.58z" style="fill:url(#SVGID_8_);"/><path d="M392.6 260.6c0 .5.3 1 .8 1l12 1c-2-.4-4-.5-6.4-1-1 0-1.8 0-2.7-.3-1-.3-1.5-1.7-1.5-2.8 0-2.8.2-6 1.2-10 .6-2.3 1.4-4.4 2.2-6 .4-1 1.2-2 2.2-2 1 .2 2 .7 3 1 2.2.2 4.3.6 6.3 1-3.8-1-7.7-2-11.5-3.2-.5 0-1 .2-1 .6l-4.7 20.6.1.1z" style="fill:#80CBC4;"/><path d="M397.9 238.4c-.2.5 0 1 .6 1l11.8 3c-2-.6-4.5-.8-6.6-1.7l-2.3-.6c-1-.4-1-2.2-1-3.2.5-2.7 1.4-6 3-9.5 1-2.2 2.2-4.2 3.3-5.7.6-1 1.4-2 2.4-1.8 1 .3 2 .8 3 1 2 .8 4 2.2 6 3l-11-5.2c-.3-.3-1 0-1 .4l-8.2 19.3zm35-56.4c-.4.3-.4 1 0 1.3l8.8 8.8c-1.4-1.6-3.4-3-5-4.8-.4-.7-2-1.8-2.4-2.4-.7-1 1-2.3 1.8-3 1.7-2.4 4-5 7.4-7.4 2-1.7 4-3 6-3.8.8-.5 2-1.3 2.7-.5.8.6 1.7 2 2.4 2.8 1.6 1.7 2.7 3.6 4 5.3-2.4-3.4-4.6-7.5-7-11-.3-.3-1 .2-1.5.6-2.8 1.6-5.5 3.8-8.5 6-3.4 2.8-6.3 5.5-8.7 8.1z" style="fill:#80CBC4;"/><path d="M451.3 166.3c-.5.3-.6 1-.3 1.3l7.6 10c-1.2-2-3-3.4-4-5.4-.5-.8-1.7-1.8-2-2.6-.6-1 1-2.2 1.7-3 2-2 5-4 8.5-6 2.3-1.2 4.5-2 6.5-2.7 1-.3 2.2-.7 2.8 0 .6.8 1 2.3 1.6 3 1.3 2 2.4 4 3.4 6l-5.4-11c-.2-.6-.8-.8-1.2-.5l-19.2 11v-.1z" style="fill:#80CBC4;"/><path d="M471.1 154.6c-.5 0-.7.7-.5 1l6.2 11-2.7-6-1-2.5c-.3-1 0-2.2 1-3 2.4-1.5 5.5-3.2 9.3-4.5 2.5-1 4.8-1.4 6.8-1.7 1-.2 2 .3 2.6 1.2l1.2 2.6.4.8c-1.2-4-1-2.6-1.4-6.3 0-.5-.7-.8-1.2-.6l-20.7 8zm-64.5 62.8c-.3.4 0 1 .4 1.2l11 5c-1.8-1-4-2-5.8-3.2-.7-.4-2-.8-2.6-1.2-1-.6-.6-2-.3-3 1-2.5 2.2-5.6 4.4-8.8 1.4-2 2.8-3.8 4.2-5.2.6-.7 1.5-1.5 2.4-1 .8.3 1.8 1 2.7 1.5l5.7 3.6-9.8-6.8c-.5-.3-1-.2-1.3.2l-11.2 17.8.2-.1z" style="fill:#80CBC4;"/><path d="M418.9 198.6c-.4.5-.3 1 0 1.3l9.4 6-4.8-3.6c-.6-.5-2-1-2.6-1.6-.7-.6.2-1.7.7-2.6 1-2.3 3-5 5.3-7.8 1.6-1.7 3.2-3 4.6-4.2.7-.6 1.7-1 2.4-.6.7.5 1.4 1.4 2 2 1.8 1.2 3.3 2.4 4.7 3.6l-7.8-7.6c-.3-.3-.8-.3-1 0l-13 15.3.1-.2zm74.2-52c-.5 0-1 .4-.7 1l3.4 10.8c-.5-2-1.4-3.6-1.7-5.7-.2-.7-.7-2-.8-3 0-1 1.4-1.5 2.4-2 2.4-1 5.5-1.8 9.2-2.3 2.4-.3 4.5-.4 6.4-.3 1 0 2 .6 2.3 1.5l.5 2.5c.5 2 .7 4 1 6l-1-11.2c0-.4 0-2-.6-2-3.7.6-7.5 1.3-11.6 2.3l-9 2.3.2.1z" style="fill:#80CBC4;"/><path d="M532.7 140.8c-4.8 0-5.8 0-9 .2l-10 .8c-.3 0-.7.4-.6 1l2 11c-.2-1.8-.6-3.8-.7-6 0-.7-.3-1.3-.3-2 0-1 1-2.2 2-2.4 2.3-.6 4-1.2 7.2-1.6l9.4-1z" style="fill:#80CBC4;"/><path d="M421.1 244.8c-1.2.4-8.4-1.5-20.7-5.3-.3-.2-.6 0-.7.3-.2.2 0 .6.3.8 10 2.5 19.8 5.4 20.3 6.4.7 1.5.7 3.3.3 6.3.4-2 1.3-5 1.8-7l2.3-7.3c-.3 1-1.3 3-2 4.2-.4.8-.7 1-1.8 1.6h.2zm7-18.2c-1 .3-7.8-2.6-19.4-8-.3-.2-.7 0-.8 0-.2.4 0 .8.2 1 9.7 3.8 19 8 19.3 9.2.4 1.6 0 3.4-.7 6.3l2.8-6.7 3.4-6.8c-.5 1-1.8 2.8-2.6 3.8-.6.8-1 1-2 1.3l-.2-.1zm10.5-15.7c-1.2 0-7.4-3.8-18-11-.4-.2-.7 0-1 0 0 .3 0 .7.2 1 9 5.3 17.5 11 17.6 12 .3 1.7-.3 3.3-1.5 6l3.7-6c1.2-2 3.2-4.6 4.4-6.3l-3.3 3.4c-.7.6-1 1-2.1.9zm11-12.7c-1 0-6.6-5.2-15.7-14.2-.3-.2-.6-.2-.8 0-.3.2-.4.6 0 .8 7.8 7 15 14 15 15 0 1.8-1 3.3-2.6 5.8l4.8-5.3c1.5-1.7 4-4 5.4-5.4l-3.6 2.7c-1 .6-1.3.8-2.5.6zm15.8-13.3c-1.2-.3-5.7-6-13.4-16.5-.2-.3-.6-.3-.8-.2-.3.2-.4.5-.3 1 6.7 8 12.7 16 12.5 17.2-.3 1.6-1.5 3-3.5 5.2l5.6-4.5 6.2-4.5-4 2.2c-1 .3-1.4.5-2.6 0l.3.1zm17-9.7c-1-.5-4.4-7-10-18.7 0-.4-.3-.5-.6-.4-.3 0-.5.4-.4.8 5 9 9.4 18.3 9 19.3-.6 1.6-2 2.7-4.5 4.5l6.4-3.4 7-3.2-4.5 1.4c-1 .2-1.3.2-2.4-.3zm17.5-6.6c-1-.8-3.2-8-6.7-20.2 0-.3-.3-.5-.6-.5s-.6.4-.5.7c3.4 10 6.2 19.7 5.6 20.7-.8 1.3-2.4 2.2-5 3.6 1.7-.7 4.8-1.7 6.8-2.3l7.3-2-4.6.6c-.8 0-1.2 0-2.3-.6zm17.6-3.4c-.8-1-2-8.2-3.2-21 0-.3-.4-.5-.6-.5-.4 0-.7.3-.7.7 1.7 10.3 3 20.4 2 21.3-1 1.2-2.6 1.8-5.6 2.7 2-.4 5.2-.8 7.2-1 2.2-.4 5.5-.7 7.5-.8l-4.5-.3c-1-.2-1.3-.3-2-1l-.1-.1zm16-.9c-.7-1-.6-8.4 0-21.2 0-.3 0-.6-.4-.6-.3-.2-.7 0-.7.4 0 10.4-.3 20.6-1.2 21.3-1.2 1-3 1.4-6 1.8h7.3c2.2 0 5.6.4 7.6.5-1 0-3.4-.5-4.6-1-1 0-1.3-.3-2-1.3v.1zm-116.1 98.3c-1 .7-8.3 0-21-1.5-.4 0-.7.2-.8.5 0 .3 0 .6.5.7 10.4.6 20.5 1.7 21.2 2.7 1 1.3 1.2 3 1.4 6 0-1.8.4-5 .5-7l1-7.7c0 1-.7 3.3-1 4.5-.4 1-.6 1.3-1.7 2l-.1-.2z" style="fill:#26A69A;"/><ellipse cx="541.5" cy="304.2" style="opacity:0.5;fill:#111111;enable-background:new ;" rx="51.9" ry="3.6"/><path d="M505.8 254.9c3-8.8 8.3-24.2 9.5-26.8.3-.5 1.3-2 2.4-2l.4-.2c.8 0 6-1 23-1 16.5 0 21.6.7 22.7 1l.7.2c1.2 0 2.2 1.5 2.4 2 1.4 2.6 6.5 18 9.6 26.8h-70.7z" style="fill:#00897B;"/><path d="M497.1 286.6h11.8v13h-11.8v-13z" style="fill:#37474F;"/><circle cx="503" cy="299.6" r="5.9" style="fill:#37474F;"/><path d="M573.1 286.6h11.8v13h-11.8v-13z" style="fill:#37474F;"/><circle cx="579.1" cy="299.6" r="5.9" style="fill:#37474F;"/><path d="M583.1 256.3c-3-8.8-9.5-27.3-11-30.6 0 0-2.2-4.4-6.7-5.2 0 0-3-1-24.4-1-20.2 0-24.4 1-24.4 1-4.5.8-6.6 5.3-6.6 5.3-1.7 3.4-8 21.8-11.2 30.7-.8.4-10 5.8-10 18.4v16.3h104.3v-16.6c0-12.2-8.8-17.6-10-18.3zm-77.4-1.3c3-8.8 8.2-24.2 9.5-26.8h.2c.2-.5 1.2-2 2.3-2.2h.4c.7-.2 5.8-1 23-1 16.4 0 21.5.7 22.6 1l.7.2v-.2c1.2.2 2.2 1.6 2.4 2v.2c1.4 2.6 6.5 18 9.6 26.8h-70.7zm84.4-2.4l4.4-.6c2.8-.5 4.7-3.2 4.2-6-.5-2.7-3.2-4.6-6-4l-4.4.6c-2.8.5-4.7 3-4.2 6 .5 2.7 3 4.6 6 4z" style="fill:#37EBAC;"/><path d="M590.1 252.6l4.4-.6c2.8-.5 4.7-3.2 4.2-6-.5-2.7-3.2-4.6-6-4l-4.4.6c-2.8.5-4.7 3-4.2 6 .5 2.7 3 4.6 6 4zm-96.6 0l-4.5-.6c-3-.5-4.7-3.2-4.2-6 .4-2.7 3-4.6 6-4l4.3.6c3 .5 4.8 3 4.3 6-.4 2.7-3 4.6-6 4h.1z" style="fill:#37EBAC;"/><path d="M493.5 252.6l-4.5-.6c-3-.5-4.7-3.2-4.2-6 .4-2.7 3-4.6 6-4l4.3.6c3 .5 4.8 3 4.3 6-.4 2.7-3 4.6-6 4h.1zm10.6 3s-.8-.3-2-.3c-1.4 0-2.2.2-2.2.2-11.2 3-11.3 15.5-11.3 15.5v14h26.7v-14s0-12.6-11.3-15.6l.1.2zm78 0h-4.4c-11.2 3-11.2 15.7-11.2 15.7v14h26.6v-14s0-12.6-11-15.6v-.1z" style="fill:#37EBAC;"/><path d="M582.1 255.6h-4.4c-11.2 3-11.2 15.7-11.2 15.7v14h26.6v-14s0-12.6-11-15.6v-.1z" style="fill:#37EBAC;"/><path d="M594.4 291.8H487.7c-1.3 0-2.5-1-2.5-2.5v-1.5c0-1.3 1.3-2.5 2.6-2.5h106.7c1.4 0 2.5 1.2 2.5 2.5v1.5c0 1.4-1 2.5-2.5 2.5h-.1z" style="fill:#22A978;"/><path d="M551.4 289.2h-19c-1.8 0-3.2-1.4-3.2-3v-4.3c0-1.7 1.5-3 3.3-3h19c1.8 0 3.2 1.3 3.2 3v4.2c0 1.7-1.4 3-3.3 3.1z" style="fill:#C8E6C9;"/><circle cx="532.4" cy="281.6" r=".9" style="fill:#81C784;"/><circle cx="551.3" cy="281.6" r=".9" style="fill:#81C784;"/><circle cx="532.4" cy="286.8" r=".9" style="fill:#81C784;"/><circle cx="551.3" cy="286.8" r=".9" style="fill:#81C784;"/><circle cx="501.3" cy="274.5" r="7.2" style="fill:#22A978;"/><circle cx="501.3" cy="274.5" r="5.4" style="fill:#FF6E40;"/><path d="M505.1 278.4c-2 2-5.5 2-7.6 0s-2-5.6 0-7.7" style="fill:#FFAB91;"/><circle cx="580.3" cy="274.2" r="7.2" style="fill:#22A978;"/><circle cx="580.3" cy="274.2" r="5.4" style="fill:#FF6E40;"/><path d="M584.1 278.1c-2 2-5.5 2-7.6 0-2-2-2-5.5 0-7.7" style="fill:#FFAB91;"/><path d="M124.15 127.85h157.2v67.6h-157.2v-67.6z" style="fill:#FAFAFA;"/><path d="M122.65 178.55h163.1v178.5h-163.1v-178.5z" style="fill:#F0EDE5;"/><path d="M244.55 228.75l43.3-40.1-2.6-2.2-52.5 38.6" style="fill:#FFFFFF;"/><path d="M286.45 252.45c-15.4-19.8-66.4-37.6-92.2-41.7-39.4-6.2-44.1-15.8-44.1-16.5-1.1-7.9 16.5-15.6 16.5-15.6l-4.4-.4-4.4 1.9c-1.7.7-15.4 6.6-13.8 15.9.7 4.6 5.1 8.4 13.1 11.8 8.1 3.4 20.8 7.3 37.2 9.5 15.8 2.4 73.8 28.6 92.1 50.7v-15.6z" style="fill:#FFFFFF;"/><path d="M227.35 362.65c11.8-30.9 17.9-70.4-27.6-108-25.3-21 10.5-34.2 20.6-45 8.8-9.3 5-16.2 1.7-19.7-5.4-6-21.1-9.9-31.1-11.6-.7-.1-2.9-.2-2.1.2 5.7 2.9 42.4 12.1 16.3 28.9-11.5 7.3-60.8 27.3-37.5 51.1 28.8 29.2 50.8 62.6.5 102.3l59.2 1.8z" style="fill:#1F85FF;"/><ellipse cx="215.65" cy="314.05" style="opacity:0.5;fill:#777777;enable-background:new ;" rx="22.9" ry="18.6"/><ellipse cx="215.65" cy="311.15" style="fill:#FFFFFF;" rx="22.9" ry="18.6"/><path d="M206.05 318.25l9.8-19.3c.4-1 1.8-.7 2.2.2l6.5 20.6c.4 1-.7 1.9-1.6 1.5l-7-4h-1l-7.5 2.9c-.9.2-1.8-.8-1.4-1.9z" style="fill:#1F85FF;"/><path d="M132.95 98.45h143.2v33.8h-143.2v-33.8z" style="fill:#17C682;"/><ellipse cx="190.55" cy="178.55" style="fill:#DB4437;" rx="2.4" ry=".8"/><path d="M190.45 146.15c-5.4 0-9.8 4.4-9.8 10 0 7.5 8.2 11.5 9.2 22.2 0 .3.2.5.5.5s.5-.3.6-.6c1-10.7 9.2-14.7 9.2-22.2 0-5.4-4.4-9.9-9.7-9.9z" style="fill:#FF4D4D;"/><ellipse cx="190.45" cy="156.15" style="fill:#7B231E;" rx="3.5" ry="3.5"/><ellipse cx="204.15" cy="390.05" style="opacity:0.5;fill:#B0BEC5;enable-background:new ;" rx="88.7" ry="9.6"/><path d="M290.85 93.05c0-12.8-10.3-23.2-23.1-23.2h-124.8c-12.9 0-23.3 10.4-23.3 23.2v273.3c0 12.7 10.3 23.1 23.1 23.1h124.9c12.7 0 23.1-10.3 23.1-23.1V93.05h.1zm-13.9 263.2h-143.2V99.95h143.2v256.3z" style="fill:#444444;"/><circle cx="205.75" cy="79.55" r="3.7"/><circle cx="279.05" cy="110.55" r="51.6" style="fill:#616161;"/><path d="M279.05 58.85c28.5 0 51.6 23.1 51.6 51.7 0 28.4-23.1 51.6-51.6 51.6s-51.6-23.1-51.6-51.5c-.1-28.7 23-51.8 51.6-51.8m0-8.8c-33.4 0-60.5 27.2-60.5 60.5s27 60.4 60.5 60.4c33.4 0 60.5-27.2 60.5-60.5s-27.2-60.6-60.5-60.6v.2z" style="fill:#FFFFFF;"/><path d="M296.3 104.02c-1.6-8.1-8.72-14.2-17.27-14.2-3.48 0-6.7 1.02-9.42 2.76l3.5 3.42c1.78-.9 3.83-1.43 6-1.43 7.13 0 12.9 5.78 12.9 12.92v1.16h3.53c3.9 0 7.05 3.15 7.05 7.05 0 2.66-1.5 4.97-3.66 6.16l3.4 3.4c3-2.13 4.95-5.6 4.95-9.55 0-6.2-4.8-11.24-10.92-11.67zm-38.42-11.2l6.46 6.43c-7.5.33-13.5 6.5-13.5 14.08 0 7.78 6.3 14.1 14.1 14.1h27.55l4.7 4.7 2.92-3-39.3-39.3-3 3zm11.12 11.1l18.8 18.8h-22.87c-5.2 0-9.4-4.2-9.4-9.4s4.2-9.4 9.4-9.4H269z" style="fill:#FFFFFF;"/></svg>
