<?xml version="1.0" encoding="utf-8"?>
<!-- Generator: Adobe Illustrator 19.1.0, SVG Export Plug-In . SVG Version: 6.00 Build 0)  -->
<svg version="1.0" id="Layer_1" xmlns="http://www.w3.org/2000/svg" xmlns:xlink="http://www.w3.org/1999/xlink" x="0px" y="0px"
	 width="1000px" height="1000px" viewBox="0 0 1000 1000" style="enable-background:new 0 0 1000 1000;" xml:space="preserve">
<g>
	<g>
		
			<line style="fill:none;stroke:#989898;stroke-width:17.0695;stroke-linecap:round;stroke-miterlimit:10;" x1="817.5" y1="657.599976" x2="842.200012" y2="678.700012"/>
		<g>
			<path style="fill:#4C4D4E;" d="M824.200012,666c-20.599976,19.900024-41,32.200012-45.599976,27.400024
				s8.299988-24.799988,28.900024-44.700012c20.599976-19.900024,41-32.200012,45.599976-27.400024
				S844.700012,646.099976,824.200012,666z"/>
			<polygon style="fill:#4C4D4E;" points="853.099976,621.400024 847.400024,615.5 772.799988,687.5 778.5,693.5 			"/>
			<path style="fill:#666767;" d="M818.400024,660.099976c-20.599976,19.900024-41,32.200012-45.599976,27.400024
				s8.299988-24.799988,28.900024-44.700012c20.599976-19.900024,41-32.200012,45.599976-27.400024
				C852,620.200012,839,640.200012,818.400024,660.099976z"/>
		</g>
		<g>
			<path style="fill:#4C4D4E;" d="M813,653.599976c-28,30.299988-56.400024,49.599976-63.400024,43.099976
				s10-36.299988,38-66.599976S844,580.5,851,587S841,623.299988,813,653.599976z"/>
			
				<rect x="790.029297" y="563.148376" transform="matrix(-0.734792 -0.678293 0.678293 -0.734792 948.123413 1646.408569)" style="fill:#4C4D4E;" width="11.800117" height="149.401596"/>
			<g>
				<g>
					<defs>
						<path id="SVGID_1_" d="M790.200012,682.400024c-43.700012,47.299988-87,80.599976-98,70.5s15.599976-56.700012,59.299988-104
							s87-75,98.099976-64.900024C861.900024,595.200012,834,635.099976,790.200012,682.400024z"/>
					</defs>
					<clipPath id="SVGID_2_">
						<use xlink:href="#SVGID_1_"  style="overflow:visible;"/>
					</clipPath>
					<g style="clip-path:url(#SVGID_2_);">
						<path style="fill:#989898;" d="M837.799988,585.5L856,601.5l2.599976-5.400024L841,580.400024
							C841,580.400024,836.799988,587.900024,837.799988,585.5z"/>
					</g>
				</g>
			</g>
			<path style="fill:#666767;" d="M804.299988,645.599976c-28,30.299988-56.400024,49.599976-63.400024,43.099976
				s10-36.299988,38-66.599976S835.299988,572.5,842.299988,579S832.299988,615.299988,804.299988,645.599976z"/>
		</g>
		<g>
			<path style="fill:#4C4D4E;" d="M795.099976,637.200012c-36.700012,43.900024-74.599976,72.700012-84.799988,64.200012
				s11.299988-51,47.900024-94.900024c36.700012-44,74.599976-72.700012,84.799988-64.200012
				C853.200012,550.700012,831.700012,593.200012,795.099976,637.200012z"/>
			<polygon style="fill:#4C4D4E;" points="843,542.200012 830.400024,531.700012 697.700012,690.900024 710.299988,701.400024 			
				"/>
			<g>
				<g>
					<defs>
						<path id="SVGID_3_" d="M790.5,643.599976c-39.900024,50.599976-84,81.799988-95.5,72.299988
							c-11.5-9.599976,12.700012-57.400024,54-106.900024s72.599976-87.900024,93-68.799988
							C855,552.299988,830.200012,593.299988,790.5,643.599976z"/>
					</defs>
					<clipPath id="SVGID_4_">
						<use xlink:href="#SVGID_3_"  style="overflow:visible;"/>
					</clipPath>
					<g style="clip-path:url(#SVGID_4_);">
						<path style="fill:#989898;" d="M826.400024,546.700012l18.5,13.799988l4.799988-8l-17.799988-14.900024
							C831.900024,537.700012,826.299988,547.5,826.400024,546.700012z"/>
					</g>
				</g>
			</g>
			<path style="fill:#666767;" d="M782.5,626.700012c-36.700012,43.900024-74.599976,72.700012-84.799988,64.200012
				S709,639.900024,745.600037,596c36.700012-44,74.599976-72.700012,84.799988-64.200012
				C840.599976,540.200012,819.099976,582.700012,782.5,626.700012z"/>
		</g>
		<g>
			<path style="fill:#4C4D4E;" d="M773.400024,620.200012C734,671.200012,692.5,705.100037,680.700012,696
				c-11.799988-9.099976,10.5-57.900024,49.900024-108.799988c39.400024-51,80.900024-84.899994,92.700012-75.799988
				C835.200012,520.5,812.799988,569.200012,773.400024,620.200012z"/>
			<polygon style="fill:#4C4D4E;" points="823.299988,511.299988 808.700012,500 666.099976,684.599976 680.700012,695.900024 			
				"/>
			<g>
				<g>
					<defs>
						<path id="SVGID_5_" d="M773.400024,620.200012C734,671.200012,692.5,705.100037,680.700012,696
							c-11.799988-9.099976,10.5-57.900024,49.900024-108.799988c34.200012-44.299988,57.299988-87.399994,73.799988-88.899994
							c2.5-0.200012,17.299988,11.899994,18.900024,13.100006C835.200012,520.5,812.799988,569.200012,773.400024,620.200012z"/>
					</defs>
					<clipPath id="SVGID_6_">
						<use xlink:href="#SVGID_5_"  style="overflow:visible;"/>
					</clipPath>
					<g style="clip-path:url(#SVGID_6_);">
						<path style="fill:#989898;" d="M805.099976,516.200012l21.099976,15.5l3.200012-10.099976l-19.700012-16.899994
							C809.700012,504.700012,805.700012,515.700012,805.099976,516.200012z"/>
					</g>
				</g>
			</g>
			<path style="fill:#818181;" d="M758.799988,608.799988c-39.400024,51-80.900024,84.900024-92.700012,75.799988
				C654.299988,675.5,676.599976,626.799988,716,575.799988S796.900024,490.899994,808.700012,500
				S798.200012,557.900024,758.799988,608.799988z"/>
			<path style="fill:#818181;" d="M782.700012,507.799988c4.400024-3,8.5-5.399994,12.099976-7"/>
			<path style="fill:#666767;" d="M700,670.900024C684.200012,683.5,671.700012,689,666,684.600037
				c-11.799988-9.099976,10.5-57.799988,49.900024-108.799988c23.799988-30.799988,48.299988-55.299988,66.700012-68"/>
		</g>
	</g>
	<g>
		
			<line style="fill:none;stroke:#989898;stroke-width:17.0695;stroke-linecap:round;stroke-miterlimit:10;" x1="184.199997" y1="657.599976" x2="159.5" y2="678.700012"/>
		<g>
			<path style="fill:#4C4D4E;" d="M177.5,666c20.600006,19.900024,41,32.200012,45.600006,27.400024
				s-8.300003-24.799988-28.899994-44.700012s-41-32.200012-45.600006-27.400024
				C143.899994,626.099976,156.899994,646.099976,177.5,666z"/>
			<polygon style="fill:#4C4D4E;" points="148.600006,621.400024 154.300003,615.5 228.800003,687.5 223.100006,693.5 			"/>
			<path style="fill:#666767;" d="M183.199997,660.099976c20.600006,19.900024,41,32.200012,45.599991,27.400024
				c4.600006-4.799988-8.300003-24.799988-28.899994-44.700012s-41-32.200012-45.600006-27.400024
				C149.699997,620.200012,162.600006,640.200012,183.199997,660.099976z"/>
		</g>
		<g>
			<path style="fill:#4C4D4E;" d="M188.600006,653.599976C216.600006,683.899963,245,703.199951,252,696.699951
				s-10-36.299988-38-66.599976S157.600006,580.5,150.600006,587S160.600006,623.299988,188.600006,653.599976z"/>
			
				<rect x="199.826996" y="563.117065" transform="matrix(0.734746 -0.678342 0.678342 0.734746 -378.085358 308.735413)" style="fill:#4C4D4E;" width="11.799266" height="149.390625"/>
			<g>
				<g>
					<defs>
						<path id="SVGID_7_" d="M211.399994,682.400024c43.699997,47.299988,87,80.599976,98,70.5s-15.600006-56.700012-59.300003-104
							s-87-75-98.099991-64.900024C139.800003,595.200012,167.699997,635.099976,211.399994,682.400024z"/>
					</defs>
					<clipPath id="SVGID_8_">
						<use xlink:href="#SVGID_7_"  style="overflow:visible;"/>
					</clipPath>
					<g style="clip-path:url(#SVGID_8_);">
						<path style="fill:#989898;" d="M163.800003,585.5l-18.199997,16L143,596l17.600006-15.700012
							C160.600006,580.400024,164.899994,587.900024,163.800003,585.5z"/>
					</g>
				</g>
			</g>
			<path style="fill:#666767;" d="M197.300003,645.599976c28,30.299988,56.400009,49.599976,63.400009,43.099976
				s-10-36.299988-38-66.599976S166.300018,572.5,159.300018,579C152.300003,585.5,169.300003,615.299988,197.300003,645.599976z"/>
		</g>
		<g>
			<path style="fill:#4C4D4E;" d="M206.5,637.200012c36.699997,43.900024,74.600006,72.700012,84.799988,64.200012
				c10.200012-8.5-11.299988-51-47.899994-94.900024c-36.699997-44-74.600006-72.700012-84.800003-64.200012
				C148.399994,550.700012,169.899994,593.200012,206.5,637.200012z"/>
			<polygon style="fill:#4C4D4E;" points="158.600006,542.200012 171.199997,531.700012 304,690.900024 291.399994,701.400024 			
				"/>
			<g>
				<g>
					<defs>
						<path id="SVGID_9_" d="M211.100006,643.599976c39.899994,50.599976,84,81.799988,95.5,72.299988
							c11.5-9.599976-12.700012-57.400024-54-106.900024s-72.600006-87.900024-93-68.799988
							C146.600006,552.299988,171.5,593.299988,211.100006,643.599976z"/>
					</defs>
					<clipPath id="SVGID_10_">
						<use xlink:href="#SVGID_9_"  style="overflow:visible;"/>
					</clipPath>
					<g style="clip-path:url(#SVGID_10_);">
						<path style="fill:#989898;" d="M175.300003,546.700012l-18.5,13.799988L152,552.5l17.800003-14.900024
							C169.800003,537.700012,175.399994,547.5,175.300003,546.700012z"/>
					</g>
				</g>
			</g>
			<path style="fill:#666767;" d="M219.199997,626.700012C255.899994,670.600037,293.799988,699.400024,304,690.900024
				s-11.299988-51-47.899994-94.900024c-36.699997-44-74.600006-72.700012-84.800003-64.200012
				C161,540.200012,182.5,582.700012,219.199997,626.700012z"/>
		</g>
		<g>
			<path style="fill:#4C4D4E;" d="M228.199997,620.200012c39.400009,51,80.900009,84.900024,92.699997,75.799988
				c11.799988-9.099976-10.5-57.900024-49.899994-108.799988c-39.399994-51-80.899994-84.899994-92.699997-75.799988
				C166.5,520.5,188.800003,569.200012,228.199997,620.200012z"/>
			<polygon style="fill:#4C4D4E;" points="178.300003,511.299988 192.899994,500 335.600006,684.599976 320.899994,695.900024 			
				"/>
			<g>
				<g>
					<defs>
						<path id="SVGID_11_" d="M228.199997,620.200012c39.400009,51,80.900009,84.900024,92.699997,75.799988
							c11.799988-9.099976-10.5-57.900024-49.899994-108.799988c-34.199997-44.299988-57.300003-87.399994-73.800003-88.899994
							c-2.5-0.200012-17.300003,11.899994-18.899994,13.100006C166.5,520.5,188.800003,569.200012,228.199997,620.200012z"/>
					</defs>
					<clipPath id="SVGID_12_">
						<use xlink:href="#SVGID_11_"  style="overflow:visible;"/>
					</clipPath>
					<g style="clip-path:url(#SVGID_12_);">
						<path style="fill:#989898;" d="M196.600006,516.200012l-21.100006,15.5l-3.199997-10.099976L192,504.700043
							C192,504.700012,195.899994,515.700012,196.600006,516.200012z"/>
					</g>
				</g>
			</g>
			<path style="fill:#818181;" d="M242.899994,608.799988c39.399994,51,80.899994,84.900024,92.699982,75.799988
				c11.799988-9.099976-10.5-57.799988-49.899994-108.799988S204.799988,490.899994,192.999985,500
				C181.100006,509.100006,203.5,557.900024,242.899994,608.799988z"/>
			<path style="fill:#818181;" d="M219,507.799988c-4.399994-3-8.5-5.399994-12.100006-7"/>
			<path style="fill:#666767;" d="M301.600006,670.900024c15.799988,12.599976,28.299988,18.099976,34,13.700012
				c11.799988-9.099976-10.5-57.799988-49.899994-108.799988c-23.799988-30.799988-48.300003-55.299988-66.699997-68"/>
		</g>
	</g>
	<path style="fill:#FABD2C;" d="M424.399994,636.900024L426.799988,806.5H485l10.600006-153.200012
		c0.299988-4.099976,2.5-8,8.5-8.099976c6,0,7.299988,3.900024,7.700012,8.099976L522.300049,806.5h59.200012l2.400024-169.599976
		H424.399994z"/>
	<path style="fill:#FABD2C;" d="M589.5,420.399994c-0.700012,0-147.299988,0-168.200012,0l1.600006,109.199982l1.5,107.799988
		h159.500031l1.5-107.799988"/>
	<path style="fill:#FABD2C;" d="M394.100006,305.299988c0-61.199997,49.299988-110.800003,110.100006-110.800003
		s110,49.699997,109.900024,110.900009c0,61.200012-49.400024,110.800018-110.100006,110.800018
		C443.299988,416.200012,394,366.5,394.100006,305.299988z"/>
	<polygon style="opacity:0.5;fill:#CE592C;enable-background:new    ;" points="439.700012,420.5 504.200012,527 568.700012,420.5 	
		"/>
	<g>
		<path style="fill:#989898;stroke:#989898;stroke-width:4.2674;stroke-miterlimit:10;" d="M728.299988,593.900024
			c-59.700012-43.200012-130.899963-63.299988-224.200012-63.299988c-98.299988,0-168.200012,18.799988-226.600006,61.099976
			c-1.799988,0.700012-4.299988-1.200012-6.200012-3.799988c-1.799988-2.5-2.5-5.799988-1.299988-6.599976
			c60.700012-43.900024,132.899994-63.5,234.199982-63.5c96.099976,0,169.700012,20.900024,231.700012,65.700012
			c2,1.599976,1.599976,4.099976-0.5,7.400024C732.700012,595,729.400024,594.700012,728.299988,593.900024z"/>
	</g>
	<path style="fill:#FABD2C;" d="M582.900024,494c0,0,27,17.399994,54.700012,6.5
		c2.099976,1.200012,10.400024,45.099976,11.099976,50.599976C649.400024,557,647.100037,568.5,654.5,569.299988l16,4
		c4.099976,0.599976,9.299988-4.799988,9.599976-9.900024C695,425.199951,600.899963,420.299957,589.5,420.299957"/>
	<path style="fill:#FABD2C;" d="M427.600006,494c0,0-27,17.399994-54.700012,6.5
		c-2.200012,1.200012-10.399994,45.099976-11.100006,50.599976C361.099976,557,363.399994,568.5,356,569.299988l-16,4
		c-4.100006,0.599976-9.299988-4.799988-9.600006-9.900024C315.5,425.199951,409.599976,420.299957,421,420.299957"/>
	<polygon style="opacity:0.25;fill:#CE592C;enable-background:new    ;" points="586.900024,496.299988 586.900024,420.5 
		590.299988,420.399994 598.700012,501.299988 	"/>
	<polygon style="opacity:0.25;fill:#CE592C;enable-background:new    ;" points="422.399994,496.899994 421.399994,420.5 
		418,420.399994 410.399994,501.299988 	"/>
	<path style="fill:#DB413B;" d="M423.600006,589.099976v-2.900024h160.999969v2.900024L510.499969,648.5
		c0,0-9.200012-6.299988-13.700012,0.700012C494.5,652.799988,423.600006,589.099976,423.600006,589.099976z"/>
</g>
</svg>
