<svg version="1.0" id="Layer_1" xmlns="http://www.w3.org/2000/svg" xmlns:xlink="http://www.w3.org/1999/xlink" x="0px" y="0px"
	 width="320px" height="185px" enable-background="new 0 0 320 185" xml:space="preserve">
<linearGradient id="svg1" gradientUnits="userSpaceOnUse" x1="209.6294" y1="339.3059" x2="254.6418" y2="339.3059" gradientTransform="matrix(1 0 0.0206 0.8144 12.6737 -113.967)">
	<stop  offset="0" style="stop-color:#292D33;stop-opacity:0"/>
	<stop  offset="0.1889" style="stop-color:#2C3036;stop-opacity:0.0378"/>
	<stop  offset="0.3452" style="stop-color:#373A40;stop-opacity:0.0691"/>
	<stop  offset="0.49" style="stop-color:#484C51;stop-opacity:0.0981"/>
	<stop  offset="0.6279" style="stop-color:#606469;stop-opacity:0.1257"/>
	<stop  offset="0.7608" style="stop-color:#808388;stop-opacity:0.1523"/>
	<stop  offset="0.8881" style="stop-color:#A5A9AE;stop-opacity:0.1778"/>
	<stop  offset="0.999" style="stop-color:#CDD0D5;stop-opacity:0.2"/>
</linearGradient>
<polygon fill="url(#svg1)" points="229.28,161.51 274.29,161.51 274.3,163.25 229.33,163.25 "/>
<linearGradient id="svg2" gradientUnits="userSpaceOnUse" x1="160.2266" y1="339.3059" x2="205.2391" y2="339.3059" gradientTransform="matrix(1 0 0.0206 0.8144 12.6737 -113.967)">
	<stop  offset="0" style="stop-color:#292D33;stop-opacity:0"/>
	<stop  offset="0.1889" style="stop-color:#2C3036;stop-opacity:0.0378"/>
	<stop  offset="0.3452" style="stop-color:#373A40;stop-opacity:0.0691"/>
	<stop  offset="0.49" style="stop-color:#484C51;stop-opacity:0.0981"/>
	<stop  offset="0.6279" style="stop-color:#606469;stop-opacity:0.1257"/>
	<stop  offset="0.7608" style="stop-color:#808388;stop-opacity:0.1523"/>
	<stop  offset="0.8881" style="stop-color:#A5A9AE;stop-opacity:0.1778"/>
	<stop  offset="0.999" style="stop-color:#CDD0D5;stop-opacity:0.2"/>
</linearGradient>
<polygon fill="url(#svg2)" points="179.88,161.51 224.89,161.51 224.89,163.25 179.93,163.25 "/>
<path fill="#E8EAED" d="M220.39,103.97h-5V41.04c0-4.88-3.97-8.85-8.85-8.85s-8.85,3.97-8.85,8.85V64.9h-5V41.04
	c0-7.63,6.21-13.85,13.85-13.85s13.85,6.21,13.85,13.85V103.97z"/>
<path fill="#E8EAED" d="M249.37,117.27h-21.75c-6.74,0-12.22-5.48-12.22-12.23v-1.07c0-1.38,1.12-2.5,2.5-2.5s2.5,1.12,2.5,2.5v1.07
	c0,3.98,3.24,7.23,7.22,7.23h21.75c1.38,0,2.5,1.12,2.5,2.5S250.75,117.27,249.37,117.27z"/>
<path fill="#E8EAED" d="M249.37,159.83c-13.11,0-23.78-10.67-23.78-23.78c0-13.11,10.67-23.78,23.78-23.78
	c13.11,0,23.78,10.67,23.78,23.78C273.15,149.16,262.48,159.83,249.37,159.83z M249.37,117.27c-10.36,0-18.78,8.42-18.78,18.78
	c0,10.36,8.42,18.78,18.78,18.78c10.36,0,18.78-8.42,18.78-18.78C268.15,125.69,259.72,117.27,249.37,117.27z"/>
<path fill="#34A853" d="M249.37,158.33c-12.29,0-22.28-10-22.28-22.28c0-0.55,0.45-1,1-1s1,0.45,1,1c0,11.18,9.1,20.28,20.28,20.28
	c11.18,0,20.28-9.1,20.28-20.28c0-5.62-2.36-11.04-6.49-14.87c-3.76-3.49-8.66-5.41-13.79-5.41c-0.55,0-1-0.45-1-1s0.45-1,1-1
	c5.64,0,11.02,2.11,15.16,5.95c4.53,4.2,7.12,10.16,7.12,16.33C271.65,148.33,261.65,158.33,249.37,158.33z"/>
<path fill="none" stroke="#FABB05" stroke-width="2" stroke-miterlimit="10" d="M263.84,120.45c-3.8-3.53-8.88-5.68-14.47-5.68"/>
<path fill="#FABB05" d="M249.37,115.77h-21.75c-5.91,0-10.72-4.81-10.72-10.73v-1.07h2v1.07c0,4.81,3.91,8.73,8.72,8.73h21.75
	V115.77z"/>
<path fill="#DF382B" d="M218.89,86.47h-2V41.04c0-5.71-4.64-10.35-10.35-10.35v-2c6.81,0,12.35,5.54,12.35,12.35V86.47z"/>
<path fill="#1A73E8" d="M196.2,41.04h-2c0-6.81,5.54-12.35,12.35-12.35v2C200.84,30.7,196.2,35.34,196.2,41.04z"/>
<rect x="216.89" y="86.47" fill="#FABB05" width="2" height="17.5"/>
<linearGradient id="svg3" gradientUnits="userSpaceOnUse" x1="-11.5896" y1="339.3059" x2="33.4229" y2="339.3059" gradientTransform="matrix(1 0 0.0206 0.8144 12.6737 -113.967)">
	<stop  offset="0" style="stop-color:#292D33;stop-opacity:0"/>
	<stop  offset="0.1889" style="stop-color:#2C3036;stop-opacity:0.0378"/>
	<stop  offset="0.3452" style="stop-color:#373A40;stop-opacity:0.0691"/>
	<stop  offset="0.49" style="stop-color:#484C51;stop-opacity:0.0981"/>
	<stop  offset="0.6279" style="stop-color:#606469;stop-opacity:0.1257"/>
	<stop  offset="0.7608" style="stop-color:#808388;stop-opacity:0.1523"/>
	<stop  offset="0.8881" style="stop-color:#A5A9AE;stop-opacity:0.1778"/>
	<stop  offset="0.999" style="stop-color:#CDD0D5;stop-opacity:0.2"/>
</linearGradient>
<polygon fill="url(#svg3)" points="8.06,161.51 53.08,161.51 53.08,163.25 8.11,163.25 "/>
<g>
	<path fill="#E0E1E5" d="M131.69,133.58h-20.84c-2.44,0-4.41,1.98-4.41,4.41v5.81c0,2.44,1.98,4.41,4.41,4.41h20.84
		c2.44,0,4.41-1.98,4.41-4.41v-5.81C136.1,135.56,134.13,133.58,131.69,133.58z"/>
	<path fill="#E94335" d="M133.91,142.28h-25.29c-1.21,0-2.18-0.98-2.18-2.18v-5.81c0-1.21,0.98-2.18,2.18-2.18h25.29
		c1.21,0,2.18,0.98,2.18,2.18v5.81C136.1,141.3,135.12,142.28,133.91,142.28z"/>
	<g>
		<path fill="none" d="M133.91,132.1h-3.6l2.2,2.2c0.67,0.67,1.04,1.56,1.04,2.5c0,0.95-0.37,1.83-1.04,2.5l-2.97,2.97h4.37
			c1.21,0,2.18-0.98,2.18-2.18v-5.81C136.1,133.07,135.12,132.1,133.91,132.1z"/>
		<path fill="none" d="M126.38,136.8c0-0.71-0.27-1.37-0.77-1.87l-2.83-2.83h-6.29l2.2,2.2c0.67,0.67,1.04,1.56,1.04,2.5
			c0,0.95-0.37,1.83-1.04,2.5l-2.97,2.97H122l3.61-3.61C126.11,138.17,126.38,137.5,126.38,136.8z"/>
		<path fill="none" d="M112.8,137.07c0-0.71-0.27-1.37-0.77-1.87l-3.1-3.1h-0.3c-1.21,0-2.18,0.98-2.18,2.18v5.81
			c0,1.21,0.98,2.18,2.18,2.18h0.06l3.34-3.34C112.52,138.44,112.8,137.77,112.8,137.07z"/>
		<path fill="none" d="M132.65,136.8c0-0.71-0.27-1.37-0.77-1.87l-2.83-2.83h-5l2.2,2.2c0.67,0.67,1.04,1.56,1.04,2.5
			c0,0.95-0.37,1.83-1.04,2.5l-2.97,2.97h5l3.61-3.61C132.38,138.17,132.65,137.5,132.65,136.8z"/>
		<path fill="none" d="M118.82,136.8c0-0.71-0.27-1.37-0.77-1.87l-2.83-2.83h-5.02l2.47,2.47c0.67,0.67,1.04,1.56,1.04,2.5
			c0,0.95-0.37,1.83-1.04,2.5l-2.71,2.71h4.49l3.61-3.61C118.55,138.17,118.82,137.5,118.82,136.8z"/>
		<path fill="#E0E1E5" d="M113.7,137.07c0-0.95-0.37-1.84-1.04-2.5l-2.47-2.47h-1.27l3.1,3.1c0.5,0.5,0.77,1.16,0.77,1.87
			s-0.27,1.37-0.77,1.87l-3.34,3.34h1.27l2.71-2.71C113.33,138.9,113.7,138.01,113.7,137.07z"/>
		<path fill="#E0E1E5" d="M119.72,136.8c0-0.95-0.37-1.84-1.04-2.5l-2.2-2.2h-1.27l2.83,2.83c0.5,0.5,0.77,1.16,0.77,1.87
			s-0.27,1.37-0.77,1.87l-3.61,3.61h1.27l2.97-2.97C119.35,138.63,119.72,137.74,119.72,136.8z"/>
		<path fill="#E0E1E5" d="M127.28,136.8c0-0.95-0.37-1.84-1.04-2.5l-2.2-2.2h-1.27l2.83,2.83c0.5,0.5,0.77,1.16,0.77,1.87
			s-0.27,1.37-0.77,1.87l-3.61,3.61h1.27l2.97-2.97C126.91,138.63,127.28,137.74,127.28,136.8z"/>
		<path fill="#E0E1E5" d="M133.55,136.8c0-0.95-0.37-1.84-1.04-2.5l-2.2-2.2h-1.27l2.83,2.83c0.5,0.5,0.77,1.16,0.77,1.87
			s-0.27,1.37-0.77,1.87l-3.61,3.61h1.27l2.97-2.97C133.18,138.63,133.55,137.74,133.55,136.8z"/>
	</g>
	<rect x="121.46" y="131.7" fill="#34A853" width="5.92" height="16.51"/>
	<linearGradient id="svg4" gradientUnits="userSpaceOnUse" x1="121.2726" y1="139.3915" x2="121.2726" y2="148.2143">
		<stop  offset="0" style="stop-color:#FFFFFF;stop-opacity:0"/>
		<stop  offset="0.2974" style="stop-color:#FDFDFD;stop-opacity:0.119"/>
		<stop  offset="0.4668" style="stop-color:#F4F4F5;stop-opacity:0.1867"/>
		<stop  offset="0.6041" style="stop-color:#E6E7E7;stop-opacity:0.2416"/>
		<stop  offset="0.7241" style="stop-color:#D3D3D4;stop-opacity:0.2896"/>
		<stop  offset="0.8329" style="stop-color:#B9BABB;stop-opacity:0.3332"/>
		<stop  offset="0.9321" style="stop-color:#9A9B9D;stop-opacity:0.3729"/>
		<stop  offset="1" style="stop-color:#808184;stop-opacity:0.4"/>
	</linearGradient>
	<path fill="url(#svg4)" d="M131.38,139.39h-20.52c-2.44,0-4.41,1.98-4.41,4.41v0c0,2.44,1.98,4.41,4.41,4.41H132
		c2.26,0,4.1-1.83,4.1-4.1l0,0C136.1,141.51,133.99,139.39,131.38,139.39z"/>
</g>
<linearGradient id="svg5" gradientUnits="userSpaceOnUse" x1="-9967.2529" y1="10211.0166" x2="-9957.2793" y2="10226.3252" gradientTransform="matrix(0.55 -0.8352 0.8352 0.55 -2938.9541 -13828.2881)">
	<stop  offset="0" style="stop-color:#34A853"/>
	<stop  offset="0.3329" style="stop-color:#2F9E4D"/>
	<stop  offset="0.8889" style="stop-color:#22853E"/>
	<stop  offset="0.9932" style="stop-color:#1F7F3B"/>
</linearGradient>
<path fill="url(#svg5)" d="M112.4,104.68c-0.08-0.99-0.33-1.98-0.77-2.93c-2-4.3-7.11-6.16-11.4-4.16
	c-4.3,2-6.16,7.11-4.16,11.4c0.49,1.06,1.18,1.98,2,2.72c-0.98,2.74-0.93,5.86,0.4,8.7c2.67,5.74,9.49,8.23,15.23,5.56
	c5.74-2.67,8.23-9.49,5.56-15.23C117.85,107.74,115.32,105.63,112.4,104.68z"/>
<path fill="#58C372" d="M115.52,132.1c-0.23,0-0.45-0.13-0.54-0.36l-10.93-25.26c-0.13-0.3,0.01-0.65,0.31-0.78
	c0.3-0.13,0.65,0.01,0.78,0.31l10.93,25.26c0.13,0.3-0.01,0.65-0.31,0.78C115.68,132.09,115.6,132.1,115.52,132.1z"/>
<path fill="#58C372" d="M108.39,115.5c-0.06,0-0.12-0.01-0.19-0.03l-7.12-2.35c-0.31-0.1-0.48-0.44-0.38-0.75
	c0.1-0.31,0.44-0.48,0.75-0.38l6.56,2.16l2.18-6.61c0.1-0.31,0.44-0.48,0.75-0.38c0.31,0.1,0.48,0.44,0.38,0.75l-2.36,7.17
	c-0.05,0.15-0.16,0.27-0.29,0.34C108.57,115.47,108.48,115.5,108.39,115.5z"/>
<path fill="#58C372" d="M111.21,122.16c-0.06,0-0.12-0.01-0.19-0.03l-7.12-2.35c-0.31-0.1-0.48-0.44-0.38-0.75
	c0.1-0.31,0.44-0.48,0.75-0.38l6.56,2.16l2.18-6.61c0.1-0.31,0.44-0.48,0.75-0.38c0.31,0.1,0.48,0.44,0.38,0.75l-2.36,7.17
	c-0.05,0.15-0.16,0.27-0.29,0.34C111.39,122.13,111.3,122.16,111.21,122.16z"/>
<linearGradient id="svg6" gradientUnits="userSpaceOnUse" x1="0" y1="181.4856" x2="319.8464" y2="181.4856">
	<stop  offset="0" style="stop-color:#FFFFFF"/>
	<stop  offset="0.5" style="stop-color:#E7E7E7"/>
	<stop  offset="1" style="stop-color:#FFFFFF"/>
</linearGradient>
<rect y="177.97" fill="url(#svg6)" width="319.85" height="7.03"/>
<g>
	<path fill="#EFF0F2" d="M115.63,163.25H52.11c-4.15,0-7.52-3.37-7.52-7.52v0c0-4.15,3.37-7.52,7.52-7.52h63.52V163.25z"/>
	<path fill="#BDC1C6" d="M113.63,150.21v11.04H52.11c-3.04,0-5.52-2.48-5.52-5.52c0-3.04,2.48-5.52,5.52-5.52H113.63 M115.63,148.21
		H52.11c-4.15,0-7.52,3.37-7.52,7.52v0c0,4.15,3.37,7.52,7.52,7.52h63.52V148.21L115.63,148.21z"/>
</g>
<rect x="110.83" y="75.3" fill="#4688F1" width="98.19" height="87.95"/>
<rect x="116.04" y="80.52" fill="#FFFFFF" width="87.76" height="72.4"/>
<path fill="#FFFFFF" d="M197.15,159.5L197.15,159.5c-0.78,0-1.42-0.63-1.42-1.42l0,0c0-0.78,0.63-1.42,1.42-1.42l0,0
	c0.78,0,1.42,0.63,1.42,1.42l0,0C198.57,158.87,197.94,159.5,197.15,159.5z"/>
<path fill="#FFFFFF" d="M202.39,159.5L202.39,159.5c-0.78,0-1.42-0.63-1.42-1.42l0,0c0-0.78,0.63-1.42,1.42-1.42l0,0
	c0.78,0,1.42,0.63,1.42,1.42l0,0C203.8,158.87,203.17,159.5,202.39,159.5z"/>
<path fill="#BDC1C6" d="M52.11,159.48c-2.06,0-3.74-1.68-3.74-3.74s1.68-3.74,3.74-3.74s3.74,1.68,3.74,3.74
	S54.17,159.48,52.11,159.48z M52.11,153.99c-0.96,0-1.74,0.78-1.74,1.74s0.78,1.74,1.74,1.74s1.74-0.78,1.74-1.74
	S53.07,153.99,52.11,153.99z"/>
<rect x="156.27" y="58.84" fill="#676C71" width="7.6" height="2.26"/>
<rect x="157.18" y="51.47" fill="#EFF0F2" width="5.72" height="7.37"/>
<path fill="#CDD0D5" d="M160.54,51.47h-1v-1.86c0-0.28-0.23-0.51-0.51-0.51h-2c-1.29,0-2.33-1.05-2.33-2.33s1.05-2.33,2.33-2.33
	h5.79c0.74,0,1.33-0.6,1.33-1.33c0-0.79-0.6-1.39-1.33-1.39h-3.76c-1.31,0-2.38-1.07-2.38-2.38s1.07-2.38,2.38-2.38
	c0.28,0,0.51-0.23,0.51-0.51v-18.7h1v18.7c0,0.83-0.68,1.51-1.51,1.51c-0.76,0-1.38,0.62-1.38,1.38s0.62,1.38,1.38,1.38h3.76
	c1.29,0,2.33,1.05,2.33,2.33c0,1.34-1.05,2.39-2.33,2.39h-5.79c-0.74,0-1.33,0.6-1.33,1.33c0,0.74,0.6,1.33,1.33,1.33h2
	c0.83,0,1.51,0.68,1.51,1.51V51.47z"/>
<circle fill="#676C71" cx="160.07" cy="17.74" r="2.38"/>
<path fill="#4688F1" d="M204.86,61.1h-89.88c-0.67,0-1.25,0.47-1.39,1.13l-2.76,13.07h98.19l-2.76-13.07
	C206.12,61.57,205.54,61.1,204.86,61.1z"/>
<rect x="120.25" y="84.79" fill="#E8EAED" width="12.85" height="12.85"/>
<rect x="136.87" y="84.79" fill="#8CB5F6" width="12.85" height="12.85"/>
<rect x="153.5" y="84.79" fill="#E8EAED" width="12.85" height="12.85"/>
<rect x="170.13" y="84.79" fill="#E8EAED" width="12.85" height="12.85"/>
<rect x="186.76" y="84.79" fill="#E8EAED" width="12.85" height="12.85"/>
<rect x="120.25" y="101.84" fill="#E8EAED" width="12.85" height="12.85"/>
<rect x="136.87" y="101.84" fill="#E8EAED" width="12.85" height="12.85"/>
<rect x="153.5" y="101.84" fill="#E8EAED" width="12.85" height="12.85"/>
<rect x="170.13" y="101.84" fill="#FCD56C" width="12.85" height="12.85"/>
<rect x="186.76" y="101.84" fill="#E8EAED" width="12.85" height="12.85"/>
<rect x="120.25" y="118.89" fill="#83C897" width="12.85" height="12.85"/>
<rect x="136.87" y="118.89" fill="#E8EAED" width="12.85" height="12.85"/>
<rect x="153.5" y="118.89" fill="#E8EAED" width="12.85" height="12.85"/>
<rect x="170.13" y="118.89" fill="#E8EAED" width="12.85" height="12.85"/>
<rect x="186.76" y="118.89" fill="#E8EAED" width="12.85" height="12.85"/>
<rect x="120.25" y="135.88" fill="#E8EAED" width="12.85" height="12.85"/>
<rect x="136.87" y="135.88" fill="#E8EAED" width="12.85" height="12.85"/>
<rect x="153.5" y="135.88" fill="#F08B84" width="12.85" height="12.85"/>
<rect x="170.13" y="135.88" fill="#E8EAED" width="12.85" height="12.85"/>
<rect x="186.76" y="135.88" fill="#8CB5F6" width="12.85" height="12.85"/>
<linearGradient id="svg7" gradientUnits="userSpaceOnUse" x1="160.042" y1="54.3057" x2="160.042" y2="58.8402">
	<stop  offset="0" style="stop-color:#FFFFFF;stop-opacity:0"/>
	<stop  offset="0.2974" style="stop-color:#FDFDFD;stop-opacity:0.119"/>
	<stop  offset="0.4668" style="stop-color:#F4F4F5;stop-opacity:0.1867"/>
	<stop  offset="0.6041" style="stop-color:#E6E7E7;stop-opacity:0.2416"/>
	<stop  offset="0.7241" style="stop-color:#D3D3D4;stop-opacity:0.2896"/>
	<stop  offset="0.8329" style="stop-color:#B9BABB;stop-opacity:0.3332"/>
	<stop  offset="0.9321" style="stop-color:#9A9B9D;stop-opacity:0.3729"/>
	<stop  offset="1" style="stop-color:#808184;stop-opacity:0.4"/>
</linearGradient>
<rect x="157.18" y="54.31" fill="url(#svg7)" width="5.72" height="4.53"/>
<linearGradient id="svg8" gradientUnits="userSpaceOnUse" x1="160.042" y1="49.6151" x2="160.042" y2="51.4741">
	<stop  offset="0" style="stop-color:#FFFFFF;stop-opacity:0"/>
	<stop  offset="0.1951" style="stop-color:#E1E1E2;stop-opacity:0.078"/>
	<stop  offset="0.5664" style="stop-color:#ADADAF;stop-opacity:0.2266"/>
	<stop  offset="0.8462" style="stop-color:#8C8D90;stop-opacity:0.3385"/>
	<stop  offset="1" style="stop-color:#808184;stop-opacity:0.4"/>
</linearGradient>
<rect x="159.54" y="49.62" fill="url(#svg8)" width="1" height="1.86"/>
<linearGradient id="svg9" gradientUnits="userSpaceOnUse" x1="159.9232" y1="61.103" x2="159.9232" y2="75.3032">
	<stop  offset="0" style="stop-color:#4688F1;stop-opacity:0"/>
	<stop  offset="0.4122" style="stop-color:#357AE2;stop-opacity:0.1649"/>
	<stop  offset="1" style="stop-color:#206ACF;stop-opacity:0.4"/>
</linearGradient>
<path fill="url(#svg9)" d="M204.86,61.1h-89.88c-0.67,0-1.25,0.47-1.39,1.13l-2.76,13.07h98.19l-2.76-13.07
	C206.12,61.57,205.54,61.1,204.86,61.1z"/>
<path fill="#FABB05" d="M87.61,126.49l-3.06-8.13c-0.6-1.22-2.07-1.77-3.36-1.19c-1.08,0.49-1.64,1.71-1.45,2.88l1.6,9.6
	c0.13,0.8-0.19,1.61-0.85,2.1l-4.33,3.2l8.43,11.43c1.48,2.01,4.31,2.44,6.32,0.95l13.76-10.15L93.56,122.1L87.61,126.49z"/>
<linearGradient id="SVGID_10_" gradientUnits="userSpaceOnUse" x1="-5570.3315" y1="2952.6538" x2="-5548.7119" y2="2952.6538" gradientTransform="matrix(0.8047 -0.5936 0.5936 0.8047 2811.4622 -5540.4219)">
	<stop  offset="0" style="stop-color:#FABB05"/>
	<stop  offset="0.2585" style="stop-color:#F9B70C"/>
	<stop  offset="0.6278" style="stop-color:#F6AC1F"/>
	<stop  offset="0.9945" style="stop-color:#F39E38"/>
</linearGradient>
<path fill="url(#SVGID_10_)" d="M87.64,126.47l0.76,1.94c2.25,6.1,0.06,12.76-4.93,16.43l1.13,1.53c1.48,2.01,4.31,2.44,6.32,0.95
	l13.76-10.15L93.56,122.1L87.64,126.47z"/>
<path fill="#FABB05" d="M95.46,120.7l-5.57,4.11c-1.04,0.77-1.26,2.23-0.49,3.27h0c0.77,1.04,2.23,1.26,3.27,0.49l5.57-4.11
	c1.03-0.76,1.25-2.2,0.49-3.23l-0.03-0.04C97.93,120.16,96.48,119.95,95.46,120.7z"/>
<path fill="#FABB05" d="M97.88,124.74l-5.57,4.11c-1.04,0.77-1.26,2.23-0.49,3.27l0,0c0.77,1.04,2.23,1.26,3.27,0.49l5.57-4.11
	c1.03-0.76,1.25-2.2,0.49-3.23l-0.03-0.04C100.35,124.2,98.9,123.98,97.88,124.74z"/>
<path fill="#FABB05" d="M100.47,128.63l-5.57,4.11c-1.04,0.77-1.26,2.23-0.49,3.27l0,0c0.77,1.04,2.23,1.26,3.27,0.49l5.57-4.11
	c1.03-0.76,1.25-2.2,0.49-3.23l-0.03-0.04C102.95,128.09,101.5,127.88,100.47,128.63z"/>
<path fill="#FABB05" d="M102.72,132.8l-5.57,4.11c-1.04,0.77-1.26,2.23-0.49,3.27l0,0c0.77,1.04,2.23,1.26,3.27,0.49l5.57-4.11
	c1.03-0.76,1.25-2.2,0.49-3.23l-0.03-0.04C105.19,132.26,103.74,132.04,102.72,132.8z"/>
<path fill="#1A73E8" d="M79.19,132.01c0.33-0.32,0.34-0.84,0.02-1.17l-10.55-10.99c-0.32-0.33-0.84-0.34-1.17-0.02l-16.63,15.96
	c-0.33,0.32-0.34,0.84-0.02,1.17l10.55,10.99c0.32,0.33,0.84,0.34,1.17,0.02l6.1-5.85c0.23-0.22,0.56-0.29,0.86-0.18l4.24,1.54
	c0.37,0.14,0.74-0.2,0.65-0.58l-1.12-4.65c-0.07-0.29,0.02-0.59,0.23-0.79L79.19,132.01z M67.39,136.25l-1.14,3.42l-2.02-2.99
	l-3.61-0.03l2.22-2.85l-1.09-3.44l3.39,1.23l2.94-2.1l-0.12,3.61l2.9,2.15L67.39,136.25z"/>
<ellipse transform="matrix(0.8233 -0.5676 0.5676 0.8233 -36.4329 66.6853)" fill="#FABB05" cx="88.88" cy="91.86" rx="11.43" ry="11.43"/>
<path fill="#FFFFFF" d="M88.88,99.2c-1.26,0-2.53-0.32-3.66-0.97c-0.38-0.22-0.51-0.7-0.29-1.08c0.22-0.38,0.7-0.51,1.08-0.29
	c1.92,1.1,4.33,1,6.15-0.25c1.82-1.25,2.77-3.48,2.42-5.66c-0.07-0.43,0.22-0.84,0.66-0.9c0.42-0.07,0.84,0.22,0.9,0.66
	c0.44,2.78-0.77,5.61-3.09,7.21C91.81,98.76,90.35,99.2,88.88,99.2z"/>
<ellipse transform="matrix(0.8233 -0.5676 0.5676 0.8233 -37.2242 64.4581)" fill="#FFFFFF" cx="84.91" cy="92.01" rx="2.11" ry="2.11"/>
<ellipse transform="matrix(0.8233 -0.5676 0.5676 0.8233 -34.0814 66.9244)" fill="#FFFFFF" cx="90.44" cy="88.2" rx="2.11" ry="2.11"/>
<path fill="#E94335" d="M76.05,124.54l8.26-13.02c1.04-1.65,1.46-3.7,1-5.75c-0.92-4.14-5.02-6.75-9.16-5.84
	c-2.06,0.46-3.74,1.7-4.79,3.34l-0.03-0.02l-0.02,0.03c-1.65-1.04-3.7-1.46-5.75-1c-4.14,0.92-6.75,5.02-5.84,9.16
	c0.46,2.06,1.7,3.74,3.34,4.79L76.05,124.54z"/>
<g opacity="0.3">
	
		<linearGradient id="SVGID_11_" gradientUnits="userSpaceOnUse" x1="-1402.0637" y1="1329.8923" x2="-1402.0637" y2="1353.8981" gradientTransform="matrix(0.9763 -0.2164 0.2164 0.9763 1146.4381 -1499.4557)">
		<stop  offset="0" style="stop-color:#E94335"/>
		<stop  offset="0.9987" style="stop-color:#D43636"/>
	</linearGradient>
	<path opacity="0.3" fill="url(#SVGID_11_)" d="M66.71,115.42c-1.64-1.06-2.88-2.74-3.34-4.79c-0.78-3.51,0.98-6.99,4.06-8.53
		c-0.62-0.02-1.25,0.04-1.88,0.18c-4.14,0.92-6.75,5.02-5.84,9.16c0.46,2.06,1.7,3.74,3.34,4.79l12.99,8.31l1.42-2.24L66.71,115.42z
		"/>
</g>
<rect x="194.2" y="41.04" fill="#1A73E8" width="2" height="20.06"/>
<path fill="#BDC1C6" d="M274.14,163.26c-0.39,0-0.77-0.24-0.93-0.62l-6.2-15.31c-0.21-0.51,0.04-1.09,0.55-1.3
	c0.51-0.21,1.09,0.04,1.3,0.55l6.2,15.31c0.21,0.51-0.04,1.09-0.55,1.3C274.4,163.23,274.27,163.26,274.14,163.26z"/>
<path fill="#BDC1C6" d="M225.15,163.26c-0.12,0-0.25-0.02-0.38-0.07c-0.51-0.21-0.76-0.79-0.55-1.3l6.2-15.31
	c0.21-0.51,0.79-0.76,1.3-0.55c0.51,0.21,0.76,0.79,0.55,1.3l-6.2,15.31C225.92,163.02,225.55,163.26,225.15,163.26z"/>
<linearGradient id="SVGID_12_" gradientUnits="userSpaceOnUse" x1="225.8145" y1="152.6431" x2="232.2803" y2="152.6431">
	<stop  offset="0" style="stop-color:#292D33;stop-opacity:0"/>
	<stop  offset="0.1889" style="stop-color:#2C3036;stop-opacity:0.0378"/>
	<stop  offset="0.3452" style="stop-color:#373A40;stop-opacity:0.0691"/>
	<stop  offset="0.49" style="stop-color:#484C51;stop-opacity:0.0981"/>
	<stop  offset="0.6279" style="stop-color:#606469;stop-opacity:0.1257"/>
	<stop  offset="0.7608" style="stop-color:#808388;stop-opacity:0.1523"/>
	<stop  offset="0.8881" style="stop-color:#A5A9AE;stop-opacity:0.1778"/>
	<stop  offset="0.999" style="stop-color:#CDD0D5;stop-opacity:0.2"/>
</linearGradient>
<polygon fill="url(#SVGID_12_)" points="227.67,158.71 225.81,157.96 230.43,146.57 232.28,147.32 "/>
<linearGradient id="SVGID_13_" gradientUnits="userSpaceOnUse" x1="273.4834" y1="152.6431" x2="267.0186" y2="152.6431">
	<stop  offset="0" style="stop-color:#292D33;stop-opacity:0"/>
	<stop  offset="0.1889" style="stop-color:#2C3036;stop-opacity:0.0378"/>
	<stop  offset="0.3452" style="stop-color:#373A40;stop-opacity:0.0691"/>
	<stop  offset="0.49" style="stop-color:#484C51;stop-opacity:0.0981"/>
	<stop  offset="0.6279" style="stop-color:#606469;stop-opacity:0.1257"/>
	<stop  offset="0.7608" style="stop-color:#808388;stop-opacity:0.1523"/>
	<stop  offset="0.8881" style="stop-color:#A5A9AE;stop-opacity:0.1778"/>
	<stop  offset="0.999" style="stop-color:#CDD0D5;stop-opacity:0.2"/>
</linearGradient>
<polygon fill="url(#SVGID_13_)" points="271.63,158.71 267.02,147.32 268.87,146.57 273.48,157.96 "/>
<path fill="#BDC1C6" d="M271.95,147.95h-44.6c-0.55,0-1-0.45-1-1s0.45-1,1-1h44.6c0.55,0,1,0.45,1,1S272.5,147.95,271.95,147.95z"/>
</svg>
