<svg version="1.0" id="Layer_1" xmlns="http://www.w3.org/2000/svg" xmlns:xlink="http://www.w3.org/1999/xlink" x="0px" y="0px"
	 width="320px" height="185px" enable-background="new 0 0 320 185" xml:space="preserve">
<g>
	
<linearGradient id="svg1" gradientUnits="userSpaceOnUse" x1="173.2101" y1="339.3028" x2="198.9703" y2="339.3028" gradientTransform="matrix(1 0 0.0206 0.8144 12.6737 -113.967)">
		<stop  offset="0" style="stop-color:#292D33;stop-opacity:0"/>
		<stop  offset="0.1889" style="stop-color:#2C3036;stop-opacity:0.0378"/>
		<stop  offset="0.3452" style="stop-color:#373A40;stop-opacity:0.0691"/>
		<stop  offset="0.49" style="stop-color:#484C51;stop-opacity:0.0981"/>
		<stop  offset="0.6279" style="stop-color:#606469;stop-opacity:0.1257"/>
		<stop  offset="0.7608" style="stop-color:#808388;stop-opacity:0.1523"/>
		<stop  offset="0.8881" style="stop-color:#A5A9AE;stop-opacity:0.1778"/>
		<stop  offset="0.999" style="stop-color:#CDD0D5;stop-opacity:0.2"/>
	</linearGradient>
	<polygon fill="url(#svg1)" points="192.88,161.51 218.62,161.51 218.62,163.25 192.91,163.25 	"/>
</g>
<rect x="98.46" y="101.17" transform="matrix(0.7071 -0.7071 0.7071 0.7071 -42.0002 102.9522)" fill="#9AA0A6" width="9.63" height="2"/>
<rect x="156.61" y="25.1" fill="#676C71" width="1" height="7.79"/>
<path fill="#9AA0A6" d="M105.81,25.86v102.81h-4.75V25.86H105.81 M107.71,23.95h-8.56v106.62h8.56V23.95L107.71,23.95z"/>
<rect x="98.46" y="30.73" transform="matrix(0.7071 -0.7071 0.7071 0.7071 7.8134 82.3187)" fill="#9AA0A6" width="9.64" height="2"/>
<rect x="98.46" y="77.78" transform="matrix(0.7071 -0.7071 0.7071 0.7071 -25.4598 96.1009)" fill="#9AA0A6" width="9.63" height="2"/>
<rect x="98.46" y="66.02" transform="matrix(0.7071 -0.7071 0.7071 0.7071 -17.1415 92.6554)" fill="#9AA0A6" width="9.64" height="2"/>
<rect x="98.46" y="54.26" transform="matrix(0.7071 -0.7071 0.7071 0.7071 -8.8231 89.2098)" fill="#9AA0A6" width="9.63" height="2"/>
<rect x="98.46" y="42.49" transform="matrix(0.7071 -0.7071 0.7071 0.7071 -0.5048 85.7642)" fill="#9AA0A6" width="9.64" height="2"/>
<rect x="98.46" y="89.41" transform="matrix(0.7071 -0.7071 0.7071 0.7071 -33.682 99.5067)" fill="#9AA0A6" width="9.63" height="2"/>
<path fill="#9AA0A6" d="M107.62,17.31l44.75,4.45c1.4,0.14,2.58,0.96,3.21,2.11h-82.6c0.63-1.3,1.85-2.28,3.36-2.54l22.99-4.02
	H107.62 M107.71,15.31h-8.56L76,19.36c-3.16,0.55-5.47,3.3-5.47,6.51h87.56c0-3.15-2.39-5.79-5.53-6.1L107.71,15.31L107.71,15.31z"
	/>
<rect x="144.84" y="18.84" transform="matrix(0.7071 -0.7071 0.7071 0.7071 27.0086 109.6413)" fill="#9AA0A6" width="2" height="6.76"/>
<polygon fill="#9AA0A6" points="98.65,25.77 91.28,18.4 92.69,16.98 100.23,24.52 "/>
<polygon fill="#9AA0A6" points="83.6,25.58 78.42,20.4 79.83,18.98 85.37,24.52 "/>
<polygon fill="#9AA0A6" points="112.71,25.8 104.1,17.18 105.51,15.77 114.27,24.52 "/>
<polygon fill="#9AA0A6" points="124.48,25.8 116.84,18.16 118.26,16.75 126.03,24.52 "/>
<polygon fill="#9AA0A6" points="136.24,25.8 129.57,19.12 130.98,17.71 137.8,24.52 "/>
<g>
	
		<linearGradient id="svg2" gradientUnits="userSpaceOnUse" x1="-1.2359" y1="339.3028" x2="43.7765" y2="339.3028" gradientTransform="matrix(1 0 0.0206 0.8144 12.6737 -113.967)">
		<stop  offset="0" style="stop-color:#292D33;stop-opacity:0"/>
		<stop  offset="0.1889" style="stop-color:#2C3036;stop-opacity:0.0378"/>
		<stop  offset="0.3452" style="stop-color:#373A40;stop-opacity:0.0691"/>
		<stop  offset="0.49" style="stop-color:#484C51;stop-opacity:0.0981"/>
		<stop  offset="0.6279" style="stop-color:#606469;stop-opacity:0.1257"/>
		<stop  offset="0.7608" style="stop-color:#808388;stop-opacity:0.1523"/>
		<stop  offset="0.8881" style="stop-color:#A5A9AE;stop-opacity:0.1778"/>
		<stop  offset="0.999" style="stop-color:#CDD0D5;stop-opacity:0.2"/>
	</linearGradient>
	<polygon fill="url(#svg2)" points="18.42,161.51 63.43,161.51 63.43,163.25 18.46,163.25 	"/>
</g>
<rect x="62.26" y="107.18" fill="#9AA0A6" width="57.7" height="5.73"/>
<rect x="63.43" y="112.91" fill="#DADCE0" width="56.53" height="50.34"/>
<rect x="95.82" y="143.95" fill="#F1F3F4" width="17.6" height="14.71"/>
<rect x="72.11" y="144.1" fill="#F1F3F4" width="13.74" height="19.16"/>
<rect x="69.92" y="119.39" fill="#F1F3F4" width="43.56" height="16.18"/>
<rect x="119.96" y="74.74" fill="#4688F1" width="80.1" height="88.51"/>
<rect x="118.78" y="69.01" fill="#1E5DB9" width="82.47" height="5.73"/>
<linearGradient id="svg3" gradientUnits="userSpaceOnUse" x1="-3786.9639" y1="150.1364" x2="-3786.9639" y2="146.1582" gradientTransform="matrix(1 0 0 1 3865.9451 0)">
	<stop  offset="0" style="stop-color:#FFFFFF;stop-opacity:0"/>
	<stop  offset="0.2974" style="stop-color:#FDFDFD;stop-opacity:0.119"/>
	<stop  offset="0.4668" style="stop-color:#F4F4F5;stop-opacity:0.1867"/>
	<stop  offset="0.6041" style="stop-color:#E6E7E7;stop-opacity:0.2416"/>
	<stop  offset="0.7241" style="stop-color:#D3D3D4;stop-opacity:0.2896"/>
	<stop  offset="0.8329" style="stop-color:#B9BABB;stop-opacity:0.3332"/>
	<stop  offset="0.9321" style="stop-color:#9A9B9D;stop-opacity:0.3729"/>
	<stop  offset="1" style="stop-color:#808184;stop-opacity:0.4"/>
</linearGradient>
<rect x="72.11" y="146.16" fill="url(#svg3)" width="13.74" height="3.98"/>
<rect x="72.11" y="144.1" fill="#9AA0A6" width="13.74" height="2.41"/>
<linearGradient id="svg4" gradientUnits="userSpaceOnUse" x1="103.1469" y1="138.0784" x2="119.9616" y2="138.0784">
	<stop  offset="0" style="stop-color:#DADCE0;stop-opacity:0"/>
	<stop  offset="0.5546" style="stop-color:#D6D8DC;stop-opacity:0.3882"/>
	<stop  offset="1" style="stop-color:#CDCFD4;stop-opacity:0.7"/>
</linearGradient>
<polygon fill="url(#svg4)" points="103.15,163.22 119.96,163.25 119.96,112.91 103.15,124.27 "/>
<rect x="172.99" y="137.58" fill="#A0C2F7" width="19.89" height="25.67"/>
<rect x="182.39" y="137.65" fill="#4688F1" width="1.08" height="25.59"/>
<path fill="#E8F0FD" d="M160.53,157.46h-33.2c-0.91,0-1.65-0.74-1.65-1.65v-32.67h36.5v32.67
	C162.18,156.72,161.44,157.46,160.53,157.46z"/>
<path fill="#4688F1" d="M186.08,152.86c-0.3,0-0.54-0.24-0.54-0.54v-3.75c0-0.3,0.24-0.54,0.54-0.54s0.54,0.24,0.54,0.54v3.75
	C186.62,152.62,186.37,152.86,186.08,152.86z"/>
<path fill="#4688F1" d="M179.79,152.86c-0.3,0-0.54-0.24-0.54-0.54v-3.75c0-0.3,0.24-0.54,0.54-0.54s0.54,0.24,0.54,0.54v3.75
	C180.34,152.62,180.09,152.86,179.79,152.86z"/>
<path fill="#3068BC" d="M194.14,137.65c-0.2-5.97-5.1-10.75-11.11-10.75h-0.19c-6.02,0-10.91,4.78-11.11,10.75H194.14z"/>
<linearGradient id="svg5" gradientUnits="userSpaceOnUse" x1="160.0128" y1="103.3108" x2="160.0128" y2="74.7388">
	<stop  offset="0" style="stop-color:#4688F1;stop-opacity:0"/>
	<stop  offset="0.3399" style="stop-color:#4285EE;stop-opacity:0.204"/>
	<stop  offset="0.6435" style="stop-color:#387DE4;stop-opacity:0.3861"/>
	<stop  offset="0.9322" style="stop-color:#256ED4;stop-opacity:0.5593"/>
	<stop  offset="1" style="stop-color:#206ACF;stop-opacity:0.6"/>
</linearGradient>
<rect x="119.96" y="74.74" fill="url(#svg5)" width="80.1" height="28.57"/>
<path fill="#3068BC" d="M130.52,129.77h-5.36v-7.36c0-0.51,0.41-0.91,0.91-0.91h4.45V129.77z"/>
<rect x="130.52" y="121.5" fill="#A0C2F7" width="5.36" height="8.27"/>
<rect x="135.88" y="121.5" fill="#3068BC" width="5.36" height="8.27"/>
<rect x="141.25" y="121.5" fill="#A0C2F7" width="5.36" height="8.27"/>
<rect x="146.61" y="121.5" fill="#3068BC" width="5.36" height="8.27"/>
<rect x="151.97" y="121.5" fill="#A0C2F7" width="5.36" height="8.27"/>
<path fill="#3068BC" d="M162.7,129.77h-5.36v-8.27h4.45c0.5,0,0.91,0.41,0.91,0.91V129.77z"/>
<linearGradient id="svg6" gradientUnits="userSpaceOnUse" x1="143.9398" y1="141.1348" x2="143.9398" y2="129.77">
	<stop  offset="0" style="stop-color:#FFFFFF;stop-opacity:0"/>
	<stop  offset="0.2974" style="stop-color:#FDFDFD;stop-opacity:0.1784"/>
	<stop  offset="0.4668" style="stop-color:#F4F4F5;stop-opacity:0.2801"/>
	<stop  offset="0.6041" style="stop-color:#E6E7E7;stop-opacity:0.3625"/>
	<stop  offset="0.7241" style="stop-color:#D3D3D4;stop-opacity:0.4345"/>
	<stop  offset="0.8329" style="stop-color:#B9BABB;stop-opacity:0.4997"/>
	<stop  offset="0.9321" style="stop-color:#9A9B9D;stop-opacity:0.5593"/>
	<stop  offset="1" style="stop-color:#808184;stop-opacity:0.6"/>
</linearGradient>
<rect x="125.7" y="129.77" fill="url(#svg6)" width="36.48" height="11.36"/>
<linearGradient id="svg7" gradientUnits="userSpaceOnUse" x1="127.8386" y1="132.4515" x2="127.8386" y2="129.77">
	<stop  offset="0" style="stop-color:#336AB9"/>
	<stop  offset="0.501" style="stop-color:#3269B7"/>
	<stop  offset="0.7388" style="stop-color:#3164AF"/>
	<stop  offset="0.9206" style="stop-color:#2D5DA2"/>
	<stop  offset="1" style="stop-color:#2B589A"/>
</linearGradient>
<path fill="url(#svg7)" d="M125.16,129.77c0,1.48,1.2,2.68,2.68,2.68s2.68-1.2,2.68-2.68H125.16z"/>
<linearGradient id="svg8" gradientUnits="userSpaceOnUse" x1="133.2015" y1="132.4515" x2="133.2015" y2="129.77">
	<stop  offset="0" style="stop-color:#A1C3F5"/>
	<stop  offset="0.4602" style="stop-color:#A0C1F3"/>
	<stop  offset="0.6787" style="stop-color:#9BBCEB"/>
	<stop  offset="0.8456" style="stop-color:#92B2DE"/>
	<stop  offset="0.9863" style="stop-color:#86A4CC"/>
	<stop  offset="1" style="stop-color:#85A2CA"/>
</linearGradient>
<path fill="url(#svg8)" d="M130.52,129.77c0,1.48,1.2,2.68,2.68,2.68s2.68-1.2,2.68-2.68H130.52z"/>
<linearGradient id="svg9" gradientUnits="userSpaceOnUse" x1="138.5645" y1="132.4515" x2="138.5645" y2="129.77">
	<stop  offset="0" style="stop-color:#336AB9"/>
	<stop  offset="0.501" style="stop-color:#3269B7"/>
	<stop  offset="0.7388" style="stop-color:#3164AF"/>
	<stop  offset="0.9206" style="stop-color:#2D5DA2"/>
	<stop  offset="1" style="stop-color:#2B589A"/>
</linearGradient>
<path fill="url(#svg9)" d="M135.88,129.77c0,1.48,1.2,2.68,2.68,2.68s2.68-1.2,2.68-2.68H135.88z"/>
<linearGradient id="SVGID_10_" gradientUnits="userSpaceOnUse" x1="143.9275" y1="132.4515" x2="143.9275" y2="129.77">
	<stop  offset="0" style="stop-color:#A1C3F5"/>
	<stop  offset="0.4602" style="stop-color:#A0C1F3"/>
	<stop  offset="0.6787" style="stop-color:#9BBCEB"/>
	<stop  offset="0.8456" style="stop-color:#92B2DE"/>
	<stop  offset="0.9863" style="stop-color:#86A4CC"/>
	<stop  offset="1" style="stop-color:#85A2CA"/>
</linearGradient>
<path fill="url(#SVGID_10_)" d="M141.25,129.77c0,1.48,1.2,2.68,2.68,2.68s2.68-1.2,2.68-2.68H141.25z"/>
<linearGradient id="SVGID_11_" gradientUnits="userSpaceOnUse" x1="149.2905" y1="132.4515" x2="149.2905" y2="129.77">
	<stop  offset="0" style="stop-color:#336AB9"/>
	<stop  offset="0.501" style="stop-color:#3269B7"/>
	<stop  offset="0.7388" style="stop-color:#3164AF"/>
	<stop  offset="0.9206" style="stop-color:#2D5DA2"/>
	<stop  offset="1" style="stop-color:#2B589A"/>
</linearGradient>
<path fill="url(#SVGID_11_)" d="M146.61,129.77c0,1.48,1.2,2.68,2.68,2.68s2.68-1.2,2.68-2.68H146.61z"/>
<linearGradient id="SVGID_12_" gradientUnits="userSpaceOnUse" x1="154.6534" y1="132.4515" x2="154.6534" y2="129.77">
	<stop  offset="0" style="stop-color:#A1C3F5"/>
	<stop  offset="0.4602" style="stop-color:#A0C1F3"/>
	<stop  offset="0.6787" style="stop-color:#9BBCEB"/>
	<stop  offset="0.8456" style="stop-color:#92B2DE"/>
	<stop  offset="0.9863" style="stop-color:#86A4CC"/>
	<stop  offset="1" style="stop-color:#85A2CA"/>
</linearGradient>
<path fill="url(#SVGID_12_)" d="M151.97,129.77c0,1.48,1.2,2.68,2.68,2.68s2.68-1.2,2.68-2.68H151.97z"/>
<linearGradient id="SVGID_13_" gradientUnits="userSpaceOnUse" x1="160.0164" y1="132.4515" x2="160.0164" y2="129.77">
	<stop  offset="0" style="stop-color:#336AB9"/>
	<stop  offset="0.501" style="stop-color:#3269B7"/>
	<stop  offset="0.7388" style="stop-color:#3164AF"/>
	<stop  offset="0.9206" style="stop-color:#2D5DA2"/>
	<stop  offset="1" style="stop-color:#2B589A"/>
</linearGradient>
<path fill="url(#SVGID_13_)" d="M157.33,129.77c0,1.48,1.2,2.68,2.68,2.68s2.68-1.2,2.68-2.68H157.33z"/>
<linearGradient id="SVGID_14_" gradientUnits="userSpaceOnUse" x1="182.9343" y1="145.0034" x2="182.9343" y2="137.6519">
	<stop  offset="0" style="stop-color:#FFFFFF;stop-opacity:0"/>
	<stop  offset="0.2402" style="stop-color:#FDFDFD;stop-opacity:0.036"/>
	<stop  offset="0.377" style="stop-color:#F4F4F4;stop-opacity:0.0566"/>
	<stop  offset="0.488" style="stop-color:#E6E6E6;stop-opacity:0.0732"/>
	<stop  offset="0.5849" style="stop-color:#D3D3D3;stop-opacity:0.0877"/>
	<stop  offset="0.6729" style="stop-color:#B9B9B9;stop-opacity:0.1009"/>
	<stop  offset="0.7543" style="stop-color:#999999;stop-opacity:0.1131"/>
	<stop  offset="0.8307" style="stop-color:#747474;stop-opacity:0.1246"/>
	<stop  offset="0.9031" style="stop-color:#484848;stop-opacity:0.1355"/>
	<stop  offset="0.9699" style="stop-color:#181818;stop-opacity:0.1455"/>
	<stop  offset="1" style="stop-color:#000000;stop-opacity:0.15"/>
</linearGradient>
<rect x="172.99" y="137.65" fill="url(#SVGID_14_)" width="19.89" height="7.35"/>
<linearGradient id="SVGID_15_" gradientUnits="userSpaceOnUse" x1="164.8319" y1="120.9018" x2="164.8319" y2="106.3606">
	<stop  offset="0" style="stop-color:#4688F1;stop-opacity:0"/>
	<stop  offset="0.3115" style="stop-color:#4083EC;stop-opacity:0.1246"/>
	<stop  offset="0.7332" style="stop-color:#2F76DC;stop-opacity:0.2933"/>
	<stop  offset="1" style="stop-color:#206ACF;stop-opacity:0.4"/>
</linearGradient>
<polygon fill="url(#SVGID_15_)" points="200.06,120.9 129.6,120.9 152.05,106.36 199.94,106.36 "/>
<path fill="#A0C2F7" d="M214.61,113.63h-54.65c-4.37,0-7.91-3.54-7.91-7.91v0c0-4.37,3.54-7.91,7.91-7.91h54.65
	c4.37,0,7.91,3.54,7.91,7.91v0C222.52,110.09,218.98,113.63,214.61,113.63z"/>
<path fill="#F8F9FA" d="M214.61,101.47c2.35,0,4.26,1.91,4.26,4.26s-1.91,4.26-4.26,4.26l-54.65,0c-2.35,0-4.26-1.91-4.26-4.26
	c0-2.35,1.91-4.26,4.26-4.26H214.61 M214.61,100.17h-54.65c-3.07,0-5.56,2.49-5.56,5.56v0c0,3.07,2.49,5.56,5.56,5.56l54.65,0
	c3.07,0,5.56-2.49,5.56-5.56v0C220.17,102.66,217.68,100.17,214.61,100.17L214.61,100.17z"/>
<g>
	<path fill="#DF382B" d="M173.07,53.12h-4.34c0-4.83-3.93-8.77-8.77-8.77v-4.33C167.19,40.02,173.07,45.9,173.07,53.12z"/>
	<path fill="#FABB05" d="M159.97,66.22v-4.33c4.83,0,8.77-3.93,8.77-8.77h4.34C173.07,60.35,167.19,66.22,159.97,66.22z"/>
	<path fill="#34A853" d="M159.97,66.22c-7.22,0-13.1-5.88-13.1-13.1h4.33c0,4.83,3.93,8.77,8.77,8.77V66.22z"/>
	<path fill="#4688F1" d="M151.2,45.11h-4.33c0-7.22,5.88-13.1,13.1-13.1v4.33C155.13,36.34,151.2,40.27,151.2,45.11z"/>
</g>
<linearGradient id="SVGID_16_" gradientUnits="userSpaceOnUse" x1="100.1084" y1="37.6249" x2="100.1084" y2="25.8674">
	<stop  offset="0" style="stop-color:#9AA0A6;stop-opacity:0"/>
	<stop  offset="1" style="stop-color:#74787C"/>
</linearGradient>
<rect x="99.16" y="25.87" fill="url(#SVGID_16_)" width="1.9" height="11.76"/>
<linearGradient id="SVGID_17_" gradientUnits="userSpaceOnUse" x1="106.7642" y1="37.6249" x2="106.7642" y2="25.8674">
	<stop  offset="0" style="stop-color:#9AA0A6;stop-opacity:0"/>
	<stop  offset="1" style="stop-color:#74787C"/>
</linearGradient>
<rect x="105.81" y="25.87" fill="url(#SVGID_17_)" width="1.9" height="11.76"/>
<linearGradient id="SVGID_18_" gradientUnits="userSpaceOnUse" x1="100.1084" y1="83.4732" x2="100.1084" y2="71.7158" gradientTransform="matrix(-1 0 0 -1 206.8726 178.894)">
	<stop  offset="0" style="stop-color:#9AA0A6;stop-opacity:0"/>
	<stop  offset="1" style="stop-color:#74787C"/>
</linearGradient>
<polygon fill="url(#SVGID_18_)" points="105.81,95.42 107.71,95.42 107.71,107.18 105.81,107.18 "/>
<linearGradient id="SVGID_19_" gradientUnits="userSpaceOnUse" x1="106.7642" y1="83.4732" x2="106.7642" y2="71.7158" gradientTransform="matrix(-1 0 0 -1 206.8726 178.894)">
	<stop  offset="0" style="stop-color:#9AA0A6;stop-opacity:0"/>
	<stop  offset="1" style="stop-color:#74787C"/>
</linearGradient>
<polygon fill="url(#SVGID_19_)" points="99.16,95.42 101.06,95.42 101.06,107.18 99.16,107.18 "/>
<g>
	<path fill="#EFF0F2" d="M269.11,151.24h-51.06c-3.32,0-6.01,2.69-6.01,6.01v0c0,3.32,2.69,6.01,6.01,6.01h51.06
		c3.32,0,6.01-2.69,6.01-6.01v0C275.12,153.93,272.43,151.24,269.11,151.24z"/>
	<path fill="#80868B" d="M269.11,152.65c2.54,0,4.6,2.07,4.6,4.6s-2.07,4.6-4.6,4.6h-51.06c-2.54,0-4.6-2.07-4.6-4.6
		c0-2.54,2.07-4.6,4.6-4.6H269.11 M269.11,151.24h-51.06c-3.32,0-6.01,2.69-6.01,6.01v0c0,3.32,2.69,6.01,6.01,6.01h51.06
		c3.32,0,6.01-2.69,6.01-6.01v0C275.12,153.93,272.43,151.24,269.11,151.24L269.11,151.24z"/>
</g>
<path fill="#80868B" d="M218.07,159.44c-1.2,0-2.18-0.98-2.18-2.19c0-1.2,0.98-2.18,2.18-2.18c1.21,0,2.19,0.98,2.19,2.18
	C220.25,158.46,219.27,159.44,218.07,159.44z M218.07,156.47c-0.43,0-0.78,0.35-0.78,0.78c0,0.43,0.35,0.78,0.78,0.78
	c0.43,0,0.78-0.35,0.78-0.78C218.85,156.82,218.5,156.47,218.07,156.47z"/>
<path fill="#80868B" d="M269.06,159.44c-1.2,0-2.18-0.98-2.18-2.19c0-1.2,0.98-2.18,2.18-2.18c1.21,0,2.19,0.98,2.19,2.18
	C271.25,158.46,270.27,159.44,269.06,159.44z M269.06,156.47c-0.43,0-0.78,0.35-0.78,0.78c0,0.43,0.35,0.78,0.78,0.78
	c0.43,0,0.78-0.35,0.78-0.78C269.84,156.82,269.49,156.47,269.06,156.47z"/>
<rect x="244.07" y="127.2" fill="#676C71" width="1.41" height="7.4"/>
<rect x="231.72" y="134.6" fill="#FAC642" width="18.68" height="16.64"/>
<rect x="225.28" y="141.11" fill="#FAC642" width="2.31" height="4.17"/>
<path fill="#F8BA2D" d="M218.62,151.24h13.09v-9.32l-11.6,4.72c-0.9,0.37-1.49,1.25-1.49,2.22V151.24z"/>
<linearGradient id="SVGID_20_" gradientUnits="userSpaceOnUse" x1="218.6237" y1="146.5796" x2="231.7155" y2="146.5796">
	<stop  offset="0" style="stop-color:#FABB05"/>
	<stop  offset="0.2585" style="stop-color:#F9B70C;stop-opacity:0.8441"/>
	<stop  offset="0.6278" style="stop-color:#F6AC1F;stop-opacity:0.6213"/>
	<stop  offset="0.9945" style="stop-color:#F39E38;stop-opacity:0.4"/>
</linearGradient>
<path fill="url(#SVGID_20_)" d="M218.62,151.24h13.09v-9.32l-11.6,4.72c-0.9,0.37-1.49,1.25-1.49,2.22V151.24z"/>
<path fill="#FFFFFF" d="M248.27,149.19h-13.92c-0.32,0-0.58-0.28-0.58-0.62v-11.3c0-0.34,0.26-0.62,0.58-0.62h13.92
	c0.32,0,0.58,0.28,0.58,0.62v11.3C248.84,148.91,248.58,149.19,248.27,149.19z"/>
<path fill="#F8F9FA" d="M248.54,149.19h-7.19c-0.16,0-0.3-0.28-0.3-0.62v-11.3c0-0.34,0.13-0.62,0.3-0.62h7.19
	c0.16,0,0.3,0.28,0.3,0.62v11.3C248.84,148.91,248.71,149.19,248.54,149.19z"/>
<circle fill="#FFFFFF" cx="221.56" cy="148.94" r="0.92"/>
<path fill="#676C71" d="M250.54,133.16H231.6c-0.4,0-0.72,0.32-0.72,0.72l0,0c0,0.4,0.32,0.72,0.72,0.72h18.94
	c0.4,0,0.72-0.32,0.72-0.72l0,0C251.26,133.48,250.94,133.16,250.54,133.16z"/>
<path fill="#F8BA2D" d="M268.49,151.24h-18.1v-7.02h13.11c2.76,0,4.99,2.23,4.99,4.99V151.24z"/>
<linearGradient id="SVGID_21_" gradientUnits="userSpaceOnUse" x1="268.492" y1="147.7301" x2="250.3926" y2="147.7301">
	<stop  offset="0" style="stop-color:#FABB05"/>
	<stop  offset="0.37" style="stop-color:#FABA08;stop-opacity:0.7768"/>
	<stop  offset="0.6001" style="stop-color:#F8B510;stop-opacity:0.638"/>
	<stop  offset="0.7919" style="stop-color:#F6AC1F;stop-opacity:0.5223"/>
	<stop  offset="0.9618" style="stop-color:#F4A133;stop-opacity:0.4197"/>
	<stop  offset="0.9945" style="stop-color:#F39E38;stop-opacity:0.4"/>
</linearGradient>
<path fill="url(#SVGID_21_)" d="M268.49,151.24h-18.1v-7.02h13.11c2.76,0,4.99,2.23,4.99,4.99V151.24z"/>
<rect x="250.39" y="142.78" fill="#676C71" width="10.9" height="1.44"/>
<path fill="#676C71" d="M227.53,141.12h-2.21c-0.4,0-0.72-0.32-0.72-0.72l0,0c0-0.4,0.32-0.72,0.72-0.72h2.21
	c0.4,0,0.72,0.32,0.72,0.72l0,0C228.25,140.79,227.93,141.12,227.53,141.12z"/>
<circle fill="#676C71" cx="261.29" cy="143.5" r="0.72"/>
<rect x="189.79" y="88.36" fill="#FFFFFF" width="1" height="9.46"/>
<path fill="#F8BA2D" d="M260.93,135.16c-0.37,0-0.74-0.1-1.07-0.31l-70.64-44.8c-0.93-0.59-1.21-1.83-0.62-2.76
	c0.59-0.93,1.83-1.21,2.76-0.62l70.64,44.8c0.93,0.59,1.21,1.83,0.62,2.76C262.24,134.83,261.59,135.16,260.93,135.16z"/>
<linearGradient id="SVGID_22_" gradientUnits="userSpaceOnUse" x1="218.3349" y1="110.4299" x2="231.8566" y2="110.4299">
	<stop  offset="0" style="stop-color:#FABB05"/>
	<stop  offset="0.37" style="stop-color:#FABA08;stop-opacity:0.7768"/>
	<stop  offset="0.6001" style="stop-color:#F8B510;stop-opacity:0.638"/>
	<stop  offset="0.7919" style="stop-color:#F6AC1F;stop-opacity:0.5223"/>
	<stop  offset="0.9618" style="stop-color:#F4A133;stop-opacity:0.4197"/>
	<stop  offset="0.9945" style="stop-color:#F39E38;stop-opacity:0.4"/>
</linearGradient>
<path fill="url(#SVGID_22_)" d="M229.85,115.47c-0.37,0-0.74-0.1-1.07-0.31l-9.52-6.08c-0.93-0.59-1.21-1.83-0.62-2.76
	c0.59-0.93,1.83-1.21,2.76-0.62l9.52,6.08c0.93,0.59,1.21,1.83,0.62,2.76C231.16,115.14,230.52,115.47,229.85,115.47z"/>
<path fill="#F8BA2D" d="M259.03,136.69l-32.18-20.41l4.28-6.76l32.18,20.41c1.87,1.18,2.42,3.65,1.24,5.52l0,0
	C263.36,137.32,260.89,137.88,259.03,136.69z"/>
<circle fill="#676C71" cx="190.29" cy="88.36" r="1.05"/>
<circle fill="#676C71" cx="261.29" cy="133.39" r="1.05"/>
<linearGradient id="SVGID_23_" gradientUnits="userSpaceOnUse" x1="0" y1="181.4856" x2="319.8464" y2="181.4856">
	<stop  offset="0" style="stop-color:#FFFFFF"/>
	<stop  offset="0.5" style="stop-color:#E7E7E7"/>
	<stop  offset="1" style="stop-color:#FFFFFF"/>
</linearGradient>
<rect y="177.97" fill="url(#SVGID_23_)" width="319.85" height="7.03"/>
</svg>
