<svg width="14px" height="14px" version="1.1" xmlns="http://www.w3.org/2000/svg" xmlns:xlink="http://www.w3.org/1999/xlink">
    <defs>
        <polygon id="p1" points="0 0.0002 7 0.0002 7 7 0 7"></polygon>
        <polygon id="p3" points="0 0 6.9998 0 6.9998 7 0 7"></polygon>
        <polygon id="p5" points="0 0 7 0 7 6.9998 0 6.9998"></polygon>
    </defs>
    <g id="WIP" stroke="none" stroke-width="1" fill="none" fill-rule="evenodd">
        <g id="pg1">
            <path d="M7,0 L7,2.76 C9.34,2.766 11.234,4.661 11.24,7 L14,7 C14,3.134 10.866,0 7,0" id="f1" fill="#EA4335"></path>
            <g id="g5" transform="translate(7.000000, 7.000000)">
                <mask id="m2" fill="white">
                    <use xlink:href="#p1"></use>
                </mask>
                <g id="c4"></g>
                <path d="M0,4.2402 L0,7.0002 C3.866,7.0002 7,3.8662 7,0.0002 L4.24,0.0002 C4.234,2.3402 2.34,4.2342 0,4.2402" id="Fill-3" fill="#FBBC04" mask="url(#m2)"></path>
            </g>
            <g id="g8" transform="translate(0.000000, 7.000000)">
                <mask id="m4" fill="white">
                    <use xlink:href="#p3"></use>
                </mask>
                <g id="c7"></g>
                <path d="M2.7598,0 L-0.0002,0 C-0.0002,3.866 3.1338,7 6.9998,7 L6.9998,4.24 C4.6608,4.234 2.7658,2.34 2.7598,0" id="Fill-6" fill="#34A853" mask="url(#m4)"></path>
            </g>
            <g id="g11">
                <mask id="m6" fill="white">
                    <use xlink:href="#p5"></use>
                </mask>
                <g id="c10"></g>
                <path d="M7,2.7598 L7,-0.0002 C3.134,-0.0002 0,3.1338 0,6.9998 L2.76,6.9998 C2.766,4.6608 4.661,2.7658 7,2.7598" id="Fill-9" fill="#4285F4" mask="url(#m6)"></path>
            </g>
        </g>
    </g>
</svg>
