<?xml version="1.0" encoding="utf-8"?>
<!-- Generator: Adobe Illustrator 16.0.4, SVG Export Plug-In . SVG Version: 6.00 Build 0)  -->
<!DOCTYPE svg PUBLIC "-//W3C//DTD SVG 1.1//EN" "http://www.w3.org/Graphics/SVG/1.1/DTD/svg11.dtd">
<svg version="1.1" id="Layer_1" xmlns="http://www.w3.org/2000/svg" xmlns:xlink="http://www.w3.org/1999/xlink" x="0px" y="0px"
	 width="108px" height="108px" viewBox="0 0 108 108" enable-background="new 0 0 108 108" xml:space="preserve">
<g id="ic_x5F_volumeUp_2">
	<path fill="#E65345" d="M13.484,40.579c0-0.018,0,26.969,0,26.969h17.979l22.474,22.474V18.105L31.463,40.579H13.484z
		 M74.163,54.063c0-7.936-4.582-14.788-11.236-18.102v36.203C69.581,68.852,74.163,61.999,74.163,54.063z M62.927,14.647v9.274
		C75.921,27.789,85.4,39.815,85.4,54.063s-9.479,26.275-22.474,30.143v9.274c18.009-4.096,31.463-20.17,31.463-39.417
		C94.39,34.816,80.936,18.737,62.927,14.647z"/>
</g>
<g id="ic_x5F_volumeOff_2">
</g>
</svg>
