<?xml version="1.0" encoding="utf-8"?>
<!-- Generator: Adobe Illustrator 16.0.4, SVG Export Plug-In . SVG Version: 6.00 Build 0)  -->
<!DOCTYPE svg PUBLIC "-//W3C//DTD SVG 1.1//EN" "http://www.w3.org/Graphics/SVG/1.1/DTD/svg11.dtd">
<svg version="1.1" id="Layer_1" xmlns="http://www.w3.org/2000/svg" xmlns:xlink="http://www.w3.org/1999/xlink" x="0px" y="0px"
	 width="108px" height="108px" viewBox="0 0 108 108" enable-background="new 0 0 108 108" xml:space="preserve">
<path fill="#E65345" d="M89.209,45.053H76.006v-5.024c7.582-1.964,13.203-8.789,13.203-16.981H76.006v-4.401
	c0-2.433-1.969-4.401-4.402-4.401H36.396c-2.431,0-4.402,1.969-4.402,4.401v4.401H18.791c0,8.192,5.624,15.017,13.203,16.981v5.024
	H18.791c0,8.191,5.624,15.017,13.203,16.981v5.023H18.791c0,8.193,5.624,15.019,13.203,16.982v5.024c0,2.433,1.971,4.4,4.402,4.4
	h35.208c2.433,0,4.402-1.968,4.402-4.4V84.04c7.582-1.964,13.203-8.789,13.203-16.982H76.006v-5.023
	C83.587,60.07,89.209,53.245,89.209,45.053z M54.004,84.663c-4.866,0-8.802-3.938-8.802-8.802c0-4.861,3.937-8.804,8.802-8.804
	c4.863,0,8.803,3.942,8.803,8.804C62.807,80.725,58.868,84.663,54.004,84.663z M54.004,62.658c-4.866,0-8.802-3.938-8.802-8.804
	c0-4.86,3.937-8.801,8.802-8.801c4.863,0,8.803,3.941,8.803,8.801C62.807,58.721,58.868,62.658,54.004,62.658z M54.004,40.652
	c-4.866,0-8.802-3.937-8.802-8.802s3.937-8.802,8.802-8.802c4.863,0,8.803,3.937,8.803,8.802S58.868,40.652,54.004,40.652z"/>
<g id="ic_x5F_volumeUp_2">
</g>
<g id="ic_x5F_volumeOff_2">
</g>
</svg>
