<?xml version="1.0" encoding="utf-8"?>
<!-- Generator: Adobe Illustrator 21.1.0, SVG Export Plug-In . SVG Version: 6.00 Build 0)  -->
<svg version="1.1" id="Layer_1" xmlns="http://www.w3.org/2000/svg" xmlns:xlink="http://www.w3.org/1999/xlink" x="0px" y="0px"
	 width="24px" height="24px" viewBox="0 0 24 24" enable-background="new 0 0 24 24" xml:space="preserve">
<path fill="none" d="M0,0h24v24H0V0z"/>
<g>
	<path d="M23.8,11.68L19,7.2v2.56c-4.66,0.65-6.52,3.84-7.2,7.04c1.66-2.24,3.86-3.26,7.2-3.26v2.62L23.8,11.68z"/>
	<path d="M6,3.67c-3.22,0-5.83,2.61-5.83,5.83C0.17,13.88,6,20.33,6,20.33s5.83-6.46,5.83-10.83C11.83,6.28,9.22,3.67,6,3.67z
		 M6,11.58c-1.15,0-2.08-0.93-2.08-2.08S4.85,7.42,6,7.42S8.08,8.35,8.08,9.5S7.15,11.58,6,11.58z"/>
</g>
</svg>
