<svg xmlns="http://www.w3.org/2000/svg" width="480" height="480" version="1" viewBox="0 0 480 480"><path fill="#FFF" fill-rule="evenodd" d="M422 369h-.2l-4-137h.2-.2l-46.5-121.6c-4-10.4-16-18.4-27.2-18L292.6 94l-1-39.2-120 4 .8 39.2-50.7 1.7c-11 .4-22.6 9.3-26 19.8L58.4 241l3.5 137.8V405c0 11.2 8.8 20 19.8 20h20c11 0 20.4-8.8 20.4-19.8V380l240-8v31.3c0 11 8.6 19.7 19.7 19.7h20c11 0 20-8.8 20-19.8l.3-33.2v-1zM123.4 123l220-7.8 33 89-279.6 9.3 26.5-90.5zm5.6 189.4c-16.5 0-30-13.5-30-30 0-16.6 13.5-30 30-30 16.6 0 30 13.4 30 30 0 16.5-13.4 30-30 30zm220-7.8c-16.6 0-30-13.4-30-30s13.4-30 30-30c16.5 0 30 13.4 30 30s-13.5 30-30 30z" clip-rule="evenodd"/></svg>