<svg xmlns="http://www.w3.org/2000/svg" width="480" height="480" version="1" viewBox="0 0 480 480"><path fill="#FFF" fill-rule="evenodd" d="M380.5 113c-3.4-10.4-15.2-19-26.2-19.2L303 93l.3-39.6-120-1.7-.2 39.6-51.7-.7c-11-.2-23 8-27 18.3l-44 120-1.2 141v32c-.2 11 8.7 20 19.7 20h20c11 0 20.3-9.4 20.3-20.4v-31.2l240 3.5v34.3c0 11 8.7 19.7 19.7 19.7h20c11 0 20.3-8.6 20.3-19.7v-58.5l2-113.8-40.5-123zM130.2 303c-16.6 0-30-13.5-30-30 0-16.6 13.4-30 30-30s30 13.4 30 30c0 16.5-13.4 30-30 30zm220 3.3c-16.7 0-30-13.4-30-30s13.3-30 30-30c16.5 0 30 13.4 30 30s-13.5 30-30 30zm-249-104l31.6-89 219.8 3 28.3 90.4-279.8-4.4z" clip-rule="evenodd"/></svg>