<svg xmlns="http://www.w3.org/2000/svg" width="480" height="480" version="1" viewBox="0 0 480 480"><path fill="#FFF" fill-rule="evenodd" d="M383.7 122.2c-3.3-10.6-15-19.4-26-19.8l-51.2-1.7 1-39.8-120-3.8-.8 39.6-51-1.7c-11-.3-23.3 7.8-27.3 18L62 233l35.5 1-35.4-1-3.8 140v30c.2 11.2 9.2 20.2 20.2 20.2h20c11 0 19.6-9 19.6-20.2v-28l240 8.3v14c0 11 9.4 20 20.4 20h20c11 0 19.6-9 19.6-20v-18.3l3.6-135-38-121.5zM130.5 307.7c-16.5 0-30-13.4-30-30s13.5-30 30-30c16.6 0 30 13.5 30 30s-13.4 30-30 30zm220.3 6.8c-16.5 0-30-13.4-30-30 0-16.5 13.5-30 30-30 16.6 0 30 13.5 30 30 0 16.6-13.4 30-30 30zM102.4 207.2l33.5-89.4 220 7 26.7 90.6-280.3-8.2z" clip-rule="evenodd"/></svg>