<svg xmlns="http://www.w3.org/2000/svg" width="480" height="480" version="1" viewBox="0 0 480 480"><path fill="#FFF" fill-rule="evenodd" d="M418 231l-46.2-120.3c-4-10.3-16-18.4-27-18L293 94.3 291.8 54l-120.3 4 1 40-51.2 1.7c-11 .3-22.6 9.2-25.8 19.7L58.2 241.6 61.6 373v33c-.2 11 8.8 20 19.8 20h20c11 0 19.5-9 19.5-20v-26.3l241-8V398c0 11 8.5 20 19.5 20h20c11 0 20-9 20.2-20l.2-28-4-139zM123.3 122.5l220-7.8 33 89L96.7 213l26.6-90.5zM129 312c-16.6 0-30-13.6-30-30 0-16.7 13.4-30 30-30 16.5 0 30 13.3 30 30 0 16.4-13.5 30-30 30zm220-7.3c-16.5 0-30-13.5-30-30 0-16.6 13.5-30 30-30 16.7 0 30 13.4 30 30 0 16.5-13.3 30-30 30z" clip-rule="evenodd"/></svg>