<svg xmlns="http://www.w3.org/2000/svg" width="480" height="480" version="1" viewBox="0 0 480 480"><path fill="#FFF" fill-rule="evenodd" d="M418.4 232l-45-120c-4-10.3-16-18.4-27-18L295 95.2 294 56l-120 3 .8 39.5-51.4 1.4c-11 .2-22.7 9-26 19.5L58.4 243l3 124.4V404c0 11 9 20 20 20h20c11 0 19.6-9 19.6-20v-24l240-6.7V392c0 11 9.3 20 20.4 20h20c11 0 20-8.7 20-19.8l.3-20.2-3.3-140zM125.2 122.3l220.2-5.3 32 88.7L98.2 213l27-90.7zm4.5 190c-16.6 0-30-13.5-30-30 0-16.7 13.4-30 30-30s30 13.3 30 30c0 16.5-13.4 30-30 30zm219.6-5.7c-16.6 0-30-13.4-30-30 0-16.5 13.4-30 30-30s30 13.5 30 30c0 16.6-13.4 30-30 30z" clip-rule="evenodd"/></svg>