<svg xmlns="http://www.w3.org/2000/svg" width="480" height="480" version="1" viewBox="0 0 480 480"><path fill="#FFF" fill-rule="evenodd" d="M418.8 236.5h-2 2L375.2 117c-3.8-10.4-15.8-18.7-26.8-18.6l-51.4.8-.7-40-120 1.3V101l-51 .7c-11 .2-23 8.6-26.4 19L59 241l1.7 131.7v28c-.2 11 8.7 20.3 19.8 20.3h20c11 0 19.5-9.2 19.5-20.2V382l241-3.3V393c0 11 8.5 20 19.5 20h20c11 0 20-9 20.2-20l.2-15-2.2-141.5zM126.8 124l220.4-3.4 31.3 89.4-279.8 4.4 28-90.3zm2.6 190c-16.5 0-30-13.4-30-30 0-16.5 13.5-30 30-30 16.6 0 30 13.5 30 30 0 16.6-13.4 30-30 30zm220-3.5c-16.5 0-30-13.4-30-30s13.5-30 30-30c16.6 0 30 13.4 30 30s-13.4 30-30 30z" clip-rule="evenodd"/></svg>