<svg xmlns="http://www.w3.org/2000/svg" width="480" height="480" version="1" viewBox="0 0 480 480"><path fill="#FFF" fill-rule="evenodd" d="M420 233h.2l-41.8-121.7C374.8 100.8 363 92 352 92h-52l.8-40-120.4-.2L180 92h-51.6c-11 0-23 8.8-26.6 19.2L60.4 230l-.5 140.4-.2 37.6c0 11 8.8 20 20 20h20c11 0 20.2-9 20.2-20v-36.5l240 1V406c0 11 8.7 20 19.7 20h20c11 0 20-8.8 20.2-19.8l.2-33.2h-.2V233zm-290 71c-16.4 0-30-13.5-30-30 0-16.6 13.6-30 30-30 16.7 0 30 13.4 30 30 0 16.5-13.3 30-30 30zm219.8.6c-16.5 0-30-13.5-30-30 0-16.6 13.5-30 30-30 16.6 0 30 13.4 30 30 0 16.5-13.4 30-30 30zM100.2 204l30.3-90 219.8.5 30 90.3-280-1z" clip-rule="evenodd"/></svg>