<svg xmlns="http://www.w3.org/2000/svg" width="480" height="480" version="1" viewBox="0 0 480 480"><path fill="#FFF" fill-rule="evenodd" d="M422.2 245l-37.5-122c-3.3-10.5-15-19.4-26-19.8l-51.7-1.8 1.4-39.8-119.8-4.2-1.6 39.8-51.4-1.8c-11-.4-23.2 7.7-27.2 18L62 234.4l-4.2 137.4.2 31c0 11 9 20.2 20 20.2h20c11 0 20-9.4 20-20.5v-28.3l240 9.3v19c0 11.2 9 20.5 20 20.5h20c11 0 20-9.3 20-20.4v-25.4l4.2-132h-1 1zm-291.4 62.6c-16.6 0-30-13.5-30-30s13.4-30 30-30 30 13.4 30 30-13.4 30-30 30zm220 7.7c-16.7 0-30-13.4-30-30s13.3-30 30-30c16.5 0 30 13.4 30 30s-13.5 30-30 30zM103 206.6l33.2-88.8 220 7.5 27 91-280.2-9.7z" clip-rule="evenodd"/></svg>