<svg xmlns="http://www.w3.org/2000/svg" width="480" height="480" version="1" viewBox="0 0 480 480"><path fill="#FFF" fill-rule="evenodd" d="M419.3 241l-41.8-119.7C374 111 362 102.6 351 102.6h-51.4l-.2-39.4-120.5.5.3 39.3h-51.5c-11 .2-22.7 8.7-26.2 19L60 243.6V383h-.4v14c.3 11 9.4 20 20.4 20h20c11 0 20-9.2 20-20.2v-14l240-.7v14c0 11 9 20 20 20h20c11 0 20-9 20.2-20l.2-14-1-141zm-289.7 74.6c-16.5 0-30-13.5-30-30 0-16.6 13.5-30 30-30 16.6 0 30 13.4 30 30 0 16.5-13.4 30-30 30zm220.3-.3c-16.6 0-30-13.4-30-30s13.4-30 30-30c16.5 0 30 13.5 30 30s-13.5 30-30 30zM100 215l29-89.4 220.5-1L380 215H100z" clip-rule="evenodd"/></svg>