<svg xmlns="http://www.w3.org/2000/svg" width="480" height="480" version="1" viewBox="0 0 480 480"><path fill="#FFF" fill-rule="evenodd" d="M382.3 121.2c-3.4-10.5-15-19.2-26-19.4l-51.2-1 .5-40-120.2-2.6-1 40-51-1.2c-11-.3-23 8.2-27 18.5L61.4 237l-2.7 138 .3 26.7c0 11 9 20.3 20 20.3h20c11 0 20-9 20-20.2v-25l240 6.5v11.5c0 11 9 20.2 20 20.2h20c11 0 20-9 20-20.2v-10l2.4-141.2-39-122.4zm-251.6 188c-16.6 0-30-13.4-30-30s13.4-30 30-30 30 13.5 30 30-13.4 30-30 30zm219.8 4.7c-16.6 0-30-13.5-30-30 0-16.7 13.4-30 30-30 16.5 0 30 13.3 30 30 0 16.5-13.5 30-30 30zM102.5 208l32-88.8 219.4 5 27.4 90.2-278.8-6.4z" clip-rule="evenodd"/></svg>