<svg xmlns="http://www.w3.org/2000/svg" width="480" height="480" version="1" viewBox="0 0 480 480"><path fill="#FFF" fill-rule="evenodd" d="M421 369.4v-4l-2.5-132.7-44.7-120.3c-3.8-10.3-16-18.5-27-18.3l-51 1.2-1-39.6L175 57v40.8l-50.7 1c-11 .3-22.8 9-26.2 19.5l-39 121v.4l-.2.3 2.4 140.8h.2v23.5c0 11 8.8 19.7 20 19.7h20c11 0 19.6-8.5 19.6-19.6v-25l240-5v27c0 11 9 19.6 20 19.6h20c11.2 0 20-8.6 20-19.6v-32zm-295.5-248l220.4-5 31.4 89.4-279 6.3 27-90.6zm4 189.8c-16.5 0-30-13.4-30-30 0-16.5 13.5-30 30-30 16.6 0 30 13.5 30 30 0 16.6-13.4 30-30 30zm220-4.7c-16.7 0-30-13.5-30-30s13.3-30 30-30c16.5 0 30 13.4 30 30s-13.5 30-30 30z" clip-rule="evenodd"/></svg>