<svg xmlns="http://www.w3.org/2000/svg" width="480" height="480" version="1" viewBox="0 0 480 480"><path fill="#FFF" fill-rule="evenodd" d="M420.8 242l-40.6-120.7c-3.5-10.5-15-19-26.2-19l-51-.6v-39l-120.4-1.3-.6 39-51.2-.4c-11 0-23 8-27 18.5L61 237l-1.8 140v2l.2 19.8c0 11 9 20.2 20.2 20.2h20c11 0 20.4-9.4 20.4-20.4v-18.8l240 3v12.7c0 11 8.5 20.5 19.6 20.5h20c11 0 20.4-9.4 20.4-20.5v-12l1-141.5h-.2zm-290.6 71c-16.6 0-30-13.4-30-30s13.4-30 30-30 30 13.4 30 30-13.4 30-30 30zm220 2.3c-16.5 0-30-13.4-30-30s13.5-30 30-30 30 13.4 30 30-13.4 30-30 30zm-248.6-103l30.8-89 219.2 2 29.2 90.2-279.2-3.3z" clip-rule="evenodd"/></svg>