<svg xmlns="http://www.w3.org/2000/svg" width="337" height="121" xmlns:xlink="http://www.w3.org/1999/xlink"><defs><path id="a" d="M0 0h337v118c0 1.66-1.34 3-3 3H3c-1.66 0-3-1.34-3-3V0z"/><path id="c" d="M.17 81.2H111.9V.05H.16z"/><path id="e" d="M.17 81.2H111.9V.05H.16z"/><path id="g" d="M.17 17.4h29.38V.22H.17z"/><path id="i" d="M.17 17.4h29.38V.22H.17z"/><path id="k" d="M.18 55.5h75.78V.03H.18z"/><path id="m" d="M.18 55.5h75.78V.03H.18z"/><path id="o" d="M.2 60.84h49.5V.24H.2z"/><path id="q" d="M.2 60.84h49.5V.24H.2z"/><path id="s" d="M.2 60.84h49.5V.24H.2z"/><path id="u" d="M.13 46.8h57.9V.1H.12z"/><path id="w" d="M.13 46.8h57.9V.1H.12z"/><path id="x" d="M.13 46.8h57.9V.1H.12z"/><path id="z" d="M.13 46.8h57.9V.1H.12z"/><path id="B" d="M.13 46.8h57.9V.1H.12z"/><path id="D" d="M.05 31.43h145.67V.16H.05z"/><path id="F" d="M.05 31.43h145.67V.16H.05z"/><path id="H" d="M.1 61.53H32.3V.17H.1z"/><path id="J" d="M.1 61.53H32.3V.17H.1z"/><path id="L" d="M164.82 97.86V0H.06v97.86z"/><path id="N" d="M164.82 97.86V0H.06v97.86z"/><path id="P" d="M.13 93.33H87.9V0H.14z"/><path id="R" d="M.13 93.33H87.9V0H.14z"/><path id="S" d="M.13 93.33H87.9V0H.14z"/><path id="U" d="M.13 93.33H87.9V0H.14z"/><path id="W" d="M.13 93.33H87.9V0H.14z"/><path id="Y" d="M58.98 86.38V.03H.22v86.35z"/><path id="aa" d="M58.98 86.38V.03H.22v86.35z"/><path id="ac" d="M58.98 86.38V.03H.22v86.35z"/><path id="ae" d="M58.98 86.38V.03H.22v86.35z"/><path id="ag" d="M.18 97.96h201.96V.1H.18z"/><path id="ai" d="M.18 97.96h201.96V.1H.18z"/><path id="ak" d="M.18 97.96h201.96V.1H.18z"/><path id="am" d="M.18 97.96h201.96V.1H.18z"/><path id="ao" d="M.2 121.35H281V0H.2z"/><path id="aq" d="M.2 121.35H281V0H.2z"/><path id="as" d="M337.3 18.9V.26H.2V18.9z"/><path id="au" d="M337.3 18.9V.26H.2V18.9z"/><path id="aw" d="M107.82 48.8V.03H0V48.8z"/><path id="ay" d="M107.82 48.8V.03H0V48.8z"/><path id="aA" d="M.28 118.03H189V.03H.28z"/><path id="aB" d="M.28 118.03H189V.03H.28z"/><path id="aD" d="M.28 118.03H189V.03H.28z"/><path id="aF" d="M.28 118.03H189V.03H.28z"/><path id="aH" d="M.28 118.03H189V.03H.28z"/><path id="aJ" d="M.28 118.03H189V.03H.28z"/><path id="aL" d="M.28 118.03H189V.03H.28z"/><path id="aN" d="M.28 118.03H189V.03H.28z"/><path id="aP" d="M.28 118.03H189V.03H.28z"/><path id="aR" d="M.28 118.03H189V.03H.28z"/><path id="aT" d="M.28 118.03H189V.03H.28z"/><path id="aV" d="M.28 118.03H189V.03H.28z"/><path id="aX" d="M197.6 111.7H0V.05h197.6z"/><path id="aZ" d="M197.6 111.7H0V.05h197.6z"/><path id="bb" d="M197.6 111.7H0V.05h197.6z"/><path id="bd" d="M197.6 111.7H0V.05h197.6z"/><path id="bf" d="M197.6 111.7H0V.05h197.6z"/><path id="bh" d="M197.6 111.7H0V.05h197.6z"/><path id="bj" d="M.13 48.8h86.34V.1H.13z"/><path id="bl" d="M.13 48.8h86.34V.1H.13z"/><path id="bn" d="M.13 48.8h86.34V.1H.13z"/><path id="bp" d="M.15 32.44h125.47V.08H.15z"/><path id="br" d="M.15 32.44h125.47V.08H.15z"/><path id="bt" d="M.12 94.95H46.9V.3H.12z"/><path id="bv" d="M.12 94.95H46.9V.3H.12z"/><path id="bx" d="M.1 35.06h27.03V.26H.1z"/><path id="bz" d="M.1 35.06h27.03V.26H.1z"/><path id="bB" d="M.08 99.97h37.9V.27H.1z"/><path id="bD" d="M.08 99.97h37.9V.27H.1z"/><path id="bF" d="M.2 100.67h161.67V0H.2z"/><path id="bH" d="M.2 100.67h161.67V0H.2z"/><path id="bJ" d="M.2 34.05h25.6V.22H.2z"/><path id="bL" d="M.2 34.05h25.6V.22H.2z"/><path id="bN" d="M0 61.84h36.94V.02H0z"/><path id="bP" d="M0 61.84h36.94V.02H0z"/><path id="bR" d="M16.18 77.2H0V.07h16.18z"/><path id="bT" d="M16.18 77.2H0V.07h16.18z"/><path id="bV" d="M45 74.2H0V.22h45z"/><path id="bX" d="M45 74.2H0V.22h45z"/><path id="bZ" d="M45 74.2H0V.22h45z"/><path id="cb" d="M.25 39.15h30.32V.08H.25z"/><path id="cd" d="M.25 39.15h30.32V.08H.25z"/><path id="cf" d="M17.92 76.9H0V.2h17.92z"/><path id="ch" d="M17.92 76.9H0V.2h17.92z"/><path id="cj" d="M46.54 50.8H0V.15h46.54z"/><path id="cl" d="M46.54 50.8H0V.15h46.54z"/></defs><g fill="none" fill-rule="evenodd"><mask id="b" fill="#fff"><use xlink:href="#a"/></mask><use fill="#D8D8D8" xlink:href="#a"/><g mask="url(#b)"><path fill="#FDD835" fill-rule="nonzero" d="M254.96 83.6l-2.04-6.85c-1.58.17-3.2.28-4.85.28-2.27 0-4.6-.2-7-.65-1.36-.26-2.7-.44-4.02-.55l4.57 11.3 13.34-3.53M283.14 38.73c-1.14-.8-2.34-1.54-2.88-1.76-.56-.23-1.83-.58-2.97-1.1-1.24 1.26-2.58 2.38-3.74 3.23l9.58-.37M327 105.26l-2.2-5.5-3.65 1.3 5.18 4 .68.2M147.75 49.98l9.34 2.68c-1.17-2.55-1.94-5.22-1.94-7.85 0-.26.03-.52.04-.8l-9.34-.6-.8 7.1c.78-.53 1.84-.76 2.7-.52"/><g transform="translate(185.02 40.135)"><mask id="d" fill="#fff"><use xlink:href="#c"/></mask><path fill="#FDD835" fill-rule="nonzero" d="M104.8 2.6c.4.1 4.8.18 6.74.2l.35-2.42-8.7-.24h-.02c-.1 0-.18-.02-.26-.06l-.08-.03h-.4c.78.97 2 2.43 2.35 2.54" mask="url(#d)"/></g><g transform="translate(185.02 40.135)"><mask id="f" fill="#fff"><use xlink:href="#e"/></mask><path fill="#FDD835" fill-rule="nonzero" d="M37.36 75.88h-.16c-.3 0-.56-.14-.7-.4l-4.62-7.72-.02-.06-.1-.2v-.06L30.33 56.6l-1.86-5.8c-.08-.27-.03-.55.15-.77L39.3 37.3c-3.45 1.34-6.22 3.42-8 6.13-4.22 6.45-11.05 12.96-12.85 14.64-.15 1.1-.54 3.53-1.27 6.35-1 3.8-2.5 8.27-5.23 11.2-2.95 3.14-7 3.72-10.2 3.72-.55 0-1.07-.02-1.58-.04l.48 1.97h54.28L52.38 73l-15.02 2.88" mask="url(#f)"/></g><path fill="#FDD835" fill-rule="nonzero" d="M325.73 106.6l-.3-.14-5.7-4.43-.9 11.95 11.05-.77-2.15-6.05-2-.54M309.03 60.37l-12.36 4.72-.38 2.6c4.45-1.92 12.86-6.2 14-6.77l-1.27-.56M222.78 86.87c-.17-.36-.05-.8.28-1l7.05-4.82-2.16-2.56-2.56.2-10.18 12.17 1.48 4.65 8.73-3-2.62-5.65M201.02 43.84c2.58 1.07 8.54 3.25 14.9 3.94.45-2 1.3-5.78 2.28-10.03l-17.3 6.04.12.04M199.68 29.86l.78 12.36 16.9-5.9-17.68-6.46M190.85 39.37l-3.02 3.18 9.38.46-.24-3.88-6.1.25M218.65 30.16h-.04.05l.44.28-.45-.27M217.65 29.93l.4.1-.15-.04-.25-.07M234.84 70.38l.85 2.1c1.95.07 3.96.3 6 .7 2.16.4 4.3.58 6.37.58 1.32 0 2.62-.07 3.9-.2l-.25-.8c-1.62-.08-3.15-.23-4.55-.4-3.1-.36-7.62-1.63-12.33-1.98M316.3 113.9c.2-.1.43-.15.67-.16l.23.02.86-11.6-4.23 1.48 2.47 10.27M323.6 96.73l-2.03-5.02-.05-.35.6-9.52-4.65 1.96.06 9.34 1.66 5.15 4.4-1.57"/><g transform="translate(285.1 103.96)"><mask id="h" fill="#fff"><use xlink:href="#g"/></mask><path fill="#FDD835" fill-rule="nonzero" d="M19.4 2.96l.06 3.53 10.1 3.62-2.4-9.9-7.75 2.74" mask="url(#h)"/></g><g transform="translate(285.1 103.96)"><mask id="j" fill="#fff"><use xlink:href="#i"/></mask><path fill="#FDD835" fill-rule="nonzero" d="M.17 17.45H5.4L.54 15.83l-.36 1.62" mask="url(#j)"/></g><path fill="#FDD835" fill-rule="nonzero" d="M122.5 0h-1l-.04.42L122.5 0M191.1 92.04h-.15.14"/><g transform="translate(232.84 65.834)"><mask id="l" fill="#fff"><use xlink:href="#k"/></mask><path fill="#FDD835" fill-rule="nonzero" d="M11.83 3.3c1.96.32 4.06.55 6.16.63l-.62-2.06c-3-.12-6.52-.57-10.96-1.38C4.7.16 3 0 1.35 0 .95.02.57.05.18.07L1.22 2.6c4.08-.06 7.95.28 10.6.7" mask="url(#l)"/></g><g transform="translate(232.84 65.834)"><mask id="n" fill="#fff"><use xlink:href="#m"/></mask><path fill="#FDD835" fill-rule="nonzero" d="M71.88 55.57h4.08l-4.1-2.23.02 2.23" mask="url(#n)"/></g><path fill="#FDD835" fill-rule="nonzero" d="M292.35 71.96l.07-.46c-1.45.05-3.3-.2-5.28-1.3-4.55-2.46-12.35-6.33-19.72-1.5-4.83 3.18-9.66 4.04-13.97 4.07l.18.6c6-.83 11.52-2.77 16.25-4.12 1.26-.36 2.56-.5 3.85-.5 6.38.04 12.77 3.4 14.86 4.6l3.75-1.4"/><g transform="translate(251.74 60.51)"><mask id="p" fill="#fff"><use xlink:href="#o"/></mask><path fill="#FDD835" fill-rule="nonzero" d="M27.5 3.8c6.22 2.7 10.96 4.28 13.6 4.35l.48-3.37-15.4-3.66-.48-.2c-.16-.08-1.36-.7-3.35-.7-1.7 0-4.02.44-6.9 2.15C10.7 5.25 6.8 7.24.22 7.23L.83 9.3c3.8 0 7.5-.55 10.3-2.07C15.9 4.65 20.35.67 27.5 3.8" mask="url(#p)"/></g><g transform="translate(251.74 60.51)"><mask id="r" fill="#fff"><use xlink:href="#q"/></mask><path fill="#FDD835" fill-rule="nonzero" d="M39.2 51.2l-3.23 1.13-.6.2-1.13 5.15 9.74 3.22h5.7l-.05-4.05L39.2 51.2" mask="url(#r)"/></g><g transform="translate(251.74 60.51)"><mask id="t" fill="#fff"><use xlink:href="#s"/></mask><path fill="#FDD835" fill-rule="nonzero" d="M27.54 60.9h4.3l.3-1.37-4.6 1.37" mask="url(#t)"/></g><path fill="#FDD835" fill-rule="nonzero" d="M191.8 91.95l.16-.04-.16.05M252.7 20.14c-.03.23-.04.45-.06.7 1 .45 2.05.78 3.1 1l-3.06-1.42v-.28M295.8 71.06c.13.04.25.1.37.16l16.77-9.14-.98-.43-16.1 9-.05.4M251.82 64.48c6-.04 8.84-1.55 13.7-4.4 3.32-2 6.28-2.6 8.58-2.6 2.5 0 4.16.7 4.8 1.02l3.2.76c.68-.5 1.58-.97 2.66-1.5 3.23-1.58 7.84-3.3 10.25-4.18l.72-4.86c-1.28-.2-2.65-.38-4.06-.58-5.94-.82-12.6-1.65-14.7-1.64h-.32c-.24.1-.38.1-.56.15-1.4.2-4.48.25-8.48.26-9.04 0-21.92-.3-21.92-.3l-.05-.02 5.34 17.88.85.02"/><g transform="translate(238.91 74.557)"><mask id="v" fill="#fff"><use xlink:href="#u"/></mask><path fill="#FDD835" fill-rule="nonzero" d="M58.02 4.54L55.62.1 51.8 1.5l2.45 5.08 3.77-2.04" mask="url(#v)"/></g><g transform="translate(238.91 74.557)"><mask id="y" fill="#fff"><use xlink:href="#x"/></mask><path fill="#FDD835" fill-rule="nonzero" d="M34.93 42.9l-9.6 3.22.1.73h9.2l1.4-.4-1.1-3.54" mask="url(#y)"/></g><g transform="translate(238.91 74.557)"><mask id="A" fill="#fff"><use xlink:href="#z"/></mask><path fill="#FDD835" fill-rule="nonzero" d="M10.98 36.54l-5.42.88 1.8 9.43h5.43l1.92-.64-3.74-9.66" mask="url(#A)"/></g><g transform="translate(238.91 74.557)"><mask id="C" fill="#fff"><use xlink:href="#B"/></mask><path fill="#FDD835" fill-rule="nonzero" d="M.13 38.3l2.63 8.55h2.9l-1.72-9.17-3.8.62" mask="url(#C)"/></g><path fill="#FDD835" fill-rule="nonzero" d="M288.2 21.6c.8-.38 1.57-.7 2.27-.97l-.55-1c-.44.44-1.13 1.1-1.87 1.65l.16.33M199.08 20.16l15.05 8.02-15.05-8.02M216.56 29.48c.15.08.3.13.46.2l-.04-.02c-.14-.06-.28-.1-.42-.17"/><g transform="translate(165.11 89.915)"><mask id="E" fill="#fff"><use xlink:href="#D"/></mask><path fill="#FDD835" fill-rule="nonzero" d="M137.4.16L126.9 4.6l-2.7 14.3 11.9-4.2c.13-.76.8-1.35 1.6-1.37.43 0 .8.16 1.1.42l6.92-2.44-8.3-11.14" mask="url(#E)"/></g><g transform="translate(165.11 89.915)"><mask id="G" fill="#fff"><use xlink:href="#F"/></mask><path fill="#FDD835" fill-rule="nonzero" d="M16.23 29.2c-.67.15-1.85.28-3.63.47-3.78.4-9.6.94-12.55 1.2l.1.62h17.2l-.55-2.26-.57-.03" mask="url(#G)"/></g><path fill="#FDD835" fill-rule="nonzero" d="M287.8 19.35c.57-.46 1.06-.96 1.3-1.2-.45-.83-.8-1.55-1.03-2.2l-2.86-.3 2.05 4.05c.22-.13.42-.25.54-.35"/><g transform="translate(162.08 59.814)"><mask id="I" fill="#fff"><use xlink:href="#H"/></mask><path fill="#FDD835" fill-rule="nonzero" d="M31.35 3.26l.97.28L30.88.17 28.9 2.52l2.45.74" mask="url(#I)"/></g><g transform="translate(162.08 59.814)"><mask id="K" fill="#fff"><use xlink:href="#J"/></mask><path fill="#FDD835" fill-rule="nonzero" d="M.1 61.6h1.4l-.06-.47-1.35.46" mask="url(#K)"/></g><path fill="#FDD835" fill-rule="nonzero" d="M185.9 60.81l1.94.18 3.8-4.52c.05-.25.2-.47.46-.58h.02l1.47-1.75-4.53-.38c-.3-.03-.6-.23-.7-.52l-2.93-7.52-2.97-.14c-.24 4.42-2.5 8.9-5.13 12.68l8.57 2.58M215.82 29.1l.67.35-.68-.36M285.4 12.37l9.77 1.04.2-.67-8.5-2.78-1.47 2.42M195.54 17l.04.06-.04-.05M192.62 6.65V6.6v.08-.03M262.45 106.94l1.35 10.43 9.06-3.02-3.23-10.43-7.18 3.02M253.3 110.8l3.45 8.92 5.46-1.82-1.33-10.3-7.58 3.2M263.17 83.1l-6.15 1.64 3.12 10.45c.1.37-.07.78-.43.96l-10.96 5.32 3.22 6.32 16.7-7.02-5.5-17.67M276.5 120.53l7.8-2.32 1-4.55-9.9 3.3 1.1 3.58M283.27 26.57l3.92.95-.07-3.5-.23.13c-1.65.92-3.16 1.95-3.63 2.42M293.03 110.97l8.3 4.52-.1-7.42-8.2 2.9M287.44 76.86L275.3 80l5.77 15.55 8.02-3.37 1.6-8.56-3.26-6.76M274.42 113.83l11.3-3.77 2.64-14.03-17.2 7.25 3.26 10.55M285.37 40.44l-.18-.15c-3.4.12-8.63.33-14.13.52-.38.38-.8 1.13-1.07 1.86-.13.34-.24.67-.32.95 1.4 0 2.64-.03 3.64-.06.73-.03 1.34-.06 1.76-.1.2 0 .37-.03.46-.05.33-.13.52-.13.72-.16.23-.02.46-.03.7-.03 2.63 0 9.12.84 15.16 1.68l4.07.58.2-1.46-6.93-.12s-2.97-2.42-4.1-3.46M298.98 49.2l-.5 3.4 4.8-1.04-1.05-1.88-3.25-.5M252.76 18.67l7.84 3.48-7.85-3.48v0M207.8 67.23c.2.1.37.2.53.32h.02l1.04.32h-.72c.7.76.8 1.8.64 2.7v-.04c.22 1.1-.16 2.28-.55 2.77l-.64.8-.08.1c1.97-2.12 4.72-4.42 8.15-6.45 3.46-2.05 7.58-3.78 12.16-4.62l-.6-1.44v-.07l-.16-.38c-.4-.94-1.55-3.4-3.48-5.64-1.52-1.75-3.46-3.3-5.85-4.07l.8 7.54c.02.34.04.68.04 1.02 0 1.42-.3 2.9-1.18 4.1-.87 1.2-2.37 2-4.34 2h-.3c-1.96-.08-3.6-.33-4.93-.33-1.14.02-1.98.16-2.75.7l1.8.5c.15.05.28.1.4.16"/><path fill="#FDD835" fill-rule="nonzero" d="M187.24 45.8l2.48 6.36 5.15.44.96-1.15c.3-.88.47-1.6.47-1.78 0-.24-.36-2-.53-3.46l-8.53-.4M295.5 18.06c-.2-.44-.33-.9-.42-1.37l-5.14-.55c.45.96 1.18 2.3 2.1 3.94 1-.4 2.03-1 2.83-1.58l.62-.46M203.38 80l.2-.04c.84-1.04 1.6-2.04 2.22-2.97l-2.4 3h-.02M304.1 53.06l-5.87 1.26-1.02 7.06 9.52-3.63-2.6-4.7M291.3 22.06c-.72.26-1.6.65-2.54 1.1l.08 4.76 9.56 2.3.57-3.9c-.77-.17-1.75-.43-2.83-.84-1.73-.67-3.64-1.7-4.83-3.42M289.03 38.5c.17.02.32.08.45.18l7.66.2 1.02-7.03-9.3-2.24.17 8.9"/><g transform="translate(173.82)"><mask id="M" fill="#fff"><use xlink:href="#L"/></mask><path fill="#FDD835" fill-rule="nonzero" d="M17.2 93.39c-.25-.02-.5-.05-.72-.1L.06 88.55l16.18 9.3c.45-1.26.88-2.47 1.3-3.5.16-.4.3-.74.45-1.07-.27.05-.54.1-.8.1" mask="url(#M)"/></g><g transform="translate(173.82)"><mask id="O" fill="#fff"><use xlink:href="#N"/></mask><path fill="#FDD835" fill-rule="nonzero" d="M153.78 0l-18.5 11.64c.53.97.85 2.08.9 3.25l16.64 1.37.02-1.46c.02-1.8.37-4.55.8-6.22V8.3c.36-1 .83-1.73 1.42-2.3l-.03-.2c.02-1.1.63-1.96 1.34-2.56.96-.73 2.16-.74 3.45-.76.97 0 1.97.06 2.86.06.65 0 1.23-.03 1.64-.12.22-.04.4-.1.54-.16V0h-11.08" mask="url(#O)"/></g><path fill="#FDD835" fill-rule="nonzero" d="M321.44 0h-9.55l1.35 5.15 8.2-5.15M1.68 19.98h.03-.03M33.77 11.7l-5.78 1.7-15.17 7.28 1.72 3.4c3.9-1.48 11.9-4.7 19.6-8.78-.2-1.23-.33-2.44-.38-3.6M318.13 39.1c-.13.08-1.48.82-2.1 1.77-.6.95-1.43 1.17-2.48 1.2-1.04.06-3 .53-3.3.06-.32-.48.2-1.35-.75-1.26-.28.03-.57.02-.86 0-.72-.02-1.42-.05-1.76.48-.48.73-.1 1.9-1.8 2.42s-4.05.3-4.92.3h-.44l-.27 1.9c2.45.35 4.08.6 4.08.6.37.06.7.24.95.5l12.38-2.88c.75-2.56 1.48-4.4 1.6-4.66l-.32-.45M13.68 16.64l-2.52.75 2.52-.76M300.43 0h-10.47l3.6 3.5 6.87-3.5M33.58 10.73l.15-.05-.15.05M2.37 20c-.1.04-.2.05-.3.05h.02c.1 0 .18 0 .27-.04M20.2 24.94c-.72.36-2.4 1.63-3.86 2.7l.77 1.5 18.94-5.67c-.47-1.55-.9-3.15-1.25-4.75-5.8 3.08-13.57 5.72-14.6 6.22M298.86 8.67c1.08-.58 2.3-.9 3.62-.9 1.64 0 3.16.5 4.4 1.4l4.9-3.1L310.2 0h-6.16l-9.22 4.72 4.06 3.95M283.03.07l.42-.07h-6.3c.1.23.18.47.25.72 1.92-.16 3.9-.4 5.63-.65M118.34 32.85l-11.2-.88c-.2 0-.37-.1-.52-.23l-1.98-1.97-4.83 2.9.15.15 2.08 1.58 15.6 1.2.7-2.75M117 38.83l-10.14-.78 5.84 4.4 4.04.38.27-4M122.78 50.1l5.47 4.1.3-3.66-5.77-.45M128.94 45.56l-13.77-1.23 5.2 3.92 8.3.67.27-3.36M82.4 19.5l.18.2 6.08 4.6-5.1-6.18-1.17 1.38M77.3 10.5c-.75.38-1.5.74-2.25 1.1l5.1 5.47 1.3-1.53-4.15-5.03M38.91 16.13c-.33.27-.7.54-1.12.82.17.82.35 1.65.56 2.48l3.96-3.1c.1-.23.28-.4.53-.48h.08l.38-.3c.26-.2.6-.23.9-.07l6.67 3.56 4.3-1.3c-2.8-1.44-4.75-2.47-4.75-2.47s-6.28-3.23-11.48.86"/><path fill="#FDD835" fill-rule="nonzero" d="M45 20.8l3.62-1.1-4.56-2.43.93 3.52M61.23 15.93l.55-.28c-.6.1-1 .25-1.17.46l.63-.17M38.8 21.16l.4 1.37 4.22-1.27-.82-3.08-3.8 2.98M283.6 12.18l1.53-2.52L277.3 9c-.2.8-.44 1.6-.74 2.43l7.03.75M11.57 30.8l2.34-.7-.35-.7c-.4.25-1.1.74-1.98 1.4M196.83 95.6L195 94.24c-.2.4-.48 1-.73 1.67-.4 1.03-.84 2.3-1.3 3.63l1.47.85 2.4-4.77M187.22 105l-.63.28.32.26.3-.55M131.85 56.94l3.3 2.48.2-2.1-3.5-.38M328.88 89.5l.7-10.8-5.77 2.42-.63 10.15 1.97 4.92 5.75-2.04-1.95-4.28c-.05-.13-.08-.26-.07-.4"/><path fill="#FDD835" fill-rule="nonzero" d="M186.28 114.5c-2.44.23-5.77.4-9.3.6l-6.16 1.9c.18-.03.35-.05.53-.06 2.13-.2 4.3-.42 6-.6 1.7-.18 3.1-.36 3.17-.4.32-.08.57-.08.82-.1 1.3.03 3.2.37 5.43.37 2.84 0 5.84-.55 7.8-2.66 1.98-2.08 3.54-6.23 4.44-9.8.47-1.78.8-3.43 1-4.62l.15-1-1.4-1.06c-1.1 1.96-3.6 6.55-4.02 8.96-.54 3.12-1.2 7.85-8.45 8.5M170.3 112.9l-.2.1.2-.1M37.4 10.6l-.1 1.22c-.02.18-.1.33-.2.46.02.43.07.87.13 1.32.9-.52 1.8-1.05 2.66-1.6 0 0 14.84 1.97 34.4-5.14l-4.78-5.8C67.7 2.3 62.68 5.34 57.25 5.6l-3.63.18L37.4 10.6M319.35 64.88l-1.72 5.25 10.95 5.43L332.3 74l1.5-.66-1.96-3.02-12.5-5.44"/><path fill="#FDD835" fill-rule="nonzero" d="M189.53 107.6l.94.73 3.16-6.35-1.9.9c-.65 1.68-1.35 3.32-2.2 4.7M306.77 51.1l8.7-.65c.2-1.54.54-3.06.9-4.46l-11 2.54 1.4 2.55M312.55 71.63l3.4-1.67 1.88-5.75-3-1.3-5.14 2.8 2.85 5.93M303.53 40.8c1.6-.73 2.53-.37 3.18-.37s1.17-1.3 2.47-1.44c1.3-.15 1.37 1.64 1.66 1.64s2.45.72 4.04-.07c1.42-.7 1.52-1.63 2.56-2.5l-.23-.32-16.94 2.6-.37 2.54c1.07-.03 2.1-.07 2.33-.1.44-.08-.28-1.3 1.3-2M208.35 64.23c1.52 0 3.14.26 5 .33h.23c1.56-.02 2.42-.54 3.02-1.32.6-.8.87-1.95.86-3.15 0-.3 0-.58-.04-.87l-.84-8.03-.15-.06-.3-.05c-3.27-.32-6.42-1-9.14-1.76.22.98.24 2.73-1 5.37-2.1 4.46-7.46 5.5-7.9 5.64-.38.12-2.08.24-3.08.28l1.42 3.3 7.28 2.1c1.32-1.4 2.97-1.8 4.63-1.8M46.48 6.9l-9 2.67 9-2.68M201.2 82.82l-.13.07-.97 1.2 1.1-1.28M59.07 3.14l-1 .3 1-.3M187.23 111.95l-2.84.87c.88-.14 1.9-.4 2.83-.87M56.1 4.03l.3-.1-.3.1M309.9 56.7l5.27-2.82c0-.6.04-1.18.1-1.78l-7.62.57 2.24 4.03M327.2 64.73l-3.55-3.04c-1.43-1.23-1.15-2.75.62-3.4l.55-.2-.3-.64-6.1 3.44 8.78 3.83M322.3 27.12c0 1.1.37 2.3 1.6 3.62.74-.4 1.62-.83 2.6-1.23l.05-5.23c-1.04-.18-2.05-.4-3-.68-.52.72-1.26 2.05-1.25 3.52M288.87 3.52l-.66-.64-9.84 4.57 7.72.65 2.8-4.58M314.24 18.67c.24-.04.5.03.68.2 2.3.76 4.93 1.63 7.07 2.43.35-.2-.18-.4 1.38-.67 1.34-.24 2.5-.03 3.2.18l.02-1.25-12.97-1.08.6.2M333.64 4.1c-1.2 0-2.2.18-2.4.4-.15.12-.28.27-.4.42l3.9-.8h-1.1M323.97 32.97c.02-.15.1-.3.2-.5-.9.53-1.52.98-1.75 1.23-.34.32-1.02 1.26-1.72 2.1l-.24.27c.77-.5 1.5-.93 2-1.16 1.08-.5 1.44-1.2 1.5-1.93M323.92 21.7l-.05.03.15.1.16.24c.75.2 1.55.4 2.4.55v-.85c-.96-.12-1.98-.28-2.66-.06M318.62 44.07c.16.1.28.27.33.48.1.44-.17.88-.6.98l-.17.03c-.42 1.53-.8 3.24-1.07 4.97.2.14.34.34.35.6.03.36-.2.68-.52.8l-.1 1.05 5.4-2.88c-.32-1.9-.4-3.78-.26-5.53l-2.38-3.4c-.27.7-.6 1.7-.98 2.9M296.1 11.24l.3-.4-6.32-6.14-2.33 3.8 8.36 2.74M323.32 35.94c-.7.3-2.96 1.38-3.27 1.9-.08.14-.26.3-.47.45l2.73 3.9c.58-2.78 1.74-5.14 3.4-6.8-.72-.13-1.7.24-2.38.54M292.95 21.5c.92 1.1 2.37 1.92 3.78 2.46.9.35 1.8.58 2.47.73l.37-2.55c-1.33-.55-2.47-1.48-3.28-2.64-.86.66-2.04 1.46-3.35 2"/><g transform="translate(250.73 28.013)"><mask id="Q" fill="#fff"><use xlink:href="#P"/></mask><path fill="#FDD835" fill-rule="nonzero" d="M36.65 9.87L36.5 1.2 31.57 0c-.55 1.07-1.24 2.6-2.57 4.8 1.13.68 2.88 1.85 4.6 3 1.15.77 2.24 1.5 3.05 2.07" mask="url(#Q)"/></g><g transform="translate(250.73 28.013)"><mask id="T" fill="#fff"><use xlink:href="#S"/></mask><path fill="#FDD835" fill-rule="nonzero" d="M81.22 86.7l1 6.7h2.7c1.4 0 2.6-.97 2.92-2.27l-1.43-4.8-5.18.36" mask="url(#T)"/></g><g transform="translate(250.73 28.013)"><mask id="V" fill="#fff"><use xlink:href="#U"/></mask><path fill="#FDD835" fill-rule="nonzero" d="M19.76 11.2c.97-.57 3.33-2.22 5.36-4.2-.17-.15-.3-.3-.43-.46-.35-.5-.58-.97-.74-1.4l-.42-.06c-2.1-.28-4.77-.52-7.37-.52-3.08 0-6.1.36-7.85 1.25-2.3 1.14-5.45 3.55-8.2 5.84H1c4.33 0 11.7-.2 18.76-.45" mask="url(#V)"/></g><g transform="translate(250.73 28.013)"><mask id="X" fill="#fff"><use xlink:href="#W"/></mask><path fill="#FDD835" fill-rule="nonzero" d="M67.96 87.6l.22 5.8h12.36l-.96-6.6-11.62.8" mask="url(#X)"/></g><path fill="#FDD835" fill-rule="nonzero" d="M282.37 22c.87-.44 2.23-1.03 3.4-1.57l-.6-1.2-8.64 4.3 1.75.82c.6-.53 1.48-1.07 1.94-1.32 0 0 .64-.24 2.15-1.02M267.98 43.64c.14-.58.45-1.7 1.03-2.75-6.57.2-13.22.4-17.27.4-1.14 0-2.05-.02-2.74-.05-.9.77-1.7 1.5-2.35 2.1 3.05.06 13.37.3 20.95.3h.38"/><g transform="translate(279.65 22.074)"><mask id="Z" fill="#fff"><use xlink:href="#Y"/></mask><path fill="#FDD835" fill-rule="nonzero" d="M2.28 3.52c.7-.78 2.3-1.8 4.15-2.86L7.1.3 6.97.02c-.12.05-.24.1-.35.12C5.18.5 1.66 2.2.22 3.05L2 3.88l.28-.38" mask="url(#Z)"/></g><g transform="translate(279.65 22.074)"><mask id="ab" fill="#fff"><use xlink:href="#aa"/></mask><path fill="#FDD835" fill-rule="nonzero" d="M51.64 55.9l-.75 11.42 1.8 4.02 6.32-4.2v-4L52.8 55.4l-1.16.5" mask="url(#ab)"/></g><g transform="translate(279.65 22.074)"><mask id="ad" fill="#fff"><use xlink:href="#ac"/></mask><path fill="#FDD835" fill-rule="nonzero" d="M34.17 36.82l9.2-5.34c-.2-.6-.34-1.18-.48-1.77l-11.24 6.02 2.5 1.1" mask="url(#ad)"/></g><g transform="translate(279.65 22.074)"><mask id="af" fill="#fff"><use xlink:href="#ae"/></mask><path fill="#FDD835" fill-rule="nonzero" d="M53.9 74.48l3.4 11.43 1.73.48v-13.8l-.42-1.23-4.7 3.13" mask="url(#af)"/></g><path fill="#FDD835" fill-rule="nonzero" d="M331.6 113.1l5.06-.36-1.02-3.42-5.97-1.64 1.92 5.4M165 31.8l-2.92-.68c-.14.25-.4.4-.7.4l-.23-.02c-.3-.08-.5-.33-.56-.6l-2.02-.13-.55 5.75c1.74-2.24 4.17-3.9 6.97-4.73M300.5 38.67l15.66-2.4-4.2-6.17-10.5 1.93-.96 6.64M143.28 51.72l-5.87-.47-.28 4.62 3.2.35 2.86-3.57.1-.93M304.64 25.88c-.85.15-1.65.28-2.34.38l-.6 4.06 9.27-1.7-2.46-3.6c-1.02.3-2.42.6-3.86.86M156.4 36.1l-9.17-.5-.36 3.85v.74l8.9.57c.08-.24.18-.46.27-.7l.37-3.97M177.83 11l-9.6-1.07-3.95 13.68c.3.16.48.46.46.8-.03.43-.4.76-.82.76h-.08l-1.27 4.4 7.6 1.75.47.08 7.2-20.37M179.03 35.03l-1-.24c.3.26.57.54.84.83l.16-.6M316.54 60.08l7.3-4.12-.38-1.04-7.97 4.7 1.04.46M320.17 31.58c-.98-.8-1.03-1.3-.8-2 .07-.27.03-.55-.06-.82l-5.56 1.02 4 5.9.22.3h.06l.1-.02h.02c.14 0 .85-.63 1.42-1.36.62-.74 1.2-1.56 1.7-2.06.1-.1.23-.2.36-.3h-.25s-.22.15-1.2-.66M317.3 22.03c.75.27.48 1.14 1.57 1.08h.8c.66.02 1.1.03 1.15-.37l.02-.1c-1.3-.48-2.72-.97-4.14-1.44.1.36.27.72.6.83M312.73 28.3l5.78-1.06c-.23-.42-.57-.95-1-1.22-.6-.37-1.08-1.18-.97-2 .1-.8-.5-1.93-.43-2.42 0-.15.07-.36.14-.57-.6-.2-1.2-.4-1.76-.57-.92.86-3.1 2.9-4.47 3.84l2.73 4M298.77 15.44c-.04.34-.18.63-.38.87.32 1.24 1.18 2.25 2.32 2.77.3-.15.63-.22.98-.17.4.06.74.26 1 .54.67-.04 1.3-.23 1.86-.54 0-.26.12-.5.34-.65.2-.14.44-.17.65-.12.3-.3.54-.66.73-1.05-.13-.26-.2-.56-.17-.87.05-.45.27-.85.6-1.12-.08-2.25-1.93-4.05-4.22-4.05-.77 0-1.48.22-2.1.57-.08.2-.2.36-.34.5-.23.24-.5.4-.8.45-.4.48-.7 1.04-.86 1.66.28.34.44.78.4 1.24M302.8 22.7l-.26 1.87 1.8-.3c1.14-.2 2.33-.46 3.2-.7l-1.28-1.86c-1.02.6-2.2.96-3.45 1M311.68 20.8l1-.9c-1.58-.5-2.88-.9-3.56-1.1-.4.72-.92 1.37-1.53 1.93l1.5 2.22c.63-.45 1.68-1.34 2.58-2.15"/><g transform="translate(136.5 23.385)"><mask id="ah" fill="#fff"><use xlink:href="#ag"/></mask><path fill="#FDD835" fill-rule="nonzero" d="M183.57 1.18c-.06.54-.87 1.4-.44 1.9.13.13.28.3.44.5l.6-.12c.08-1.36.54-2.5 1.02-3.35-.9.63-1.58.58-1.63 1.08" mask="url(#ah)"/></g><g transform="translate(136.5 23.385)"><mask id="aj" fill="#fff"><use xlink:href="#ai"/></mask><path fill="#FDD835" fill-rule="nonzero" d="M178.62 92.5h-.1l-.33-.05-10.1-3.64.06 5.1 7.57 4.12h3.4l-.2-5.22c-.14-.07-.24-.18-.3-.3" mask="url(#aj)"/></g><g transform="translate(136.5 23.385)"><mask id="al" fill="#fff"><use xlink:href="#ak"/></mask><path fill="#FDD835" fill-rule="nonzero" d="M.5 34.1l-.32 3.1.08.06 2.34-2.92-2.1-.23" mask="url(#al)"/></g><g transform="translate(136.5 23.385)"><mask id="an" fill="#fff"><use xlink:href="#am"/></mask><path fill="#FDD835" fill-rule="nonzero" d="M201.27 50.1c.12.33.13.7.03 1.04-.14.46-.47.83-.9 1.02l-1.3.58 3.08 3.84v-6.16c-.3-.1-.62-.2-.9-.32" mask="url(#an)"/></g><path fill="#FDD835" fill-rule="nonzero" d="M222.37 34.27l-.08.37 2.48.92-2.4-1.3M329 105.8l6.1 1.67-3.07-10.24-5.67 2 2.64 6.57M219.1 32.52l-.45-.28c-.75-.1-1.48-.35-2.15-.7l-.6-.32.07 1.1 3.2 1.18.2-.84-.27-.14M8.22 19.3l-5.85 1.73c-.1.02-.18.04-.28.04-.32 0-.66-.13-.86-.34l-.17-.16c-.63.5-1.36.9-2.03 1.18-.36.14-.7.26-1.04.36v4.37L8.18 19.3h.04M11.54 25.44l-1.67-3.3L-2 30.47v1.3l5.2.43 8.34-6.76M111.65 19.2l-.36 1.35c-.06.2-.17.35-.33.46l-13.1 9.3.9 1.08 13.6-8.14c-.48-1.1-.72-2.26-.72-3.46v-.58M132.95 32.1h.07-.07M131.2 31.95l.1.02-.1-.02M138.52 32.03l-.26.02h.26v-.02M248 100.02L258.36 95l-2.93-9.83-13.2 3.5.05.1 5.72 11.25M231.27 70.33c-2.53.12-5.02.63-7.3 1.82-7.57 3.98-10.4 6.23-14.07 12.47-2.78 4.7-6.5 8.13-8.84 10.08l.75.57c.85-.8 2.16-2.07 3.68-3.66 2.63-2.73 5.83-6.36 8.1-9.8 3.77-5.76 10.7-8.84 18.57-9.3l-.88-2.17M242.16 40.97c-.57-.24-.93-.56-1.14-.92-.4.24-.8.44-1.2.6 0 .15.02.3.03.4l4.9 1.8 2.2-1.98c-.63-.22-1.23-.52-1.8-.85-1.17.7-2.27 1.24-3 .95M268.2 30.23c-2.8.93-2.95 0-4.82-.13s-3.87-.4-4.94 1.2c-1.06 1.58-3.07 2.38-4.27 3.04-1.2.66-3.2 3.05-5.07 3.45-.65.13-1.5.63-2.4 1.2.55.27 1.06.46 1.54.54l.18.03c3.04-2.62 6.94-5.74 9.9-7.2 2.22-1.1 5.37-1.42 8.57-1.43 2.68 0 5.38.24 7.55.53-.07-.36-.33-1-.6-1.47-1.5-.2-3.87-.36-5.66.23M100.75 10.16c.9-1.74 1.67-3.54 2.36-5.36L96.48 3 85.74 15.6l6.07 7.38c3.34-2.74 5.45-6.1 8.95-12.8M303.17 69.27l2.94 5.52 4.98-2.44-2.84-5.86-5.07 2.77M119.42 28.53h.02-.02M273.73 72c-1.04 0-2.03.13-2.94.4-2.52.7-5.36 1.63-8.47 2.47l1.94 6.26 21.6-5.55c-2.58-1.35-7.73-3.6-12.14-3.57M294.75 55.4c-1.2.45-2.7 1.02-4.27 1.65-1.74.7-3.54 1.46-5 2.17l-1.13.58 9.44 2.24.95-6.63M120.95 29.28l.05.02-.05-.02M199.2 22.3l.26 4 14.83 5.42-.08-1.4-15-8.02M140.27 31.85h-.1.1M111.65 11.84c0-1.55.42-3.04 1.2-4.43l-6.98-1.86c-2.33 4.48-9 18.3-11.43 20.6l2.38 2.9 12.95-9.2 1.88-7.12v-.88M194.4 15.2l.04.06c-.33-.6-.62-1.26-.86-1.93l.02.05-3.54-1.7c-.75-.4-1.1-1-1.1-1.7 0-1.37 1.37-3.05 3.65-3.92v-.3l.07.04.08-.7-8.93-1.16-9.97 28.22 6.37 1.46c.2.05.4.2.52.37.1.18.15.4.1.62l-.68 2.6c1.02 1.5 1.74 3.22 2.1 5.06l3.4.17L189.9 38c.15-.15.35-.24.57-.25l6.4-.26-.56-9.14c-.36-.43-.48-1.02-.27-1.58l.14-.3-.42-6.72c-1.12-1.15-1.65-2.27-1.65-3.3 0-.44.1-.86.3-1.26M157.7 22.58v-.02l-.13.23.13-.22M111.7 19l.02.16-.02-.16M112.97 22.73l.06.1-.06-.1M144.1 33.63l.1-.8c-.72.17-1.45.33-2.2.46l2.1.33M231.72 62.68c.8-.06 1.64-.1 2.47-.1 1.84 0 3.73.17 5.67.53 3.76.7 6.8 1.1 9.36 1.28l-5.5-18.4-22.18-8.12-2.4 10.52c3.8 1.15 6.54 3.8 8.38 6.23 2.24 2.98 3.26 5.75 3.32 5.92l.87 2.16M120.4 31.38l1.8.14c-.56-.23-1.1-.47-1.64-.72l-.15.57M191.4 1.62c-.38-.5-.7-1.03-.93-1.62h-5.88l-.08.73 6.9.9M181.28 0h-3.5l3.46.35.04-.35M159 8.9l-.62-.08c.22.6.37 1.2.46 1.83L159 8.9M239.32 90.2l-.06-.12-.2-.5-22 7.54 1.24 9.37 26.6-5.32-5.58-10.97M144.35 31.1l-.1.02.1-.03M317.63 98.83l-1.7-5.3-.05-.25-.06-8.8-7.14 3 8.5 11.5.45-.15M218.9 108.04l3.73 6.26 15.18-2.9 4.98-.8c.12-.18.3-.3.53-.35.24-.05.47.02.65.15l5.22-.84-3.5-6.86-26.77 5.34M315.57 99.56l-8.44-11.42-1.5.62c.02.6-.3 1.17-.85 1.47l-.07.03 7.76 10.4 3.1-1.1M143.96 35.26l-4.76-.77-6.48-.52-.33 2.75 11.33.87.23-2.34M157.44 23l-.07.1.07-.1M276.74 31.83c.6.1 1.1.2 1.5.3l.03-.06c1.3-2.1 1.93-3.55 2.52-4.7l-2.25-1.07c-.73.83-1.67 2.03-1.67 2.6 0 .5-.2 1.9-.14 2.93"/><path fill="#FDD835" fill-rule="nonzero" d="M246.6 34.77c1.53-.23 2.85-.88 4.77-1.62 2.4-.93 5.34-.4 6-2 .67-1.58.14-2.24 2.54-2.24 2.42 0 2.68-.12 3.88-.92 1.2-.8 4.54-.26 6.15-.26.88 0 2.77.04 4.3.07.52-.33 1.03-.64 1.32-1.1.26-.4.95-.74 1.5-1.12l-2.3-1.1c-.53.9-2.13 3.03-5.33 3.06-1.85 0-4.77-.28-7.47-.28-2.5-.03-4.83.3-5.6.98-.92.75-2.4 2.1-4 3.27-1.58 1.14-3.28 2.15-5.04 2.23-.23.37-.47.7-.7 1.04M156.2 24.67l-.05.04.04-.03M316.63 71.45l-3.36 1.65 3.58 7.4 9.74-4.1-9.97-4.95M150.97 28.62l-.1.05h.02l.07-.05M315.33 81.14l-3.54-7.3-4.92 2.4 3.68 6.9 4.77-2M260.74 75.3c-1.96.48-4.02.92-6.17 1.23l1.98 6.64 6.13-1.62-1.94-6.26"/><path fill="#FDD835" fill-rule="nonzero" d="M260.38 24.03l-.4-.2h-.04c-.28 0-.55.03-.82.03-2.25 0-4.57-.44-6.76-1.38-.46 2.2-1.3 4.5-2.53 6.75-.24.44-.5.87-.76 1.3l.05-.08c-.07.28-.18.57-.34.86-.1.2-.2.36-.3.53.9-.33 1.92-.93 2.9-1.64 1.52-1.1 2.94-2.42 3.94-3.23 1.55-1.18 4-1.32 6.63-1.35 2.8 0 5.77.3 7.47.28 1.47 0 2.44-.6 3.1-1.25.33-.3.57-.63.72-.87l.04-.07-.25-.22c-.5-.42-1.6-1.2-3.23-1.42-2.1 1.78-4.3 2.74-6.37 2.74-1.06 0-2.1-.25-3.05-.77M58.7.7l-.58.15V1l1.45 1.38c.27.25.2.55-.16.66l-.15.05.32.3.15.23c2.13-.46 4.17-1.3 5.8-2.12 1.1-.55 2-1.08 2.63-1.5H58.13v.23l.57.46M228.22 76.83c.26-.03.53.08.7.28l2.56 3.02 2.94-2-.97-2.4c-2.95.07-5.7.53-8.14 1.35l2.92-.24M144.25 43.04c-.4-.3-.68-.78-.68-1.32v-.85l-24.92-1.92-.27 4.02 25.62 2.3.25-2.23M271.23 20.7c1.7.52 2.8 1.45 3.15 1.8l.27.12 9.8-4.86-1.2-2.33-7.94-.84c-.05.27-.17.56-.33.85-1.13 2.07-2.4 3.83-3.74 5.25M131.08 33.85L120 32.98l-.7 2.75 11.44.87.34-2.75M277.82 5.9l9.14-4.24-.5-.48c-2 .34-5.4.87-8.72 1.15.16 1.1.2 2.3.08 3.57M162.15 25.05l-3-.2-.42 4.3 2.2.13 1.22-4.23M153.42 28.82l3.67.22.4-4.28h-.08c-.95 1.48-2.3 2.86-4 4.06M219.43 71.5c3-1.7 7.03-2.54 11.15-2.88l-.97-2.4c-4.38.7-8.37 2.36-11.7 4.33-4.48 2.64-7.78 5.9-9.18 8-1.9 2.82-4.73 6.17-7.35 9.04-1.53 1.66-2.93 3.13-4.07 4.25l1.62 1.23 9.35-10.72s4.34-7 11.16-10.86M238.03 39.12h.07-.07M89.06 0H72.9l4.63 5.62c3.72-1.5 7.6-3.37 11.53-5.62M241.18 38.12l-.07.04.06-.02.02-.02M246.5 33.94l.2-.2v-.03l-.2.24M167.87 8.15l.23.12 10.3 1.16 2.07-5.87-19.12-1.95-.55 5.85 6.56.74c.16-.07.34-.1.5-.05M239.75 38.72l.17-.06-.17.05v.02M119.72 1.25l.13-1.25h-3.16l-1.07 4.02c1.16-1.03 2.54-1.96 4.1-2.77M248.1 31.96l.03-.03-.03.03M166.56 9.74l-5.92-.67-.26 2.73c.57.3.92.94.85 1.6-.08.67-.54 1.2-1.13 1.4l-.32 3.38 4.27.3 2.5-8.74M110.92 3.5l2.94.8 1.12-4.3h-2.17c-.32.64-.65 1.3-.98 1.9-.32.6-.62 1.13-.9 1.6M163.58 20.1l-3.96-.3-.32 3.43 3.32.2.96-3.34M245.9 34.57l-.27.3.28-.3M279.55 96.2l-5.86-15.8-8.94 2.3 5.42 17.44 9.37-3.95M147.4 33.98l9.17.5.36-3.8-5.94-.37c-1.06.57-2.2 1.07-3.4 1.5l-.2 2.18M157.54 7.08l1.62.18.56-5.82-9.15-.94-.06.57c3.17 1.6 5.62 3.65 7.04 6M298.48 81.98l-4.6 2.48-1.15 6.2 8.48-3.58-2.72-5.1M129.83 55.07l5.66.62.27-4.58-5.6-.44-.34 4.4M226.98 92l11.46-3.94-3.4-8.4-2.8 1.9c-.03.17-.1.32-.24.43-.18.14-.4.2-.63.17l-6.8 4.64 2.4 5.2M104.76 0h-6.9l6.34 1.7c.2-.57.38-1.13.56-1.7M301.72 70.06l-4.58 2.5 2.7 5c.25-.1.52-.12.78-.1l4-1.95-2.9-5.44M109.26 3.06l.3-.5c.44-.74.93-1.64 1.4-2.56H109c-.53.95-1.02 1.85-1.45 2.6l1.7.46M113.12 24.7l-7.02 4.2 1.47 1.47 11.18.87.3-1.22c-2.6-1.46-4.65-3.28-5.93-5.33M237.05 39.2l.36-.03-.4.02h.05M304.26 85.8l4.78-2-3.64-6.84-3.44 1.68c.2.65-.05 1.35-.6 1.75l2.9 5.4M130.3 49.05l5.87.46c.15-.1.33-.17.53-.15.22 0 .4.1.54.25l6.22.5.36-3.2-13.24-1.2-.27 3.35M88.13 5.64c-2.27.77-5 2.02-7.8 3.38l3.3 4 9.62-11.3-.16-.13c-1.56 1.95-3.23 3.44-4.97 4.04"/><path fill="#FF9E00" fill-rule="nonzero" d="M286.62 22.1l-.84-1.67c-1.18.54-2.54 1.13-3.4 1.58-1.52.8-2.16 1.03-2.16 1.03-.46.25-1.33.8-1.94 1.32l1.6.77c1.44-.86 4.96-2.54 6.4-2.9l.34-.1M234.06 68.45l.78 1.93c4.7.35 9.23 1.62 12.33 1.98 1.4.17 2.93.32 4.55.4l-.9-3c-2.1-.08-4.2-.3-6.15-.62-2.66-.43-6.53-.77-10.6-.7M323.97 32.97c-.07.72-.43 1.44-1.5 1.94-.52.24-1.24.68-2 1.17-.3.32-.57.62-.88.88-.2.16-.42.3-.65.43l.63.9c.2-.14.4-.3.47-.44.3-.52 2.58-1.6 3.27-1.9.7-.3 1.66-.67 2.4-.53.22-.2.46-.42.7-.6l.05-3.5c-.9.4-1.67.8-2.3 1.18-.1.17-.18.34-.2.5M287.8 19.35c-.13.1-.33.22-.55.35l.8 1.58c.74-.55 1.43-1.2 1.87-1.65l-.83-1.5c-.24.26-.73.76-1.3 1.22M296.3 67.7l-.43 2.94 16.1-9-1.67-.7c-1.14.57-9.55 4.84-14 6.76M283.14 38.73l2.43-.1-2.15-1.46c-1.74-1.17-3.63-2.4-4.62-3-.46.6-.98 1.16-1.5 1.7 1.13.52 2.4.87 2.96 1.1.54.22 1.74.97 2.88 1.76M275.84 35c.47-.46.93-.93 1.34-1.42-.63-.13-1.5-.3-2.5-.43.17.43.4.9.74 1.4.1.16.26.3.42.45M323.38 20.63c-1.56.28-1.03.48-1.4.67l.8.3.3.1c.25-.12.54-.1.8.03l.04-.02c.68-.2 1.7-.05 2.66.07v-.96c-.7-.2-1.86-.4-3.2-.17M243.28 36.87l.23-.2-.22.2M241.78 37.8l-.6.33c.2-.1.4-.2.6-.32M287.14 70.2c2 1.1 3.83 1.35 5.28 1.3l.4-2.84c-2.62-.07-7.36-1.65-13.6-4.36-7.14-3.12-11.58.86-16.35 3.44-2.8 1.52-6.5 2.06-10.3 2.06l.88 2.97c4.3-.03 9.14-.9 13.97-4.06 7.37-4.83 15.17-.96 19.72 1.5M195.6 101.05l-1.97.93-3.16 6.35 2.4 1.9-5.63 1.72c-.95.46-1.96.73-2.85.87h-.02l-7.4 2.28c3.53-.2 6.86-.37 9.3-.6 7.26-.63 7.9-5.36 8.45-8.48.42-2.4 2.9-7 4-8.96l-1.9-1.45-2.4 4.78 1.18.67M275.55 26.7c-.3.46-.8.77-1.32 1.1-1.53-.04-3.42-.08-4.3-.08-1.6 0-4.94-.54-6.15.26-1.2.8-1.46.93-3.87.93-2.4 0-1.86.67-2.52 2.26-.67 1.6-3.6 1.06-6 2-1.93.73-3.25 1.38-4.8 1.6v.02c-.75 1.02-1.54 1.94-2.34 2.75.82.56 1.66 1.1 2.47 1.48.9-.57 1.75-1.07 2.4-1.2 1.87-.4 3.87-2.8 5.07-3.46 1.2-.66 3.2-1.46 4.27-3.05 1.07-1.6 3.07-1.33 4.94-1.2s2 1.06 4.8.13c1.8-.6 4.18-.43 5.67-.23.27.47.53 1.1.6 1.47h.04c.85.12 1.6.24 2.24.36-.07-1 .14-2.42.14-2.94 0-.57.94-1.77 1.67-2.6l-1.5-.72c-.55.38-1.24.73-1.5 1.13M285.37 40.44c1.13 1.04 4.1 3.46 4.1 3.46l6.93.12.16-1.1c-1.93 0-6.33-.08-6.75-.2-.35-.1-1.56-1.57-2.33-2.53-.6.02-1.38.05-2.28.1l.17.14M107.55 2.6c.43-.75.92-1.65 1.44-2.6h-4.24l-.56 1.7 3.35.9M103.1 4.8c-.68 1.82-1.44 3.62-2.35 5.36-3.5 6.7-5.6 10.06-8.94 12.8l2.64 3.2c2.43-2.33 9.1-16.14 11.43-20.62l-2.76-.74M80.33 9.02c2.8-1.36 5.53-2.6 7.8-3.38 1.74-.6 3.4-2.1 4.96-4.05l-2-1.6h-2.04c-3.94 2.25-7.8 4.1-11.53 5.62l2.8 3.4M34.78 18.72c-.25-1.15-.47-2.3-.64-3.42-7.7 4.1-15.7 7.3-19.6 8.78l1.8 3.55c1.46-1.06 3.14-2.33 3.87-2.7 1.03-.5 8.8-3.13 14.58-6.2M74.3 6.86C54.73 13.96 39.9 12 39.9 12c-.88.55-1.77 1.08-2.67 1.6.12 1.08.3 2.2.55 3.35.4-.28.8-.55 1.13-.82 5.22-4.1 11.5-.86 11.5-.86l4.74 2.48 5.47-1.64c.17-.2.57-.36 1.18-.46l11.5-5.94 1.77 1.9c.75-.36 1.5-.72 2.25-1.1l-3-3.64M241.02 40.05c.2.36.57.68 1.14.92.72.3 1.82-.24 2.98-.95-.75-.42-1.47-.9-2.14-1.36-.65.55-1.32 1-1.98 1.4M319.3 28.76c.1.27.14.55.06.82-.22.7-.17 1.2.8 2 1 .8 1.2.65 1.2.65h.26c.23-.2.5-.4.84-.63-.9-1.03-1.4-2.1-1.65-3.12l-1.5.28M245.63 34.86l-.16.16.16-.15M315.5 59.62l7.96-4.7-.14-.35-.3-1.02-9.2 5.34 1.67.72M11.54 25.44L3.2 32.2l2.87.25 5.5-1.64c.9-.66 1.58-1.15 1.97-1.4l-2-3.96M316.53 24.03c-.1.8.38 1.62.98 2 .43.26.77.8 1 1.2l1.57-.27c-.16-.2-.32-.37-.44-.5-.44-.5.38-1.35.43-1.9.05-.5.73-.44 1.63-1.06l.25-.46-1.1-.42-.03.1c-.04.4-.5.4-1.16.4-.24-.02-.5-.02-.8 0-1.08.05-.8-.82-1.57-1.1-.33-.1-.5-.46-.6-.83-.15-.07-.3-.12-.46-.17-.07.2-.13.42-.14.57-.06.5.54 1.62.43 2.43M209.9 84.62c3.68-6.24 6.5-8.5 14.08-12.47 2.27-1.2 4.76-1.7 7.3-1.82l-.7-1.7c-4.12.33-8.16 1.18-11.15 2.87-6.82 3.87-11.16 10.86-11.16 10.86l-9.35 10.72 2.14 1.62c2.35-1.95 6.06-5.37 8.84-10.08M305.1 43.77c1.7-.52 1.3-1.7 1.78-2.42.34-.53 1.04-.5 1.76-.48.3.02.58.03.86 0 .95-.08.43.78.74 1.26.3.47 2.27 0 3.3-.05 1.06-.04 1.9-.26 2.5-1.2.6-.96 1.96-1.7 2.1-1.78l-.7-1.02c-1.05.86-1.15 1.8-2.57 2.5-1.6.78-3.75.06-4.04.06s-.36-1.8-1.66-1.65c-1.3.14-1.8 1.43-2.46 1.43s-1.58-.36-3.17.36c-1.58.7-.86 1.92-1.3 2-.22.03-1.26.07-2.34.1l-.18 1.17h.44c.87 0 3.23.22 4.93-.3"/><path fill="#FFBC00" fill-rule="nonzero" d="M43.28 15.56l-.37.3h-.07c-.25.06-.44.24-.53.47l-3.96 3.1c-.2-.83-.4-1.66-.56-2.48-.24-1.15-.43-2.27-.55-3.35-.06-.45-.1-.9-.14-1.32.1-.13.18-.28.2-.46l.1-1.2-3.63 1.07c.05 1.16.18 2.37.37 3.6.17 1.13.4 2.27.65 3.42.35 1.6.77 3.2 1.24 4.75l3.16-.94-.4-1.37 3.8-2.98.82 3.08L45 20.8l-.94-3.53 4.56 2.43 2.23-.66-6.67-3.56c-.3-.16-.64-.12-.9.08M239.12 38.9c.2-.05.4-.1.62-.18-.2.06-.4.13-.62.18M186.93 105.54l2.6 2.05c.85-1.4 1.55-3.04 2.2-4.73l-4.5 2.12-.3.54"/><g transform="translate(57.644)"><mask id="ap" fill="#fff"><use xlink:href="#ao"/></mask><path fill="#FFBC00" fill-rule="nonzero" d="M.5 0H.2l.3.23V0" mask="url(#ap)"/></g><g transform="translate(57.644)"><mask id="ar" fill="#fff"><use xlink:href="#aq"/></mask><path fill="#FFBC00" fill-rule="nonzero" d="M274.66 74l-3.72 1.56L260 70.13l1.7-5.25 12.5 5.44 1.95 3.02-1.5.65zm-1.42 20.16l-5.74 2.03-1.97-4.93.64-10.15 5.78-2.44-.7 10.8c-.02.14 0 .27.06.4l1.94 4.28zm4.2 13.3l-6.1-1.66-2.62-6.57 5.67-2 3.04 10.24zm1.58 5.28l-5.08.35-1.92-5.42 5.98 1.64 1.02 3.42zm-17.83 1.24l.88-11.95 5.72 4.43.3.15 2 .55 2.14 6.06-11.05.78zm5.96-14.2l2.2 5.48-.68-.2-5.17-4 3.66-1.3zm-7.28-6.64l-.06-9.35 4.65-1.97-.6 9.52.06.36 2 5.03-4.4 1.56-1.65-5.16zm-.32 20.62l-.23-.02c-.24 0-.47.07-.67.17l-2.48-10.26 4.24-1.5-.86 11.62zm-12.64-3.3l-.05-3.54 7.75-2.73 2.4 9.88-10.1-3.63zm-1.75-7.2c-.8 0-1.47.6-1.6 1.36l-11.9 4.2 2.7-14.32 10.5-4.42 8.32 11.15-6.92 2.43c-.3-.26-.7-.42-1.1-.4zm-9.78 7.7l8.2-2.88.1 7.4-8.3-4.5zm-11.97-15.4l-5.8-15.57 12.17-3.14 3.25 6.76-1.6 8.56-8.02 3.37zm4.65 14.5l-11.3 3.77-3.27-10.55 17.22-7.25-2.64 14.03zm-1.44 8.15l-7.78 2.33-1.1-3.58 9.88-3.3-1 4.56zm-20.48-.83l-1.36-10.43 7.18-3.02 3.24 10.43-9.06 3.02zm-7.06 2.35l-3.45-8.93 7.58-3.2 1.33 10.3-5.46 1.82zm-8-18.24l10.97-5.32c.36-.18.54-.6.43-.97l-3.12-10.46 6.14-1.63 5.5 17.68-16.7 7.02-3.22-6.32zm-4.8 8.92c-.17-.13-.4-.2-.64-.15-.22.04-.4.17-.53.34l-4.96.8-15.18 2.9-3.75-6.26 26.78-5.34 3.5 6.86-5.22.84zm-26.88-13.28l22-7.55.2.5.05.14 5.6 10.98-26.6 5.3-1.25-9.36zm-.38-1.6l-1.5-4.65 10.2-12.16 2.55-.2 2.17 2.55-7.06 4.8c-.32.23-.44.66-.27 1.02l2.64 5.66-8.73 3zm-3.1-13.73c-2.27 3.44-5.48 7.07-8.1 9.8-1.53 1.6-2.83 2.87-3.68 3.67l-.75-.57-2.13-1.62-1.6-1.23c1.12-1.12 2.53-2.58 4.06-4.26 2.6-2.88 5.45-6.23 7.34-9.05 1.4-2.1 4.7-5.36 9.17-8 3.35-1.97 7.34-3.62 11.72-4.32l2.55 6.27c-7.87.46-14.8 3.54-18.57 9.3zm13.95-27.2c-1.85-2.43-4.6-5.07-8.4-6.23.5-2.14 1.4-6.1 2.4-10.5l22.18 8.1 5.5 18.4c-2.55-.16-5.6-.57-9.36-1.26-1.93-.35-3.83-.5-5.68-.5-.83 0-1.65.02-2.46.08l-.87-2.16c-.06-.17-1.08-2.94-3.3-5.9zm18.14-8s12.87.3 21.92.3c4 0 7.1-.04 8.47-.25.18-.04.32-.05.57-.14h.32c2.1 0 8.76.8 14.7 1.64l4.05.58-.7 4.86c-2.42.87-7.02 2.6-10.26 4.17-1.07.54-1.97 1.02-2.65 1.5l-3.2-.75c-.63-.32-2.3-1.03-4.8-1.03-2.3 0-5.25.62-8.6 2.6-4.83 2.86-7.67 4.37-13.67 4.4h-.86l-5.34-17.9.06.02zm3.3-5.35c.7.03 1.6.04 2.74.04 4.05 0 10.7-.2 17.3-.4-.6 1.03-.9 2.16-1.05 2.74h-.37c-7.58 0-17.9-.23-20.96-.3.66-.6 1.46-1.32 2.35-2.1zm10.06-7.43c1.77-.9 4.77-1.25 7.85-1.24 2.6 0 5.27.23 7.38.5l.42.08c1 .13 1.86.3 2.48.42-.4.5-.86.96-1.33 1.42-2.02 2-4.4 3.64-5.35 4.2-7.06.25-14.43.46-18.77.46h-.87c2.75-2.3 5.9-4.7 8.2-5.84zm19.76.35c1 .6 2.88 1.83 4.6 3l2.17 1.46-2.44.1-9.58.37c1.15-.85 2.5-1.97 3.73-3.23.53-.54 1.05-1.1 1.5-1.7zm3.5-6.15l4.9 1.18.17 8.68-3.03-2.06c-1.73-1.16-3.5-2.33-4.6-3 1.33-2.2 2.02-3.74 2.57-4.8zm-2.43-2.9l-3.35-1.6 8.65-4.3.6 1.2.98 1.94-.66.37c-1.86 1.06-3.44 2.08-4.15 2.86-.1.1-.2.24-.3.36l-1.77-.84zm-1.5-17.67l9.84-4.57.66.64-2.8 4.58-7.7-.65zm11.7-2.75l6.3 6.14c-.1.13-.18.27-.26.4L230.1 8.5l2.33-3.8zm9.5 17.45l-.37 2.54c-.68-.16-1.57-.4-2.47-.74-1.43-.54-2.87-1.37-3.8-2.46 1.3-.55 2.5-1.34 3.34-2 .82 1.17 1.95 2.1 3.28 2.65zm-.34-9.6c.28-.07.57-.2.8-.44.14-.14.25-.32.33-.5.62-.35 1.34-.57 2.1-.58 2.3 0 4.14 1.8 4.24 4.06-.34.27-.57.66-.6 1.13-.03.32.03.62.17.88-.2.4-.43.74-.73 1.05-.2-.05-.44-.02-.64.1-.23.17-.34.4-.35.67-.55.3-1.18.5-1.85.54-.25-.28-.6-.48-1-.54-.34-.05-.68.02-.97.17-1.15-.52-2-1.53-2.34-2.76.2-.23.35-.52.38-.86.05-.47-.1-.9-.4-1.23.17-.6.47-1.17.87-1.65zm8.3 11.03c-.87.23-2.07.5-3.2.7l-1.8.3.27-1.87c1.25-.05 2.43-.4 3.45-1l1.28 1.88zm1.58-4.8c.68.2 1.98.6 3.56 1.1-.3.3-.64.6-1 .92-.9.8-1.95 1.7-2.6 2.15l-1.5-2.22c.6-.56 1.14-1.2 1.54-1.94zm5.35 1.68l1.77.57.46.16c1.42.46 2.85.95 4.13 1.42l1.1.42-.26.46c-.48.85-.93 1.98-1 3.35l-.62.1-7.33 1.35-2.73-4c1.37-.95 3.54-2.98 4.46-3.84zm8 11.14c-.35.23-.62.44-.85.63-.14.1-.28.22-.37.3-.5.5-1.07 1.32-1.68 2.07-.57.73-1.28 1.35-1.43 1.36h-.12l-.06.02-.22-.3-4-5.9 5.57-1.02 1.5-.28c.23 1.03.75 2.1 1.65 3.12zm-20.76-1.28l.58-4.06c.7-.1 1.5-.23 2.35-.38 1.43-.27 2.84-.55 3.87-.87l2.45 3.62-9.25 1.7zm10.26-.22l4.18 6.15-15.64 2.42.96-6.64 10.5-1.93zm4.9 14.1l-12.4 2.87c-.25-.26-.58-.44-.95-.5 0 0-1.63-.25-4.08-.6l.8-5.6 16.95-2.62.23.33.7 1 .32.46c-.1.27-.83 2.1-1.58 4.65zm-1.42 6.25l-8.67.64-1.42-2.56L258.73 46c-.36 1.38-.68 2.9-.9 4.45zm-.28 3.43l-5.27 2.82-2.25-4.03 7.62-.57c-.05.6-.1 1.2-.1 1.78zm-27.32-13.7h.02l.07.04c.08.03.17.05.26.06h.02l8.68.24-.35 2.4-.15 1.1-.2 1.46-4.08-.57c-6.03-.83-12.52-1.66-15.15-1.67-.25 0-.47 0-.7.03-.2.03-.4.03-.7.16h-.03l-.46.06-1.77.1-3.63.05c.08-.28.2-.6.32-.95.26-.73.7-1.48 1.06-1.86l14.13-.53c.9-.05 1.67-.08 2.27-.1l.38-.02zm7.33-26.77l-9.78-1.03 1.48-2.42 8.5 2.78-.2.68zm-3.13 6.7c-.92-1.66-1.66-3-2.1-3.96l5.14.55c.1.47.23.92.4 1.36l-.6.46c-.8.58-1.84 1.2-2.84 1.57zm6.35 10.13l-9.55-2.3-.1-4.76c.94-.46 1.84-.86 2.56-1.1 1.2 1.7 3.1 2.74 4.83 3.4 1.08.42 2.06.68 2.82.84l-.57 3.93zm.1 22.36l.48-3.4 3.25.48 1.05 1.88-4.8 1.03zm-1.35-13.7l-7.67-.22c-.12-.1-.27-.16-.44-.17l-.17-8.9 9.3 2.25-1.03 7.04zm1.1 15.42l5.86-1.26 2.6 4.7-9.5 3.62 1.03-7.06zm-11.06-26.8l-3.9-.95c.45-.47 1.97-1.5 3.6-2.42l.24-.12.06 3.5zm-1.98-11.88l2.87.3c.22.66.58 1.38 1.02 2.2l.82 1.5c.18.3.36.63.56 1-.7.25-1.47.58-2.26.97l-.17-.32-2.84-5.64zm26.76 46l.97.44-16.78 9.14c-.1-.07-.23-.12-.36-.16l.06-.42.8-5.55 12.36-4.73 1.27.56 1.67.72zm1.3 11.46l3.37-1.65 9.94 4.95-9.74 4.1-3.58-7.4zm-4.58 14.38l7.14-3 .06 8.8.03.24 1.72 5.3-.45.17-8.5-11.52zm-3.9 2.75c.56-.3.87-.87.86-1.47l1.48-.62 8.45 11.42-3.12 1.1-7.74-10.4.07-.03zm-2.82-11.6l3.44-1.67 3.63 6.82-4.78 2-2.9-5.4c.55-.4.78-1.1.6-1.74zm9.83-4.8l3.53 7.3-4.77 2-3.67-6.9 4.92-2.4zm-5.7.96l-2.93-5.53 5.08-2.77 2.83 5.85-4.97 2.44zM243 77.46c-.26-.03-.53 0-.8.08l-2.68-5 4.58-2.5 2.9 5.46-4 1.97zm-6.73 7l4.58-2.5 2.74 5.1-8.5 3.58 1.18-6.2zm.64-9.83l2.38 4.45-3.77 2.04-2.44-5.1 3.83-1.4zM226.7 59.8c.35-.2.73-.4 1.14-.58 1.46-.7 3.25-1.47 5-2.17 1.56-.63 3.07-1.2 4.26-1.64l-.96 6.64-9.44-2.24zm-10.6 8.95c-1.3 0-2.6.14-3.86.5-4.73 1.35-10.25 3.3-16.26 4.1l-1.68-5.6c6.58 0 10.48-2 15.26-4.87 2.87-1.7 5.18-2.14 6.9-2.14 1.98 0 3.18.6 3.33.7l.47.2 15.4 3.65-.9 6.2-.06.46-3.76 1.38c-2.08-1.2-8.48-4.55-14.85-4.6zm-19.17 7.78c2.14-.3 4.2-.75 6.16-1.24l1.94 6.24-6.13 1.63-1.97-6.64zm.86 8.63L200.7 95 190.36 100l-5.72-11.24-.05-.1 13.2-3.52zm-18.4-9.33c1.32.1 2.66.3 4.02.55 2.4.45 4.73.65 7 .65 1.66 0 3.28-.1 4.85-.28l2.05 6.85-13.34 3.54-4.58-11.3zM174.36 82c.13-.12.2-.27.25-.43l2.8-1.9 3.4 8.4-11.47 3.92-2.4-5.2 6.8-4.63c.2.03.44-.03.63-.18zm1.02-16.1c.4 0 .77-.05 1.16-.05 1.66 0 3.35.15 5.08.47 4.43.82 7.96 1.26 10.95 1.4l1.5 5.03.25.8c-1.28.14-2.58.2-3.9.2-2.08 0-4.2-.17-6.38-.58-2.02-.4-4.03-.62-6-.7l-2.66-6.57zm.43 9.82l.97 2.4-2.93 2-2.57-3c-.17-.2-.43-.32-.7-.3l-2.9.25c2.44-.82 5.2-1.28 8.14-1.35zm40.24 4.68l5.87 15.8-9.37 3.94-5.4-17.45 8.9-2.3zm-9.4.73l-1.95-6.26c3.1-.84 5.94-1.77 8.45-2.48.9-.27 1.9-.4 2.94-.4 4.4 0 9.54 2.23 12.12 3.58l-21.6 5.55zm50.55-18.22l3 1.3-1.9 5.76-3.4 1.67-2.86-5.92 5.15-2.8zM158.26 47.8c-6.35-.7-12.3-2.87-14.9-3.94l-.1-.05 17.3-6.05-2.3 10.03zm-16.23-17.92l17.66 6.46-16.9 5.9-.76-12.36zm-11.86 12.7l3.03-3.2 6.12-.24.24 3.9-9.38-.47zm8 8.9l-.95 1.14-5.15-.44-2.48-6.37 8.52.4c.18 1.48.54 3.23.54 3.47 0 .18-.17.9-.47 1.78zm141.06 24.1c.45-.2.77-.58.9-1.04.12-.34.1-.7-.02-1.03-.42-.2-.8-.44-1.14-.72l-9.42-8.05-8.8-3.83 6.1-3.44-.65-1.5-7.3 4.12-1.05-.46-1.67-.73-2.5-1.1 11.22-6c-.13-.58-.24-1.14-.32-1.7l-5.38 2.88c.02-.34.05-.7.1-1.04.3-.13.54-.45.5-.82 0-.25-.15-.45-.34-.6.26-1.72.66-3.43 1.08-4.96l.15-.03c.43-.1.7-.54.6-.98-.04-.2-.17-.37-.33-.48.37-1.2.72-2.2.97-2.9l2.4 3.4c.06-.82.17-1.6.33-2.38l-2.74-3.9-.63-.92c.24-.12.45-.27.65-.43.3-.26.6-.56.87-.88l.24-.28c.7-.84 1.37-1.78 1.7-2.1.25-.25.87-.7 1.75-1.22.66-.37 1.44-.8 2.33-1.2l.02-1.77c-.97.4-1.85.83-2.6 1.24-1.23-1.3-1.6-2.52-1.6-3.62 0-1.47.74-2.8 1.26-3.53.95.27 1.96.5 3 .67l.02-1.65c-.84-.16-1.64-.34-2.4-.56l-.15-.22-.15-.1c-.24-.15-.54-.16-.8-.04-.08-.03-.2-.06-.28-.1l-.8-.3c-2.14-.8-4.75-1.67-7.07-2.42-.18-.18-.43-.25-.67-.2-.2-.08-.42-.15-.62-.2l12.98 1.07.03-3.28-16.64-1.38c-.06-1.18-.38-2.3-.9-3.26L269.95 0h-6.16l-8.2 5.15L254.26 0h-1.7l1.6 6.07-4.92 3.1c-1.24-.9-2.75-1.4-4.4-1.42-1.3 0-2.54.34-3.6.92l-4.07-3.95L246.38 0h-3.6l-6.86 3.5-3.6-3.5h-6.5l-.44.06c-1.72.25-3.7.5-5.62.66.15.5.26 1.05.34 1.6 3.32-.27 6.72-.8 8.72-1.14l.5.48-9.14 4.24c-.1 1-.25 2.04-.5 3.1l7.8.66-1.54 2.52-7.03-.75c-.2.57-.42 1.14-.68 1.7-.16.36-.33.7-.5 1.02 0 .14-.02.3-.05.43l7.95.85 1.17 2.33-9.8 4.86-.26-.13c-.35-.35-1.44-1.28-3.16-1.8-.46.5-.93.94-1.4 1.35h-.02c1.62.24 2.74 1 3.22 1.43l.26.23-.04.08c-.16.24-.4.56-.72.87-.67.64-1.63 1.25-3.1 1.25-1.7 0-4.67-.28-7.48-.28-2.6.03-5.08.17-6.62 1.35-1 .8-2.43 2.12-3.95 3.22-.97.7-2 1.3-2.88 1.63-.38.67-.78 1.3-1.18 1.9 1.75-.08 3.45-1.1 5.03-2.22 1.62-1.16 3.1-2.5 4.02-3.26.76-.67 3.08-1 5.58-.98 2.7 0 5.63.28 7.48.28 3.2-.03 4.8-2.17 5.32-3.06l2.3 1.1 1.5.72 2.25 1.07c-.6 1.15-1.23 2.6-2.52 4.7l-.05.07c-.4-.1-.9-.2-1.48-.3-.64-.13-1.4-.25-2.25-.37h-.04c-2.16-.3-4.87-.53-7.55-.53-3.2 0-6.35.32-8.6 1.42-2.93 1.47-6.83 4.58-9.87 7.2l-.2-.02c-.46-.08-.98-.27-1.5-.53-.82-.38-1.67-.92-2.48-1.47-.4.4-.83.78-1.24 1.13.67.46 1.4.94 2.13 1.36.58.33 1.18.63 1.8.85-.88.78-1.63 1.46-2.2 2l-4.9-1.8-.03-.4c-.97.4-1.94.6-2.87.6-.96 0-1.88-.22-2.75-.7l-9.4-5.02-2.5-.9.08-.38-3-1.6-.2.83-3.2-1.17-.06-1.1-1.7-.9.08 1.4-14.83-5.44-.25-4-.13-.07c-1.43-.82-2.53-1.65-3.33-2.47l.43 6.73c-.06.08-.1.18-.15.28-.2.56-.08 1.15.26 1.58l.58 9.13-6.42.25c-.2 0-.4.1-.56.25l-4.22 4.44-3.42-.16c.16.82.25 1.66.25 2.53 0 .26 0 .5-.03.76l2.97.15 2.93 7.53c.1.3.38.5.7.52l4.5.38-1.46 1.75c-.27.1-.42.33-.48.58l-3.8 4.52-1.93-.17 5.07 1.54 1.98-2.35 1.43 3.35 2.04.58-1.42-3.3c1-.05 2.7-.17 3.07-.3.45-.14 5.82-1.17 7.9-5.62 1.25-2.63 1.22-4.38 1-5.36 2.72.75 5.86 1.44 9.15 1.75.1 0 .2.02.3.04l.13.06.85 8.03c.02.3.04.57.04.86 0 1.2-.28 2.34-.87 3.14-.6.78-1.45 1.3-3.02 1.32h-.23c-1.86-.07-3.47-.32-5-.33-1.65-.02-3.3.4-4.62 1.8l1.87.53c.78-.53 1.62-.67 2.76-.7 1.33 0 2.97.26 4.95.33h.28c1.98 0 3.48-.8 4.35-2 .88-1.2 1.18-2.68 1.2-4.1 0-.35-.03-.7-.06-1.03l-.8-7.54c2.4.76 4.34 2.32 5.85 4.08 1.93 2.24 3.1 4.7 3.48 5.64.12.27.16.4.16.4l.03.05.58 1.43c-4.57.84-8.7 2.57-12.14 4.62-3.43 2.03-6.2 4.33-8.16 6.45l-2.22 2.77-.02.02c-.63.92-1.4 1.92-2.2 2.96l-.22.05-2.32 2.9.15-.08-1.1 1.28h-.02l-6.55 8.16c-.4.5-1.05.87-1.74 1.03l-.46 1.05c-.4 1.04-.84 2.25-1.28 3.5l2.9 1.68c.47-1.34.9-2.6 1.3-3.63.26-.68.53-1.26.74-1.67l1.83 1.38 1.9 1.46 1.4 1.07c-.03.28-.08.6-.15 1-.2 1.18-.52 2.83-.98 4.6-.9 3.58-2.47 7.73-4.46 9.8-1.94 2.12-4.93 2.68-7.77 2.68-2.25 0-4.14-.33-5.43-.35-.25 0-.5 0-.82.1-.08.03-1.48.2-3.16.4l-6 .6c-.2 0-.36.02-.54.04l-14.42 4.4h5.76l1.35-.46.08.47h1.67l-.1-.6c2.93-.27 8.77-.8 12.55-1.2 1.78-.2 2.96-.33 3.63-.5v.02l.56.04.56 2.25h3.2l-.48-1.97c.5.03 1.04.05 1.6.05 3.18 0 7.24-.6 10.2-3.7 2.7-2.96 4.22-7.43 5.22-11.23.72-2.82 1.1-5.26 1.27-6.35 1.8-1.67 8.62-8.2 12.86-14.63 1.76-2.72 4.53-4.8 7.96-6.14L156 90.17c-.18.2-.24.5-.15.76l1.85 5.82 1.44 10.82v.06l.1.2v.07l4.63 7.72c.15.26.42.4.7.4h.16l15.02-2.88 2.56 8.27h1.73l-2.64-8.55 3.8-.6 1.73 9.16h1.68l-1.77-9.42 5.4-.88 3.75 9.66-1.93.65h10.34l.6-.2.02.2h1.66l-.1-.72 9.6-3.2 1.1 3.52-1.4.4h5.75l4.6-1.36-.3 1.37h1.7l.35-1.6 4.9 1.6h5.2l-9.75-3.2 1.13-5.15.6-.2 3.25-1.15 10.42 5.67.06 4.04h3.3l-.04-2.23 4.12 2.24h3.43l-7.58-4.1-.08-5.1 10.1 3.63.34.05h.1c.06.13.17.23.3.3l.2 5.23h3.3l-.23-5.77 11.6-.8.98 6.58h1.66l-1-6.7 5.2-.36 1.43 4.8c.06-.23.1-.48.1-.74v-4.65l-1.16-3.92 1.16.32v-1.7l-1.7-.47-3.42-11.43 4.72-3.13.4 1.23V89.2c-2.73 1.84-5.08 3.4-6.3 4.2l-1.82-4 .75-11.43 1.16-.5 6.23 7.73v-5.23l-3.1-3.85 1.3-.57z" mask="url(#ar)"/></g><path fill="#FFBC00" fill-rule="nonzero" d="M238.1 39.12c.28-.04.56-.1.85-.17-.3.07-.57.12-.85.16v.02M58 .9l.1.1.02-.15L58 .9M121.46.42l.05-.42h-1.65l-.13 1.25c.56-.3 1.14-.57 1.74-.83M13.68 16.64l19.9-5.9-19.9 5.9M58.07 3.44l-1.5.45 1.5-.46M.43 18.88l.02.02.8.8-.82-.82M246.7 33.7l.17-.18-.17.2M248.03 32.06l.08-.1-.07.1M255.74 21.85c-1.05-.23-2.1-.56-3.1-1.02-.07.54-.17 1.1-.28 1.65 2.2.94 4.5 1.38 6.76 1.38.27 0 .54-.03.82-.04l-4.15-1.94-.06-.03"/><g transform="translate(1.342 2.007)"><mask id="at" fill="#fff"><use xlink:href="#as"/></mask><path fill="#FFBC00" fill-rule="nonzero" d="M.33 17.96L.2 17.9l.12.07" mask="url(#at)"/></g><g transform="translate(1.342 2.007)"><mask id="av" fill="#fff"><use xlink:href="#au"/></mask><path fill="#FFBC00" fill-rule="nonzero" d="M335.16.53c-.9 0-1.9-.06-2.86-.06-1.3.03-2.5.03-3.45.76-.72.6-1.33 1.48-1.34 2.55l.03.23c.46-.43 1-.76 1.6-1l.37-.08c.12-.16.25-.3.4-.43.2-.22 1.2-.42 2.4-.4l1.1.03 3.94-.8V.25c-.15.06-.33.12-.54.16-.42.1-1 .13-1.64.13" mask="url(#av)"/></g><path fill="#FFBC00" fill-rule="nonzero" d="M37.48 9.57l-3.75 1.1 3.75-1.1M56.1 4.03L50.83 5.6l5.25-1.57M171.95 86.66l-1.18-.34 1.18.34M113.03 22.84l.02.04-.02-.04M191.96 91.9h.05-.05M113.92 24.12l.05.06-.05-.06M111.7 18.93V19v-.07M150.88 28.66l-.13.08.14-.07h-.02M140.17 31.86h-.05.05M144.35 31.1l.05-.02h-.05M138.52 32.04l.14-.02h-.14v.02M176.43 110.04l-6.12 2.87 6.13-2.86M132.92 32.1h.03-.03M131.3 31.97h.15-.14M1.07 20.56l-1.15-1.2c-.15.13-.3.25-.48.36-.44.27-.95.5-1.44.67v1.72c.33-.1.68-.23 1.04-.37.67-.28 1.4-.67 2.03-1.2M11.54 25.44l2.37 4.66 3.2-.96-4.27-8.46L28 13.4 8.2 19.3h-.04L-2 26.48v4l11.87-8.34 1.67 3.3M195.58 17.06l.08.1-.08-.1M214.13 28.18l1.7.9-1.7-.9M157.37 23.1l-.1.17.1-.16"/><path fill="#FFBC00" fill-rule="nonzero" d="M118.65 38.95l24.92 1.92v.85c0 .54.27 1.02.68 1.32l-.25 2.24-25.62-2.3.27-4.02zm1.35-5.97l11.08.87-.34 2.75-11.44-.87.7-2.75zm12.72 1l6.48.5 4.76.78-.23 2.34-11.34-.87.32-2.75zm10.74 16.12l-6.22-.5c-.14-.14-.32-.24-.54-.25-.2-.02-.38.05-.53.17l-5.86-.47.28-3.34 13.24 1.2-.36 3.2zm-7.97 5.6l-5.67-.63.35-4.4 5.6.45-.3 4.57zm23.64-30.84l3 .2-1.2 4.22-2.2-.14.4-4.28zm.48-5.05l3.96.28-.96 3.36-3.32-.2.32-3.43zm.48-5c.6-.2 1.05-.73 1.13-1.4.07-.66-.28-1.3-.85-1.6l.26-2.73 5.92.67-2.5 8.74-4.28-.3.32-3.4zm1.25-13.2l19.12 1.96-2.08 5.87-10.3-1.16-.23-.12c-.17-.05-.35-.02-.5.04l-6.57-.75.55-5.84zM59.72 3.63c.06.2-.06.36-.3.44l-5.8 1.72 3.64-.17c5.42-.26 10.44-3.3 12.26-4.54l11.93 14.48-1.3 1.53 2.24 2.43 1.17-1.38 5.1 6.18 11.28 8.52-.14-.16 4.84-2.9 1.98 1.98c.15.13.33.22.52.23l11.2.88-.7 2.75-15.6-1.2 4.82 3.65 10.15.78-.26 4-4.04-.37 2.47 1.87 13.77 1.23-.27 3.36-8.3-.67 2.4 1.83 5.77.46-.3 3.67 3.6 2.74 3.52.38-.22 2.1 1.54 1.17.3-3.1 2.12.23 1.2-1.5-3.18-.36.3-4.62 5.86.47-.1.93 1.3-1.64c.17-.2.37-.36.6-.5l.78-7.1 9.34.6c.07-1.1.25-2.2.58-3.23l-8.9-.58v-.75l.35-3.84 9.18.5-.36 3.97c.48-1.3 1.15-2.48 2-3.55l.54-5.75 2 .12c.07.27.28.52.57.6l.23.03c.3 0 .56-.16.7-.4l2.92.66c1.2-.36 2.5-.56 3.83-.56.46 0 .9.03 1.35.07l-7.6-1.74 1.26-4.4h.08c.43 0 .8-.33.82-.76.02-.34-.17-.65-.46-.8l3.94-13.67 9.6 1.08-7.18 20.38c2.83.37 5.38 1.6 7.38 3.4l1 .25-.15.6c.47.5.9 1.03 1.3 1.6l.66-2.6c.06-.22.02-.45-.1-.64-.1-.2-.3-.33-.5-.38l-6.38-1.47 9.97-28.2 8.93 1.13c.1-.68.2-1.36.37-2.04l-.14-.07h-.02v-.02l-.1-.05c-.2-.13-.4-.27-.58-.42l-.15-.12c-.18-.16-.35-.33-.5-.5l-.06-.06-.16-.18-6.88-.9.07-.72h-3.32l-.04.35L177.8 0h-29.73c.85.33 1.67.68 2.44 1.07l.07-.57 9.15.94-.56 5.82-1.62-.18c.34.56.62 1.14.84 1.74l.63.07-.16 1.75c.06.4.1.8.1 1.2v7.93c0 1.75-.54 3.43-1.52 4.97h.08l-.4 4.3-3.68-.23c-.75.53-1.56 1.03-2.43 1.5l5.93.35-.36 3.8-9.18-.5.2-2.16c-1.1.4-2.23.75-3.4 1.03l-.1.8-2.1-.34c-2.12.36-4.38.56-6.7.56-4.85 0-9.35-.86-13.1-2.35l-1.8-.13.16-.57c-.52-.25-1.02-.5-1.5-.78l-.3 1.22-11.2-.87-1.46-1.47 7.02-4.2c-.3-.48-.55-.97-.76-1.46l-13.6 8.14-.9-1.08 13.1-9.3c.17-.1.28-.26.33-.45l.35-1.35v-6.48l-1.88 7.13-12.95 9.18-11.08-13.45L96.47 3l16.38 4.4c.67-1.2 1.6-2.34 2.78-3.38L116.7 0h-1.72l-1.12 4.3-2.94-.8c.28-.47.58-1 .9-1.6.33-.6.66-1.26 1-1.9h-1.86c-.47.92-.96 1.82-1.4 2.56l-.3.5-5.06-1.36L97.86 0H91.1l2.15 1.72-9.63 11.3L72.9 0h-4.75c-.64.4-1.53.95-2.63 1.5-1.63.84-3.66 1.67-5.8 2.12zM120.82 29.22l.13.06-.13-.06"/><path fill="#FFBC00" fill-rule="nonzero" d="M119.44 28.54l.06.02-.06-.03M156.3 24.52l-.1.15.1-.15M157.75 22.48l-.05.08v.02l.05-.1M241.78 37.8l.23-.12-.23.13M243.23 36.9l.05-.03-.05.03"/><path fill="#F89A1F" fill-rule="nonzero" d="M147.6 31.8c1.2-.43 2.34-.93 3.4-1.5l-3.25-.2-.16 1.7M131.3 31.97l-.1-.02-.18-.02c-.83-.1-1.65-.2-2.44-.34l-.16-.04c-.87-.16-1.72-.34-2.55-.56l-.17-.04c-.8-.22-1.57-.45-2.32-.7l-.16-.07c-.77-.28-1.5-.58-2.22-.9l-.05-.02-.4 1.52c.54.25 1.1.5 1.66.72l9.07.7.04-.25M132.95 32.1l-.03.26 5.58.43.02-.76h-.26c-.36.04-.72.06-1.08.08-.14 0-.28 0-.42.02-.5 0-.98.03-1.47.03-.72 0-1.43-.03-2.12-.06h-.23M156.15 24.7c-.3.35-.63.68-.97 1l-.15.13c-.35.3-.7.62-1.1.9l-.18.15c-.4.3-.8.57-1.22.84l-.2.12c-.44.27-.9.53-1.36.78l-.08.05 2.52.15c1.7-1.2 3.05-2.58 4-4.07l-1.23-.08-.05.04M157.65 23.13l.05-.55-.26.43-.06.1.27.03M119.42 28.53c-.55-.3-1.07-.6-1.57-.94l-.04-.03c-.5-.33-.97-.68-1.42-1.03l-.03-.02c-.45-.36-.88-.74-1.27-1.12-.4-.4-.77-.8-1.1-1.2l-.86.5c1.28 2.04 3.33 3.85 5.94 5.32l.38-1.48h-.02M144.35 31.1l-.1.02c-.64.15-1.28.3-1.94.4v.02c-.67.12-1.34.22-2.03.3l-.1.03-.03 1.1 1.87.32c.75-.14 1.48-.3 2.2-.47l.15-1.74M112.97 22.73c-.14-.23-.26-.46-.37-.7l-.1-.23c-.13-.24-.23-.5-.32-.74l-.04-.1c-.1-.3-.18-.58-.25-.87l-.06-.24c-.05-.23-.1-.46-.12-.7l-.03-.15-.05.2v.6c0 1.18.24 2.33.7 3.44l.68-.4-.06-.1"/><path fill="#F99110" fill-rule="nonzero" d="M113.92 24.12c-.15-.2-.3-.38-.43-.58l-.16-.22-.3-.44v-.04l-.68.4c.2.5.47.98.76 1.45l.85-.52-.05-.06M150.75 28.74c-.44.22-.88.44-1.34.64l-.06.03c-.45.2-.92.4-1.4.58l-.23.1-1.45.48-.3.1c-.5.15-1.02.3-1.55.42l-.05.02-.16 1.73c1.17-.28 2.3-.63 3.4-1.02l.15-1.7 3.24.2c.86-.45 1.67-.95 2.42-1.48l-2.53-.15-.15.07M120.82 29.22c-.45-.2-.9-.43-1.32-.66l-.06-.02-.38 1.48c.48.27.98.53 1.5.78l.4-1.52-.14-.06M111.7 19v-.07c-.04-.28-.05-.56-.05-.84v1.1l.04-.2M140.17 31.86h-.05c-.48.07-.97.12-1.46.16l-.14.02-.02.75-5.58-.44.03-.26h-.03c-.5-.03-.98-.07-1.47-.12h-.14l-.03.25-9.06-.7c3.75 1.47 8.25 2.33 13.1 2.33 2.32 0 4.58-.2 6.7-.57l-1.86-.32.03-1.1M158.83 19.34c-.05.34-.1.67-.2 1l-.05.17c-.1.3-.2.6-.32.9l-.05.14c-.12.32-.28.63-.45.94l-.05.1-.05.55-.27-.02-.1.17-.36.5-.2.25c-.12.17-.26.34-.4.5l-.13.15 1.22.08c.98-1.54 1.5-3.22 1.5-4.97v-1.7c0 .36-.02.7-.06 1.05l-.03.2"/><path fill="#29B6F7" fill-rule="nonzero" d="M131.3 31.96l.15.02c.5.05.97.1 1.47.12h.18c-.7-.04-1.4-.1-2.08-.17l.17.02h.1M111.7 19l.02.16c.03.24.07.47.12.7l.05.23c.06.28.14.57.24.85l.04.1.3.76.12.24c.1.23.23.46.37.7l.06.1.02.04.3.44.14.22c.12.2.27.4.42.58l.05.06c.34.42.7.82 1.1 1.2v.02c.4.38.83.76 1.28 1.12l.03.02c.45.36.93.7 1.43 1.03l.05.02c.5.32 1.02.63 1.57.93h.02l.06.03c.42.23.87.45 1.32.66l.13.06.05.02c.7.32 1.45.62 2.22.9l.16.05c.75.26 1.52.5 2.32.7l.17.05c.83.22 1.68.4 2.55.56l.16.03c.8.13 1.6.24 2.44.33l6.1-6.06c-.6.03-1.22.05-1.83.05-13.07 0-23.65-6.3-23.65-14.08v6.25c0 .27 0 .55.04.83V19"/><path fill="#21ADEF" fill-rule="nonzero" d="M137.12 25.88l-6.1 6.05c.68.08 1.38.13 2.08.17h.08c.7.04 1.4.07 2.1.07.5 0 1-.02 1.48-.03l.42-.02 1.08-.07.26-.02h.14l1.46-.16h.05l.1-.02 2.02-.3v-.02c.67-.12 1.3-.26 1.94-.4l.1-.04.06-.02c.53-.13 1.05-.28 1.55-.43l.3-.1c.5-.15 1-.3 1.46-.5l.25-.08c.47-.18.94-.36 1.4-.56l.06-.02c.47-.2.9-.42 1.35-.64l.13-.08.1-.04c.46-.25.9-.5 1.34-.78l.2-.12c.43-.27.84-.55 1.23-.84l.18-.14c.4-.3.75-.6 1.1-.9l.15-.14c.34-.32.67-.65.97-1l.04-.03.1-.15c.16-.16.3-.33.43-.5l.2-.25c.1-.17.23-.33.34-.5l.1-.16.07-.1.13-.2.13-.24.05-.08c.17-.3.33-.62.46-.94l.06-.13c.12-.3.23-.6.32-.9l.05-.17c.1-.32.15-.65.2-1l.03-.2c.04-.35.07-.7.07-1.04v-6.26c0 7.4-9.6 13.48-21.8 14.03"/><path fill="#81D4FA" fill-rule="nonzero" d="M135.3.03c10.74 0 19.46 4.5 19.46 10.1v1.97c0 5.57-8.72 10.1-19.47 10.1s-19.48-4.53-19.48-10.1v-1.97c0-5.58 8.72-10.1 19.47-10.1zM119.7 1.25c-1.55.8-2.93 1.74-4.1 2.77-1.16 1.04-2.1 2.18-2.77 3.4-.78 1.38-1.2 2.87-1.2 4.42 0 7.78 10.58 14.08 23.64 14.08.6 0 1.2-.02 1.82-.05 12.2-.55 21.8-6.62 21.8-14.03 0-.4-.02-.8-.08-1.2-.1-.62-.24-1.23-.46-1.82-.22-.6-.5-1.18-.84-1.74-1.42-2.36-3.87-4.42-7.03-6-.76-.4-1.58-.75-2.43-1.08H122.5l-1.04.42c-.6.26-1.18.54-1.74.83z"/><path fill="#38A4DD" fill-rule="nonzero" d="M115.82 10.12v1.93C115.86 6.5 124.56 2 135.3 2c10.7 0 19.4 4.5 19.45 10.05v-1.92c0-5.58-8.7-10.1-19.46-10.1-10.76 0-19.48 4.52-19.48 10.1"/><path fill="#29B6F7" fill-rule="nonzero" d="M146 17.7l-1.13-.36 1.13 1.7-10.5-3.2-2.5 4.22.18-4.93-.34-.1-11.36 2.88 8.03-5.45-7-1.33 6.36-.56-2.25-4.86.75.25-.74-1.6 9.47 3.17 2.06-2.63-.06 3.3 1.1.37 9.68-1.75-6.46 4.43 6.78 1.23-6.28.52 3.1 4.7zM135.3 2c-10.74 0-19.44 4.5-19.48 10.06v.03c0 5.57 8.72 10.1 19.47 10.1s19.46-4.53 19.46-10.1v-.05C154.7 6.5 146 2 135.28 2z"/><path fill="#4FC3F8" fill-rule="nonzero" d="M129.75 12.5l-.9-1.94-6.35.56 7 1.33-8.02 5.46 11.36-2.88-2.24-.68-.85-1.84M142.4 11.25l6.45-4.43-9.68 1.75 1 .34 2.73 4.1 6.28-.52-6.8-1.23M138.13 4.9l-2.06 2.62 2 .68.06-3.3M133 20.06l2.5-4.23-2.32-.7-.18 4.93"/><path fill="#0277BD" fill-rule="nonzero" d="M127.35 5.95l-.74-.25 4 8.64 2.24.68L146 19.04l-1.13-1.7-14.27-4.36-3.25-7.03"/><path fill="#B2ECF2" fill-rule="nonzero" d="M133.58 11.7c-.36-.23-.58-.55-.58-.9V9.72c0-.76 1.03-1.37 2.3-1.37s2.32.6 2.32 1.37V10l2.56-1.1-1-.33-1.1-.37-2-.68-9.47-3.18 4 8.64 2.98-1.27"/><path fill="#0288D1" fill-rule="nonzero" d="M140.18 8.9l-2.56 1.1v.8c0 .76-1.03 1.38-2.3 1.38-.7 0-1.3-.18-1.74-.47L130.6 13l14.27 4.36 1.13.35-5.82-8.8"/><path fill="#29B6F7" fill-rule="nonzero" d="M135.3 11.1c-1.27 0-2.3-.6-2.3-1.38v1.08c0 .35.22.67.58.9.43.3 1.04.48 1.73.48 1.3 0 2.32-.62 2.32-1.38V9.72c0 .76-1.03 1.38-2.3 1.38"/><path fill="#4FC3F8" fill-rule="nonzero" d="M135.3 11.1c1.3 0 2.32-.6 2.32-1.38 0-.76-1.03-1.37-2.3-1.37s-2.32.6-2.32 1.37c0 .76 1.03 1.38 2.3 1.38"/><path fill="#F89A1F" fill-rule="nonzero" d="M56.4 4v-.07l-.3.1c.1 0 .2 0 .3-.02M13.68 16.64l-2.52.75.2.37 2.32-1.13M58.06 3.9c.56-.06 1.1-.15 1.66-.27l-.15-.23-.32-.3-1.18.34v.46M33.58 10.73l-5.6 2.68 5.78-1.7-.03-1.02-.15.05M-.07 19.38c.2-.15.37-.3.52-.48l-.02-.02-2.43-2.5v1l1.93 2M53.62 5.78l-4.08.2-2.1.62c-.15.2-.4.34-.67.34l-.24-.03h-.06l-9 2.67-.08 1.04L53.6 5.8M7.95 18.35L2.37 20c-.1.03-.18.05-.28.05h-.02c-.12 0-.24-.03-.37-.07H1.7l-.6.6.16.15c.2.2.54.34.85.34.1 0 .18-.02.27-.04l5.85-1.74.16-.1-.43-.85"/><path fill="#F99110" fill-rule="nonzero" d="M53.62 5.78l5.8-1.72c.24-.08.35-.25.3-.43-.54.12-1.1.2-1.66.27v-.46l-1.65.5V4l-.3.03-6.56 1.95 4.08-.2M46.53 6.9l.24.04c.26 0 .52-.12.67-.34l-.52.16-.44.13h.05M33.73 10.68c0 .33 0 .67.03 1l3.63-1.07.08-1.03-3.75 1.1M33.58 10.73l-19.9 5.9-2.33 1.14-.2-.38-.44.13-2.75.82.43.84-.16.1L28 13.4l5.58-2.67M1.66 19.97l-.12-.05-.08-.04-.22-.17-.8-.8c-.14.17-.32.33-.5.48l1.13 1.18c.22-.17.42-.37.6-.58"/><path fill="#38A4DD" fill-rule="nonzero" d="M1.24 19.7l.22.18.08.04.13.05h.04c.14.05.26.07.38.07.1 0 .2 0 .3-.03l8.33-2.47.46-.14 22.41-6.67.16-.05L56.1 4.03l.47-.14 2.5-.76.18-.05.16-.06c.37-.1.44-.4.17-.66L58 .88l-.54.17 1.24 1L2.02 18.72l-4.02-4v1.64l3.24 3.34"/><path fill="#4FC3F8" fill-rule="nonzero" d="M58.7 2.04l-1.24-1-55.1 16L-2 12.9v1.84l4.02 4L58.7 2.03"/><path fill="#81D4FA" fill-rule="nonzero" d="M57.46 1.05L58 .9l.12-.05.58-.16-.87-.7h-.77l-54 15.94c-.37.1-.9-.02-1.16-.27L-2 12v.9l4.36 4.13 55.1-16"/><path fill="#38A4DD" fill-rule="nonzero" d="M3.05 15.94L57.05 0 11 13.6 23.8.87C22.47.74 21.17.44 19.98 0H5.7l7.6 6.7-5.46 1.46L-1.03 0H-2v12l3.9 3.67c.27.25.8.38 1.15.27"/><path fill="#81D4FA" fill-rule="nonzero" d="M24.68 0h-4.7c1.18.44 2.48.74 3.83.87L24.7 0"/><path fill="#4FC3F8" fill-rule="nonzero" d="M13.3 6.7L5.7 0h-6.73l8.87 8.16L13.3 6.7"/><path fill="#2DA2DF" fill-rule="nonzero" d="M23.8.87L11 13.6 57.06 0H30.82c-1.7.63-3.55.95-5.4.95-.53 0-1.08-.03-1.6-.08"/><path fill="#68C9F7" fill-rule="nonzero" d="M23.8.87c.54.05 1.1.08 1.63.08 1.84 0 3.7-.32 5.4-.95h-6.15l-.87.87"/><path fill="#F9AB26" fill-rule="nonzero" d="M268.84 21.98c-.14 0-.3 0-.44.02-1.53.88-3.08 1.3-4.52 1.22-1.25.33-2.55.56-3.9.62l.4.2c.96.5 2 .76 3.05.76 2.07 0 4.27-.96 6.37-2.75-.3-.05-.6-.07-.95-.07M252.75 18.95c0 .4-.02.8-.06 1.2 0 .08 0 .17-.02.27l3.06 1.43.05.03c1.1.23 2.2.34 3.32.34.5 0 1-.02 1.5-.06h-.02l-7.84-3.5v.3M270.46 20.52c.27.05.53.1.77.18 1.34-1.42 2.6-3.18 3.74-5.25.16-.3.28-.58.34-.87h-.15c-1.3 2.43-2.94 4.46-4.7 5.94"/><path fill="#FA9D0C" fill-rule="nonzero" d="M270.46 20.52c-.67.58-1.37 1.08-2.06 1.48l.44-.02c.35 0 .67.02.97.07.5-.4.96-.86 1.42-1.35-.23-.08-.5-.13-.76-.18M275.3 14.6c.05-.16.05-.3.07-.45l-.22.42h.16M259.12 22.22c-1.1 0-2.22-.1-3.33-.34l4.14 1.94.04.02c1.35-.07 2.65-.3 3.9-.62-.65-.04-1.27-.18-1.86-.44l-1.4-.62c-.5.04-1 .06-1.5.06"/><path fill="#F9AB26" fill-rule="nonzero" d="M245.9 34.57l-.26.3c.32 0 .64-.04.94-.1.25-.33.5-.67.73-1.03H246.7l-.2.2-.6.63M193.1 11.7c-.13-.5-.23-1-.3-1.53l-.03-.18c-.07-.53-.12-1.05-.15-1.57v-.1c-.03-.55-.03-1.1 0-1.65V6.6v-.54c-2.3.87-3.65 2.55-3.65 3.92 0 .7.34 1.3 1.1 1.7l3.53 1.7-.02-.05c-.18-.5-.33-1-.46-1.53l-.03-.1M241.16 38.14l-.05.02-.12.06-.82.35-.24.1-.17.05v.45c0 .53.02 1.05.06 1.5.4-.18.8-.38 1.2-.6-.34-.63-.22-1.35.16-1.93M216.5 31.53c.67.36 1.4.6 2.15.71.15.1.3.2.45.28l.26.14c.15-.62.3-1.23.43-1.85l-.7-.35c-.16-.1-.3-.2-.45-.28h-.04l-.54-.14-.4-.1c-.04 0-.08-.02-.1-.03h-.02c-.18-.06-.35-.15-.52-.22l-.46-.2h-.02l-.02-.02h-.02l-.68-.37v.18l.1 1.94.58.3M214.13 28.18l-15.05-8.03.13 2.15 15.02 8.02-.1-2.14M238.1 39.16v-.04h-.07c-.2.03-.4.04-.62.05l-.35.02H237l-.2-.02c-.23 0-.46-.03-.7-.06-.08 0-.18-.03-.27-.05l-.6-.15-.25-.08c-.27-.1-.53-.2-.8-.34l-10.53-5.63-1.1.6-.18.8 2.4 1.28 13.37 4.9c-.02-.4-.04-.84-.04-1.3M249.12 30.45l-.05.07c-.3.5-.62.96-.94 1.4l-.02.04.4-.12c.1-.18.2-.35.28-.53.16-.28.27-.57.34-.85M195.58 17.06l-.04-.05c-.2-.25-.37-.5-.54-.77l-.1-.18c-.17-.26-.32-.52-.46-.8l-.04-.05c-.2.4-.3.82-.3 1.27 0 1.02.53 2.14 1.65 3.3l-.17-2.7"/><path fill="#FA8E0C" fill-rule="nonzero" d="M241.17 38.13c-.4.6-.5 1.3-.16 1.93h.02c.66-.4 1.33-.85 1.98-1.4l-.13-.1c-.37-.26-.74-.5-1.08-.75h-.02c-.2.13-.4.23-.6.33M245.63 34.87l-.16.15-.7.65c-.14.1-.27.23-.4.35l-.86.66-.22.2.54.35.42.3c.8-.8 1.6-1.73 2.34-2.75-.3.05-.62.08-.95.1"/><path fill="#FA9D0C" fill-rule="nonzero" d="M239.74 38.72c-.2.07-.4.13-.62.18l-.17.05c-.3.07-.57.13-.85.17v.04c0 .45.02.9.04 1.28l-13.36-4.9 9.4 5.04c.88.47 1.8.7 2.76.7.94 0 1.9-.22 2.87-.62-.03-.44-.06-.96-.06-1.5v-.44M199.07 20.15c-.3-.18-.6-.38-.9-.58l-.15-.1c-.28-.2-.54-.43-.8-.65l-.15-.14c-.25-.23-.5-.47-.73-.72l-.05-.05c-.23-.24-.44-.5-.64-.75l-.08-.1.17 2.7c.8.83 1.9 1.66 3.33 2.48l.13.07-.12-2.15M215.82 29.1l-1.7-.92.1 2.14 1.7.9-.1-1.94v-.2M222.55 33.48l1.1-.6-3.86-2.07-.44 1.86 3 1.6.2-.78M248.03 32.06c-.38.5-.77 1-1.16 1.46l-.16.2.4.03H247.3v-.02c.42-.6.8-1.23 1.2-1.9-.14.05-.27.1-.4.13l-.07.1M243.28 36.87l-.05.03-.14.1-.82.52-.27.16-.2.13c.33.25.7.5 1.07.77l.13.1c.42-.36.83-.73 1.24-1.14l-.42-.3c-.2-.12-.37-.24-.54-.36"/><path fill="#38A4DD" fill-rule="nonzero" d="M234.56 0h-.5l.22.14.28-.14M252.75 18.48v.2l7.85 3.47 1.42.63-9.26-4.1v-.2M258.8 10v.05c.32-1.3.8-2.63 1.4-3.96 1.08-2.4 2.5-4.46 4.04-6.1h-21.3c-.5 1.34-.84 2.74-1 4.15L258.8 10M242.05 7.96l4.44 2-4.45-2"/><path fill="#2D9BD7" fill-rule="nonzero" d="M249.2 11.16c.28.16.55.34.8.54l.24.22c.16.14.32.28.46.44.1.1.17.2.25.3.12.16.25.3.36.48.1.12.15.25.22.38.1.17.2.33.28.5l.18.44.22.56c.05.15.1.32.13.48l.16.6.08.52.1.64.03.56c.03.22.04.44.05.66v.2l9.27 4.1c-.25-.1-.5-.25-.7-.4l-.22-.15c-.15-.1-.3-.22-.43-.35l-.22-.2-.37-.4-.2-.24-.33-.5-.13-.2c-.14-.26-.28-.52-.4-.8l-.1-.23c-.07-.2-.15-.4-.2-.62-.05-.12-.08-.24-.12-.37l-.14-.56-.1-.4-.08-.62-.05-.42c-.03-.24-.04-.5-.05-.74l-.02-.42v-.97c0-.16.03-.33.04-.5 0-.2.03-.43.05-.65l.07-.55.1-.64.1-.57.14-.68.13-.53V10l-16.85-5.85v.14c-.03.17-.04.34-.05.5l-.02.62v.5c0 .25 0 .48.02.72 0 .16.02.32.04.48.02.28.05.56.1.84l7.15 3.2"/><path fill="#0288D1" fill-rule="nonzero" d="M258.8 10.05c-.06.18-.1.35-.14.53l-.14.68-.1.57-.1.64-.07.55-.05.65c0 .17-.03.34-.03.5 0 .33-.02.65 0 .97v.42c.02.25.03.5.06.74 0 .14.03.28.05.42l.1.6.08.42.14.57.1.38.23.63.1.25c.1.27.25.53.4.78l.12.2c.1.18.22.35.34.5l.18.25.37.4.22.2c.13.13.28.24.43.35l.2.15c.23.15.47.3.72.4.6.26 1.2.4 1.86.44 1.44.1 3-.34 4.52-1.22.7-.4 1.4-.9 2.06-1.48 1.75-1.48 3.38-3.5 4.7-5.95l.2-.42.5-1c.26-.58.5-1.15.7-1.72.3-.82.55-1.63.75-2.43.27-1.06.44-2.1.52-3.1.1-1.27.08-2.47-.08-3.57-.08-.56-.2-1.1-.34-1.6-.07-.26-.16-.5-.26-.73h-3.95c1.8 2.4 1.8 6.95-.23 11.42-2.53 5.54-7.26 8.84-10.57 7.35-3.3-1.48-3.93-7.2-1.4-12.73 1.2-2.6 2.85-4.7 4.63-6.04h-1.4c-1.54 1.64-2.95 3.7-4.04 6.1-.6 1.32-1.08 2.64-1.4 3.95"/><path fill="#4FC3F8" fill-rule="nonzero" d="M261 6.04c-2.53 5.54-1.9 11.25 1.4 12.73 3.3 1.5 8.04-1.8 10.57-7.35C275 6.95 275 2.4 273.2 0h-7.57c-1.78 1.35-3.44 3.44-4.63 6.04"/><path fill="#039BE5" fill-rule="nonzero" d="M193.1 3.04h.02l.02-.07-.03.07M191.57 1.8c-.45-.52-.8-1.14-1.07-1.8h-.03c.24.6.55 1.13.94 1.62l.17.18"/><path fill="#038DD5" fill-rule="nonzero" d="M191.62 1.85c.16.18.33.35.5.5l.16.13c.2.15.4.3.6.42l.07.05h.02v.02l.14.07.04-.07c.14-.62.32-1.22.53-1.82l.03-.1.4-1.05h-3.6c.27.66.62 1.28 1.07 1.8l.05.05"/><path fill="#29B6F7" fill-rule="nonzero" d="M192.62 6.65v.03c-.03.55-.03 1.1 0 1.64v.1c.03.53.08 1.05.15 1.57l.03.17c.07.52.17 1.03.3 1.52l.02.1c.13.52.28 1.03.46 1.53.24.67.53 1.3.86 1.93.14.27.3.53.45.8l.1.17.54.78.04.06.08.1c.2.25.4.5.63.75l.04.06c.23.25.48.5.73.72l.16.14c.25.22.5.44.8.64l.14.1.9.6c-4.7-3.04-6.33-7.26-6.45-13.5M193.67 1.15c-.2.6-.4 1.2-.53 1.82l-.02.07c-.16.68-.28 1.36-.37 2.05l-.08.7 20 10.78.13-.02c.52-2.58 1.5-5.3 2.96-7.97 2.3-4.18 5.27-7.04 8.3-8.6h-29.95l-.4 1.05-.03.1"/><path fill="#0288D1" fill-rule="nonzero" d="M217.9 30l.16.03c.18.04.36.1.55.13h.03c-.25-.04-.5-.1-.73-.17"/><g fill-rule="nonzero"><path fill="#0288D1" d="M216.97 29.66l.04.02c.2.07.36.16.54.22-.2-.06-.38-.16-.57-.24M215.76 8.6c-1.46 2.66-2.44 5.38-2.96 7.96l1.72-.25.13.07c1.98-8.66 9.92-16.74 21-11.28l1.98.9 4.4 1.96-.1-.84-.03-.48-.03-.7V5.4c0-.2 0-.4.03-.6 0-.18.02-.35.03-.53v-.15h.02c.14-1.4.48-2.8 1-4.15h-8.4l-.28.14-.22-.14h-9.98c-3.05 1.56-6.02 4.42-8.3 8.6"/><path fill="#29B6F7" d="M230.88 28l-.06.28c-.66 4.25.05 8.4 3.35 10.2l.02.02c-3-1.6-4.1-5.72-3.32-10.5M231.58 25.03l-.07.25c.5-1.6 1.17-3.24 2.05-4.85 4.14-7.55 11.14-11.7 15.64-9.26L237.62 6l-2-.9c-11.06-5.47-19 2.6-20.97 11.28l16.92 8.65"/></g><path fill="#0288D1" fill-rule="nonzero" d="M246.86 27.15c-3.16 5.77-8.5 8.93-11.94 7.08s-3.65-8.03-.5-13.8c3.18-5.76 8.52-8.92 11.95-7.07s3.65 8.03.5 13.8zm5.83-7c.03-.4.04-.8.05-1.2v-.46c0-.24-.02-.46-.04-.68 0-.2 0-.38-.03-.56-.02-.22-.06-.43-.1-.64l-.08-.52c-.06-.2-.1-.4-.17-.6l-.13-.48-.22-.55c-.06-.15-.1-.3-.18-.44-.08-.18-.18-.34-.28-.5l-.2-.4-.37-.46-.25-.3c-.14-.17-.3-.3-.46-.45l-.24-.22c-.25-.2-.52-.38-.8-.53-4.5-2.44-11.5 1.7-15.65 9.26-.88 1.62-1.55 3.25-2.03 4.85-.13.4-.24.83-.34 1.25l-.07.3-.22 1.16c-.8 4.78.33 8.9 3.3 10.5.27.14.53.25.8.34l.25.08.6.15.28.05.7.06H237.4l.63-.06h.07c.28-.05.56-.1.85-.17l.17-.05c.2-.05.42-.12.63-.2l.17-.04.24-.1c.27-.1.54-.2.82-.34l.13-.06.08-.04.6-.3.23-.14.28-.16c.27-.17.54-.34.8-.53l.15-.1.05-.04.23-.18c.3-.2.58-.43.87-.66.13-.1.26-.24.4-.35l.7-.65.16-.16.28-.3.6-.62.2-.23.17-.18c.4-.46.78-.95 1.16-1.46l.07-.1.03-.03c.32-.45.64-.92.94-1.4.26-.43.52-.86.76-1.3 1.24-2.26 2.07-4.56 2.53-6.75.1-.56.2-1.1.28-1.65l.05-.7z"/><path fill="#4FC3F8" fill-rule="nonzero" d="M246.37 13.36c-3.43-1.85-8.77 1.3-11.94 7.08-3.16 5.76-2.94 11.93.5 13.8s8.77-1.33 11.93-7.1c3.16-5.75 2.94-11.93-.5-13.78"/><path fill="#CBC550" fill-rule="nonzero" d="M192.67 5.8l-.06-.03v.3l.05-.03.02-.24"/><path fill="#C8A144" fill-rule="nonzero" d="M192.65 6.04l-.04.02c0 .18 0 .36.02.55l.03-.56"/><path fill="#21A9EC" fill-rule="nonzero" d="M192.65 6.04c0 .2-.03.38-.03.57v.05c.12 6.25 1.75 10.47 6.46 13.5l15.05 8.04 1.7.9.66.35c-3.6-1.95-4.86-7.04-3.7-12.9l-.12.03-20-10.78-.03.24"/><path fill="#0285CD" fill-rule="nonzero" d="M216.5 29.45h.02v.02h.04v.02l.42.16c.2.08.37.18.57.24l.1.03.25.06c.24.05.48.12.73.16h.02c-4.13-2.72-5.23-8.37-4-13.8l-.12-.05-1.72.26c-1.16 5.85.1 10.94 3.7 12.9"/><path fill="#21A9EC" fill-rule="nonzero" d="M218.65 30.16l.44.28 15.1 8.06h-.03c-3.3-1.8-4-5.97-3.35-10.22.16-1.05.4-2.14.76-3.25l-16.92-8.65c-1.24 5.4-.14 11.06 4 13.78"/><g transform="translate(230.82 25.003)"><mask id="ax" fill="#fff"><use xlink:href="#aw"/></mask><path fill="#0285CD" fill-rule="nonzero" d="M.3 1.83c0-.1.03-.2.06-.3C.46 1.1.56.68.7.27L.76.03C.4 1.13.16 2.23 0 3.28l.06-.3C.13 2.6.2 2.22.3 1.84" mask="url(#ax)"/></g><g transform="translate(230.82 25.003)"><mask id="az" fill="#fff"><use xlink:href="#ay"/></mask><path fill="#F89A1F" fill-rule="nonzero" d="M94 33.1l-.55.2c-1.77.64-2.05 2.17-.62 3.38l3.55 3.05 6.42 2.8c.3.12.55.34.73.6l3.26 5.04.14.3c.3.14.6.24.92.33v-5.44C102.8 43.66 97.3 39.6 94 33.1" mask="url(#az)"/></g><path fill="#F99110" fill-rule="nonzero" d="M337.76 73.5c-.04-.12-.1-.23-.15-.33l-3.25-5.03c-.18-.27-.43-.48-.73-.6l-6.42-2.8 9.42 8.04c.33.28.72.52 1.14.7"/><g transform="translate(149.64 3.317)"><mask id="aC" fill="#fff"><use xlink:href="#aB"/></mask><path fill="#38A4DD" fill-rule="nonzero" d="M185.1 12.32c-6.15-1.53-7.37-4.66-7.3-7.05-.4 1.66-.77 4.4-.78 6.2v.02l-.08 6.95v.85l-.14 12.17c.77-.62 1.63-1.13 2.6-1.45l9.64-3.26V12.74c-1.15.05-2.46-.06-3.93-.42" mask="url(#aC)"/></g><g transform="translate(149.64 3.317)"><mask id="aE" fill="#fff"><use xlink:href="#aD"/></mask><path fill="#29B6F7" fill-rule="nonzero" d="M181.2 1.6l-.37.08c-.6.25-1.13.58-1.6 1-.58.57-1.05 1.32-1.4 2.3l-.02.3c-.07 2.38 1.15 5.5 7.3 7.04 1.48.36 2.8.47 3.94.42V9.96c-.5.14-1.07.22-1.66.22-2.26 0-4.1-1.1-4.1-2.44V6.72c0-1.35 1.84-2.44 4.1-2.44.6 0 1.15.08 1.66.22V.02l-3.93.8-3.9.8" mask="url(#aE)"/></g><g transform="translate(149.64 3.317)"><mask id="aG" fill="#fff"><use xlink:href="#aF"/></mask><path fill="#38A4DD" fill-rule="nonzero" d="M183.3 6.72v1.02c0 1.35 1.82 2.44 4.08 2.44.6 0 1.15-.08 1.66-.22V8.93c-.5.14-1.07.22-1.66.22-2.26 0-4.1-1.1-4.1-2.43" mask="url(#aG)"/></g><g transform="translate(149.64 3.317)"><mask id="aI" fill="#fff"><use xlink:href="#aH"/></mask><path fill="#81D4FA" fill-rule="nonzero" d="M183.3 6.72c0 1.34 1.82 2.43 4.08 2.43.6 0 1.15-.08 1.66-.22V4.5c-.5-.14-1.07-.22-1.66-.22-2.26 0-4.1 1.1-4.1 2.44" mask="url(#aI)"/></g><g transform="translate(149.64 3.317)"><mask id="aK" fill="#fff"><use xlink:href="#aJ"/></mask><path fill="#4FC3F8" fill-rule="nonzero" d="M189.04 32.1v-2l-2.1.7c.7.36 1.4.8 2.1 1.3" mask="url(#aK)"/></g><g transform="translate(149.64 3.317)"><mask id="aM" fill="#fff"><use xlink:href="#aL"/></mask><path fill="#4FC3F8" fill-rule="nonzero" d="M184.68 29.95l4.36-1.47v-1.72l-9.65 3.26c1.7-.57 3.5-.56 5.28-.07" mask="url(#aM)"/></g><g transform="translate(149.64 3.317)"><mask id="aO" fill="#fff"><use xlink:href="#aN"/></mask><path fill="#039BE5" fill-rule="nonzero" d="M186.94 30.8l2.1-.7v-1.62l-4.36 1.47c.76.2 1.52.48 2.26.85" mask="url(#aO)"/></g><g transform="translate(149.64 3.317)"><mask id="aQ" fill="#fff"><use xlink:href="#aP"/></mask><path fill="#0288D1" fill-rule="nonzero" d="M184.68 29.95c-1.8-.5-3.6-.5-5.3.07-.95.32-1.8.82-2.58 1.45-.25.2-.5.4-.72.63-1.68 1.65-2.83 4-3.4 6.77-.16.77-.28 1.56-.34 2.38-.14 1.76-.06 3.62.24 5.54.1.54.2 1.1.33 1.67.14.6.3 1.17.48 1.77l.3 1 .14.36c.12.35.26.7.4 1.04.2.52.43 1.02.66 1.5l.3.65c3.3 6.47 8.8 10.55 13.86 10.25V61.5c-4.77.12-9.95-4.47-12.28-11.28-2.68-7.8-.6-15.58 4.66-17.35 2.45-.83 5.16-.2 7.62 1.52v-2.3c-.7-.5-1.4-.94-2.1-1.3-.74-.37-1.5-.65-2.26-.85" mask="url(#aQ)"/></g><g transform="translate(149.64 3.317)"><mask id="aS" fill="#fff"><use xlink:href="#aR"/></mask><path fill="#29B6F7" fill-rule="nonzero" d="M181.42 32.87c-5.25 1.77-7.34 9.54-4.66 17.35 2.33 6.8 7.5 11.4 12.28 11.3v-8.53c-.2.1-.4.22-.63.3-2.32.8-5.18-1.4-6.36-4.86-1.2-3.48-.27-6.93 2.07-7.72 1.65-.55 3.55.37 4.94 2.17v-8.5c-2.46-1.72-5.17-2.36-7.62-1.53" mask="url(#aS)"/></g><g transform="translate(149.64 3.317)"><mask id="aU" fill="#fff"><use xlink:href="#aT"/></mask><path fill="#4FC3F8" fill-rule="nonzero" d="M184.1 40.72c-2.33.8-3.25 4.24-2.06 7.72 1.18 3.47 4.04 5.65 6.37 4.86.24-.08.44-.18.64-.3V42.9c-1.4-1.8-3.3-2.73-4.93-2.18" mask="url(#aU)"/></g><g transform="translate(149.64 3.317)"><mask id="aW" fill="#fff"><use xlink:href="#aV"/></mask><path fill="#F89A1F" fill-rule="nonzero" d="M13.4 114.38h.06l-.13-1.12c-1.82.37-3.38.82-4.53 1.38-2.72 1.32-5.85 2.26-8.46 2.9l-.06.55h2.25L13 114.45l.4-.08" mask="url(#aW)"/></g><path fill="#F89A1F" fill-rule="nonzero" d="M180.37 108.93l-.28-.6-1.47.68-.43.2c.42-.04.84-.1 1.25-.15.3-.03.62-.07.92-.12M185.85 107.1c.35-.37.7-.9 1.08-1.56l-.34-.26-5.02 2.35.45.98c2.02-.44 3.54-1.07 3.82-1.5M176.97 115.1c-4.17.25-8.66.58-12.38 1.2l.14 1.25 6.08-.56 6.15-1.9M181.84 113h.33c.44 0 1.25 0 2.2-.17h.02l2.83-.88c1.12-.54 2.13-1.36 2.74-2.6l.5-1.02-.94-.74c-.37.6-.78 1.18-1.23 1.68-1.88 1.9-4.9 2.47-8.4 3-3.2.45-6.7.6-9.6.63l-.2.1-.78.37c2.5-.28 4.18-.36 4.18-.36h8.34"/><path fill="#F98810" fill-rule="nonzero" d="M189.97 109.35c-.6 1.24-1.62 2.06-2.73 2.6l5.63-1.73-2.4-1.9-.5 1.03M184.38 112.83c-.96.16-1.77.18-2.2.18h-8.68s-1.7.1-4.18.37l-3.63 1.7-1.2.4.1.82c3.7-.62 8.2-.95 12.37-1.2l7.4-2.27"/><g transform="translate(-2 9.645)"><mask id="aY" fill="#fff"><use xlink:href="#aX"/></mask><path fill="#F98810" fill-rule="nonzero" d="M151.98 111.2c2.6-.63 5.73-1.57 8.46-2.9 1.15-.55 2.7-1 4.53-1.36l-.07-.6-12.85 4.28-.07.58" mask="url(#aY)"/></g><g transform="translate(-2 9.645)"><mask id="ba" fill="#fff"><use xlink:href="#aZ"/></mask><path fill="#F99110" fill-rule="nonzero" d="M152.05 110.62l-3.44 1.14h3.3l.08-.56.07-.58" mask="url(#ba)"/></g><g transform="translate(-2 9.645)"><mask id="bc" fill="#fff"><use xlink:href="#bb"/></mask><path fill="#F99110" fill-rule="nonzero" d="M172.3 103.26c2.9-.02 6.4-.18 9.6-.6 3.5-.55 6.52-1.12 8.4-3.02.45-.5.86-1.07 1.23-1.7l-2.6-2.05c-.37.64-.73 1.18-1.08 1.55-.28.43-1.8 1.06-3.82 1.52l-.45-1-1.5.7.3.6c-.3.06-.62.1-.93.14-.4.07-.83.12-1.25.16l-1.77.83-6.12 2.86" mask="url(#bc)"/></g><g transform="translate(-2 9.645)"><mask id="be" fill="#fff"><use xlink:href="#bd"/></mask><path fill="#F99110" fill-rule="nonzero" d="M166.74 107.9l-.15-1.26-.1-.82-1.6.53.07.6.13 1.1h-.06l-.4.1-10.47 3.6h4.23l14.42-4.4c-2.36.2-4.6.42-6.08.55" mask="url(#be)"/></g><g transform="translate(-2 9.645)"><mask id="bg" fill="#fff"><use xlink:href="#bf"/></mask><path fill="#81D4FA" fill-rule="nonzero" d="M10.43 26.35l4.8-1.5 1.43-.45 26.02-8.13.7-.22 12.2-3.82.77-.24 12.22-3.83 1.16-.36 4.53-2.63 3.12 3.62 40.96 31.93 1.34 1.05 6.03 4.7.66.5 9.6 7.5 2.8-3.48-.08-.06-54.1-40.9-9.3-10L63.24 6.3l-.62.2L8.08 22.8l-2.86-.23-5.2-.44v.14l8.44.7 2 3.38" mask="url(#bg)"/></g><g transform="translate(-2 9.645)"><mask id="bi" fill="#fff"><use xlink:href="#bh"/></mask><path fill="#81D4FA" fill-rule="nonzero" d="M164.9 106.35l1.6-.53 1.2-.4 3.62-1.7 1-.46 6.1-2.87 2.2-1.04 1.47-.68 1.48-.7 5-2.35.64-.3 8.4-3.92-1.18-.67-1.48-.84-19.08-11-13.62-3.9 4.28 3.33 7.06 5.5 12.34 6.7-11.33 4.85-.7.3-4 1.72-9.8 3.3-.75.25-30.57 10.27-1.6.54h21.43l16.3-5.4" mask="url(#bi)"/></g><path fill="#38A4DD" fill-rule="nonzero" d="M123.85 90.26V100l15.7-4.64-8.46-7.22-7.25 2.12M124.36 56.63l-7.77 2.33 11.67 9.6 2.9-.96 2.8-3.47-9.6-7.5M107.24 61.05l-6.43-5.28-5.02 1.3 6.43 5.5 5.04-1.52M85.9 49.5L69.15 35.17l-9.67 2.46 10.12 9.9-6.76 1.83 4.94 5.45 18.1-5.33M86.66 49.26l4.6-1.35-17.03-14-4.27 1.08 16.7 14.28M109.07 53.64l-6.65 1.7 6.37 5.25 6.4-1.92-6.13-5.04M109.42 61.1l11.9 9.8 6.2-2.08-11.7-9.63-6.4 1.9M46.53 99.23l6.42-1.66-4.24-5.8-9.12-2.93 6.13 10.4h.83M129.62 69.53l-.12.04.05.05.07-.1"/><path fill="#38A4DD" fill-rule="nonzero" d="M122.24 79.68l11-2.84-2.27-.65c-.9-.27-2.96-.6-2.44-3v.02c-.16-.58-.1-1.4.4-2.53.03-.2.1-.37.22-.54l-.4-.33-7.72 2.57-13.17-10.83-5.04 1.5 19.42 16.6M140.75 96.4l-16.9 5v6.07l22.95-5.9-6.05-5.17M112.24 104.82l-18.7 5.52-.62 5.06 23.45-6.02-4.13-4.56M90.7 80.08l11.7-3.18-12.23-10.04-9 2.7 9.54 10.52M32.87 77.46l.1-.1 15.97-3.5-15.05-16.6-11.15 3.04 10.12 17.16M89.53 93l-20.67 5.33L80.8 112.7l11.5-3.4 1.47-11.7-4.24-4.6"/><g transform="translate(36.023 72.55)"><mask id="bk" fill="#fff"><use xlink:href="#bj"/></mask><path fill="#38A4DD" fill-rule="nonzero" d="M.13 10.47l.08.14 1.53.2c.14.02.3.05.43.1l12.72 4.07c.48.16.9.45 1.2.86l5.77 7.92 6.22-1.6-5-6.03 21.18-5.75L34.8.1.14 10.47" mask="url(#bk)"/></g><g transform="translate(36.023 72.55)"><mask id="bm" fill="#fff"><use xlink:href="#bl"/></mask><path fill="#38A4DD" fill-rule="nonzero" d="M80.86 37.4L56.8 43.57l-.65 5.3h30.32v-5.3l-5.6-6.17" mask="url(#bm)"/></g><g transform="translate(36.023 72.55)"><mask id="bo" fill="#fff"><use xlink:href="#bn"/></mask><path fill="#38A4DD" fill-rule="nonzero" d="M39.55 48l.63.86h14.6l.62-4.93L39.55 48" mask="url(#bo)"/></g><path fill="#38A4DD" fill-rule="nonzero" d="M12.97 43.7l.17.02 6-2.73-5.9-6.5-4.8 1.5 4.53 7.7M62.13 49.57L53.6 51.9l5.13 5.6 8.35-2.47-4.95-5.46M122.5 115.13v-6.62l-4.88 1.26 4.87 5.37"/><g transform="translate(48.154 88.912)"><mask id="bq" fill="#fff"><use xlink:href="#bp"/></mask><path fill="#38A4DD" fill-rule="nonzero" d="M115.12 8.44l10.5-2.7-2.17-1.17-5.76-4.5-9.38 2.78 6.8 5.6" mask="url(#bq)"/></g><g transform="translate(48.154 88.912)"><mask id="bs" fill="#fff"><use xlink:href="#br"/></mask><path fill="#38A4DD" fill-rule="nonzero" d="M7.78 12.75L.15 14.72 10.63 32.5h10.72l.7-.2L7.8 12.76" mask="url(#bs)"/></g><path fill="#38A4DD" fill-rule="nonzero" d="M44.55 52.97l6.55-1.8-8.5-9.24-5.92 1.5 7.87 9.54M97.2 51.06l3.94 3.23 6.64-1.72-4.16-3.42-6.4 1.9M172.6 105.03l11.34-4.85-9.3-5.05-10.73 2.75 8.7 7.15"/><g transform="translate(79.884 26.395)"><mask id="bu" fill="#fff"><use xlink:href="#bt"/></mask><path fill="#38A4DD" fill-rule="nonzero" d="M9.5 2.96L6.06.3.12 2.46l2.67 2.2 6.7-1.7" mask="url(#bu)"/></g><g transform="translate(79.884 26.395)"><mask id="bw" fill="#fff"><use xlink:href="#bv"/></mask><path fill="#38A4DD" fill-rule="nonzero" d="M43.96 91.23V95h1.32l1.62-.53-2.94-3.24" mask="url(#bw)"/></g><path fill="#38A4DD" fill-rule="nonzero" d="M100 45.32l7.15-2.1-17.1-13.34-6.74 1.7L100 45.33M121.44 79.9l-19.4-16.6-10.3 3.1 13.54 11.12-13.56 3.68 4.68 5.16 25.04-6.47M141.62 79.54l3.67 3.02 3.85-1.13-7-2.02-.53.14M91 92.6l4.2 4.54-1.47 11.75 17.5-5.18-12-13.24L91 92.6M126.6 83.42l4.04 3.45 13.87-4.08-3.7-3.05-14.2 3.67M94.98 57.26l-10.95 2.82 7.07 5.8 10.34-3.1-6.46-5.52M81.3 84.03l-19.82 5.4 4.06 4.9 20.38-5.27-4.62-5.03M99.97 90.3l11.98 13.2 10.54-3.1V89.25l7.37-2.17-4.06-3.48-25.83 6.67M91 81.4l-8.23 2.24 4.63 5.04 8.26-2.13L91 81.4M131.86 87.9l8.45 7.23 14.14-4.17-8.67-7.13-13.9 4.08M35.8 82.43L70.33 72.1l-9.5-10.32-10.67 3.15c-.9.27-1.9-.04-2.5-.77l-7.18-8.7-5.13 1.4L51.5 74.7l-17.8 3.9-.1.1 2.2 3.75"/><path fill="#38A4DD" fill-rule="nonzero" d="M57.3 57.92L52.1 52.3l-6.64 1.8 4.84 5.87 6.97-2.05M36.2 42.86l5.88-1.5-11.36-12.34-4.7 1.48 10.2 12.36M21.14 32.02l-6.48 2.03 10.52 11.6 5.96-1.5-10-12.13M56.3 24.2l-2.4 7.97 5.03 4.92 9.6-2.45L56.3 24.2M25.7 46.22l8.64 9.53 5.2-1.42-7.92-9.6-5.92 1.5M61.85 48.26l5.14-1.4-9.04-8.83-4.38 1.1 8.27 9.13M146.55 83.6l8.67 7.13 9.32-2.76-4.28-3.34-8.7-2.5-5 1.47M44.08 41.55l8.48 9.23 8.56-2.33-8.28-9.12-8.76 2.22M55.4 22.52l.4-1.34-1.45.46 1.04.88M72.27 72.22l9.47 10.3 8.24-2.24-9.53-10.5-8.18 2.44M123.7 56.13l-6.02-4.7-7.8 2 6.1 5 7.73-2.3M148.23 101.9l9.86 8.44 9.8-3.3 4-1.7-8.8-7.25-14.87 3.8M162.46 97.56L155.7 92l-14.18 4.17 6.08 5.2 14.86-3.8M123.85 108.16v8.46l3.63 4 29.87-10.03-9.92-8.5-23.58 6.06M82.5 31.8l-6.65 1.7L92.8 47.44l6.43-1.9L82.5 31.8M122.5 107.8v-6l-9.55 2.8 4.16 4.6 5.4-1.4M79.27 29.14l-6.03 2.2 1.96 1.62 6.66-1.7-2.6-2.12M104.4 48.94l4.2 3.44 7.74-2-4.62-3.6-7.32 2.16"/><path fill="#38A4DD" fill-rule="nonzero" d="M57.36 20.7l-.84 2.78 12.82 10.97 4.24-1.08-3-2.48 7.48-2.76L65.8 18.06l-8.44 2.64M72.26 14.82l-4.53 2.63-1.16.37L78.8 27.88l5.9-2.17-9.32-7.26-3.12-3.62M71.3 58.7L80.68 69l8.88-2.65-8.42-6.9 12.6-3.25-3.57-3.06L71.3 58.7M94.53 56l5-1.3-3.9-3.18-4.7 1.4 3.6 3.07M22.02 59.06h.1l10.76-2.9-8.67-9.56-8.28 2.1 6.1 10.36M40.68 25.9l-8.53 2.68 11.4 12.4 8.78-2.22L40.68 25.9M23.7 46.03l-4.3-4.74.4.86-6.1 2.78 1.86 3.16 8.14-2.07M41.4 25.7l11.67 12.88 4.32-1.1-5.04-4.92 2.82-9.33-1.6-1.36-12.2 3.82M70.6 58.9l-8.32 2.45 9.5 10.32 8.17-2.45L70.6 58.9M75.14 119.96l16.37-4.2.63-5-11.82 3.5L67.43 98.7l-6.56 1.7 14.28 19.56"/><path fill="#039BE5" fill-rule="nonzero" d="M104.4 48.94l7.32-2.16-4.57-3.56-7.14 2.1 4.4 3.62M90.93 52.9l4.7-1.38-4.38-3.6-4.6 1.34 4.28 3.65M71.3 58.7l18.86-5.56-4.27-3.65-18.1 5.32 3.5 3.87M133.24 76.84l-11 2.84 4.37 3.74 14.2-3.67-1.35-1.1-6.2-1.8M67.08 55.03l-8.35 2.46 3.55 3.85 8.3-2.45-3.5-3.87M50.16 64.93l10.68-3.15-3.55-3.86-6.98 2.05-4.83-5.86-5.02 1.37 7.17 8.7c.6.72 1.6 1.03 2.5.76M85.92 89.06l-20.38 5.26 3.32 4L89.53 93l-3.6-3.94M99.23 45.55l-6.42 1.9 4.4 3.6 6.42-1.9-4.4-3.6M31.62 44.72l7.92 9.6 5-1.35-7.86-9.54-5.06 1.3M36.2 42.86L26 30.5l-4.86 1.52 10 12.13 5.07-1.3M99.97 90.3l25.84-6.68-4.36-3.73-25.04 6.46 3.57 3.93M141.62 79.54l.52-.13-1.05-.3.52.44"/><g transform="translate(72.106 86.29)"><mask id="by" fill="#fff"><use xlink:href="#bx"/></mask><path fill="#039BE5" fill-rule="nonzero" d="M23.55.25L15.3 2.4l3.6 3.92 8.23-2.13L23.55.24" mask="url(#by)"/></g><g transform="translate(72.106 86.29)"><mask id="bA" fill="#fff"><use xlink:href="#bz"/></mask><path fill="#039BE5" fill-rule="nonzero" d="M.1 35.12h4l-.63-.86-3.36.86" mask="url(#bA)"/></g><path fill="#039BE5" fill-rule="nonzero" d="M52.1 88.38c-.3-.4-.72-.7-1.2-.86l-12.72-4.07c-.13-.05-.28-.08-.42-.1l-1.53-.2 3.35 5.7 9.13 2.9 4.25 5.82-6.42 1.66h-.82l2.6 4.4 7.63-1.97 14.28 19.57 4.94-1.27-14.28-19.57 6.56-1.7-3.32-4-6.23 1.6-5.78-7.92"/><path fill="#29B6F7" fill-rule="nonzero" d="M124.36 56.63l-.65-.5-7.73 2.3-6.1-5-.8.2 6.12 5.05-6.4 1.9.62.52 6.4-1.9 11.7 9.62.75-.25-11.68-9.6 7.76-2.34"/><g transform="translate(53.518 21.378)"><mask id="bC" fill="#fff"><use xlink:href="#bB"/></mask><path fill="#29B6F7" fill-rule="nonzero" d="M.08.5l1.58 1.35.2-.7L.85.24.08.5" mask="url(#bC)"/></g><g transform="translate(53.518 21.378)"><mask id="bE" fill="#fff"><use xlink:href="#bD"/></mask><path fill="#29B6F7" fill-rule="nonzero" d="M37.9 95.1l.1-.72-16.37 4.2-4.93 1.27-.7.18h2.7l3.35-.86L37.9 95.1" mask="url(#bE)"/></g><path fill="#29B6F7" fill-rule="nonzero" d="M71.3 58.7l-8.44-9.33-.73.2 17.82 19.65-8.18 2.45.5.55 8.18-2.45 9.53 10.5.73-.2-9.53-10.5 9-2.7-.62-.52L80.67 69 71.3 58.7M123.85 117.63l2.93 3.24.7-.24-3.63-4v1M131.1 88.14l8.44 7.22.77-.23-8.44-7.22-.77.24M96.4 86.36l-4.68-5.16-.73.2 20.23 22.32.72-.2L96.4 86.35M15.92 48.7l8.3-2.1-.52-.57-8.14 2.07.36.6M56.52 23.48l-.22.7 12.24 10.47-9.6 2.44.55.54 9.66-2.46L93.73 56.2l.8-.2-24.57-21.02 4.27-1.08-.65-.53-4.24 1.08-12.82-10.97M122.5 116.13v-1l-4.88-5.37 4.87-1.25v-.7l-5.4 1.4-4.15-4.6-.7.22 4.12 4.56-23.45 6.02-.1.72 24.06-6.17 5.6 6.18M36.15 83.02l34.68-10.37-.5-.55L35.8 82.43l.35.6M122.24 79.68l-19.42-16.6 5.04-1.5-.62-.53-5.03 1.5-6.42-5.5-.8.2 6.46 5.54-10.34 3.08.63.52 10.32-3.1 27.82 23.8.77-.23-8.4-7.2M41.4 25.7l-.72.2 11.65 12.86L43.56 41l.52.55 8.76-2.22 8.28 9.12.73-.2-8.27-9.1 4.38-1.12-.57-.55-4.33 1.1-11.68-12.9M31.14 44.15l-5.96 1.5.52.57 16.9-4.3-.52-.55-10.94 2.78M145.77 83.83l8.67 7.13.78-.23-8.67-7.13-.78.23M100 45.32L83.3 31.6l6.75-1.72-.67-.52-6.7 1.7-2.68-2.2-.73.28 2.6 2.13-6.67 1.7.65.52 6.65-1.7 25.28 20.78.8-.2-8.57-7.06M65.8 18.06l12.26 10.08.74-.26-12.23-10.06-.77.24M141.1 79.1l-1.65-.46 5.06 4.15.8-.24-3.68-3.02-.53-.43"/><g transform="translate(12.772 20.682)"><mask id="bG" fill="#fff"><use xlink:href="#bF"/></mask><path fill="#29B6F7" fill-rule="nonzero" d="M143.7 71.08l-.78.23 6.77 5.58-14.87 3.8-6.08-5.2-.77.24 6.05 5.17-22.96 5.88v.7l23.6-6.05 9.9 8.48.75-.24-9.86-8.44 14.87-3.8 8.8 7.22.7-.3-8.7-7.14 10.74-2.76-.87-.47-10.5 2.7-6.8-5.6" mask="url(#bG)"/></g><g transform="translate(12.772 20.682)"><mask id="bI" fill="#fff"><use xlink:href="#bH"/></mask><path fill="#4FC3F8" fill-rule="nonzero" d="M79.54 88.63l-11.52 3.4-19.3-23.3 19.8-5.38L81 76.9l-1.46 11.73zm31.53 7.3V80.72l16.9-4.98.78-.23 14.17-4.2.78-.22 9.38-2.77-1.3-1-9.33 2.75-.78.23-14.14 4.17-.77.23-15.7 4.63V69.6l7.26-2.13 14.67-4.3.78-.24 5-1.46-2.4-.7-3.86 1.14-.78.23-13.87 4.08-8.15 2.4V79.7l-10.54 3.12-.72.22-17.5 5.17 1.45-11.74L70 62.96l8.22-2.24.73-.2 13.56-3.7L71.27 39.4l16.77-4.32 20.23 16.64 7.7-2.57.77-.26.12-.05 1.55-1.94-2.9.98-.75.26-6.2 2.07-18.9-15.53 6.64-1.7.8-.22 7.8-2-1.33-1.05-7.76 2-.8.2-6.63 1.7-27.9-22.94 6.03-2.2.73-.28L73.18 6l-1.25-.97-5.9 2.16-.74.26-7.5 2.75 28.95 23.83-5 1.28-.8.2-12.6 3.26 21.3 17.46-11.7 3.18-.74.2-8.23 2.24-28.15-30.62 16.03-4.37L41.12 11.5 44.58 0l-1.56.5-3.43 11.38 14.62 14.3L39.8 30.1 19.37 7.9l-1.43.44L38.33 30.5l-16.77 4.57-19.68-21.7-1.42.44 5.9 6.5-6 2.74H.2l.73 1.22 6.1-2.78-.4-.87L20.1 35.48 9.36 38.4l-.1-.02.72 1.24 11.14-3.04 15.05 16.6-15.97 3.5-.1.1.72 1.22.1-.1 17.8-3.9L22.6 36.2l16.77-4.58L67.5 62.24 46.34 68l21.2 25.57 11.82-3.5-1.32 10.66h1.37l1.38-11.07 18.7-5.52.7-.2 9.54-2.83v19.63h1.35v-4.8z" mask="url(#bI)"/></g><path fill="#41AEE5" fill-rule="nonzero" d="M173.08 88.1l-.72-.54-1.66-1.26-13.16-3.8 2.72 2.13 13.62 3.93-.8-.46"/><path fill="#1D96D7" fill-rule="nonzero" d="M154.02 81.5l-.16-.05-2.3.67 8.7 2.5-2.72-2.1-3.52-1.03M130.97 74.85c-.1-.03-.2-.05-.32-.1l-.22-.05-.12-.03-.23-.08-.1-.05c-.1-.04-.22-.08-.33-.14l-.06-.02-.26-.15-.1-.07-.2-.17-.08-.1-.2-.25-.03-.06-.16-.38v-.03c-.53 2.4 1.54 2.74 2.43 3l2.27.64 2.45-.63-4.73-1.35M150.3 80.42l-5.7-1.64-2.46.63 7 2.03 2.3-.68-1.13-.33"/><path fill="#0291DB" fill-rule="nonzero" d="M136.95 76.57l-.8-.23-.46-.13-2.46.64 6.2 1.8-2.5-2.07M141.1 79.1l1.04.3 2.45-.62-6.02-1.74 2.5 2.07"/><path fill="#149FE3" fill-rule="nonzero" d="M136.95 76.57l2.5 2.07 1.64.47-2.52-2.06-1.63-.47"/><path fill="#28A5E4" fill-rule="nonzero" d="M153.86 81.45l-2.4-.7-2.3.68 2.4.7 2.3-.68"/><path fill="#F89A1F" fill-rule="nonzero" d="M194.5 89.73l.16.12c1.1-1.08 2.66-2.68 4.27-4.45.4-.42.78-.86 1.17-1.3l.97-1.2-1.76.84-4.8 6M191.55 92l-.2.02-.26.02H190.94c-.22 0-.45-.03-.66-.1l-18.35-5.28.4.9.73.54.8.46 16.4 4.73c.24.05.5.08.74.08.26 0 .52-.03.78-.1.17-.37.35-.73.55-1.06l-.4-.3-.15.03-.25.05M208.13 74.1l.64-.8c.4-.5.77-1.67.56-2.77v.03l-.1.4V71l-.12.32-.03.1-.1.22-.05.08-.15.24-5.8 7.23.35.83.07-.03 2.4-3 .03-.03.15-.23c.55-.82 1.27-1.72 2.15-2.65M201.83 80.72l-.03-.07-.12.13.15-.06"/><path fill="#F99110" fill-rule="nonzero" d="M203.32 80.03l-.36-.84-1.16 1.45.03.07-.15.07-2.37 2.94 1.77-.85 2.3-2.9h.02l-.08.03M194.66 89.85l-.16-.12-.95 1.2-.3.3-.13.1-.25.18-.17.1-.25.13-.2.07-.24.1h-.04l.4.32c-.2.33-.4.7-.56 1.07.7-.17 1.34-.54 1.75-1.04l6.55-8.16-1.17 1.3c-1.6 1.77-3.17 3.37-4.27 4.45M205.98 76.74l-.15.23 2.22-2.77.08-.1c-.88.92-1.6 1.82-2.15 2.64M170.77 86.32l-.07-.02 1.66 1.26-.4-.9-1.2-.34"/><path fill="#0288D1" fill-rule="nonzero" d="M208.33 67.55c-.16-.12-.34-.23-.54-.32.12.07.23.16.33.26h.02l.18.05M208.4 67.86c.16.4.08.9-.3 1.38L192.88 88.2c-.7.88-2.17 1.34-3.25 1.03l-59.67-17.1c-.8-.23-1.16-.8-1.04-1.45-.5 1.15-.55 1.96-.38 2.54.05.13.1.26.17.37l.05.05.2.25.08.1.2.16.1.07.25.15.06.03c.1.06.22.1.33.15l.1.04.24.07.13.03.22.06c.12.03.23.06.32.1l4.72 1.35.45.14 14.16 4.08 1.15.33 2.4.7.17.04 3.52 1 13.16 3.8.07.02 1.18.34 18.34 5.3c.2.05.43.07.65.08h.14l.24-.02.2-.02.26-.05.15-.04h.06l.26-.1.2-.07.24-.13.17-.1.25-.17.12-.1c.1-.1.22-.2.3-.3l8.14-10.15.12-.13 6.97-8.7.15-.23.05-.08.1-.22.04-.1c.05-.1.1-.2.12-.3v-.06c.05-.13.08-.26.1-.4.16-.88.06-1.93-.64-2.7h-.3"/><path fill="#29B6F7" fill-rule="nonzero" d="M208.13 67.5c-.1-.1-.2-.2-.34-.27-.12-.06-.25-.1-.4-.15l-1.8-.52-9.16-2.63-2.04-.58-.97-.28 14.7 4.42M128.92 70.69c-.12.62.25 1.2 1.04 1.43l59.67 17.1c1.08.3 2.55-.15 3.25-1.03l15.22-18.96c.38-.47.46-.97.3-1.38h-8.85l4 1.18-13.64 16.9-56.48-15.9 14.3-17.44 11.05 3.26c-.62-1.04-1.18-2.1-1.68-3.2l-9.35-2.68c-.85-.24-1.9 0-2.68.5-.22.16-.42.33-.58.53L129.6 69.54l-.07.1-.05-.06-.76.26.4.33c-.1.18-.18.35-.22.53"/><path fill="#81D4FA" fill-rule="nonzero" d="M133.42 70.03l56.5 15.9-5.1-1.43 13.4-16.64h-29.4s-6-5.23-10.05-12l-11.04-3.26-14.3 17.43M203.55 69.05l-4-1.2 4 1.2"/><path fill="#38A4DD" fill-rule="nonzero" d="M198.23 67.86L184.8 84.5l5.1 1.44 13.65-16.9-4-1.18h-1.32"/><path fill="#CBCC58" fill-rule="nonzero" d="M177.22 58.42l8.18 2.35.5.04-8.56-2.56-.12.18M193.43 63.07l-2.44-.73-.03.03 2.46.7"/><path fill="#CDB52E" fill-rule="nonzero" d="M190.97 62.37l.02-.03-5.1-1.53-.5-.03 5.57 1.6"/><path fill="#CBCC58" fill-rule="nonzero" d="M209.4 67.87l-1.05-.32c.13.1.24.2.34.32h.7"/><path fill="#028CD5" fill-rule="nonzero" d="M208.4 67.87h.3c-.1-.12-.22-.22-.35-.32h-.02l-.18-.06c.1.1.2.23.25.37"/><path fill="#21B1F3" fill-rule="nonzero" d="M199.55 67.86h8.85c-.06-.13-.14-.26-.25-.37h-.02l-14.7-4.43-2.46-.7-5.57-1.6-8.18-2.35c-.58.82-1.17 1.6-1.76 2.35l23.02 6.78 1.07.32"/><path fill="#68C9F7" fill-rule="nonzero" d="M198.48 67.55l-23.02-6.78c-3.34 4.23-6.63 7.1-6.63 7.1h29.4l.25-.32"/><path fill="#2DA2DF" fill-rule="nonzero" d="M198.48 67.55l-.25.32h1.32l-1.07-.32"/><path fill="#EF732B" fill-rule="nonzero" d="M172.2 48.33l-3.37 7.4-3.37-7.4-7.47-3.35 7.46-3.35 3.37-7.4 3.37 7.4 7.46 3.35-7.46 3.35zm6.67-12.7c-.27-.3-.55-.57-.85-.84-2-1.82-4.55-3.05-7.38-3.42l-.46-.07c-.44-.03-.9-.06-1.35-.06-1.33 0-2.62.2-3.83.55-2.8.8-5.23 2.48-6.97 4.72-.84 1.07-1.5 2.26-2 3.55-.08.24-.18.46-.25.7-.33 1.03-.5 2.12-.58 3.24 0 .28-.04.54-.04.8 0 2.64.77 5.3 1.93 7.85.5 1.1 1.05 2.17 1.67 3.2 4.05 6.78 10.06 12 10.06 12s3.3-2.85 6.63-7.08c.6-.74 1.18-1.53 1.76-2.35l.12-.18c2.63-3.78 4.9-8.26 5.13-12.68l.02-.75c0-.86-.1-1.7-.25-2.52-.35-1.84-1.07-3.56-2.1-5.05-.37-.57-.8-1.1-1.28-1.6z"/><path fill="#F2F2F3" fill-rule="nonzero" d="M168.83 34.23l-3.37 7.4-7.47 3.35 7.46 3.35 3.37 7.4 3.37-7.4 7.46-3.35-7.46-3.35-3.37-7.4"/><path fill="#68C5F2" fill-rule="nonzero" d="M1.57 35.64l6.63.43.23-.07-2-3.37-8.43-.7v3.48l2.74.18.83.06"/><path fill="#2D9EDB" fill-rule="nonzero" d="M36.15 83.02l-.28.1.36.04-.08-.14M15.92 48.7l-.38.1-6.25-.5 5.9 9.72 6.82 1.04-6.1-10.36M17.02 73.57L-2 72.04v6.26l23.2 2.95L17 73.57M30.4 82.28l5.3.18.1-.03-2.2-3.74-3.2 3.58M25.04 88.33l-8.66 9.78.6 1.13h13.98l-5.92-10.9M7.1 44.73l1.75 2.86 6.63.52.08-.02-1.86-3.16-.3.14-6.3-.35M-1.28 103.93H-2v10.47h6.23l-5.5-10.47M26 87.26l6.5 11.97h7.03l-7.2-11.83-5.8-.73-.53.6M8.2 36.07l-6.63-.43 4.7 7.7 6.7.37L8.43 36l-.23.07"/><g><g transform="translate(32.99 87.294)"><mask id="bK" fill="#fff"><use xlink:href="#bJ"/></mask><path fill="#2D9EDB" fill-rule="nonzero" d="M6.6 1.54L3.94.7.2.22l7.13 11.72h5.4L6.58 1.54" mask="url(#bK)"/></g><g transform="translate(32.99 87.294)"><mask id="bM" fill="#fff"><use xlink:href="#bL"/></mask><path fill="#2D9EDB" fill-rule="nonzero" d="M14.44 16.57c-.2.04-.4.07-.6.07H10.2l10.65 17.48h4.94L15.3 16.34l-.86.23" mask="url(#bM)"/></g></g><path fill="#2D9EDB" fill-rule="nonzero" d="M22.84 81.45l5.84.75.28-.32-13.7-22.5L-2 56.8v13.9l19.87 1.6 4.97 9.17"/><g><g transform="translate(16.114 59.507)"><mask id="bO" fill="#fff"><use xlink:href="#bN"/></mask><path fill="#2D9EDB" fill-rule="nonzero" d="M6.1.94L0 .02l13.3 21.82 3.46-3.88L6.64.8 6.1.93" mask="url(#bO)"/></g><g transform="translate(16.114 59.507)"><mask id="bQ" fill="#fff"><use xlink:href="#bP"/></mask><path fill="#2D9EDB" fill-rule="nonzero" d="M18.94 44.43l9.5 17.47h8.5L26.3 44.43h-7.36" mask="url(#bQ)"/></g></g><path fill="#2D9EDB" fill-rule="nonzero" d="M15.44 99.23l-.7-1.3 9.62-10.86-.4-.73L-2 83.04v4.33l5.9 11.86h11.54M-2 88.9v10.33h5.14L-2 88.9"/><g><g transform="translate(-2 44.15)"><mask id="bS" fill="#fff"><use xlink:href="#bR"/></mask><path fill="#2D9EDB" fill-rule="nonzero" d="M8.3.53L0 .07v2.5l10.02.8L8.3.53" mask="url(#bS)"/></g><g transform="translate(-2 44.15)"><mask id="bU" fill="#fff"><use xlink:href="#bT"/></mask><path fill="#2D9EDB" fill-rule="nonzero" d="M2.25 59.78l6.22 11.8H0v2.67c0 1.66 1.36 3 3.03 3h13.15L7.48 59.8H2.25" mask="url(#bU)"/></g></g><path fill="#2D9EDB" fill-rule="nonzero" d="M.74 35.58L-2 35.4v7.47l7.44.42-4.7-7.72"/><g><g transform="translate(-2 47.16)"><mask id="bW" fill="#fff"><use xlink:href="#bV"/></mask><path fill="#2D9EDB" fill-rule="nonzero" d="M10.45 1.07L0 .23v8.02l16.34 2.48-5.9-9.66" mask="url(#bW)"/></g><g transform="translate(-2 47.16)"><mask id="bY" fill="#fff"><use xlink:href="#bX"/></mask><path fill="#2D9EDB" fill-rule="nonzero" d="M8.24 56.77l8.7 17.48H29.5L20 56.77H8.24" mask="url(#bY)"/></g><g transform="translate(-2 47.16)"><mask id="ca" fill="#fff"><use xlink:href="#bZ"/></mask><path fill="#2D9EDB" fill-rule="nonzero" d="M21.54 56.77l9.5 17.48h13.97l-9.48-17.48H21.54" mask="url(#ca)"/></g></g><path fill="#0397E1" fill-rule="nonzero" d="M35.05 103.93h7.35l-2.87-4.7H32.5l2.55 4.7M40.32 99.23l2.87 4.7h3.63c.2 0 .4-.02.6-.07l.87-.23-2.6-4.4h-5.38M6.24 103.93H18l-2.56-4.7H3.9l2.34 4.7M30.96 99.23H16.98l2.56 4.7h13.98l-2.56-4.7M5.48 103.93l-2.34-4.7H-2v.44l2.25 4.26h5.23M21.96 82.66L-2 81.84v1.2l25.96 3.3-2-3.68M32.33 87.4l-2.64-4.32-3.18 3.6 5.8.72M39.58 88.84l-3.35-5.68-.36-.05-.07.03-5.4-.18 2.78 4.56 3.76.5 2.64.84M23.16 82.03l5.5.2.02-.03-5.84-.75.32.58M21.2 81.25L-2 78.3v2.87l23.6.8-.4-.72"/><g><g transform="translate(23.273 82.196)"><mask id="cc" fill="#fff"><use xlink:href="#cb"/></mask><path fill="#0397E1" fill-rule="nonzero" d="M2.04 3.8L4.8.67.26.52l1.8 3.28" mask="url(#cc)"/></g><g transform="translate(23.273 82.196)"><mask id="ce" fill="#fff"><use xlink:href="#cd"/></mask><path fill="#21ADEF" fill-rule="nonzero" d="M17.05 17.03L7.13.75l5.4.2.06-.03.28-.1-.35-.6-.1.04-5.3-.18-.7.8 23.35 38.33h.8L17.04 17.04" mask="url(#ce)"/></g></g><path fill="#21ADEF" fill-rule="nonzero" d="M.74 35.58l4.7 7.7.82.05-4.7-7.7-.82-.05M23.53 82.7l4.55.17.58-.65-5.5-.2.37.7M21.6 81.97l-23.6-.8v.67l23.96.82-.37-.7"/><g><g transform="translate(-2 44.456)"><mask id="cg" fill="#fff"><use xlink:href="#cf"/></mask><path fill="#21ADEF" fill-rule="nonzero" d="M16.34 13.44l.87.13-5.9-9.73 6.24.5.38-.1-.36-.6-.08.03-6.63-.54L9.1.27 8.3.22 10 3.07 0 2.27v.67l10.45.84 5.9 9.66" mask="url(#cg)"/></g><g transform="translate(-2 44.456)"><mask id="ci" fill="#fff"><use xlink:href="#ch"/></mask><path fill="#21ADEF" fill-rule="nonzero" d="M5.9 54.77L0 42.9v1.53l16.18 32.52h.75L5.9 54.77" mask="url(#ci)"/></g></g><path fill="#21ADEF" fill-rule="nonzero" d="M15.25 59.4l13.7 22.48.48-.53-13.3-21.83-.88-.13"/><path fill="#40B7EF" fill-rule="nonzero" d="M16.13 59.52l6.08.93.55-.15-.73-1.24-6.8-1.04-.88-.13L-2 55.4v1.37l17.25 2.62.88.12M7.1 44.73l6.3.35.3-.14-.73-1.23-6.7-.37-.83-.04-7.44-.43v1.35l8.3.46.8.05"/><g><g transform="translate(-2 70.544)"><mask id="ck" fill="#fff"><use xlink:href="#cj"/></mask><path fill="#40B7EF" fill-rule="nonzero" d="M2.25 33.4L0 29.12v2.9l6.23 11.82H0v1.35h8.47L2.25 33.4" mask="url(#ck)"/></g><g transform="translate(-2 70.544)"><mask id="cm" fill="#fff"><use xlink:href="#cl"/></mask><path fill="#40B7EF" fill-rule="nonzero" d="M34.5 28.7l-6.5-12 7.6-8.56-.73-1.22-4.2 4.73v.02l-3.36 3.78-7.43-13.7L0 .15V1.5l19.02 1.53 7.34 13.5-9.63 10.85 12.78 23.5h1.55l-12.67-23.3 8.66-9.8L45 50.9h1.54L34.5 28.67" mask="url(#cm)"/></g></g></g></g></svg>
