<svg width="19px" height="18px" version="1.1" xmlns="http://www.w3.org/2000/svg" xmlns:xlink="http://www.w3.org/1999/xlink">
    <g stroke="none" stroke-width="1" fill="none" fill-rule="evenodd">
        <path d="M16.5,6.5 C17.4166667,6.5 18.1666667,7.25 18.1666667,8.16666667 L18.1666667,9.83333333 C18.1666667,10.05 18.125,10.25 18.05,10.4416667 L15.5333333,16.3166667 C15.2833333,16.9166667 14.6916667,17.3333333 14,17.3333333 L6.5,17.3333333 L0.666666667,17.3333333 L0.666666667,6.5 L5.06666667,6.5 C5.13333333,6.375 5.21666667,6.25833333 5.31666667,6.15833333 L10.8083333,0.666666667 L11.6916667,1.54166667 C11.9166667,1.76666667 12.0583333,2.08333333 12.0583333,2.425 L12.0333333,2.69166667 L11.2416667,6.5 L16.5,6.5 Z M16.5,9.83333333 L16.5,8.16666667 L9,8.16666667 L10.1166667,3.71666667 L6.5,7.33333333 L6.5,15.6666667 L14,15.6666667 L16.5,9.83333333 Z M2.63636364,8.09090909 L2.63636364,15.3636364 L4.45454545,15.3636364 L4.45454545,8.09090909 L2.63636364,8.09090909 Z" fill="#1A73E8" transform="translate(9.416667, 9.000000) rotate(180.000000) translate(-9.416667, -9.000000) "></path>
    </g>
</svg>
