<?xml version="1.0" encoding="utf-8"?>
<!-- Generator: Adobe Illustrator 19.2.1, SVG Export Plug-In . SVG Version: 6.00 Build 0)  -->
<svg version="1.1" id="Layer_1" xmlns="http://www.w3.org/2000/svg" xmlns:xlink="http://www.w3.org/1999/xlink" x="0px" y="0px"
	 width="500px" height="500px" viewBox="0 0 500 500" enable-background="new 0 0 500 500" xml:space="preserve">
<path fill-rule="evenodd" clip-rule="evenodd" fill="#FFFFFF" d="M229.17,226.17H125V122h104.17V226.17z M375,226.17H270.83V122H375
	V226.17z M156.25,351.17c-17.29,0-31.25-13.96-31.25-31.25c0-17.29,13.96-31.25,31.25-31.25s31.25,13.96,31.25,31.25
	C187.5,337.21,173.54,351.17,156.25,351.17z M343.75,351.17c-17.29,0-31.25-13.96-31.25-31.25c0-17.29,13.96-31.25,31.25-31.25
	S375,302.62,375,319.92C375,337.21,361.04,351.17,343.75,351.17z M83.33,122v197.92c0,40.21,32.71,72.92,72.92,72.92h187.5
	c40.21,0,72.92-32.71,72.92-72.92V122c0-72.92-74.58-83.33-166.67-83.33S83.33,49.08,83.33,122z"/>
<linearGradient id="SVGID_1_" gradientUnits="userSpaceOnUse" x1="249.6603" y1="501.3164" x2="249.6603" y2="385.7669">
	<stop  offset="0" style="stop-color:#FFFFFF;stop-opacity:0"/>
	<stop  offset="0.6511" style="stop-color:#FFFFFF"/>
</linearGradient>
<polygon fill-rule="evenodd" clip-rule="evenodd" fill="url(#SVGID_1_)" points="335.4,384.98 163.81,384.98 160.78,388.24 
	123.97,425.05 123.97,435.98 375.35,435.98 375.35,425 338.83,388.24 "/>
</svg>
