<?xml version="1.0" encoding="utf-8"?>
<!-- Generator: Adobe Illustrator 19.2.1, SVG Export Plug-In . SVG Version: 6.00 Build 0)  -->
<svg version="1.1" id="Layer_1" xmlns="http://www.w3.org/2000/svg" xmlns:xlink="http://www.w3.org/1999/xlink" x="0px" y="0px"
	 width="500px" height="500px" viewBox="0 0 500 500" enable-background="new 0 0 500 500" xml:space="preserve">
<polygon fill-rule="evenodd" clip-rule="evenodd" fill="#FFFFFF" points="335.4,384.98 163.81,384.98 160.78,388.24 149,400.03 
	149,408.71 350.67,408.71 350.67,400.16 338.83,388.24 "/>
<linearGradient id="SVGID_1_" gradientUnits="userSpaceOnUse" x1="249.4026" y1="501.5845" x2="249.4026" y2="384.3727">
	<stop  offset="0" style="stop-color:#FFFFFF;stop-opacity:0"/>
	<stop  offset="0.6511" style="stop-color:#FFFFFF"/>
</linearGradient>
<polygon fill-rule="evenodd" clip-rule="evenodd" fill="url(#SVGID_1_)" points="85.54,463.48 39.29,509.72 39.29,520.14 
	459.52,520.14 459.52,509.72 414.33,464.23 "/>
<path fill-rule="evenodd" clip-rule="evenodd" fill="#FFFFFF" d="M229.17,219.17H125V115h104.17V219.17z M375,219.17H270.83V115H375
	V219.17z M156.25,344.17c-17.29,0-31.25-13.96-31.25-31.25c0-17.29,13.96-31.25,31.25-31.25s31.25,13.96,31.25,31.25
	C187.5,330.21,173.54,344.17,156.25,344.17z M343.75,344.17c-17.29,0-31.25-13.96-31.25-31.25c0-17.29,13.96-31.25,31.25-31.25
	S375,295.62,375,312.92C375,330.21,361.04,344.17,343.75,344.17z M83.33,115v197.92c0,40.21,32.71,72.92,72.92,72.92h187.5
	c40.21,0,72.92-32.71,72.92-72.92V115c0-72.92-74.58-83.33-166.67-83.33S83.33,42.08,83.33,115z"/>
</svg>
