<?xml version="1.0" encoding="utf-8"?>
<!-- Generator: Adobe Illustrator 19.2.1, SVG Export Plug-In . SVG Version: 6.00 Build 0)  -->
<svg version="1.1" id="Layer_1" xmlns="http://www.w3.org/2000/svg" xmlns:xlink="http://www.w3.org/1999/xlink" x="0px" y="0px"
	 width="500px" height="500px" viewBox="0 0 500 500" enable-background="new 0 0 500 500" xml:space="preserve">
<path fill-rule="evenodd" clip-rule="evenodd" fill="#FFFFFF" d="M229.17,216.17H125V112h104.17V216.17z M375,216.17H270.83V112H375
	V216.17z M156.25,341.17c-17.29,0-31.25-13.96-31.25-31.25c0-17.29,13.96-31.25,31.25-31.25s31.25,13.96,31.25,31.25
	C187.5,327.21,173.54,341.17,156.25,341.17z M343.75,341.17c-17.29,0-31.25-13.96-31.25-31.25c0-17.29,13.96-31.25,31.25-31.25
	S375,292.62,375,309.92C375,327.21,361.04,341.17,343.75,341.17z M83.33,112v197.92c0,40.21,32.71,72.92,72.92,72.92h187.5
	c40.21,0,72.92-32.71,72.92-72.92V112c0-72.92-74.58-83.33-166.67-83.33S83.33,39.08,83.33,112z"/>
<polygon fill-rule="evenodd" clip-rule="evenodd" fill="#FFFFFF" points="336.52,385.94 324.24,373.66 176.82,372.16 162.84,386.18 
	162.84,393.09 336.52,393.09 "/>
<linearGradient id="SVGID_1_" gradientUnits="userSpaceOnUse" x1="249.9881" y1="500.4016" x2="249.9881" y2="384.2467">
	<stop  offset="0" style="stop-color:#FFFFFF;stop-opacity:0"/>
	<stop  offset="0.6511" style="stop-color:#FFFFFF"/>
</linearGradient>
<polygon fill-rule="evenodd" clip-rule="evenodd" fill="url(#SVGID_1_)" points="137.42,411.61 90.45,458.57 90.45,472.17 
	409.53,472.17 409.53,459.4 362.21,411.78 "/>
</svg>
