<?xml version="1.0" encoding="utf-8"?>
<!-- Generator: Adobe Illustrator 19.2.1, SVG Export Plug-In . SVG Version: 6.00 Build 0)  -->
<svg version="1.1" id="Layer_1" xmlns="http://www.w3.org/2000/svg" xmlns:xlink="http://www.w3.org/1999/xlink" x="0px" y="0px"
	 width="500px" height="500px" viewBox="0 0 500 500" enable-background="new 0 0 500 500" xml:space="preserve">
<path fill-rule="evenodd" clip-rule="evenodd" fill="#FFFFFF" d="M229.17,235.17H125V131h104.17V235.17z M375,235.17H270.83V131H375
	V235.17z M156.25,360.17c-17.29,0-31.25-13.96-31.25-31.25c0-17.29,13.96-31.25,31.25-31.25s31.25,13.96,31.25,31.25
	C187.5,346.21,173.54,360.17,156.25,360.17z M343.75,360.17c-17.29,0-31.25-13.96-31.25-31.25c0-17.29,13.96-31.25,31.25-31.25
	S375,311.62,375,328.92C375,346.21,361.04,360.17,343.75,360.17z M83.33,131v197.92c0,40.21,32.71,72.92,72.92,72.92h187.5
	c40.21,0,72.92-32.71,72.92-72.92V131c0-72.92-74.58-83.33-166.67-83.33S83.33,58.08,83.33,131z"/>
<linearGradient id="SVGID_1_" gradientUnits="userSpaceOnUse" x1="249.4026" y1="501.8815" x2="249.4026" y2="399.6714">
	<stop  offset="0" style="stop-color:#FFFFFF;stop-opacity:0"/>
	<stop  offset="0.6511" style="stop-color:#FFFFFF"/>
</linearGradient>
<polygon fill-rule="evenodd" clip-rule="evenodd" fill="url(#SVGID_1_)" points="118.25,430.77 39.29,509.72 39.29,520.14 
	459.52,520.14 459.52,509.72 381.21,430.9 "/>
</svg>
