<?xml version="1.0" encoding="utf-8"?>
<!-- Generator: Adobe Illustrator 21.0.2, SVG Export Plug-In . SVG Version: 6.00 Build 0)  -->
<svg version="1.1" id="Layer_1" xmlns="http://www.w3.org/2000/svg" xmlns:xlink="http://www.w3.org/1999/xlink" x="0px" y="0px"
	 width="88px" height="80px" viewBox="0 0 88 80" enable-background="new 0 0 88 80" xml:space="preserve">
<title>gf_illus</title>
<g>
	<path fill="#EFF0F2" d="M85.43,58.26l-0.14-0.68l-3.71,0.79l-0.79-3.71l0,0L80,50.95l3.71-0.79l-0.14-0.68l-3.71,0.79l-0.79-3.71
		l-0.79-3.71l3.71-0.79l-0.14-0.68l-3.71,0.79l-0.79-3.71l-0.79-3.71l3.71-0.79l-0.14-0.67l-3.71,0.79l-0.79-3.71l-0.79-3.71
		l3.71-0.79l-0.14-0.67l-3.71,0.79l-0.79-3.71l-0.79-3.71l3.71-0.79l-0.14-0.67l-3.71,0.79l-0.79-3.71l-0.78-3.72l3.7-0.79
		l-0.14-0.67l-3.69,0.79l-0.36-1.72L70.23,8.2l0.36,1.72l-3.73,0.79l-3.71,0.79l-0.79-3.71l-0.68,0.14l0.79,3.71l-3.71,0.79
		l-3.71,0.79l-0.79-3.71l-0.68,0.14l0.79,3.71l-3.71,0.79l-3.69,0.78l-0.36-1.71l-0.68,0.14l0.36,1.71l-3.73,0.79l-3.7,0.79
		l-0.34-1.64l-0.67,0.14l0.34,1.64l-3.72,0.79l-3.68,0.78l-0.23-1.12l-0.67,0.14l0.23,1.12l-3.75,0.8l-3.69,0.78l-0.29-1.38
		l-0.67,0.14L22,20.25l-3.73,0.79l-3.71,0.79l-0.36-1.72l-0.67,0.14l0.36,1.72l-3.72,0.79l-3.71,0.79l-0.35-1.64l-0.67,0.14
		l0.35,1.64l-3.71,0.79l0.14,0.67l3.71-0.79l0.79,3.71L7.5,31.8l-3.71,0.79l0.14,0.67l3.71-0.79l0.79,3.71l0.79,3.71l-3.71,0.79
		l0.14,0.68l3.71-0.79l0.79,3.71L10.95,48l-3.71,0.79l0.14,0.68l3.71-0.79l0.79,3.71l0.79,3.71l-3.71,0.79l0.14,0.68l3.71-0.79
		l0.79,3.71l0.79,3.71l-3.71,0.79l0.14,0.68l3.71-0.79l0.79,3.71l0.79,3.71l-3.71,0.79l0.14,0.68l3.71-0.79l0.79,3.71l0.67-0.14
		l-0.79-3.71l3.71-0.79l3.71-0.79l0.79,3.71l0.67-0.14l-0.79-3.71l3.71-0.79l3.71-0.79l0.79,3.71l0.67-0.14l-0.79-3.71l3.71-0.79
		l3.71-0.79l0.79,3.71l0.67-0.14l-0.79-3.71l3.71-0.79l3.71-0.79l0.79,3.71l0.68-0.14l-0.79-3.71l3.71-0.79l3.71-0.79l0.79,3.71
		l0.68-0.14l-0.79-3.71l3.71-0.79l3.71-0.79l0.79,3.71l0.68-0.14l-0.79-3.71l3.71-0.79l0,0l3.71-0.79l0.79,3.71l0.68-0.14
		l-0.79-3.71l3.71-0.79l3.71-0.79l0.79,3.71l0.68-0.14l-0.79-3.71L85.43,58.26z M78.39,46.71l0.79,3.71l-3.71,0.79L71.76,52
		l-0.79-3.71l-0.34,0.07l0.34-0.07l-0.79-3.71l3.71-0.79l3.71-0.79L78.39,46.71z M59.27,54.65l-3.71,0.79l-0.79-3.71l-0.79-3.71
		l3.71-0.79l0,0l3.71-0.79l0.79,3.71l0.79,3.71L59.27,54.65L59.27,54.65z M50.65,35.67l0.79,3.71l-3.71,0.79l-3.71,0.79l-0.79-3.71
		l-0.79-3.71l3.71-0.79l3.71-0.79L50.65,35.67z M50.54,31.82l3.71-0.79l3.71-0.79l0.79,3.71l0.79,3.71l-3.71,0.79l-3.71,0.79
		l-0.79-3.71L50.54,31.82z M42.55,37.4l0.79,3.71l-3.71,0.79l-3.71,0.79l-0.79-3.71l-0.79-3.71l3.71-0.79l3.71-0.79L42.55,37.4z
		 M34.46,39.12l0.79,3.71l-3.71,0.79l-3.71,0.79l-0.79-3.71l-0.79-3.71l3.71-0.79l3.71-0.79L34.46,39.12z M31.68,44.29l3.71-0.79
		l0.79,3.71l0.79,3.71l-3.71,0.79l-3.71,0.79l-0.79-3.71l-0.79-3.71L31.68,44.29z M36.85,47.07l-0.79-3.71l3.71-0.79l3.71-0.79
		l0.79,3.71l0.79,3.71L41.35,50l-3.71,0.79L36.85,47.07z M44.95,45.35l-0.79-3.71l3.71-0.79l3.71-0.79l0.79,3.71l0.79,3.71
		l-3.71,0.79l-3.71,0.79L44.95,45.35z M53.05,43.63l-0.79-3.71l3.71-0.79l3.71-0.79l0.79,3.71l0.34-0.07l-0.34,0.07l0.79,3.71
		l-3.71,0.79l0.07,0.34l-0.07-0.34l-3.71,0.79L53.05,43.63z M61.15,41.91L61.15,41.91l-0.79-3.71l3.71-0.79l3.71-0.79l0.79,3.71
		l0.79,3.71l-3.71,0.79l-3.71,0.79L61.15,41.91z M63.93,36.73l-3.71,0.79l-0.79-3.71l-0.79-3.71l3.71-0.79l3.71-0.79l0.79,3.71
		l0.79,3.71L63.93,36.73z M62.21,28.63l-3.71,0.79l-0.79-3.71L56.92,22l3.71-0.79l3.71-0.79l0.79,3.71l0.79,3.71L62.21,28.63z
		 M57.03,25.85l0.79,3.71l-3.71,0.79l-3.71,0.79l-0.79-3.71l-0.79-3.71l3.71-0.79l3.71-0.79L57.03,25.85z M48.93,27.57l0.79,3.71
		l-3.71,0.79l-3.71,0.79l-0.79-3.71l-0.79-3.71l3.71-0.79l3.71-0.79L48.93,27.57z M40.83,29.3l0.79,3.71l-3.71,0.79l-3.71,0.79
		l-0.79-3.71l-0.79-3.71l3.71-0.79l3.71-0.79L40.83,29.3z M32.73,31.02l0.79,3.71l-3.71,0.79l-3.71,0.79l-0.79-3.71l-0.79-3.71
		l3.71-0.79l3.71-0.79L32.73,31.02z M24.64,32.74l0.79,3.71l-3.71,0.79L18,38.03l-0.79-3.71l-0.79-3.71l3.71-0.79l3.71-0.79
		L24.64,32.74z M21.86,37.92l3.71-0.79l0.79,3.71l0.79,3.71l-3.71,0.79l-3.71,0.79l-0.79-3.71l-0.79-3.71L21.86,37.92z M23.58,46.02
		l3.71-0.79l0.79,3.71l0.79,3.71l-3.71,0.79l-3.71,0.79l-0.79-3.71l-0.79-3.71L23.58,46.02z M25.3,54.12l3.71-0.79l0.79,3.71
		l0.79,3.71l-3.71,0.79l-3.71,0.79l-0.79-3.71l-0.79-3.71L25.3,54.12z M30.48,56.89l-0.79-3.71l3.71-0.79l3.71-0.79l0.79,3.71
		l0.79,3.71l-3.71,0.79l-3.71,0.79L30.48,56.89z M38.57,55.17l-0.79-3.71l3.71-0.79l3.71-0.79L46,53.59l0.79,3.71l-3.71,0.79
		l-3.71,0.79L38.57,55.17z M46.67,53.45l-0.79-3.71l3.71-0.79l3.71-0.79l0.79,3.71l0.79,3.71l-3.71,0.79l-3.71,0.79L46.67,53.45z
		 M62.87,50.01l-0.79-3.71l3.71-0.79l3.71-0.79l0.79,3.71l0,0l0.79,3.71l-3.71,0.79l-3.71,0.79L62.87,50.01z M76.67,38.61l0.79,3.71
		l-3.71,0.79l-3.71,0.79l-0.79-3.71l-0.79-3.71l3.71-0.79l3.71-0.79L76.67,38.61z M74.95,30.51l0.79,3.71l-3.71,0.79l-3.71,0.79
		l-0.79-3.71l-0.79-3.71l3.71-0.79l3.71-0.79L74.95,30.51z M73.23,22.41l0.79,3.71l-3.71,0.79l-3.71,0.79l-0.79-3.71l-0.79-3.71
		l3.71-0.79l3.71-0.79L73.23,22.41z M67,11.39l3.73-0.79l0.78,3.72l0.79,3.71l-3.71,0.79l-3.71,0.79l-0.79-3.71l-0.79-3.71L67,11.39
		z M58.91,13.11l3.71-0.79l0.79,3.71l0.79,3.71l-3.71,0.79l-3.71,0.79l-0.79-3.71l-0.79-3.71L58.91,13.11z M50.81,14.83l3.71-0.79
		l0.79,3.71l0.79,3.71l-3.71,0.79l-3.71,0.79l-0.79-3.71l-0.77-3.72L50.81,14.83z M42.71,16.55l3.73-0.79l0.77,3.72L48,23.19
		l-3.71,0.79l-3.71,0.79l-0.79-3.71l-0.78-3.71L42.71,16.55z M34.61,18.28l3.72-0.79l0.78,3.71l0.79,3.71l-3.71,0.79l-3.71,0.79
		l-0.79-3.71l-0.76-3.72L34.61,18.28z M26.51,20l3.74-0.8l0.76,3.72l0.79,3.71l-3.71,0.79l-3.71,0.79l-0.79-3.71l-0.77-3.72
		L26.51,20z M18.41,21.72l3.73-0.79l0.77,3.72l0.79,3.71l-3.71,0.79l-3.71,0.79l-0.79-3.71l-0.78-3.71L18.41,21.72z M7.39,27.94
		L6.6,24.23l3.71-0.79l3.72-0.79l0.78,3.71l0.79,3.71l-3.71,0.79l-3.71,0.79L7.39,27.94z M9.11,36.04l-0.79-3.71l3.71-0.79
		l3.71-0.79l0.79,3.71l0.79,3.71l-3.71,0.79L9.9,39.75L9.11,36.04z M10.83,44.14l-0.79-3.71l3.71-0.79l3.71-0.79l0.79,3.71
		l0.79,3.71l-3.71,0.79l-3.71,0.79L10.83,44.14z M12.56,52.24l-0.79-3.71l3.71-0.79l3.71-0.79l0.79,3.71l0.79,3.71l-3.71,0.79
		l-3.71,0.79L12.56,52.24z M14.28,60.34l-0.79-3.71l3.71-0.79l3.71-0.79l0.79,3.71l0.79,3.71l-3.71,0.79l-3.71,0.79L14.28,60.34z
		 M20.5,71.36l-3.71,0.79L16,68.44l-0.79-3.71l3.71-0.79l3.71-0.79l0.79,3.71l0.79,3.71L20.5,71.36z M28.6,69.64l-3.71,0.79
		l-0.79-3.71L23.31,63l3.71-0.79l3.71-0.79l0.79,3.71l0.79,3.71L28.6,69.64z M36.7,67.92l-3.71,0.79l-0.79-3.71l-0.79-3.71
		l3.71-0.79l3.71-0.79l0.79,3.71l0.79,3.71L36.7,67.92z M44.8,66.19l-3.71,0.79l-0.79-3.71l-0.79-3.71l3.71-0.79l3.71-0.79
		l0.79,3.71l0.79,3.71L44.8,66.19z M52.9,64.47l-3.71,0.79l-0.79-3.71l-0.79-3.71l3.71-0.79l3.71-0.79l0.79,3.71l0,0l0.79,3.71
		L52.9,64.47z M61,62.75l-3.71,0.79l-0.79-3.71l-0.34,0.07l0.34-0.07l-0.79-3.71l3.71-0.79l-0.07-0.34l0.07,0.34l3.71-0.79
		l0.79,3.71l0.79,3.71L61,62.75z M69.17,61.36l-0.07-0.34l-3.71,0.79l-0.79-3.71l-0.79-3.71l3.71-0.79l3.71-0.79l0.79,3.71
		l0.79,3.71l-3.71,0.79L69.17,61.36z M77.19,59.3l-3.71,0.79l-0.79-3.71l-0.79-3.71l3.71-0.79l3.71-0.79l0.79,3.71l0.34-0.07
		l-0.34,0.07l0.79,3.71L77.19,59.3z"/>
	<g>
		<g>
			<path fill="#DFE1E5" d="M13.7,79.2c-0.2,0-0.4-0.1-0.6-0.2c-0.2-0.2-0.4-0.4-0.5-0.7L1.2,24.2C1.1,23.6,1.4,23,2,22.9L73.8,7.7
				c0.6-0.1,1.1,0.2,1.2,0.8l11.5,54.2c0.1,0.3,0,0.6-0.1,0.8S86,63.9,85.7,64L13.9,79.1C13.9,79.2,13.8,79.2,13.7,79.2z M3.5,24.7
				l11.1,52.1L84.4,62L73.2,9.9L3.5,24.7z"/>
		</g>
	</g>
</g>
<path fill="#DFE1E5" d="M13.7,79.2c-0.2,0-0.4-0.1-0.6-0.2c-0.2-0.2-0.4-0.4-0.5-0.7L1.2,24.2C1.1,23.6,1.4,23,2,22.9L73.8,7.7
	c0.6-0.1,1.1,0.2,1.2,0.8l11.5,54.2c0.1,0.3,0,0.6-0.1,0.8S86,63.9,85.7,64L13.9,79.1C13.9,79.2,13.8,79.2,13.7,79.2z M3.5,24.7
	l11.1,52.1L84.4,62L73.2,9.9L3.5,24.7z"/>
<linearGradient id="SVGID_1_" gradientUnits="userSpaceOnUse" x1="8.9658" y1="-1335.802" x2="61.3758" y2="-1335.802" gradientTransform="matrix(1 0 0 -1 0 -1290)">
	<stop  offset="0" style="stop-color:#FFFFFF;stop-opacity:0"/>
	<stop  offset="0.02" style="stop-color:#F5F5F6;stop-opacity:0.01"/>
	<stop  offset="0.19" style="stop-color:#BEC2C8;stop-opacity:0.09"/>
	<stop  offset="0.41" style="stop-color:#9EA4AD;stop-opacity:0.13"/>
	<stop  offset="1" style="stop-color:#959CA5;stop-opacity:0.14"/>
</linearGradient>
<path fill="url(#SVGID_1_)" d="M60.6,63l-4.9-3.7c-0.8-0.6-1.1-1.7-0.6-2.6l4.2-7.9c0.5-1,0.2-2.2-0.8-2.7L58.4,46l-7.6-3.6
	c-0.4-0.2-0.8-0.6-1-1l-3.5-7.7c-0.1-0.2-0.3-0.5-0.5-0.6L42,29.5c-0.6-0.6-0.8-1.5-0.5-2.3l3.1-7.5c0.4-1,0-2.2-1.1-2.6
	c-0.4-0.2-0.8-0.2-1.2-0.1l-31.8,6.7c-1,0.2-1.7,1.3-1.5,2.4v0.1l10.8,46.9c0.2,1.1,1.3,1.8,2.4,1.5l37.6-8c1.1-0.2,1.8-1.2,1.6-2.3
	C61.4,63.8,61,63.3,60.6,63z"/>
<path fill="#959CA5" d="M11.6,63.4c-0.3,0-0.5-0.1-0.6-0.4c-0.2-0.3,0-0.8,0.3-0.9l9-4.5L34.6,32c0.1-0.2,0.4-0.4,0.6-0.4
	c0.3,0,0.5,0.1,0.6,0.4l11.8,21.5c0.2,0.3,0.1,0.8-0.3,0.9c-0.3,0.2-0.8,0.1-0.9-0.3L35.2,33.6L21.4,58.4l-0.3,0.3l-9.2,4.6
	C11.8,63.3,11.7,63.4,11.6,63.4z"/>
<circle fill="#FFFFFF" cx="56.9" cy="25.4" r="2.2"/>
<path fill="#4285F4" d="M56.9,28.2c-1.6,0-2.8-1.3-2.8-2.8s1.3-2.8,2.8-2.8c1.6,0,2.8,1.3,2.8,2.8S58.5,28.2,56.9,28.2z M56.9,23.9
	c-0.8,0-1.5,0.7-1.5,1.5s0.7,1.5,1.5,1.5s1.5-0.7,1.5-1.5S57.7,23.9,56.9,23.9z"/>
<circle fill="#4285F4" cx="35.2" cy="32.2" r="2.8"/>
<circle fill="#4285F4" cx="47" cy="53.8" r="2.8"/>
<circle fill="#4285F4" cx="20.8" cy="58" r="2.8"/>
<path fill="#DFE1E5" d="M13.7,79.7c-0.7,0-1.4-0.5-1.5-1.2L0.7,24.3c-0.2-0.8,0.4-1.7,1.2-1.8L73.7,7.2c0.8-0.2,1.7,0.4,1.8,1.2
	L87,62.5c0.1,0.4,0,0.8-0.2,1.2c-0.2,0.3-0.6,0.6-1,0.7L14.1,79.6C14,79.7,13.8,79.7,13.7,79.7z M4.1,25.1L15,76.2l68.8-14.6
	l-11-51.1L4.1,25.1z"/>
<g>
	
		<linearGradient id="SVGID_2_" gradientUnits="userSpaceOnUse" x1="422.0027" y1="-1118.0027" x2="439.0007" y2="-1078.2377" gradientTransform="matrix(0.9928 0.1194 0.1194 -0.9928 -217.2674 -1103.246)">
		<stop  offset="0" style="stop-color:#292D33;stop-opacity:0"/>
		<stop  offset="0.21" style="stop-color:#292D33;stop-opacity:0.1"/>
		<stop  offset="0.86" style="stop-color:#292D33;stop-opacity:0.14"/>
		<stop  offset="1" style="stop-color:#292D33;stop-opacity:0"/>
	</linearGradient>
	<path fill="url(#SVGID_2_)" d="M80.7,56l3.1-26.4l1.4-12.2c0-0.3-0.2-0.5-0.5-0.6L80,16.3c-0.3,0-0.5,0.2-0.6,0.5l-4.6,38.6
		l2.1,6.9h0.4L80.7,56z"/>
	<g id="_Group_">
		<path id="_Path_" fill="#4285F4" d="M76.7,54.3l3.2-26.8l5.9,0.7L82.6,55L76.7,54.3z"/>
		
			<linearGradient id="_Rectangle__1_" gradientUnits="userSpaceOnUse" x1="-2599.488" y1="3923.8389" x2="-2599.488" y2="3929.7688" gradientTransform="matrix(0.1175 -0.9931 0.9931 0.1175 -3514.4531 -3019.2131)">
			<stop  offset="0" style="stop-color:#959CA5"/>
			<stop  offset="0.26" style="stop-color:#B3B8BF"/>
			<stop  offset="0.58" style="stop-color:#D3D6DB"/>
			<stop  offset="0.76" style="stop-color:#DFE1E5"/>
			<stop  offset="1" style="stop-color:#959CA5;stop-opacity:0.4"/>
		</linearGradient>
		<path id="_Rectangle_" fill="url(#_Rectangle__1_)" d="M80.8,20.1l5.8,0.7l-0.8,7.4l-5.9-0.7L80.8,20.1z"/>
		<path id="_Rectangle_2" fill="#6199F6" d="M81.9,14.7l4.8,0.6c0.3,0,0.5,0.3,0.5,0.6l-0.6,4.9L80.8,20l0.6-4.8
			C81.4,14.9,81.6,14.7,81.9,14.7z"/>
		<g id="_Group_2">
			<path id="_Path_2" fill="#DFE1E5" d="M82.6,55l-5.9-0.7l1.2,5.2l2.4,0.3L82.6,55z"/>
			<path id="_Path_3" fill="#292D33" d="M80.3,59.8l-2.4-0.3l0.7,1.9c0.1,0.2,0.3,0.3,0.5,0.2c0.1,0,0.1-0.1,0.2-0.1
				C79.3,61.5,80.3,59.8,80.3,59.8z"/>
		</g>
		<circle id="_Path_4" fill="#676C72" cx="82.1" cy="24.1" r="0.6"/>
		<circle id="_Path_5" fill="#676C72" cx="84.9" cy="24.5" r="0.6"/>
		<path id="_Path_6" fill="#6199F6" d="M79.6,54.6l3.2-26.8l3,0.4L82.6,55L79.6,54.6z"/>
	</g>
</g>
<linearGradient id="SVGID_3_" gradientUnits="userSpaceOnUse" x1="50.303" y1="-1315.85" x2="64.61" y2="-1315.85" gradientTransform="matrix(1 0 0 -1 0 -1290)">
	<stop  offset="0" style="stop-color:#FFFFFF;stop-opacity:0"/>
	<stop  offset="0.02" style="stop-color:#F5F5F6;stop-opacity:0.01"/>
	<stop  offset="0.19" style="stop-color:#BEC2C8;stop-opacity:0.09"/>
	<stop  offset="0.41" style="stop-color:#9EA4AD;stop-opacity:0.13"/>
	<stop  offset="1" style="stop-color:#959CA5;stop-opacity:0.14"/>
</linearGradient>
<path fill="url(#SVGID_3_)" d="M61.1,32.2h-4.7c-1.4,0-2.7-0.9-3.2-2.2l-2.8-7.1c-0.5-1.3,0.1-2.7,1.4-3.2c0.3-0.1,0.6-0.2,0.9-0.2
	h5.8c3.4,0,6.1,2.7,6.1,6.1v3.1C64.6,30.7,63.1,32.2,61.1,32.2z"/>
<g>
	
		<linearGradient id="SVGID_4_" gradientUnits="userSpaceOnUse" x1="1083.4612" y1="3792.4282" x2="1097.5011" y2="3806.4683" gradientTransform="matrix(0 1 1 0 -3742.6001 -1078.67)">
		<stop  offset="0" style="stop-color:#D23F31"/>
		<stop  offset="1" style="stop-color:#F44336"/>
	</linearGradient>
	<path fill="url(#SVGID_4_)" d="M64.3,6.6c-1.1-3.9-5.1-6.3-9.1-5.4c-4,0.8-6.7,4.7-5.9,8.8c0.1,0.7,0.4,1.3,0.7,2
		c0.5,0.9,1,1.8,1.5,2.6c0.7,1.1,1.4,2.1,2,3.1c1.4,2.3,2.5,4.7,3.2,7.3c0.1,0.3,0.1,0.6,0.2,0.9c0.4-1.2,0.7-2.3,1.1-3.5
		c0.9-2.3,2.1-4.5,3.5-6.5c0.8-1.3,1.6-2.6,2.3-3.9C64.6,10.4,64.9,8.4,64.3,6.6z"/>
	
		<linearGradient id="SVGID_5_" gradientUnits="userSpaceOnUse" x1="1084.9325" y1="3797.4775" x2="1088.8425" y2="3801.3875" gradientTransform="matrix(0 1 1 0 -3742.51 -1078.665)">
		<stop  offset="0" style="stop-color:#90130E"/>
		<stop  offset="1" style="stop-color:#680000"/>
	</linearGradient>
	<circle fill="url(#SVGID_5_)" cx="56.9" cy="8.2" r="2.8"/>
</g>
</svg>
