<svg width="40px" height="40px" viewBox="0 0 40 40" version="1.1" xmlns="http://www.w3.org/2000/svg" xmlns:xlink="http://www.w3.org/1999/xlink">
    <g id="Notification-Icon" stroke="none" stroke-width="1" fill="none" fill-rule="evenodd">
        <g id="public_transport_departures">
            <circle id="Oval" fill="#4285F4" cx="20" cy="20" r="20"></circle>
            <path d="M22.6666667,12.6666667 C21.0666667,12.6666667 19.6533333,13.4733333 18.8133333,14.7 C18.82,14.6933333 18.82,14.6866667 18.8266667,14.68 C18.56,14.6666667 18.28,14.6666667 18,14.6666667 C15.0533333,14.6666667 12.6666667,15 12.6666667,17.3333333 L12.6666667,24 C12.6666667,24.5866667 12.9266667,25.1133333 13.3333333,25.48 L13.3333333,26.6666667 C13.3333333,27.0333333 13.6333333,27.3333333 14,27.3333333 L14.6666667,27.3333333 C15.0333333,27.3333333 15.3333333,27.0333333 15.3333333,26.6666667 L15.3333333,26 L20.6666667,26 L20.6666667,26.6666667 C20.6666667,27.0333333 20.9666667,27.3333333 21.3333333,27.3333333 L22,27.3333333 C22.3666667,27.3333333 22.6666667,27.0333333 22.6666667,26.6666667 L22.6666667,25.48 C23.0733333,25.1133333 23.3333333,24.5866667 23.3333333,24 L23.3333333,21.9466667 C25.5933333,21.62 27.3333333,19.6866667 27.3333333,17.3333333 C27.3333333,14.7533333 25.2466667,12.6666667 22.6666667,12.6666667 Z M15,24.6666667 C14.4466667,24.6666667 14,24.22 14,23.6666667 C14,23.1133333 14.4466667,22.6666667 15,22.6666667 C15.5533333,22.6666667 16,23.1133333 16,23.6666667 C16,24.22 15.5533333,24.6666667 15,24.6666667 Z M14,20.6666667 L14,17.3333333 L18,17.3333333 C18,18.64 18.54,19.82 19.4066667,20.6666667 L14,20.6666667 Z M21,24.6666667 C20.4466667,24.6666667 20,24.22 20,23.6666667 C20,23.1133333 20.4466667,22.6666667 21,22.6666667 C21.5533333,22.6666667 22,23.1133333 22,23.6666667 C22,24.22 21.5533333,24.6666667 21,24.6666667 Z M22.6666667,20.6666667 C20.8266667,20.6666667 19.3333333,19.1733333 19.3333333,17.3333333 C19.3333333,15.4933333 20.8266667,14 22.6666667,14 C24.5066667,14 26,15.4933333 26,17.3333333 C26,19.1733333 24.5066667,20.6666667 22.6666667,20.6666667 Z M23,14.6666667 L22,14.6666667 L22,18 L24.4133333,19.44 L24.9133333,18.62 L23,17.5 L23,14.6666667 Z" id="Shape" fill="#FFFFFF"></path>
        </g>
    </g>
</svg>

