<svg xmlns="http://www.w3.org/2000/svg" xmlns:xlink="http://www.w3.org/1999/xlink" width="91.7185932345435" height="73.64824154317921" version="1.1" style=""><rect id="backgroundrect" width="100%" height="100%" x="0" y="0" fill="none" stroke="none" class="" style=""/>
    <!-- Generator: Sketch 48.2 (47327) - http://www.bohemiancoding.com/sketch -->
    <title>Artboard Copy 2</title>
    <desc>Created with Sketch.</desc>
    <defs>
        <polygon id="path-1" points="0.539399748 0.6153 17.4194003 0.6153 17.4194003 22 0.539399748 22"/>
        <polygon id="path-3" points="0.8002 0.6153 17.6812 0.6153 17.6812 22 0.8002 22"/>
        <polygon id="path-5" points="0.2427 0.664 42.1207 0.664 42.1207 61.7217 0.2427 61.7217"/>
        <path d="M111.25,15 L113.75,27.5 L101.25,25 L7.5,25 C3.35786438,25 1.39544373e-15,21.6421356 8.8817842e-16,17.5 L8.8817842e-16,7.5 C3.80913106e-16,3.35786438 3.35786438,1.64907639e-15 7.5,8.8817842e-16 L103.75,8.8817842e-16 C107.892136,-7.2306305e-15 111.25,3.35786438 111.25,7.5 L111.25,15 Z" id="path-7"/>
        <filter x="-13.2%" y="-43.6%" width="126.4%" height="209.1%" filterUnits="objectBoundingBox" id="filter-8">
            <feMorphology radius="0.5" operator="dilate" in="SourceAlpha" result="shadowSpreadOuter1"/>
            <feOffset dx="0" dy="3" in="shadowSpreadOuter1" result="shadowOffsetOuter1"/>
            <feGaussianBlur stdDeviation="4" in="shadowOffsetOuter1" result="shadowBlurOuter1"/>
            <feColorMatrix values="0 0 0 0 0   0 0 0 0 0   0 0 0 0 0  0 0 0 0.16 0" type="matrix" in="shadowBlurOuter1"/>
        </filter>
    </defs>
    
<g class="currentLayer" style=""><title>Layer 1</title><g id="Promos-&amp;-Onboarding" stroke="none" stroke-width="1" fill="none" fill-rule="evenodd" class="">
        <g id="Artboard-Copy-2">
            <g id="Group-7">
                <g id="Page-1">
                    <g id="Group-62">
                        <g id="Group-3">
                            <mask id="mask-2" fill="white" transform="translate(0,-0.5025125741958618) translate(-1.5075377225875854,-1.5075377225875854) translate(0,3.015075445175171) translate(3.517587900161743,3.517587900161743) translate(24.62311553955078,21.105527877807617) translate(-13.567838668823242,-11.055275917053223) translate(-21.105527877807617,-22.110551834106445) translate(-11.557788848876953,-7.537688255310059) translate(17.587940216064453,16.080402374267578) translate(-46.73366928100586,-58.793968200683594) translate(-29.145729064941406,18.090452194213867) translate(34.67336654663086,-18.59296417236328) translate(-3.517587900161743,28.64321517944336) translate(90,49) translate(0,0.335999995470047) translate(45,30) translate(-44.7236213684082,-30.65326499938965) scale(1,1.0038654804229736) translate(44.7236213684082,30.65326499938965) ">
                                <use xlink:href="#path-1" id="svg_1"/>
                            </mask>
                            <g id="Clip-2"/>
                            <path d="M99.04073083820344,50.612112475163116 L99.03873083820343,50.612112475163116 L95.45273083820342,50.612112475163116 C91.78173083820343,50.612112475163116 88.80573083820343,55.41761652994788 88.80573083820343,61.34544219184555 C88.80473083820343,67.27427171922363 91.78073083820343,72.07977577400838 95.45073083820341,72.07977577400838 L99.03873083820343,72.07977577400838 C102.70873083820342,72.07977577400838 105.68573083820343,67.27427171922363 105.68573083820343,61.34544219184555 C105.68673083820343,55.41761652994788 102.71073083820343,50.612112475163116 99.04073083820344,50.612112475163116 " id="Fill-1" fill="#292D33" mask="url(#mask-2)"/>
                        </g>
                        <g id="Group-6">
                            <mask id="mask-4" fill="white" transform="translate(0,-0.5025125741958618) translate(-1.5075377225875854,-1.5075377225875854) translate(0,3.015075445175171) translate(3.517587900161743,3.517587900161743) translate(24.62311553955078,21.105527877807617) translate(-13.567838668823242,-11.055275917053223) translate(-21.105527877807617,-22.110551834106445) translate(-11.557788848876953,-7.537688255310059) translate(17.587940216064453,16.080402374267578) translate(-46.73366928100586,-58.793968200683594) translate(-29.145729064941406,18.090452194213867) translate(34.67336654663086,-18.59296417236328) translate(-3.517587900161743,28.64321517944336) translate(15,49) translate(0,0.335999995470047) translate(45,30) translate(-44.7236213684082,-30.65326499938965) scale(1,1.0038654804229736) translate(44.7236213684082,30.65326499938965) ">
                                <use xlink:href="#path-3" id="svg_2"/>
                            </mask>
                            <g id="Clip-5"/>
                            <path d="M24.301530838203433,50.612112475163116 L24.30053083820343,50.612112475163116 L20.71453083820343,50.612112475163116 C17.043530838203424,50.612112475163116 14.067530838203425,55.41761652994788 14.06653083820342,61.34544219184555 C14.06653083820342,67.27427171922363 17.04153083820343,72.07977577400838 20.712530838203435,72.07977577400838 L24.30053083820343,72.07977577400838 C27.97053083820343,72.07977577400838 30.94653083820343,67.27427171922363 30.947530838203434,61.34544219184555 C30.947530838203434,55.41761652994788 27.972530838203426,50.612112475163116 24.301530838203433,50.612112475163116 " id="Fill-4" fill="#292D33" mask="url(#mask-4)"/>
                        </g>
                        <path d="M31.29463083820343,1.4716925698820515 L31.59763083820343,63.047797273546834 L156.10063083820344,61.856208948284774 L155.99863083820344,10.947178839594493 C155.98763083820344,5.7110164937082715 151.75663083820342,1.4716925698820515 146.54063083820344,1.4716925698820515 L31.29463083820343,1.4716925698820515 z" id="Fill-9" fill="#E4594E"/>
                        <g id="Group-13">
                            <mask id="mask-6" fill="white" transform="translate(0,-0.5025125741958618) translate(-1.5075377225875854,-1.5075377225875854) translate(0,3.015075445175171) translate(3.517587900161743,3.517587900161743) translate(24.62311553955078,21.105527877807617) translate(-13.567838668823242,-11.055275917053223) translate(-21.105527877807617,-22.110551834106445) translate(-11.557788848876953,-7.537688255310059) translate(17.587940216064453,16.080402374267578) translate(-46.73366928100586,-58.793968200683594) translate(-29.145729064941406,18.090452194213867) translate(34.67336654663086,-18.59296417236328) translate(-3.517587900161743,28.64321517944336) translate(3,0) translate(0,0.335999995470047) translate(45,30) translate(-44.7236213684082,-30.65326499938965) scale(1,1.0038654804229736) translate(44.7236213684082,30.65326499938965) ">
                                <use xlink:href="#path-5" id="svg_3"/>
                            </mask>
                            <g id="Clip-12"/>
                            <path d="M1.5090308382034294,62.76530952735581 L43.38703083820343,62.76530952735581 L43.38703083820343,10.965850737530367 C43.38703083820343,5.722661333281174 39.15303083820342,1.4712910236898793 33.92903083820343,1.4712910236898793 L10.967030838203428,1.4712910236898793 C5.744030838203429,1.4712910236898793 1.5090308382034294,5.722661333281174 1.5090308382034294,10.965850737530367 L1.5090308382034294,62.76530952735581 z" id="Fill-11" fill="#B7251D" mask="url(#mask-6)"/>
                        </g>
                        <path d="M21.747730838203438,42.34096362231411 L39.494730838203424,42.34096362231411 C40.47973083820344,42.34096362231411 41.27873083820343,41.53887510345615 41.27873083820343,40.549063739759106 L41.27873083820343,16.456292209607742 C41.27873083820343,15.466480845910688 40.47973083820344,14.665396192533152 39.494730838203424,14.665396192533152 L21.747730838203438,14.665396192533152 " id="Fill-14" fill="#6FA3F9"/>
                        <path d="M21.747730838203438,14.665095032889027 L5.612730838203433,14.665095032889027 C4.6277308382034334,14.665095032889027 3.8287308382034273,15.467183551746977 3.8287308382034273,16.455991049963608 L3.8287308382034273,40.548762580114975 C3.8287308382034273,41.53957780929244 4.6277308382034334,42.340662462669975 5.612730838203433,42.340662462669975 L21.747730838203438,42.340662462669975 " id="Fill-16" fill="#6199F6"/>
                        <path d="M65.50213083820341,14.665095032889027 L60.034130838203424,14.665095032889027 C58.94013083820343,14.665095032889027 58.05313083820343,15.555523714024204 58.05313083820343,16.652748684126507 L58.05313083820343,34.3278081979338 C58.05313083820343,35.42603703351653 58.94013083820343,36.31546184917129 60.034130838203424,36.31546184917129 L65.50213083820341,36.31546184917129 C66.59613083820344,36.31546184917129 67.48213083820343,35.42603703351653 67.48213083820343,34.3278081979338 L67.48213083820343,16.652748684126507 C67.48213083820343,15.555523714024204 66.59613083820344,14.665095032889027 65.50213083820341,14.665095032889027 " id="Fill-18" fill="#9FC1F9"/>
                        <path d="M53.338630838203414,14.665095032889027 L47.870630838203425,14.665095032889027 C46.77663083820343,14.665095032889027 45.88963083820343,15.555523714024204 45.88963083820343,16.652748684126507 L45.88963083820343,34.3278081979338 C45.88963083820343,35.42603703351653 46.77663083820343,36.31546184917129 47.870630838203425,36.31546184917129 L53.338630838203414,36.31546184917129 C54.43263083820344,36.31546184917129 55.31863083820343,35.42603703351653 55.31863083820343,34.3278081979338 L55.31863083820343,16.652748684126507 C55.31863083820343,15.555523714024204 54.43263083820344,14.665095032889027 53.338630838203414,14.665095032889027 " id="Fill-20" fill="#9FC1F9"/>
                        <path d="M77.66573083820344,14.665095032889027 L72.19773083820343,14.665095032889027 C71.10373083820343,14.665095032889027 70.21673083820343,15.555523714024204 70.21673083820343,16.652748684126507 L70.21673083820343,34.3278081979338 C70.21673083820343,35.42603703351653 71.10373083820343,36.31546184917129 72.19773083820343,36.31546184917129 L77.66573083820344,36.31546184917129 C78.75973083820344,36.31546184917129 79.64573083820343,35.42603703351653 79.64573083820343,34.3278081979338 L79.64573083820343,16.652748684126507 C79.64573083820343,15.555523714024204 78.75973083820344,14.665095032889027 77.66573083820344,14.665095032889027 " id="Fill-22" fill="#9FC1F9"/>
                        <path d="M89.82933083820342,14.665095032889027 L84.36033083820342,14.665095032889027 C83.26733083820343,14.665095032889027 82.38033083820343,15.555523714024204 82.38033083820343,16.652748684126507 L82.38033083820343,34.3278081979338 C82.38033083820343,35.42603703351653 83.26733083820343,36.31546184917129 84.36033083820342,36.31546184917129 L89.82933083820342,36.31546184917129 C90.92333083820341,36.31546184917129 91.80933083820344,35.42603703351653 91.80933083820344,34.3278081979338 L91.80933083820344,16.652748684126507 C91.80933083820344,15.555523714024204 90.92333083820341,14.665095032889027 89.82933083820342,14.665095032889027 " id="Fill-24" fill="#9FC1F9"/>
                        <path d="M31.07053083820344,42.15575044117606 C31.07053083820344,39.746473288160935 33.01653083820344,37.791947197777404 35.41653083820343,37.791947197777404 C37.81653083820342,37.791947197777404 39.76253083820343,39.746473288160935 39.76253083820343,42.15575044117606 " id="Stroke-36" stroke="#292D33" stroke-width="1.391"/>
                        <path d="M57.17013083820342,72.07947461436427 C53.50013083820343,72.07947461436427 50.52413083820343,67.2739705595795 50.52513083820344,61.34614489768184 C50.52513083820344,55.417315370303754 53.50113083820344,50.61181131551899 57.17213083820343,50.61181131551899 L60.75813083820344,50.61181131551899 L60.75813083820344,72.07947461436427 L57.17013083820342,72.07947461436427 z" id="Fill-46" fill="#292D33"/>
                        <path d="M67.40503083820343,61.345843738037715 C67.40503083820343,67.27366939993537 64.42803083820343,72.07917345472018 60.75803083820344,72.07917345472018 C57.08803083820342,72.07917345472018 54.112030838203424,67.27366939993537 54.11303083820343,61.345843738037715 C54.11303083820343,55.41801807614007 57.08903083820343,50.61251402135528 60.759030838203444,50.61251402135528 C64.43003083820344,50.61251402135528 67.40503083820343,55.41801807614007 67.40503083820343,61.345843738037715 " id="Fill-48" fill="#676C72"/>
                        <path d="M63.78003083820343,61.345843738037715 C63.78003083820343,64.24299951453843 62.32603083820345,66.59104087324776 60.533030838203445,66.59104087324776 C58.73903083820343,66.59104087324776 57.28603083820343,64.241995649058 57.28603083820343,61.345843738037715 C57.287030838203435,58.44969182701743 58.74003083820344,56.101650468308094 60.533030838203445,56.101650468308094 C62.32703083820343,56.101650468308094 63.78003083820343,58.44969182701743 63.78003083820343,61.345843738037715 " id="Fill-50" fill="#DFE1E5"/>
                        <path d="M62.651130838203414,61.345843738037715 C62.651130838203414,63.23612243767417 61.703130838203435,64.76701729531922 60.53313083820342,64.76701729531922 C59.36313083820343,64.76701729531922 58.415130838203424,63.235118572193755 58.415130838203424,61.345843738037715 C58.415130838203424,59.45656890388169 59.36413083820344,57.92467018075622 60.53313083820342,57.92467018075622 C61.703130838203435,57.92467018075622 62.651130838203414,59.45656890388169 62.651130838203414,61.345843738037715 " id="Fill-52" fill="#959CA5"/>
                        <path d="M26.385430838203433,56.45199952097572 L17.115430838203423,56.45199952097572 C14.029430838203439,56.45199952097572 11.52743083820343,53.94032808895744 11.52743083820343,50.842399216372144 C11.52743083820343,47.74346647830642 14.029430838203439,45.231795046288134 17.115430838203423,45.231795046288134 L26.385430838203433,45.231795046288134 C29.471430838203432,45.231795046288134 31.973430838203427,47.74346647830642 31.973430838203427,50.842399216372144 C31.973430838203427,53.94032808895744 29.471430838203432,56.45199952097572 26.385430838203433,56.45199952097572 " id="Fill-54" fill="#292D33" opacity="0.300000012"/>
                        <polyline id="Fill-56" fill="#959CA5" points="44.471439361572266,58.27633035182953 -1.7335716485977173,58.27633035182953 -1.7335716485977173,66.07736718654633 44.64442825317383,66.07736718654633 "/>
                        <path d="M48.54223083820344,66.07886870513595 L43.64623083820342,66.07786483965553 L43.64723083820343,58.276826191288606 L48.54323083820343,58.27783005676902 C50.68423083820343,58.27783005676902 52.42023083820342,60.015521203381205 52.42823083820343,62.16379333148636 C52.436230838203414,64.3241118453566 50.694230838203424,66.07886870513595 48.54223083820344,66.07886870513595 " id="Fill-58" fill="#DFE1E5"/>
                    </g>
                    <polygon id="Fill-63" points="45.53433609008789,42.41926324367523 153.23533630371094,42.41926324367523 153.23533630371094,40.18265664577484 45.53433609008789,40.18265664577484 "/>
                    <g id="Group-71">
                        <path d="M40.53883083820344,50.612112445245586 C40.53883083820344,53.13482639754852 39.27283083820343,55.17970038117012 37.710830838203435,55.17970038117012 C36.14883083820342,55.17970038117012 34.88283083820343,53.13482639754852 34.88283083820343,50.612112445245586 C34.88283083820343,48.090402358423084 36.14883083820342,46.045528374801485 37.710830838203435,46.045528374801485 C39.27283083820343,46.045528374801485 40.53883083820344,48.090402358423084 40.53883083820344,50.612112445245586 " id="Fill-65" fill="#FFFFFF"/>
                        <path d="M9.717030838203428,50.612112445245586 C9.717030838203428,53.00030842317186 8.519030838203435,54.93576106942734 7.040030838203421,54.93576106942734 C5.562030838203427,54.93576106942734 4.363030838203429,53.00030842317186 4.363030838203429,50.612112445245586 C4.363030838203429,48.22492033279977 5.562030838203427,46.28946768654428 7.040030838203421,46.28946768654428 C8.519030838203435,46.28946768654428 9.717030838203428,48.22492033279977 9.717030838203428,50.612112445245586 " id="Fill-67" fill="#FFFFFF"/>
                        <path d="M29.647230838203427,11.108399605832904 L13.855230838203425,11.108399605832904 C12.569230838203424,11.108399605832904 11.527230838203423,10.062371775232165 11.527230838203423,8.772404632888644 C11.527230838203423,7.482437490545127 12.569230838203424,6.437413525424816 13.855230838203425,6.437413525424816 L29.647230838203427,6.437413525424816 C30.932230838203424,6.437413525424816 31.974230838203425,7.482437490545127 31.974230838203425,8.772404632888644 C31.974230838203425,10.062371775232165 30.932230838203424,11.108399605832904 29.647230838203427,11.108399605832904 " id="Fill-69" fill="#012754" opacity="0.300000012"/>
                    </g>
                </g>
            </g>            
            <rect id="contrainer" x="-46.73366928100586" y="-29.648237228393555" width="136" height="130.5025177001953"/>
        </g>
    </g></g></svg>