<svg version="1.1" id="Layer_1" xmlns="http://www.w3.org/2000/svg" xmlns:xlink="http://www.w3.org/1999/xlink" x="0px" y="0px" width="1188px" height="480px" viewBox="0 0 1188 480" enable-background="new 0 0 1188 480" xml:space="preserve"> <path fill="#D2E3FC" d="M0,0h1188v480H0V0z"/> <linearGradient id="SVGID_1_" gradientUnits="userSpaceOnUse" x1="4913.9722" y1="-42.3889" x2="4913.9858" y2="-42.3889" gradientTransform="matrix(0.8005 -0.5993 -0.5993 -0.8005 -3736.3928 2970.4209)"> <stop offset="0" style="stop-color:#FFFFFF"/> <stop offset="1" style="stop-color:#979DA5"/> </linearGradient> <path opacity="0.8" fill="url(#SVGID_1_)" enable-background="new " d="M222.83,59.13L222.83,59.13L222.83,59.13L222.83,59.13z" /> <g> <linearGradient id="SVGID_2_" gradientUnits="userSpaceOnUse" x1="-6252.9453" y1="5077.8306" x2="-6414.1387" y2="4916.6377" gradientTransform="matrix(0.432 0.0134 -0.0134 -0.432 2948.3718 2295.916)"> <stop offset="0" style="stop-color:#6199F6"/> <stop offset="0.02" style="stop-color:#659CF6"/> <stop offset="0.227" style="stop-color:#8CB5F8"/> <stop offset="0.432" style="stop-color:#ABC9FA"/> <stop offset="0.632" style="stop-color:#C0D7FB"/> <stop offset="0.824" style="stop-color:#CEE0FC"/> <stop offset="1" style="stop-color:#D2E3FC"/> </linearGradient> <path fill="url(#SVGID_2_)" d="M154.59,126.57l-83.6-83.6l68.29-68.29l83.6,83.6L154.59,126.57z"/> <path fill="#DF382C" d="M138.44,22.63c-15.46-20.65-11.25-50.02,9.38-65.5c0.01-0.01,0.03-0.02,0.04-0.03 c20.67-15.47,50.07-11.25,65.54,9.42c0.53,0.71,1.04,1.44,1.53,2.17c0.16,0.24,0.3,0.48,0.45,0.71c0.32,0.51,0.64,1.01,0.94,1.53 c0.44,0.76,0.86,1.54,1.27,2.32c0.15,0.29,0.29,0.58,0.44,0.87c0.25,0.52,0.49,1.04,0.72,1.56c0.12,0.26,0.24,0.52,0.35,0.79 c0.28,0.67,0.54,1.35,0.79,2.02c0.04,0.12,0.09,0.23,0.14,0.35c0.29,0.8,0.55,1.61,0.79,2.43c0.06,0.21,0.12,0.43,0.18,0.65 c0.17,0.6,0.33,1.2,0.47,1.81c0.07,0.28,0.13,0.56,0.19,0.85c0.12,0.55,0.23,1.1,0.33,1.65c0.05,0.29,0.1,0.58,0.15,0.88 c0.09,0.57,0.17,1.13,0.24,1.7c0.03,0.27,0.07,0.53,0.1,0.8c0.07,0.68,0.12,1.35,0.17,2.03c0.01,0.16,0.03,0.31,0.03,0.47 c0.01,0.18,0.01,0.37,0.02,0.55l0.18-0.01l-0.05,66.47l-57.96-19.06v-0.01C154.64,37.56,145.21,31.67,138.44,22.63z"/> <path fill="#FFFFFF" d="M175.95,21.27c-8.14,0-16.18-3.69-21.42-10.69c-2.14-2.86-3.69-6.11-4.55-9.58 c-0.32-1.31,0.47-2.63,1.78-2.95s2.63,0.47,2.95,1.78c0.7,2.84,1.95,5.47,3.72,7.83c3.5,4.67,8.6,7.7,14.37,8.53 c5.78,0.82,11.53-0.64,16.19-4.13c9.64-7.22,11.61-20.93,4.39-30.57c-3.5-4.67-8.6-7.7-14.38-8.53 c-5.77-0.83-11.52,0.64-16.19,4.13c-4.67,3.5-7.7,8.6-8.53,14.38c-0.19,1.33-1.43,2.26-2.76,2.07c-1.33-0.19-2.26-1.43-2.07-2.76 c1.01-7.06,4.72-13.31,10.43-17.59c5.71-4.28,12.75-6.08,19.81-5.06c7.06,1.01,13.31,4.72,17.58,10.43 c4.28,5.71,6.07,12.75,5.06,19.81c-1.01,7.06-4.72,13.31-10.43,17.58C187.14,19.54,181.52,21.27,175.95,21.27L175.95,21.27z"/> </g> <g> <linearGradient id="SVGID_3_" gradientUnits="userSpaceOnUse" x1="-9432.5244" y1="3219.5317" x2="-9663.3789" y2="2988.6777" gradientTransform="matrix(0.3245 0.0913 -0.0913 -0.3245 3723.8069 1922.6331)"> <stop offset="0" style="stop-color:#6199F6"/> <stop offset="0.02" style="stop-color:#659CF6"/> <stop offset="0.227" style="stop-color:#8CB5F8"/> <stop offset="0.432" style="stop-color:#ABC9FA"/> <stop offset="0.632" style="stop-color:#C0D7FB"/> <stop offset="0.824" style="stop-color:#CEE0FC"/> <stop offset="1" style="stop-color:#D2E3FC"/> </linearGradient> <path fill="url(#SVGID_3_)" d="M367.76,125.9L259.81,17.95l52.63-52.62L420.39,73.28L367.76,125.9z"/> <linearGradient id="SVGID_4_" gradientUnits="userSpaceOnUse" x1="-12782.7256" y1="4370.5669" x2="-12973.7715" y2="4179.521" gradientTransform="matrix(0.2704 0.0701 -0.0701 -0.2704 4132.8281 2208.8379)"> <stop offset="0" style="stop-color:#6199F6"/> <stop offset="0.02" style="stop-color:#659CF6"/> <stop offset="0.227" style="stop-color:#8CB5F8"/> <stop offset="0.432" style="stop-color:#ABC9FA"/> <stop offset="0.632" style="stop-color:#C0D7FB"/> <stop offset="0.824" style="stop-color:#CEE0FC"/> <stop offset="1" style="stop-color:#D2E3FC"/> </linearGradient> <path fill="url(#SVGID_4_)" d="M367.29,206.82l-73.14-73.14l37.41-37.41l73.14,73.14L367.29,206.82z"/> <path fill="#FFFFFF" d="M408.36,123.52l-30.18-30.18c-12.14-12.14-31.76-12.21-43.82-0.15s-11.99,31.68,0.15,43.82l23.26,23.26 l0.08,22.11l11.42-11.42c12.08,8.21,28.61,7.02,39.25-3.62C420.57,155.29,420.5,135.67,408.36,123.52z"/> <path fill="#4285F4" d="M386.93,149.53c-0.81,0-1.62-0.31-2.24-0.93l-32.6-32.6c-1.24-1.23-1.24-3.24-0.01-4.47c0,0,0,0,0.01-0.01 c1.23-1.24,3.24-1.24,4.47-0.01c0,0,0,0,0.01,0.01l32.6,32.6c1.24,1.23,1.24,3.24,0.01,4.47c0,0,0,0-0.01,0.01 C388.56,149.22,387.75,149.53,386.93,149.53L386.93,149.53z"/> <path fill="#FFFFFF" d="M428.71,10.08l-52.82-52.82c-15.58-15.58-40.84-15.58-56.42,0C306.14-29.41,304.23-9,313.71,6.38 l-14.87,14.87h28.21l45.24,45.24c15.58,15.58,40.84,15.58,56.42,0C444.29,50.92,444.29,25.66,428.71,10.08L428.71,10.08z"/> <path fill="#FABB06" d="M409.09,34.78c-0.81,0-1.62-0.31-2.24-0.93l-55.87-55.87c-1.24-1.23-1.24-3.24-0.01-4.47c0,0,0,0,0.01-0.01 c1.23-1.24,3.24-1.24,4.47-0.01c0,0,0,0,0.01,0.01l55.87,55.87c1.24,1.23,1.24,3.24,0.01,4.47c0,0,0,0-0.01,0.01 C410.72,34.47,409.9,34.78,409.09,34.78L409.09,34.78z M393.13,50.75c-0.81,0-1.62-0.31-2.24-0.93L335.01-6.06 c-1.24-1.23-1.24-3.24-0.01-4.47c0,0,0,0,0.01-0.01c1.23-1.24,3.24-1.24,4.47-0.01c0,0,0,0,0.01,0.01l55.87,55.87 c1.24,1.23,1.24,3.24,0.01,4.47c0,0,0,0-0.01,0.01C394.75,50.44,393.94,50.75,393.13,50.75z"/> </g> <g> <path fill="#D2E3FC" d="M518.99-52.61l23.77,42.78l6.66-6.67l82.86-82.87l-43.32-23.22L518.99-52.61z"/> <linearGradient id="SVGID_5_" gradientUnits="userSpaceOnUse" x1="599.3174" y1="100.8464" x2="559.1555" y2="48.6354" gradientTransform="matrix(1 0 0 -1 0 132)"> <stop offset="0" style="stop-color:#6199F6"/> <stop offset="0.02" style="stop-color:#659CF6"/> <stop offset="0.227" style="stop-color:#8CB5F8"/> <stop offset="0.432" style="stop-color:#ABC9FA"/> <stop offset="0.632" style="stop-color:#C0D7FB"/> <stop offset="0.824" style="stop-color:#CEE0FC"/> <stop offset="1" style="stop-color:#D2E3FC"/> </linearGradient> <path fill="url(#SVGID_5_)" d="M507,27.39l102.71,102.72l37.7-37.7L529.4,4.99L507,27.39z"/> <path fill="#E8F0FE" d="M549.42-16.5l-6.67,6.67l13.98,25.17l9.36-9.37c0.86-0.86,2.24-0.86,3.09,0c0.86,0.86,0.86,2.24,0,3.1 l-11.42,11.42c-0.4,0.4-0.95,0.63-1.53,0.63c-0.1,0-0.2-0.01-0.31-0.02c-0.68-0.1-1.28-0.51-1.61-1.1L539.53-6.6L528.56,4.37 l0.84,0.62l118.01,87.42l1.06,0.78L722.65,19l-53.33,53.33L549.42-16.5z"/> <path fill="#959CA5" d="M554.32,20c0.59,1.06,1.93,1.43,2.98,0.84c0.17-0.1,0.33-0.21,0.47-0.35l11.42-11.42 c0.86-0.86,0.86-2.24,0-3.1c-0.85-0.86-2.23-0.86-3.09,0l-9.36,9.37L542.76-9.83l-23.77-42.78l69.97-69.98l43.32,23.22l3.23-3.24 l-45.92-24.61c-0.85-0.45-1.9-0.3-2.58,0.38l-72.29,72.3c-0.69,0.69-0.84,1.75-0.37,2.61l25.18,45.32L554.32,20z"/> <path fill="#FFFFFF" d="M648.49-115.58l-12.97,12.97l-3.23,3.24L549.42-16.5l119.9,88.82L722.65,19l14.66-14.66L648.49-115.58z M696.98-3.15c-0.4,0.4-0.98,0.59-1.55,0.52l-36.28,36.28c-0.34,0.35-0.82,0.54-1.3,0.54c-0.94,0.01-1.72-0.68-1.84-1.61 l-2.17-16.19L641.17,3.71l-4,4c-0.35,0.37-0.82,0.55-1.31,0.55c-0.98,0-1.8-0.76-1.86-1.74l-1.11-16.55L622.2-20.72l-3.6,3.6 c-0.35,0.37-0.82,0.55-1.31,0.55c-0.24,0-0.47-0.04-0.7-0.14c-0.69-0.28-1.15-0.95-1.15-1.7l-0.33-26.16 c-0.01-0.5,0.19-0.98,0.54-1.34c0.36-0.35,0.87-0.55,1.34-0.54l26.16,0.33c0.74,0.01,1.42,0.46,1.7,1.15s0.12,1.49-0.41,2.01 l-3.62,3.62l10.52,10.52l16.87,1.13c0.73,0.05,1.36,0.52,1.62,1.2c0.25,0.68,0.09,1.45-0.43,1.97l-4.15,4.15l12.33,12.33l16.8,2.25 c0.73-0.72,1.9-0.72,2.62,0.01S697.71-3.86,696.98-3.15z"/> <path fill="#FFFFFF" d="M659.19,28.37L690.15-2.6l-12.87-1.72L657.47,15.5L659.19,28.37z"/> <path fill="#DF382C" d="M694.37-5.77l-16.8-2.25l0.39,0.39c0.73,0.73,0.73,1.9,0,2.62l-0.68,0.68l12.86,1.72l-30.96,30.96 l-1.72-12.87l-0.95,0.95c-0.34,0.34-0.81,0.54-1.31,0.54c-0.49,0-0.96-0.19-1.31-0.54l-0.05-0.05l2.17,16.19 c0.11,0.93,0.9,1.62,1.84,1.61c0.48,0,0.96-0.19,1.3-0.54l36.28-36.28c1.01,0.14,1.95-0.57,2.08-1.58 c0.08-0.57-0.12-1.15-0.52-1.56C696.27-6.51,695.1-6.49,694.37-5.77L694.37-5.77z"/> <path fill="#FFFFFF" d="M643.79,1.09l18.82-18.82l11.41,11.41L655.21,12.5L643.79,1.09z"/> <path fill="#DF382C" d="M655.21,16.99c0.5,0,0.97-0.2,1.31-0.54l0.95-0.95l19.82-19.82L677.97-5c0.73-0.73,0.73-1.9,0-2.62 l-0.39-0.39l-12.33-12.33l-2.62,2.62l11.41,11.41L655.21,12.5L643.8,1.09l-2.63,2.63l12.67,12.68l0.05,0.05 C654.25,16.79,654.72,16.99,655.21,16.99L655.21,16.99z"/> <path fill="#FFFFFF" d="M637.45,2.2l26.42-26.42l-12.46-0.84l-14.8,14.79L637.45,2.2z"/> <path fill="#DF382C" d="M643.8,1.09l18.82-18.82l2.62-2.62l4.15-4.15c0.52-0.52,0.68-1.29,0.43-1.97c-0.26-0.68-0.89-1.15-1.62-1.2 l-16.87-1.13l0.6,0.6c0.73,0.73,0.73,1.9,0,2.62l-0.52,0.52l12.46,0.84L637.45,2.2l-0.84-12.46l-0.66,0.66 c-0.36,0.37-0.84,0.54-1.31,0.54s-0.95-0.18-1.31-0.54l-0.43-0.43l1.11,16.55c0.04,0.73,0.52,1.36,1.2,1.62 c0.22,0.09,0.44,0.12,0.66,0.12c0.49,0,0.96-0.18,1.31-0.55l4-4C641.18,3.71,643.8,1.09,643.8,1.09z"/> <path fill="#FFFFFF" d="M619.09-22.85l19.6-19.6l-19.85-0.25L619.09-22.85z"/> <path fill="#DF382C" d="M620.95-24.61l15.98-15.98c0.73-0.73,1.9-0.73,2.62,0l1.26,1.26l3.62-3.62c0.53-0.52,0.69-1.32,0.41-2.01 s-0.95-1.15-1.7-1.15l-26.16-0.33c-0.46-0.01-0.98,0.19-1.34,0.54c-0.35,0.36-0.55,0.84-0.54,1.34l0.33,26.16 c0.01,1.01,0.84,1.83,1.85,1.84c0.49,0,0.96-0.18,1.31-0.55l3.6-3.6l-1.26-1.26C620.22-22.71,620.22-23.88,620.95-24.61 L620.95-24.61z M619.09-22.85l-0.25-19.85l19.85,0.25L619.09-22.85z"/> <path fill="#FFFFFF" d="M624.88-23.29l13.35-13.35l9.76,9.76l-13.35,13.35L624.88-23.29z"/> <path fill="#DF382C" d="M634.64-9.06c0.47,0,0.95-0.17,1.31-0.54l0.66-0.66l14.8-14.8l0.52-0.52c0.73-0.73,0.73-1.9,0-2.62 l-0.6-0.6l-10.52-10.52l-1.26-1.26c-0.73-0.73-1.9-0.73-2.62,0L620.95-24.6c-0.73,0.73-0.73,1.9,0,2.62l1.26,1.26l10.69,10.69 l0.43,0.43C633.69-9.25,634.17-9.06,634.64-9.06z M638.24-36.65l9.76,9.76l-13.35,13.35l-9.76-9.76L638.24-36.65z"/> </g> <g> <linearGradient id="SVGID_6_" gradientUnits="userSpaceOnUse" x1="1952.0398" y1="-7412.144" x2="1750.4408" y2="-7613.7441" gradientTransform="matrix(0.6164 0.4161 -0.4161 -0.6164 -3339.332 -5260.2031)"> <stop offset="0" style="stop-color:#6199F6"/> <stop offset="0.02" style="stop-color:#659CF6"/> <stop offset="0.227" style="stop-color:#8CB5F8"/> <stop offset="0.432" style="stop-color:#ABC9FA"/> <stop offset="0.632" style="stop-color:#C0D7FB"/> <stop offset="0.824" style="stop-color:#CEE0FC"/> <stop offset="1" style="stop-color:#D2E3FC"/> </linearGradient> <path fill="url(#SVGID_6_)" d="M1023.67,279.37L789.61,45.32l39.48-39.47l234.05,234.05L1023.67,279.37z"/> <path fill="#F8F9FA" d="M1002.92,184.56l48.39,69.08l170.81-170.17l-48.38-69.09L1002.92,184.56z"/> <path fill="#D2E3FC" d="M1015.78,171.74l37.86,58.23l145.09-144.54l-37.86-58.23L1015.78,171.74z"/> <path fill="#F1F1F2" d="M1058-104.9l-67.35-50.2L819.83,15.07l67.35,50.2L1058-104.9z"/> <path fill="#FFFFFF" d="M1058-104.9l-67.35-50.2L819.83,15.07l67.35,50.2L1058-104.9z"/> <path fill="#80ADF8" d="M1045.08-92.04L988.65-131L843.61,13.48l56.43,38.95L1045.08-92.04z"/> <path fill="#F1F1F2" d="M935.57,134.36l67.35,50.2l170.82-170.18l-67.35-50.19L935.57,134.36z"/> <path fill="#FFFFFF" d="M935.57,134.36l67.35,50.2l170.82-170.18l-67.35-50.19L935.57,134.36z"/> <path fill="#80ADF8" d="M948.43,121.54l67.35,50.2L1160.87,27.2L1093.52-23L948.43,121.54z"/> <path fill="#F8F9FA" d="M887.18,65.27l48.38,69.08l170.82-170.17l-48.39-69.09L887.18,65.27z"/> <path fill="#D2E3FC" d="M900.04,52.45l48.39,69.09L1093.52-23l-48.39-69.09L900.04,52.45z"/> <path fill="#E8F0FE" d="M1045.08-92.04L988.65-131L843.61,13.48l56.43,38.95L1045.08-92.04z M948.43,121.54l67.35,50.2 L1160.87,27.2L1093.52-23L948.43,121.54z"/> <path fill="#F8F9FA" d="M1159.41,126.7c-0.57,0-1.15-0.24-1.56-0.7l-45.06-50.52l-68.14-50.13L1019.22-67l-44.42-50.92 c-0.76-0.87-0.67-2.19,0.2-2.95s2.19-0.67,2.95,0.2l0,0L1023-69.03l25.29,91.87l67.32,49.52l0.15,0.16l45.21,50.68 c0.77,0.86,0.69,2.18-0.17,2.95C1160.4,126.52,1159.9,126.7,1159.41,126.7L1159.41,126.7z"/> <path fill="#F8F9FA" d="M1086.3,199.95c-0.32,0-0.65-0.07-0.95-0.23c-0.37-0.19-9.07-4.72-17.1-15.79 c-7.36-10.14-15.51-27.95-12.54-55.17c3.42-31.39-24.77-58.69-49.65-82.77c-25.43-24.61-49.44-47.86-32.12-70.24 c27.62-35.67,27.36-95.66,27.35-96.26c-0.01-1.15,0.92-2.1,2.07-2.11h0.02c1.14,0,2.08,0.92,2.09,2.07 c0,0.15,0.11,15.64-3.28,35.41c-3.14,18.31-10.02,44.18-24.95,63.45c-15.03,19.42,6.63,40.39,31.72,64.68 c25.57,24.75,54.54,52.8,50.9,86.23c-5.39,49.41,27.05,66.61,27.38,66.78c1.03,0.53,1.43,1.79,0.91,2.81 C1087.79,199.53,1087.06,199.95,1086.3,199.95L1086.3,199.95z"/> <path fill="#F8F9FA" d="M1066.76,218.99c-0.09,0-0.18-0.01-0.27-0.02c-1.14-0.14-1.95-1.19-1.81-2.33c0,0,0-0.01,0-0.01 l13.96-109.78l20.07-43.69c15.18-41.39,23.33-62.9,24.23-63.93c0.76-0.87,2.08-0.96,2.95-0.21c0.81,0.7,0.95,1.89,0.36,2.75 c-1.39,2.66-14.87,38.99-23.64,62.9l-0.06,0.15L1082.71,108l-13.88,109.15C1068.71,218.2,1067.82,218.99,1066.76,218.99 L1066.76,218.99z M1126.11,1.97C1126.11,1.97,1126.1,1.97,1126.11,1.97z M1012.27,53.63c-0.2,0-0.41-0.03-0.61-0.09l-85.44-25.95 l-0.25-0.16l-58.05-37.54c-0.97-0.62-1.25-1.92-0.62-2.88c0,0,0,0,0-0.01c0.63-0.97,1.92-1.25,2.89-0.62L928,23.76l84.87,25.78 c1.1,0.34,1.72,1.51,1.39,2.61C1013.99,53.03,1013.18,53.62,1012.27,53.63z"/> <path fill="#F8F9FA" d="M907.37,15c-0.25,0-0.51-0.05-0.76-0.14c-1.08-0.42-1.61-1.63-1.19-2.7c0,0,0,0,0-0.01l40.29-103.47 c0.42-1.08,1.63-1.61,2.71-1.19c1.08,0.42,1.61,1.63,1.19,2.7c0,0,0,0,0,0.01L909.32,13.67C909,14.49,908.21,15,907.37,15z M950.77,122.22c-1.16,0-2.1-0.95-2.09-2.11c0-0.18,0.03-0.37,0.07-0.54l21.29-76.87c0.31-1.11,1.46-1.76,2.57-1.46 c1.11,0.31,1.76,1.46,1.46,2.57l-21.29,76.87C952.54,121.59,951.71,122.22,950.77,122.22z"/> <path fill="#34A852" d="M978.87-9.94c9.11-9.26,24.05-9.39,33.32-0.29l0.02,0.02c9.27,9.12,9.39,24.07,0.27,33.34 c-0.32,0.32-0.64,0.63-0.97,0.93c-0.11,0.1-0.21,0.19-0.32,0.28c-0.23,0.2-0.46,0.4-0.69,0.58c-0.13,0.1-0.26,0.2-0.38,0.3 c-0.22,0.17-0.45,0.34-0.67,0.5c-0.13,0.1-0.26,0.19-0.4,0.28l-0.72,0.48c-0.12,0.08-0.24,0.16-0.37,0.23 c-0.31,0.19-0.63,0.37-0.95,0.55c-0.06,0.03-0.11,0.06-0.17,0.09c-0.38,0.2-0.76,0.39-1.15,0.58c-0.1,0.05-0.21,0.09-0.31,0.14 c-0.29,0.13-0.57,0.25-0.87,0.37c-0.14,0.05-0.27,0.11-0.41,0.16c-0.27,0.1-0.53,0.2-0.8,0.29c-0.41,0.14-0.83,0.27-1.25,0.39 c-0.13,0.04-0.26,0.07-0.39,0.11c-0.33,0.09-0.66,0.16-1,0.24c-0.08,0.02-0.15,0.04-0.23,0.05c-0.09,0.02-0.18,0.03-0.27,0.05 l0.02,0.09l-33.09,5l5.1-30.29h0.01C972.66-0.75,974.88-5.89,978.87-9.94L978.87-9.94z"/> <path fill="#FABB06" d="M1144.52,59.32c7.51-7.64,19.83-7.74,27.48-0.24l0.02,0.02c7.64,7.52,7.74,19.85,0.22,27.49 c-0.26,0.26-0.53,0.52-0.8,0.76c-0.09,0.08-0.18,0.15-0.27,0.23c-0.19,0.16-0.38,0.33-0.57,0.48c-0.1,0.08-0.21,0.17-0.32,0.25 c-0.18,0.14-0.37,0.28-0.55,0.42c-0.11,0.08-0.22,0.16-0.33,0.23c-0.2,0.14-0.4,0.27-0.6,0.39c-0.1,0.06-0.2,0.13-0.3,0.19 c-0.26,0.16-0.52,0.31-0.78,0.45c-0.05,0.03-0.09,0.05-0.14,0.08c-0.31,0.17-0.63,0.33-0.95,0.47c-0.08,0.04-0.17,0.07-0.25,0.11 c-0.24,0.11-0.47,0.21-0.71,0.31c-0.11,0.04-0.22,0.09-0.34,0.13l-0.66,0.24c-0.12,0.04-0.23,0.08-0.35,0.12 c-0.23,0.07-0.46,0.14-0.68,0.2l-0.32,0.09c-0.27,0.07-0.55,0.14-0.82,0.19c-0.06,0.01-0.13,0.03-0.19,0.04 c-0.07,0.02-0.15,0.03-0.22,0.04l0.01,0.07l-27.29,4.13l4.21-24.98C1139.4,66.9,1141.23,62.66,1144.52,59.32L1144.52,59.32z"/> <ellipse transform="matrix(0.7071 -0.7071 0.7071 0.7071 287.3934 705.8434)" fill="#F8F9FA" cx="995.7" cy="6.02" rx="9.2" ry="9.2"/> <ellipse transform="matrix(0.7071 -0.7071 0.7071 0.7071 287.3559 840.5604)" fill="#F8F9FA" cx="1158.3" cy="73.42" rx="7.94" ry="7.94"/> </g> <g> <linearGradient id="SVGID_7_" gradientUnits="userSpaceOnUse" x1="263.6175" y1="601.6334" x2="218.9265" y2="507.7824" gradientTransform="matrix(0.9192 -0.0808 0.0808 -0.9192 321.714 801.714)"> <stop offset="0" style="stop-color:#6199F6"/> <stop offset="0.02" style="stop-color:#659CF6"/> <stop offset="0.227" style="stop-color:#8CB5F8"/> <stop offset="0.432" style="stop-color:#ABC9FA"/> <stop offset="0.632" style="stop-color:#C0D7FB"/> <stop offset="0.824" style="stop-color:#CEE0FC"/> <stop offset="1" style="stop-color:#D2E3FC"/> </linearGradient> <path fill="url(#SVGID_7_)" d="M595.79,341.99l-72.77-72.76l47.49-47.5l72.77,72.77L595.79,341.99z"/> <linearGradient id="SVGID_8_" gradientUnits="userSpaceOnUse" x1="-1053.2242" y1="-1643.3499" x2="-1103.7441" y2="-1693.8699" gradientTransform="matrix(1.0969 0.4079 -0.4079 -1.0969 922.046 -1031.472)"> <stop offset="0" style="stop-color:#6199F6"/> <stop offset="0.02" style="stop-color:#659CF6"/> <stop offset="0.227" style="stop-color:#8CB5F8"/> <stop offset="0.432" style="stop-color:#ABC9FA"/> <stop offset="0.632" style="stop-color:#C0D7FB"/> <stop offset="0.824" style="stop-color:#CEE0FC"/> <stop offset="1" style="stop-color:#D2E3FC"/> </linearGradient> <path fill="url(#SVGID_8_)" d="M414.45,388.82l-24.67-24.68l33.05-33.05l24.68,24.67L414.45,388.82z"/> <linearGradient id="SVGID_9_" gradientUnits="userSpaceOnUse" x1="-26941.9805" y1="22139.6582" x2="-27336.6777" y2="21744.9629" gradientTransform="matrix(0.2241 -0.0613 0.0613 -0.2241 5439.106 3464.0652)"> <stop offset="0" style="stop-color:#6199F6"/> <stop offset="0.02" style="stop-color:#659CF6"/> <stop offset="0.227" style="stop-color:#8CB5F8"/> <stop offset="0.432" style="stop-color:#ABC9FA"/> <stop offset="0.632" style="stop-color:#C0D7FB"/> <stop offset="0.824" style="stop-color:#CEE0FC"/> <stop offset="1" style="stop-color:#D2E3FC"/> </linearGradient> <path fill="url(#SVGID_9_)" d="M679.35,306.21l-72.88-72.88l84.17-80.07l64.95,8.96l5.88,61.87L679.35,306.21z"/> <path fill="#4285F4" d="M775.77,161.22l-0.77-0.77v-23.28h-23.28l-0.78-0.78l-0.77,0.78h-79.91v35.11h44.79l-83.86,83.86 l-66.84-66.83l-148.1,147.93l24.83,24.83l123.27-123.1l66.84,66.84l108.69-108.7v48.51H775V162L775.77,161.22z"/> </g> <g> <linearGradient id="SVGID_10_" gradientUnits="userSpaceOnUse" x1="-6658.0317" y1="2221.7485" x2="-6792.3608" y2="2087.4197" gradientTransform="matrix(0.3768 0.1284 -0.1284 -0.3768 2845.311 1904.514)"> <stop offset="0" style="stop-color:#6199F6"/> <stop offset="0.02" style="stop-color:#659CF6"/> <stop offset="0.227" style="stop-color:#8CB5F8"/> <stop offset="0.432" style="stop-color:#ABC9FA"/> <stop offset="0.632" style="stop-color:#C0D7FB"/> <stop offset="0.824" style="stop-color:#CEE0FC"/> <stop offset="1" style="stop-color:#D2E3FC"/> </linearGradient> <path fill="url(#SVGID_10_)" d="M59.92,308.05L-44.29,203.84l44.56-44.56l104.21,104.21L59.92,308.05z"/> <path fill="#FFFFFF" d="M90.71,271.38l-99.01-99c-1.56-1.56-1.56-4.1,0-5.66l6.94-6.94c1.56-1.56,4.1-1.56,5.66,0l99.01,99.01 c1.56,1.56,1.56,4.1,0,5.66l-6.94,6.94C94.81,272.95,92.27,272.95,90.71,271.38C90.71,271.38,90.71,271.38,90.71,271.38z M137.49,224.26c2.1,2.1,5.5,2.13,7.63,0.07c0.28-0.27,0.56-0.54,0.84-0.82c29.6-29.6,27.52-75.51-2.08-105.1 s-75.51-31.67-105.1-2.08c-0.28,0.28-0.55,0.55-0.82,0.83c-2.06,2.14-2.03,5.53,0.07,7.63L137.49,224.26z"/> <path fill="#DF382C" d="M120.23,231.24l-89.29-89.29c-4.87-4.87-12.76-4.87-17.62,0l-4.69,4.69c-4.87,4.87-4.87,12.76,0,17.62 l89.29,89.29c4.87,4.87,12.76,4.87,17.62,0l4.69-4.69C125.1,244,125.1,236.11,120.23,231.24L120.23,231.24z"/> <path fill="#FABB06" d="M128.33,239.6L23.11,133.83l7.34-7.35l105.22,105.77L128.33,239.6z"/> <path fill="#34A852" d="M139.37,223.36c-0.91,0-1.82-0.35-2.52-1.04c-3.02-3.02-5.74-3.07-9.5-3.15c-4.17-0.08-9.35-0.18-14.4-5.23 s-5.15-10.23-5.23-14.4c-0.07-3.76-0.13-6.48-3.15-9.5c-3.02-3.02-5.74-3.07-9.5-3.15c-4.16-0.08-9.35-0.18-14.4-5.23 s-5.15-10.23-5.23-14.39c-0.07-3.76-0.13-6.48-3.14-9.5c-3.02-3.02-5.74-3.07-9.5-3.15c-4.16-0.08-9.35-0.18-14.4-5.23 s-5.15-10.23-5.23-14.39c-0.07-3.76-0.13-6.48-3.15-9.5c-1.39-1.39-1.39-3.65,0-5.04c1.39-1.39,3.65-1.39,5.04,0 c5.05,5.05,5.15,10.23,5.23,14.39c0.07,3.76,0.13,6.48,3.15,9.5s5.74,3.07,9.5,3.15c4.17,0.08,9.35,0.18,14.4,5.23 s5.15,10.23,5.23,14.39c0.07,3.76,0.13,6.48,3.14,9.5c3.02,3.02,5.74,3.07,9.5,3.15c4.16,0.08,9.35,0.18,14.4,5.23 s5.15,10.23,5.23,14.4c0.07,3.76,0.13,6.48,3.15,9.5c3.02,3.02,5.74,3.07,9.5,3.15c4.17,0.08,9.35,0.18,14.4,5.23 c1.39,1.39,1.39,3.65,0,5.04C141.19,223.01,140.28,223.36,139.37,223.36L139.37,223.36z"/> </g> <g> <linearGradient id="SVGID_11_" gradientUnits="userSpaceOnUse" x1="-2519.4316" y1="-3528.4663" x2="-2563.7009" y2="-3572.7361" gradientTransform="matrix(1.2777 0.7283 -0.7283 -1.2777 683.307 -2314.7751)"> <stop offset="0" style="stop-color:#6199F6"/> <stop offset="0.02" style="stop-color:#659CF6"/> <stop offset="0.227" style="stop-color:#8CB5F8"/> <stop offset="0.432" style="stop-color:#ABC9FA"/> <stop offset="0.632" style="stop-color:#C0D7FB"/> <stop offset="0.824" style="stop-color:#CEE0FC"/> <stop offset="1" style="stop-color:#D2E3FC"/> </linearGradient> <path fill="url(#SVGID_11_)" d="M23.84,397.64l-28.82-28.82l23.09-23.1l28.83,28.82L23.84,397.64z"/> <path fill="#FFFFFF" d="M80.4,331.05l-0.14-0.28c-0.46-0.91-1.57-1.28-2.48-0.83c-0.18,0.09-0.34,0.21-0.48,0.35L44.59,363 c-1.17,1.17-3.03,1.47-4.41,0.56c-1.62-1.03-2.1-3.18-1.07-4.8c0.14-0.22,0.3-0.42,0.48-0.6l33.53-35.04 c0.92-0.97,0.89-2.5-0.08-3.42c-0.93-0.89-2.4-0.89-3.33,0l-34.96,33.44c-1.17,1.17-3.03,1.47-4.41,0.56 c-1.62-1.03-2.1-3.18-1.07-4.8c0.14-0.22,0.3-0.42,0.48-0.6l32.6-32.6c0.97-0.97,0.58-2.64-0.73-3.06 c-0.54-0.18-1.13-0.09-1.6,0.22c-39.48,26.2-46.66,28.82-47.33,50.35c-0.21,6.66-0.74,8.99-5.18,13.9L-61,443.04 c-2.98,2.89-3.05,7.65-0.16,10.63c0.03,0.03,0.05,0.06,0.08,0.08c2.93,2.93,7.68,2.94,10.62,0.01c0.02-0.02,0.04-0.04,0.06-0.07 l66.51-68.4c4.89-4.4,7.16-4.96,13.63-5.27c20.96-1.01,23.85-8.09,50.54-47.09C80.65,332.37,80.7,331.65,80.4,331.05L80.4,331.05z" /> <linearGradient id="SVGID_12_" gradientUnits="userSpaceOnUse" x1="-1277.1322" y1="-1185.0107" x2="-1321.4022" y2="-1229.2808" gradientTransform="matrix(1.0171 0.2726 -0.2726 -1.0171 1042.5079 -455.669)"> <stop offset="0" style="stop-color:#6199F6"/> <stop offset="0.02" style="stop-color:#659CF6"/> <stop offset="0.227" style="stop-color:#8CB5F8"/> <stop offset="0.432" style="stop-color:#ABC9FA"/> <stop offset="0.632" style="stop-color:#C0D7FB"/> <stop offset="0.824" style="stop-color:#CEE0FC"/> <stop offset="1" style="stop-color:#D2E3FC"/> </linearGradient> <path fill="url(#SVGID_12_)" d="M42.63,443.93L24.1,425.4l31.3-31.3l18.53,18.53L42.63,443.93z"/> <path fill="#FFFFFF" d="M30.31,418.94c3.37-3.75,47.42-47.65,64.31-64.48c3.49-3.48,9.23-3.16,12.33,0.67 c2.15,2.66,2.33,6.4,0.47,9.26c-3.35,5.14-8.21,12.6-8.41,12.89c-24.86,37.45-27.34,44.26-47.76,44.9 c-6.32,0.2-8.53,0.7-13.19,4.91l-54.28,56.73c-2.77,2.86-7.34,2.89-10.16,0.08c-2.78-2.78-2.79-7.29,0-10.08 c0.02-0.02,0.04-0.04,0.06-0.06L30.31,418.94z"/> </g> <g> <linearGradient id="SVGID_13_" gradientUnits="userSpaceOnUse" x1="2840.1938" y1="-5568.2778" x2="2638.5938" y2="-5769.8779" gradientTransform="matrix(0.4923 0.2488 -0.249 -0.4922 -1956.1001 -2970.5559)"> <stop offset="0" style="stop-color:#6199F6"/> <stop offset="0.02" style="stop-color:#659CF6"/> <stop offset="0.227" style="stop-color:#8CB5F8"/> <stop offset="0.432" style="stop-color:#ABC9FA"/> <stop offset="0.632" style="stop-color:#C0D7FB"/> <stop offset="0.824" style="stop-color:#CEE0FC"/> <stop offset="1" style="stop-color:#D2E3FC"/> </linearGradient> <path fill="url(#SVGID_13_)" d="M862.13,611.32L694.09,443.35l47.96-47.99l168.04,167.98L862.13,611.32z"/> <path fill="#E8F0FE" d="M899.04,573.15l137.21-106.74L902.26,270.59L747.69,389.73l69.59,101.7L899.04,573.15z"/> <path fill="#FFFFFF" d="M863.84,273.4l167.49,167.44L898.9,573.31L731.41,405.87L863.84,273.4z"/> <path fill="#E8F0FE" d="M859.78,304.81l141.04,141.01l-23.71,23.72l-141.04-141L859.78,304.81z M950.76,488.17 c-0.96,0-1.93-0.37-2.66-1.1l-59.09-59.06c-1.47-1.47-1.47-3.85,0-5.32c0,0,0,0,0,0c1.47-1.47,3.85-1.47,5.32,0c0,0,0,0,0,0 l59.09,59.06c1.47,1.47,1.47,3.85,0,5.32C952.72,487.77,951.76,488.17,950.76,488.17L950.76,488.17z M934.33,504.6 c-0.96,0-1.93-0.37-2.66-1.1l-59.09-59.06c-1.47-1.47-1.47-3.85,0-5.32c0,0,0,0,0,0c1.47-1.47,3.85-1.47,5.32,0c0,0,0,0,0,0 l59.09,59.06c1.47,1.47,1.47,3.85,0,5.32C936.29,504.2,935.33,504.6,934.33,504.6L934.33,504.6z M918.66,521.11 c-0.96,0-1.93-0.37-2.66-1.1l-59.09-59.06c-1.47-1.47-1.47-3.85,0-5.32c0,0,0,0,0,0c1.47-1.47,3.85-1.47,5.32,0c0,0,0,0,0,0 l59.09,59.06c1.47,1.47,1.47,3.85,0,5.32c0,0,0,0,0,0C920.59,520.75,919.63,521.11,918.66,521.11L918.66,521.11z M903.95,535.83 c-0.96,0-1.93-0.37-2.66-1.1l-59.09-59.06c-1.47-1.47-1.47-3.85,0-5.32c0,0,0,0,0,0c1.47-1.47,3.85-1.47,5.32,0c0,0,0,0,0,0 l59.09,59.06c1.47,1.47,1.47,3.85,0,5.32C905.91,535.43,904.95,535.83,903.95,535.83L903.95,535.83z"/> <path fill="#34A852" d="M844.78,432.47c13.84-0.91,24.31-12.8,23.39-26.55s-12.88-24.16-26.72-23.24 C841.35,382.69,844.68,432.48,844.78,432.47L844.78,432.47z"/> <path fill="none" stroke="#34A852" stroke-width="5" stroke-miterlimit="10" d="M834.94,368.63c-1,6.87-7.23,5.97-8.22,12.84 c-1,6.87,5.23,7.78,4.23,14.65s-7.22,5.97-8.22,12.84s5.23,7.78,4.23,14.65s-7.23,5.97-8.22,12.85c-1,6.88,5.23,7.78,4.23,14.65"/> <ellipse transform="matrix(0.707 -0.7072 0.7072 0.707 -38.8456 682.1966)" fill="none" stroke="#34A852" stroke-width="5" stroke-miterlimit="10" cx="803.88" cy="387.98" rx="9.2" ry="9.2"/> <path fill="none" stroke="#34A852" stroke-width="5" stroke-miterlimit="10" d="M787.72,423.07l9.16,15.09l15.99-26.56l-32.3-0.32 l6.67,11.65"/> </g> <g> <linearGradient id="SVGID_14_" gradientUnits="userSpaceOnUse" x1="-9431.0625" y1="-4296.062" x2="-9667.5439" y2="-4532.5439" gradientTransform="matrix(0.4983 0.2491 -0.2491 -0.4983 3878.7141 681.99)"> <stop offset="0" style="stop-color:#6199F6"/> <stop offset="0.02" style="stop-color:#659CF6"/> <stop offset="0.227" style="stop-color:#8CB5F8"/> <stop offset="0.432" style="stop-color:#ABC9FA"/> <stop offset="0.632" style="stop-color:#C0D7FB"/> <stop offset="0.824" style="stop-color:#CEE0FC"/> <stop offset="1" style="stop-color:#D2E3FC"/> </linearGradient> <path fill="url(#SVGID_14_)" d="M273.37,616.56L106.25,449.43l48.44-48.44l167.12,167.13L273.37,616.56z"/> <path fill="#9FC1F9" d="M167.51,413.08L281.89,298.7l111.95,111.95L279.46,525.03L167.51,413.08z"/> <path fill="#F1F1F2" d="M142.94,413.07l167.59,167.59l138.94-138.94l-167.6-167.59L142.94,413.07L142.94,413.07z M393.84,410.65 L279.46,525.04L167.51,413.09L281.89,298.7L393.84,410.65L393.84,410.65z"/> <ellipse transform="matrix(0.7071 -0.7071 0.7071 0.7071 -207.8954 349.334)" fill="#E8F0FE" cx="317.73" cy="425.61" rx="78.75" ry="78.75"/> <linearGradient id="SVGID_15_" gradientUnits="userSpaceOnUse" x1="-19824.2344" y1="13803.7734" x2="-20006.8145" y2="13621.1943" gradientTransform="matrix(0.2042 0.0432 -0.0432 -0.2042 4941.4209 4100.5078)"> <stop offset="0" style="stop-color:#4285F4"/> <stop offset="0.03" style="stop-color:#4B8BF5"/> <stop offset="0.201" style="stop-color:#7BAAF7"/> <stop offset="0.371" style="stop-color:#A2C3FA"/> <stop offset="0.538" style="stop-color:#C1D7FC"/> <stop offset="0.701" style="stop-color:#D6E5FD"/> <stop offset="0.857" style="stop-color:#E4EDFE"/> <stop offset="1" style="stop-color:#E8F0FE"/> </linearGradient> <path fill="url(#SVGID_15_)" d="M289.46,475.2l-39.77-44.04l27.21-28.01l35.05,49.57L289.46,475.2z"/> <g> <g> <ellipse transform="matrix(0.9731 -0.2302 0.2302 0.9731 -93.4831 79.6927)" fill="#34A852" cx="294.79" cy="440.48" rx="24.36" ry="24.36"/> <ellipse transform="matrix(0.9731 -0.2302 0.2302 0.9731 -88.2153 77.7037)" fill="#34A852" cx="288.9" cy="416.91" rx="18.27" ry="18.27"/> </g> </g> <path fill="#92DDA6" d="M289.8,417.65c-0.9,0.19-1.48,1.08-1.29,1.98c0,0,0,0,0,0l3.31,15.87l-10.43-5.99 c-0.8-0.46-1.82-0.18-2.28,0.62s-0.18,1.82,0.62,2.28l0,0l13.01,7.48l2.24,10.74l-10.57-6.08c-0.8-0.46-1.82-0.18-2.28,0.62 s-0.18,1.82,0.62,2.28l13.15,7.56l4.53,21.75c0.19,0.9,1.07,1.48,1.98,1.29c0.79-0.16,1.33-0.86,1.33-1.63 c0-0.11-0.01-0.23-0.04-0.34l-4.56-21.89l7.64-13.3c0.15-0.26,0.22-0.55,0.22-0.83c0-0.92-0.75-1.67-1.67-1.67 c-0.6,0-1.15,0.32-1.45,0.84l-5.77,10.04l-2.07-9.95l7.74-13.46c0.15-0.26,0.22-0.55,0.22-0.83c0-0.92-0.75-1.67-1.67-1.67 c-0.6,0-1.15,0.32-1.45,0.84l-5.86,10.2l-3.21-15.43C291.59,418.04,290.71,417.46,289.8,417.65L289.8,417.65z"/> <path fill="#FFFFFF" d="M393.84,410.65L279.46,525.04L167.51,413.09L281.89,298.7L393.84,410.65L393.84,410.65z M142.94,413.07 l167.59,167.59l138.94-138.94l-167.6-167.59L142.94,413.07L142.94,413.07z"/> </g> <linearGradient id="SVGID_16_" gradientUnits="userSpaceOnUse" x1="-14739.8789" y1="-2289.6665" x2="-14784.9072" y2="-2244.6372" gradientTransform="matrix(0.2704 0.0701 0.0701 0.2704 4453.2036 2041.3013)"> <stop offset="0" style="stop-color:#4285F4"/> <stop offset="0.032" style="stop-color:#4C8BF5"/> <stop offset="0.202" style="stop-color:#7BAAF7"/> <stop offset="0.372" style="stop-color:#A2C3FA"/> <stop offset="0.538" style="stop-color:#C1D7FC"/> <stop offset="0.7" style="stop-color:#D6E5FD"/> <stop offset="0.856" style="stop-color:#E4EDFE"/> <stop offset="1" style="stop-color:#E8F0FE"/> </linearGradient> <path fill="url(#SVGID_16_)" d="M307.93,397.31c-0.03,0-0.06,0-0.09,0.01c-0.16,0.02-0.32,0.02-0.48,0.03 c-0.65,0.03-1.29-0.01-1.93-0.12c-0.03-0.01-0.07-0.01-0.1-0.02c-0.25-0.05-0.48-0.11-0.72-0.17l-0.08-0.02 c-0.25-0.07-0.49-0.16-0.74-0.25c-0.01,0-0.02-0.01-0.02-0.01c-1.02-0.41-1.98-1.02-2.8-1.84c-2.97-2.97-3.27-7.61-0.89-10.92 l-8.24,8.25l11.88,11.89l8.82-8.82l-0.02-0.02c-1.29,1.12-2.89,1.84-4.6,2.02C307.93,397.31,307.93,397.31,307.93,397.31 L307.93,397.31z"/> <linearGradient id="SVGID_17_" gradientUnits="userSpaceOnUse" x1="-14648.8652" y1="-2217.9773" x2="-14712.6455" y2="-2154.197" gradientTransform="matrix(0.2704 0.0701 0.0701 0.2704 4453.2036 2041.3013)"> <stop offset="0" style="stop-color:#4285F4"/> <stop offset="0.032" style="stop-color:#4C8BF5"/> <stop offset="0.202" style="stop-color:#7BAAF7"/> <stop offset="0.372" style="stop-color:#A2C3FA"/> <stop offset="0.538" style="stop-color:#C1D7FC"/> <stop offset="0.7" style="stop-color:#D6E5FD"/> <stop offset="0.856" style="stop-color:#E4EDFE"/> <stop offset="1" style="stop-color:#E8F0FE"/> </linearGradient> <path fill="url(#SVGID_17_)" d="M338.74,425.82h-0.02c-1.76,0.46-3.61,0.46-5.38,0h-0.02c-0.87-0.23-1.71-0.57-2.5-1.01 c-0.04-0.02-0.08-0.04-0.11-0.07c-0.35-0.2-0.69-0.43-1.03-0.68c-0.04-0.03-0.08-0.06-0.13-0.09c-0.36-0.28-0.72-0.58-1.05-0.91 c-3.38-3.38-4.01-8.46-1.89-12.48c0.4-0.76,0.91-1.48,1.51-2.15l-11.95,11.96l14.77,14.78l10.48-10.48 C340.56,425.2,339.66,425.58,338.74,425.82L338.74,425.82z"/> <ellipse transform="matrix(0.7071 -0.7071 0.7071 0.7071 -185.0985 330.8625)" fill="#DF382C" cx="306.83" cy="388.86" rx="8.58" ry="8.58"/> <g> <path fill="#B7251D" d="M315.35,387.92c-0.42,1.2-1.11,2.28-2,3.18c-3.34,3.34-8.78,3.34-12.13,0c-1.37-1.37-2.23-3.16-2.45-5.08 c-1.12,3.12-0.34,6.61,2,8.95c3.34,3.34,8.78,3.34,12.12,0C314.75,393.12,315.65,390.52,315.35,387.92z"/> </g> <ellipse transform="matrix(0.7071 -0.7071 0.7071 0.7071 -195.5685 359.1706)" fill="#DF382C" cx="335.76" cy="415.65" rx="10.66" ry="10.66"/> <path fill="#B7251D" d="M343.24,418.04c-4.16,4.16-10.91,4.16-15.07,0c-1.34-1.33-2.29-3-2.76-4.83c-0.82,3.47,0.12,7.27,2.83,9.98 c4.16,4.16,10.91,4.16,15.07,0c2.77-2.77,3.69-6.7,2.76-10.24C345.63,414.82,344.7,416.59,343.24,418.04L343.24,418.04z"/> <g> <linearGradient id="SVGID_18_" gradientUnits="userSpaceOnUse" x1="6937.3662" y1="747.5192" x2="6937.3794" y2="747.5192" gradientTransform="matrix(0.6745 -0.7383 0.7383 0.6745 -4061.9236 5006.042)"> <stop offset="0" style="stop-color:#FFFFFF"/> <stop offset="1" style="stop-color:#979DA5"/> </linearGradient> <polygon opacity="0.8" fill="url(#SVGID_18_)" points="1169.09,388.44 1169.1,388.43 1169.09,388.42 "/> </g> <linearGradient id="SVGID_19_" gradientUnits="userSpaceOnUse" x1="1140.9554" y1="230.0633" x2="1140.9554" y2="316.4396" gradientTransform="matrix(0.6753 0.6753 -0.7425 0.7425 531.4382 -600.9661)"> <stop offset="0" style="stop-color:#6199F6"/> <stop offset="0.0204" style="stop-color:#659CF6"/> <stop offset="0.2274" style="stop-color:#8CB5F8"/> <stop offset="0.4323" style="stop-color:#ABC9FA"/> <stop offset="0.6319" style="stop-color:#C0D7FB"/> <stop offset="0.824" style="stop-color:#CEE0FC"/> <stop offset="1" style="stop-color:#D2E3FC"/> </linearGradient> <polygon fill="url(#SVGID_19_)" points="1104.3,453.23 1018.2,367.13 1082.99,302.34 1169.09,388.44 "/> <path fill="#FABB06" d="M1082.62,369.06c-18.36-16.77-19.66-45.34-2.91-63.71v0c0.01-0.01,0.02-0.03,0.03-0.04 c16.78-18.37,45.38-19.66,63.75-2.88l0,0l0,0c0.63,0.58,1.24,1.18,1.84,1.78c0.19,0.2,0.37,0.4,0.56,0.59 c0.4,0.42,0.79,0.84,1.17,1.28c0.21,0.24,0.41,0.47,0.61,0.71c0.35,0.41,0.68,0.83,1.01,1.25c0.19,0.25,0.38,0.49,0.57,0.74 c0.33,0.44,0.65,0.9,0.96,1.35c0.16,0.23,0.32,0.45,0.47,0.68c0.39,0.58,0.76,1.18,1.11,1.77c0.06,0.1,0.13,0.21,0.19,0.31 c0.42,0.71,0.81,1.43,1.18,2.16c0.1,0.19,0.19,0.39,0.28,0.58c0.27,0.54,0.53,1.08,0.77,1.63c0.11,0.25,0.22,0.51,0.33,0.77 c0.21,0.5,0.42,1,0.61,1.51c0.1,0.27,0.2,0.53,0.3,0.8c0.19,0.52,0.36,1.04,0.53,1.57c0.08,0.25,0.16,0.49,0.24,0.74 c0.19,0.63,0.36,1.26,0.52,1.89c0.04,0.15,0.08,0.29,0.12,0.44c0.04,0.17,0.08,0.34,0.12,0.52l0.17-0.04l11.91,62.95l-58.31-7.62 l0-0.01C1100.65,380.28,1090.66,376.4,1082.62,369.06z"/> <g> <path fill="#FFFFFF" d="M1119.75,365.17c-0.8,0-1.55-0.45-1.93-1.18l-8.14-15.97l-17.71,2.8c-0.92,0.15-1.84-0.32-2.27-1.16 c-0.43-0.84-0.26-1.85,0.4-2.51l12.68-12.68l-8.14-15.97c-0.43-0.84-0.26-1.85,0.4-2.51c0.66-0.66,1.68-0.82,2.51-0.4l15.97,8.14 l12.68-12.68c0.66-0.66,1.68-0.83,2.51-0.4c0.84,0.43,1.3,1.34,1.16,2.27l-2.8,17.71l15.97,8.14c0.84,0.43,1.3,1.34,1.16,2.27 c-0.15,0.93-0.87,1.65-1.8,1.8l-17.71,2.81l-2.81,17.71c-0.15,0.93-0.87,1.65-1.8,1.8 C1119.98,365.16,1119.87,365.17,1119.75,365.17z M1110.9,343.46c0.8,0,1.55,0.45,1.93,1.18l5.83,11.44l2.01-12.68 c0.15-0.93,0.87-1.65,1.8-1.8l12.68-2.01l-11.44-5.83c-0.84-0.43-1.3-1.34-1.16-2.27l2.01-12.68l-9.08,9.08 c-0.66,0.66-1.68,0.82-2.51,0.4l-11.44-5.83l5.83,11.44c0.43,0.84,0.26,1.85-0.4,2.51l-9.08,9.08l12.68-2.01 C1110.68,343.47,1110.79,343.46,1110.9,343.46z"/> </g> </svg>  
