<?xml version="1.0" encoding="UTF-8"?>
<svg width="20px" height="20px" viewBox="0 0 20 20" version="1.1" xmlns="http://www.w3.org/2000/svg" xmlns:xlink="http://www.w3.org/1999/xlink">
    <!-- Generator: Sketch 46.2 (44496) - http://www.bohemiancoding.com/sketch -->
    <title>ic_qu_alternate-route copy 2</title>
    <desc>Created with Sketch.</desc>
    <defs></defs>
    <g id="Page-1" stroke="none" stroke-width="1" fill="none" fill-rule="evenodd">
        <g id="start_direction_promo" transform="translate(-23.000000, -237.000000)">
            <g id="ic_qu_alternate-route-copy-2" transform="translate(21.000000, 235.000000)">
                <polygon id="[container]" points="0 0 24 0 24 24 0 24"></polygon>
                <g id="icon" transform="translate(2.000000, 2.000000)">
                    <circle id="Base" fill="#4285F4" cx="10" cy="10" r="10"></circle>
                    <g id="ic_qu_turn_ramp_right" transform="translate(5.000000, 4.000000)">
                        <rect id="[container]" x="0" y="0" width="12" height="12"></rect>
                        <g id="Imported-Layers" transform="translate(2.000000, 2.000000)" fill="#FFFFFF">
                            <polygon id="Fill-1" fill-opacity="0.5" points="0.0267352941 0.0275 1.88126471 0.0275 1.88126471 8.7725 0.0267352941 8.7725"></polygon>
                            <path d="M8.58970588,1.31775 L8.56535294,1.276 C8.55264706,1.26675 8.53597059,1.26075 8.51214706,1.25325 L6.68885294,0.6465 L4.86635294,0.04025 C4.82585294,0.02975 4.78376471,0.02625 4.74326471,0.0275 C4.70302941,0.0295 4.66358824,0.03525 4.62891176,0.04475 C4.5315,0.06925 4.45261765,0.131 4.40391176,0.21025 C4.35626471,0.28925 4.33879412,0.385 4.365,0.47675 C4.36102941,0.46325 4.46161765,0.62075 4.58576471,0.81575 C4.69932353,0.99475 4.83220588,1.203 4.92379412,1.34325 C3.77047059,1.61625 2.754,2.134 1.95167647,2.86925 C0.715764706,3.997 0.0219705882,5.6135 0.0267352941,7.445 L0.0267352941,8.77275 L1.88152941,8.77275 L1.88152941,7.445 C1.88655882,6.016 2.39426471,4.90875 3.24344118,4.127 C3.80276471,3.61625 4.52726471,3.24 5.40132353,3.03825 C5.39576471,3.2035 5.39205882,3.4385 5.38835294,3.64325 C5.38385294,3.8705 5.38041176,4.05475 5.37670588,4.04125 C5.40238235,4.133 5.46829412,4.2075 5.55194118,4.25375 C5.63479412,4.2985 5.73644118,4.3155 5.83385294,4.29075 C5.86879412,4.28175 5.90558824,4.26875 5.94185294,4.2505 C5.97732353,4.233 6.012,4.2105 6.04111765,4.182 L8.55608824,1.4105 L8.59023529,1.365 L8.58970588,1.31775" id="Fill-2"></path>
                        </g>
                    </g>
                </g>
            </g>
        </g>
    </g>
</svg>