<svg width="500" height="500" viewBox="0 0 500 500" xmlns="http://www.w3.org/2000/svg"><title>Walk_05-24fps_00037</title><desc>Created with Sketch.</desc><g fill="#fff"><path d="M230.408 103.21c22.871-1.604 40.271-21.629 38.667-44.5-1.604-22.871-21.629-40.271-44.5-38.667-22.871 1.604-40.271 21.629-38.667 44.5 1.604 22.871 21.629 40.271 44.5 38.667"/><rect transform="rotate(-2 224.062 203.929)" x="181.065" y="107.659" width="85.995" height="192.54" rx="42.997"/><rect transform="rotate(-45 264.496 158.871)" x="245.366" y="101.458" width="38.26" height="114.825" rx="19.13"/><rect transform="rotate(13 194.576 324.688)" x="170.168" y="249.34" width="48.815" height="150.695" rx="24.408"/><rect transform="rotate(-39 276.717 307.719)" x="252.31" y="237.214" width="48.815" height="141.011" rx="24.408"/><path d="M324.709 455.298l-36.89-96.245c-4.825-12.588 1.467-26.704 14.06-31.531 12.59-4.826 26.707 1.463 31.533 14.055l36.89 96.245-45.593 17.476zM128.054 473.511l30.098-104.798c3.719-12.95 17.233-20.432 30.19-16.711 12.954 3.72 20.442 17.231 16.722 30.184l-30.098 104.798-46.911-13.473zM386.849 231.522l-91.306-19.419c-10.333-2.198-16.928-12.353-14.73-22.688 2.198-10.333 12.357-16.927 22.683-14.731l90.369 19.219-7.015 37.619z"/><rect transform="rotate(51 173.142 157.499)" x="154.012" y="100.087" width="38.26" height="114.825" rx="19.13"/><path d="M105.404 271.68l13.94-88.287c1.648-10.439 11.444-17.565 21.885-15.917 10.438 1.648 17.564 11.445 15.915 21.891l-13.794 87.362-37.946-5.05z"/></g></svg>