<svg width="500" height="500" viewBox="0 0 500 500" xmlns="http://www.w3.org/2000/svg"><title>Walk_05-24fps_00033</title><desc>Created with Sketch.</desc><g fill="#fff"><path d="M236.408 88.21c22.871-1.604 40.271-21.629 38.667-44.5-1.604-22.871-21.629-40.271-44.5-38.667-22.871 1.604-40.271 21.629-38.667 44.5 1.604 22.871 21.629 40.271 44.5 38.667"/><rect transform="rotate(-2 231.062 196.429)" x="188.065" y="96.659" width="85.995" height="199.54" rx="42.997"/><rect transform="rotate(-27 265.496 164.871)" x="246.366" y="107.458" width="38.26" height="114.825" rx="19.13"/><rect transform="rotate(-1 217.576 318.688)" x="193.168" y="243.34" width="48.815" height="150.695" rx="24.408"/><rect transform="rotate(-35 273.717 295.719)" x="249.31" y="225.214" width="48.815" height="141.011" rx="24.408"/><path d="M248.156 424.02l34.739-90.633c4.827-12.593 18.943-18.891 31.537-14.064 12.59 4.826 18.886 18.942 14.057 31.54l-34.739 90.633-45.593-17.476zM184.81 477.459l9.487-108.615c1.172-13.421 13.004-23.351 26.433-22.178 13.426 1.173 23.36 13.001 22.187 26.425l-9.487 108.615-48.62-4.247zM348.869 284.937l-72.748-63.208c-7.979-6.933-8.83-19.018-1.898-26.996 6.931-7.977 19.012-8.828 26.994-1.892l72.003 62.561-24.351 29.536z"/><rect transform="rotate(20 192.142 178.499)" x="173.012" y="121.087" width="38.26" height="114.825" rx="19.13"/><path d="M158.679 309.991l1.587-93.36c.18-10.565 8.888-18.985 19.455-18.805 10.565.18 18.984 8.891 18.805 19.45l-1.571 92.401-38.276.314z"/></g></svg>