<svg width="500" height="500" viewBox="0 0 500 500" xmlns="http://www.w3.org/2000/svg"><title>Walk_05-24fps_00034</title><desc>Created with Sketch.</desc><g fill="#fff"><path d="M234.408 91.21c22.871-1.604 40.271-21.629 38.667-44.5-1.604-22.871-21.629-40.271-44.5-38.667-22.871 1.604-40.271 21.629-38.667 44.5 1.604 22.871 21.629 40.271 44.5 38.667"/><rect transform="rotate(-2 229.062 196.929)" x="186.065" y="98.659" width="85.995" height="196.54" rx="42.997"/><rect transform="rotate(-33 268.496 163.871)" x="249.366" y="106.458" width="38.26" height="114.825" rx="19.13"/><rect transform="rotate(3 211.576 318.688)" x="187.168" y="243.34" width="48.815" height="150.695" rx="24.408"/><rect transform="rotate(-37 277.717 298.719)" x="253.31" y="228.214" width="48.815" height="141.011" rx="24.408"/><path d="M267.084 430.609l16.884-95.582c2.346-13.281 15.009-22.146 28.289-19.8 13.278 2.346 22.141 15.008 19.794 28.294l-16.884 95.582-48.083-8.494zM169.487 476.79l15.158-107.96c1.873-13.341 14.207-22.637 27.555-20.763 13.345 1.874 22.646 14.204 20.772 27.548l-15.158 107.96-48.327-6.785zM365.457 267.746l-82.576-49.623c-9.057-5.443-11.99-17.193-6.547-26.249 5.441-9.054 17.187-11.986 26.248-6.541l81.73 49.114-18.856 33.299z"/><rect transform="rotate(30 183.142 170.499)" x="164.012" y="113.087" width="38.26" height="114.825" rx="19.13"/><path d="M136.819 298.427l8.122-92.986c.919-10.523 10.193-18.309 20.718-17.389 10.523.919 18.308 10.196 17.39 20.712l-8.039 92.032-38.191-2.368z"/></g></svg>