<svg width="500" height="500" viewBox="0 0 500 500" xmlns="http://www.w3.org/2000/svg"><title>Walk_05-24fps_00031</title><desc>Created with Sketch.</desc><g fill="#fff"><path d="M245.408 87.21c22.871-1.604 40.271-21.629 38.667-44.5-1.604-22.871-21.629-40.271-44.5-38.667-22.871 1.604-40.271 21.629-38.667 44.5 1.604 22.871 21.629 40.271 44.5 38.667"/><rect transform="rotate(-1 237.062 198.429)" x="194.065" y="95.659" width="85.995" height="205.54" rx="42.997"/><rect transform="rotate(-11 261.088 172.607)" x="241.958" y="115.195" width="38.26" height="114.825" rx="19.13"/><rect transform="rotate(-5 239.576 321.688)" x="215.168" y="246.34" width="48.815" height="150.695" rx="24.408"/><rect transform="rotate(-21 273.053 305.569)" x="248.646" y="235.064" width="48.815" height="141.011" rx="24.408"/><path d="M213.98 415.695l59.775-76.465c8.305-10.624 23.647-12.508 34.272-4.202 10.622 8.304 12.503 23.644 4.195 34.272l-59.775 76.465-38.466-30.07zM214.072 479.514l5.671-108.942c.701-13.462 12.183-23.807 25.652-23.106 13.466.701 23.815 12.179 23.114 25.644l-5.671 108.942-48.766-2.538zM299.798 315.417l-43.745-85.852c-4.798-9.416-1.058-20.937 8.357-25.735 9.414-4.797 20.931-1.059 25.731 8.362l43.297 84.973-33.64 18.252z"/><rect x="193.512" y="119.087" width="38.26" height="114.825" rx="19.13"/><path d="M212.632 326.256l-11.39-92.706c-1.289-10.491 6.169-20.041 16.662-21.33 10.491-1.289 20.041 6.172 21.329 16.657l11.273 91.755-37.875 5.625z"/></g></svg>