<svg width="500" height="500" viewBox="0 0 500 500" xmlns="http://www.w3.org/2000/svg"><title>Walk_05-24fps_00039</title><desc>Created with Sketch.</desc><g fill="#fff"><path d="M236.519 110.676c22.894-.802 40.969-20.19 40.167-43.083-.802-22.894-20.19-40.969-43.083-40.167-22.894.802-40.969 20.19-40.167 43.083.802 22.894 20.19 40.969 43.083 40.167"/><rect x="182.722" y="112.878" width="85.995" height="195.54" rx="42.997"/><rect transform="rotate(-42 268.648 167.563)" x="249.518" y="110.15" width="38.26" height="114.825" rx="19.13"/><rect transform="rotate(22 185.231 323.633)" x="160.824" y="248.286" width="48.815" height="150.695" rx="24.408"/><rect transform="rotate(-32 272.649 320.458)" x="248.242" y="245.111" width="48.815" height="150.695" rx="24.408"/><path d="M335.998 482.84l-54.425-102.468c-6.321-11.901-1.799-26.673 10.106-32.996 11.903-6.322 26.68-1.793 32.998 10.102l54.425 102.468-43.104 22.894zM98.699 469.8l42.639-100.436c5.269-12.411 19.602-18.2 32.019-12.928 12.415 5.271 18.209 19.601 12.939 32.015l-42.639 100.436-44.959-19.087zM385.682 237.482l-88.019-15.549c-10.407-1.838-17.354-11.763-15.515-22.172 1.838-10.407 11.764-17.353 22.178-15.513l87.097 15.386-5.741 37.848z"/><rect transform="rotate(50 174.382 164.899)" x="155.252" y="107.487" width="38.26" height="114.825" rx="19.13"/><path d="M108.608 275.233l15.549-88.019c1.838-10.407 11.763-17.354 22.172-15.515 10.407 1.838 17.353 11.764 15.513 22.178l-15.386 87.097-37.848-5.741z"/></g></svg>