<svg width="500" height="500" viewBox="0 0 500 500" xmlns="http://www.w3.org/2000/svg"><title>Walk_05-24fps_00030</title><desc>Created with Sketch.</desc><g fill="#fff"><path d="M250.657 89.251c22.894-1.192 40.65-20.898 39.458-43.792-1.192-22.894-20.898-40.65-43.792-39.458-22.894 1.192-40.65 20.898-39.458 43.792 1.192 22.894 20.898 40.65 43.792 39.458"/><rect x="196.065" y="96.659" width="85.995" height="205.54" rx="42.997"/><rect transform="rotate(-10 254.088 173.607)" x="234.958" y="116.195" width="38.26" height="114.825" rx="19.13"/><rect transform="rotate(-28 237.654 302.915)" x="213.247" y="243.053" width="48.815" height="119.724" rx="24.408"/><rect transform="rotate(-7 257.818 328.954)" x="233.411" y="258.449" width="48.815" height="141.011" rx="24.408"/><path d="M228.959 477.389l10.189-96.552c1.416-13.415 13.433-23.144 26.849-21.728 13.413 1.415 23.138 13.433 21.722 26.854l-10.189 96.552-48.571-5.126zM192.557 422.49l54.525-94.438c6.738-11.67 21.66-15.667 33.337-8.926 11.674 6.74 15.677 21.661 8.937 33.333l-54.525 94.438-42.274-24.408zM269.081 324.077l-28.135-92.115c-3.086-10.103 2.598-20.794 12.701-23.88 10.1-3.085 20.788 2.597 23.875 12.705l27.847 91.171-36.287 12.118z"/><rect transform="rotate(1 219.642 177.499)" x="200.512" y="120.087" width="38.26" height="114.825" rx="19.13"/><path d="M211.776 282.909l-9.803-92.893c-1.109-10.512 6.511-19.934 17.026-21.043 10.512-1.109 19.934 6.515 21.042 17.02l9.702 91.939-37.967 4.977z"/></g></svg>