<svg width="500" height="500" viewBox="0 0 500 500" xmlns="http://www.w3.org/2000/svg"><title>Walk_05-24fps_00026</title><desc>Created with Sketch.</desc><g fill="#fff"><path d="M250.909 108.739c22.917 0 41.667-18.75 41.667-41.667s-18.75-41.667-41.667-41.667-41.667 18.75-41.667 41.667 18.75 41.667 41.667 41.667"/><rect transform="rotate(3 233.246 209.315)" x="190.249" y="110.545" width="85.995" height="197.54" rx="42.997"/><rect transform="rotate(-22 271.426 181.445)" x="252.296" y="124.032" width="38.26" height="114.825" rx="19.13"/><rect transform="rotate(10 200.279 335.278)" x="175.872" y="275.416" width="48.815" height="119.724" rx="24.408"/><rect transform="rotate(-21 269.399 329.622)" x="244.992" y="259.117" width="48.815" height="141.011" rx="24.408"/><path d="M285.699 485.353l-21.016-98.816c-2.804-13.185 5.607-26.147 18.793-28.951 13.183-2.804 26.143 5.61 28.948 18.797l21.016 98.816-47.741 10.154zM120.985 451.079l50.024-86.642c6.738-11.671 21.662-15.67 33.338-8.928 11.674 6.74 15.669 21.674 8.936 33.336l-50.024 86.642-42.274-24.408zM354.183 282.722l-82.576-49.623c-9.057-5.443-11.99-17.193-6.547-26.249 5.441-9.054 17.187-11.986 26.248-6.541l81.73 49.114-18.856 33.299z"/><rect transform="rotate(33 204.609 183.308)" x="185.479" y="125.895" width="38.26" height="114.825" rx="19.13"/><path d="M153.529 306.838l11.39-92.706c1.289-10.491 10.836-17.952 21.33-16.662 10.491 1.289 17.951 10.84 16.663 21.324l-11.273 91.755-38.11-3.71z"/></g></svg>