<svg width="500" height="500" viewBox="0 0 500 500" xmlns="http://www.w3.org/2000/svg"><title>Walk_05-24fps_00029</title><desc>Created with Sketch.</desc><g fill="#fff"><path d="M254.328 94.621c22.917-.39 41.348-19.458 40.958-42.375-.39-22.917-19.458-41.348-42.375-40.958-22.917.39-41.348 19.458-40.958 42.375.39 22.917 19.458 41.348 42.375 40.958"/><rect transform="rotate(2 239.529 202.5)" x="196.531" y="99.73" width="85.995" height="205.54" rx="42.997"/><rect transform="rotate(-8 255.235 177.125)" x="236.105" y="119.712" width="38.26" height="114.825" rx="19.13"/><rect transform="rotate(-18 230.573 309.934)" x="206.165" y="250.072" width="48.815" height="119.724" rx="24.408"/><rect transform="rotate(-10 262.83 327.262)" x="238.422" y="256.757" width="48.815" height="141.011" rx="24.408"/><path d="M242.947 479.069l3.396-96.94c.472-13.469 11.768-24.006 25.238-23.534 13.466.472 24.001 11.768 23.529 25.243l-3.396 96.94-48.766-1.709zM174.779 427.555l57.797-92.475c7.142-11.427 22.196-14.9 33.629-7.754 11.431 7.144 14.91 22.197 7.766 33.627l-57.797 92.475-41.395-25.872zM276.413 323.292l-37.675-88.742c-4.132-9.733.404-20.972 10.137-25.104 9.731-4.131 20.965.403 25.1 10.141l37.289 87.834-34.85 15.871z"/><rect transform="rotate(3 221.441 179.822)" x="202.311" y="122.41" width="38.26" height="114.825" rx="19.13"/><path d="M209.411 284.631l-6.535-93.173c-.74-10.544 7.206-19.691 17.753-20.431 10.544-.74 19.691 7.21 20.43 17.747l6.468 92.217-38.116 3.64z"/></g></svg>