<svg width="500" height="500" viewBox="0 0 500 500" xmlns="http://www.w3.org/2000/svg"><title>Walk_05-24fps_00028</title><desc>Created with Sketch.</desc><g fill="#fff"><path d="M255.328 99.621c22.917-.39 41.348-19.458 40.958-42.375-.39-22.917-19.458-41.348-42.375-40.958-22.917.39-41.348 19.458-40.958 42.375.39 22.917 19.458 41.348 42.375 40.958"/><rect transform="rotate(2 238.529 205.5)" x="195.531" y="102.73" width="85.995" height="205.54" rx="42.997"/><rect transform="rotate(-8 260.235 181.125)" x="241.105" y="123.712" width="38.26" height="114.825" rx="19.13"/><rect transform="rotate(-8 221.573 311.934)" x="197.165" y="252.072" width="48.815" height="119.724" rx="24.408"/><rect transform="rotate(-15 265.83 328.262)" x="241.422" y="257.757" width="48.815" height="141.011" rx="24.408"/><path d="M257.198 480.777l-3.396-96.94c-.472-13.469 10.059-24.771 23.529-25.243 13.466-.472 24.766 10.06 25.238 23.534l3.396 96.94-48.766 1.709zM156.779 434.555l57.797-92.475c7.142-11.427 22.196-14.9 33.629-7.754 11.431 7.144 14.91 22.197 7.766 33.627l-57.797 92.475-41.395-25.872zM304.875 313.503l-52.513-80.841c-5.76-8.867-3.245-20.721 5.621-26.481 8.864-5.758 20.715-3.245 26.477 5.626l51.975 80.013-31.561 21.682z"/><rect transform="rotate(3 220.441 182.822)" x="201.311" y="125.41" width="38.26" height="114.825" rx="19.13"/><path d="M208.411 287.631l-6.535-93.173c-.74-10.544 7.206-19.691 17.753-20.431 10.544-.74 19.691 7.21 20.43 17.747l6.468 92.217-38.116 3.64z"/></g></svg>