<svg width="500" height="500" viewBox="0 0 500 500" xmlns="http://www.w3.org/2000/svg"><title>Walk_05-24fps_00024</title><desc>Created with Sketch.</desc><g fill="#fff"><path d="M241.627 112.468c22.917 0 41.667-18.75 41.667-41.667s-18.75-41.667-41.667-41.667-41.667 18.75-41.667 41.667 18.75 41.667 41.667 41.667"/><rect transform="rotate(2 228.349 209.986)" x="185.352" y="113.216" width="85.995" height="193.54" rx="42.997"/><rect transform="rotate(-35 270.756 171.425)" x="251.626" y="114.013" width="38.26" height="114.825" rx="19.13"/><rect transform="rotate(24 183.943 322.49)" x="159.535" y="247.142" width="48.815" height="150.695" rx="24.408"/><rect transform="rotate(-26 269.418 325.367)" x="245.011" y="250.02" width="48.815" height="150.695" rx="24.408"/><path d="M317.521 490.172l-47.231-106.066c-5.486-12.319.053-26.752 12.376-32.239 12.321-5.486 26.758.059 32.241 12.372l47.231 106.066-44.617 19.868zM85.765 468.517l51.318-100.714c6.122-12.014 20.818-16.794 32.832-10.673 12.011 6.12 16.785 20.819 10.663 32.835l-51.318 100.714-43.494-22.162zM380.181 249.058l-86.679-21.625c-10.249-2.557-16.484-12.935-13.927-23.186 2.557-10.248 12.936-16.484 23.192-13.925l85.771 21.398-8.357 37.337z"/><rect transform="rotate(48 183.64 170.473)" x="164.51" y="113.061" width="38.26" height="114.825" rx="19.13"/><path d="M118.787 283.461l15.549-88.019c1.838-10.407 11.763-17.354 22.172-15.515 10.407 1.838 17.353 11.764 15.513 22.178l-15.386 87.097-37.848-5.741z"/></g></svg>