<svg xmlns="http://www.w3.org/2000/svg" width="38" height="62" viewBox="0 0 38 62"><g fill="none" fill-rule="evenodd"><path fill="#4285F4" d="M19 0C8.50606 0 0 8.39414 0 18.75c0 2.8289.8253 5.61914 2.19094 8.19258 5.206 9.92344 15.52775 20.3496 15.52775 33.29297 0 .69843.57355 1.26445 1.2813 1.26445.70775 0 1.2813-.56602 1.2813-1.26445 0-12.94336 10.32176-23.36953 15.52776-33.29297C37.1747 24.36914 38 21.5789 38 18.75 38 8.39414 29.49394 0 19 0z"/><path fill="#FFF" d="M34.5458 11.37193C34.38168 10.69385 30.26185.78103 19 .78125 7.73815.78148 3.61857 10.694 3.45393 11.3715c-.22842.93886.62177 1.13098 1.2312-.02787.74283-1.4103 5.20293-8.21817 14.3149-8.21868 9.11197-.00052 13.5722 6.8086 14.31483 8.21817.60942 1.15912 1.45898.96793 1.23094.0288z" opacity=".08"/><path fill="#FFF" d="M27 13h-4v-2c0-1.11-.89-2-2-2h-4c-1.11 0-2 .89-2 2v2h-4c-1.11 0-1.99.89-1.99 2L9 26c0 1.11.89 2 2 2h16c1.11 0 2-.89 2-2V15c0-1.11-.89-2-2-2zm-6 0h-4v-2h4v2z"/></g></svg>