<svg xmlns="http://www.w3.org/2000/svg" width="112" height="58" viewBox="0 0 112 58"><linearGradient id="a" x2="16" y1="48.99" y2="48.99" gradientUnits="userSpaceOnUse"><stop offset="0" style="stop-color:#FFFFFF"/><stop offset="1" style="stop-color:#676C72"/></linearGradient><path fill="url(#a)" d="M0 47.98h16V50H0z"/><path fill="#676C72" d="M13 20h3v30h-3z"/><ellipse cx="14.65" cy="12.81" fill="#3185FF" rx="12.65" ry="12.81"/><path fill="#FFF" d="M19.37 19.32h-8.78V6.26h8.66V8.4H13.2v3.2h5.1v2.14h-5.1v3.44h6.05v2.14"/><linearGradient id="b" x1="2" x2="103.87" y1="56.34" y2="56.34" gradientUnits="userSpaceOnUse"><stop offset="0" style="stop-color:#FFFFFF"/><stop offset="1" style="stop-color:#676C72"/></linearGradient><path fill="url(#b)" d="M2 55.33h101.87v2.02H2z"/><path fill="#292D33" d="M90.96 49.89c0 3.41-1.62 6.2-3.7 6.5l-1.09.03h-1c-2.24 0-4.06-2.92-4.06-6.53s1.82-6.53 4.06-6.53h1.73c2.24 0 4.06 2.93 4.06 6.53z"/><path fill="#DC534B" d="M51.92 15.93h56.21v1.73H51.92z"/><linearGradient id="c" x1="85.09" x2="85.09" y1="50.75" y2="38.54" gradientUnits="userSpaceOnUse"><stop offset="0" style="stop-color:#D63830"/><stop offset="1" style="stop-color:#E4746C"/></linearGradient><path fill="url(#c)" d="M75.26 38.54l-3.12 12.21h22.79l3.11-12.21"/><path fill="#DE5A53" d="M45.72 38.54L42.6 50.75h29.54l3.12-12.21"/><linearGradient id="d" x1="94.92" x2="111.42" y1="44.645" y2="44.645" gradientUnits="userSpaceOnUse"><stop offset="0" style="stop-color:#D63830"/><stop offset="1" style="stop-color:#E4746C"/></linearGradient><path fill="url(#d)" d="M98.04 38.54l-3.12 12.21h12.99c1.94 0 3.51-1.57 3.51-3.51v-8.7H98.04z"/><path fill="#292D33" d="M47.83 49.89c0-3.61-1.82-6.53-4.06-6.53h-1.73c-2.24 0-4.06 2.92-4.06 6.53 0 3.6 1.82 6.53 4.06 6.53h1.11l.98-.03c2.08-.29 3.7-3.09 3.7-6.5"/><path fill="#B52724" d="M30.67 50.75h34.29v-8.86c0-1.85-1.5-3.35-3.35-3.35H34.03c-1.85 0-3.35 1.5-3.35 3.35l-.01 8.86z"/><path fill="none" d="M69.52 36.57c-1.28 0-2.36.83-2.77 1.97h5.53c-.4-1.15-1.48-1.97-2.76-1.97z"/><path fill="#9FC1F9" d="M107.65 17.66h-9.58v20.88h13.36"/><path fill="#80ADF7" d="M79.68 17.66l-4.42 20.88h22.81V17.66"/><path fill="#6199F6" d="M79.68 17.66H53.02l-5.39 20.88h27.63"/><path fill="#2C66BF" d="M69.52 35.34c-1.96 0-3.6 1.37-4.04 3.19h1.28c.41-1.14 1.49-1.97 2.77-1.97s2.36.83 2.77 1.97h1.28c-.45-1.82-2.09-3.19-4.06-3.19z"/><path fill="#F8BA2D" d="M41.34 46.79h11.55c1.68 0 3.05-1.36 3.05-3.05 0-1.68-1.36-3.05-3.05-3.05H41.34c-1.68 0-3.05 1.36-3.05 3.05s1.37 3.05 3.05 3.05"/><path fill="#FFF" d="M36.29 43.44c0 1.61-.81 2.91-1.81 2.91s-1.81-1.3-1.81-2.91.81-2.91 1.81-2.91c1 .01 1.81 1.31 1.81 2.91M61.71 43.44c0 1.61-.81 2.91-1.81 2.91s-1.81-1.3-1.81-2.91.81-2.91 1.81-2.91c1 .01 1.81 1.31 1.81 2.91"/><path fill="#B52724" d="M51.92 15.93H81.3v1.73H51.92z"/><path fill="#292D33" d="M75.94 44.3c-2.24 0-4.06 2.92-4.06 6.53 0 3.6 1.82 6.53 4.06 6.53h1.73V44.31l-1.73-.01z"/><ellipse cx="77.66" cy="50.83" fill="#676C72" rx="4.06" ry="6.53"/><path fill="#F8BA2D" d="M79.77 50.83c0 1.59-.8 2.89-1.79 2.89s-1.79-1.29-1.79-2.89c0-1.59.8-2.89 1.79-2.89s1.79 1.29 1.79 2.89"/><path fill="#959CA5" d="M65.97 48.41h-35.1c-.99 0-1.79.8-1.79 1.79s.8 1.79 1.79 1.79h35.1c.99 0 1.79-.8 1.79-1.79s-.8-1.79-1.79-1.79z"/><path fill="#292D33" d="M102.23 44.3c-2.24 0-4.06 2.92-4.06 6.53 0 3.6 1.82 6.53 4.06 6.53h1.74l-.01-13.05-1.73-.01z"/><path fill="#676C72" d="M108.02 50.83c0 3.6-1.82 6.53-4.06 6.53s-4.06-2.92-4.06-6.53 1.82-6.53 4.06-6.53c2.24 0 4.06 2.92 4.06 6.53"/><g><path fill="#F7BA2E" d="M106.07 50.83c0 1.59-.8 2.89-1.79 2.89s-1.79-1.29-1.79-2.89c0-1.59.8-2.89 1.79-2.89s1.79 1.29 1.79 2.89"/></g></svg>